<svg width="1080" height="250" viewBox="0 0 1080 250" fill="none" xmlns="http://www.w3.org/2000/svg">
<g clip-path="url(#clip0_2274_380)">
<rect width="1080" height="250" fill="#C2FCEE"/>
<rect width="1080" height="500" fill="white"/>
<g clip-path="url(#clip1_2274_380)">
<path d="M348.6 82.1C335.8 82.1 324.4 87.9 316.7 96.9C316 96 315.2 95.2 314.4 94.4C312 92 309.3 89.9 306.5 88.2C299.9 84.2 292.3 82.2 284.8 82.1C274.1 82.1 263.3 86.2 255.2 94.4C247 102.6 242.9 113.3 242.9 124C242.9 131.5 244.9 139.1 248.9 145.7C250.6 148.5 252.7 151.2 255.1 153.6C257.5 156 260.2 158.1 263 159.8C279.1 169.6 300.5 167.5 314.4 153.6C315.2 152.8 316 151.9 316.7 151.1C324.4 160.1 335.8 165.9 348.6 165.9C371.7 165.9 390.5 147.1 390.5 124C390.5 100.9 371.7 82.1 348.6 82.1ZM262.8 124C262.8 118.4 264.9 112.8 269.2 108.5C273.5 104.2 279.1 102.1 284.7 102.1C287 102.1 289.3 102.5 291.5 103.2L274.2 120.5L263.9 130.8C263.2 128.6 262.8 126.3 262.8 124ZM300.3 139.5C294.3 145.5 285.6 147.3 278 144.9L288.7 134.2L305.6 117.3L307.6 115.3C307 118.1 306.7 121.1 306.7 124.1C306.7 129.7 304.6 135.3 300.3 139.6V139.5ZM348.6 146C336.5 146 326.6 136.2 326.6 124C326.6 111.8 336.4 102 348.6 102C360.8 102 370.6 111.8 370.6 124C370.6 136.2 360.8 146 348.6 146Z" fill="#333333"/>
<path d="M210.2 116.9L169 53H145V165.2H169V95L213.9 165.2H234.3V53H210.2V116.9Z" fill="#333333"/>
<path d="M469.6 116.9L428.4 53H404.4V165.2H428.4V95L473.3 165.2H493.6V53H469.6V116.9Z" fill="#0F6BFF"/>
<path d="M564.9 88.5C558.9 84.8 552 83 544.3 83C536.6 83 529 84.8 522.7 88.4C516.4 92 511.5 97 508 103.3C504.5 109.6 502.7 116.7 502.7 124.4C502.7 132.1 504.5 139.2 508.1 145.5C511.7 151.8 516.7 156.8 523.2 160.4C529.7 164 537.2 165.8 545.8 165.8C554.4 165.8 560.1 164.4 565.9 161.5C571.7 158.7 576.5 154.6 580.2 149.2L563.2 139.1C561.4 141.4 559 143.3 555.9 144.6C552.8 146 549.6 146.7 546.4 146.7C541 146.7 536.7 145.5 533.3 143.2C529.9 140.8 527.3 137.2 525.3 132.4H583.7C584.1 130 584.3 127.3 584.3 124.4C584.3 116.7 582.6 109.7 579.3 103.4C575.9 97.1 571.2 92.1 565.2 88.4L564.9 88.5ZM524.7 115C524.9 111.5 526.9 108.6 530.7 106.1C534.5 103.6 539 102.4 544.1 102.4C549.2 102.4 553.2 103.5 556.6 105.7C560 107.9 562.1 111 562.8 115H524.6H524.7Z" fill="#0F6BFF"/>
<path d="M663.4 88.4C657.4 84.8 650.2 83 641.8 83C633.4 83 633.2 83.7 629.1 85.2C625 86.6 621.2 88.7 617.6 91.4V85.2H594.7V197.4H617.6V159.4C621.1 162.1 625 164.1 629.1 165.6C633.3 167 637.5 167.8 641.8 167.8C650.1 167.8 657.3 166 663.4 162.3C669.4 158.6 674.1 153.6 677.3 147.2C680.5 140.8 682.1 133.5 682.1 125.4C682.1 117.3 680.5 110 677.3 103.7C674.1 97.3 669.5 92.3 663.4 88.7V88.4ZM653.4 139.8C649.6 143.5 644.7 145.3 638.7 145.3C632.7 145.3 627.6 143.5 623.6 139.8C619.6 136.1 617.6 131.3 617.6 125.3C617.6 119.3 619.6 114.4 623.7 110.6C627.8 106.8 632.8 104.8 638.8 104.8C644.8 104.8 649.7 106.7 653.5 110.4C657.3 114.1 659.2 119.1 659.2 125.1C659.2 131.1 657.3 136.1 653.5 139.8H653.4Z" fill="#0F6BFF"/>
<path d="M747 86.4C742.2 84.4 737.6 83.4 733 83.4C726.2 83.4 719.8 85.9 713.9 90.8V53H691V165.2H713.9V116.2C714.5 111.8 716.1 108.6 718.5 106.5C721 104.4 723.8 103.4 727.2 103.4C730.6 103.4 734.6 104.5 737.5 106.8C740.4 109.1 741.8 112.8 741.8 117.9V165.2H764.7V117.3C764.6 108.8 762.8 102 759.3 96.9C755.8 91.9 751.7 88.4 747 86.4Z" fill="#0F6BFF"/>
<path d="M835.8 88.5C829.5 84.8 822.6 82.9 815.2 82.9C807.8 82.9 800.7 84.8 794.4 88.5C788.1 92.2 783 97.2 779.3 103.6C775.6 109.9 773.7 116.9 773.7 124.4C773.7 131.9 775.6 138.7 779.3 145.1C783 151.5 788 156.5 794.4 160.2C800.7 163.9 807.7 165.8 815.2 165.8C822.7 165.8 829.5 163.9 835.8 160.2C842.1 156.5 847.1 151.4 850.9 145.1C854.6 138.7 856.5 131.8 856.5 124.4C856.5 117 854.6 109.9 850.9 103.6C847.2 97.3 842.2 92.3 835.8 88.5ZM828.5 137.8C824.7 141.5 820.2 143.4 815 143.4C809.8 143.4 805.3 141.5 801.6 137.8C797.9 134.1 796 129.6 796 124.4C796 119.2 797.9 114.7 801.6 110.9C805.3 107.1 809.8 105.3 815 105.3C820.2 105.3 824.7 107.2 828.5 110.9C832.3 114.7 834.1 119.2 834.1 124.4C834.1 129.6 832.2 134.1 828.5 137.8Z" fill="#0F6BFF"/>
<path d="M930.5 125.7C927.4 122.2 923.8 119.7 919.8 118.2C915.7 116.7 910.6 115.3 904.4 114C899.6 113.1 896.1 112.1 893.9 111.3C891.7 110.4 890.6 109.1 890.6 107.3C890.6 105.5 891.5 103.7 893.3 102.5C895.1 101.3 897.5 100.7 900.5 100.7C903.5 100.7 906.7 101.3 908.9 102.6C911 103.9 912.7 105.8 914 108.4L932.2 99.5C929.1 94.2 924.7 90.1 919.2 87.3C913.7 84.5 907.4 83.1 900.5 83.1C893.6 83.1 889.2 84.1 884.3 86.1C879.3 88.1 875.4 91 872.5 94.8C869.6 98.6 868.1 103.1 868.1 108.2C868.1 113.3 869.6 117.8 872.5 121C875.4 124.2 878.9 126.5 883 128.1C887.1 129.6 892.2 131.1 898.2 132.4C903.5 133.6 907.4 134.7 909.9 135.7C912.4 136.7 913.6 138.3 913.6 140.4C913.6 142.5 912.3 144.7 909.6 146C906.9 147.3 903.8 148 900.3 148C891.6 148 886 144.7 883.5 138L865.1 147.4C868.1 153.5 872.6 158 878.6 161.1C884.6 164.2 891.8 165.7 900.3 165.7C908.8 165.7 912.2 164.7 917.6 162.8C922.9 160.9 927.2 158 930.5 154.2C933.7 150.4 935.4 145.8 935.4 140.5C935.4 135.2 933.9 129.5 930.8 126L930.5 125.7Z" fill="#0F6BFF"/>
</g>
</g>
<defs>
<clipPath id="clip0_2274_380">
<rect width="1080" height="250" fill="white"/>
</clipPath>
<clipPath id="clip1_2274_380">
<rect width="790.2" height="144.2" fill="white" transform="translate(145 53)"/>
</clipPath>
</defs>
</svg>
