<?xml version="1.0" encoding="UTF-8"?>
<svg id="a" data-name="Layer 1" xmlns="http://www.w3.org/2000/svg" width="3455.71" height="592.32" xmlns:xlink="http://www.w3.org/1999/xlink" viewBox="0 0 3455.71 592.32">
  <defs>
    <clipPath id="b">
      <rect width="3455.71" height="592.32" fill="none"/>
    </clipPath>
    <clipPath id="f">
      <rect x="2556.55" y="121.23" width="1.48" height="288.11" fill="none"/>
    </clipPath>
  </defs>
  <g clip-path="url(#b)">
    <rect width="3455.71" height="592.32" fill="#ef852e"/>
    <g>
      <path d="M151.4,278.73v-17.32h7.05c3.61,0,6.41-1,8.41-2.99,1.99-1.99,2.99-5.43,2.99-10.3v-54.8h19.72v54.99c0,6.93-1.06,12.63-3.18,17.1-2.12,4.47-5.38,7.81-9.76,10.02-4.39,2.2-9.98,3.31-16.79,3.31h-8.44Z"/>
      <path d="M235.74,279.1c-6.34,0-11.92-1.23-16.72-3.68-4.81-2.46-8.56-6.04-11.24-10.74s-4.03-10.41-4.03-17.13,1.34-12.65,4.03-17.42c2.69-4.76,6.44-8.39,11.24-10.87,4.81-2.48,10.38-3.72,16.72-3.72s11.98,1.24,16.79,3.72c4.81,2.48,8.57,6.1,11.27,10.87,2.71,4.77,4.06,10.57,4.06,17.42s-1.35,12.43-4.06,17.13c-2.71,4.7-6.47,8.28-11.27,10.74-4.81,2.46-10.4,3.68-16.79,3.68ZM235.74,264.62c3.32,0,5.89-.79,7.72-2.36,1.83-1.57,3.1-3.66,3.81-6.27.71-2.6,1.07-5.42,1.07-8.44s-.36-6.04-1.07-8.66c-.71-2.62-1.98-4.73-3.81-6.33-1.83-1.6-4.4-2.39-7.72-2.39s-5.76.8-7.59,2.39-3.1,3.71-3.81,6.33c-.71,2.62-1.07,5.51-1.07,8.66s.36,5.84,1.07,8.44c.71,2.6,1.98,4.69,3.81,6.27,1.83,1.58,4.36,2.36,7.59,2.36Z"/>
      <path d="M291.43,209.88c-3.49,0-6.11-.85-7.87-2.55-1.76-1.7-2.65-3.83-2.65-6.39s.88-4.73,2.65-6.39c1.76-1.66,4.39-2.49,7.87-2.49s6.17.83,7.94,2.49c1.76,1.66,2.65,3.79,2.65,6.39s-.88,4.69-2.65,6.39c-1.76,1.7-4.41,2.55-7.94,2.55ZM281.79,278.1v-61.54h19.21v61.54h-19.21Z"/>
      <path d="M317.88,278.1v-61.54h18.52l.25,9.07c2.14-2.69,4.85-5.02,8.12-6.99,3.28-1.97,7.58-2.96,12.91-2.96,6.09,0,10.93,1.87,14.52,5.61,3.59,3.74,5.39,9.28,5.39,16.63v40.19h-19.02v-37.79c0-1.93-.31-3.6-.95-5.01-.63-1.41-1.56-2.5-2.8-3.28-1.24-.78-2.82-1.17-4.76-1.17-2.77,0-5.2.67-7.27,2.02-2.08,1.34-3.98,3.07-5.7,5.17v40.06h-19.21Z"/>
      <path d="M1058.75,209.88c-3.49,0-6.11-.85-7.87-2.55-1.76-1.7-2.65-3.83-2.65-6.39s.88-4.73,2.65-6.39c1.76-1.66,4.39-2.49,7.87-2.49s6.17.83,7.94,2.49c1.76,1.66,2.65,3.79,2.65,6.39s-.88,4.69-2.65,6.39c-1.76,1.7-4.41,2.55-7.94,2.55ZM1049.11,278.1v-61.54h19.21v61.54h-19.21Z"/>
      <path d="M1085.2,278.1v-61.54h18.52l.25,9.07c2.14-2.69,4.85-5.02,8.12-6.99,3.28-1.97,7.58-2.96,12.91-2.96,6.09,0,10.93,1.87,14.52,5.61,3.59,3.74,5.38,9.28,5.38,16.63v40.19h-19.02v-37.79c0-1.93-.31-3.6-.95-5.01-.63-1.41-1.56-2.5-2.8-3.28-1.24-.78-2.82-1.17-4.76-1.17-2.77,0-5.2.67-7.28,2.02-2.08,1.34-3.98,3.07-5.7,5.17v40.06h-19.21Z"/>
      <path d="M1179.18,278.1l29.98-84.78h21.23l30.3,84.78h-21.16l-5.29-16.57h-28.79l-5.29,16.57h-20.98ZM1210.17,244.71h19.28l-9.64-31.37-9.64,31.37Z"/>
      <path d="M1270.33,278.1v-61.54h18.52l.25,9.07c2.1-2.69,4.93-5.02,8.5-6.99,3.57-1.97,7.96-2.96,13.16-2.96,5.92,0,10.6,1.92,14.05,5.76,3.44,3.84,5.16,9.33,5.16,16.47v40.19h-19.15v-37.79c0-1.93-.3-3.6-.91-5.01-.61-1.41-1.54-2.5-2.8-3.28-1.26-.78-2.84-1.17-4.72-1.17-2.73,0-5.12.67-7.18,2.02-2.06,1.34-3.95,3.07-5.67,5.17v40.06h-19.21ZM1351.33,278.1v-37.79c0-1.93-.3-3.6-.91-5.01-.61-1.41-1.53-2.5-2.77-3.28-1.24-.78-2.8-1.17-4.69-1.17-2.77,0-5.19.6-7.24,1.79-2.06,1.2-3.99,2.8-5.79,4.82l-2.27-11.46c2.77-2.86,6.1-5.29,9.98-7.31,3.88-2.02,8.43-3.02,13.64-3.02,5.88,0,10.55,1.92,14.02,5.76,3.46,3.84,5.2,9.33,5.2,16.47v40.19h-19.15Z"/>
      <path d="M1412.81,279.23c-3.4,0-6.79-.29-10.17-.88-3.38-.59-6.45-1.63-9.2-3.12-2.75-1.49-4.95-3.55-6.58-6.17-1.64-2.62-2.46-5.95-2.46-9.98h17.57c0,2.9,1.1,4.9,3.31,6.02,2.21,1.11,4.69,1.67,7.46,1.67s5.01-.42,6.46-1.26c1.45-.84,2.17-2.25,2.17-4.22s-1-3.58-2.99-4.57c-2-.99-5.45-2.03-10.36-3.12-4.2-1.01-8.04-2.26-11.53-3.75-3.49-1.49-6.25-3.54-8.28-6.14-2.04-2.6-3.05-6.03-3.05-10.27,0-3.4.79-6.25,2.36-8.54,1.58-2.29,3.67-4.12,6.3-5.48,2.62-1.36,5.53-2.35,8.72-2.96,3.19-.61,6.4-.91,9.64-.91s6.21.29,9.29.88,5.91,1.61,8.47,3.05c2.56,1.45,4.61,3.43,6.14,5.95s2.3,5.73,2.3,9.64h-17.57c0-2.69-.87-4.51-2.61-5.48-1.74-.96-3.75-1.45-6.02-1.45-2.56,0-4.54.3-5.92.91-1.39.61-2.08,1.71-2.08,3.31,0,.92.53,1.76,1.58,2.52,1.05.76,2.7,1.47,4.94,2.14,2.25.67,5.18,1.41,8.79,2.21,3.74.84,7.19,1.98,10.36,3.43,3.17,1.45,5.73,3.42,7.69,5.92,1.95,2.5,2.93,5.79,2.93,9.86s-.79,7.19-2.36,9.86c-1.57,2.67-3.67,4.8-6.3,6.39-2.62,1.6-5.59,2.75-8.88,3.46-3.3.71-6.67,1.07-10.11,1.07Z"/>
      <path d="M1482.41,278.1c-6.76,0-12-.72-15.71-2.17-3.72-1.45-6.32-3.78-7.81-6.99-1.49-3.21-2.24-7.5-2.24-12.88v-24.88h-10.2v-14.61h10.2v-14.68h19.15v14.68h12.79v14.61h-12.79v23.68c0,3.02.44,5.21,1.32,6.55.88,1.34,2.81,2.02,5.79,2.02h5.54v14.68h-6.05Z"/>
      <path d="M1530.02,279.23c-6.93,0-12.8-1.22-17.6-3.65-4.81-2.43-8.47-6.05-10.99-10.83s-3.78-10.69-3.78-17.7c0-6.59,1.23-12.23,3.69-16.91,2.46-4.68,6.03-8.26,10.71-10.74,4.68-2.48,10.38-3.72,17.1-3.72,9.45,0,16.94,2.74,22.49,8.22,5.54,5.48,8.31,13.26,8.31,23.34,0,.46-.03,1.12-.09,1.98-.06.86-.14,1.54-.22,2.05h-42.83c.08,2.48.58,4.81,1.48,6.99.9,2.18,2.3,3.95,4.19,5.29,1.89,1.34,4.41,2.02,7.56,2.02s5.77-.66,7.75-1.98c1.97-1.32,2.98-3.35,3.02-6.08h18.9c-.29,5-1.71,9.1-4.25,12.31-2.54,3.21-5.97,5.59-10.3,7.12-4.32,1.53-9.36,2.3-15.12,2.3ZM1516.99,239.55h23.94c-.13-3.69-1.31-6.42-3.56-8.19-2.25-1.76-4.99-2.65-8.22-2.65-3.4,0-6.24.92-8.5,2.77-2.27,1.85-3.49,4.54-3.65,8.06Z"/>
      <path d="M1573.87,278.1v-61.54h18.52l.25,10.71c1.51-3.86,3.88-6.75,7.12-8.66,3.23-1.91,7.08-2.87,11.53-2.87h1.2v15.81h-1.57c-2.27,0-4.53.15-6.77.44-2.25.29-4.31.91-6.21,1.86s-3.51,2.36-4.85,4.25v40h-19.21Z"/>
      <path d="M1643.22,279.1c-4.49,0-8.58-1.13-12.25-3.4-3.68-2.27-6.59-5.78-8.76-10.55-2.16-4.76-3.24-10.89-3.24-18.36s1.17-13.07,3.5-17.67c2.33-4.6,5.46-8.01,9.38-10.24,3.93-2.22,8.26-3.34,13.01-3.34,4.24,0,7.85.86,10.83,2.58,2.98,1.72,5.35,3.93,7.12,6.61v-31.43h19.15v84.78h-18.39l-.76-8.69c-2.18,3.02-4.85,5.4-8,7.12-3.15,1.72-7.01,2.58-11.59,2.58ZM1649.26,264.81c3.11,0,5.86-.96,8.25-2.87,2.39-1.91,4.16-4.13,5.29-6.65v-15.68c-1.13-2.52-2.79-4.78-4.98-6.77-2.18-1.99-4.83-2.99-7.94-2.99-3.53,0-6.31,1.44-8.35,4.31-2.04,2.88-3.06,7.09-3.06,12.63,0,6.26.98,10.82,2.93,13.7,1.95,2.88,4.57,4.32,7.84,4.32Z"/>
      <path d="M1716.03,279.1c-3.49,0-6.77-.67-9.86-2.02-3.09-1.34-5.57-3.38-7.46-6.11-1.89-2.73-2.83-6.17-2.83-10.33,0-5.71,1.68-10.02,5.04-12.91s8.06-4.86,14.11-5.89c6.05-1.03,13.06-1.65,21.04-1.86v-2.9c0-3.44-.82-5.8-2.46-7.09-1.64-1.28-3.78-1.92-6.43-1.92-2.94,0-5.32.67-7.15,2.02-1.83,1.34-2.74,3.55-2.74,6.61h-17.83c0-5.29,1.17-9.47,3.5-12.54,2.33-3.06,5.57-5.25,9.73-6.55,4.16-1.3,8.98-1.95,14.49-1.95,4.2,0,7.99.34,11.37,1.01s6.28,1.82,8.69,3.43c2.41,1.62,4.26,3.79,5.54,6.52,1.28,2.73,1.92,6.11,1.92,10.14v41.32h-17.89l-.63-7.5c-2.48,2.94-5.38,5.09-8.72,6.46-3.34,1.36-7.15,2.05-11.43,2.05ZM1722.58,266.32c2.69,0,5.24-.76,7.65-2.27s4.27-3.13,5.57-4.85v-8.94c-7.85,0-13.28.74-16.28,2.21-3,1.47-4.5,3.84-4.5,7.12,0,2.39.74,4.12,2.24,5.17,1.49,1.05,3.26,1.58,5.32,1.58Z"/>
      <path d="M1771.08,278.1v-61.54h18.52l.25,9.07c2.1-2.69,4.93-5.02,8.5-6.99,3.57-1.97,7.96-2.96,13.16-2.96,5.92,0,10.6,1.92,14.05,5.76,3.44,3.84,5.16,9.33,5.16,16.47v40.19h-19.15v-37.79c0-1.93-.3-3.6-.91-5.01-.61-1.41-1.54-2.5-2.8-3.28-1.26-.78-2.84-1.17-4.72-1.17-2.73,0-5.12.67-7.18,2.02-2.06,1.34-3.95,3.07-5.67,5.17v40.06h-19.21ZM1852.09,278.1v-37.79c0-1.93-.3-3.6-.91-5.01-.61-1.41-1.53-2.5-2.77-3.28-1.24-.78-2.8-1.17-4.69-1.17-2.77,0-5.19.6-7.24,1.79-2.06,1.2-3.99,2.8-5.79,4.82l-2.27-11.46c2.77-2.86,6.1-5.29,9.98-7.31,3.88-2.02,8.43-3.02,13.64-3.02,5.88,0,10.55,1.92,14.02,5.76,3.46,3.84,5.2,9.33,5.2,16.47v40.19h-19.15Z"/>
      <path d="M1898.13,279.04c-3.53,0-6.38-1.09-8.57-3.28s-3.28-4.81-3.28-7.87c0-3.4,1.09-6.11,3.28-8.12s5.04-3.02,8.57-3.02,6.35,1.01,8.47,3.02,3.18,4.72,3.18,8.12c0,3.07-1.06,5.69-3.18,7.87s-4.95,3.28-8.47,3.28ZM1892.9,248.18c-.92-4.07-1.92-9.2-2.99-15.37s-1.61-12.91-1.61-20.22v-19.27h19.59v19.27c0,7.35-.54,14.07-1.61,20.16-1.07,6.09-2.11,11.23-3.12,15.43h-10.27Z"/>
    </g>
    <g>
      <path d="M159.05,391.92v-58.49h36.42v6.52h-28.59v18.69h25.9v6.39h-25.9v26.9h-7.82Z"/>
      <path d="M207.33,341.64c-1.36,0-2.46-.4-3.28-1.19-.82-.8-1.24-1.8-1.24-3.02s.41-2.22,1.24-3.02c.83-.8,1.92-1.19,3.28-1.19s2.46.4,3.3,1.19c.84.8,1.26,1.8,1.26,3.02s-.42,2.22-1.26,3.02-1.94,1.19-3.3,1.19ZM203.72,391.92v-42.33h7.26v42.33h-7.26Z"/>
      <path d="M224.97,391.92v-42.33h6.95l.26,6.52c1.3-1.71,3.17-3.32,5.61-4.85,2.43-1.52,5.55-2.28,9.34-2.28,4.63,0,8.01,1.37,10.12,4.11,2.11,2.74,3.17,6.58,3.17,11.54v27.29h-7.26v-26.25c0-2.06-.22-3.88-.65-5.48-.44-1.59-1.21-2.85-2.33-3.76-1.12-.91-2.73-1.37-4.85-1.37-3.16,0-5.81.72-7.95,2.15-2.14,1.43-3.87,3.01-5.17,4.71v29.99h-7.26Z"/>
      <path d="M288.51,392.7c-3.45,0-6.43-.83-8.95-2.48-2.52-1.65-4.47-4.12-5.84-7.41-1.38-3.29-2.06-7.35-2.06-12.19s.73-8.82,2.19-12.04,3.53-5.64,6.19-7.28,5.81-2.46,9.43-2.46c3.01,0,5.63.66,7.87,1.98,2.23,1.32,4.03,3.11,5.39,5.37v-22.77h7.26v58.49h-6.87l-.39-6.17c-1.51,2.06-3.45,3.73-5.82,5.02-2.38,1.29-5.17,1.93-8.39,1.93ZM289.98,386.75c3.1,0,5.68-.73,7.74-2.19,2.06-1.46,3.72-3.22,5-5.28v-16.3c-1.19-2.38-2.74-4.34-4.67-5.89-1.93-1.55-4.35-2.32-7.28-2.32-3.85,0-6.76,1.38-8.71,4.13-1.96,2.75-2.93,6.66-2.93,11.73s.92,9.24,2.76,11.99c1.84,2.75,4.54,4.13,8.1,4.13Z"/>
      <path d="M355.43,392.57c-4.9,0-8.43-1.36-10.6-4.08-2.17-2.72-3.26-6.48-3.26-11.26v-27.64h7.3v26.64c0,1.91.22,3.62.65,5.13.43,1.51,1.26,2.68,2.48,3.52,1.22.84,2.97,1.26,5.26,1.26,3.19,0,5.85-.66,8-1.98s3.87-2.85,5.17-4.58v-29.99h7.3v42.33h-7l-.22-6.52c-1.36,1.68-3.28,3.3-5.76,4.85-2.48,1.55-5.58,2.32-9.32,2.32Z"/>
      <path d="M406.71,392.7c-2.38,0-4.63-.26-6.76-.78s-4.01-1.35-5.63-2.48c-1.62-1.13-2.89-2.61-3.8-4.45-.91-1.84-1.37-4.06-1.37-6.67h7c0,3.3,1.02,5.63,3.06,6.98,2.04,1.35,4.6,2.02,7.67,2.02,2.75,0,5.02-.53,6.8-1.59s2.67-2.8,2.67-5.24c0-2.09-.8-3.64-2.41-4.65-1.61-1.01-4.44-2-8.5-2.96-3.3-.78-6.08-1.69-8.34-2.72s-3.95-2.33-5.08-3.91c-1.13-1.58-1.7-3.57-1.7-5.98,0-1.88.4-3.54,1.2-4.98.8-1.43,1.91-2.63,3.35-3.59,1.43-.96,3.12-1.67,5.06-2.15,1.94-.48,4.04-.72,6.3-.72s4.32.26,6.28.78,3.68,1.33,5.17,2.43c1.49,1.1,2.67,2.52,3.54,4.26s1.3,3.82,1.3,6.26h-7.04c0-3.01-.9-5.14-2.69-6.39-1.8-1.25-3.98-1.87-6.56-1.87s-4.72.46-6.35,1.39c-1.62.93-2.43,2.38-2.43,4.35,0,1.13.36,2.09,1.09,2.87.72.78,1.94,1.48,3.65,2.11,1.71.62,4.01,1.28,6.91,1.98,3.16.75,5.81,1.65,7.95,2.69s3.76,2.38,4.85,4.02,1.63,3.73,1.63,6.28c0,2.2-.43,4.11-1.28,5.71-.86,1.61-2.04,2.93-3.56,3.95-1.52,1.03-3.3,1.79-5.35,2.28s-4.25.74-6.63.74Z"/>
      <path d="M463.94,392.7c-2.43,0-4.66-.46-6.67-1.39s-3.62-2.3-4.82-4.11c-1.2-1.81-1.8-4.05-1.8-6.71,0-3.79,1.19-6.68,3.56-8.65,2.38-1.97,5.74-3.31,10.08-4.02s9.43-1.09,15.25-1.15v-2.96c0-3.62-.9-6.11-2.7-7.45-1.8-1.35-4.07-2.02-6.82-2.02-2.93,0-5.39.74-7.39,2.22-2,1.48-3,3.81-3,7h-7.04c0-3.48.74-6.29,2.24-8.43,1.49-2.14,3.55-3.71,6.17-4.69,2.62-.98,5.63-1.48,9.02-1.48,2.17,0,4.25.2,6.24.61,1.98.41,3.77,1.15,5.34,2.22,1.58,1.07,2.83,2.57,3.76,4.5s1.39,4.41,1.39,7.45v28.29h-6.78l-.3-6.43c-1.94,2.17-4.19,3.92-6.76,5.24-2.56,1.32-5.55,1.98-8.97,1.98ZM465.85,387.14c2.9,0,5.5-.68,7.82-2.04,2.32-1.36,4.26-3.09,5.82-5.17v-8.6c-7.71.09-13.23.81-16.58,2.17-3.35,1.36-5.02,3.59-5.02,6.69,0,2.12.67,3.8,2.02,5.06,1.35,1.26,3.32,1.89,5.93,1.89Z"/>
      <path d="M513.66,391.92c-3.42,0-6.04-.54-7.87-1.63-1.82-1.09-3.08-2.65-3.76-4.69-.68-2.04-1.02-4.5-1.02-7.37v-22.77h-7.08v-5.87h7.08v-9.69h7.21v9.69h10.43v5.87h-10.43v22.42c0,2.64.34,4.66,1.02,6.06.68,1.41,2.31,2.11,4.89,2.11h4.61v5.87h-5.08Z"/>
      <path d="M546.38,391.92v-58.49h19.99c6.32,0,11.31,1.2,14.99,3.58,3.68,2.39,5.52,6.06,5.52,11.02,0,3.1-.78,5.73-2.32,7.89-1.55,2.16-3.62,3.72-6.19,4.67,4.06.81,7.15,2.46,9.28,4.95,2.13,2.49,3.2,5.56,3.2,9.21,0,3.91-.89,7.13-2.67,9.67-1.78,2.54-4.33,4.42-7.65,5.65-3.32,1.23-7.29,1.85-11.93,1.85h-22.21ZM558.59,357.11h7.61c2.35,0,4.32-.61,5.91-1.83s2.39-3,2.39-5.35c0-1.65-.36-2.96-1.09-3.93-.72-.97-1.71-1.67-2.96-2.09-1.25-.42-2.67-.63-4.26-.63h-7.61v13.82ZM558.59,381.79h9.56c1.91,0,3.65-.24,5.21-.72,1.56-.48,2.8-1.32,3.72-2.52.91-1.2,1.37-2.82,1.37-4.85,0-2.61-.97-4.47-2.91-5.58-1.94-1.11-4.4-1.67-7.39-1.67h-9.56v15.34Z"/>
      <path d="M619.47,392.61c-4.29,0-8.05-.85-11.28-2.56-3.23-1.71-5.73-4.19-7.5-7.43-1.77-3.24-2.65-7.17-2.65-11.78s.88-8.68,2.65-11.97c1.77-3.29,4.27-5.79,7.5-7.52,3.23-1.72,6.99-2.59,11.28-2.59s8.13.86,11.37,2.59c3.23,1.72,5.74,4.23,7.54,7.52s2.7,7.28,2.7,11.97-.9,8.53-2.7,11.78c-1.8,3.25-4.31,5.72-7.54,7.43-3.23,1.71-7.02,2.56-11.37,2.56ZM619.47,383.84c2.52,0,4.5-.59,5.93-1.76,1.43-1.17,2.45-2.74,3.04-4.72.59-1.97.89-4.14.89-6.52s-.3-4.65-.89-6.65-1.61-3.59-3.04-4.78c-1.44-1.19-3.41-1.78-5.93-1.78s-4.4.59-5.8,1.78c-1.41,1.19-2.4,2.78-2.98,4.78s-.87,4.22-.87,6.65.29,4.55.87,6.52c.58,1.97,1.57,3.54,2.98,4.72,1.4,1.17,3.34,1.76,5.8,1.76Z"/>
      <path d="M670.49,392.61c-4.29,0-8.05-.85-11.28-2.56-3.23-1.71-5.73-4.19-7.5-7.43-1.77-3.24-2.65-7.17-2.65-11.78s.88-8.68,2.65-11.97,4.27-5.79,7.5-7.52c3.23-1.72,6.99-2.59,11.28-2.59s8.13.86,11.36,2.59c3.23,1.72,5.74,4.23,7.54,7.52,1.79,3.29,2.69,7.28,2.69,11.97s-.9,8.53-2.69,11.78c-1.8,3.25-4.31,5.72-7.54,7.43-3.23,1.71-7.02,2.56-11.36,2.56ZM670.49,383.84c2.52,0,4.5-.59,5.93-1.76,1.43-1.17,2.45-2.74,3.04-4.72.59-1.97.89-4.14.89-6.52s-.3-4.65-.89-6.65c-.6-2-1.61-3.59-3.04-4.78-1.43-1.19-3.41-1.78-5.93-1.78s-4.4.59-5.8,1.78c-1.41,1.19-2.4,2.78-2.98,4.78-.58,2-.87,4.22-.87,6.65s.29,4.55.87,6.52c.58,1.97,1.57,3.54,2.98,4.72,1.4,1.17,3.34,1.76,5.8,1.76Z"/>
      <path d="M720.38,391.92c-4.29,0-7.61-.51-9.97-1.54-2.36-1.03-4.01-2.62-4.93-4.78-.93-2.16-1.39-4.98-1.39-8.45v-18.77h-7.04v-8.87h7.04v-10h11.52v10h9.26v8.87h-9.26v18.08c0,2.23.31,3.88.94,4.95.62,1.07,2.04,1.61,4.24,1.61h4.09v8.91h-4.48Z"/>
      <path d="M733.9,391.92v-58.49h11.3v22.42c1.42-1.83,3.29-3.44,5.61-4.85,2.32-1.4,5.3-2.11,8.95-2.11,4.4,0,7.79,1.3,10.15,3.89s3.54,6.44,3.54,11.54v27.6h-11.52v-26.16c0-1.51-.21-2.84-.63-4-.42-1.16-1.09-2.06-2.02-2.69-.93-.64-2.16-.96-3.7-.96-2.29,0-4.25.54-5.89,1.61-1.64,1.07-3.06,2.38-4.28,3.91v28.29h-11.52Z"/>
      <path d="M819.46,392.7c-3.77,0-7-.65-9.69-1.96-2.69-1.3-4.84-3.14-6.43-5.5-1.59-2.36-2.61-5.12-3.04-8.28h11.26c.38,1.94,1.22,3.48,2.54,4.61s3.11,1.69,5.37,1.69c3.36,0,6-1.46,7.93-4.39,1.93-2.93,2.89-7.6,2.89-14.04v-4.82c0-4-.46-7.2-1.37-9.6-.91-2.4-2.12-4.14-3.61-5.19-1.49-1.06-3.11-1.59-4.85-1.59-2.81,0-4.92.89-6.32,2.67-1.4,1.78-2.11,4.04-2.11,6.76s.65,4.76,1.96,6.28c1.3,1.52,3.13,2.28,5.47,2.28,2.2,0,4.1-.35,5.69-1.06,1.59-.71,3.03-1.67,4.32-2.87,1.29-1.2,2.56-2.54,3.8-4.02l.17,8.04c-1.07,1.36-2.3,2.75-3.7,4.15-1.39,1.41-3.06,2.59-5.02,3.56-1.96.97-4.31,1.46-7.06,1.46-3.33,0-6.32-.68-8.95-2.04-2.64-1.36-4.71-3.37-6.24-6.02-1.52-2.65-2.28-5.87-2.28-9.67s.79-6.95,2.37-9.8c1.58-2.85,3.88-5.09,6.89-6.71,3.01-1.62,6.66-2.43,10.95-2.43,4.05,0,7.71.97,10.97,2.91,3.26,1.94,5.85,5.02,7.78,9.23,1.93,4.21,2.89,9.73,2.89,16.54s-.97,12.75-2.91,17.12c-1.94,4.38-4.61,7.58-8.02,9.63-3.4,2.04-7.29,3.06-11.67,3.06Z"/>
      <path d="M867.01,392.7c-3.77,0-7-.65-9.69-1.96-2.7-1.3-4.84-3.14-6.43-5.5-1.59-2.36-2.61-5.12-3.04-8.28h11.26c.38,1.94,1.22,3.48,2.54,4.61,1.32,1.13,3.11,1.69,5.37,1.69,3.36,0,6-1.46,7.93-4.39,1.93-2.93,2.89-7.6,2.89-14.04v-4.82c0-4-.46-7.2-1.37-9.6-.91-2.4-2.12-4.14-3.61-5.19s-3.11-1.59-4.85-1.59c-2.81,0-4.92.89-6.32,2.67-1.41,1.78-2.11,4.04-2.11,6.76s.65,4.76,1.96,6.28c1.3,1.52,3.13,2.28,5.47,2.28,2.2,0,4.1-.35,5.69-1.06,1.59-.71,3.04-1.67,4.32-2.87,1.29-1.2,2.56-2.54,3.8-4.02l.17,8.04c-1.07,1.36-2.3,2.75-3.69,4.15-1.39,1.41-3.06,2.59-5.02,3.56-1.96.97-4.31,1.46-7.06,1.46-3.33,0-6.32-.68-8.95-2.04-2.64-1.36-4.71-3.37-6.24-6.02-1.52-2.65-2.28-5.87-2.28-9.67s.79-6.95,2.37-9.8c1.58-2.85,3.88-5.09,6.89-6.71,3.01-1.62,6.66-2.43,10.95-2.43,4.06,0,7.71.97,10.97,2.91,3.26,1.94,5.85,5.02,7.78,9.23,1.93,4.21,2.89,9.73,2.89,16.54s-.97,12.75-2.91,17.12c-1.94,4.38-4.62,7.58-8.02,9.63-3.41,2.04-7.29,3.06-11.67,3.06Z"/>
      <path d="M916.46,392.66c-6.69,0-11.88-1.54-15.56-4.61-3.68-3.07-5.52-7.72-5.52-13.95h11.04c0,2.87.88,5.11,2.63,6.71,1.75,1.61,4.21,2.41,7.37,2.41,2.87,0,5.05-.68,6.54-2.04,1.49-1.36,2.24-3.5,2.24-6.43s-.93-4.9-2.78-6.17c-1.85-1.27-4.23-1.91-7.13-1.91h-3.52v-9.04h3.87c2.61,0,4.71-.67,6.3-2.02,1.59-1.35,2.39-3.12,2.39-5.32s-.7-3.93-2.11-5c-1.41-1.07-3.35-1.61-5.84-1.61-2.7,0-4.78.69-6.24,2.06-1.46,1.38-2.2,3.28-2.2,5.71h-11.04c0-3.94.86-7.18,2.58-9.71,1.72-2.54,4.05-4.43,6.98-5.67,2.93-1.25,6.21-1.87,9.86-1.87,3.42,0,6.58.53,9.47,1.59,2.9,1.06,5.22,2.69,6.97,4.91,1.75,2.22,2.63,5.06,2.63,8.54s-.88,6.28-2.63,8.32c-1.75,2.04-4.12,3.48-7.11,4.32,3.24.67,5.94,2.11,8.08,4.32,2.14,2.22,3.21,5.35,3.21,9.41,0,3.68-.83,6.79-2.5,9.32-1.67,2.54-4.03,4.45-7.08,5.76s-6.7,1.96-10.93,1.96Z"/>
      <path d="M947.36,404l-1.83-4.09c1.68-.75,3.16-1.81,4.43-3.17,1.27-1.36,2.04-2.97,2.3-4.82l.48.43c-1.62,0-2.97-.53-4.04-1.59-1.07-1.06-1.61-2.35-1.61-3.89s.54-2.9,1.61-3.93c1.07-1.03,2.42-1.54,4.04-1.54s2.91.56,3.95,1.69,1.56,2.87,1.56,5.21c0,2.75-.48,5.13-1.46,7.15-.97,2.01-2.28,3.71-3.91,5.11-1.64,1.39-3.48,2.54-5.54,3.43Z"/>
      <path d="M991.12,391.92v-58.49h8.56l20.82,34.46h-3.17l20.42-34.46h8.34v58.49h-7.69v-51.97h2.7l-19.86,33.59h-5.13l-20.16-33.59h2.69v51.97h-7.52Z"/>
      <path d="M1071.69,392.7c-2.43,0-4.66-.46-6.67-1.39s-3.62-2.3-4.82-4.11c-1.2-1.81-1.8-4.05-1.8-6.71,0-3.79,1.19-6.68,3.56-8.65,2.38-1.97,5.74-3.31,10.08-4.02s9.43-1.09,15.25-1.15v-2.96c0-3.62-.9-6.11-2.7-7.45-1.79-1.35-4.07-2.02-6.82-2.02-2.93,0-5.39.74-7.39,2.22-2,1.48-3,3.81-3,7h-7.04c0-3.48.75-6.29,2.24-8.43,1.49-2.14,3.55-3.71,6.17-4.69,2.62-.98,5.63-1.48,9.02-1.48,2.17,0,4.25.2,6.24.61,1.98.41,3.77,1.15,5.35,2.22,1.58,1.07,2.83,2.57,3.76,4.5.93,1.93,1.39,4.41,1.39,7.45v28.29h-6.78l-.3-6.43c-1.94,2.17-4.19,3.92-6.76,5.24-2.56,1.32-5.56,1.98-8.97,1.98ZM1073.6,387.14c2.9,0,5.5-.68,7.82-2.04,2.32-1.36,4.26-3.09,5.82-5.17v-8.6c-7.71.09-13.23.81-16.58,2.17-3.35,1.36-5.02,3.59-5.02,6.69,0,2.12.67,3.8,2.02,5.06,1.35,1.26,3.32,1.89,5.93,1.89Z"/>
      <path d="M1108.06,391.92v-42.33h6.82l.26,7.21c1.19-2.2,2.84-4.04,4.96-5.52,2.11-1.48,4.87-2.22,8.26-2.22h.87v6.65h-1c-2.11,0-3.97.28-5.56.83-1.59.55-2.98,1.31-4.17,2.28-1.19.97-2.24,2.09-3.17,3.37v29.72h-7.26Z"/>
      <path d="M1153.82,392.66c-3.82,0-7.21-.8-10.17-2.41-2.96-1.61-5.27-4.03-6.93-7.26-1.67-3.23-2.5-7.28-2.5-12.15s.82-8.93,2.46-12.19c1.64-3.26,3.93-5.71,6.87-7.34,2.94-1.64,6.37-2.46,10.28-2.46,3.28,0,6.22.54,8.84,1.61,2.62,1.07,4.71,2.69,6.28,4.85s2.39,4.89,2.48,8.19h-7.17c-.17-2.72-1.16-4.87-2.96-6.43-1.79-1.56-4.24-2.35-7.34-2.35-4.11,0-7.19,1.41-9.21,4.24-2.03,2.82-3.04,6.79-3.04,11.89,0,3.39.45,6.27,1.35,8.63.9,2.36,2.26,4.17,4.09,5.43,1.82,1.26,4.1,1.89,6.82,1.89,3.1,0,5.62-.8,7.56-2.41,1.94-1.61,2.96-3.96,3.04-7.06h7.17c-.09,3.42-.92,6.27-2.5,8.54-1.58,2.27-3.71,3.98-6.39,5.11s-5.69,1.69-9.02,1.69Z"/>
      <path d="M1183.33,391.92v-58.49h7.21v22.68c1.3-1.71,3.17-3.32,5.61-4.85,2.43-1.52,5.53-2.28,9.3-2.28,4.75,0,8.16,1.36,10.23,4.08,2.07,2.72,3.11,6.58,3.11,11.56v27.29h-7.26v-26.29c0-2.03-.21-3.84-.63-5.43-.42-1.59-1.2-2.85-2.32-3.76-1.13-.91-2.75-1.37-4.87-1.37-3.16,0-5.81.72-7.95,2.15-2.14,1.43-3.87,3.01-5.17,4.71v29.99h-7.26Z"/>
      <path d="M1247.52,391.92v-5.74l20.12-18.38c3.48-3.16,6-6.03,7.56-8.6,1.56-2.58,2.35-5.29,2.35-8.13s-.79-5.38-2.37-7.28c-1.58-1.9-4.17-2.85-7.76-2.85-4.06,0-6.96,1.05-8.71,3.15-1.75,2.1-2.63,4.74-2.63,7.93h-7.26c0-3.53.69-6.62,2.06-9.26,1.38-2.64,3.45-4.68,6.21-6.13,2.77-1.45,6.21-2.17,10.32-2.17,3.77,0,6.97.67,9.6,2.02,2.64,1.35,4.64,3.24,6.02,5.67,1.38,2.43,2.06,5.3,2.06,8.6,0,2.96-.57,5.65-1.72,8.08s-2.69,4.72-4.63,6.87c-1.94,2.14-4.08,4.27-6.43,6.39l-14.91,13.38h29.33v6.43h-39.24Z"/>
      <path d="M1315.18,392.7c-6.03,0-10.85-1.54-14.47-4.61-3.62-3.07-5.43-7.47-5.43-13.21h7.26c0,3.54,1.11,6.35,3.32,8.45,2.22,2.1,5.29,3.15,9.23,3.15,3.65,0,6.53-.88,8.63-2.65,2.1-1.77,3.15-4.5,3.15-8.21s-1.16-6.19-3.48-7.87c-2.32-1.68-5.49-2.52-9.52-2.52h-3.35v-6.17h3.52c3.62,0,6.39-.9,8.3-2.69,1.91-1.8,2.87-4.19,2.87-7.17s-.94-4.96-2.83-6.37c-1.88-1.4-4.36-2.11-7.43-2.11-3.48,0-6.17.93-8.08,2.78-1.91,1.85-2.87,4.29-2.87,7.3h-7.26c0-3.36.77-6.26,2.3-8.71s3.66-4.34,6.37-5.67c2.71-1.33,5.86-2,9.45-2,3.24,0,6.2.54,8.87,1.63,2.67,1.09,4.79,2.69,6.37,4.82,1.58,2.13,2.37,4.79,2.37,7.97,0,3.39-.94,6.18-2.82,8.37s-4.36,3.72-7.43,4.58c3.51.64,6.41,2.14,8.71,4.52,2.3,2.38,3.46,5.58,3.46,9.6,0,3.59-.8,6.63-2.41,9.13-1.61,2.49-3.85,4.39-6.73,5.69-2.88,1.3-6.24,1.96-10.06,1.96Z"/>
      <path d="M1338.56,373.54v-6.43h40.94v6.43h-40.94Z"/>
      <path d="M1383.54,391.92v-5.74l20.12-18.38c3.48-3.16,6-6.03,7.56-8.6,1.56-2.58,2.35-5.29,2.35-8.13s-.79-5.38-2.37-7.28c-1.58-1.9-4.16-2.85-7.76-2.85-4.06,0-6.96,1.05-8.71,3.15-1.75,2.1-2.63,4.74-2.63,7.93h-7.26c0-3.53.69-6.62,2.06-9.26,1.38-2.64,3.45-4.68,6.21-6.13,2.77-1.45,6.21-2.17,10.32-2.17,3.77,0,6.97.67,9.6,2.02,2.63,1.35,4.64,3.24,6.02,5.67,1.38,2.43,2.06,5.3,2.06,8.6,0,2.96-.57,5.65-1.72,8.08s-2.69,4.72-4.63,6.87c-1.94,2.14-4.09,4.27-6.43,6.39l-14.91,13.38h29.33v6.43h-39.24Z"/>
      <path d="M1452.16,392.7c-4.03,0-7.62-.96-10.78-2.89-3.16-1.93-5.64-5-7.45-9.23-1.81-4.23-2.72-9.78-2.72-16.64s.87-12.25,2.61-16.6,4.19-7.58,7.34-9.69c3.16-2.11,6.82-3.17,11-3.17,4.61,0,8.5,1.19,11.67,3.56,3.17,2.38,5.19,5.98,6.06,10.82h-7.3c-.61-2.69-1.8-4.72-3.56-6.08-1.77-1.36-4.06-2.04-6.87-2.04-4.17,0-7.47,1.86-9.89,5.58-2.42,3.72-3.63,9.6-3.63,17.62v2.26c0,4.98.63,8.96,1.89,11.93,1.26,2.97,2.92,5.11,4.97,6.41,2.06,1.3,4.29,1.96,6.69,1.96,3.79,0,6.61-1.17,8.43-3.52,1.83-2.35,2.74-5.26,2.74-8.73s-.9-6.27-2.69-8.3c-1.8-2.03-4.32-3.04-7.56-3.04-3.77,0-7.07.88-9.91,2.65-2.84,1.77-4.98,3.81-6.43,6.13l-.83-5.56c1.25-1.77,2.76-3.37,4.54-4.8,1.78-1.43,3.81-2.57,6.08-3.41,2.27-.84,4.79-1.26,7.54-1.26,3.21,0,6.08.66,8.6,1.98,2.52,1.32,4.52,3.27,6,5.84,1.48,2.58,2.22,5.75,2.22,9.52s-.73,6.89-2.2,9.71c-1.46,2.83-3.59,5.03-6.39,6.63-2.79,1.59-6.19,2.39-10.19,2.39Z"/>
      <path d="M1487.35,392.35c-1.62,0-2.97-.53-4.04-1.59s-1.61-2.35-1.61-3.89.54-2.9,1.61-3.93,2.42-1.54,4.04-1.54,2.91.51,3.96,1.54,1.56,2.34,1.56,3.93-.52,2.83-1.56,3.89-2.36,1.59-3.96,1.59Z"/>
    </g>
    <path d="M3131.72,345.24h384.23s-.11-25.9-17.86-41.92c-26.67-24.07-65.8-13.92-65.8-13.92,0,0-15.99-76.14-108.45-76.14-82.34,0-102.25,63.81-102.25,63.81,0,0-40.11-5.93-60.11,10.28-28.44,23.05-29.75,57.89-29.75,57.89Z" fill="#fff"/>
    <path d="M3335.88,529.84h384.23s-.11-25.9-17.86-41.92c-26.67-24.07-65.8-13.92-65.8-13.92,0,0-15.99-76.14-108.45-76.14-82.34,0-101.82,78.37-101.82,78.37,0,0-46.02-1.59-68.23,15.07-18.07,13.55-22.06,38.53-22.06,38.53Z" fill="#fff"/>
    <path d="M3462.32,618.02h-384.23s.11-25.9,17.86-41.92c26.67-24.07,65.8-13.92,65.8-13.92,0,0,15.99-76.14,108.45-76.14,82.34,0,102.25,63.81,102.25,63.81,0,0,40.11-5.93,60.11,10.28,28.44,23.05,29.75,57.89,29.75,57.89Z" fill="#fff"/>
    <path d="M567.77,215.7c-9.56,0-18.08,4.33-23.83,11.06-.52-.67-1.12-1.27-1.72-1.87-1.79-1.79-3.81-3.36-5.9-4.63-4.93-2.99-10.61-4.48-16.21-4.56h0c-7.99,0-16.06,3.06-22.11,9.19-6.13,6.13-9.19,14.12-9.19,22.11,0,5.6,1.49,11.28,4.48,16.21,1.27,2.09,2.84,4.11,4.63,5.9,1.79,1.79,3.81,3.36,5.9,4.63,12.03,7.32,28.01,5.75,38.4-4.63.6-.6,1.2-1.27,1.72-1.87,5.75,6.72,14.27,11.06,23.83,11.06,17.26,0,31.3-14.04,31.3-31.3,0-17.26-14.04-31.3-31.3-31.3h0ZM503.67,247c0-4.18,1.57-8.37,4.78-11.58,3.21-3.21,7.4-4.78,11.58-4.78h0c1.72,0,3.44.3,5.08.82l-12.92,12.92-7.69,7.69c-.52-1.64-.82-3.36-.82-5.08ZM531.69,258.58c-4.48,4.48-10.98,5.83-16.66,4.03l7.99-7.99,12.62-12.62,1.49-1.49c-.45,2.09-.67,4.33-.67,6.57,0,4.18-1.57,8.37-4.78,11.58v-.07ZM567.77,263.44c-9.04,0-16.43-7.32-16.43-16.43,0-9.11,7.32-16.43,16.43-16.43,9.11,0,16.43,7.32,16.43,16.43s-7.32,16.43-16.43,16.43Z" fill="#333"/>
    <polygon points="464.38 241.7 433.6 193.96 415.67 193.96 415.67 277.78 433.6 277.78 433.6 225.34 467.14 277.78 482.38 277.78 482.38 193.96 464.38 193.96 464.38 241.7" fill="#333"/>
    <polygon points="658.16 241.7 627.38 193.96 609.45 193.96 609.45 277.78 627.38 277.78 627.38 225.34 660.92 277.78 676.09 277.78 676.09 193.96 658.16 193.96 658.16 241.7" fill="#0f6bff"/>
    <path d="M729.35,220.48c-4.48-2.76-9.64-4.11-15.39-4.11-5.75,0-11.43,1.34-16.14,4.03-4.71,2.69-8.37,6.42-10.98,11.13-2.61,4.71-3.96,10.01-3.96,15.76,0,5.75,1.34,11.06,4.03,15.76,2.69,4.71,6.42,8.44,11.28,11.13,4.86,2.69,10.46,4.03,16.88,4.03,6.42,0,10.68-1.05,15.02-3.21,4.33-2.09,7.92-5.15,10.68-9.19l-12.7-7.54c-1.34,1.72-3.14,3.14-5.45,4.11-2.32,1.05-4.71,1.57-7.1,1.57-4.03,0-7.25-.9-9.79-2.61-2.54-1.79-4.48-4.48-5.98-8.07h43.63c.3-1.79.45-3.81.45-5.98,0-5.75-1.27-10.98-3.74-15.69-2.54-4.71-6.05-8.44-10.53-11.21l-.22.07ZM699.32,240.28c.15-2.61,1.64-4.78,4.48-6.65,2.84-1.87,6.2-2.76,10.01-2.76s6.8.82,9.34,2.47c2.54,1.64,4.11,3.96,4.63,6.95h-28.54s.07,0,.07,0Z" fill="#0f6bff"/>
    <path d="M802.93,218.41c-4.48-2.69-9.86-4.03-16.14-4.03s-6.42.52-9.49,1.64c-3.06,1.05-5.9,2.61-8.59,4.63v-4.63h-17.11s0,83.82,0,83.82h17.11s0-28.39,0-28.39c2.61,2.02,5.53,3.51,8.59,4.63,3.14,1.05,6.27,1.64,9.49,1.64,6.2,0,11.58-1.34,16.14-4.11,4.48-2.76,7.99-6.5,10.38-11.28,2.39-4.78,3.59-10.23,3.59-16.29,0-6.05-1.2-11.5-3.59-16.21-2.39-4.78-5.83-8.52-10.38-11.21v-.22ZM795.46,256.81c-2.84,2.76-6.5,4.11-10.98,4.11-4.48,0-8.29-1.34-11.28-4.11-2.99-2.76-4.48-6.35-4.48-10.83,0-4.48,1.49-8.14,4.56-10.98,3.06-2.84,6.8-4.33,11.28-4.33,4.48,0,8.14,1.42,10.98,4.18,2.84,2.76,4.26,6.5,4.26,10.98,0,4.48-1.42,8.22-4.26,10.98h-.07Z" fill="#0f6bff"/>
    <path d="M865.38,218.91c-3.59-1.49-7.02-2.24-10.46-2.24-5.08,0-9.86,1.87-14.27,5.53v-28.24s-17.11,0-17.11,0v83.82s17.11,0,17.11,0v-36.6c.45-3.29,1.64-5.68,3.44-7.25,1.87-1.57,3.96-2.32,6.5-2.32s5.53.82,7.69,2.54c2.17,1.72,3.21,4.48,3.21,8.29v35.33s17.11,0,17.11,0v-35.78c-.07-6.35-1.42-11.43-4.03-15.24-2.61-3.74-5.68-6.35-9.19-7.84Z" fill="#0f6bff"/>
    <path d="M931.72,220.48c-4.71-2.76-9.86-4.18-15.39-4.18s-10.83,1.42-15.54,4.18c-4.71,2.76-8.52,6.5-11.28,11.28-2.76,4.71-4.18,9.94-4.18,15.54,0,5.6,1.42,10.68,4.18,15.46,2.76,4.78,6.5,8.52,11.28,11.28,4.71,2.76,9.94,4.18,15.54,4.18,5.6,0,10.68-1.42,15.39-4.18,4.71-2.76,8.44-6.57,11.28-11.28,2.76-4.78,4.18-9.94,4.18-15.46,0-5.53-1.42-10.83-4.18-15.54-2.76-4.71-6.5-8.44-11.28-11.28ZM926.26,257.31c-2.84,2.76-6.2,4.18-10.08,4.18-3.88,0-7.25-1.42-10.01-4.18-2.76-2.76-4.18-6.13-4.18-10.01,0-3.88,1.42-7.25,4.18-10.08,2.76-2.84,6.13-4.18,10.01-4.18,3.88,0,7.25,1.42,10.08,4.18,2.84,2.84,4.18,6.2,4.18,10.08,0,3.88-1.42,7.25-4.18,10.01Z" fill="#0f6bff"/>
    <path d="M1002.46,248.27c-2.32-2.61-5.01-4.48-7.99-5.6-3.06-1.12-6.87-2.17-11.5-3.14-3.59-.67-6.2-1.42-7.84-2.02-1.64-.67-2.47-1.64-2.47-2.99s.67-2.69,2.02-3.59c1.34-.9,3.14-1.34,5.38-1.34s4.63.45,6.27,1.42c1.57.97,2.84,2.39,3.81,4.33l13.6-6.65c-2.32-3.96-5.6-7.02-9.71-9.11-4.11-2.09-8.81-3.14-13.97-3.14s-8.44.75-12.1,2.24c-3.74,1.49-6.65,3.66-8.81,6.5-2.17,2.84-3.29,6.2-3.29,10.01s1.12,7.17,3.29,9.56c2.17,2.39,4.78,4.11,7.84,5.3,3.06,1.12,6.87,2.24,11.35,3.21,3.96.9,6.87,1.72,8.74,2.47s2.76,1.94,2.76,3.51c0,1.57-.97,3.21-2.99,4.18-2.02.97-4.33,1.49-6.95,1.49-6.5,0-10.68-2.47-12.55-7.47l-13.75,7.02c2.24,4.56,5.6,7.92,10.08,10.23,4.48,2.32,9.86,3.44,16.21,3.44,6.35,0,8.89-.75,12.92-2.17,3.96-1.42,7.17-3.59,9.64-6.42,2.39-2.84,3.66-6.27,3.66-10.23,0-3.96-1.12-8.22-3.44-10.83l-.22-.22Z" fill="#0f6bff"/>
    <path d="M2470.08,367.37c1.48-.42,3.37-.84,5.91-1.27,2.53-.42,4.85-.63,7.38-.63,2.11,0,4.43.21,6.54,1.05,1.69.63,2.95,1.69,4.01,2.95,1.05,1.27,1.69,2.95,2.11,4.43.42,1.9.63,3.8.63,5.91v17.51h-8.65v-16.66c.21-2.11-.21-4.01-1.05-5.91-.63-1.05-2.11-1.69-4.22-1.69-.63,0-1.27,0-1.9.21-.63,0-1.27.21-1.9.21v23.83h-8.86v-29.95h0ZM2454.05,381.71c0-2.32-.42-4.43-1.48-6.33-2.11-2.53-5.69-2.95-8.44-1.05-.42.21-.63.63-1.05,1.05-1.27,1.9-1.9,4.22-1.69,6.33,0,2.32.42,4.64,1.69,6.54,1.9,2.53,5.48,3.16,8.01,1.27.42-.42,1.05-.84,1.27-1.27,1.05-1.9,1.69-4.22,1.69-6.54M2462.91,381.71c0,2.32-.21,4.43-1.05,6.75-.63,1.9-1.69,3.8-3.16,5.27-2.74,3.16-6.96,4.64-10.97,4.43-2.11,0-4.22-.42-6.33-1.05-1.9-.84-3.37-1.9-4.85-3.37-1.48-1.48-2.53-3.37-3.16-5.27-1.48-4.22-1.48-9.07,0-13.29.63-1.9,1.69-3.59,3.16-5.06,1.27-1.48,2.95-2.53,4.85-3.16,1.9-.84,4.01-1.27,6.12-1.05,2.11,0,4.22.42,6.12,1.05,1.69.84,3.37,1.9,4.85,3.16,1.27,1.48,2.32,3.16,3.16,5.06.84,2.11,1.27,4.22,1.27,6.54M2415.24,398.17c-6.75,0-11.81-1.9-15.19-5.48-3.59-3.59-5.27-8.86-5.27-15.82,0-3.16.42-6.12,1.48-9.07,1.9-5.06,5.91-9.07,10.97-10.76,2.74-1.05,5.48-1.48,8.44-1.48,1.48,0,3.16.21,4.64.42,1.48.21,2.74.63,3.59.84.84.21,1.9.63,2.74,1.05.63.21,1.05.42,1.48.84l-2.74,7.38c-1.48-.84-2.95-1.27-4.43-1.69-1.9-.42-3.8-.63-5.69-.63-1.48,0-2.74.21-4.01.63s-2.53,1.27-3.59,2.32c-1.05,1.27-1.9,2.53-2.53,4.01-.63,1.9-1.05,4.01-1.05,5.91,0,1.69.21,3.59.63,5.27.42,1.48,1.05,2.95,1.9,4.22,1.05,1.27,2.32,2.11,3.59,2.74,1.69.63,3.59,1.05,5.48,1.05,1.27,0,2.32-.21,3.59-.21,1.05,0,1.9-.21,2.74-.63.63-.21,1.48-.42,2.11-.63s1.05-.63,1.69-.63l2.53,7.38c-1.69,1.05-3.59,1.69-5.48,2.11-2.32.63-4.85.84-7.59.84M2380.23,378.76c0-.63-.21-1.48-.42-2.11-.21-.63-.63-1.27-1.05-1.9-.42-.63-1.05-1.05-1.69-1.48-.84-.42-1.69-.63-2.53-.63s-1.69.21-2.53.63c-.63.21-1.27.63-1.69,1.27s-.84,1.27-1.05,1.9c-.21.63-.42,1.48-.63,2.32h11.6ZM2359.56,381.93c0-2.53.42-4.85,1.27-7.17.63-1.9,1.9-3.59,3.37-5.06,1.27-1.27,2.95-2.32,4.64-3.16,1.69-.63,3.59-1.05,5.48-1.05,3.8-.21,7.8,1.27,10.55,4.01,2.53,2.74,3.8,6.75,3.8,11.81v1.69c0,.63-.21,1.05-.21,1.48h-20.04c0,1.69,1.05,3.37,2.53,4.22,1.69,1.05,3.8,1.69,5.91,1.48,1.48,0,3.16-.21,4.64-.42,1.27-.21,2.53-.63,3.8-1.05l1.05,7.17-1.9.63c-.84.21-1.69.42-2.74.63s-1.9.21-3.16.42c-1.05.21-2.11.21-3.16.21-2.53,0-4.85-.42-7.17-1.27-1.9-.63-3.59-1.9-5.06-3.37-1.48-1.48-2.53-3.16-2.95-5.06-.21-1.9-.63-4.01-.63-6.12M2353.86,381.93c0,2.32-.42,4.43-1.05,6.75-.63,1.9-1.69,3.59-3.16,5.06s-3.16,2.53-5.06,3.16c-2.11.84-4.43,1.05-6.75,1.05-1.05,0-2.32,0-3.37-.21l-3.37-.42c-1.05-.21-2.11-.21-3.16-.63-1.05-.21-1.9-.42-2.74-.63v-43.24l8.65-1.27v15.4c1.05-.42,2.11-.84,3.16-1.05s2.32-.42,3.37-.21c1.9,0,4.01.42,5.91,1.05,1.69.63,3.16,1.9,4.22,3.16,1.27,1.48,2.11,3.16,2.53,5.06.63,2.32.84,4.64.84,6.96M2345.01,381.5c0-5.69-2.11-8.44-6.33-8.44-.84,0-1.9.21-2.74.21-.63.21-1.48.42-2.11.84v16.03c.63.21,1.05.21,1.69.21s1.48.21,2.11.21c2.11.21,4.01-.84,5.48-2.32,1.27-2.11,1.9-4.43,1.9-6.75M2316.32,396.27c-1.48.42-3.37.84-5.91,1.27-2.53.42-4.85.63-7.38.63-2.32,0-4.43-.21-6.54-1.05-1.69-.63-2.95-1.69-4.01-2.95-1.05-1.27-1.69-2.95-2.11-4.43-.42-1.9-.63-3.8-.63-5.91v-17.3h8.65v16.24c-.21,2.11.21,4.22,1.05,6.12.63,1.27,2.11,1.9,4.22,1.9.63,0,1.27,0,1.9-.21.63,0,1.27-.21,1.9-.21v-23.83h8.86v29.74h0ZM2275.83,397.32c-.84-1.27-1.9-2.74-2.95-4.43s-2.32-3.16-3.59-4.64c-1.27-1.48-2.74-2.95-4.01-4.43-1.27-1.27-2.74-2.53-4.22-3.8v17.3h-9.49v-40.71h9.28v15.4c2.32-2.53,4.85-5.06,7.17-8.01,2.32-2.74,4.64-5.27,6.75-7.59h10.97c-2.74,3.16-5.48,6.54-8.44,9.49-2.74,3.16-5.91,6.12-8.86,9.28,3.37,2.95,6.54,6.12,9.49,9.7,3.16,4.01,6.12,8.01,8.86,12.23h-10.97v.21h0Z"/>
    <path d="M2349.43,217.2l-5.06,1.27c0-.63-.21-1.48-.21-2.11,0-5.48,1.48-10.76,4.22-15.19l9.91,8.86c.21.21.42.42.63.42-.63,1.48-1.05,3.16-1.05,4.64-.21.21-.63.21-1.05.21,0,0-7.38,1.9-7.38,1.9ZM2368.63,187.25v13.92c-1.48.42-2.74,1.05-3.8,1.9-.42-.21-.84-.63-1.27-1.05l-10.12-7.17c4.22-4.01,9.49-6.75,15.19-7.59M2299.87,219.31c4.85-21.09,8.86-39.02,13.71-60.11,2.11-9.49,3.59-12.02,12.23-17.08,11.81-6.96,20.88-11.81,33.54-19.19,8.01-4.43,9.49-4.22,9.49,5.48v48.93c-8.86,1.05-17.08,5.27-23.2,11.81l-4.22-2.95c-.42-.21-.84-.84-1.05-1.48-.42-1.27-1.27-2.53-2.32-3.37-1.9-1.69-4.85-1.27-6.54.63s-1.27,4.85.63,6.54c.63.63,1.48,1.05,2.32,1.05.63.21,1.05.21,1.69.21.42,0,.84.21,1.27.63l4.01,3.59c-4.43,6.54-6.75,14.13-6.75,21.72,0,1.48.21,2.74.21,4.22l-8.65,1.9c-.63,0-1.27,0-1.9.21l-1.05.63c-5.69,1.05-11.39,2.32-17.08,3.59-7.8,1.9-8.23.21-6.33-6.96M2378.75,201.17v-13.92c5.69,1.05,10.97,3.59,15.19,7.59l-10.97,7.8q-.21.21-.42.21c-1.05-.63-2.32-1.27-3.8-1.69M2403.22,217.41l-13.5-3.16c-.21-1.48-.42-2.95-1.05-4.22q.21-.21.42-.21l10.12-8.86c2.95,4.64,4.43,9.91,4.43,15.4-.42.21-.63.63-.42,1.05M2385.5,142.54c7.38,3.59,12.65,6.12,20.04,9.7,10.12,4.85,20.46,9.91,30.79,14.76,2.53,10.97,5.06,22.15,7.59,33.11,1.48,6.75,2.32,10.12,3.8,16.66,2.32,10.33,2.11,11.18-8.44,8.86l-26.15-5.91c.21-1.05.21-2.32.21-3.37,0-7.8-2.32-15.61-6.75-21.94l3.59-3.37c.42-.42,1.05-.63,1.48-.63,1.48,0,2.74-.63,3.8-1.48,1.9-1.69,2.32-4.43.63-6.54-1.69-1.9-4.43-2.32-6.54-.63-.63.42-1.27,1.27-1.69,1.9-.21.63-.42,1.05-.63,1.48-.21.42-.42.84-.84,1.05l-4.22,2.95c-6.12-6.54-14.34-10.55-23.2-11.81v-29.95c-.21-6.96.42-7.8,6.54-4.85M2376.43,231.75c-.84.21-1.69.21-2.74.21-.84,0-1.69,0-2.53-.21l-.42.84-6.33,11.39c2.95,1.05,6.12,1.48,9.28,1.48s6.33-.63,9.49-1.48l-6.33-11.39c0-.21-.21-.42-.42-.84M2387.4,224.16l13.5,3.16c-2.32,5.48-6.12,10.12-10.97,13.5l-5.48-13.08c1.27-1.05,2.11-2.32,2.95-3.59M2346.48,227.11l13.5-3.16c.84,1.27,1.9,2.53,2.95,3.59l-.42.84-4.85,12.23c-5.06-3.16-8.86-7.8-11.18-13.5M2457.85,251.16c-6.54,8.01-9.49,11.81-16.03,20.04-7.38,9.28-13.29,16.66-20.67,25.94-5.27,6.75-9.07,6.75-17.72,6.75h-59.48c-11.39,0-12.23,0-19.19-8.86-6.96-8.65-12.23-15.4-19.19-24.04-5.48-6.75-6.75-8.44-12.23-15.19-8.44-10.55-9.7-14.34,3.16-17.08l40.28-9.07c3.16,8.44,9.07,15.61,16.87,20.46l-1.9,4.22c-.21.63-.63,1.05-1.05,1.27-1.27.63-2.32,1.69-2.74,2.95-1.05,2.32-.21,5.06,2.11,6.33,2.32,1.05,5.06.21,6.33-2.11.42-.84.63-1.69.63-2.53,0-.63,0-1.05-.21-1.69,0-.42,0-1.05.21-1.48l2.32-4.01c4.43,1.69,9.28,2.53,13.92,2.53s9.7-.84,14.13-2.74l2.32,4.01c.21.42.42,1.05.21,1.69-.21,1.27,0,2.74.63,4.01,1.05,2.32,4.01,3.16,6.33,2.11s3.16-4.01,2.11-6.33c-.42-.84-.84-1.48-1.48-2.11-.42-.42-.84-.63-1.48-1.05-.42-.21-.63-.63-.84-1.05l-1.9-4.43c7.8-4.64,13.71-11.81,16.66-20.46l44.29,10.12c9.28,2.11,8.65,5.27,3.59,11.81" fill-rule="evenodd"/>
    <path d="M2378.75,201.17v-13.92c5.69,1.05,10.97,3.59,15.19,7.59l-10.97,7.8q-.21.21-.42.21c-1.05-.63-2.32-1.27-3.8-1.69M2403.22,217.41l-13.5-3.16c-.21-1.48-.42-2.95-1.05-4.22q.21-.21.42-.21l10.12-8.86c2.95,4.64,4.43,9.91,4.43,15.4-.42.21-.63.63-.42,1.05M2385.5,142.54c7.38,3.59,12.65,6.12,20.04,9.7,10.12,4.85,20.46,9.91,30.79,14.76,2.53,10.97,5.06,22.15,7.59,33.11,1.48,6.75,2.32,10.12,3.8,16.66,2.32,10.33,2.11,11.18-8.44,8.86l-26.15-5.91c.21-1.05.21-2.32.21-3.37,0-7.8-2.32-15.61-6.75-21.94l3.59-3.37c.42-.42,1.05-.63,1.48-.63,1.48,0,2.74-.63,3.8-1.48,1.9-1.69,2.32-4.43.63-6.54-1.69-1.9-4.43-2.32-6.54-.63-.63.42-1.27,1.27-1.69,1.9-.21.63-.42,1.05-.63,1.48-.21.42-.42.84-.84,1.05l-4.22,2.95c-6.12-6.54-14.34-10.55-23.2-11.81v-29.95c-.21-6.96.42-7.8,6.54-4.85M2387.4,224.16l13.5,3.16c-2.32,5.48-6.12,10.12-10.97,13.5l-5.48-13.08c1.27-1.05,2.11-2.32,2.95-3.59M2373.69,245.46v-13.5c.84,0,1.9-.21,2.74-.21.21.42.42.63.63,1.05l6.33,11.39c-3.37.84-6.54,1.27-9.7,1.27M2457.85,251.16c-6.54,8.01-9.49,11.81-16.03,20.04-7.38,9.28-13.29,16.66-20.67,25.94-5.27,6.75-9.07,6.75-17.72,6.75h-29.53v-48.51c4.85,0,9.7-.84,14.13-2.74l2.32,4.01c.21.42.42,1.05.21,1.69-.21,1.27,0,2.74.63,4.01,1.05,2.32,4.01,3.16,6.33,2.11s3.16-4.01,2.11-6.12c-.42-.84-.84-1.48-1.48-2.11-.42-.42-.84-.63-1.48-1.05-.42-.21-.63-.63-.84-1.05l-1.9-4.43c7.8-4.64,13.71-11.81,16.66-20.46l44.29,10.12c8.65,2.11,8.01,5.27,2.95,11.81" fill-rule="evenodd"/>
    <path d="M2786.24,249.47h-23.41v54.84h54.84v-23.41h-31.22c-.21,0-.21-31.43-.21-31.43ZM2903.93,249.47v31.22h-31.22l-.21-.21v23.83h54.84v-54.84s-23.41,0-23.41,0ZM2762.62,194.42h23.62l-.21-.21v-31.22h31.22l.21.21v-23.62h-54.84v54.84ZM2872.51,139.58v23.41h31.43v31.43h23.41v-54.84h-54.84Z"/>
    <path d="M2869.55,194.42l-31.43-31.43h34.17v-23.41h-54.84v23.83l31.22,31.22c.21-.21,20.88-.21,20.88-.21ZM2841.29,249.47h-20.88l26.15,26.15,5.48,5.48h-34.38v23.41h54.84v-23.83l-15.61-15.61-15.61-15.61h0ZM2903.93,194.42v34.17l-5.48-5.48-26.15-25.94v20.88l15.82,15.61,15.61,15.61h23.62v-54.84s-23.41,0-23.41,0ZM2817.46,225.64l-31.22-31.22h-23.83v54.84h23.62v-34.17l31.22,31.22v-20.67h.21Z" isolation="isolate" opacity=".8"/>
    <path d="M2647.67,364.21l-5.91,7.17c-2.53-3.16-6.12-5.06-10.12-5.27-6.33,0-11.39,5.06-11.39,11.39v.42c0,6.75,4.85,11.81,11.39,11.81,3.8-.21,7.59-1.9,10.12-4.85l6.12,6.33c-4.43,4.43-10.33,7.17-16.66,7.38-12.23,0-21.3-8.86-21.3-20.88s9.28-20.46,21.72-20.46c6.12.21,11.81,2.74,16.03,6.96ZM2652.73,398.17v-42.82h10.12v42.82h-10.12ZM2702.51,382.56c0,9.7-6.75,16.03-17.08,16.03s-17.08-6.33-17.08-16.03,6.75-15.82,17.08-15.82,17.08,6.33,17.08,15.82ZM2678.46,382.77c0,4.85,2.74,8.01,6.96,8.01s6.96-3.16,6.96-8.01-2.74-8.01-6.96-8.01-6.96,3.16-6.96,8.01ZM2738.36,398.17h-10.12v-5.06c-2.11,3.59-6.12,5.69-10.12,5.48-6.75,0-11.18-4.64-11.18-11.81v-19.62h10.12v16.87c0,3.59,1.9,5.91,5.27,5.91,3.8,0,6.12-3.16,6.12-7.38v-15.4h10.12l-.21,31h0ZM2777.8,398.17h-10.12v-4.01c-2.32,2.95-5.69,4.64-9.28,4.43-8.86,0-14.55-6.54-14.55-16.24s5.69-15.82,14.34-15.82c3.8-.21,7.38,1.48,9.7,4.43v-15.82h10.12v43.03h-.21ZM2767.68,382.77c0-4.85-2.74-8.01-6.96-8.01s-6.96,3.16-6.96,8.01,2.74,8.23,6.96,8.23c4.22-.21,6.96-3.37,6.96-8.23ZM2814.29,398.17l-18.77-24.89v24.89h-9.7v-40.5h9.07l18.77,25.1v-25.1h9.7v40.5h-9.07ZM2859.22,377.71v20.46h-9.7v-3.59c-1.9,2.74-5.48,4.01-9.49,4.01-6.75,0-10.76-4.01-10.76-9.7s4.22-9.28,12.02-9.49h8.23v-.42c0-3.16-1.9-4.85-6.12-4.85-3.16.21-6.54,1.05-9.28,2.53l-2.74-6.75c4.43-2.32,9.49-3.59,14.34-3.59,8.44.21,13.5,4.43,13.5,11.39h0ZM2849.31,387.62v-2.74h-6.33c-2.95,0-4.43,1.05-4.43,3.37s1.48,3.59,4.43,3.59c2.74.21,5.48-1.48,6.33-4.22ZM2886.22,396.69c-2.53,1.48-5.48,2.11-8.44,2.11-6.12,0-10.33-3.37-10.33-9.91v-13.71h-4.43v-6.54h4.43v-8.65h9.91v8.65h8.23v6.75h-8.23v12.23c0,2.32,1.05,3.59,2.74,3.37,1.27-.21,2.53-.42,3.8-1.05l2.32,6.75ZM2901.4,358.09c.21,2.95-2.11,5.27-5.06,5.27h-.21c-2.95,0-5.27-2.53-5.27-5.48s2.32-5.27,5.27-5.27c2.74-.21,5.06,1.9,5.27,4.64v.84h0ZM2891.07,398.17v-31.22h9.91v31.22h-9.91ZM2916.59,398.17l-11.81-31.22h10.33l6.75,22.15,6.75-22.15h9.91l-11.81,31.22h-10.12ZM2971.64,385.3h-21.94c.63,3.37,3.8,5.91,7.38,5.91,2.74,0,5.48-1.27,7.59-3.16l5.27,5.06c-3.59,3.8-8.44,5.69-13.5,5.48-10.12,0-16.66-6.33-16.66-15.82s6.75-16.03,16.24-16.03c10.76,0,16.24,7.17,15.61,18.56h0ZM2962.15,379.82c.21-3.16-2.11-6.12-5.27-6.33h-.63c-3.59,0-5.91,2.53-6.54,6.33h12.44ZM3012.55,364.21l-5.91,7.17c-2.53-3.16-6.12-5.06-10.12-5.27-6.33,0-11.39,5.06-11.39,11.39v.42c0,6.75,4.85,11.81,11.39,11.81,3.8-.21,7.59-1.9,10.12-4.85l6.12,6.33c-4.43,4.43-10.33,7.17-16.66,7.38-12.23,0-21.3-8.86-21.3-20.88s9.28-20.46,21.72-20.46c5.91.21,11.6,2.74,16.03,6.96ZM3047.36,382.56c0,9.7-6.75,16.03-17.08,16.03s-17.08-6.33-17.08-16.03,6.75-15.82,17.08-15.82,17.08,6.33,17.08,15.82ZM3023.52,382.77c0,4.85,2.74,8.01,6.96,8.01s6.96-3.16,6.96-8.01-2.74-8.01-6.96-8.01-6.96,3.16-6.96,8.01ZM3084.69,378.55v19.62h-9.91v-16.87c0-3.59-2.11-5.91-5.48-5.91-3.59,0-5.91,2.53-6.33,6.33v16.66h-10.12v-31.22h10.12v5.06c2.11-3.59,6.33-5.69,10.55-5.48,6.54-.21,11.18,4.43,11.18,11.81h0Z"/>
    <path id="c" data-name="b" d="M2556.55,121.23h1.48v288.11h-1.48V121.23Z" fill="#111245"/>
    <path d="M2556.55,121.23h1.48v288.11h-1.48V121.23Z" fill="#111245"/>
    <path d="M2556.55,121.23h1.48v288.11h-1.48V121.23Z" fill="#111245"/>
    <path id="d" data-name="SVGID" d="M2556.55,121.23h1.48v288.11h-1.48V121.23Z" fill="#111245"/>
    <path id="e" data-name="SVGID" d="M2556.55,121.23h1.48v288.11h-1.48V121.23Z" fill="#111245"/>
    <g clip-path="url(#f)">
      <path d="M2556.55,121.23h1.48v288.11h-1.48V121.23Z" fill="#111245"/>
    </g>
    <path d="M2831.59,459.96h253.1v1.05h-253.1v-1.05ZM2249.46,459.96h247.19v1.05h-247.19v-1.05Z" fill="#111245"/>
    <path d="M2522.6,449.84v3.59h15.19v8.01h-15.19v4.22h16.66v8.01h-25.73v-31.85h25.73v8.01h-16.66ZM2568.58,449.63v24.04h-8.86v-2.32c-1.48,1.9-3.8,2.95-6.75,2.95-5.06,0-8.86-3.8-8.86-9.28v-15.19h8.44v13.08c0,2.32,1.48,4.01,3.59,4.01,1.9,0,3.37-1.48,3.37-3.59v-13.5h9.07v-.21ZM2590.51,449.21v7.38c-4.64,0-7.59,2.53-7.59,6.96v10.12h-8.86v-24.04h8.86v4.22c1.69-2.95,4.43-4.64,7.59-4.64h0ZM2593.68,461.65c0-6.96,6.12-12.44,13.5-12.44s13.5,5.69,13.5,12.44-6.12,12.65-13.5,12.65-13.5-5.69-13.5-12.65ZM2612.45,461.65c0-2.74-2.32-5.06-5.06-5.06s-5.06,2.32-5.06,5.06,2.32,5.06,5.06,5.06,5.06-2.32,5.06-5.06ZM2652.52,461.65c0,7.38-4.64,12.65-10.97,12.65-3.16,0-5.69-1.27-7.59-3.37v10.76h-9.07v-32.06h8.86v2.74c1.9-2.11,4.64-3.37,7.59-3.37,6.54.21,11.18,5.27,11.18,12.65h0ZM2643.87,461.65c0-2.95-2.11-5.06-5.27-5.06-2.74,0-4.85,2.11-4.85,5.06s1.9,5.06,4.85,5.06c3.16,0,5.27-2.11,5.27-5.06ZM2673.61,465.45l4.85,5.06c-2.11,2.11-6.12,3.8-9.91,3.8-7.59,0-13.29-5.27-13.29-12.65s5.48-12.44,12.87-12.44c7.8,0,12.44,5.48,12.44,14.76h-17.08c.63,2.32,2.32,3.8,4.43,3.8,2.11-.21,4.01-1.05,5.69-2.32ZM2663.91,459.12h8.23c-.63-1.9-1.9-3.37-3.8-3.37-2.32,0-3.8,1.27-4.43,3.37h0ZM2696.39,466.29l11.81-8.44c3.37-2.32,4.22-3.8,4.22-5.48s-1.48-2.95-3.59-2.95c-2.74,0-4.85,1.27-7.38,3.8l-5.48-5.69c3.59-4.22,7.8-6.33,13.08-6.33,7.59,0,12.65,4.64,12.65,10.76,0,4.22-1.69,7.38-7.38,10.97l-4.22,2.74h11.81v8.01h-25.52v-7.38h0ZM2725.92,457.64c0-9.7,6.12-16.45,14.98-16.45s14.98,6.75,14.98,16.45-6.12,16.45-14.98,16.45-14.98-6.75-14.98-16.45ZM2746.59,457.64c0-4.85-2.32-8.23-5.69-8.23s-5.69,3.37-5.69,8.23,2.32,8.44,5.69,8.44,5.69-3.59,5.69-8.44ZM2759.88,466.29l11.81-8.44c3.37-2.32,4.22-3.8,4.22-5.48s-1.48-2.95-3.59-2.95c-2.74,0-4.85,1.27-7.38,3.8l-5.48-5.69c3.59-4.22,7.8-6.33,13.08-6.33,7.59,0,12.65,4.64,12.65,10.76,0,4.22-1.69,7.38-7.38,10.97l-4.22,2.74h11.81v8.01h-25.52v-7.38h0ZM2816.82,462.92c0,6.96-5.69,11.39-12.87,11.39-9.7,0-14.55-6.54-14.55-15.82,0-10.33,5.91-17.08,15.82-17.08,4.01,0,7.38,1.27,10.33,3.16l-4.01,6.75c-1.9-1.48-3.59-2.11-6.12-2.11-3.37,0-5.48,1.9-6.33,5.48,1.9-1.27,4.43-1.9,6.96-1.9,5.91-.21,10.76,3.59,10.76,10.12ZM2807.54,463.13c0-2.11-2.11-3.37-4.43-3.37-1.9,0-3.37.84-4.22,2.53.42,3.16,1.48,4.43,4.43,4.43,2.53-.21,4.22-1.48,4.22-3.59Z"/>
  </g>
</svg>