<svg width="1280" height="720" xmlns="http://www.w3.org/2000/svg" xmlns:xlink="http://www.w3.org/1999/xlink" overflow="hidden"><defs><clipPath id="clip0"><rect x="0" y="0" width="1280" height="720"/></clipPath></defs><g clip-path="url(#clip0)"><rect x="0" y="0" width="1280" height="720.188" fill="#FFFFFF"/><text font-family="Arial Black,Arial Black_MSFontService,sans-serif" font-weight="900" font-size="37" transform="matrix(1 0 0 1.00026 378.664 99)">Project</text><text font-family="Arial Black,Arial Black_MSFontService,sans-serif" font-weight="900" font-size="37" transform="matrix(1 0 0 1.00026 538.122 99)">Day 0 Operations</text><path d="M187 249.732C187 233.896 199.835 221.058 215.667 221.058L565.333 221.058C581.165 221.058 594 233.896 594 249.732L594 364.428C594 380.264 581.165 393.102 565.333 393.102L215.667 393.102C199.835 393.102 187 380.264 187 364.428Z" stroke="#000000" stroke-width="1.99948" stroke-linejoin="round" stroke-miterlimit="10" fill="#F2F2F2" fill-rule="evenodd"/><text font-family="Arial Black,Arial Black_MSFontService,sans-serif" font-weight="900" font-size="37" transform="matrix(1 0 0 1.00026 223.822 320)">Proposal (Day 0)</text><path d="M798 249.732C798 233.896 810.835 221.058 826.667 221.058L1176.33 221.058C1192.17 221.058 1205 233.896 1205 249.732L1205 364.428C1205 380.264 1192.17 393.102 1176.33 393.102L826.667 393.102C810.835 393.102 798 380.264 798 364.428Z" stroke="#000000" stroke-width="1.99948" stroke-linejoin="round" stroke-miterlimit="10" fill="#FFFFFF" fill-rule="evenodd"/><text font-family="Arial Black,Arial Black_MSFontService,sans-serif" font-weight="900" font-size="37" transform="matrix(1 0 0 1.00026 827.572 298)">Acceptance (Day</text><text font-family="Arial Black,Arial Black_MSFontService,sans-serif" font-weight="900" font-size="37" transform="matrix(1 0 0 1.00026 981.778 343)">1)</text><path d="M798 539.808C798 523.971 810.835 511.133 826.667 511.133L1176.33 511.133C1192.17 511.133 1205 523.971 1205 539.808L1205 654.503C1205 670.34 1192.17 683.178 1176.33 683.178L826.667 683.178C810.835 683.178 798 670.34 798 654.503Z" stroke="#000000" stroke-width="1.99948" stroke-linejoin="round" stroke-miterlimit="10" fill="#FFFFFF" fill-rule="evenodd"/><text font-family="Arial Black,Arial Black_MSFontService,sans-serif" font-weight="900" font-size="37" transform="matrix(1 0 0 1.00026 818.241 587)">Management (Day</text><text font-family="Arial Black,Arial Black_MSFontService,sans-serif" font-weight="900" font-size="37" transform="matrix(1 0 0 1.00026 981.778 632)">2)</text><path d="M594.5 306.247 791.446 306.247 791.446 308.913 594.5 308.913ZM790.113 303.58 798.11 307.58 790.113 311.58Z"/><path d="M1002.83 393.603 1002.83 504.319 1000.17 504.319 1000.17 393.603ZM1005.5 502.986 1001.5 510.986 997.501 502.986Z"/><path d="M313 591.154C313 581.21 321.059 573.149 331 573.149L451 573.149C460.941 573.149 469 581.21 469 591.154L469 663.172C469 673.116 460.941 681.177 451 681.177L331 681.177C321.059 681.177 313 673.116 313 663.172Z" stroke="#000000" stroke-width="1.99948" stroke-linejoin="round" stroke-miterlimit="10" fill="#F2F2F2" fill-rule="evenodd"/><text font-family="Arial Black,Arial Black_MSFontService,sans-serif" font-weight="900" font-size="27" transform="matrix(1 0 0 1.00026 334.959 636)">IP Scan</text><path d="M483 593.155C483 583.211 491.059 575.15 501 575.15L692 575.15C701.941 575.15 710 583.211 710 593.155L710 665.173C710 675.117 701.941 683.178 692 683.178L501 683.178C491.059 683.178 483 675.117 483 665.173Z" stroke="#000000" stroke-width="1.99948" stroke-linejoin="round" stroke-miterlimit="10" fill="#F2F2F2" fill-rule="evenodd"/><text font-family="Arial Black,Arial Black_MSFontService,sans-serif" font-weight="900" font-size="27" transform="matrix(1 0 0 1.00026 566.107 622)">TAC</text><text font-family="Arial Black,Arial Black_MSFontService,sans-serif" font-weight="900" font-size="27" transform="matrix(1 0 0 1.00026 502.957 654)">Presentatio</text><text font-family="Arial Black,Arial Black_MSFontService,sans-serif" font-weight="900" font-size="27" transform="matrix(1 0 0 1.00026 672.079 654)">n</text><path d="M16 589.821C16 579.508 24.3576 571.149 34.6671 571.149L280.333 571.149C290.643 571.149 299 579.508 299 589.821L299 664.506C299 674.818 290.643 683.178 280.333 683.178L34.6671 683.178C24.3576 683.178 16 674.818 16 664.506Z" stroke="#000000" stroke-width="1.99948" stroke-linejoin="round" stroke-miterlimit="10" fill="#F2F2F2" fill-rule="evenodd"/><text font-family="Arial Black,Arial Black_MSFontService,sans-serif" font-weight="900" font-size="27" transform="matrix(1 0 0 1.00026 36.4398 636)">Project Proposal</text><path d="M0 0 233.287 177.078" stroke="#000000" stroke-width="2.66597" stroke-linejoin="round" stroke-miterlimit="10" fill="none" fill-rule="evenodd" transform="matrix(1 0 0 -1.00026 157.5 570.727)"/><path d="M0 0 0.00010496 179.233" stroke="#000000" stroke-width="2.66597" stroke-linejoin="round" stroke-miterlimit="10" fill="none" fill-rule="evenodd" transform="matrix(1 0 0 -1.00026 391.5 572.882)"/><path d="M597.321 575.038 391.5 393.603" stroke="#000000" stroke-width="2.66597" stroke-linejoin="round" stroke-miterlimit="10" fill="none" fill-rule="evenodd"/></g></svg>