<?xml version="1.0" encoding="UTF-8" standalone="no"?>
<svg
   id="a"
   data-name="Layer 1"
   width="1400"
   height="490"
   viewBox="0 0 1400 490"
   version="1.1"
   sodipodi:docname="20263017_mck_neonephos_series_banner.svg"
   inkscape:version="1.2.1 (9c6d41e410, 2022-07-14)"
   xmlns:inkscape="http://www.inkscape.org/namespaces/inkscape"
   xmlns:sodipodi="http://sodipodi.sourceforge.net/DTD/sodipodi-0.dtd"
   xmlns="http://www.w3.org/2000/svg"
   xmlns:svg="http://www.w3.org/2000/svg">
  <sodipodi:namedview
     id="namedview488"
     pagecolor="#ffffff"
     bordercolor="#000000"
     borderopacity="0.25"
     inkscape:showpageshadow="2"
     inkscape:pageopacity="0.0"
     inkscape:pagecheckerboard="0"
     inkscape:deskcolor="#d1d1d1"
     showgrid="false"
     inkscape:zoom="0.77428571"
     inkscape:cx="700"
     inkscape:cy="318.35793"
     inkscape:window-width="1920"
     inkscape:window-height="991"
     inkscape:window-x="-9"
     inkscape:window-y="-9"
     inkscape:window-maximized="1"
     inkscape:current-layer="a" />
  <defs
     id="defs147">
    <linearGradient
       id="b"
       x1="0"
       y1="483.26"
       x2="1400.01"
       y2="483.26"
       gradientUnits="userSpaceOnUse">
      <stop
         offset="0"
         stop-color="#0f6bff"
         id="stop132" />
      <stop
         offset="1"
         stop-color="#000025"
         id="stop134" />
    </linearGradient>
    <linearGradient
       id="c"
       x1="72.74"
       y1="172.8"
       x2="1134.5"
       y2="172.8"
       gradientTransform="translate(-5.36)"
       gradientUnits="userSpaceOnUse">
      <stop
         offset="0"
         stop-color="#000"
         id="stop137" />
      <stop
         offset=".56"
         stop-color="#0a0a0a"
         stop-opacity=".96"
         id="stop139" />
      <stop
         offset="1"
         stop-color="#fff"
         stop-opacity="0"
         id="stop141" />
    </linearGradient>
    <clipPath
       id="d">
      <rect
         x="1508.68"
         width="1400"
         height="490"
         fill="none"
         id="rect144" />
    </clipPath>
  </defs>
  <rect
     width="1400"
     height="490"
     fill="#fff"
     id="rect149" />
  <g
     id="g255">
    <path
       d="M77.04,150.49v-46.01h11.04l14.42,24.54h-3.83l14.22-24.54h10.63v46.01h-9.47v-40.88h4.2l-15.04,26.18h-5.91l-15.42-26.18h4.34v40.88h-9.19Z"
       id="path225" />
    <path
       d="M149.2,151.11c-3.71,0-6.84-.69-9.37-2.07-2.53-1.38-4.44-3.37-5.74-5.96s-1.95-5.72-1.95-9.37.63-6.57,1.9-9.13c1.27-2.55,3.12-4.52,5.57-5.9,2.45-1.38,5.46-2.07,9.04-2.07,4.97,0,8.89,1.45,11.77,4.36s4.32,7.05,4.32,12.42c0,.27-.01.64-.03,1.11-.02.47-.06.83-.1,1.08h-23.41c.04,1.57.34,3.04.87,4.41.53,1.37,1.38,2.47,2.55,3.3,1.16.83,2.69,1.25,4.58,1.25s3.53-.43,4.72-1.28c1.18-.85,1.79-2.12,1.81-3.81h8.92c-.11,2.6-.83,4.76-2.14,6.49-1.31,1.73-3.1,3.02-5.37,3.88s-4.92,1.28-7.95,1.28ZM141.3,129.85h14.46c-.07-2.32-.76-4.06-2.07-5.21-1.31-1.15-2.99-1.73-5.04-1.73s-3.81.59-5.14,1.78c-1.33,1.19-2.07,2.91-2.21,5.16Z"
       id="path227" />
    <path
       d="M188.13,151.11c-3.71,0-6.84-.69-9.37-2.07-2.53-1.38-4.44-3.37-5.74-5.96s-1.95-5.72-1.95-9.37.63-6.57,1.9-9.13c1.27-2.55,3.12-4.52,5.57-5.9,2.45-1.38,5.46-2.07,9.04-2.07,4.97,0,8.89,1.45,11.77,4.36s4.32,7.05,4.32,12.42c0,.27-.01.64-.03,1.11-.02.47-.06.83-.1,1.08h-23.41c.04,1.57.34,3.04.87,4.41.53,1.37,1.38,2.47,2.55,3.3,1.16.83,2.69,1.25,4.58,1.25s3.53-.43,4.72-1.28c1.18-.85,1.79-2.12,1.81-3.81h8.92c-.11,2.6-.83,4.76-2.14,6.49-1.31,1.73-3.1,3.02-5.37,3.88s-4.92,1.28-7.95,1.28ZM180.23,129.85h14.46c-.07-2.32-.76-4.06-2.07-5.21-1.31-1.15-2.99-1.73-5.04-1.73s-3.81.59-5.14,1.78c-1.33,1.19-2.07,2.91-2.21,5.16Z"
       id="path229" />
    <path
       d="M225.96,150.49c-3.37,0-5.99-.4-7.84-1.21-1.86-.81-3.15-2.06-3.88-3.76-.73-1.7-1.09-3.91-1.09-6.65v-14.77h-5.54v-6.97h5.54v-7.86h9.06v7.86h7.28v6.97h-7.28v14.22c0,1.75.24,3.05.74,3.9.49.84,1.6,1.26,3.33,1.26h3.21v7.01h-3.52Z"
       id="path231" />
    <path
       d="M241.14,112.76c-1.66,0-2.93-.42-3.81-1.26-.88-.84-1.32-1.89-1.32-3.14s.44-2.33,1.32-3.16c.88-.83,2.15-1.25,3.81-1.25s2.93.42,3.81,1.25c.88.83,1.32,1.89,1.32,3.16s-.44,2.3-1.32,3.14c-.88.84-2.15,1.26-3.81,1.26ZM236.59,150.49v-33.36h9.06v33.36h-9.06Z"
       id="path233" />
    <path
       d="M255.36,150.49v-33.36h8.72l.17,4.99c1.12-1.44,2.59-2.71,4.41-3.81,1.82-1.1,4.19-1.66,7.11-1.66,3.39,0,6.03,1.03,7.9,3.09,1.87,2.06,2.8,5.08,2.8,9.04v21.7h-8.99v-20.54c0-1.21-.17-2.27-.51-3.18-.34-.91-.88-1.62-1.62-2.12-.74-.5-1.72-.75-2.92-.75-1.8,0-3.34.42-4.63,1.26-1.29.84-2.41,1.87-3.37,3.08v22.25h-9.06Z"
       id="path235" />
    <path
       d="M309.02,163.38c-3.99,0-7.16-.41-9.5-1.23-2.35-.82-4.03-1.9-5.06-3.23-1.03-1.33-1.54-2.78-1.54-4.32,0-1.89.9-3.55,2.7-4.97,1.8-1.42,4.65-2.42,8.54-2.99l1.5-3.21h4.51c5.54,0,9.58.76,12.12,2.29,2.54,1.53,3.81,3.86,3.81,7.01s-1.46,5.76-4.38,7.72c-2.92,1.96-7.16,2.94-12.71,2.94ZM304.3,149.74c-2.39-.27-4.33-.76-5.81-1.45-1.48-.69-2.56-1.5-3.25-2.41-.68-.91-1.03-1.81-1.03-2.7,0-1.39.53-2.57,1.59-3.54,1.06-.97,2.66-1.82,4.8-2.55l4.72,1.71c-1.23.3-2.26.66-3.08,1.08-.82.42-1.23.94-1.23,1.56,0,.43.24.8.73,1.09.49.3,1.34.52,2.56.67,1.22.15,2.9.22,5.04.22l-5.06,6.32ZM308.41,139.86c-3.01,0-5.57-.54-7.69-1.61-2.12-1.07-3.73-2.48-4.82-4.24-1.09-1.75-1.64-3.65-1.64-5.67,0-2.16.55-4.12,1.66-5.86,1.1-1.74,2.73-3.14,4.87-4.19,2.14-1.05,4.75-1.57,7.83-1.57s5.79.52,7.88,1.57c2.08,1.05,3.64,2.44,4.68,4.19s1.56,3.7,1.56,5.86-.53,3.99-1.59,5.74c-1.06,1.75-2.64,3.16-4.75,4.2-2.11,1.05-4.77,1.57-7.98,1.57ZM308.88,157.71c3.05,0,5.21-.4,6.46-1.2,1.25-.8,1.88-1.77,1.88-2.9,0-.73-.22-1.35-.65-1.85-.43-.5-1.15-.89-2.15-1.16-1-.27-2.34-.41-4-.41h-6.08c-.89.34-1.61.83-2.17,1.45-.56.63-.84,1.35-.84,2.17,0,.96.59,1.85,1.78,2.67,1.18.82,3.11,1.23,5.78,1.23ZM308.41,134.43c1.69,0,3.09-.52,4.22-1.56,1.13-1.04,1.69-2.55,1.69-4.53,0-2.1-.52-3.66-1.57-4.68-1.05-1.03-2.42-1.54-4.1-1.54s-3.12.53-4.24,1.59c-1.12,1.06-1.67,2.6-1.67,4.63s.58,3.52,1.73,4.55c1.15,1.03,2.47,1.54,3.95,1.54ZM317.94,121.78l-2.67-3.38c.89-2.37,2.26-3.99,4.12-4.85,1.86-.87,4.1-1.31,6.72-1.33v6.6c-1.78,0-3.4.17-4.87.5-1.47.33-2.57,1.16-3.3,2.48Z"
       id="path237" />
    <path
       d="M362.17,151.11c-3.49,0-6.63-.5-9.42-1.49-2.79-.99-5.01-2.57-6.65-4.73-1.64-2.16-2.46-4.99-2.46-8.48h9.84c.04,1.78.46,3.17,1.23,4.19.77,1.01,1.82,1.74,3.13,2.17,1.31.43,2.81.65,4.5.65s3.04-.19,4.27-.58c1.23-.39,2.19-.99,2.89-1.79.69-.81,1.04-1.84,1.04-3.09s-.3-2.2-.89-2.99c-.59-.79-1.64-1.5-3.14-2.15s-3.61-1.35-6.32-2.1c-3.17-.91-5.91-1.91-8.22-3.01s-4.1-2.51-5.37-4.24c-1.27-1.73-1.9-3.99-1.9-6.77,0-2.98.72-5.42,2.17-7.3,1.45-1.88,3.45-3.26,6-4.15,2.55-.89,5.48-1.33,8.78-1.33s6.03.48,8.67,1.44c2.63.96,4.73,2.42,6.31,4.38,1.57,1.96,2.36,4.46,2.36,7.49h-9.84c.02-1.96-.71-3.42-2.19-4.39-1.48-.97-3.26-1.45-5.33-1.45s-3.75.38-5.09,1.15c-1.34.76-2.02,1.94-2.02,3.54,0,.91.28,1.71.85,2.41.57.7,1.62,1.37,3.16,2.03,1.54.66,3.77,1.41,6.68,2.26,3.49,1.03,6.35,2.1,8.58,3.23,2.23,1.13,3.89,2.59,4.97,4.38,1.08,1.79,1.62,4.14,1.62,7.06,0,3.26-.8,5.89-2.39,7.9-1.6,2.01-3.77,3.48-6.51,4.41-2.75.93-5.85,1.4-9.31,1.4Z"
       id="path239" />
    <path
       d="M403.9,151.11c-3.71,0-6.84-.69-9.37-2.07-2.53-1.38-4.44-3.37-5.74-5.96s-1.95-5.72-1.95-9.37.63-6.57,1.9-9.13c1.27-2.55,3.12-4.52,5.57-5.9,2.45-1.38,5.46-2.07,9.04-2.07,4.97,0,8.89,1.45,11.77,4.36s4.32,7.05,4.32,12.42c0,.27-.01.64-.03,1.11-.02.47-.06.83-.1,1.08h-23.41c.04,1.57.34,3.04.87,4.41.53,1.37,1.38,2.47,2.55,3.3,1.16.83,2.69,1.25,4.58,1.25s3.53-.43,4.72-1.28c1.18-.85,1.79-2.12,1.81-3.81h8.92c-.11,2.6-.83,4.76-2.14,6.49-1.31,1.73-3.1,3.02-5.37,3.88s-4.92,1.28-7.95,1.28ZM396.01,129.85h14.46c-.07-2.32-.76-4.06-2.07-5.21-1.31-1.15-2.99-1.73-5.04-1.73s-3.81.59-5.14,1.78c-1.33,1.19-2.07,2.91-2.21,5.16Z"
       id="path241" />
    <path
       d="M427.49,150.49v-33.36h8.68l.17,5.78c.87-2,2.16-3.54,3.9-4.61,1.73-1.07,3.83-1.61,6.29-1.61h.68v7.62h-.85c-1.34,0-2.63.12-3.86.36s-2.35.65-3.35,1.23c-1,.58-1.87,1.38-2.6,2.41v22.18h-9.06Z"
       id="path243" />
    <path
       d="M457.87,112.76c-1.66,0-2.93-.42-3.81-1.26-.88-.84-1.32-1.89-1.32-3.14s.44-2.33,1.32-3.16c.88-.83,2.15-1.25,3.81-1.25s2.93.42,3.81,1.25c.88.83,1.32,1.89,1.32,3.16s-.44,2.3-1.32,3.14c-.88.84-2.15,1.26-3.81,1.26ZM453.33,150.49v-33.36h9.06v33.36h-9.06Z"
       id="path245" />
    <path
       d="M487.44,151.11c-3.71,0-6.84-.69-9.37-2.07-2.53-1.38-4.44-3.37-5.74-5.96s-1.95-5.72-1.95-9.37.63-6.57,1.9-9.13c1.27-2.55,3.12-4.52,5.57-5.9,2.45-1.38,5.46-2.07,9.04-2.07,4.97,0,8.89,1.45,11.77,4.36s4.32,7.05,4.32,12.42c0,.27-.01.64-.03,1.11-.02.47-.06.83-.1,1.08h-23.41c.04,1.57.34,3.04.87,4.41.53,1.37,1.38,2.47,2.55,3.3,1.16.83,2.69,1.25,4.58,1.25s3.53-.43,4.72-1.28c1.18-.85,1.79-2.12,1.81-3.81h8.92c-.11,2.6-.83,4.76-2.14,6.49-1.31,1.73-3.1,3.02-5.37,3.88s-4.92,1.28-7.95,1.28ZM479.54,129.85h14.46c-.07-2.32-.76-4.06-2.07-5.21-1.31-1.15-2.99-1.73-5.04-1.73s-3.81.59-5.14,1.78c-1.33,1.19-2.07,2.91-2.21,5.16Z"
       id="path247" />
    <path
       d="M524.08,151.11c-1.85,0-3.66-.17-5.43-.51s-3.38-.93-4.82-1.76c-1.44-.83-2.58-1.97-3.42-3.4-.84-1.44-1.26-3.22-1.26-5.37h8.41c0,1.87.65,3.17,1.97,3.9,1.31.73,2.84,1.09,4.6,1.09s3.08-.28,4.03-.84c.96-.56,1.44-1.5,1.44-2.82,0-1.25-.56-2.19-1.69-2.8-1.13-.62-3.1-1.24-5.93-1.88-2.37-.57-4.48-1.26-6.34-2.07-1.86-.81-3.31-1.89-4.36-3.25-1.05-1.36-1.57-3.14-1.57-5.35,0-1.73.4-3.2,1.2-4.41.8-1.21,1.86-2.18,3.2-2.92,1.33-.74,2.84-1.28,4.51-1.62,1.68-.34,3.39-.51,5.14-.51s3.38.17,5.02.51,3.12.92,4.44,1.73c1.32.81,2.38,1.9,3.18,3.26.8,1.37,1.2,3.08,1.2,5.13h-8.41c0-1.71-.54-2.89-1.62-3.55-1.08-.66-2.35-.99-3.81-.99-1.57,0-2.81.23-3.71.68-.9.46-1.35,1.21-1.35,2.26,0,.62.28,1.16.85,1.62.57.47,1.48.9,2.73,1.3,1.25.4,2.91.83,4.96,1.28,2.16.5,4.1,1.15,5.81,1.95,1.71.8,3.06,1.87,4.07,3.21,1,1.34,1.5,3.09,1.5,5.23,0,2.01-.41,3.7-1.21,5.09-.81,1.39-1.89,2.51-3.25,3.37-1.36.85-2.91,1.48-4.65,1.86-1.74.39-3.55.58-5.42.58Z"
       id="path249" />
    <path
       d="M562.22,150.49l1.78-12.82h-6.53v-5.67h7.35l1.09-7.96h-6.56v-5.64h7.38l1.78-12.68h6.19l-1.74,12.68h6.8l1.74-12.68h6.25l-1.78,12.68h6.43v5.64h-7.25l-1.06,7.96h6.36v5.67h-7.14l-1.78,12.82h-6.22l1.74-12.82h-6.8l-1.78,12.82h-6.25ZM571.08,132h6.84l1.03-7.96h-6.77l-1.09,7.96Z"
       id="path251" />
    <text
       xml:space="preserve"
       style="font-size:53.3333px;font-family:Arial;-inkscape-font-specification:Arial;text-align:center;text-anchor:middle;fill:#ffffff;fill-rule:evenodd;stroke-width:13.346"
       x="616.34961"
       y="125.43572"
       id="text708"><tspan
         sodipodi:role="line"
         id="tspan706"></tspan></text>
    <text
       xml:space="preserve"
       style="font-size:64px;font-family:Arial;-inkscape-font-specification:Arial;text-align:center;text-anchor:middle;fill:#000000;fill-rule:evenodd;stroke-width:13.346"
       x="618.63464"
       y="149.81549"
       id="text764"><tspan
         sodipodi:role="line"
         id="tspan762"
         x="618.63464"
         y="149.81549"
         style="font-weight:bold;font-size:64px">6</tspan></text>
  </g>
  <rect
     x="84.68"
     y="378.13"
     width="52.09"
     height="44.14"
     rx="3.22"
     ry="3.22"
     fill="none"
     stroke="#333"
     stroke-miterlimit="10"
     stroke-width="4"
     id="rect257" />
  <rect
     x="84.98"
     y="378.9"
     width="52.09"
     height="9.4"
     fill="#333"
     id="rect259" />
  <rect
     x="0"
     y="476.52"
     width="1400.01"
     height="13.48"
     fill="url(#b)"
     id="rect261" />
  <path
     d="M65.74,22.65c-3.15,0-5.96,1.43-7.86,3.65-.17-.22-.37-.42-.57-.62-.59-.59-1.26-1.11-1.95-1.53-1.63-.99-3.5-1.48-5.35-1.5h0c-2.64,0-5.3,1.01-7.3,3.03-2.02,2.02-3.03,4.66-3.03,7.3,0,1.85.49,3.72,1.48,5.35.42.69.94,1.36,1.53,1.95.59.59,1.26,1.11,1.95,1.53,3.97,2.42,9.24,1.9,12.67-1.53.2-.2.39-.42.57-.62,1.9,2.22,4.71,3.65,7.86,3.65,5.69,0,10.33-4.63,10.33-10.33s-4.63-10.33-10.33-10.33h0ZM44.59,32.98c0-1.38.52-2.76,1.58-3.82,1.06-1.06,2.44-1.58,3.82-1.58h0c.57,0,1.13.1,1.68.27l-4.26,4.26-2.54,2.54c-.17-.54-.27-1.11-.27-1.68ZM53.83,36.8c-1.48,1.48-3.62,1.92-5.5,1.33l2.64-2.64,4.17-4.17.49-.49c-.15.69-.22,1.43-.22,2.17,0,1.38-.52,2.76-1.58,3.82v-.02ZM65.74,38.4c-2.98,0-5.42-2.42-5.42-5.42s2.42-5.42,5.42-5.42c3.01,0,5.42,2.42,5.42,5.42s-2.42,5.42-5.42,5.42Z"
     fill="#333"
     id="path263" />
  <polygon
     points="31.62 31.23 21.47 15.48 15.55 15.48 15.55 43.14 21.47 43.14 21.47 25.83 32.54 43.14 37.56 43.14 37.56 15.48 31.62 15.48 31.62 31.23"
     fill="#333"
     id="polygon265" />
  <polygon
     points="95.56 31.23 85.4 15.48 79.49 15.48 79.49 43.14 85.4 43.14 85.4 25.83 96.47 43.14 101.47 43.14 101.47 15.48 95.56 15.48 95.56 31.23"
     fill="#0f6bff"
     id="polygon267" />
  <path
     d="M119.05,24.23c-1.48-.91-3.18-1.36-5.08-1.36s-3.77.44-5.32,1.33c-1.55.89-2.76,2.12-3.62,3.67-.86,1.55-1.31,3.3-1.31,5.2,0,1.9.44,3.65,1.33,5.2.89,1.55,2.12,2.79,3.72,3.67s3.45,1.33,5.57,1.33,3.52-.35,4.95-1.06c1.43-.69,2.61-1.7,3.52-3.03l-4.19-2.49c-.44.57-1.04,1.04-1.8,1.36-.76.35-1.55.52-2.34.52-1.33,0-2.39-.3-3.23-.86-.84-.59-1.48-1.48-1.97-2.66h14.39c.1-.59.15-1.26.15-1.97,0-1.9-.42-3.62-1.23-5.18-.84-1.55-2-2.79-3.48-3.7l-.07.02ZM109.14,30.76c.05-.86.54-1.58,1.48-2.19.94-.62,2.05-.91,3.3-.91s2.24.27,3.08.81,1.36,1.31,1.53,2.29h-9.42s.02,0,.02,0Z"
     fill="#0f6bff"
     id="path269" />
  <path
     d="M143.32,24.21c-1.48-.89-3.25-1.33-5.32-1.33s-2.12.17-3.13.54c-1.01.35-1.95.86-2.83,1.53v-1.53h-5.64s0,27.65,0,27.65h5.64v-9.37c.86.67,1.82,1.16,2.83,1.53,1.04.35,2.07.54,3.13.54,2.05,0,3.82-.44,5.32-1.36,1.48-.91,2.64-2.14,3.43-3.72s1.18-3.38,1.18-5.37-.39-3.8-1.18-5.35c-.79-1.58-1.92-2.81-3.43-3.7v-.07ZM140.86,36.87c-.94.91-2.14,1.36-3.62,1.36s-2.74-.44-3.72-1.36-1.48-2.09-1.48-3.57.49-2.69,1.5-3.62c1.01-.94,2.24-1.43,3.72-1.43s2.69.47,3.62,1.38c.94.91,1.4,2.14,1.4,3.62s-.47,2.71-1.4,3.62h-.02Z"
     fill="#0f6bff"
     id="path271" />
  <path
     d="M163.93,23.71c-1.18-.49-2.32-.74-3.45-.74-1.68,0-3.25.62-4.71,1.82v-9.32h-5.64s0,27.65,0,27.65h5.64v-12.08c.15-1.08.54-1.87,1.13-2.39.62-.52,1.31-.76,2.14-.76s1.82.27,2.54.84c.71.57,1.06,1.48,1.06,2.74v11.66h5.64v-11.81c-.02-2.09-.47-3.77-1.33-5.03-.86-1.23-1.87-2.09-3.03-2.59Z"
     fill="#0f6bff"
     id="path273" />
  <path
     d="M185.81,24.23c-1.55-.91-3.25-1.38-5.08-1.38s-3.57.47-5.13,1.38-2.81,2.14-3.72,3.72c-.91,1.55-1.38,3.28-1.38,5.13,0,1.85.47,3.52,1.38,5.1.91,1.58,2.14,2.81,3.72,3.72,1.55.91,3.28,1.38,5.13,1.38s3.52-.47,5.08-1.38,2.79-2.17,3.72-3.72c.91-1.58,1.38-3.28,1.38-5.1,0-1.82-.47-3.57-1.38-5.13-.91-1.55-2.14-2.79-3.72-3.72ZM184.02,36.38c-.94.91-2.05,1.38-3.33,1.38s-2.39-.47-3.3-1.38-1.38-2.02-1.38-3.3.47-2.39,1.38-3.33c.91-.94,2.02-1.38,3.3-1.38s2.39.47,3.33,1.38c.94.94,1.38,2.05,1.38,3.33s-.47,2.39-1.38,3.3Z"
     fill="#0f6bff"
     id="path275" />
  <path
     d="M209.16,33.4c-.76-.86-1.65-1.48-2.64-1.85-1.01-.37-2.27-.71-3.8-1.04-1.18-.22-2.05-.47-2.59-.67-.54-.22-.81-.54-.81-.99s.22-.89.67-1.18,1.04-.44,1.77-.44,1.53.15,2.07.47c.52.32.94.79,1.26,1.43l4.49-2.19c-.76-1.31-1.85-2.32-3.2-3.01s-2.91-1.04-4.61-1.04-2.79.25-3.99.74c-1.23.49-2.19,1.21-2.91,2.14-.71.94-1.08,2.05-1.08,3.3s.37,2.37,1.08,3.15c.71.79,1.58,1.36,2.59,1.75,1.01.37,2.27.74,3.75,1.06,1.31.3,2.27.57,2.88.81s.91.64.91,1.16-.32,1.06-.99,1.38c-.67.32-1.43.49-2.29.49-2.14,0-3.52-.81-4.14-2.46l-4.54,2.32c.74,1.5,1.85,2.61,3.33,3.38s3.25,1.13,5.35,1.13,2.93-.25,4.26-.71c1.31-.47,2.37-1.18,3.18-2.12.79-.94,1.21-2.07,1.21-3.38,0-1.31-.37-2.71-1.13-3.57l-.07-.07Z"
     fill="#0f6bff"
     id="path277" />
  <g
     id="g373">
    <path
       d="M77.84,229.32v-32.86h4.39v32.86h-4.39Z"
       id="path279" />
    <path
       d="M90.85,229.32v-32.86h11.87c2.03,0,3.87.39,5.49,1.16,1.63.77,2.91,1.91,3.86,3.42.94,1.51,1.42,3.35,1.42,5.53s-.47,3.92-1.42,5.37c-.94,1.45-2.23,2.55-3.86,3.3-1.63.75-3.46,1.12-5.49,1.12h-7.47v12.96h-4.39ZM95.24,212.72h7.13c1.99,0,3.59-.51,4.82-1.53,1.23-1.02,1.84-2.56,1.84-4.63,0-2.21-.62-3.85-1.86-4.91-1.24-1.06-2.84-1.59-4.81-1.59h-7.13v12.65Z"
       id="path281" />
    <path
       d="M133.28,229.76c-3.4,0-6.27-.72-8.59-2.15-2.33-1.43-4.09-3.41-5.29-5.93-1.2-2.52-1.79-5.44-1.79-8.76s.6-6.25,1.79-8.79c1.2-2.54,2.96-4.52,5.29-5.96,2.33-1.43,5.19-2.15,8.59-2.15,2.25,0,4.37.39,6.36,1.17,1.99.78,3.65,1.97,4.98,3.58,1.33,1.6,2.1,3.63,2.33,6.07h-4.42c-.2-1.64-.75-3-1.65-4.06-.9-1.07-2.02-1.86-3.35-2.38-1.33-.52-2.75-.78-4.26-.78-2.64,0-4.77.6-6.41,1.81-1.64,1.2-2.83,2.81-3.58,4.81-.75,2-1.12,4.23-1.12,6.69s.37,4.66,1.12,6.67c.75,2,1.94,3.59,3.58,4.77,1.63,1.18,3.77,1.77,6.41,1.77s4.83-.66,6.49-1.98,2.62-3.29,2.88-5.91h4.44c-.26,2.59-1.02,4.73-2.27,6.43-1.25,1.7-2.87,2.97-4.86,3.82-1.99.85-4.22,1.27-6.69,1.27Z"
       id="path283" />
    <path
       d="M153.89,229.32v-32.86h20.97v3.66h-16.58v10.47h15.26v3.61h-15.26v11.45h16.58v3.66h-20.97Z"
       id="path285" />
    <path
       d="M181.7,229.32v-32.86h4.39v32.86h-4.39Z"
       id="path287" />
    <path
       d="M192.83,218.99v-3.61h12.18v3.61h-12.18Z"
       id="path289" />
    <path
       d="M225.98,229.76c-3.4,0-6.27-.72-8.59-2.15-2.33-1.43-4.09-3.41-5.29-5.93-1.2-2.52-1.79-5.44-1.79-8.76s.6-6.25,1.79-8.79c1.2-2.54,2.96-4.52,5.29-5.96,2.33-1.43,5.19-2.15,8.59-2.15,2.25,0,4.37.39,6.36,1.17,1.99.78,3.65,1.97,4.98,3.58,1.33,1.6,2.1,3.63,2.33,6.07h-4.42c-.2-1.64-.75-3-1.65-4.06-.9-1.07-2.02-1.86-3.35-2.38-1.33-.52-2.75-.78-4.26-.78-2.64,0-4.77.6-6.41,1.81-1.64,1.2-2.83,2.81-3.58,4.81-.75,2-1.12,4.23-1.12,6.69s.37,4.66,1.12,6.67c.75,2,1.94,3.59,3.58,4.77,1.63,1.18,3.77,1.77,6.41,1.77s4.83-.66,6.49-1.98,2.62-3.29,2.88-5.91h4.44c-.26,2.59-1.02,4.73-2.27,6.43-1.25,1.7-2.87,2.97-4.86,3.82-1.99.85-4.22,1.27-6.69,1.27Z"
       id="path291" />
    <path
       d="M246.59,229.32v-32.86h4.39v32.86h-4.39Z"
       id="path293" />
    <path
       d="M269.68,229.76c-2.34,0-4.46-.36-6.35-1.07-1.89-.72-3.39-1.84-4.5-3.37-1.11-1.53-1.67-3.52-1.67-5.96h4.42c0,1.74.38,3.11,1.14,4.1.76.99,1.76,1.69,3.01,2.1,1.25.41,2.63.61,4.13.61,1.38,0,2.65-.21,3.8-.62,1.15-.42,2.06-1.04,2.75-1.88.68-.84,1.03-1.92,1.03-3.23,0-1.14-.27-2.08-.81-2.81s-1.43-1.37-2.67-1.92c-1.25-.54-2.92-1.09-5.02-1.62-2.47-.65-4.51-1.36-6.1-2.14-1.6-.77-2.78-1.74-3.55-2.89-.77-1.16-1.16-2.62-1.16-4.39,0-1.87.44-3.45,1.32-4.72.88-1.28,2.14-2.25,3.78-2.92,1.64-.67,3.6-1,5.86-1,2.12,0,4.05.34,5.81,1.03s3.16,1.71,4.21,3.08c1.05,1.37,1.58,3.07,1.58,5.1h-4.39c.02-1.86-.67-3.26-2.05-4.21-1.38-.95-3.09-1.43-5.13-1.43s-3.73.42-4.9,1.26c-1.16.84-1.75,2.06-1.75,3.67,0,.96.25,1.76.76,2.4.5.64,1.37,1.23,2.6,1.75,1.23.52,2.94,1.07,5.14,1.64,2.54.68,4.6,1.42,6.19,2.2,1.59.78,2.75,1.78,3.5,3,.75,1.22,1.12,2.82,1.12,4.81,0,2.12-.53,3.87-1.59,5.26-1.06,1.39-2.5,2.44-4.32,3.14-1.82.7-3.88,1.05-6.18,1.05Z"
       id="path295" />
    <path
       d="M303.42,229.32l-9.62-32.86h4.61l7.42,27.42,7.84-27.42h4.91l7.86,27.42,7.47-27.42h4.39l-9.59,32.86h-4.59l-8.08-27.78-7.96,27.78h-4.66Z"
       id="path297" />
    <path
       d="M350.79,229.71c-2.33,0-4.32-.49-5.98-1.48-1.66-.98-2.93-2.39-3.8-4.22-.87-1.83-1.31-4.01-1.31-6.53s.44-4.81,1.31-6.65c.87-1.85,2.14-3.27,3.8-4.26,1.66-.99,3.65-1.49,5.98-1.49s4.41.5,6.09,1.49c1.68.99,2.98,2.41,3.88,4.26.9,1.85,1.36,4.06,1.36,6.65s-.45,4.7-1.36,6.53c-.9,1.83-2.2,3.24-3.88,4.22-1.69.98-3.72,1.48-6.09,1.48ZM350.79,226.47c1.76,0,3.16-.39,4.2-1.16,1.04-.77,1.79-1.84,2.25-3.2.46-1.36.68-2.9.68-4.63s-.23-3.33-.68-4.71c-.46-1.38-1.21-2.47-2.25-3.26-1.04-.79-2.44-1.18-4.2-1.18s-3.06.4-4.06,1.18c-1,.79-1.72,1.88-2.16,3.26-.44,1.38-.66,2.95-.66,4.71s.22,3.27.66,4.63c.44,1.36,1.16,2.43,2.16,3.2,1,.77,2.36,1.16,4.06,1.16Z"
       id="path299" />
    <path
       d="M368.63,229.32v-23.78h3.83l.15,4.05c.67-1.24,1.59-2.27,2.78-3.1,1.19-.83,2.73-1.25,4.64-1.25h.49v3.74h-.56c-1.19,0-2.23.15-3.12.46-.9.31-1.68.74-2.34,1.28-.67.55-1.26,1.18-1.78,1.89v16.7h-4.08Z"
       id="path301" />
    <path
       d="M385.36,229.32v-32.86h4.08v20.29l10.74-11.21h4.81l-10.74,11.13,11.72,12.65h-5.08l-11.45-12.35v12.35h-4.08Z"
       id="path303" />
    <path
       d="M417.44,229.76c-1.33,0-2.6-.15-3.8-.44-1.2-.29-2.25-.76-3.16-1.39-.91-.63-1.62-1.47-2.14-2.5-.51-1.03-.77-2.28-.77-3.75h3.93c0,1.86.57,3.16,1.72,3.92,1.15.76,2.58,1.14,4.31,1.14,1.55,0,2.82-.3,3.82-.89,1-.59,1.5-1.57,1.5-2.94,0-1.17-.45-2.04-1.36-2.61-.9-.57-2.49-1.12-4.77-1.66-1.86-.44-3.42-.95-4.69-1.53-1.27-.58-2.22-1.31-2.86-2.2-.63-.89-.95-2.01-.95-3.36,0-1.06.22-1.99.67-2.8.45-.81,1.07-1.48,1.88-2.01.8-.54,1.75-.94,2.84-1.21,1.09-.27,2.27-.4,3.54-.4s2.43.15,3.53.44c1.1.29,2.07.75,2.9,1.37.84.62,1.5,1.42,1.99,2.39s.73,2.15.73,3.52h-3.96c0-1.69-.5-2.89-1.51-3.59-1.01-.7-2.24-1.05-3.69-1.05s-2.65.26-3.56.78c-.91.52-1.37,1.33-1.37,2.44,0,.63.2,1.17.61,1.61.41.44,1.09.83,2.05,1.18.96.35,2.25.72,3.88,1.11,1.77.42,3.26.93,4.47,1.51,1.2.59,2.11,1.34,2.72,2.26.61.92.92,2.1.92,3.53,0,1.24-.24,2.31-.72,3.21-.48.9-1.15,1.64-2,2.22-.86.58-1.86,1.01-3,1.28-1.15.28-2.39.42-3.72.42Z"
       id="path305" />
    <path
       d="M440.95,229.32c-1.92,0-3.39-.31-4.42-.92s-1.73-1.49-2.11-2.64c-.38-1.15-.57-2.53-.57-4.14v-12.79h-3.98v-3.3h3.98v-5.44h4.05v5.44h5.86v3.3h-5.86v12.6c0,1.48.19,2.62.57,3.41.38.79,1.3,1.18,2.75,1.18h2.59v3.3h-2.86Z"
       id="path307" />
    <path
       d="M449.18,229.32v-23.78h3.83l.15,4.05c.67-1.24,1.59-2.27,2.78-3.1,1.19-.83,2.73-1.25,4.64-1.25h.49v3.74h-.56c-1.19,0-2.23.15-3.12.46-.9.31-1.68.74-2.34,1.28-.67.55-1.26,1.18-1.78,1.89v16.7h-4.08Z"
       id="path309" />
    <path
       d="M475.1,229.76c-2.59,0-4.71-.54-6.36-1.62-1.65-1.08-2.88-2.56-3.67-4.42-.8-1.86-1.2-3.96-1.2-6.29s.39-4.56,1.16-6.41c.77-1.85,1.95-3.29,3.54-4.33,1.59-1.04,3.6-1.56,6.04-1.56,3.24,0,5.78.98,7.62,2.93,1.84,1.95,2.76,4.76,2.76,8.42,0,.24,0,.53-.02.87-.02.33-.04.57-.07.72h-16.94c.02,1.55.26,2.97.75,4.26.48,1.29,1.24,2.33,2.28,3.11,1.04.78,2.42,1.17,4.13,1.17,1.82,0,3.25-.43,4.27-1.28s1.56-2.09,1.61-3.7h4.03c-.05,1.68-.48,3.12-1.29,4.33-.81,1.21-1.95,2.15-3.42,2.81s-3.2.99-5.2.99ZM467.97,215.09h12.99c-.05-2.21-.63-3.91-1.73-5.08-1.11-1.17-2.65-1.76-4.61-1.76s-3.54.58-4.68,1.75c-1.13,1.16-1.79,2.86-1.96,5.09Z"
       id="path311" />
    <path
       d="M497.69,229.76c-1.37,0-2.62-.26-3.75-.78-1.13-.52-2.03-1.29-2.71-2.31-.68-1.02-1.01-2.27-1.01-3.77,0-2.13.67-3.75,2-4.86,1.33-1.11,3.22-1.86,5.66-2.26,2.44-.4,5.3-.61,8.57-.65v-1.66c0-2.03-.5-3.43-1.51-4.19-1.01-.76-2.29-1.14-3.83-1.14-1.64,0-3.03.42-4.15,1.25s-1.68,2.14-1.68,3.93h-3.96c0-1.95.42-3.53,1.26-4.74.84-1.2,1.99-2.08,3.47-2.64,1.47-.55,3.16-.83,5.07-.83,1.22,0,2.39.11,3.5.34,1.11.23,2.12.64,3,1.25.89.6,1.59,1.44,2.11,2.53.52,1.08.78,2.48.78,4.19v15.89h-3.81l-.17-3.61c-1.09,1.22-2.36,2.2-3.8,2.94-1.44.74-3.12,1.11-5.04,1.11ZM498.76,226.64c1.63,0,3.09-.38,4.39-1.15,1.3-.76,2.39-1.73,3.27-2.91v-4.83c-4.33.05-7.43.46-9.31,1.22-1.88.77-2.82,2.02-2.82,3.76,0,1.19.38,2.14,1.14,2.84.76.71,1.87,1.06,3.33,1.06Z"
       id="path313" />
    <path
       d="M518.12,229.32v-23.78h3.91l.15,3.66c.7-.96,1.72-1.87,3.08-2.72,1.35-.85,3.04-1.28,5.05-1.28,2.64,0,4.53.77,5.69,2.32,1.16,1.55,1.73,3.7,1.73,6.47v15.33h-4.1v-14.75c0-1.16-.12-2.18-.35-3.08-.24-.9-.67-1.6-1.31-2.11s-1.55-.77-2.73-.77c-1.68,0-3.09.4-4.25,1.21-1.16.81-2.08,1.69-2.78,2.65v16.85h-4.08ZM549.08,229.32v-14.75c0-1.16-.12-2.18-.35-3.08-.24-.9-.67-1.6-1.31-2.11s-1.54-.77-2.71-.77c-1.69,0-3.12.4-4.27,1.18-1.16.79-2.11,1.66-2.86,2.62l-.61-2.98c.94-1.04,2.14-2.01,3.58-2.91,1.44-.9,3.17-1.34,5.19-1.34,2.64,0,4.53.77,5.69,2.32,1.16,1.55,1.73,3.7,1.73,6.47v15.33h-4.08Z"
       id="path315" />
    <path
       d="M569.27,229.32v-3.22l11.3-10.33c1.95-1.77,3.37-3.39,4.25-4.83.88-1.45,1.32-2.97,1.32-4.57s-.44-3.02-1.33-4.09c-.89-1.07-2.34-1.6-4.36-1.6-2.28,0-3.91.59-4.9,1.77-.98,1.18-1.48,2.67-1.48,4.46h-4.08c0-1.99.39-3.72,1.16-5.2.77-1.48,1.94-2.63,3.49-3.44,1.55-.81,3.49-1.22,5.8-1.22,2.12,0,3.91.38,5.4,1.14,1.48.76,2.61,1.82,3.38,3.19.77,1.37,1.16,2.98,1.16,4.83,0,1.66-.32,3.17-.96,4.54-.64,1.37-1.51,2.65-2.6,3.86-1.09,1.2-2.29,2.4-3.61,3.59l-8.37,7.52h16.48v3.61h-22.05Z"
       id="path317" />
    <path
       d="M77.47,281.32v-32.86h7.89l10.3,17.53h-2.73l10.16-17.53h7.59v32.86h-6.76v-29.2h3l-10.74,18.7h-4.22l-11.01-18.7h3.1v29.2h-6.57Z"
       id="path319" />
    <path
       d="M125.4,281.64c-2.41,0-4.27-.75-5.59-2.23-1.32-1.49-1.98-3.61-1.98-6.36v-15.55h6.47v14.77c0,.81.12,1.53.35,2.16.24.63.63,1.11,1.17,1.45.55.34,1.27.51,2.16.51,1.3,0,2.41-.29,3.33-.87.92-.58,1.72-1.28,2.4-2.11v-15.92h6.47v23.83h-6.25l-.1-3.59c-.8,1.01-1.89,1.91-3.27,2.71-1.38.8-3.11,1.2-5.18,1.2Z"
       id="path321" />
    <path
       d="M156.06,281.32c-2.43,0-4.3-.29-5.62-.87-1.32-.58-2.24-1.47-2.76-2.69-.52-1.21-.78-2.79-.78-4.75v-24.56h6.45v24.17c0,1.25.17,2.17.51,2.76s1.14.88,2.39.88h1.49v5.05h-1.68Z"
       id="path323" />
    <path
       d="M171.86,281.32c-2.41,0-4.28-.29-5.6-.87-1.33-.58-2.25-1.47-2.77-2.69-.52-1.21-.78-2.79-.78-4.75v-10.55h-3.96v-4.98h3.96v-5.62h6.47v5.62h5.2v4.98h-5.2v10.16c0,1.25.17,2.18.52,2.78.35.6,1.14.9,2.38.9h2.29v5h-2.51Z"
       id="path325" />
    <path
       d="M182.7,254.37c-1.19,0-2.1-.3-2.72-.9-.63-.6-.94-1.35-.94-2.25s.31-1.66.94-2.26c.63-.59,1.53-.89,2.72-.89s2.1.3,2.72.89c.63.59.94,1.35.94,2.26s-.31,1.64-.94,2.25c-.63.6-1.53.9-2.72.9ZM179.45,281.32v-23.83h6.47v23.83h-6.47Z"
       id="path327" />
    <path
       d="M217.97,281.76c-3.32,0-6.18-.7-8.57-2.09-2.39-1.39-4.23-3.34-5.52-5.86-1.29-2.51-1.93-5.48-1.93-8.9s.64-6.39,1.93-8.92c1.29-2.53,3.12-4.49,5.52-5.88,2.39-1.39,5.25-2.09,8.57-2.09,2.57,0,4.94.44,7.1,1.33,2.16.89,3.92,2.2,5.27,3.93,1.35,1.73,2.09,3.87,2.22,6.41h-7.03c-.18-1.33-.61-2.44-1.31-3.32-.69-.88-1.58-1.54-2.65-1.98s-2.28-.66-3.61-.66c-2.15,0-3.88.52-5.19,1.56-1.31,1.04-2.26,2.4-2.86,4.09-.59,1.68-.89,3.53-.89,5.53s.3,3.83.89,5.52c.59,1.69,1.55,3.05,2.86,4.08,1.31,1.03,3.04,1.54,5.19,1.54,2.26,0,4.05-.58,5.36-1.75,1.31-1.16,2.06-2.82,2.26-4.97h7.03c-.2,2.69-.9,4.95-2.12,6.8-1.22,1.85-2.89,3.25-5,4.2-2.12.95-4.62,1.43-7.52,1.43Z"
       id="path329" />
    <path
       d="M247.27,281.32c-2.43,0-4.3-.29-5.62-.87-1.32-.58-2.24-1.47-2.76-2.69-.52-1.21-.78-2.79-.78-4.75v-24.56h6.45v24.17c0,1.25.17,2.17.51,2.76s1.14.88,2.39.88h1.49v5.05h-1.68Z"
       id="path331" />
    <path
       d="M260.48,281.64c-2.41,0-4.27-.75-5.59-2.23-1.32-1.49-1.98-3.61-1.98-6.36v-15.55h6.47v14.77c0,.81.12,1.53.35,2.16.24.63.63,1.11,1.17,1.45.55.34,1.27.51,2.16.51,1.3,0,2.41-.29,3.33-.87.92-.58,1.72-1.28,2.4-2.11v-15.92h6.47v23.83h-6.25l-.1-3.59c-.8,1.01-1.89,1.91-3.27,2.71-1.38.8-3.11,1.2-5.18,1.2Z"
       id="path333" />
    <path
       d="M291.78,281.76c-1.32,0-2.61-.12-3.88-.37s-2.42-.66-3.44-1.26c-1.03-.59-1.84-1.4-2.44-2.43-.6-1.03-.9-2.3-.9-3.83h6.01c0,1.33.47,2.26,1.4,2.78.94.52,2.03.78,3.28.78s2.2-.2,2.88-.6c.68-.4,1.03-1.07,1.03-2.01,0-.89-.4-1.56-1.21-2-.81-.44-2.22-.89-4.24-1.34-1.69-.41-3.2-.9-4.53-1.48-1.33-.58-2.36-1.35-3.11-2.32-.75-.97-1.12-2.24-1.12-3.82,0-1.24.28-2.29.85-3.15.57-.86,1.33-1.56,2.28-2.09.95-.53,2.03-.92,3.22-1.16,1.2-.24,2.42-.37,3.67-.37s2.42.12,3.59.37,2.23.66,3.17,1.23c.94.58,1.7,1.35,2.27,2.33.57.98.85,2.2.85,3.66h-6.01c0-1.22-.39-2.07-1.16-2.54-.77-.47-1.68-.71-2.72-.71-1.12,0-2.01.16-2.65.49-.64.33-.96.86-.96,1.61,0,.44.2.83.61,1.16.41.33,1.06.64,1.95.93.89.28,2.08.59,3.54.92,1.55.36,2.93.82,4.15,1.39,1.22.57,2.19,1.33,2.91,2.29.72.96,1.07,2.21,1.07,3.74,0,1.43-.29,2.65-.87,3.64-.58.99-1.35,1.79-2.32,2.4-.97.61-2.07,1.05-3.32,1.33-1.24.28-2.54.42-3.87.42Z"
       id="path335" />
    <path
       d="M317.75,281.32c-2.41,0-4.28-.29-5.6-.87-1.33-.58-2.25-1.47-2.77-2.69-.52-1.21-.78-2.79-.78-4.75v-10.55h-3.96v-4.98h3.96v-5.62h6.47v5.62h5.2v4.98h-5.2v10.16c0,1.25.17,2.18.52,2.78.35.6,1.14.9,2.38.9h2.29v5h-2.51Z"
       id="path337" />
    <path
       d="M336.07,281.76c-2.65,0-4.88-.49-6.69-1.48-1.81-.99-3.17-2.41-4.1-4.26s-1.39-4.08-1.39-6.69.45-4.7,1.36-6.52c.9-1.82,2.23-3.23,3.98-4.21,1.75-.99,3.9-1.48,6.46-1.48,3.55,0,6.35,1.04,8.41,3.11,2.06,2.08,3.09,5.03,3.09,8.88,0,.2,0,.46-.02.79-.02.33-.04.59-.07.77h-16.72c.03,1.12.24,2.17.62,3.15.38.98.99,1.76,1.82,2.36.83.59,1.92.89,3.27.89s2.52-.3,3.37-.92c.85-.61,1.28-1.52,1.29-2.72h6.37c-.08,1.86-.59,3.4-1.53,4.64-.94,1.24-2.21,2.16-3.83,2.77-1.62.61-3.51.92-5.68.92ZM330.43,266.58h10.33c-.05-1.66-.54-2.9-1.48-3.72-.94-.82-2.14-1.23-3.6-1.23s-2.72.42-3.67,1.27c-.95.85-1.48,2.08-1.57,3.69Z"
       id="path339" />
    <path
       d="M352.91,281.32v-23.83h6.2l.12,4.13c.62-1.43,1.55-2.53,2.78-3.3,1.24-.76,2.73-1.15,4.49-1.15h.49v5.44h-.61c-.96,0-1.88.09-2.76.26-.88.17-1.68.46-2.39.88-.72.42-1.33.99-1.86,1.72v15.84h-6.47Z"
       id="path341" />
    <path
       d="M381.99,281.32v-32.86h6.86v15.67l11.79-15.67h7.59l-12.16,15.41,12.96,17.46h-7.93l-12.26-16.82v16.82h-6.86Z"
       id="path343" />
    <path
       d="M418.71,281.64c-2.41,0-4.27-.75-5.59-2.23-1.32-1.49-1.98-3.61-1.98-6.36v-15.55h6.47v14.77c0,.81.12,1.53.35,2.16.24.63.63,1.11,1.17,1.45.55.34,1.27.51,2.16.51,1.3,0,2.41-.29,3.33-.87.92-.58,1.72-1.28,2.4-2.11v-15.92h6.47v23.83h-6.25l-.1-3.59c-.8,1.01-1.89,1.91-3.27,2.71-1.38.8-3.11,1.2-5.18,1.2Z"
       id="path345" />
    <path
       d="M454.01,281.76c-1.74,0-3.17-.33-4.3-1s-2.08-1.59-2.88-2.76l-.27,3.32h-6.13v-32.86h6.47v12.45c.85-1.16,1.88-2.08,3.1-2.77,1.22-.69,2.73-1.04,4.52-1.04s3.45.44,4.88,1.33c1.43.89,2.56,2.24,3.39,4.05.83,1.82,1.25,4.13,1.25,6.95s-.44,5.11-1.33,6.93c-.89,1.82-2.09,3.18-3.6,4.07-1.51.89-3.21,1.33-5.1,1.33ZM452.4,276.8c1.58,0,2.81-.62,3.7-1.86.89-1.24,1.33-3.04,1.33-5.4,0-2.55-.42-4.46-1.26-5.7-.84-1.24-2.01-1.87-3.5-1.87-1.33,0-2.5.4-3.5,1.2-1,.8-1.75,1.73-2.26,2.81v6.98c.47,1.03,1.18,1.92,2.11,2.69.94.77,2.06,1.15,3.38,1.15Z"
       id="path347" />
    <path
       d="M480.72,281.76c-2.65,0-4.88-.49-6.69-1.48-1.81-.99-3.17-2.41-4.1-4.26s-1.39-4.08-1.39-6.69.45-4.7,1.36-6.52c.9-1.82,2.23-3.23,3.98-4.21,1.75-.99,3.9-1.48,6.46-1.48,3.55,0,6.35,1.04,8.41,3.11,2.06,2.08,3.09,5.03,3.09,8.88,0,.2,0,.46-.02.79-.02.33-.04.59-.07.77h-16.72c.03,1.12.24,2.17.62,3.15.38.98.99,1.76,1.82,2.36.83.59,1.92.89,3.27.89s2.52-.3,3.37-.92c.85-.61,1.28-1.52,1.29-2.72h6.37c-.08,1.86-.59,3.4-1.53,4.64-.94,1.24-2.21,2.16-3.83,2.77-1.62.61-3.51.92-5.68.92ZM475.08,266.58h10.33c-.05-1.66-.54-2.9-1.48-3.72-.94-.82-2.14-1.23-3.6-1.23s-2.72.42-3.67,1.27c-.95.85-1.48,2.08-1.57,3.69Z"
       id="path349" />
    <path
       d="M497.56,281.32v-23.83h6.2l.12,4.13c.62-1.43,1.55-2.53,2.78-3.3,1.24-.76,2.73-1.15,4.49-1.15h.49v5.44h-.61c-.96,0-1.88.09-2.76.26-.88.17-1.68.46-2.39.88-.72.42-1.33.99-1.86,1.72v15.84h-6.47Z"
       id="path351" />
    <path
       d="M516.02,281.32v-23.83h6.23l.12,3.56c.8-1.03,1.85-1.93,3.15-2.72,1.3-.79,2.99-1.18,5.08-1.18,2.42,0,4.3.74,5.64,2.21,1.33,1.47,2,3.63,2,6.46v15.5h-6.42v-14.67c0-.86-.12-1.62-.37-2.27-.24-.65-.63-1.16-1.16-1.51-.53-.36-1.22-.54-2.09-.54-1.29,0-2.39.3-3.31.9-.92.6-1.72,1.33-2.41,2.2v15.89h-6.47Z"
       id="path353" />
    <path
       d="M555.94,281.76c-2.65,0-4.88-.49-6.69-1.48-1.81-.99-3.17-2.41-4.1-4.26s-1.39-4.08-1.39-6.69.45-4.7,1.36-6.52c.9-1.82,2.23-3.23,3.98-4.21,1.75-.99,3.9-1.48,6.46-1.48,3.55,0,6.35,1.04,8.41,3.11,2.06,2.08,3.09,5.03,3.09,8.88,0,.2,0,.46-.02.79-.02.33-.04.59-.07.77h-16.72c.03,1.12.24,2.17.62,3.15.38.98.99,1.76,1.82,2.36.83.59,1.92.89,3.27.89s2.52-.3,3.37-.92c.85-.61,1.28-1.52,1.29-2.72h6.37c-.08,1.86-.59,3.4-1.53,4.64-.94,1.24-2.21,2.16-3.83,2.77-1.62.61-3.51.92-5.68.92ZM550.3,266.58h10.33c-.05-1.66-.54-2.9-1.48-3.72-.94-.82-2.14-1.23-3.6-1.23s-2.72.42-3.67,1.27c-.95.85-1.48,2.08-1.57,3.69Z"
       id="path355" />
    <path
       d="M582.96,281.32c-2.41,0-4.28-.29-5.6-.87-1.33-.58-2.25-1.47-2.77-2.69-.52-1.21-.78-2.79-.78-4.75v-10.55h-3.96v-4.98h3.96v-5.62h6.47v5.62h5.2v4.98h-5.2v10.16c0,1.25.17,2.18.52,2.78.35.6,1.14.9,2.38.9h2.29v5h-2.51Z"
       id="path357" />
    <path
       d="M601.28,281.76c-2.65,0-4.88-.49-6.69-1.48-1.81-.99-3.17-2.41-4.1-4.26s-1.39-4.08-1.39-6.69.45-4.7,1.36-6.52c.9-1.82,2.23-3.23,3.98-4.21,1.75-.99,3.9-1.48,6.46-1.48,3.55,0,6.35,1.04,8.41,3.11,2.06,2.08,3.09,5.03,3.09,8.88,0,.2,0,.46-.02.79-.02.33-.04.59-.07.77h-16.72c.03,1.12.24,2.17.62,3.15.38.98.99,1.76,1.82,2.36.83.59,1.92.89,3.27.89s2.52-.3,3.37-.92c.85-.61,1.28-1.52,1.29-2.72h6.37c-.08,1.86-.59,3.4-1.53,4.64-.94,1.24-2.21,2.16-3.83,2.77-1.62.61-3.51.92-5.68.92ZM595.64,266.58h10.33c-.05-1.66-.54-2.9-1.48-3.72-.94-.82-2.14-1.23-3.6-1.23s-2.72.42-3.67,1.27c-.95.85-1.48,2.08-1.57,3.69Z"
       id="path359" />
    <path
       d="M627.45,281.76c-1.32,0-2.61-.12-3.88-.37s-2.42-.66-3.44-1.26c-1.03-.59-1.84-1.4-2.44-2.43-.6-1.03-.9-2.3-.9-3.83h6.01c0,1.33.47,2.26,1.4,2.78.94.52,2.03.78,3.28.78s2.2-.2,2.88-.6c.68-.4,1.03-1.07,1.03-2.01,0-.89-.4-1.56-1.21-2-.81-.44-2.22-.89-4.24-1.34-1.69-.41-3.2-.9-4.53-1.48-1.33-.58-2.36-1.35-3.11-2.32-.75-.97-1.12-2.24-1.12-3.82,0-1.24.28-2.29.85-3.15.57-.86,1.33-1.56,2.28-2.09.95-.53,2.03-.92,3.22-1.16,1.2-.24,2.42-.37,3.67-.37s2.42.12,3.59.37,2.23.66,3.17,1.23c.94.58,1.7,1.35,2.27,2.33.57.98.85,2.2.85,3.66h-6.01c0-1.22-.39-2.07-1.16-2.54-.77-.47-1.68-.71-2.72-.71-1.12,0-2.01.16-2.65.49-.64.33-.96.86-.96,1.61,0,.44.2.83.61,1.16.41.33,1.06.64,1.95.93.89.28,2.08.59,3.54.92,1.55.36,2.93.82,4.15,1.39,1.22.57,2.19,1.33,2.91,2.29.72.96,1.07,2.21,1.07,3.74,0,1.43-.29,2.65-.87,3.64-.58.99-1.35,1.79-2.32,2.4-.97.61-2.07,1.05-3.32,1.33-1.24.28-2.54.42-3.87.42Z"
       id="path361" />
    <path
       d="M659.84,290.04c-1.32-2.28-2.45-4.49-3.38-6.63-.94-2.14-1.65-4.35-2.15-6.63-.5-2.28-.74-4.74-.74-7.4s.24-5.1.73-7.48c.49-2.38,1.2-4.71,2.14-6.97.94-2.26,2.07-4.48,3.41-6.67h3.34c-1.92,3.29-3.34,6.79-4.27,10.51-.93,3.72-1.39,7.52-1.39,11.39,0,3.45.53,6.9,1.57,10.35,1.05,3.45,2.41,6.62,4.09,9.52h-3.34Z"
       id="path363" />
    <path
       d="M669.29,281.32v-32.86h4.81l11.69,19.36h-1.78l11.47-19.36h4.69v32.86h-4.32v-29.2h1.51l-11.16,18.87h-2.88l-11.33-18.87h1.51v29.2h-4.22Z"
       id="path365" />
    <path
       d="M722.81,281.76c-3.4,0-6.27-.72-8.59-2.15-2.33-1.43-4.09-3.41-5.29-5.93-1.2-2.52-1.79-5.44-1.79-8.76s.6-6.25,1.79-8.79c1.2-2.54,2.96-4.52,5.29-5.96,2.33-1.43,5.19-2.15,8.59-2.15,2.25,0,4.37.39,6.36,1.17,1.99.78,3.65,1.97,4.98,3.58,1.33,1.6,2.1,3.63,2.33,6.07h-4.42c-.2-1.64-.75-3-1.65-4.07-.9-1.07-2.02-1.86-3.35-2.38-1.33-.52-2.75-.78-4.26-.78-2.64,0-4.77.6-6.41,1.81-1.64,1.21-2.83,2.81-3.58,4.81-.75,2-1.12,4.23-1.12,6.69s.37,4.66,1.12,6.67c.75,2,1.94,3.59,3.58,4.77,1.63,1.18,3.77,1.77,6.41,1.77s4.83-.66,6.49-1.98,2.62-3.29,2.88-5.91h4.44c-.26,2.59-1.02,4.73-2.27,6.43-1.25,1.7-2.87,2.97-4.86,3.82-1.99.85-4.22,1.27-6.69,1.27Z"
       id="path367" />
    <path
       d="M743.41,281.32v-32.86h4.39v15.8l13.5-15.8h5.03l-13.65,15.5,14.79,17.36h-5.4l-14.28-16.87v16.87h-4.39Z"
       id="path369" />
    <path
       d="M769.34,290.04c1.94-3.3,3.37-6.82,4.3-10.53.93-3.72,1.39-7.52,1.39-11.41,0-3.45-.53-6.89-1.59-10.33-1.06-3.43-2.43-6.6-4.1-9.5h3.32c1.33,2.25,2.47,4.44,3.42,6.58.94,2.14,1.66,4.35,2.16,6.63.5,2.28.75,4.75.75,7.4s-.25,5.1-.75,7.5c-.5,2.39-1.21,4.72-2.15,6.98-.94,2.26-2.08,4.49-3.43,6.69h-3.32Z"
       id="path371" />
  </g>
  <line
     x1="67.54"
     y1="172.8"
     x2="1131.59"
     y2="172.8"
     fill="none"
     stroke="url(#c)"
     stroke-miterlimit="10"
     stroke-width="3"
     id="line375" />
  <g
     clip-path="url(#d)"
     id="g457">
    <g
       id="g455">
      <path
         d="M137.56,414.18v-25.33h-8.15v-4.24h21.34v4.24h-8.11v25.33h-5.08Z"
         id="path377" />
      <path
         d="M159.2,414.49c-2.33,0-4.06-.68-5.21-2.04s-1.71-3.27-1.71-5.71v-13.97h4.75v13.38c0,.85.11,1.6.33,2.26s.61,1.17,1.16,1.55c.56.37,1.33.56,2.31.56,1.38,0,2.54-.3,3.5-.89.96-.59,1.76-1.3,2.41-2.12v-14.74h4.75v21.42h-4.59l-.09-3.27c-.7.89-1.68,1.71-2.92,2.46s-2.81,1.12-4.68,1.12Z"
         id="path379" />
      <path
         d="M187.09,414.57c-2.34,0-4.3-.46-5.86-1.4-1.56-.93-2.73-2.23-3.5-3.91-.78-1.68-1.16-3.62-1.16-5.83s.38-4.16,1.13-5.81c.75-1.65,1.88-2.93,3.38-3.84,1.5-.92,3.38-1.37,5.64-1.37,3.05,0,5.45.91,7.21,2.72s2.64,4.41,2.64,7.78c0,.21-.01.46-.03.76-.02.3-.05.52-.08.65h-15.14c.01,1.22.22,2.33.6,3.35.39,1.02,1.01,1.83,1.86,2.45s1.96.92,3.32.92c1.46,0,2.61-.33,3.45-.98.83-.65,1.27-1.61,1.32-2.89h4.68c-.07,1.58-.5,2.93-1.29,4.03-.78,1.11-1.87,1.95-3.25,2.52-1.38.57-3.02.86-4.91.86ZM181.36,401.13h10.48c-.04-1.73-.52-3.04-1.44-3.94-.92-.9-2.14-1.35-3.68-1.35s-2.84.45-3.77,1.36c-.93.91-1.46,2.22-1.59,3.93Z"
         id="path381" />
      <path
         d="M209.56,414.57c-1.2,0-2.35-.12-3.46-.36-1.11-.24-2.09-.64-2.97-1.2-.87-.56-1.56-1.3-2.07-2.22-.51-.92-.76-2.06-.76-3.41h4.48c0,1.44.47,2.44,1.41,3.01s2.07.86,3.41.86c1.26,0,2.27-.22,3.03-.67.76-.45,1.14-1.19,1.14-2.23,0-.92-.39-1.61-1.16-2.07s-2.13-.9-4.06-1.34c-1.6-.4-2.98-.85-4.14-1.36-1.17-.51-2.06-1.19-2.68-2.03-.62-.84-.93-1.92-.93-3.24,0-1.03.23-1.91.69-2.66.46-.75,1.09-1.36,1.88-1.85s1.7-.84,2.72-1.08,2.11-.35,3.25-.35,2.16.12,3.19.36c1.03.24,1.94.63,2.75,1.18s1.44,1.25,1.91,2.13.7,1.96.7,3.23h-4.46c0-1.3-.4-2.22-1.21-2.76-.81-.53-1.77-.8-2.88-.8-1.17,0-2.11.19-2.8.57s-1.04,1-1.04,1.85c0,.48.18.9.55,1.24.37.34.96.66,1.79.95.83.29,1.94.59,3.33.91,1.49.35,2.79.79,3.89,1.31,1.1.52,1.94,1.2,2.54,2.04.59.84.89,1.94.89,3.29,0,1.2-.24,2.23-.71,3.08-.48.85-1.12,1.54-1.94,2.08-.82.54-1.77.93-2.85,1.18-1.08.25-2.22.37-3.42.37Z"
         id="path383" />
      <path
         d="M230.62,414.55c-1.67,0-3.15-.41-4.43-1.23s-2.28-2.06-3-3.72c-.72-1.66-1.08-3.74-1.08-6.23s.38-4.5,1.15-6.12c.77-1.62,1.83-2.83,3.19-3.65,1.35-.81,2.92-1.22,4.69-1.22,1.49,0,2.79.32,3.89.97s1.98,1.5,2.64,2.57v-11.32h4.75v29.58h-4.5l-.24-3.08c-.76,1.04-1.72,1.88-2.88,2.5s-2.55.95-4.17.95ZM231.85,410.84c1.41,0,2.59-.35,3.56-1.07.97-.71,1.72-1.56,2.26-2.54v-7.27c-.51-1.07-1.22-1.98-2.12-2.74-.9-.75-2.02-1.13-3.35-1.13-1.7,0-3,.63-3.89,1.88-.89,1.25-1.34,3.04-1.34,5.37,0,2.49.42,4.36,1.26,5.61.84,1.25,2.05,1.88,3.61,1.88Z"
         id="path385" />
      <path
         d="M254.35,414.55c-1.23,0-2.36-.23-3.39-.69-1.03-.46-1.86-1.16-2.49-2.09-.63-.93-.94-2.09-.94-3.48,0-1.95.6-3.42,1.79-4.42s2.87-1.68,5.03-2.04c2.16-.37,4.69-.57,7.59-.62v-1.32c0-1.6-.4-2.7-1.19-3.3s-1.79-.9-3.01-.9c-1.32,0-2.42.32-3.3.97s-1.32,1.68-1.32,3.1h-4.5c0-1.79.38-3.22,1.15-4.3.77-1.08,1.84-1.86,3.21-2.34,1.37-.48,2.96-.72,4.76-.72,1.22,0,2.36.11,3.43.33s2.01.6,2.82,1.15c.81.55,1.45,1.3,1.91,2.26.46.96.69,2.19.69,3.68v14.35h-4.44l-.18-3.01c-.94,1.05-2.03,1.88-3.28,2.48-1.25.6-2.7.9-4.34.9ZM255.77,411.17c1.29,0,2.46-.32,3.52-.95s1.92-1.4,2.59-2.31v-3.89c-3.49.01-5.96.34-7.43.97s-2.2,1.65-2.2,3.05c0,1,.31,1.76.93,2.31.62.54,1.48.81,2.58.81Z"
         id="path387" />
      <path
         d="M271.58,422.04v-3.89h1.89c.85,0,1.56-.19,2.13-.56.57-.37,1.03-.99,1.38-1.86l.64-1.56-8.44-21.42h4.97l6.02,16.68,5.47-16.68h4.81l-7.87,21.42-.9,2.35c-.53,1.41-1.11,2.51-1.76,3.31-.64.8-1.44,1.37-2.38,1.7-.94.34-2.13.5-3.55.5h-2.42Z"
         id="path389" />
      <path
         d="M290.52,420.64l-.86-2.48c.95-.34,1.75-.84,2.38-1.51.64-.67,1.03-1.49,1.18-2.47l.29.26c-.97,0-1.76-.31-2.37-.92s-.92-1.37-.92-2.26c0-.94.31-1.7.92-2.29s1.41-.88,2.37-.88,1.75.34,2.35,1.01.9,1.68.9,3.03c0,1.61-.29,2.98-.88,4.12-.59,1.14-1.35,2.06-2.3,2.77-.94.71-1.97,1.25-3.06,1.62Z"
         id="path391" />
      <path
         d="M312.12,414.18v-29.58h18.87v4.22h-13.82v8.17h12.44v4.07h-12.44v13.12h-5.05Z"
         id="path393" />
      <path
         d="M344.1,414.57c-2.34,0-4.3-.46-5.86-1.4-1.56-.93-2.73-2.23-3.5-3.91-.78-1.68-1.16-3.62-1.16-5.83s.38-4.16,1.13-5.81c.75-1.65,1.88-2.93,3.38-3.84,1.5-.92,3.38-1.37,5.64-1.37,3.05,0,5.45.91,7.21,2.72s2.64,4.41,2.64,7.78c0,.21-.01.46-.03.76-.02.3-.05.52-.08.65h-15.14c.01,1.22.22,2.33.6,3.35.39,1.02,1.01,1.83,1.86,2.45s1.96.92,3.32.92c1.46,0,2.61-.33,3.45-.98.83-.65,1.27-1.61,1.32-2.89h4.68c-.07,1.58-.5,2.93-1.29,4.03-.78,1.11-1.87,1.95-3.25,2.52-1.38.57-3.02.86-4.91.86ZM338.37,401.13h10.48c-.04-1.73-.52-3.04-1.44-3.94-.92-.9-2.14-1.35-3.68-1.35s-2.84.45-3.77,1.36c-.93.91-1.46,2.22-1.59,3.93Z"
         id="path395" />
      <path
         d="M370,414.57c-1.58,0-2.9-.3-3.97-.91-1.06-.61-1.94-1.44-2.65-2.49l-.22,3.01h-4.48v-29.58h4.77v11.4c.75-1.08,1.7-1.96,2.85-2.63,1.15-.67,2.54-1,4.16-1s3.19.41,4.47,1.23,2.28,2.05,3,3.68c.72,1.63,1.08,3.7,1.08,6.19s-.38,4.54-1.15,6.18c-.77,1.65-1.83,2.88-3.19,3.69-1.35.81-2.91,1.22-4.67,1.22ZM368.92,410.84c1.68,0,2.97-.63,3.87-1.89s1.34-3.06,1.34-5.41c0-2.46-.42-4.32-1.26-5.58s-2.05-1.89-3.61-1.89c-1.38,0-2.56.38-3.54,1.14s-1.74,1.68-2.26,2.75v7.27c.5,1,1.2,1.85,2.12,2.55s2.03,1.05,3.35,1.05Z"
         id="path397" />
      <path
         d="M384.09,414.18v-21.42h4.53l.11,3.67c.59-1.19,1.42-2.14,2.52-2.87,1.09-.73,2.46-1.09,4.12-1.09h.42v4.15h-.51c-.98,0-1.87.11-2.67.32-.8.21-1.5.54-2.12.97-.62.43-1.16.97-1.63,1.62v14.66h-4.77Z"
         id="path399" />
      <path
         d="M406.23,414.49c-2.33,0-4.06-.68-5.21-2.04s-1.71-3.27-1.71-5.71v-13.97h4.75v13.38c0,.85.11,1.6.33,2.26s.61,1.17,1.16,1.55c.56.37,1.33.56,2.31.56,1.38,0,2.54-.3,3.5-.89.96-.59,1.76-1.3,2.41-2.12v-14.74h4.75v21.42h-4.59l-.09-3.27c-.7.89-1.68,1.71-2.92,2.46s-2.81,1.12-4.68,1.12Z"
         id="path401" />
      <path
         d="M430.22,414.55c-1.23,0-2.36-.23-3.39-.69-1.03-.46-1.86-1.16-2.49-2.09-.63-.93-.94-2.09-.94-3.48,0-1.95.6-3.42,1.79-4.42s2.87-1.68,5.03-2.04c2.16-.37,4.69-.57,7.59-.62v-1.32c0-1.6-.4-2.7-1.19-3.3s-1.79-.9-3.01-.9c-1.32,0-2.42.32-3.3.97s-1.32,1.68-1.32,3.1h-4.5c0-1.79.38-3.22,1.15-4.3.77-1.08,1.84-1.86,3.21-2.34,1.37-.48,2.96-.72,4.76-.72,1.22,0,2.36.11,3.43.33s2.01.6,2.82,1.15c.81.55,1.45,1.3,1.91,2.26.46.96.69,2.19.69,3.68v14.35h-4.44l-.18-3.01c-.94,1.05-2.03,1.88-3.28,2.48-1.25.6-2.7.9-4.34.9ZM431.65,411.17c1.29,0,2.46-.32,3.52-.95s1.92-1.4,2.59-2.31v-3.89c-3.49.01-5.96.34-7.43.97s-2.2,1.65-2.2,3.05c0,1,.31,1.76.93,2.31.62.54,1.48.81,2.58.81Z"
         id="path403" />
      <path
         d="M448.49,414.18v-21.42h4.53l.11,3.67c.59-1.19,1.42-2.14,2.52-2.87,1.09-.73,2.46-1.09,4.12-1.09h.42v4.15h-.51c-.98,0-1.87.11-2.67.32-.8.21-1.5.54-2.12.97-.62.43-1.16.97-1.63,1.62v14.66h-4.77Z"
         id="path405" />
      <path
         d="M463.66,422.04v-3.89h1.89c.85,0,1.56-.19,2.13-.56.57-.37,1.03-.99,1.38-1.86l.64-1.56-8.44-21.42h4.97l6.02,16.68,5.47-16.68h4.81l-7.87,21.42-.9,2.35c-.53,1.41-1.11,2.51-1.76,3.31-.64.8-1.44,1.37-2.38,1.7-.94.34-2.13.5-3.55.5h-2.42Z"
         id="path407" />
      <path
         d="M502.32,414.18v-23.03c-.42.53-.99,1.04-1.7,1.55-.71.51-1.56.95-2.55,1.33-.99.38-2.12.67-3.4.86v-4.44c1.27-.25,2.43-.64,3.46-1.16,1.03-.53,1.94-1.13,2.74-1.81.79-.68,1.44-1.38,1.96-2.1h4.48v28.81h-4.99Z"
         id="path409" />
      <path
         d="M519.55,414.18l12.26-24.41h-15.38v-4.33h20.19v4l-11.93,24.74h-5.14Z"
         id="path411" />
      <path
         d="M549.6,414.18c-1.95,0-3.45-.27-4.5-.8-1.05-.53-1.78-1.33-2.19-2.4-.4-1.06-.6-2.39-.6-3.99v-10.5h-3.58v-3.74h3.58v-4.99h4.72v4.99h4.99v3.74h-4.99v10.22c0,1.23.16,2.16.49,2.79.33.63,1.1.94,2.32.94h2.18v3.74h-2.42Z"
         id="path413" />
      <path
         d="M556.32,414.18v-29.58h4.68v11.4c.7-.89,1.66-1.71,2.86-2.45,1.2-.74,2.74-1.11,4.61-1.11,2.3,0,4.01.67,5.14,2.01,1.13,1.34,1.69,3.29,1.69,5.83v13.89h-4.77v-13.25c0-.91-.11-1.71-.32-2.41-.21-.7-.58-1.24-1.09-1.63-.51-.39-1.23-.58-2.15-.58-1.38,0-2.55.32-3.5.96-.96.64-1.75,1.36-2.38,2.17v14.74h-4.77Z"
         id="path415" />
      <path
         d="M581.64,420.64l-.86-2.48c.95-.34,1.75-.84,2.38-1.51.64-.67,1.03-1.49,1.18-2.47l.29.26c-.97,0-1.76-.31-2.37-.92s-.92-1.37-.92-2.26c0-.94.31-1.7.92-2.29s1.41-.88,2.37-.88,1.75.34,2.35,1.01.9,1.68.9,3.03c0,1.61-.29,2.98-.88,4.12-.59,1.14-1.35,2.06-2.3,2.77-.94.71-1.97,1.25-3.06,1.62ZM584.63,399.11c-.97,0-1.76-.31-2.37-.92s-.92-1.37-.92-2.26c0-.94.31-1.7.92-2.29s1.41-.88,2.37-.88,1.75.29,2.35.88.9,1.35.9,2.29-.3,1.65-.9,2.26-1.38.92-2.35.92Z"
         id="path417" />
      <path
         d="M610.98,414.18v-23.03c-.42.53-.99,1.04-1.7,1.55-.71.51-1.56.95-2.55,1.33-.99.38-2.12.67-3.4.86v-4.44c1.27-.25,2.43-.64,3.46-1.16,1.03-.53,1.94-1.13,2.74-1.81.79-.68,1.44-1.38,1.96-2.1h4.48v28.81h-4.99Z"
         id="path419" />
      <path
         d="M635.18,414.57c-1.77,0-3.3-.35-4.57-1.04-1.27-.7-2.32-1.69-3.13-2.99-.81-1.3-1.41-2.85-1.8-4.66-.39-1.81-.58-3.82-.58-6.03s.19-4.25.58-6.06.99-3.38,1.8-4.68c.81-1.3,1.86-2.31,3.13-3.01s2.8-1.05,4.57-1.05,3.27.35,4.55,1.05,2.32,1.71,3.13,3.01c.81,1.3,1.42,2.86,1.81,4.67.4,1.81.59,3.83.59,6.05s-.2,4.24-.59,6.05c-.4,1.81-1,3.36-1.81,4.66-.81,1.3-1.86,2.29-3.13,2.99-1.27.7-2.79,1.04-4.55,1.04ZM635.18,410.44c1.01,0,1.85-.29,2.5-.88s1.17-1.38,1.53-2.37.62-2.13.77-3.39c.15-1.27.23-2.59.23-3.97s-.08-2.7-.23-3.98c-.15-1.27-.41-2.41-.77-3.42-.36-1-.87-1.79-1.53-2.37-.66-.58-1.49-.87-2.5-.87s-1.86.29-2.52.87c-.65.58-1.16,1.37-1.54,2.37-.37,1-.63,2.14-.78,3.42s-.22,2.6-.22,3.98.07,2.7.22,3.97c.15,1.27.41,2.4.78,3.39.37,1,.89,1.79,1.54,2.37s1.49.88,2.52.88Z"
         id="path421" />
      <path
         d="M653.41,399.11c-.97,0-1.76-.31-2.37-.92s-.92-1.37-.92-2.26c0-.94.31-1.7.92-2.29s1.41-.88,2.37-.88,1.75.29,2.35.88.9,1.35.9,2.29-.3,1.65-.9,2.26-1.38.92-2.35.92ZM653.41,414.44c-.97,0-1.76-.31-2.37-.92s-.92-1.37-.92-2.26c0-.94.31-1.7.92-2.29s1.41-.88,2.37-.88,1.75.29,2.35.88.9,1.35.9,2.29-.3,1.65-.9,2.26-1.38.92-2.35.92Z"
         id="path423" />
      <path
         d="M671.6,414.57c-1.77,0-3.3-.35-4.57-1.04-1.27-.7-2.32-1.69-3.13-2.99-.81-1.3-1.41-2.85-1.8-4.66-.39-1.81-.58-3.82-.58-6.03s.19-4.25.58-6.06.99-3.38,1.8-4.68c.81-1.3,1.86-2.31,3.13-3.01s2.8-1.05,4.57-1.05,3.27.35,4.55,1.05,2.32,1.71,3.13,3.01c.81,1.3,1.42,2.86,1.81,4.67.4,1.81.59,3.83.59,6.05s-.2,4.24-.59,6.05c-.4,1.81-1,3.36-1.81,4.66-.81,1.3-1.86,2.29-3.13,2.99-1.27.7-2.79,1.04-4.55,1.04ZM671.6,410.44c1.01,0,1.85-.29,2.5-.88s1.17-1.38,1.53-2.37.62-2.13.77-3.39c.15-1.27.23-2.59.23-3.97s-.08-2.7-.23-3.98c-.15-1.27-.41-2.41-.77-3.42-.36-1-.87-1.79-1.53-2.37-.66-.58-1.49-.87-2.5-.87s-1.86.29-2.52.87c-.65.58-1.16,1.37-1.54,2.37-.37,1-.63,2.14-.78,3.42s-.22,2.6-.22,3.98.07,2.7.22,3.97c.15,1.27.41,2.4.78,3.39.37,1,.89,1.79,1.54,2.37s1.49.88,2.52.88Z"
         id="path425" />
      <path
         d="M695.23,414.57c-1.77,0-3.3-.35-4.57-1.04-1.27-.7-2.32-1.69-3.13-2.99-.81-1.3-1.41-2.85-1.8-4.66-.39-1.81-.58-3.82-.58-6.03s.19-4.25.58-6.06.99-3.38,1.8-4.68c.81-1.3,1.86-2.31,3.13-3.01s2.8-1.05,4.57-1.05,3.27.35,4.55,1.05,2.32,1.71,3.13,3.01c.81,1.3,1.42,2.86,1.81,4.67.4,1.81.59,3.83.59,6.05s-.2,4.24-.59,6.05c-.4,1.81-1,3.36-1.81,4.66-.81,1.3-1.86,2.29-3.13,2.99-1.27.7-2.79,1.04-4.55,1.04ZM695.23,410.44c1.01,0,1.85-.29,2.5-.88s1.17-1.38,1.53-2.37.62-2.13.77-3.39c.15-1.27.23-2.59.23-3.97s-.08-2.7-.23-3.98c-.15-1.27-.41-2.41-.77-3.42-.36-1-.87-1.79-1.53-2.37-.66-.58-1.49-.87-2.5-.87s-1.86.29-2.52.87c-.65.58-1.16,1.37-1.54,2.37-.37,1-.63,2.14-.78,3.42s-.22,2.6-.22,3.98.07,2.7.22,3.97c.15,1.27.41,2.4.78,3.39.37,1,.89,1.79,1.54,2.37s1.49.88,2.52.88Z"
         id="path427" />
      <path
         d="M724.59,414.55c-1.23,0-2.36-.23-3.39-.69-1.03-.46-1.86-1.16-2.49-2.09-.63-.93-.94-2.09-.94-3.48,0-1.95.6-3.42,1.79-4.42s2.87-1.68,5.03-2.04c2.16-.37,4.69-.57,7.59-.62v-1.32c0-1.6-.4-2.7-1.19-3.3s-1.79-.9-3.01-.9c-1.32,0-2.42.32-3.3.97s-1.32,1.68-1.32,3.1h-4.5c0-1.79.38-3.22,1.15-4.3.77-1.08,1.84-1.86,3.21-2.34,1.37-.48,2.96-.72,4.76-.72,1.22,0,2.36.11,3.43.33s2.01.6,2.82,1.15c.81.55,1.45,1.3,1.91,2.26.46.96.69,2.19.69,3.68v14.35h-4.44l-.18-3.01c-.94,1.05-2.03,1.88-3.28,2.48-1.25.6-2.7.9-4.34.9ZM726.01,411.17c1.29,0,2.46-.32,3.52-.95s1.92-1.4,2.59-2.31v-3.89c-3.49.01-5.96.34-7.43.97s-2.2,1.65-2.2,3.05c0,1,.31,1.76.93,2.31.62.54,1.48.81,2.58.81Z"
         id="path429" />
      <path
         d="M742.86,414.18v-21.42h4.57l.11,3.25c.67-.89,1.62-1.71,2.85-2.45,1.22-.74,2.74-1.11,4.56-1.11,2.27,0,3.96.69,5.05,2.07s1.65,3.3,1.65,5.78v13.89h-4.77v-13.25c0-.91-.11-1.71-.32-2.41-.21-.7-.58-1.24-1.1-1.63-.52-.39-1.24-.58-2.16-.58-1.32,0-2.44.32-3.36.96-.92.64-1.69,1.36-2.31,2.17v14.74h-4.77ZM770.87,414.18v-13.25c0-.91-.11-1.71-.32-2.41-.21-.7-.58-1.24-1.1-1.63-.52-.39-1.24-.58-2.16-.58-1.32,0-2.44.3-3.36.91-.92.61-1.71,1.32-2.37,2.12l-.64-3.16c.88-.95,1.98-1.81,3.31-2.58,1.33-.77,2.9-1.15,4.71-1.15,2.26,0,3.93.69,5.03,2.07s1.65,3.3,1.65,5.78v13.89h-4.75Z"
         id="path431" />
      <path
         d="M778.33,405.32v-4.09h20.7v4.09h-20.7Z"
         id="path433" />
      <path
         d="M806.91,414.18v-23.03c-.42.53-.99,1.04-1.7,1.55-.71.51-1.56.95-2.55,1.33-.99.38-2.12.67-3.4.86v-4.44c1.28-.25,2.43-.64,3.46-1.16,1.03-.53,1.95-1.13,2.74-1.81.79-.68,1.44-1.38,1.96-2.1h4.48v28.81h-4.99Z"
         id="path435" />
      <path
         d="M830.54,414.18v-23.03c-.42.53-.99,1.04-1.7,1.55-.71.51-1.56.95-2.55,1.33-.99.38-2.12.67-3.4.86v-4.44c1.28-.25,2.43-.64,3.46-1.16,1.03-.53,1.95-1.13,2.74-1.81.79-.68,1.44-1.38,1.96-2.1h4.48v28.81h-4.99Z"
         id="path437" />
      <path
         d="M849.34,399.11c-.97,0-1.76-.31-2.37-.92s-.92-1.37-.92-2.26c0-.94.31-1.7.92-2.29s1.41-.88,2.37-.88,1.75.29,2.35.88.9,1.35.9,2.29-.3,1.65-.9,2.26-1.38.92-2.35.92ZM849.34,414.44c-.97,0-1.76-.31-2.37-.92s-.92-1.37-.92-2.26c0-.94.31-1.7.92-2.29s1.41-.88,2.37-.88,1.75.29,2.35.88.9,1.35.9,2.29-.3,1.65-.9,2.26-1.38.92-2.35.92Z"
         id="path439" />
      <path
         d="M867.68,414.55c-3.21,0-5.74-.77-7.58-2.32-1.85-1.54-2.77-3.83-2.77-6.87h4.64c0,1.61.5,2.89,1.49,3.82s2.4,1.41,4.2,1.41c1.66,0,2.93-.39,3.83-1.18.9-.78,1.35-2.02,1.35-3.7s-.53-2.79-1.58-3.54-2.45-1.12-4.2-1.12h-1.74v-3.87h1.87c1.57,0,2.79-.4,3.68-1.19.89-.79,1.33-1.85,1.33-3.16s-.41-2.23-1.24-2.86c-.83-.63-1.94-.95-3.35-.95-1.55,0-2.76.41-3.62,1.23-.86.82-1.29,1.91-1.29,3.27h-4.61c0-1.85.41-3.4,1.23-4.66s1.94-2.22,3.37-2.87c1.43-.65,3.06-.98,4.89-.98,1.68,0,3.23.27,4.62.81,1.4.54,2.52,1.37,3.37,2.47.85,1.11,1.27,2.5,1.27,4.19s-.46,3.15-1.38,4.21c-.92,1.06-2.15,1.81-3.69,2.25,1.71.32,3.13,1.07,4.25,2.23,1.12,1.16,1.68,2.76,1.68,4.8,0,1.85-.41,3.41-1.24,4.68-.83,1.27-1.99,2.24-3.49,2.89-1.5.65-3.27.98-5.31.98Z"
         id="path441" />
      <path
         d="M891.16,414.57c-1.77,0-3.3-.35-4.57-1.04-1.28-.7-2.32-1.69-3.13-2.99-.81-1.3-1.41-2.85-1.8-4.66-.39-1.81-.58-3.82-.58-6.03s.19-4.25.58-6.06c.39-1.82.99-3.38,1.8-4.68.81-1.3,1.86-2.31,3.13-3.01,1.27-.7,2.8-1.05,4.57-1.05s3.27.35,4.55,1.05,2.32,1.71,3.13,3.01c.81,1.3,1.42,2.86,1.81,4.67.39,1.81.59,3.83.59,6.05s-.2,4.24-.59,6.05c-.4,1.81-1,3.36-1.81,4.66-.81,1.3-1.86,2.29-3.13,2.99-1.27.7-2.79,1.04-4.55,1.04ZM891.16,410.44c1.01,0,1.85-.29,2.5-.88.66-.59,1.17-1.38,1.53-2.37.36-1,.62-2.13.77-3.39.15-1.27.23-2.59.23-3.97s-.08-2.7-.23-3.98c-.15-1.27-.41-2.41-.77-3.42-.36-1-.87-1.79-1.53-2.37-.66-.58-1.49-.87-2.5-.87s-1.86.29-2.52.87c-.65.58-1.16,1.37-1.54,2.37-.37,1-.63,2.14-.78,3.42-.15,1.27-.22,2.6-.22,3.98s.07,2.7.22,3.97c.15,1.27.41,2.4.78,3.39.37,1,.89,1.79,1.54,2.37.65.59,1.49.88,2.52.88Z"
         id="path443" />
      <path
         d="M920.52,414.55c-1.23,0-2.36-.23-3.39-.69-1.03-.46-1.86-1.16-2.49-2.09-.63-.93-.94-2.09-.94-3.48,0-1.95.6-3.42,1.79-4.42,1.19-1,2.87-1.68,5.03-2.04,2.16-.37,4.69-.57,7.59-.62v-1.32c0-1.6-.4-2.7-1.19-3.3s-1.79-.9-3.01-.9c-1.32,0-2.42.32-3.3.97s-1.32,1.68-1.32,3.1h-4.5c0-1.79.38-3.22,1.15-4.3.77-1.08,1.84-1.86,3.21-2.34,1.37-.48,2.96-.72,4.76-.72,1.22,0,2.36.11,3.43.33s2.01.6,2.82,1.15c.81.55,1.45,1.3,1.91,2.26.46.96.69,2.19.69,3.68v14.35h-4.44l-.18-3.01c-.94,1.05-2.03,1.88-3.28,2.48-1.25.6-2.7.9-4.34.9ZM921.95,411.17c1.29,0,2.46-.32,3.52-.95s1.92-1.4,2.59-2.31v-3.89c-3.49.01-5.96.34-7.43.97-1.47.63-2.2,1.65-2.2,3.05,0,1,.31,1.76.93,2.31.62.54,1.48.81,2.58.81Z"
         id="path445" />
      <path
         d="M938.79,414.18v-21.42h4.57l.11,3.25c.67-.89,1.62-1.71,2.85-2.45,1.22-.74,2.74-1.11,4.56-1.11,2.27,0,3.96.69,5.05,2.07,1.1,1.38,1.65,3.3,1.65,5.78v13.89h-4.77v-13.25c0-.91-.11-1.71-.32-2.41-.21-.7-.58-1.24-1.1-1.63-.52-.39-1.24-.58-2.16-.58-1.32,0-2.44.32-3.36.96-.92.64-1.69,1.36-2.31,2.17v14.74h-4.77ZM966.81,414.18v-13.25c0-.91-.11-1.71-.32-2.41-.21-.7-.58-1.24-1.1-1.63-.52-.39-1.24-.58-2.16-.58-1.32,0-2.44.3-3.36.91-.92.61-1.71,1.32-2.37,2.12l-.64-3.16c.88-.95,1.98-1.81,3.31-2.58,1.33-.77,2.9-1.15,4.71-1.15,2.26,0,3.93.69,5.03,2.07,1.1,1.38,1.65,3.3,1.65,5.78v13.89h-4.75Z"
         id="path447" />
      <path
         d="M999.55,414.57c-3.03,0-5.61-.63-7.73-1.9-2.12-1.27-3.74-3.04-4.86-5.31s-1.67-4.92-1.67-7.95.56-5.69,1.67-7.96c1.11-2.28,2.73-4.05,4.86-5.33s4.7-1.91,7.73-1.91c2.15,0,4.17.37,6.04,1.12s3.41,1.87,4.61,3.37c1.2,1.5,1.88,3.38,2.04,5.64h-5.14c-.16-1.35-.6-2.46-1.32-3.33-.72-.87-1.62-1.52-2.7-1.96-1.08-.43-2.26-.65-3.54-.65-2.15,0-3.9.5-5.23,1.5-1.33,1-2.3,2.34-2.9,4-.6,1.66-.9,3.5-.9,5.5s.3,3.82.9,5.48c.6,1.66,1.57,2.99,2.9,3.99,1.33,1,3.08,1.49,5.23,1.49s3.99-.56,5.33-1.68c1.34-1.12,2.11-2.75,2.3-4.89h5.16c-.21,2.36-.87,4.34-1.98,5.94-1.11,1.6-2.59,2.81-4.44,3.62s-3.97,1.21-6.37,1.21Z"
         id="path449" />
      <path
         d="M1017.78,414.18v-29.58h19.34v4.22h-14.28v8.15h13.05v4.09h-13.05v8.9h14.28v4.22h-19.34Z"
         id="path451" />
      <path
         d="M1047.52,414.18v-25.33h-8.15v-4.24h21.33v4.24h-8.11v25.33h-5.08Z"
         id="path453" />
    </g>
  </g>
  <rect
     x="93.3"
     y="370"
     width="7.09"
     height="14.2"
     rx="3.06"
     ry="3.06"
     transform="translate(193.69 754.2) rotate(180)"
     fill="#333"
     id="rect459" />
  <rect
     x="93.2"
     y="370"
     width="7.09"
     height="14.2"
     rx="3.06"
     ry="3.06"
     transform="translate(193.49 754.2) rotate(180)"
     fill="none"
     stroke="#e6e6e6"
     stroke-miterlimit="10"
     stroke-width="2"
     id="rect461" />
  <rect
     x="120.79"
     y="370"
     width="7.09"
     height="14.2"
     rx="3.06"
     ry="3.06"
     transform="translate(248.67 754.2) rotate(180)"
     fill="#333"
     id="rect463" />
  <rect
     x="120.69"
     y="370"
     width="7.09"
     height="14.2"
     rx="3.06"
     ry="3.06"
     transform="translate(248.47 754.2) rotate(180)"
     fill="none"
     stroke="#e6e6e6"
     stroke-miterlimit="10"
     stroke-width="2"
     id="rect465" />
  <rect
     x="111.67"
     y="393.52"
     width="7.16"
     height="6.35"
     rx=".26"
     ry=".26"
     fill="#333"
     id="rect467" />
  <rect
     x="121.87"
     y="393.52"
     width="7.16"
     height="6.35"
     rx=".26"
     ry=".26"
     fill="#333"
     id="rect469" />
  <rect
     x="111.67"
     y="402.41"
     width="7.16"
     height="6.35"
     rx=".26"
     ry=".26"
     fill="#333"
     id="rect471" />
  <rect
     x="121.87"
     y="402.41"
     width="7.16"
     height="6.35"
     rx=".26"
     ry=".26"
     fill="#333"
     id="rect473" />
  <rect
     x="111.67"
     y="411.31"
     width="7.16"
     height="6.35"
     rx=".26"
     ry=".26"
     fill="#333"
     id="rect475" />
  <rect
     x="121.87"
     y="411.31"
     width="7.16"
     height="6.35"
     rx=".26"
     ry=".26"
     fill="#333"
     id="rect477" />
  <rect
     x="91.33"
     y="402.41"
     width="7.16"
     height="6.35"
     rx=".26"
     ry=".26"
     fill="#333"
     id="rect479" />
  <rect
     x="101.54"
     y="402.41"
     width="7.16"
     height="6.35"
     rx=".26"
     ry=".26"
     fill="#333"
     id="rect481" />
  <rect
     x="91.33"
     y="411.31"
     width="7.16"
     height="6.35"
     rx=".26"
     ry=".26"
     fill="#333"
     id="rect483" />
  <rect
     x="101.54"
     y="411.31"
     width="7.16"
     height="6.35"
     rx=".26"
     ry=".26"
     fill="#333"
     id="rect485" />
  <text
     xml:space="preserve"
     style="font-size:53.3333px;font-family:Arial;-inkscape-font-specification:Arial;text-align:center;text-anchor:middle;fill:#000000;fill-rule:evenodd;stroke-width:13.346"
     x="617.3432"
     y="417.15869"
     id="text818"><tspan
       sodipodi:role="line"
       id="tspan816"
       x="617.3432"
       y="417.15869"
       style="font-weight:bold;font-size:53.3333px">April 21st; 10:00 am - 11:30 am CEST</tspan></text>
</svg>
