<?xml version="1.0" encoding="UTF-8"?>
<svg id="a" data-name="Layer 1" xmlns="http://www.w3.org/2000/svg" width="764" height="400" xmlns:xlink="http://www.w3.org/1999/xlink" viewBox="0 0 764 400">
  <defs>
    <linearGradient id="b" x1="441.37" y1="494.8" x2="737.87" y2="562.71" gradientUnits="userSpaceOnUse">
      <stop offset=".53" stop-color="#0a3fa8"/>
      <stop offset=".64" stop-color="#093ca4"/>
      <stop offset=".74" stop-color="#083499"/>
      <stop offset=".83" stop-color="#062787"/>
      <stop offset=".92" stop-color="#03146e"/>
      <stop offset="1" stop-color="#000052"/>
    </linearGradient>
  </defs>
  <rect width="764" height="400" fill="#fff"/>
  <g>
    <path d="M49.52,113.03c-2.36,0-4.38-.49-6.07-1.46-1.69-.97-2.98-2.34-3.89-4.11-.91-1.77-1.36-3.84-1.36-6.22s.45-4.47,1.36-6.25c.91-1.77,2.2-3.14,3.89-4.12,1.69-.97,3.71-1.46,6.07-1.46,1.18,0,2.35.15,3.49.46,1.14.31,2.18.78,3.13,1.43.95.64,1.73,1.46,2.34,2.45s.98,2.17,1.11,3.52h-4.91c-.09-.75-.35-1.42-.79-2-.43-.58-1.03-1.04-1.78-1.37-.75-.33-1.65-.5-2.7-.5-1.5,0-2.72.36-3.64,1.08s-1.6,1.67-2.02,2.85c-.42,1.18-.63,2.47-.63,3.89s.21,2.69.64,3.88c.43,1.19,1.11,2.14,2.04,2.85.93.72,2.17,1.08,3.71,1.08,1.14,0,2.11-.2,2.91-.59.8-.39,1.43-.94,1.88-1.63.45-.69.71-1.5.78-2.41h-5.45v-3.83h10.27v2.34c0,1.99-.4,3.75-1.21,5.26-.8,1.52-1.98,2.7-3.52,3.55-1.54.85-3.43,1.28-5.67,1.28Z"/>
    <path d="M71.63,113c-1.69,0-3.17-.34-4.44-1.01-1.27-.67-2.25-1.65-2.95-2.92-.7-1.28-1.04-2.82-1.04-4.63s.35-3.42,1.04-4.71c.69-1.29,1.68-2.28,2.95-2.96s2.75-1.02,4.44-1.02,3.2.34,4.47,1.02c1.27.68,2.26,1.66,2.96,2.96.71,1.29,1.06,2.86,1.06,4.71s-.35,3.36-1.06,4.63c-.71,1.28-1.7,2.25-2.96,2.92-1.27.67-2.76,1.01-4.47,1.01ZM71.63,109.54c.99,0,1.77-.23,2.33-.69.56-.46.96-1.08,1.2-1.85.23-.77.35-1.63.35-2.56s-.12-1.83-.35-2.61-.63-1.41-1.2-1.88c-.56-.47-1.34-.7-2.33-.7s-1.73.23-2.28.7-.94,1.09-1.17,1.88c-.23.79-.34,1.66-.34,2.61s.11,1.79.34,2.56c.23.78.62,1.39,1.17,1.85.55.46,1.31.69,2.28.69Z"/>
    <path d="M88.5,113.01c-.95,0-1.83-.18-2.65-.55s-1.48-.91-1.99-1.65c-.51-.74-.76-1.66-.76-2.76,0-1.54.46-2.7,1.38-3.48.92-.78,2.21-1.31,3.87-1.59,1.66-.28,3.59-.44,5.79-.49v-.89c0-1.08-.26-1.82-.78-2.22-.52-.4-1.19-.6-2.01-.6-.9,0-1.64.21-2.22.64-.58.43-.87,1.12-.87,2.08h-4.24c0-1.42.31-2.55.93-3.38.62-.83,1.48-1.43,2.58-1.79,1.1-.36,2.37-.55,3.82-.55,1.06,0,2.03.09,2.91.27.88.18,1.64.48,2.28.91.64.43,1.14,1.02,1.5,1.77.35.75.53,1.68.53,2.79v11.19h-4.24l-.14-2.17c-.71.81-1.53,1.42-2.46,1.84-.93.42-2.01.62-3.23.62ZM89.99,109.9c.86,0,1.64-.22,2.37-.67s1.3-.95,1.73-1.52v-2.7c-2.39.01-4.07.24-5.02.68s-1.44,1.15-1.44,2.13c0,.71.22,1.23.66,1.57s1.01.51,1.7.51Z"/>
    <path d="M109.52,112.72c-1.7,0-3.01-.2-3.93-.61s-1.57-1.03-1.93-1.88c-.37-.85-.55-1.96-.55-3.32v-17.19h4.51v16.92c0,.88.12,1.52.36,1.93s.8.62,1.67.62h1.04v3.54h-1.18Z"/>
    <path d="M120.32,113.03c-.92,0-1.83-.09-2.72-.26s-1.69-.46-2.41-.88-1.29-.98-1.71-1.7c-.42-.72-.63-1.61-.63-2.68h4.2c0,.93.33,1.58.98,1.95.65.37,1.42.55,2.3.55s1.54-.14,2.02-.42.72-.75.72-1.41c0-.63-.28-1.09-.85-1.4-.56-.31-1.55-.62-2.96-.94-1.19-.28-2.24-.63-3.17-1.03-.93-.4-1.66-.95-2.18-1.62-.52-.68-.79-1.57-.79-2.67,0-.87.2-1.6.6-2.2.4-.6.93-1.09,1.6-1.46.67-.37,1.42-.64,2.26-.81.84-.17,1.69-.26,2.57-.26s1.69.08,2.51.26,1.56.46,2.22.86c.66.4,1.19.95,1.59,1.63.4.68.6,1.54.6,2.56h-4.21c0-.85-.27-1.45-.81-1.78-.54-.33-1.18-.5-1.91-.5-.79,0-1.4.11-1.85.34s-.67.6-.67,1.13c0,.31.14.58.43.81.28.23.74.45,1.37.65.63.2,1.45.41,2.48.64,1.08.25,2.05.58,2.91.97s1.53.93,2.03,1.61c.5.67.75,1.54.75,2.61,0,1-.2,1.85-.61,2.55s-.95,1.26-1.62,1.68c-.68.43-1.45.74-2.32.93-.87.19-1.78.29-2.71.29Z"/>
    <path d="M139.1,112.72v-23h8.56c2.46,0,4.57.46,6.31,1.37s3.08,2.22,4.01,3.93,1.38,3.76,1.38,6.15-.47,4.57-1.4,6.29c-.93,1.72-2.28,3.03-4.03,3.92s-3.84,1.34-6.28,1.34h-8.56ZM143.91,108.72h3.25c1.63,0,2.98-.28,4.06-.83,1.08-.55,1.88-1.39,2.42-2.51.54-1.12.8-2.54.8-4.25s-.29-2.99-.86-4.09-1.4-1.93-2.49-2.49c-1.08-.56-2.39-.84-3.93-.84h-3.25v15Z"/>
    <path d="M171.1,113c-1.69,0-3.17-.34-4.44-1.01-1.27-.67-2.25-1.65-2.95-2.92-.7-1.28-1.04-2.82-1.04-4.63s.35-3.42,1.04-4.71c.69-1.29,1.68-2.28,2.95-2.96s2.75-1.02,4.44-1.02,3.2.34,4.47,1.02c1.27.68,2.26,1.66,2.96,2.96.71,1.29,1.06,2.86,1.06,4.71s-.35,3.36-1.06,4.63c-.71,1.28-1.7,2.25-2.96,2.92-1.27.67-2.76,1.01-4.47,1.01ZM171.1,109.54c.99,0,1.77-.23,2.33-.69.56-.46.96-1.08,1.2-1.85.23-.77.35-1.63.35-2.56s-.12-1.83-.35-2.61-.63-1.41-1.2-1.88c-.56-.47-1.34-.7-2.33-.7s-1.73.23-2.28.7-.94,1.09-1.17,1.88c-.23.79-.34,1.66-.34,2.61s.11,1.79.34,2.56c.23.78.62,1.39,1.17,1.85.55.46,1.31.69,2.28.69Z"/>
    <path d="M191.07,112.96c-1.55,0-2.96-.3-4.22-.89-1.27-.59-2.27-1.52-3.01-2.77-.74-1.25-1.11-2.87-1.11-4.85s.35-3.61,1.06-4.89c.71-1.28,1.69-2.22,2.95-2.85,1.26-.62,2.7-.93,4.33-.93,1.41,0,2.69.23,3.83.7,1.14.47,2.04,1.17,2.72,2.09.67.93,1.01,2.1,1.03,3.51h-4.39c-.02-.85-.31-1.54-.85-2.04s-1.32-.76-2.31-.76c-1.31,0-2.26.45-2.85,1.35-.59.9-.88,2.17-.88,3.81,0,1.06.13,1.96.38,2.71.26.75.66,1.32,1.21,1.71.55.39,1.26.59,2.13.59,1.01,0,1.81-.28,2.4-.83s.89-1.34.91-2.35h4.39c-.03,1.45-.38,2.67-1.05,3.66-.67.99-1.58,1.74-2.73,2.26-1.15.51-2.47.77-3.95.77Z"/>
    <path d="M207.77,112.95c-1.69,0-2.99-.52-3.91-1.56-.92-1.04-1.38-2.53-1.38-4.45v-10.89h4.53v10.34c0,.57.08,1.07.25,1.51.17.44.44.78.82,1.02.38.24.89.36,1.51.36.91,0,1.69-.2,2.33-.61s1.21-.9,1.68-1.48v-11.14h4.53v16.68h-4.38l-.07-2.51c-.56.71-1.32,1.34-2.29,1.9-.97.56-2.18.84-3.62.84Z"/>
    <path d="M222.98,112.72v-16.68h4.36l.08,2.5c.55-.72,1.3-1.35,2.26-1.91.96-.55,2.15-.83,3.56-.83,1.68,0,2.96.53,3.85,1.58.89,1.05,1.34,2.55,1.34,4.49v10.85h-4.53v-10.27c0-.6-.08-1.13-.25-1.59s-.43-.81-.8-1.06c-.37-.25-.85-.38-1.44-.38-.88,0-1.63.21-2.26.63-.63.42-1.18.93-1.66,1.54v11.13h-4.53ZM244.87,112.72v-10.27c0-.6-.08-1.13-.25-1.59-.17-.46-.43-.81-.8-1.06s-.85-.38-1.44-.38c-.88,0-1.63.19-2.26.58-.63.39-1.2.87-1.7,1.45l-.55-2.8c.72-.76,1.6-1.43,2.64-2,1.04-.57,2.27-.85,3.68-.85,1.66,0,2.95.53,3.85,1.58.91,1.05,1.36,2.55,1.36,4.49v10.85h-4.53Z"/>
    <path d="M261.77,113.03c-1.86,0-3.42-.34-4.68-1.03-1.27-.69-2.22-1.68-2.87-2.98-.65-1.3-.97-2.86-.97-4.68s.32-3.29.95-4.56c.63-1.28,1.56-2.26,2.79-2.95,1.22-.69,2.73-1.03,4.52-1.03,2.48,0,4.45.73,5.89,2.18,1.44,1.45,2.16,3.52,2.16,6.21,0,.14,0,.32-.02.56-.01.23-.03.41-.05.54h-11.71c.02.79.17,1.52.44,2.2.27.68.69,1.23,1.27,1.65.58.42,1.34.62,2.29.62s1.77-.21,2.36-.64c.59-.43.89-1.06.91-1.91h4.46c-.06,1.3-.41,2.38-1.07,3.25-.66.87-1.55,1.51-2.68,1.94-1.13.43-2.46.64-3.97.64ZM257.83,102.4h7.23c-.03-1.16-.38-2.03-1.03-2.61-.66-.58-1.5-.86-2.52-.86s-1.91.3-2.57.89c-.67.59-1.03,1.45-1.1,2.58Z"/>
    <path d="M273.57,112.72v-16.68h4.36l.08,2.5c.56-.72,1.29-1.35,2.2-1.91.91-.55,2.1-.83,3.55-.83,1.7,0,3.01.52,3.95,1.55.93,1.03,1.4,2.54,1.4,4.52v10.85h-4.49v-10.27c0-.6-.09-1.13-.26-1.59s-.44-.81-.81-1.06c-.37-.25-.86-.38-1.46-.38-.9,0-1.67.21-2.32.63-.64.42-1.21.93-1.68,1.54v11.13h-4.53Z"/>
    <path d="M300.96,112.72c-1.69,0-2.99-.2-3.92-.61s-1.58-1.03-1.94-1.88c-.37-.85-.55-1.96-.55-3.32v-7.38h-2.77v-3.49h2.77v-3.93h4.53v3.93h3.64v3.49h-3.64v7.11c0,.88.12,1.53.37,1.95.24.42.8.63,1.67.63h1.61v3.5h-1.76Z"/>
    <path d="M313.71,112.72v-23h9.47c1.48,0,2.8.21,3.96.62s2.08,1.09,2.76,2.02c.68.93,1.02,2.16,1.02,3.7,0,1.46-.39,2.7-1.17,3.71s-1.96,1.74-3.55,2.17c.97.15,1.74.44,2.32.88s1.05,1.03,1.41,1.77c.36.74.69,1.65.98,2.73l1.52,5.4h-5.03l-1.08-4.44c-.23-1-.49-1.82-.79-2.46-.3-.64-.7-1.11-1.21-1.43s-1.2-.47-2.09-.47h-3.74v8.8h-4.8ZM318.51,99.96h3.86c.75,0,1.4-.12,1.94-.36s.96-.6,1.26-1.08c.3-.48.45-1.06.45-1.76,0-1.01-.31-1.78-.92-2.29s-1.43-.77-2.44-.77h-4.14v6.25Z"/>
    <path d="M343.24,113.03c-1.86,0-3.42-.34-4.68-1.03-1.27-.69-2.22-1.68-2.87-2.98-.65-1.3-.97-2.86-.97-4.68s.32-3.29.95-4.56c.63-1.28,1.56-2.26,2.79-2.95,1.22-.69,2.73-1.03,4.52-1.03,2.48,0,4.45.73,5.89,2.18,1.44,1.45,2.16,3.52,2.16,6.21,0,.14,0,.32-.02.56-.01.23-.03.41-.05.54h-11.71c.02.79.17,1.52.44,2.2.27.68.69,1.23,1.27,1.65.58.42,1.34.62,2.29.62s1.77-.21,2.36-.64c.59-.43.89-1.06.91-1.91h4.46c-.06,1.3-.41,2.38-1.07,3.25-.66.87-1.55,1.51-2.68,1.94-1.13.43-2.46.64-3.97.64ZM339.29,102.4h7.23c-.03-1.16-.38-2.03-1.03-2.61-.66-.58-1.5-.86-2.52-.86s-1.91.3-2.57.89c-.67.59-1.03,1.45-1.1,2.58Z"/>
    <path d="M361.29,112.72c-1.7,0-3.01-.2-3.93-.61s-1.57-1.03-1.93-1.88c-.37-.85-.55-1.96-.55-3.32v-17.19h4.51v16.92c0,.88.12,1.52.36,1.93s.8.62,1.67.62h1.04v3.54h-1.18Z"/>
    <path d="M373.06,113.03c-1.86,0-3.42-.34-4.68-1.03-1.27-.69-2.22-1.68-2.87-2.98-.65-1.3-.97-2.86-.97-4.68s.32-3.29.95-4.56c.63-1.28,1.56-2.26,2.79-2.95,1.22-.69,2.73-1.03,4.52-1.03,2.48,0,4.45.73,5.89,2.18,1.44,1.45,2.16,3.52,2.16,6.21,0,.14,0,.32-.02.56-.01.23-.03.41-.05.54h-11.71c.02.79.17,1.52.44,2.2.27.68.69,1.23,1.27,1.65.58.42,1.34.62,2.29.62s1.77-.21,2.36-.64c.59-.43.89-1.06.91-1.91h4.46c-.06,1.3-.41,2.38-1.07,3.25-.66.87-1.55,1.51-2.68,1.94-1.13.43-2.46.64-3.97.64ZM369.12,102.4h7.23c-.03-1.16-.38-2.03-1.03-2.61-.66-.58-1.5-.86-2.52-.86s-1.91.3-2.57.89c-.67.59-1.03,1.45-1.1,2.58Z"/>
    <path d="M389.4,113.01c-.95,0-1.83-.18-2.65-.55s-1.48-.91-1.99-1.65c-.51-.74-.76-1.66-.76-2.76,0-1.54.46-2.7,1.38-3.48.92-.78,2.21-1.31,3.87-1.59,1.66-.28,3.59-.44,5.79-.49v-.89c0-1.08-.26-1.82-.78-2.22-.52-.4-1.19-.6-2.01-.6-.9,0-1.64.21-2.22.64-.58.43-.87,1.12-.87,2.08h-4.24c0-1.42.31-2.55.93-3.38.62-.83,1.48-1.43,2.58-1.79,1.1-.36,2.37-.55,3.82-.55,1.06,0,2.03.09,2.91.27.88.18,1.64.48,2.28.91.64.43,1.14,1.02,1.5,1.77.35.75.53,1.68.53,2.79v11.19h-4.24l-.14-2.17c-.71.81-1.53,1.42-2.46,1.84-.93.42-2.01.62-3.23.62ZM390.89,109.9c.86,0,1.64-.22,2.37-.67s1.3-.95,1.73-1.52v-2.7c-2.39.01-4.07.24-5.02.68s-1.44,1.15-1.44,2.13c0,.71.22,1.23.66,1.57s1.01.51,1.7.51Z"/>
    <path d="M410.87,113.03c-.92,0-1.83-.09-2.72-.26s-1.69-.46-2.41-.88-1.29-.98-1.71-1.7c-.42-.72-.63-1.61-.63-2.68h4.2c0,.93.33,1.58.98,1.95.65.37,1.42.55,2.3.55s1.54-.14,2.02-.42.72-.75.72-1.41c0-.63-.28-1.09-.85-1.4-.56-.31-1.55-.62-2.96-.94-1.19-.28-2.24-.63-3.17-1.03-.93-.4-1.66-.95-2.18-1.62-.52-.68-.79-1.57-.79-2.67,0-.87.2-1.6.6-2.2.4-.6.93-1.09,1.6-1.46.67-.37,1.42-.64,2.26-.81.84-.17,1.69-.26,2.57-.26s1.69.08,2.51.26,1.56.46,2.22.86c.66.4,1.19.95,1.59,1.63.4.68.6,1.54.6,2.56h-4.21c0-.85-.27-1.45-.81-1.78-.54-.33-1.18-.5-1.91-.5-.79,0-1.4.11-1.85.34s-.67.6-.67,1.13c0,.31.14.58.43.81.28.23.74.45,1.37.65.63.2,1.45.41,2.48.64,1.08.25,2.05.58,2.91.97s1.53.93,2.03,1.61c.5.67.75,1.54.75,2.61,0,1-.2,1.85-.61,2.55s-.95,1.26-1.62,1.68c-.68.43-1.45.74-2.32.93-.87.19-1.78.29-2.71.29Z"/>
    <path d="M429.6,113.03c-1.86,0-3.42-.34-4.68-1.03-1.27-.69-2.22-1.68-2.87-2.98-.65-1.3-.97-2.86-.97-4.68s.32-3.29.95-4.56c.63-1.28,1.56-2.26,2.79-2.95,1.22-.69,2.73-1.03,4.52-1.03,2.48,0,4.45.73,5.89,2.18,1.44,1.45,2.16,3.52,2.16,6.21,0,.14,0,.32-.02.56-.01.23-.03.41-.05.54h-11.71c.02.79.17,1.52.44,2.2.27.68.69,1.23,1.27,1.65.58.42,1.34.62,2.29.62s1.77-.21,2.36-.64c.59-.43.89-1.06.91-1.91h4.46c-.06,1.3-.41,2.38-1.07,3.25-.66.87-1.55,1.51-2.68,1.94-1.13.43-2.46.64-3.97.64ZM425.65,102.4h7.23c-.03-1.16-.38-2.03-1.03-2.61-.66-.58-1.5-.86-2.52-.86s-1.91.3-2.57.89c-.67.59-1.03,1.45-1.1,2.58Z"/>
  </g>
  <g>
    <path d="M43.43,157.42v-14.59h-4.67v-1.84h11.52v1.84h-4.66v14.59h-2.19Z"/>
    <path d="M52.47,157.42v-16.43h2.03v6.37c.37-.48.89-.93,1.57-1.36.68-.43,1.55-.64,2.61-.64,1.33,0,2.29.38,2.88,1.15.58.77.87,1.85.87,3.25v7.67h-2.04v-7.38c0-.57-.06-1.08-.18-1.53-.12-.45-.34-.8-.65-1.06-.32-.26-.77-.38-1.37-.38-.89,0-1.63.2-2.23.6-.6.4-1.09.84-1.45,1.32v8.42h-2.04Z"/>
    <path d="M71.19,157.64c-1.29,0-2.35-.27-3.18-.81-.83-.54-1.44-1.28-1.84-2.21-.4-.93-.6-1.98-.6-3.14s.19-2.28.58-3.21c.39-.92.98-1.65,1.77-2.17.79-.52,1.8-.78,3.02-.78,1.62,0,2.89.49,3.81,1.46s1.38,2.38,1.38,4.21c0,.12,0,.27-.01.43s-.02.29-.04.36h-8.47c0,.77.13,1.48.37,2.13.24.65.62,1.17,1.14,1.56.52.39,1.21.59,2.06.59.91,0,1.62-.21,2.14-.64.51-.43.78-1.04.81-1.85h2.01c-.02.84-.24,1.56-.65,2.17-.41.61-.98,1.07-1.71,1.4-.73.33-1.6.49-2.6.49ZM67.63,150.3h6.49c-.02-1.11-.31-1.95-.87-2.54-.55-.59-1.32-.88-2.31-.88s-1.77.29-2.34.87c-.57.58-.89,1.43-.98,2.55Z"/>
    <path d="M84.92,157.42v-10.24h-1.99v-1.65h1.99v-.68c0-.6.05-1.14.15-1.62.1-.48.28-.89.54-1.21.26-.33.61-.58,1.07-.76.46-.17,1.06-.26,1.79-.26h1.23v1.6h-1.1c-.72,0-1.18.2-1.37.59s-.29.96-.29,1.7v.66h2.77v1.65h-2.77v10.24h-2.03ZM93.04,143.3c-.38,0-.69-.11-.92-.34-.23-.22-.35-.51-.35-.85s.12-.62.35-.85c.23-.22.54-.33.92-.33s.69.11.93.33c.24.22.35.51.35.85s-.12.62-.35.85c-.24.22-.54.34-.93.34ZM92.03,157.42v-11.89h2.04v11.89h-2.04Z"/>
    <path d="M98,157.42v-11.89h1.92l.07,2.03c.33-.62.8-1.13,1.39-1.55s1.37-.62,2.32-.62h.24v1.87h-.28c-.59,0-1.11.08-1.56.23-.45.16-.84.37-1.17.64-.33.27-.63.59-.89.95v8.35h-2.04Z"/>
    <path d="M110.33,157.64c-.67,0-1.3-.07-1.9-.22-.6-.15-1.12-.38-1.58-.7-.46-.32-.81-.73-1.07-1.25-.26-.52-.38-1.14-.38-1.87h1.97c0,.93.29,1.58.86,1.96.57.38,1.29.57,2.15.57.77,0,1.41-.15,1.91-.45.5-.3.75-.79.75-1.47,0-.59-.23-1.02-.68-1.31-.45-.28-1.25-.56-2.39-.83-.93-.22-1.71-.47-2.34-.76s-1.11-.66-1.43-1.1-.48-1-.48-1.68c0-.53.11-1,.34-1.4.22-.4.54-.74.94-1.01.4-.27.88-.47,1.42-.6.54-.13,1.14-.2,1.77-.2s1.21.07,1.76.22c.55.15,1.03.37,1.45.68s.75.71,1,1.2.37,1.07.37,1.76h-1.98c0-.85-.25-1.44-.76-1.79-.5-.35-1.12-.52-1.84-.52s-1.33.13-1.78.39c-.46.26-.68.67-.68,1.22,0,.32.1.59.31.81s.54.42,1.03.59,1.13.36,1.94.56c.89.21,1.63.46,2.23.76s1.06.67,1.36,1.13c.3.46.46,1.05.46,1.76,0,.62-.12,1.15-.36,1.61-.24.45-.57.82-1,1.11-.43.29-.93.5-1.5.64-.57.14-1.19.21-1.86.21Z"/>
    <path d="M122.09,157.42c-.96,0-1.7-.15-2.21-.46-.51-.3-.86-.74-1.06-1.32-.19-.57-.29-1.26-.29-2.07v-6.4h-1.99v-1.65h1.99v-2.72h2.03v2.72h2.93v1.65h-2.93v6.3c0,.74.1,1.31.29,1.7.19.4.65.59,1.37.59h1.29v1.65h-1.43Z"/>
    <path d="M132.29,143.3c-.38,0-.69-.11-.92-.34-.23-.22-.35-.51-.35-.85s.12-.62.35-.85c.23-.22.54-.33.92-.33s.69.11.93.33c.24.22.35.51.35.85s-.12.62-.35.85-.54.34-.93.34ZM131.28,157.42v-11.89h2.04v11.89h-2.04Z"/>
    <path d="M137.25,157.42v-11.89h1.95l.07,1.83c.37-.48.89-.93,1.57-1.36.68-.43,1.56-.64,2.62-.64,1.3,0,2.25.38,2.84,1.15.59.77.89,1.85.89,3.24v7.67h-2.04v-7.37c0-.58-.06-1.09-.18-1.54-.12-.45-.34-.8-.65-1.06-.31-.26-.77-.38-1.36-.38-.89,0-1.63.2-2.23.6-.6.4-1.09.84-1.45,1.32v8.42h-2.04Z"/>
    <path d="M159.17,157.64c-.68,0-1.31-.13-1.87-.39-.57-.26-1.02-.64-1.35-1.15-.34-.51-.51-1.14-.51-1.89,0-1.07.33-1.88,1-2.43.67-.55,1.61-.93,2.83-1.13s2.65-.31,4.29-.32v-.83c0-1.02-.25-1.72-.76-2.09-.5-.38-1.14-.57-1.92-.57-.82,0-1.51.21-2.08.62s-.84,1.07-.84,1.97h-1.98c0-.98.21-1.77.63-2.37s1-1.04,1.73-1.32,1.58-.42,2.53-.42c.61,0,1.19.06,1.75.17.56.11,1.06.32,1.5.62.44.3.8.72,1.06,1.26.26.54.39,1.24.39,2.09v7.95h-1.9l-.08-1.81c-.54.61-1.18,1.1-1.9,1.47-.72.37-1.56.56-2.52.56ZM159.71,156.08c.81,0,1.55-.19,2.2-.57s1.2-.87,1.64-1.45v-2.42c-2.17.02-3.72.23-4.66.61-.94.38-1.41,1.01-1.41,1.88,0,.59.19,1.07.57,1.42.38.35.93.53,1.67.53Z"/>
    <path d="M178.68,157.64c-.67,0-1.3-.07-1.9-.22-.6-.15-1.12-.38-1.58-.7-.46-.32-.81-.73-1.07-1.25-.26-.52-.38-1.14-.38-1.87h1.97c0,.93.29,1.58.86,1.96.57.38,1.29.57,2.15.57.77,0,1.41-.15,1.91-.45.5-.3.75-.79.75-1.47,0-.59-.23-1.02-.68-1.31-.45-.28-1.25-.56-2.39-.83-.93-.22-1.71-.47-2.34-.76s-1.11-.66-1.43-1.1-.48-1-.48-1.68c0-.53.11-1,.34-1.4.22-.4.54-.74.94-1.01.4-.27.88-.47,1.42-.6.54-.13,1.14-.2,1.77-.2s1.21.07,1.76.22c.55.15,1.03.37,1.45.68s.75.71,1,1.2.37,1.07.37,1.76h-1.98c0-.85-.25-1.44-.76-1.79-.5-.35-1.12-.52-1.84-.52s-1.33.13-1.78.39c-.46.26-.68.67-.68,1.22,0,.32.1.59.31.81s.54.42,1.03.59,1.13.36,1.94.56c.89.21,1.63.46,2.23.76s1.06.67,1.36,1.13c.3.46.46,1.05.46,1.76,0,.62-.12,1.15-.36,1.61-.24.45-.57.82-1,1.11-.43.29-.93.5-1.5.64-.57.14-1.19.21-1.86.21Z"/>
    <path d="M191.41,157.64c-1.29,0-2.35-.27-3.18-.81-.83-.54-1.44-1.28-1.84-2.21-.4-.93-.6-1.98-.6-3.14s.19-2.28.58-3.21c.39-.92.98-1.65,1.77-2.17.79-.52,1.8-.78,3.02-.78,1.62,0,2.89.49,3.81,1.46s1.38,2.38,1.38,4.21c0,.12,0,.27-.01.43s-.02.29-.04.36h-8.47c0,.77.13,1.48.37,2.13.24.65.62,1.17,1.14,1.56.52.39,1.21.59,2.06.59.91,0,1.62-.21,2.14-.64.51-.43.78-1.04.81-1.85h2.01c-.02.84-.24,1.56-.65,2.17-.41.61-.98,1.07-1.71,1.4-.73.33-1.6.49-2.6.49ZM187.85,150.3h6.49c-.02-1.11-.31-1.95-.87-2.54-.55-.59-1.32-.88-2.31-.88s-1.77.29-2.34.87c-.57.58-.89,1.43-.98,2.55Z"/>
    <path d="M199.64,157.42v-11.89h1.92l.07,2.03c.33-.62.8-1.13,1.39-1.55s1.37-.62,2.32-.62h.24v1.87h-.28c-.59,0-1.11.08-1.56.23-.45.16-.84.37-1.17.64-.33.27-.63.59-.89.95v8.35h-2.04Z"/>
    <path d="M209.01,143.3c-.38,0-.69-.11-.92-.34-.23-.22-.35-.51-.35-.85s.12-.62.35-.85c.23-.22.54-.33.92-.33s.69.11.93.33c.24.22.35.51.35.85s-.12.62-.35.85-.54.34-.93.34ZM208,157.42v-11.89h2.04v11.89h-2.04Z"/>
    <path d="M218.91,157.64c-1.29,0-2.35-.27-3.18-.81-.83-.54-1.44-1.28-1.84-2.21-.4-.93-.6-1.98-.6-3.14s.19-2.28.58-3.21c.39-.92.98-1.65,1.77-2.17.79-.52,1.8-.78,3.02-.78,1.62,0,2.89.49,3.81,1.46s1.38,2.38,1.38,4.21c0,.12,0,.27-.01.43s-.02.29-.04.36h-8.47c0,.77.13,1.48.37,2.13.24.65.62,1.17,1.14,1.56.52.39,1.21.59,2.06.59.91,0,1.62-.21,2.14-.64.51-.43.78-1.04.81-1.85h2.01c-.02.84-.24,1.56-.65,2.17-.41.61-.98,1.07-1.71,1.4-.73.33-1.6.49-2.6.49ZM215.35,150.3h6.49c-.02-1.11-.31-1.95-.87-2.54-.55-.59-1.32-.88-2.31-.88s-1.77.29-2.34.87c-.57.58-.89,1.43-.98,2.55Z"/>
    <path d="M231.23,157.64c-.67,0-1.3-.07-1.9-.22-.6-.15-1.12-.38-1.58-.7-.46-.32-.81-.73-1.07-1.25-.26-.52-.38-1.14-.38-1.87h1.97c0,.93.29,1.58.86,1.96.57.38,1.29.57,2.15.57.77,0,1.41-.15,1.91-.45.5-.3.75-.79.75-1.47,0-.59-.23-1.02-.68-1.31-.45-.28-1.25-.56-2.39-.83-.93-.22-1.71-.47-2.34-.76s-1.11-.66-1.43-1.1-.48-1-.48-1.68c0-.53.11-1,.34-1.4.22-.4.54-.74.94-1.01.4-.27.88-.47,1.42-.6.54-.13,1.14-.2,1.77-.2s1.21.07,1.76.22c.55.15,1.03.37,1.45.68s.75.71,1,1.2.37,1.07.37,1.76h-1.98c0-.85-.25-1.44-.76-1.79-.5-.35-1.12-.52-1.84-.52s-1.33.13-1.78.39c-.46.26-.68.67-.68,1.22,0,.32.1.59.31.81s.54.42,1.03.59,1.13.36,1.94.56c.89.21,1.63.46,2.23.76s1.06.67,1.36,1.13c.3.46.46,1.05.46,1.76,0,.62-.12,1.15-.36,1.61-.24.45-.57.82-1,1.11-.43.29-.93.5-1.5.64-.57.14-1.19.21-1.86.21Z"/>
    <path d="M249.11,157.61c-1.16,0-2.16-.25-2.99-.74s-1.46-1.2-1.9-2.11c-.44-.92-.65-2-.65-3.26s.22-2.4.65-3.33c.43-.92,1.07-1.63,1.9-2.13.83-.5,1.83-.74,2.99-.74s2.2.25,3.05.74c.84.5,1.49,1.21,1.94,2.13.45.92.68,2.03.68,3.33s-.23,2.35-.68,3.26c-.45.92-1.1,1.62-1.94,2.11-.84.49-1.86.74-3.05.74ZM249.11,155.99c.88,0,1.58-.19,2.1-.58s.9-.92,1.12-1.6c.23-.68.34-1.45.34-2.31s-.11-1.66-.34-2.36c-.23-.69-.6-1.23-1.12-1.63-.52-.39-1.22-.59-2.1-.59s-1.53.2-2.03.59c-.5.4-.86.94-1.08,1.63-.22.69-.33,1.48-.33,2.36s.11,1.63.33,2.31c.22.68.58,1.21,1.08,1.6.5.39,1.18.58,2.03.58Z"/>
    <path d="M258.45,157.42v-10.24h-1.99v-1.65h1.99v-.68c0-.6.05-1.14.15-1.62.1-.48.28-.89.54-1.21.26-.33.61-.58,1.07-.76.46-.17,1.06-.26,1.79-.26h1.23v1.6h-1.1c-.72,0-1.18.2-1.37.59s-.29.96-.29,1.7v.66h2.77v1.65h-2.77v10.24h-2.03Z"/>
    <path d="M271.06,157.42v-10.24h-1.99v-1.65h1.99v-.68c0-.6.05-1.14.15-1.62.1-.48.28-.89.54-1.21.26-.33.61-.58,1.07-.76.46-.17,1.06-.26,1.79-.26h1.23v1.6h-1.1c-.72,0-1.18.2-1.37.59s-.29.96-.29,1.7v.66h2.77v1.65h-2.77v10.24h-2.03Z"/>
    <path d="M281.85,157.6c-1.38,0-2.37-.38-2.98-1.15s-.92-1.82-.92-3.16v-7.76h2.05v7.48c0,.54.06,1.02.18,1.44s.35.75.7.99c.34.24.83.35,1.48.35.9,0,1.64-.19,2.25-.56s1.09-.8,1.45-1.29v-8.42h2.05v11.89h-1.97l-.06-1.83c-.38.47-.92.93-1.62,1.36-.7.44-1.57.65-2.62.65Z"/>
    <path d="M292.04,157.42v-11.89h1.92l.07,2.03c.33-.62.8-1.13,1.39-1.55s1.37-.62,2.32-.62h.24v1.87h-.28c-.59,0-1.11.08-1.56.23-.45.16-.84.37-1.17.64-.33.27-.63.59-.89.95v8.35h-2.04Z"/>
    <path d="M304.37,157.42c-.96,0-1.7-.15-2.21-.46-.51-.3-.86-.74-1.06-1.32-.19-.57-.29-1.26-.29-2.07v-6.4h-1.99v-1.65h1.99v-2.72h2.03v2.72h2.93v1.65h-2.93v6.3c0,.74.1,1.31.29,1.7.19.4.65.59,1.37.59h1.29v1.65h-1.43Z"/>
    <path d="M308.49,157.42v-16.43h2.03v6.37c.37-.48.89-.93,1.57-1.36.68-.43,1.55-.64,2.61-.64,1.33,0,2.29.38,2.88,1.15.58.77.87,1.85.87,3.25v7.67h-2.04v-7.38c0-.57-.06-1.08-.18-1.53-.12-.45-.34-.8-.65-1.06-.32-.26-.77-.38-1.37-.38-.89,0-1.63.2-2.23.6-.6.4-1.09.84-1.45,1.32v8.42h-2.04Z"/>
    <path d="M327.21,157.64c-1.29,0-2.35-.27-3.18-.81-.83-.54-1.44-1.28-1.84-2.21-.4-.93-.6-1.98-.6-3.14s.19-2.28.58-3.21c.39-.92.98-1.65,1.77-2.17.79-.52,1.8-.78,3.02-.78,1.62,0,2.89.49,3.81,1.46s1.38,2.38,1.38,4.21c0,.12,0,.27-.01.43s-.02.29-.04.36h-8.47c0,.77.13,1.48.37,2.13.24.65.62,1.17,1.14,1.56.52.39,1.21.59,2.06.59.91,0,1.62-.21,2.14-.64.51-.43.78-1.04.81-1.85h2.01c-.02.84-.24,1.56-.65,2.17-.41.61-.98,1.07-1.71,1.4-.73.33-1.6.49-2.6.49ZM323.65,150.3h6.49c-.02-1.11-.31-1.95-.87-2.54-.55-.59-1.32-.88-2.31-.88s-1.77.29-2.34.87c-.57.58-.89,1.43-.98,2.55Z"/>
    <path d="M335.44,157.42v-11.89h1.92l.07,2.03c.33-.62.8-1.13,1.39-1.55s1.37-.62,2.32-.62h.24v1.87h-.28c-.59,0-1.11.08-1.56.23-.45.16-.84.37-1.17.64-.33.27-.63.59-.89.95v8.35h-2.04Z"/>
    <path d="M349.06,157.42v-16.43h2.25l9.01,13.07v-13.07h2.09v16.43h-2.25l-9.02-13.1v13.1h-2.08Z"/>
    <path d="M371.47,157.64c-1.29,0-2.35-.27-3.18-.81-.83-.54-1.44-1.28-1.84-2.21-.4-.93-.6-1.98-.6-3.14s.19-2.28.58-3.21c.39-.92.98-1.65,1.77-2.17.79-.52,1.8-.78,3.02-.78,1.62,0,2.89.49,3.81,1.46s1.38,2.38,1.38,4.21c0,.12,0,.27-.01.43s-.02.29-.04.36h-8.47c0,.77.13,1.48.37,2.13.24.65.62,1.17,1.14,1.56.52.39,1.21.59,2.06.59.91,0,1.62-.21,2.14-.64.51-.43.78-1.04.81-1.85h2.01c-.02.84-.24,1.56-.65,2.17-.41.61-.98,1.07-1.71,1.4-.73.33-1.6.49-2.6.49ZM367.91,150.3h6.49c-.02-1.11-.31-1.95-.87-2.54-.55-.59-1.32-.88-2.31-.88s-1.77.29-2.34.87c-.57.58-.89,1.43-.98,2.55Z"/>
    <path d="M384.57,157.61c-1.16,0-2.16-.25-2.99-.74s-1.46-1.2-1.9-2.11c-.44-.92-.65-2-.65-3.26s.22-2.4.65-3.33c.43-.92,1.07-1.63,1.9-2.13.83-.5,1.83-.74,2.99-.74s2.2.25,3.05.74c.84.5,1.49,1.21,1.94,2.13.45.92.68,2.03.68,3.33s-.23,2.35-.68,3.26c-.45.92-1.1,1.62-1.94,2.11-.84.49-1.86.74-3.05.74ZM384.57,155.99c.88,0,1.58-.19,2.1-.58s.9-.92,1.12-1.6c.23-.68.34-1.45.34-2.31s-.11-1.66-.34-2.36c-.23-.69-.6-1.23-1.12-1.63-.52-.39-1.22-.59-2.1-.59s-1.53.2-2.03.59c-.5.4-.86.94-1.08,1.63-.22.69-.33,1.48-.33,2.36s.11,1.63.33,2.31c.22.68.58,1.21,1.08,1.6.5.39,1.18.58,2.03.58Z"/>
    <path d="M393.68,157.42v-16.43h2.25l9.01,13.07v-13.07h2.09v16.43h-2.25l-9.02-13.1v13.1h-2.08Z"/>
    <path d="M416.09,157.64c-1.29,0-2.35-.27-3.18-.81-.83-.54-1.44-1.28-1.84-2.21-.4-.93-.6-1.98-.6-3.14s.19-2.28.58-3.21c.39-.92.98-1.65,1.77-2.17.79-.52,1.8-.78,3.02-.78,1.62,0,2.89.49,3.81,1.46s1.38,2.38,1.38,4.21c0,.12,0,.27-.01.43s-.02.29-.04.36h-8.47c0,.77.13,1.48.37,2.13.24.65.62,1.17,1.14,1.56.52.39,1.21.59,2.06.59.91,0,1.62-.21,2.14-.64.51-.43.78-1.04.81-1.85h2.01c-.02.84-.24,1.56-.65,2.17-.41.61-.98,1.07-1.71,1.4-.73.33-1.6.49-2.6.49ZM412.53,150.3h6.49c-.02-1.11-.31-1.95-.87-2.54-.55-.59-1.32-.88-2.31-.88s-1.77.29-2.34.87c-.57.58-.89,1.43-.98,2.55Z"/>
    <path d="M424.32,161.79v-16.26h1.98l.06,1.94c.42-.63.97-1.15,1.64-1.55.67-.4,1.45-.6,2.34-.6.98,0,1.82.23,2.53.69.71.46,1.26,1.15,1.64,2.06.39.91.58,2.05.58,3.41s-.21,2.47-.62,3.39c-.41.92-.99,1.61-1.74,2.08-.75.47-1.63.7-2.64.7-.85,0-1.59-.17-2.22-.51-.63-.34-1.14-.8-1.53-1.38v6.04h-2.03ZM429.72,155.97c1.08,0,1.9-.39,2.45-1.17.55-.78.82-1.89.82-3.33s-.26-2.57-.77-3.34-1.27-1.16-2.26-1.16c-.87,0-1.61.23-2.2.7-.6.46-1.06,1-1.4,1.62v4.59c.33.62.76,1.12,1.32,1.51s1.23.58,2.04.58Z"/>
    <path d="M438.34,157.42v-16.43h2.03v6.37c.37-.48.89-.93,1.57-1.36.68-.43,1.55-.64,2.61-.64,1.33,0,2.29.38,2.88,1.15.58.77.87,1.85.87,3.25v7.67h-2.04v-7.38c0-.57-.06-1.08-.18-1.53-.12-.45-.34-.8-.65-1.06-.32-.26-.77-.38-1.37-.38-.89,0-1.63.2-2.23.6-.6.4-1.09.84-1.45,1.32v8.42h-2.04Z"/>
    <path d="M457,157.61c-1.16,0-2.16-.25-2.99-.74s-1.46-1.2-1.9-2.11c-.44-.92-.65-2-.65-3.26s.22-2.4.65-3.33c.43-.92,1.07-1.63,1.9-2.13.83-.5,1.83-.74,2.99-.74s2.2.25,3.05.74c.84.5,1.49,1.21,1.94,2.13.45.92.68,2.03.68,3.33s-.23,2.35-.68,3.26c-.45.92-1.1,1.62-1.94,2.11-.84.49-1.86.74-3.05.74ZM457,155.99c.88,0,1.58-.19,2.1-.58s.9-.92,1.12-1.6c.23-.68.34-1.45.34-2.31s-.11-1.66-.34-2.36c-.23-.69-.6-1.23-1.12-1.63-.52-.39-1.22-.59-2.1-.59s-1.53.2-2.03.59c-.5.4-.86.94-1.08,1.63-.22.69-.33,1.48-.33,2.36s.11,1.63.33,2.31c.22.68.58,1.21,1.08,1.6.5.39,1.18.58,2.03.58Z"/>
    <path d="M469.99,157.64c-.67,0-1.3-.07-1.9-.22-.6-.15-1.12-.38-1.58-.7-.46-.32-.81-.73-1.07-1.25-.26-.52-.38-1.14-.38-1.87h1.97c0,.93.29,1.58.86,1.96.57.38,1.29.57,2.15.57.77,0,1.41-.15,1.91-.45.5-.3.75-.79.75-1.47,0-.59-.23-1.02-.68-1.31-.45-.28-1.25-.56-2.39-.83-.93-.22-1.71-.47-2.34-.76s-1.11-.66-1.43-1.1-.48-1-.48-1.68c0-.53.11-1,.34-1.4.22-.4.54-.74.94-1.01.4-.27.88-.47,1.42-.6.54-.13,1.14-.2,1.77-.2s1.21.07,1.76.22c.55.15,1.03.37,1.45.68s.75.71,1,1.2.37,1.07.37,1.76h-1.98c0-.85-.25-1.44-.76-1.79-.5-.35-1.12-.52-1.84-.52s-1.33.13-1.78.39c-.46.26-.68.67-.68,1.22,0,.32.1.59.31.81s.54.42,1.03.59,1.13.36,1.94.56c.89.21,1.63.46,2.23.76s1.06.67,1.36,1.13c.3.46.46,1.05.46,1.76,0,.62-.12,1.15-.36,1.61-.24.45-.57.82-1,1.11-.43.29-.93.5-1.5.64-.57.14-1.19.21-1.86.21Z"/>
    <path d="M477.16,152.26v-1.81h6.09v1.81h-6.09Z"/>
    <path d="M490.99,157.64c-.97,0-1.81-.23-2.51-.7s-1.26-1.16-1.64-2.08c-.39-.92-.58-2.06-.58-3.42s.21-2.48.62-3.38.99-1.58,1.74-2.04c.75-.46,1.63-.69,2.65-.69.85,0,1.58.18,2.21.55.63.37,1.13.87,1.51,1.51v-6.4h2.04v16.43h-1.93l-.11-1.73c-.42.58-.97,1.05-1.63,1.41-.67.36-1.45.54-2.36.54ZM491.41,155.97c.87,0,1.59-.21,2.17-.62.58-.41,1.05-.9,1.4-1.48v-4.58c-.33-.67-.77-1.22-1.31-1.65-.54-.43-1.22-.65-2.04-.65-1.08,0-1.9.39-2.45,1.16-.55.77-.82,1.87-.82,3.3s.26,2.6.78,3.37c.52.77,1.28,1.16,2.28,1.16Z"/>
    <path d="M505.81,157.61c-1.16,0-2.16-.25-2.99-.74s-1.46-1.2-1.9-2.11c-.44-.92-.65-2-.65-3.26s.22-2.4.65-3.33c.43-.92,1.07-1.63,1.9-2.13.83-.5,1.83-.74,2.99-.74s2.2.25,3.05.74c.84.5,1.49,1.21,1.94,2.13.45.92.68,2.03.68,3.33s-.23,2.35-.68,3.26c-.45.92-1.1,1.62-1.94,2.11-.84.49-1.86.74-3.05.74ZM505.81,155.99c.88,0,1.58-.19,2.1-.58s.9-.92,1.12-1.6c.23-.68.34-1.45.34-2.31s-.11-1.66-.34-2.36c-.23-.69-.6-1.23-1.12-1.63-.52-.39-1.22-.59-2.1-.59s-1.53.2-2.03.59c-.5.4-.86.94-1.08,1.63-.22.69-.33,1.48-.33,2.36s.11,1.63.33,2.31c.22.68.58,1.21,1.08,1.6.5.39,1.18.58,2.03.58Z"/>
    <path d="M519.57,157.63c-1.07,0-2.03-.23-2.86-.68-.83-.45-1.48-1.13-1.95-2.04-.47-.91-.7-2.04-.7-3.41s.23-2.51.69-3.42c.46-.92,1.1-1.6,1.93-2.06s1.79-.69,2.89-.69c.92,0,1.75.15,2.48.45.74.3,1.32.75,1.76,1.36s.67,1.37.7,2.3h-2.01c-.05-.76-.33-1.37-.83-1.81-.5-.44-1.19-.66-2.06-.66-1.16,0-2.02.4-2.59,1.19-.57.79-.85,1.91-.85,3.34,0,.95.13,1.76.38,2.42.25.66.63,1.17,1.15,1.53.51.35,1.15.53,1.92.53.87,0,1.58-.23,2.12-.68.54-.45.83-1.11.85-1.98h2.01c-.02.96-.26,1.76-.7,2.4-.44.64-1.04,1.12-1.79,1.43s-1.6.48-2.53.48Z"/>
    <path d="M531.51,157.6c-1.38,0-2.37-.38-2.98-1.15s-.92-1.82-.92-3.16v-7.76h2.05v7.48c0,.54.06,1.02.18,1.44s.35.75.7.99c.34.24.83.35,1.48.35.9,0,1.64-.19,2.25-.56s1.09-.8,1.45-1.29v-8.42h2.05v11.89h-1.97l-.06-1.83c-.38.47-.92.93-1.62,1.36-.7.44-1.57.65-2.62.65Z"/>
    <path d="M541.7,157.42v-11.89h1.95l.07,1.83c.35-.48.86-.93,1.54-1.36.68-.43,1.52-.64,2.53-.64,1.32,0,2.27.39,2.84,1.16.58.77.87,1.85.87,3.23v7.67h-2.05v-7.37c0-.58-.06-1.09-.18-1.54-.12-.45-.34-.8-.65-1.06-.32-.26-.77-.38-1.37-.38-.84,0-1.55.2-2.12.6-.58.4-1.04.84-1.39,1.32v8.42h-2.04ZM557.18,157.42v-7.37c0-.58-.06-1.09-.18-1.54-.12-.45-.33-.8-.65-1.06-.32-.26-.77-.38-1.35-.38-.85,0-1.56.2-2.14.59-.58.4-1.05.83-1.43,1.31l-.31-1.49c.47-.52,1.07-1,1.79-1.45.72-.45,1.58-.67,2.59-.67,1.32,0,2.27.39,2.84,1.16.58.77.87,1.85.87,3.23v7.67h-2.04Z"/>
    <path d="M567.97,157.64c-1.29,0-2.35-.27-3.18-.81-.83-.54-1.44-1.28-1.84-2.21-.4-.93-.6-1.98-.6-3.14s.19-2.28.58-3.21c.39-.92.98-1.65,1.77-2.17.79-.52,1.8-.78,3.02-.78,1.62,0,2.89.49,3.81,1.46s1.38,2.38,1.38,4.21c0,.12,0,.27-.01.43s-.02.29-.04.36h-8.47c0,.77.13,1.48.37,2.13.24.65.62,1.17,1.14,1.56.52.39,1.21.59,2.06.59.91,0,1.62-.21,2.14-.64.51-.43.78-1.04.81-1.85h2.01c-.02.84-.24,1.56-.65,2.17-.41.61-.98,1.07-1.71,1.4-.73.33-1.6.49-2.6.49ZM564.41,150.3h6.49c-.02-1.11-.31-1.95-.87-2.54-.55-.59-1.32-.88-2.31-.88s-1.77.29-2.34.87c-.57.58-.89,1.43-.98,2.55Z"/>
    <path d="M576.2,157.42v-11.89h1.95l.07,1.83c.37-.48.89-.93,1.57-1.36.68-.43,1.56-.64,2.62-.64,1.3,0,2.25.38,2.84,1.15.59.77.89,1.85.89,3.24v7.67h-2.04v-7.37c0-.58-.06-1.09-.18-1.54-.12-.45-.34-.8-.65-1.06-.31-.26-.77-.38-1.36-.38-.89,0-1.63.2-2.23.6-.6.4-1.09.84-1.45,1.32v8.42h-2.04Z"/>
    <path d="M593.95,157.42c-.96,0-1.7-.15-2.21-.46-.51-.3-.86-.74-1.06-1.32-.19-.57-.29-1.26-.29-2.07v-6.4h-1.99v-1.65h1.99v-2.72h2.03v2.72h2.93v1.65h-2.93v6.3c0,.74.1,1.31.29,1.7.19.4.65.59,1.37.59h1.29v1.65h-1.43Z"/>
    <path d="M602.18,157.64c-.67,0-1.3-.07-1.9-.22-.6-.15-1.12-.38-1.58-.7-.46-.32-.81-.73-1.07-1.25-.26-.52-.38-1.14-.38-1.87h1.97c0,.93.29,1.58.86,1.96.57.38,1.29.57,2.15.57.77,0,1.41-.15,1.91-.45.5-.3.75-.79.75-1.47,0-.59-.23-1.02-.68-1.31-.45-.28-1.25-.56-2.39-.83-.93-.22-1.71-.47-2.34-.76s-1.11-.66-1.43-1.1-.48-1-.48-1.68c0-.53.11-1,.34-1.4.22-.4.54-.74.94-1.01.4-.27.88-.47,1.42-.6.54-.13,1.14-.2,1.77-.2s1.21.07,1.76.22c.55.15,1.03.37,1.45.68s.75.71,1,1.2.37,1.07.37,1.76h-1.98c0-.85-.25-1.44-.76-1.79-.5-.35-1.12-.52-1.84-.52s-1.33.13-1.78.39c-.46.26-.68.67-.68,1.22,0,.32.1.59.31.81s.54.42,1.03.59,1.13.36,1.94.56c.89.21,1.63.46,2.23.76s1.06.67,1.36,1.13c.3.46.46,1.05.46,1.76,0,.62-.12,1.15-.36,1.61-.24.45-.57.82-1,1.11-.43.29-.93.5-1.5.64-.57.14-1.19.21-1.86.21Z"/>
    <path d="M619.16,157.42c-.96,0-1.7-.15-2.21-.46-.51-.3-.86-.74-1.06-1.32-.19-.57-.29-1.26-.29-2.07v-6.4h-1.99v-1.65h1.99v-2.72h2.03v2.72h2.93v1.65h-2.93v6.3c0,.74.1,1.31.29,1.7.19.4.65.59,1.37.59h1.29v1.65h-1.43Z"/>
    <path d="M628.02,157.61c-1.16,0-2.16-.25-2.99-.74s-1.46-1.2-1.9-2.11c-.44-.92-.65-2-.65-3.26s.22-2.4.65-3.33c.43-.92,1.07-1.63,1.9-2.13.83-.5,1.83-.74,2.99-.74s2.2.25,3.05.74c.84.5,1.49,1.21,1.94,2.13.45.92.68,2.03.68,3.33s-.23,2.35-.68,3.26c-.45.92-1.1,1.62-1.94,2.11-.84.49-1.86.74-3.05.74ZM628.02,155.99c.88,0,1.58-.19,2.1-.58s.9-.92,1.12-1.6c.23-.68.34-1.45.34-2.31s-.11-1.66-.34-2.36c-.23-.69-.6-1.23-1.12-1.63-.52-.39-1.22-.59-2.1-.59s-1.53.2-2.03.59c-.5.4-.86.94-1.08,1.63-.22.69-.33,1.48-.33,2.36s.11,1.63.33,2.31c.22.68.58,1.21,1.08,1.6.5.39,1.18.58,2.03.58Z"/>
    <path d="M646.85,157.63c-1.07,0-2.03-.23-2.86-.68-.83-.45-1.48-1.13-1.95-2.04-.47-.91-.7-2.04-.7-3.41s.23-2.51.69-3.42c.46-.92,1.1-1.6,1.93-2.06s1.79-.69,2.89-.69c.92,0,1.75.15,2.48.45.74.3,1.32.75,1.76,1.36s.67,1.37.7,2.3h-2.01c-.05-.76-.33-1.37-.83-1.81-.5-.44-1.19-.66-2.06-.66-1.16,0-2.02.4-2.59,1.19-.57.79-.85,1.91-.85,3.34,0,.95.13,1.76.38,2.42.25.66.63,1.17,1.15,1.53.51.35,1.15.53,1.92.53.87,0,1.58-.23,2.12-.68.54-.45.83-1.11.85-1.98h2.01c-.02.96-.26,1.76-.7,2.4-.44.64-1.04,1.12-1.79,1.43s-1.6.48-2.53.48Z"/>
    <path d="M660.01,157.61c-1.16,0-2.16-.25-2.99-.74s-1.46-1.2-1.9-2.11c-.44-.92-.65-2-.65-3.26s.22-2.4.65-3.33c.43-.92,1.07-1.63,1.9-2.13.83-.5,1.83-.74,2.99-.74s2.2.25,3.05.74c.84.5,1.49,1.21,1.94,2.13.45.92.68,2.03.68,3.33s-.23,2.35-.68,3.26c-.45.92-1.1,1.62-1.94,2.11-.84.49-1.86.74-3.05.74ZM660.01,155.99c.88,0,1.58-.19,2.1-.58s.9-.92,1.12-1.6c.23-.68.34-1.45.34-2.31s-.11-1.66-.34-2.36c-.23-.69-.6-1.23-1.12-1.63-.52-.39-1.22-.59-2.1-.59s-1.53.2-2.03.59c-.5.4-.86.94-1.08,1.63-.22.69-.33,1.48-.33,2.36s.11,1.63.33,2.31c.22.68.58,1.21,1.08,1.6.5.39,1.18.58,2.03.58Z"/>
    <path d="M668.94,157.42v-11.89h1.95l.07,1.83c.35-.48.86-.93,1.54-1.36.68-.43,1.52-.64,2.53-.64,1.32,0,2.27.39,2.84,1.16.58.77.87,1.85.87,3.23v7.67h-2.05v-7.37c0-.58-.06-1.09-.18-1.54-.12-.45-.34-.8-.65-1.06-.32-.26-.77-.38-1.37-.38-.84,0-1.55.2-2.12.6-.58.4-1.04.84-1.39,1.32v8.42h-2.04ZM684.41,157.42v-7.37c0-.58-.06-1.09-.18-1.54-.12-.45-.33-.8-.65-1.06-.32-.26-.77-.38-1.35-.38-.85,0-1.56.2-2.14.59-.58.4-1.05.83-1.43,1.31l-.31-1.49c.47-.52,1.07-1,1.79-1.45.72-.45,1.58-.67,2.59-.67,1.32,0,2.27.39,2.84,1.16.58.77.87,1.85.87,3.23v7.67h-2.04Z"/>
    <path d="M695.21,157.64c-1.29,0-2.35-.27-3.18-.81-.83-.54-1.44-1.28-1.84-2.21-.4-.93-.6-1.98-.6-3.14s.19-2.28.58-3.21c.39-.92.98-1.65,1.77-2.17.79-.52,1.8-.78,3.02-.78,1.62,0,2.89.49,3.81,1.46s1.38,2.38,1.38,4.21c0,.12,0,.27-.01.43s-.02.29-.04.36h-8.47c0,.77.13,1.48.37,2.13.24.65.62,1.17,1.14,1.56.52.39,1.21.59,2.06.59.91,0,1.62-.21,2.14-.64.51-.43.78-1.04.81-1.85h2.01c-.02.84-.24,1.56-.65,2.17-.41.61-.98,1.07-1.71,1.4-.73.33-1.6.49-2.6.49ZM691.64,150.3h6.49c-.02-1.11-.31-1.95-.87-2.54-.55-.59-1.32-.88-2.31-.88s-1.77.29-2.34.87c-.57.58-.89,1.43-.98,2.55Z"/>
    <path d="M705.15,157.54c-.46,0-.83-.15-1.13-.45-.3-.3-.45-.66-.45-1.09s.15-.8.45-1.09c.3-.29.67-.43,1.13-.43s.8.14,1.09.43c.29.29.43.65.43,1.09s-.15.8-.43,1.09c-.29.3-.65.45-1.09.45ZM704.56,152.38c-.13-.94-.24-2.01-.33-3.21-.09-1.19-.14-2.39-.14-3.58v-4.6h2.14v4.6c0,1.2-.05,2.39-.14,3.59-.09,1.2-.21,2.26-.35,3.2h-1.17Z"/>
  </g>
  <g>
    <path d="M47.76,191.01c-1.72,0-3.17-.35-4.36-1.04-1.19-.7-2.1-1.67-2.72-2.93-.62-1.26-.93-2.74-.93-4.45s.31-3.2.93-4.46c.62-1.26,1.52-2.25,2.72-2.94,1.19-.7,2.65-1.04,4.36-1.04s3.17.35,4.36,1.04c1.19.7,2.09,1.68,2.71,2.94.62,1.27.93,2.75.93,4.46s-.31,3.19-.93,4.45c-.62,1.26-1.52,2.23-2.71,2.93-1.19.7-2.64,1.04-4.36,1.04ZM47.76,188.16c1.07,0,1.92-.25,2.58-.76.65-.5,1.13-1.18,1.43-2.03.3-.85.45-1.77.45-2.78s-.15-1.96-.45-2.81c-.3-.85-.78-1.52-1.43-2.03-.65-.5-1.51-.76-2.58-.76s-1.94.25-2.59.76c-.66.5-1.13,1.18-1.43,2.03-.3.85-.45,1.78-.45,2.81s.15,1.94.45,2.78c.3.85.77,1.52,1.43,2.03.66.5,1.52.76,2.59.76Z"/>
    <path d="M62.38,190.95c-1.21,0-2.14-.37-2.8-1.12-.66-.75-.99-1.8-.99-3.18v-7.78h3.24v7.39c0,.41.06.77.18,1.08s.31.56.59.73.63.26,1.08.26c.65,0,1.21-.14,1.67-.43.46-.29.86-.64,1.2-1.06v-7.96h3.23v11.91h-3.12l-.05-1.79c-.4.5-.94.96-1.63,1.35-.69.4-1.55.6-2.59.6Z"/>
    <path d="M73.25,190.79v-11.91h3.1l.06,2.06c.31-.72.77-1.27,1.39-1.65.62-.38,1.37-.57,2.25-.57h.24v2.72h-.31c-.48,0-.94.04-1.38.13-.44.09-.84.23-1.2.44-.36.21-.67.5-.93.86v7.92h-3.24Z"/>
    <path d="M87.55,190.79v-11.91h3.11l.06,1.78c.39-.51.93-.97,1.62-1.36.69-.39,1.54-.59,2.55-.59,1.2,0,2.11.38,2.75,1.13.64.75.96,1.82.96,3.21v7.75h-3.24v-7.34c0-.43-.06-.81-.18-1.14-.12-.33-.31-.58-.57-.76-.26-.18-.61-.27-1.03-.27-.63,0-1.16.15-1.61.45s-.84.67-1.18,1.1v7.95h-3.24ZM103.19,190.79v-7.34c0-.43-.06-.81-.18-1.14-.12-.33-.31-.58-.57-.76-.26-.18-.61-.27-1.03-.27-.63,0-1.17.14-1.62.42-.45.28-.86.62-1.21,1.04l-.39-2c.51-.54,1.14-1.02,1.89-1.43.74-.41,1.62-.61,2.63-.61,1.19,0,2.11.38,2.75,1.13.65.75.97,1.82.97,3.21v7.75h-3.23Z"/>
    <path d="M111.4,177.32c-.59,0-1.05-.15-1.36-.45-.31-.3-.47-.68-.47-1.12s.16-.83.47-1.13c.31-.3.77-.45,1.36-.45s1.05.15,1.36.45c.31.3.47.67.47,1.13s-.16.82-.47,1.12-.77.45-1.36.45ZM109.78,190.79v-11.91h3.24v11.91h-3.24Z"/>
    <path d="M121.27,191.01c-.66,0-1.31-.06-1.94-.18s-1.21-.33-1.72-.63-.92-.7-1.22-1.21-.45-1.15-.45-1.92h3c0,.67.23,1.13.7,1.39s1.02.39,1.64.39,1.1-.1,1.44-.3c.34-.2.51-.53.51-1.01,0-.45-.2-.78-.6-1-.4-.22-1.11-.44-2.12-.67-.85-.2-1.6-.45-2.26-.74-.66-.29-1.18-.67-1.56-1.16-.38-.48-.56-1.12-.56-1.91,0-.62.14-1.14.43-1.58.29-.43.67-.78,1.14-1.04.48-.26,1.01-.46,1.61-.58.6-.12,1.21-.18,1.84-.18s1.21.06,1.79.18,1.11.33,1.59.62c.47.29.85.68,1.14,1.17s.43,1.1.43,1.83h-3c0-.61-.19-1.03-.58-1.27-.39-.24-.84-.35-1.36-.35-.56,0-1,.08-1.32.24-.32.16-.48.43-.48.81,0,.22.1.41.3.58.2.17.53.32.98.46.45.14,1.04.29,1.77.46.77.18,1.46.41,2.08.7.61.29,1.09.67,1.45,1.15.36.48.54,1.1.54,1.87,0,.72-.15,1.32-.43,1.82-.29.5-.68.9-1.16,1.2-.48.31-1.04.53-1.66.67-.62.14-1.27.21-1.93.21Z"/>
    <path d="M133.69,191.01c-.66,0-1.31-.06-1.94-.18s-1.21-.33-1.72-.63-.92-.7-1.22-1.21-.45-1.15-.45-1.92h3c0,.67.23,1.13.7,1.39s1.02.39,1.64.39,1.1-.1,1.44-.3c.34-.2.51-.53.51-1.01,0-.45-.2-.78-.6-1-.4-.22-1.11-.44-2.12-.67-.85-.2-1.6-.45-2.26-.74-.66-.29-1.18-.67-1.56-1.16-.38-.48-.56-1.12-.56-1.91,0-.62.14-1.14.43-1.58.29-.43.67-.78,1.14-1.04.48-.26,1.01-.46,1.61-.58.6-.12,1.21-.18,1.84-.18s1.21.06,1.79.18,1.11.33,1.59.62c.47.29.85.68,1.14,1.17s.43,1.1.43,1.83h-3c0-.61-.19-1.03-.58-1.27-.39-.24-.84-.35-1.36-.35-.56,0-1,.08-1.32.24-.32.16-.48.43-.48.81,0,.22.1.41.3.58.2.17.53.32.98.46.45.14,1.04.29,1.77.46.77.18,1.46.41,2.08.7.61.29,1.09.67,1.45,1.15.36.48.54,1.1.54,1.87,0,.72-.15,1.32-.43,1.82-.29.5-.68.9-1.16,1.2-.48.31-1.04.53-1.66.67-.62.14-1.27.21-1.93.21Z"/>
    <path d="M143.42,177.32c-.59,0-1.05-.15-1.36-.45-.31-.3-.47-.68-.47-1.12s.16-.83.47-1.13c.31-.3.77-.45,1.36-.45s1.05.15,1.36.45c.31.3.47.67.47,1.13s-.16.82-.47,1.12-.77.45-1.36.45ZM141.8,190.79v-11.91h3.24v11.91h-3.24Z"/>
    <path d="M153.91,190.99c-1.2,0-2.26-.24-3.17-.72-.91-.48-1.61-1.18-2.11-2.09-.5-.91-.74-2.01-.74-3.31s.25-2.44.74-3.36c.5-.92,1.2-1.63,2.11-2.11.91-.48,1.96-.73,3.17-.73s2.29.24,3.19.73c.91.48,1.61,1.19,2.12,2.11s.76,2.04.76,3.36-.25,2.4-.76,3.31c-.5.91-1.21,1.61-2.12,2.09s-1.97.72-3.19.72ZM153.91,188.52c.71,0,1.26-.17,1.67-.49.4-.33.69-.77.85-1.32.17-.55.25-1.16.25-1.83s-.08-1.31-.25-1.87c-.17-.56-.45-1.01-.85-1.34-.4-.33-.96-.5-1.67-.5s-1.23.17-1.63.5c-.4.33-.67.78-.84,1.34-.16.56-.24,1.18-.24,1.87s.08,1.28.24,1.83c.16.55.44.99.84,1.32.39.33.94.49,1.63.49Z"/>
    <path d="M162.83,190.79v-11.91h3.11l.06,1.78c.4-.51.92-.97,1.58-1.36.65-.39,1.5-.59,2.54-.59,1.21,0,2.15.37,2.82,1.1.67.74,1,1.81,1,3.23v7.75h-3.21v-7.34c0-.43-.06-.81-.18-1.14-.12-.33-.32-.58-.58-.76-.26-.18-.61-.27-1.04-.27-.64,0-1.19.15-1.65.45-.46.3-.86.67-1.2,1.1v7.95h-3.24Z"/>
    <path d="M177.54,194.58l-.44-1.6c.57-.18,1.03-.45,1.39-.8.36-.36.57-.82.65-1.39l.21.17c-.63,0-1.13-.19-1.52-.58-.39-.39-.58-.86-.58-1.41,0-.6.19-1.08.58-1.44s.89-.54,1.52-.54,1.11.21,1.48.64c.38.43.57,1.06.57,1.91,0,1-.19,1.85-.57,2.55-.38.7-.86,1.25-1.45,1.65-.59.41-1.2.68-1.84.83Z"/>
    <path d="M191.95,190.79l-3.75-11.91h3.28l2.29,8.41,2.29-8.41h3.39l2.34,8.4,2.26-8.4h3.06l-3.75,11.91h-3.31l-2.4-8.57-2.43,8.57h-3.29Z"/>
    <path d="M208.91,190.79v-16.43h3.17v6.3c.4-.51.92-.97,1.58-1.36.65-.39,1.49-.59,2.51-.59,1.24,0,2.19.36,2.85,1.09s1,1.81,1,3.24v7.75h-3.23v-7.35c0-.42-.06-.8-.18-1.12-.12-.33-.31-.58-.57-.76-.26-.18-.61-.27-1.04-.27-.64,0-1.19.15-1.65.45-.46.3-.86.67-1.2,1.1v7.95h-3.24Z"/>
    <path d="M228.8,190.99c-1.2,0-2.26-.24-3.17-.72-.91-.48-1.61-1.18-2.11-2.09-.5-.91-.74-2.01-.74-3.31s.25-2.44.74-3.36c.5-.92,1.2-1.63,2.11-2.11.91-.48,1.96-.73,3.17-.73s2.29.24,3.19.73c.91.48,1.61,1.19,2.12,2.11s.76,2.04.76,3.36-.25,2.4-.76,3.31c-.5.91-1.21,1.61-2.12,2.09s-1.97.72-3.19.72ZM228.8,188.52c.71,0,1.26-.17,1.67-.49.4-.33.69-.77.85-1.32.17-.55.25-1.16.25-1.83s-.08-1.31-.25-1.87c-.17-.56-.45-1.01-.85-1.34-.4-.33-.96-.5-1.67-.5s-1.23.17-1.63.5c-.4.33-.67.78-.84,1.34-.16.56-.24,1.18-.24,1.87s.08,1.28.24,1.83c.16.55.44.99.84,1.32.39.33.94.49,1.63.49Z"/>
    <path d="M244.86,190.79l-3.75-11.91h3.28l2.29,8.41,2.29-8.41h3.39l2.34,8.4,2.26-8.4h3.06l-3.75,11.91h-3.31l-2.4-8.57-2.43,8.57h-3.29Z"/>
    <path d="M267.07,191.01c-1.33,0-2.44-.25-3.35-.74-.9-.49-1.59-1.2-2.05-2.13-.46-.93-.7-2.04-.7-3.34s.23-2.35.68-3.26c.45-.91,1.11-1.61,1.99-2.11s1.95-.74,3.23-.74c1.77,0,3.17.52,4.21,1.56,1.03,1.04,1.54,2.52,1.54,4.44,0,.1,0,.23-.01.4,0,.17-.02.3-.04.38h-8.36c.02.56.12,1.09.31,1.58s.5.88.91,1.18c.42.3.96.45,1.64.45s1.26-.15,1.68-.46c.42-.3.64-.76.65-1.36h3.19c-.04.93-.3,1.7-.76,2.32s-1.11,1.08-1.92,1.38c-.81.31-1.76.46-2.84.46ZM264.25,183.42h5.16c-.03-.83-.27-1.45-.74-1.86s-1.07-.62-1.8-.62-1.36.21-1.84.63c-.48.42-.74,1.04-.79,1.84Z"/>
    <path d="M283.82,191c-.68,0-1.31-.13-1.89-.39-.59-.26-1.06-.65-1.42-1.18-.36-.52-.54-1.18-.54-1.97,0-1.1.33-1.93.99-2.48.66-.56,1.58-.94,2.77-1.14,1.18-.2,2.56-.31,4.13-.35v-.63c0-.77-.19-1.3-.56-1.59-.37-.28-.85-.43-1.43-.43-.64,0-1.17.15-1.59.46-.41.31-.62.8-.62,1.48h-3.03c0-1.02.22-1.82.67-2.42.44-.59,1.06-1.02,1.84-1.28.79-.26,1.69-.39,2.73-.39.76,0,1.45.06,2.07.19.63.13,1.17.34,1.63.65.46.31.82.73,1.07,1.26s.38,1.2.38,2v8h-3.03l-.1-1.55c-.5.58-1.09,1.01-1.76,1.31-.67.3-1.44.45-2.31.45ZM284.88,188.78c.61,0,1.17-.16,1.69-.48.52-.32.93-.68,1.24-1.09v-1.93c-1.71,0-2.91.17-3.59.48-.68.31-1.03.82-1.03,1.52,0,.5.16.88.47,1.12.31.24.72.37,1.21.37Z"/>
    <path d="M294.36,190.79v-11.91h3.1l.06,2.06c.31-.72.77-1.27,1.39-1.65.62-.38,1.37-.57,2.25-.57h.24v2.72h-.31c-.48,0-.94.04-1.38.13-.44.09-.84.23-1.2.44-.36.21-.67.5-.93.86v7.92h-3.24Z"/>
    <path d="M308.79,191.01c-1.33,0-2.44-.25-3.35-.74-.9-.49-1.59-1.2-2.05-2.13-.46-.93-.7-2.04-.7-3.34s.23-2.35.68-3.26c.45-.91,1.11-1.61,1.99-2.11s1.95-.74,3.23-.74c1.77,0,3.17.52,4.21,1.56,1.03,1.04,1.54,2.52,1.54,4.44,0,.1,0,.23-.01.4,0,.17-.02.3-.04.38h-8.36c.02.56.12,1.09.31,1.58s.5.88.91,1.18c.42.3.96.45,1.64.45s1.26-.15,1.68-.46c.42-.3.64-.76.65-1.36h3.19c-.04.93-.3,1.7-.76,2.32s-1.11,1.08-1.92,1.38c-.81.31-1.76.46-2.84.46ZM305.97,183.42h5.16c-.03-.83-.27-1.45-.74-1.86s-1.07-.62-1.8-.62-1.36.21-1.84.63c-.48.42-.74,1.04-.79,1.84Z"/>
    <path d="M325.54,191c-.68,0-1.31-.13-1.89-.39-.59-.26-1.06-.65-1.42-1.18-.36-.52-.54-1.18-.54-1.97,0-1.1.33-1.93.99-2.48.66-.56,1.58-.94,2.77-1.14,1.18-.2,2.56-.31,4.13-.35v-.63c0-.77-.19-1.3-.56-1.59-.37-.28-.85-.43-1.43-.43-.64,0-1.17.15-1.59.46-.41.31-.62.8-.62,1.48h-3.03c0-1.02.22-1.82.67-2.42.44-.59,1.06-1.02,1.84-1.28.79-.26,1.69-.39,2.73-.39.76,0,1.45.06,2.07.19.63.13,1.17.34,1.63.65.46.31.82.73,1.07,1.26s.38,1.2.38,2v8h-3.03l-.1-1.55c-.5.58-1.09,1.01-1.76,1.31-.67.3-1.44.45-2.31.45ZM326.6,188.78c.61,0,1.17-.16,1.69-.48.52-.32.93-.68,1.24-1.09v-1.93c-1.71,0-2.91.17-3.59.48-.68.31-1.03.82-1.03,1.52,0,.5.16.88.47,1.12.31.24.72.37,1.21.37Z"/>
    <path d="M336.09,190.79v-11.91h3.11l.06,1.78c.4-.51.92-.97,1.58-1.36.65-.39,1.5-.59,2.54-.59,1.21,0,2.15.37,2.82,1.1.67.74,1,1.81,1,3.23v7.75h-3.21v-7.34c0-.43-.06-.81-.18-1.14-.12-.33-.32-.58-.58-.76-.26-.18-.61-.27-1.04-.27-.64,0-1.19.15-1.65.45-.46.3-.86.67-1.2,1.1v7.95h-3.24Z"/>
    <path d="M354.67,191c-.9,0-1.7-.22-2.41-.67-.71-.45-1.27-1.13-1.68-2.06s-.62-2.1-.62-3.52.22-2.51.67-3.41c.44-.89,1.04-1.56,1.8-2s1.61-.66,2.55-.66c.83,0,1.54.17,2.14.51s1.07.79,1.42,1.34v-6.18h3.24v16.43h-3.1l-.13-1.7c-.42.59-.95,1.05-1.58,1.39-.63.34-1.39.51-2.28.51ZM355.62,188.54c.68,0,1.27-.19,1.77-.57.5-.38.88-.83,1.14-1.34v-3.48c-.25-.54-.61-1-1.06-1.4-.46-.4-1.02-.6-1.69-.6-.8,0-1.42.31-1.86.93s-.66,1.51-.66,2.69c0,1.29.21,2.24.63,2.86s1,.93,1.73.93Z"/>
    <path d="M370.29,190.79v-16.43h3.17v6.3c.4-.51.92-.97,1.58-1.36.65-.39,1.49-.59,2.51-.59,1.24,0,2.19.36,2.85,1.09s1,1.81,1,3.24v7.75h-3.23v-7.35c0-.42-.06-.8-.18-1.12-.12-.33-.31-.58-.57-.76-.26-.18-.61-.27-1.04-.27-.64,0-1.19.15-1.65.45-.46.3-.86.67-1.2,1.1v7.95h-3.24Z"/>
    <path d="M390.18,190.99c-1.2,0-2.26-.24-3.17-.72-.91-.48-1.61-1.18-2.11-2.09-.5-.91-.74-2.01-.74-3.31s.25-2.44.74-3.36c.5-.92,1.2-1.63,2.11-2.11.91-.48,1.96-.73,3.17-.73s2.29.24,3.19.73c.91.48,1.61,1.19,2.12,2.11s.76,2.04.76,3.36-.25,2.4-.76,3.31c-.5.91-1.21,1.61-2.12,2.09s-1.97.72-3.19.72ZM390.18,188.52c.71,0,1.26-.17,1.67-.49.4-.33.69-.77.85-1.32.17-.55.25-1.16.25-1.83s-.08-1.31-.25-1.87c-.17-.56-.45-1.01-.85-1.34-.4-.33-.96-.5-1.67-.5s-1.23.17-1.63.5c-.4.33-.67.78-.84,1.34-.16.56-.24,1.18-.24,1.87s.08,1.28.24,1.83c.16.55.44.99.84,1.32.39.33.94.49,1.63.49Z"/>
    <path d="M400.92,190.79l-3.75-11.91h3.28l2.29,8.41,2.29-8.41h3.39l2.34,8.4,2.26-8.4h3.06l-3.75,11.91h-3.31l-2.4-8.57-2.43,8.57h-3.29Z"/>
    <path d="M425.03,190.79l-3.75-11.91h3.28l2.29,8.41,2.29-8.41h3.39l2.34,8.4,2.26-8.4h3.06l-3.75,11.91h-3.31l-2.4-8.57-2.43,8.57h-3.29Z"/>
    <path d="M447.23,191.01c-1.33,0-2.44-.25-3.35-.74-.9-.49-1.59-1.2-2.05-2.13-.46-.93-.7-2.04-.7-3.34s.23-2.35.68-3.26c.45-.91,1.11-1.61,1.99-2.11s1.95-.74,3.23-.74c1.77,0,3.17.52,4.21,1.56,1.03,1.04,1.54,2.52,1.54,4.44,0,.1,0,.23-.01.4,0,.17-.02.3-.04.38h-8.36c.02.56.12,1.09.31,1.58s.5.88.91,1.18c.42.3.96.45,1.64.45s1.26-.15,1.68-.46c.42-.3.64-.76.65-1.36h3.19c-.04.93-.3,1.7-.76,2.32s-1.11,1.08-1.92,1.38c-.81.31-1.76.46-2.84.46ZM444.41,183.42h5.16c-.03-.83-.27-1.45-.74-1.86s-1.07-.62-1.8-.62-1.36.21-1.84.63c-.48.42-.74,1.04-.79,1.84Z"/>
    <path d="M461.25,190.79v-9.42h-1.98v-2.49h1.98v-.38c0-.72.07-1.34.21-1.86.14-.52.38-.95.71-1.29.34-.33.8-.58,1.4-.75.59-.16,1.35-.24,2.26-.24h1.18v2.34h-1.07c-.62,0-1.02.14-1.19.43s-.26.74-.26,1.37v.38h2.54v2.49h-2.54v9.42h-3.23ZM470.73,177.32c-.59,0-1.05-.15-1.36-.45-.31-.3-.47-.68-.47-1.12s.16-.83.47-1.13c.31-.3.77-.45,1.36-.45s1.05.15,1.36.45c.31.3.47.67.47,1.13s-.16.82-.47,1.12-.77.45-1.36.45ZM469.11,190.79v-11.91h3.23v11.91h-3.23Z"/>
    <path d="M480.95,190.79c-1.21,0-2.14-.14-2.8-.43-.66-.29-1.12-.74-1.39-1.34-.26-.61-.39-1.4-.39-2.37v-5.27h-1.98v-2.49h1.98v-2.81h3.23v2.81h2.6v2.49h-2.6v5.08c0,.63.09,1.09.26,1.39.17.3.57.45,1.19.45h1.15v2.5h-1.26Z"/>
    <path d="M491.45,177.32c-.59,0-1.05-.15-1.36-.45-.31-.3-.47-.68-.47-1.12s.16-.83.47-1.13c.31-.3.77-.45,1.36-.45s1.05.15,1.36.45c.31.3.47.67.47,1.13s-.16.82-.47,1.12-.77.45-1.36.45ZM489.82,190.79v-11.91h3.24v11.91h-3.24Z"/>
    <path d="M496.52,190.79v-11.91h3.11l.06,1.78c.4-.51.92-.97,1.58-1.36.65-.39,1.5-.59,2.54-.59,1.21,0,2.15.37,2.82,1.1.67.74,1,1.81,1,3.23v7.75h-3.21v-7.34c0-.43-.06-.81-.18-1.14-.12-.33-.32-.58-.58-.76-.26-.18-.61-.27-1.04-.27-.64,0-1.19.15-1.65.45-.46.3-.86.67-1.2,1.1v7.95h-3.24Z"/>
    <path d="M516.09,190.79c-1.21,0-2.14-.14-2.8-.43-.66-.29-1.12-.74-1.39-1.34-.26-.61-.39-1.4-.39-2.37v-5.27h-1.98v-2.49h1.98v-2.81h3.23v2.81h2.6v2.49h-2.6v5.08c0,.63.09,1.09.26,1.39.17.3.57.45,1.19.45h1.15v2.5h-1.26Z"/>
    <path d="M525.17,190.99c-1.2,0-2.26-.24-3.17-.72-.91-.48-1.61-1.18-2.11-2.09-.5-.91-.74-2.01-.74-3.31s.25-2.44.74-3.36c.5-.92,1.2-1.63,2.11-2.11.91-.48,1.96-.73,3.17-.73s2.29.24,3.19.73c.91.48,1.61,1.19,2.12,2.11s.76,2.04.76,3.36-.25,2.4-.76,3.31c-.5.91-1.21,1.61-2.12,2.09s-1.97.72-3.19.72ZM525.17,188.52c.71,0,1.26-.17,1.67-.49.4-.33.69-.77.85-1.32.17-.55.25-1.16.25-1.83s-.08-1.31-.25-1.87c-.17-.56-.45-1.01-.85-1.34-.4-.33-.96-.5-1.67-.5s-1.23.17-1.63.5c-.4.33-.67.78-.84,1.34-.16.56-.24,1.18-.24,1.87s.08,1.28.24,1.83c.16.55.44.99.84,1.32.39.33.94.49,1.63.49Z"/>
    <path d="M45.36,220.8c-1.21,0-2.14-.14-2.8-.43-.66-.29-1.12-.74-1.39-1.34-.26-.61-.39-1.4-.39-2.37v-5.27h-1.98v-2.49h1.98v-2.81h3.23v2.81h2.6v2.49h-2.6v5.08c0,.63.09,1.09.26,1.39s.57.45,1.19.45h1.15v2.5h-1.26Z"/>
    <path d="M49.16,220.8v-16.43h3.17v6.3c.4-.51.92-.97,1.58-1.36.65-.39,1.49-.59,2.51-.59,1.24,0,2.19.36,2.85,1.09s1,1.81,1,3.24v7.75h-3.23v-7.35c0-.42-.06-.8-.18-1.12s-.31-.58-.57-.76-.61-.27-1.04-.27c-.64,0-1.19.15-1.65.45-.46.3-.86.67-1.2,1.1v7.95h-3.24Z"/>
    <path d="M69.12,221.02c-1.33,0-2.44-.25-3.35-.74-.9-.49-1.59-1.2-2.05-2.13-.46-.93-.7-2.04-.7-3.35s.23-2.35.68-3.26c.45-.91,1.11-1.61,1.99-2.11s1.95-.74,3.23-.74c1.77,0,3.17.52,4.21,1.56,1.03,1.04,1.54,2.52,1.54,4.44,0,.1,0,.23-.01.4,0,.17-.02.29-.04.38h-8.36c.02.56.12,1.09.31,1.57s.5.88.91,1.18c.42.3.96.45,1.64.45s1.26-.15,1.68-.46c.42-.3.64-.76.65-1.36h3.19c-.04.93-.3,1.7-.76,2.32-.47.62-1.11,1.08-1.92,1.38-.81.31-1.76.46-2.84.46ZM66.3,213.42h5.16c-.03-.83-.27-1.45-.74-1.86s-1.07-.62-1.8-.62-1.36.21-1.84.63c-.48.42-.74,1.04-.79,1.84Z"/>
    <path d="M89.41,221.02c-.87,0-1.59-.17-2.15-.5-.56-.33-1.04-.79-1.44-1.38l-.13,1.66h-3.06v-16.43h3.24v6.23c.42-.58.94-1.04,1.55-1.39.61-.35,1.36-.52,2.26-.52s1.72.22,2.44.67c.72.44,1.28,1.12,1.7,2.03.42.91.62,2.07.62,3.47s-.22,2.56-.67,3.47c-.44.91-1.04,1.59-1.8,2.03-.76.44-1.61.67-2.55.67ZM88.6,218.54c.79,0,1.41-.31,1.85-.93.44-.62.67-1.52.67-2.7,0-1.28-.21-2.23-.63-2.85-.42-.62-1-.93-1.75-.93-.67,0-1.25.2-1.75.6-.5.4-.88.87-1.13,1.4v3.49c.24.51.59.96,1.06,1.34.47.38,1.03.57,1.69.57Z"/>
    <path d="M98.9,207.32c-.59,0-1.05-.15-1.36-.45-.31-.3-.47-.68-.47-1.12s.16-.83.47-1.13c.31-.3.77-.45,1.36-.45s1.05.15,1.36.45c.31.3.47.67.47,1.13s-.16.82-.47,1.12c-.31.3-.77.45-1.36.45ZM97.28,220.8v-11.91h3.24v11.91h-3.24Z"/>
    <path d="M108.67,225.4c-1.42,0-2.56-.15-3.39-.44s-1.44-.68-1.81-1.15c-.37-.48-.55-.99-.55-1.54,0-.68.32-1.27.96-1.78.64-.51,1.66-.86,3.05-1.07l.54-1.15h1.61c1.98,0,3.42.27,4.33.82s1.36,1.38,1.36,2.5-.52,2.06-1.56,2.76c-1.04.7-2.56,1.05-4.54,1.05ZM106.98,220.53c-.85-.1-1.55-.27-2.08-.52s-.92-.54-1.16-.86c-.24-.33-.37-.65-.37-.96,0-.5.19-.92.57-1.26.38-.35.95-.65,1.71-.91l1.68.61c-.44.11-.81.23-1.1.38s-.44.33-.44.56c0,.15.09.28.26.39.17.11.48.18.92.24.44.05,1.04.08,1.8.08l-1.81,2.26ZM108.45,217c-1.07,0-1.99-.19-2.75-.57-.76-.38-1.33-.89-1.72-1.51s-.59-1.3-.59-2.03c0-.77.2-1.47.59-2.09.39-.62.97-1.12,1.74-1.5.77-.37,1.7-.56,2.8-.56s2.07.19,2.81.56c.75.37,1.3.87,1.67,1.5.37.62.56,1.32.56,2.09s-.19,1.42-.57,2.05c-.38.63-.94,1.13-1.7,1.5-.75.37-1.7.56-2.85.56ZM108.62,223.37c1.09,0,1.86-.14,2.31-.43.45-.29.67-.63.67-1.04,0-.26-.08-.48-.23-.66-.16-.18-.41-.32-.77-.41s-.83-.15-1.43-.15h-2.17c-.32.12-.58.29-.77.52-.2.22-.3.48-.3.77,0,.34.21.66.63.95.42.29,1.11.44,2.06.44ZM108.45,215.06c.6,0,1.1-.18,1.51-.56.4-.37.6-.91.6-1.62,0-.75-.19-1.31-.56-1.67-.38-.37-.86-.55-1.46-.55s-1.12.19-1.51.57c-.4.38-.6.93-.6,1.65s.21,1.26.62,1.62c.41.37.88.55,1.41.55ZM111.86,210.54l-.95-1.21c.32-.85.81-1.42,1.47-1.73.66-.31,1.46-.47,2.4-.48v2.36c-.63,0-1.21.06-1.74.18-.53.12-.92.41-1.18.88Z"/>
    <path d="M121.66,225.4c-1.42,0-2.56-.15-3.39-.44s-1.44-.68-1.81-1.15c-.37-.48-.55-.99-.55-1.54,0-.68.32-1.27.96-1.78.64-.51,1.66-.86,3.05-1.07l.54-1.15h1.61c1.98,0,3.42.27,4.33.82s1.36,1.38,1.36,2.5-.52,2.06-1.56,2.76c-1.04.7-2.56,1.05-4.54,1.05ZM119.97,220.53c-.85-.1-1.55-.27-2.08-.52s-.92-.54-1.16-.86c-.24-.33-.37-.65-.37-.96,0-.5.19-.92.57-1.26.38-.35.95-.65,1.71-.91l1.68.61c-.44.11-.81.23-1.1.38s-.44.33-.44.56c0,.15.09.28.26.39.17.11.48.18.92.24.44.05,1.04.08,1.8.08l-1.81,2.26ZM121.44,217c-1.07,0-1.99-.19-2.75-.57-.76-.38-1.33-.89-1.72-1.51s-.59-1.3-.59-2.03c0-.77.2-1.47.59-2.09.39-.62.97-1.12,1.74-1.5.77-.37,1.7-.56,2.8-.56s2.07.19,2.81.56c.75.37,1.3.87,1.67,1.5.37.62.56,1.32.56,2.09s-.19,1.42-.57,2.05c-.38.63-.94,1.13-1.7,1.5-.75.37-1.7.56-2.85.56ZM121.61,223.37c1.09,0,1.86-.14,2.31-.43.45-.29.67-.63.67-1.04,0-.26-.08-.48-.23-.66-.16-.18-.41-.32-.77-.41s-.83-.15-1.43-.15h-2.17c-.32.12-.58.29-.77.52-.2.22-.3.48-.3.77,0,.34.21.66.63.95.42.29,1.11.44,2.06.44ZM121.44,215.06c.6,0,1.1-.18,1.51-.56.4-.37.6-.91.6-1.62,0-.75-.19-1.31-.56-1.67-.38-.37-.86-.55-1.46-.55s-1.12.19-1.51.57c-.4.38-.6.93-.6,1.65s.21,1.26.62,1.62c.41.37.88.55,1.41.55ZM124.84,210.54l-.95-1.21c.32-.85.81-1.42,1.47-1.73.66-.31,1.46-.47,2.4-.48v2.36c-.63,0-1.21.06-1.74.18-.53.12-.92.41-1.18.88Z"/>
    <path d="M134.93,221.02c-1.33,0-2.44-.25-3.35-.74-.9-.49-1.59-1.2-2.05-2.13-.46-.93-.7-2.04-.7-3.35s.23-2.35.68-3.26c.45-.91,1.11-1.61,1.99-2.11s1.95-.74,3.23-.74c1.77,0,3.17.52,4.21,1.56,1.03,1.04,1.54,2.52,1.54,4.44,0,.1,0,.23-.01.4,0,.17-.02.29-.04.38h-8.36c.02.56.12,1.09.31,1.57s.5.88.91,1.18c.42.3.96.45,1.64.45s1.26-.15,1.68-.46c.42-.3.64-.76.65-1.36h3.19c-.04.93-.3,1.7-.76,2.32-.47.62-1.11,1.08-1.92,1.38-.81.31-1.76.46-2.84.46ZM132.11,213.42h5.16c-.03-.83-.27-1.45-.74-1.86s-1.07-.62-1.8-.62-1.36.21-1.84.63c-.48.42-.74,1.04-.79,1.84Z"/>
    <path d="M143.35,220.8v-11.91h3.1l.06,2.06c.31-.72.77-1.26,1.39-1.65.62-.38,1.37-.57,2.25-.57h.24v2.72h-.31c-.48,0-.94.04-1.38.13-.44.09-.84.23-1.2.44-.36.21-.67.49-.93.86v7.92h-3.24Z"/>
    <path d="M157.66,225.17v-16.28h3.05l.18,1.82c.44-.64.97-1.14,1.59-1.48.62-.35,1.35-.52,2.2-.52.93,0,1.75.22,2.47.67.72.45,1.29,1.13,1.7,2.04.41.91.62,2.08.62,3.5s-.22,2.51-.67,3.41c-.44.9-1.04,1.57-1.8,2.01-.76.45-1.61.68-2.55.68-.77,0-1.46-.15-2.07-.48-.61-.33-1.1-.78-1.48-1.37v5.99h-3.24ZM163.64,218.54c.81,0,1.44-.31,1.87-.94.43-.63.65-1.53.65-2.72,0-1.26-.2-2.2-.6-2.81-.4-.61-.95-.92-1.65-.92s-1.36.21-1.88.62c-.52.41-.9.86-1.12,1.35v3.52c.26.52.62.97,1.09,1.34.47.38,1.02.56,1.65.56Z"/>
    <path d="M173.94,207.32c-.59,0-1.05-.15-1.36-.45-.31-.3-.47-.68-.47-1.12s.16-.83.47-1.13c.31-.3.77-.45,1.36-.45s1.05.15,1.36.45c.31.3.47.67.47,1.13s-.16.82-.47,1.12c-.31.3-.77.45-1.36.45ZM172.32,220.8v-11.91h3.24v11.91h-3.24Z"/>
    <path d="M184.37,220.97c-1.11,0-2.11-.21-3.02-.63-.9-.42-1.62-1.08-2.15-1.98-.53-.9-.79-2.05-.79-3.47s.25-2.58.76-3.49,1.21-1.59,2.11-2.03,1.93-.67,3.09-.67c1.01,0,1.92.17,2.73.5s1.46.83,1.94,1.5c.48.66.72,1.5.73,2.51h-3.14c-.02-.61-.22-1.1-.61-1.46-.39-.36-.94-.54-1.65-.54-.94,0-1.61.32-2.03.96-.42.64-.63,1.55-.63,2.72,0,.76.09,1.4.27,1.93.18.53.47.94.87,1.22.39.28.9.42,1.52.42.72,0,1.3-.2,1.72-.59.42-.39.64-.95.65-1.68h3.14c-.02,1.03-.27,1.9-.75,2.61-.48.71-1.12,1.25-1.95,1.61-.82.37-1.76.55-2.82.55Z"/>
    <path d="M197.83,220.8c-1.21,0-2.14-.14-2.8-.43-.66-.29-1.12-.74-1.39-1.34-.26-.61-.39-1.4-.39-2.37v-5.27h-1.98v-2.49h1.98v-2.81h3.23v2.81h2.6v2.49h-2.6v5.08c0,.63.09,1.09.26,1.39s.57.45,1.19.45h1.15v2.5h-1.26Z"/>
    <path d="M205.3,220.95c-1.21,0-2.14-.37-2.8-1.12-.66-.75-.99-1.8-.99-3.18v-7.78h3.24v7.38c0,.41.06.77.18,1.08s.31.56.59.73c.27.17.63.26,1.08.26.65,0,1.21-.14,1.67-.43.46-.29.86-.64,1.2-1.06v-7.96h3.23v11.91h-3.12l-.05-1.79c-.4.5-.94.96-1.63,1.36-.69.4-1.55.6-2.59.6Z"/>
    <path d="M216.17,220.8v-11.91h3.1l.06,2.06c.31-.72.77-1.26,1.39-1.65.62-.38,1.37-.57,2.25-.57h.24v2.72h-.31c-.48,0-.94.04-1.38.13-.44.09-.84.23-1.2.44-.36.21-.67.49-.93.86v7.92h-3.24Z"/>
    <path d="M230.59,221.02c-1.33,0-2.44-.25-3.35-.74-.9-.49-1.59-1.2-2.05-2.13-.46-.93-.7-2.04-.7-3.35s.23-2.35.68-3.26c.45-.91,1.11-1.61,1.99-2.11s1.95-.74,3.23-.74c1.77,0,3.17.52,4.21,1.56,1.03,1.04,1.54,2.52,1.54,4.44,0,.1,0,.23-.01.4,0,.17-.02.29-.04.38h-8.36c.02.56.12,1.09.31,1.57s.5.88.91,1.18c.42.3.96.45,1.64.45s1.26-.15,1.68-.46c.42-.3.64-.76.65-1.36h3.19c-.04.93-.3,1.7-.76,2.32-.47.62-1.11,1.08-1.92,1.38-.81.31-1.76.46-2.84.46ZM227.77,213.42h5.16c-.03-.83-.27-1.45-.74-1.86s-1.07-.62-1.8-.62-1.36.21-1.84.63c-.48.42-.74,1.04-.79,1.84Z"/>
    <path d="M249.5,220.99c-1.2,0-2.26-.24-3.17-.72-.91-.48-1.61-1.18-2.11-2.09-.5-.91-.74-2.01-.74-3.31s.25-2.44.74-3.36c.5-.92,1.2-1.63,2.11-2.11.91-.48,1.96-.73,3.17-.73s2.29.24,3.19.73c.91.48,1.61,1.19,2.12,2.11s.76,2.04.76,3.36-.25,2.4-.76,3.31-1.21,1.61-2.12,2.09c-.91.48-1.97.72-3.19.72ZM249.5,218.53c.71,0,1.26-.17,1.67-.49.4-.33.69-.77.85-1.33.17-.55.25-1.16.25-1.83s-.08-1.31-.25-1.87c-.17-.56-.45-1.01-.85-1.34-.4-.33-.96-.5-1.67-.5s-1.23.17-1.63.5c-.4.33-.67.78-.84,1.34-.16.56-.24,1.18-.24,1.87s.08,1.28.24,1.83c.16.55.44,1,.84,1.33.39.33.94.49,1.63.49Z"/>
    <path d="M258.94,220.8v-9.42h-1.98v-2.49h1.98v-.38c0-.72.07-1.34.21-1.86.14-.52.38-.95.71-1.29.34-.33.8-.58,1.4-.75s1.35-.24,2.26-.24h1.18v2.34h-1.07c-.62,0-1.02.14-1.19.43-.17.29-.26.74-.26,1.37v.38h2.54v2.49h-2.54v9.42h-3.23Z"/>
    <path d="M272.11,220.8v-16.43h11.02v2.84h-7.59v3.82h6.88v2.75h-6.88v4.18h7.59v2.84h-11.02Z"/>
    <path d="M290.06,220.95c-1.21,0-2.14-.37-2.8-1.12-.66-.75-.99-1.8-.99-3.18v-7.78h3.24v7.38c0,.41.06.77.18,1.08s.31.56.59.73c.27.17.63.26,1.08.26.65,0,1.21-.14,1.67-.43.46-.29.86-.64,1.2-1.06v-7.96h3.23v11.91h-3.12l-.05-1.79c-.4.5-.94.96-1.63,1.36-.69.4-1.55.6-2.59.6Z"/>
    <path d="M300.92,220.8v-11.91h3.1l.06,2.06c.31-.72.77-1.26,1.39-1.65.62-.38,1.37-.57,2.25-.57h.24v2.72h-.31c-.48,0-.94.04-1.38.13-.44.09-.84.23-1.2.44-.36.21-.67.49-.93.86v7.92h-3.24Z"/>
    <path d="M315.27,220.99c-1.2,0-2.26-.24-3.17-.72-.91-.48-1.61-1.18-2.11-2.09-.5-.91-.74-2.01-.74-3.31s.25-2.44.74-3.36c.5-.92,1.2-1.63,2.11-2.11.91-.48,1.96-.73,3.17-.73s2.29.24,3.19.73c.91.48,1.61,1.19,2.12,2.11s.76,2.04.76,3.36-.25,2.4-.76,3.31-1.21,1.61-2.12,2.09c-.91.48-1.97.72-3.19.72ZM315.27,218.53c.71,0,1.26-.17,1.67-.49.4-.33.69-.77.85-1.33.17-.55.25-1.16.25-1.83s-.08-1.31-.25-1.87c-.17-.56-.45-1.01-.85-1.34-.4-.33-.96-.5-1.67-.5s-1.23.17-1.63.5c-.4.33-.67.78-.84,1.34-.16.56-.24,1.18-.24,1.87s.08,1.28.24,1.83c.16.55.44,1,.84,1.33.39.33.94.49,1.63.49Z"/>
    <path d="M324.2,225.17v-16.28h3.05l.18,1.82c.44-.64.97-1.14,1.59-1.48.62-.35,1.35-.52,2.2-.52.93,0,1.75.22,2.47.67.72.45,1.29,1.13,1.7,2.04.41.91.62,2.08.62,3.5s-.22,2.51-.67,3.41c-.44.9-1.04,1.57-1.8,2.01-.76.45-1.61.68-2.55.68-.77,0-1.46-.15-2.07-.48-.61-.33-1.1-.78-1.48-1.37v5.99h-3.24ZM330.18,218.54c.81,0,1.44-.31,1.87-.94.43-.63.65-1.53.65-2.72,0-1.26-.2-2.2-.6-2.81-.4-.61-.95-.92-1.65-.92s-1.36.21-1.88.62c-.52.41-.9.86-1.12,1.35v3.52c.26.52.62.97,1.09,1.34.47.38,1.02.56,1.65.56Z"/>
    <path d="M344.34,221.02c-1.33,0-2.44-.25-3.35-.74-.9-.49-1.59-1.2-2.05-2.13-.46-.93-.7-2.04-.7-3.35s.23-2.35.68-3.26c.45-.91,1.11-1.61,1.99-2.11s1.95-.74,3.23-.74c1.77,0,3.17.52,4.21,1.56,1.03,1.04,1.54,2.52,1.54,4.44,0,.1,0,.23-.01.4,0,.17-.02.29-.04.38h-8.36c.02.56.12,1.09.31,1.57s.5.88.91,1.18c.42.3.96.45,1.64.45s1.26-.15,1.68-.46c.42-.3.64-.76.65-1.36h3.19c-.04.93-.3,1.7-.76,2.32-.47.62-1.11,1.08-1.92,1.38-.81.31-1.76.46-2.84.46ZM341.52,213.42h5.16c-.03-.83-.27-1.45-.74-1.86s-1.07-.62-1.8-.62-1.36.21-1.84.63c-.48.42-.74,1.04-.79,1.84Z"/>
    <path d="M356.01,221c-.68,0-1.31-.13-1.89-.39-.59-.26-1.06-.65-1.42-1.18-.36-.52-.54-1.18-.54-1.97,0-1.1.33-1.93.99-2.48.66-.56,1.58-.94,2.77-1.14,1.18-.2,2.56-.32,4.13-.35v-.63c0-.77-.19-1.3-.56-1.59s-.85-.43-1.43-.43c-.64,0-1.17.15-1.59.46-.41.31-.62.8-.62,1.48h-3.03c0-1.02.22-1.82.67-2.42s1.06-1.02,1.84-1.28c.79-.26,1.69-.39,2.73-.39.76,0,1.45.06,2.07.19.63.13,1.17.34,1.63.65s.82.73,1.07,1.26.38,1.2.38,2v8h-3.03l-.1-1.55c-.5.58-1.09,1.02-1.76,1.31-.67.3-1.44.45-2.31.45ZM357.07,218.78c.61,0,1.17-.16,1.69-.48.52-.32.93-.68,1.24-1.09v-1.93c-1.71,0-2.91.17-3.59.48-.68.31-1.03.82-1.03,1.52,0,.5.16.88.47,1.12.31.24.72.37,1.21.37Z"/>
    <path d="M366.56,220.8v-11.91h3.11l.06,1.78c.4-.51.92-.97,1.58-1.36.65-.39,1.5-.59,2.54-.59,1.21,0,2.15.37,2.82,1.1.67.74,1,1.81,1,3.23v7.75h-3.21v-7.34c0-.43-.06-.81-.18-1.14s-.32-.58-.58-.76-.61-.27-1.04-.27c-.64,0-1.19.15-1.65.45-.46.3-.86.67-1.2,1.1v7.95h-3.24Z"/>
    <path d="M45.62,250.97c-1.11,0-2.11-.21-3.02-.63-.9-.42-1.62-1.08-2.15-1.98-.53-.9-.79-2.05-.79-3.47s.25-2.58.76-3.49,1.21-1.59,2.11-2.03,1.93-.67,3.09-.67c1.01,0,1.92.17,2.73.5s1.46.83,1.94,1.5c.48.66.72,1.5.73,2.51h-3.14c-.02-.61-.22-1.1-.61-1.46-.39-.36-.94-.54-1.65-.54-.94,0-1.61.32-2.03.96-.42.64-.63,1.55-.63,2.72,0,.76.09,1.4.27,1.93.18.53.47.94.87,1.22.39.28.9.42,1.52.42.72,0,1.3-.2,1.72-.59.42-.39.64-.95.65-1.68h3.14c-.02,1.03-.27,1.9-.75,2.61-.48.71-1.12,1.25-1.95,1.61-.82.37-1.76.55-2.82.55Z"/>
    <path d="M58.16,250.8c-1.21,0-2.15-.14-2.81-.43-.66-.29-1.12-.74-1.38-1.34-.26-.61-.39-1.4-.39-2.37v-12.28h3.22v12.08c0,.63.09,1.09.26,1.38s.57.44,1.2.44h.74v2.53h-.84Z"/>
    <path d="M66.49,250.99c-1.2,0-2.26-.24-3.17-.72-.91-.48-1.61-1.18-2.11-2.09-.5-.91-.74-2.01-.74-3.31s.25-2.44.74-3.36c.5-.92,1.2-1.63,2.11-2.11.91-.48,1.96-.73,3.17-.73s2.29.24,3.19.73c.91.48,1.61,1.19,2.12,2.11s.76,2.04.76,3.36-.25,2.4-.76,3.31-1.21,1.61-2.12,2.09c-.91.48-1.97.72-3.19.72ZM66.49,248.53c.71,0,1.26-.17,1.67-.49.4-.33.69-.77.85-1.33.17-.55.25-1.16.25-1.83s-.08-1.31-.25-1.87c-.17-.56-.45-1.01-.85-1.34-.4-.33-.96-.5-1.67-.5s-1.23.17-1.63.5c-.4.33-.67.78-.84,1.34-.16.56-.24,1.18-.24,1.87s.08,1.28.24,1.83c.16.55.44,1,.84,1.33.39.33.94.49,1.63.49Z"/>
    <path d="M78.89,250.95c-1.21,0-2.14-.37-2.8-1.12-.66-.75-.99-1.8-.99-3.18v-7.78h3.24v7.38c0,.41.06.77.18,1.08s.31.56.59.73c.27.17.63.26,1.08.26.65,0,1.21-.14,1.67-.43.46-.29.86-.64,1.2-1.06v-7.96h3.23v11.91h-3.12l-.05-1.79c-.4.5-.94.96-1.63,1.36-.69.4-1.55.6-2.59.6Z"/>
    <path d="M93.85,251c-.9,0-1.7-.22-2.41-.67s-1.27-1.13-1.68-2.06-.62-2.1-.62-3.52.22-2.51.67-3.41,1.04-1.56,1.8-2,1.61-.66,2.55-.66c.83,0,1.54.17,2.14.51s1.07.79,1.42,1.34v-6.18h3.24v16.43h-3.1l-.13-1.7c-.42.59-.95,1.05-1.58,1.39-.63.34-1.39.51-2.28.51ZM94.8,248.54c.68,0,1.27-.19,1.77-.57.5-.38.88-.83,1.14-1.34v-3.48c-.25-.54-.61-1-1.06-1.4-.46-.4-1.02-.6-1.69-.6-.8,0-1.42.31-1.86.93-.44.62-.66,1.51-.66,2.69,0,1.29.21,2.24.63,2.86.42.62,1,.93,1.73.93Z"/>
    <path d="M109.48,250.8v-11.91h3.11l.06,1.78c.4-.51.92-.97,1.58-1.36.65-.39,1.5-.59,2.54-.59,1.21,0,2.15.37,2.82,1.1.67.74,1,1.81,1,3.23v7.75h-3.21v-7.34c0-.43-.06-.81-.18-1.14s-.32-.58-.58-.76-.61-.27-1.04-.27c-.64,0-1.19.15-1.65.45-.46.3-.86.67-1.2,1.1v7.95h-3.24Z"/>
    <path d="M127.2,251c-.68,0-1.31-.13-1.89-.39-.59-.26-1.06-.65-1.42-1.18-.36-.52-.54-1.18-.54-1.97,0-1.1.33-1.93.99-2.48.66-.56,1.58-.94,2.77-1.14,1.18-.2,2.56-.32,4.13-.35v-.63c0-.77-.19-1.3-.56-1.59s-.85-.43-1.43-.43c-.64,0-1.17.15-1.59.46-.41.31-.62.8-.62,1.48h-3.03c0-1.02.22-1.82.67-2.42s1.06-1.02,1.84-1.28c.79-.26,1.69-.39,2.73-.39.76,0,1.45.06,2.07.19.63.13,1.17.34,1.63.65s.82.73,1.07,1.26.38,1.2.38,2v8h-3.03l-.1-1.55c-.5.58-1.09,1.02-1.76,1.31-.67.3-1.44.45-2.31.45ZM128.26,248.78c.61,0,1.17-.16,1.69-.48.52-.32.93-.68,1.24-1.09v-1.93c-1.71,0-2.91.17-3.59.48-.68.31-1.03.82-1.03,1.52,0,.5.16.88.47,1.12.31.24.72.37,1.21.37Z"/>
    <path d="M142.68,250.8c-1.21,0-2.14-.14-2.8-.43-.66-.29-1.12-.74-1.39-1.34-.26-.61-.39-1.4-.39-2.37v-5.27h-1.98v-2.49h1.98v-2.81h3.23v2.81h2.6v2.49h-2.6v5.08c0,.63.09,1.09.26,1.39s.57.45,1.19.45h1.15v2.5h-1.26Z"/>
    <path d="M148.1,237.32c-.59,0-1.05-.15-1.36-.45-.31-.3-.47-.68-.47-1.12s.16-.83.47-1.13c.31-.3.77-.45,1.36-.45s1.05.15,1.36.45c.31.3.47.67.47,1.13s-.16.82-.47,1.12c-.31.3-.77.45-1.36.45ZM146.47,250.8v-11.91h3.24v11.91h-3.24Z"/>
    <path d="M155.78,250.8l-4.33-11.91h3.37l2.81,8.9,2.89-8.9h3.27l-4.32,11.91h-3.69Z"/>
    <path d="M170.76,251.02c-1.33,0-2.44-.25-3.35-.74-.9-.49-1.59-1.2-2.05-2.13-.46-.93-.7-2.04-.7-3.35s.23-2.35.68-3.26c.45-.91,1.11-1.61,1.99-2.11s1.95-.74,3.23-.74c1.77,0,3.17.52,4.21,1.56,1.03,1.04,1.54,2.52,1.54,4.44,0,.1,0,.23-.01.4,0,.17-.02.29-.04.38h-8.36c.02.56.12,1.09.31,1.57s.5.88.91,1.18c.42.3.96.45,1.64.45s1.26-.15,1.68-.46c.42-.3.64-.76.65-1.36h3.19c-.04.93-.3,1.7-.76,2.32-.47.62-1.11,1.08-1.92,1.38-.81.31-1.76.46-2.84.46ZM167.93,243.42h5.16c-.03-.83-.27-1.45-.74-1.86s-1.07-.62-1.8-.62-1.36.21-1.84.63c-.48.42-.74,1.04-.79,1.84Z"/>
    <path d="M189.04,251.02c-.66,0-1.31-.06-1.94-.18-.63-.12-1.21-.33-1.72-.63s-.92-.7-1.22-1.21-.45-1.15-.45-1.92h3c0,.67.23,1.13.7,1.39.47.26,1.02.39,1.64.39s1.1-.1,1.44-.3c.34-.2.51-.54.51-1.01,0-.45-.2-.78-.6-1-.4-.22-1.11-.44-2.12-.67-.85-.2-1.6-.45-2.26-.74-.66-.29-1.18-.67-1.56-1.16-.38-.48-.56-1.12-.56-1.91,0-.62.14-1.14.43-1.57s.67-.78,1.14-1.04c.48-.26,1.01-.46,1.61-.58.6-.12,1.21-.18,1.84-.18s1.21.06,1.79.18c.59.12,1.11.33,1.59.62.47.29.85.68,1.14,1.17s.43,1.1.43,1.83h-3c0-.61-.19-1.03-.58-1.27-.39-.24-.84-.35-1.36-.35-.56,0-1,.08-1.32.24-.32.16-.48.43-.48.81,0,.22.1.41.3.58.2.17.53.32.98.46.45.14,1.04.29,1.77.46.77.18,1.46.41,2.08.7s1.09.67,1.45,1.15c.36.48.54,1.1.54,1.87,0,.72-.15,1.32-.43,1.82-.29.5-.68.9-1.16,1.2-.48.31-1.04.53-1.66.67-.62.14-1.27.21-1.93.21Z"/>
    <path d="M202.35,250.99c-1.2,0-2.26-.24-3.17-.72-.91-.48-1.61-1.18-2.11-2.09-.5-.91-.74-2.01-.74-3.31s.25-2.44.74-3.36c.5-.92,1.2-1.63,2.11-2.11.91-.48,1.96-.73,3.17-.73s2.29.24,3.19.73c.91.48,1.61,1.19,2.12,2.11s.76,2.04.76,3.36-.25,2.4-.76,3.31-1.21,1.61-2.12,2.09c-.91.48-1.97.72-3.19.72ZM202.35,248.53c.71,0,1.26-.17,1.67-.49.4-.33.69-.77.85-1.33.17-.55.25-1.16.25-1.83s-.08-1.31-.25-1.87c-.17-.56-.45-1.01-.85-1.34-.4-.33-.96-.5-1.67-.5s-1.23.17-1.63.5c-.4.33-.67.78-.84,1.34-.16.56-.24,1.18-.24,1.87s.08,1.28.24,1.83c.16.55.44,1,.84,1.33.39.33.94.49,1.63.49Z"/>
    <path d="M213.63,250.8l-4.33-11.91h3.37l2.81,8.9,2.89-8.9h3.27l-4.32,11.91h-3.69Z"/>
    <path d="M228.6,251.02c-1.33,0-2.44-.25-3.35-.74-.9-.49-1.59-1.2-2.05-2.13-.46-.93-.7-2.04-.7-3.35s.23-2.35.68-3.26c.45-.91,1.11-1.61,1.99-2.11s1.95-.74,3.23-.74c1.77,0,3.17.52,4.21,1.56,1.03,1.04,1.54,2.52,1.54,4.44,0,.1,0,.23-.01.4,0,.17-.02.29-.04.38h-8.36c.02.56.12,1.09.31,1.57s.5.88.91,1.18c.42.3.96.45,1.64.45s1.26-.15,1.68-.46c.42-.3.64-.76.65-1.36h3.19c-.04.93-.3,1.7-.76,2.32-.47.62-1.11,1.08-1.92,1.38-.81.31-1.76.46-2.84.46ZM225.78,243.42h5.16c-.03-.83-.27-1.45-.74-1.86s-1.07-.62-1.8-.62-1.36.21-1.84.63c-.48.42-.74,1.04-.79,1.84Z"/>
    <path d="M237.03,250.8v-11.91h3.1l.06,2.06c.31-.72.77-1.26,1.39-1.65.62-.38,1.37-.57,2.25-.57h.24v2.72h-.31c-.48,0-.94.04-1.38.13-.44.09-.84.23-1.2.44-.36.21-.67.49-.93.86v7.92h-3.24Z"/>
    <path d="M251.46,251.02c-1.33,0-2.44-.25-3.35-.74-.9-.49-1.59-1.2-2.05-2.13-.46-.93-.7-2.04-.7-3.35s.23-2.35.68-3.26c.45-.91,1.11-1.61,1.99-2.11s1.95-.74,3.23-.74c1.77,0,3.17.52,4.21,1.56,1.03,1.04,1.54,2.52,1.54,4.44,0,.1,0,.23-.01.4,0,.17-.02.29-.04.38h-8.36c.02.56.12,1.09.31,1.57s.5.88.91,1.18c.42.3.96.45,1.64.45s1.26-.15,1.68-.46c.42-.3.64-.76.65-1.36h3.19c-.04.93-.3,1.7-.76,2.32-.47.62-1.11,1.08-1.92,1.38-.81.31-1.76.46-2.84.46ZM248.64,243.42h5.16c-.03-.83-.27-1.45-.74-1.86s-1.07-.62-1.8-.62-1.36.21-1.84.63c-.48.42-.74,1.04-.79,1.84Z"/>
    <path d="M261.5,237.32c-.59,0-1.05-.15-1.36-.45-.31-.3-.47-.68-.47-1.12s.16-.83.47-1.13c.31-.3.77-.45,1.36-.45s1.05.15,1.36.45c.31.3.47.67.47,1.13s-.16.82-.47,1.12c-.31.3-.77.45-1.36.45ZM259.88,250.8v-11.91h3.24v11.91h-3.24Z"/>
    <path d="M271.27,255.4c-1.42,0-2.56-.15-3.39-.44s-1.44-.68-1.81-1.15c-.37-.48-.55-.99-.55-1.54,0-.68.32-1.27.96-1.78.64-.51,1.66-.86,3.05-1.07l.54-1.15h1.61c1.98,0,3.42.27,4.33.82s1.36,1.38,1.36,2.5-.52,2.06-1.56,2.76c-1.04.7-2.56,1.05-4.54,1.05ZM269.58,250.53c-.85-.1-1.55-.27-2.08-.52s-.92-.54-1.16-.86c-.24-.33-.37-.65-.37-.96,0-.5.19-.92.57-1.26.38-.35.95-.65,1.71-.91l1.68.61c-.44.11-.81.23-1.1.38s-.44.33-.44.56c0,.15.09.28.26.39.17.11.48.18.92.24.44.05,1.04.08,1.8.08l-1.81,2.26ZM271.05,247c-1.07,0-1.99-.19-2.75-.57-.76-.38-1.33-.89-1.72-1.51s-.59-1.3-.59-2.03c0-.77.2-1.47.59-2.09.39-.62.97-1.12,1.74-1.5.77-.37,1.7-.56,2.8-.56s2.07.19,2.81.56c.75.37,1.3.87,1.67,1.5.37.62.56,1.32.56,2.09s-.19,1.42-.57,2.05c-.38.63-.94,1.13-1.7,1.5-.75.37-1.7.56-2.85.56ZM271.22,253.37c1.09,0,1.86-.14,2.31-.43.45-.29.67-.63.67-1.04,0-.26-.08-.48-.23-.66-.16-.18-.41-.32-.77-.41s-.83-.15-1.43-.15h-2.17c-.32.12-.58.29-.77.52-.2.22-.3.48-.3.77,0,.34.21.66.63.95.42.29,1.11.44,2.06.44ZM271.05,245.06c.6,0,1.1-.18,1.51-.56.4-.37.6-.91.6-1.62,0-.75-.19-1.31-.56-1.67-.38-.37-.86-.55-1.46-.55s-1.12.19-1.51.57c-.4.38-.6.93-.6,1.65s.21,1.26.62,1.62c.41.37.88.55,1.41.55ZM274.45,240.54l-.95-1.21c.32-.85.81-1.42,1.47-1.73.66-.31,1.46-.47,2.4-.48v2.36c-.63,0-1.21.06-1.74.18-.53.12-.92.41-1.18.88Z"/>
    <path d="M279.36,250.8v-11.91h3.11l.06,1.78c.4-.51.92-.97,1.58-1.36.65-.39,1.5-.59,2.54-.59,1.21,0,2.15.37,2.82,1.1.67.74,1,1.81,1,3.23v7.75h-3.21v-7.34c0-.43-.06-.81-.18-1.14s-.32-.58-.58-.76-.61-.27-1.04-.27c-.64,0-1.19.15-1.65.45-.46.3-.86.67-1.2,1.1v7.95h-3.24Z"/>
    <path d="M298.93,250.8c-1.21,0-2.14-.14-2.8-.43-.66-.29-1.12-.74-1.39-1.34-.26-.61-.39-1.4-.39-2.37v-5.27h-1.98v-2.49h1.98v-2.81h3.23v2.81h2.6v2.49h-2.6v5.08c0,.63.09,1.09.26,1.39s.57.45,1.19.45h1.15v2.5h-1.26Z"/>
    <path d="M302.38,255.17v-2.62h1.07c.48,0,.88-.09,1.2-.26s.56-.45.7-.84l.27-.65-4.64-11.91h3.37l3.02,8.81,2.69-8.81h3.27l-4.29,11.91-.44,1.18c-.31.84-.67,1.49-1.07,1.95-.41.46-.91.79-1.5.96-.59.18-1.33.27-2.2.27h-1.45Z"/>
    <path d="M315.41,250.97c-.63,0-1.13-.19-1.52-.58-.39-.39-.58-.86-.58-1.41,0-.6.19-1.08.58-1.44.39-.36.89-.54,1.52-.54s1.11.18,1.48.54c.38.36.57.84.57,1.44,0,.55-.19,1.02-.57,1.41-.38.39-.87.58-1.48.58Z"/>
  </g>
  <line y1="123.85" x2="641.71" y2="123.85" fill="none" stroke="#000" stroke-miterlimit="10"/>
  <path d="M61.1,22.05c-2.86,0-5.42,1.3-7.14,3.31-.16-.2-.34-.38-.51-.56-.54-.54-1.14-1.01-1.77-1.39-1.48-.9-3.18-1.34-4.86-1.37h0c-2.39,0-4.81.92-6.62,2.75-1.84,1.84-2.75,4.23-2.75,6.62,0,1.68.45,3.38,1.34,4.86.38.63.85,1.23,1.39,1.77.54.54,1.14,1.01,1.77,1.39,3.6,2.19,8.39,1.72,11.5-1.39.18-.18.36-.38.51-.56,1.72,2.01,4.27,3.31,7.14,3.31,5.17,0,9.38-4.21,9.38-9.38s-4.21-9.38-9.38-9.38h0ZM41.9,31.43c0-1.25.47-2.51,1.43-3.47.96-.96,2.22-1.43,3.47-1.43h0c.51,0,1.03.09,1.52.25l-3.87,3.87-2.31,2.31c-.16-.49-.25-1.01-.25-1.52ZM50.29,34.9c-1.34,1.34-3.29,1.75-4.99,1.21l2.39-2.39,3.78-3.78.45-.45c-.13.63-.2,1.3-.2,1.97,0,1.25-.47,2.51-1.43,3.47v-.02ZM61.1,36.35c-2.71,0-4.92-2.19-4.92-4.92s2.19-4.92,4.92-4.92,4.92,2.19,4.92,4.92-2.19,4.92-4.92,4.92Z" fill="#333"/>
  <polygon points="30.13 29.84 20.91 15.54 15.54 15.54 15.54 40.65 20.91 40.65 20.91 24.94 30.96 40.65 35.52 40.65 35.52 15.54 30.13 15.54 30.13 29.84" fill="#333"/>
  <polygon points="88.19 29.84 78.96 15.54 73.59 15.54 73.59 40.65 78.96 40.65 78.96 24.94 89.01 40.65 93.56 40.65 93.56 15.54 88.19 15.54 88.19 29.84" fill="#0f6bff"/>
  <path d="M109.52,23.48c-1.34-.83-2.89-1.23-4.61-1.23s-3.42.4-4.83,1.21c-1.41.81-2.51,1.92-3.29,3.33-.78,1.41-1.19,3-1.19,4.72s.4,3.31,1.21,4.72c.81,1.41,1.92,2.53,3.38,3.33,1.45.81,3.13,1.21,5.06,1.21s3.2-.31,4.5-.96c1.3-.63,2.37-1.54,3.2-2.75l-3.8-2.26c-.4.51-.94.94-1.63,1.23-.69.31-1.41.47-2.13.47-1.21,0-2.17-.27-2.93-.78-.76-.54-1.34-1.34-1.79-2.42h13.07c.09-.54.13-1.14.13-1.79,0-1.72-.38-3.29-1.12-4.7-.76-1.41-1.81-2.53-3.16-3.36l-.07.02ZM100.52,29.41c.04-.78.49-1.43,1.34-1.99s1.86-.83,3-.83,2.04.25,2.8.74,1.23,1.19,1.39,2.08h-8.55.02Z" fill="#0f6bff"/>
  <path d="M131.56,23.46c-1.34-.81-2.95-1.21-4.83-1.21s-1.92.16-2.84.49c-.92.31-1.77.78-2.57,1.39v-1.39h-5.13v25.11h5.13v-8.5c.78.6,1.66,1.05,2.57,1.39.94.31,1.88.49,2.84.49,1.86,0,3.47-.4,4.83-1.23,1.34-.83,2.39-1.95,3.11-3.38s1.07-3.07,1.07-4.88-.36-3.45-1.07-4.86c-.72-1.43-1.75-2.55-3.11-3.36v-.07ZM129.32,34.96c-.85.83-1.95,1.23-3.29,1.23s-2.48-.4-3.38-1.23-1.34-1.9-1.34-3.25.45-2.44,1.37-3.29,2.04-1.3,3.38-1.3,2.44.43,3.29,1.25c.85.83,1.28,1.95,1.28,3.29s-.43,2.46-1.28,3.29h-.02Z" fill="#0f6bff"/>
  <path d="M150.27,23.01c-1.07-.45-2.1-.67-3.13-.67-1.52,0-2.95.56-4.27,1.66v-8.46h-5.13v25.11h5.13v-10.97c.13-.98.49-1.7,1.03-2.17.56-.47,1.19-.69,1.95-.69s1.66.25,2.31.76c.65.51.96,1.34.96,2.48v10.59h5.13v-10.72c-.02-1.9-.43-3.42-1.21-4.57-.78-1.12-1.7-1.9-2.75-2.35Z" fill="#0f6bff"/>
  <path d="M170.15,23.48c-1.41-.83-2.95-1.25-4.61-1.25s-3.25.43-4.66,1.25c-1.41.83-2.55,1.95-3.38,3.38-.83,1.41-1.25,2.98-1.25,4.66s.43,3.2,1.25,4.63c.83,1.43,1.95,2.55,3.38,3.38,1.41.83,2.98,1.25,4.66,1.25s3.2-.43,4.61-1.25c1.41-.83,2.53-1.97,3.38-3.38.83-1.43,1.25-2.98,1.25-4.63s-.43-3.25-1.25-4.66c-.83-1.41-1.95-2.53-3.38-3.38ZM168.51,34.52c-.85.83-1.86,1.25-3.02,1.25s-2.17-.43-3-1.25-1.25-1.84-1.25-3,.43-2.17,1.25-3.02c.83-.85,1.84-1.25,3-1.25s2.17.43,3.02,1.25c.85.85,1.25,1.86,1.25,3.02s-.43,2.17-1.25,3Z" fill="#0f6bff"/>
  <path d="M191.34,31.81c-.69-.78-1.5-1.34-2.39-1.68-.92-.34-2.06-.65-3.45-.94-1.07-.2-1.86-.43-2.35-.6-.49-.2-.74-.49-.74-.9s.2-.81.6-1.07.94-.4,1.61-.4,1.39.13,1.88.43c.47.29.85.72,1.14,1.3l4.07-1.99c-.69-1.19-1.68-2.1-2.91-2.73s-2.64-.94-4.19-.94-2.53.22-3.63.67c-1.12.45-1.99,1.1-2.64,1.95-.65.85-.98,1.86-.98,3s.34,2.15.98,2.86c.65.72,1.43,1.23,2.35,1.59.92.34,2.06.67,3.4.96,1.19.27,2.06.51,2.62.74s.83.58.83,1.05-.29.96-.9,1.25c-.6.29-1.3.45-2.08.45-1.95,0-3.2-.74-3.76-2.24l-4.12,2.1c.67,1.37,1.68,2.37,3.02,3.07,1.34.69,2.95,1.03,4.86,1.03s2.66-.22,3.87-.65c1.19-.43,2.15-1.07,2.89-1.92.72-.85,1.1-1.88,1.1-3.07s-.34-2.46-1.03-3.25l-.07-.07Z" fill="#0f6bff"/>
  <path d="M764.17,178.74v684.64h-416.27" fill="url(#b)"/>
  <polyline points="568.91 864.68 765.01 224.13 765.04 233.17 571.64 864.91" fill="#f4f9ff"/>
  <rect width="764" height="400" fill="none"/>
</svg>
