<?xml version="1.0" encoding="UTF-8"?>
<svg id="Layer_1" data-name="Layer 1" xmlns="http://www.w3.org/2000/svg" xmlns:xlink="http://www.w3.org/1999/xlink" viewBox="0 0 900 1100">
  <defs>
    <style>
      .cls-1, .cls-2, .cls-3, .cls-4 {
        fill: none;
      }

      .cls-5 {
        fill: url(#linear-gradient-2);
      }

      .cls-2 {
        stroke: #333;
        stroke-width: 4px;
      }

      .cls-2, .cls-3, .cls-4 {
        stroke-miterlimit: 10;
      }

      .cls-6 {
        fill: url(#linear-gradient);
      }

      .cls-3 {
        stroke: url(#linear-gradient-3);
        stroke-width: 3px;
      }

      .cls-7 {
        fill: #0f6bff;
      }

      .cls-8 {
        fill: #333;
      }

      .cls-4 {
        stroke: #e6e6e6;
        stroke-width: 2px;
      }
    </style>
    <linearGradient id="linear-gradient" x1=".08" y1="549.86" x2="899.95" y2="549.86" gradientUnits="userSpaceOnUse">
      <stop offset="0" stop-color="#c4cdd0" stop-opacity=".3"/>
      <stop offset=".24" stop-color="#c0cad0" stop-opacity=".31"/>
      <stop offset=".4" stop-color="#b5c4d0" stop-opacity=".35"/>
      <stop offset=".54" stop-color="#a2b9d1" stop-opacity=".42"/>
      <stop offset=".66" stop-color="#88a9d3" stop-opacity=".51"/>
      <stop offset=".77" stop-color="#6594d5" stop-opacity=".64"/>
      <stop offset=".88" stop-color="#3b7ad7" stop-opacity=".79"/>
      <stop offset=".98" stop-color="#0a5dda" stop-opacity=".96"/>
      <stop offset="1" stop-color="#0057db"/>
    </linearGradient>
    <linearGradient id="linear-gradient-2" x1="0" y1="1092.6" x2="900" y2="1092.6" gradientUnits="userSpaceOnUse">
      <stop offset="0" stop-color="#0f6bff"/>
      <stop offset="1" stop-color="#000025"/>
    </linearGradient>
    <linearGradient id="linear-gradient-3" x1="21.28" y1="272.11" x2="786.68" y2="272.11" gradientTransform="translate(4.14)" gradientUnits="userSpaceOnUse">
      <stop offset="0" stop-color="#000"/>
      <stop offset=".56" stop-color="#0a0a0a" stop-opacity=".96"/>
      <stop offset="1" stop-color="#fff" stop-opacity="0"/>
    </linearGradient>
  </defs>
  <rect class="cls-6" x=".08" y=".09" width="899.87" height="1099.53"/>
  <path class="cls-8" d="M105.97,37.18c-5.18,0-9.79,2.35-12.9,5.99-.28-.36-.61-.69-.93-1.01-.97-.97-2.06-1.82-3.2-2.51-2.67-1.62-5.74-2.43-8.78-2.47h0c-4.33,0-8.7,1.66-11.97,4.98-3.32,3.32-4.98,7.64-4.98,11.97,0,3.03.81,6.11,2.43,8.78.69,1.13,1.54,2.22,2.51,3.2.97.97,2.06,1.82,3.2,2.51,6.51,3.96,15.17,3.11,20.79-2.51.32-.32.65-.69.93-1.01,3.11,3.64,7.73,5.99,12.9,5.99,9.34,0,16.95-7.6,16.95-16.95,0-9.34-7.6-16.95-16.95-16.95h0ZM71.27,54.13c0-2.27.85-4.53,2.59-6.27,1.74-1.74,4-2.59,6.27-2.59h0c.93,0,1.86.16,2.75.44l-7,7-4.17,4.17c-.28-.89-.44-1.82-.44-2.75ZM86.43,60.4c-2.43,2.43-5.95,3.15-9.02,2.18l4.33-4.33,6.84-6.84.81-.81c-.24,1.13-.36,2.35-.36,3.56,0,2.27-.85,4.53-2.59,6.27v-.04ZM105.97,63.03c-4.89,0-8.9-3.96-8.9-8.9,0-4.93,3.96-8.9,8.9-8.9,4.93,0,8.9,3.96,8.9,8.9s-3.96,8.9-8.9,8.9Z"/>
  <polygon class="cls-8" points="49.99 51.26 33.33 25.41 23.62 25.41 23.62 70.79 33.33 70.79 33.33 42.4 51.49 70.79 59.74 70.79 59.74 25.41 49.99 25.41 49.99 51.26"/>
  <polygon class="cls-7" points="154.91 51.26 138.25 25.41 128.54 25.41 128.54 70.79 138.25 70.79 138.25 42.4 156.41 70.79 164.62 70.79 164.62 25.41 154.91 25.41 154.91 51.26"/>
  <path class="cls-7" d="M193.46,39.77c-2.43-1.5-5.22-2.22-8.33-2.22s-6.19.73-8.74,2.18c-2.55,1.46-4.53,3.48-5.95,6.03-1.42,2.55-2.14,5.42-2.14,8.53s.73,5.99,2.18,8.53c1.46,2.55,3.48,4.57,6.11,6.03,2.63,1.46,5.66,2.18,9.14,2.18s5.78-.57,8.13-1.74c2.35-1.13,4.29-2.79,5.78-4.98l-6.88-4.09c-.73.93-1.7,1.7-2.95,2.22-1.25.57-2.55.85-3.84.85-2.18,0-3.92-.49-5.3-1.42-1.38-.97-2.43-2.43-3.24-4.37h23.62c.16-.97.24-2.06.24-3.24,0-3.11-.69-5.95-2.02-8.49-1.38-2.55-3.28-4.57-5.7-6.07l-.12.04ZM177.2,50.49c.08-1.42.89-2.59,2.43-3.6,1.54-1.01,3.36-1.5,5.42-1.5s3.68.44,5.06,1.33,2.22,2.14,2.51,3.76h-15.45s.04,0,.04,0Z"/>
  <path class="cls-7" d="M233.3,39.73c-2.43-1.46-5.34-2.18-8.74-2.18s-3.48.28-5.14.89c-1.66.57-3.2,1.42-4.65,2.51v-2.51h-9.26s0,45.38,0,45.38h9.26s0-15.37,0-15.37c1.42,1.09,2.99,1.9,4.65,2.51,1.7.57,3.4.89,5.14.89,3.36,0,6.27-.73,8.74-2.22,2.43-1.5,4.33-3.52,5.62-6.11s1.94-5.54,1.94-8.82-.65-6.23-1.94-8.78c-1.29-2.59-3.15-4.61-5.62-6.07v-.12ZM229.26,60.52c-1.54,1.5-3.52,2.22-5.95,2.22-2.43,0-4.49-.73-6.11-2.22-1.62-1.5-2.43-3.44-2.43-5.87,0-2.43.81-4.41,2.47-5.95,1.66-1.54,3.68-2.35,6.11-2.35s4.41.77,5.95,2.27c1.54,1.5,2.31,3.52,2.31,5.95s-.77,4.45-2.31,5.95h-.04Z"/>
  <path class="cls-7" d="M267.12,38.92c-1.94-.81-3.8-1.21-5.66-1.21-2.75,0-5.34,1.01-7.73,2.99v-15.29s-9.26,0-9.26,0v45.38s9.26,0,9.26,0v-19.82c.24-1.78.89-3.07,1.86-3.92,1.01-.85,2.14-1.25,3.52-1.25s2.99.44,4.17,1.38c1.17.93,1.74,2.43,1.74,4.49v19.13s9.26,0,9.26,0v-19.37c-.04-3.44-.77-6.19-2.18-8.25-1.42-2.02-3.07-3.44-4.98-4.25Z"/>
  <path class="cls-7" d="M303.04,39.77c-2.55-1.5-5.34-2.27-8.33-2.27s-5.87.77-8.41,2.27c-2.55,1.5-4.61,3.52-6.11,6.11-1.5,2.55-2.27,5.38-2.27,8.41s.77,5.78,2.27,8.37c1.5,2.59,3.52,4.61,6.11,6.11,2.55,1.5,5.38,2.27,8.41,2.27s5.78-.77,8.33-2.27c2.55-1.5,4.57-3.56,6.11-6.11,1.5-2.59,2.27-5.38,2.27-8.37s-.77-5.87-2.27-8.41c-1.5-2.55-3.52-4.57-6.11-6.11ZM300.08,59.71c-1.54,1.5-3.36,2.27-5.46,2.27s-3.92-.77-5.42-2.27c-1.5-1.5-2.27-3.32-2.27-5.42s.77-3.92,2.27-5.46c1.5-1.54,3.32-2.27,5.42-2.27s3.92.77,5.46,2.27c1.54,1.54,2.27,3.36,2.27,5.46,0,2.1-.77,3.92-2.27,5.42Z"/>
  <path class="cls-7" d="M341.34,54.82c-1.25-1.42-2.71-2.43-4.33-3.03-1.66-.61-3.72-1.17-6.23-1.7-1.94-.36-3.36-.77-4.25-1.09-.89-.36-1.33-.89-1.33-1.62s.36-1.46,1.09-1.94c.73-.49,1.7-.73,2.91-.73s2.51.24,3.4.77c.85.53,1.54,1.29,2.06,2.35l7.36-3.6c-1.25-2.14-3.03-3.8-5.26-4.93-2.22-1.13-4.77-1.7-7.56-1.7s-4.57.4-6.55,1.21c-2.02.81-3.6,1.98-4.77,3.52-1.17,1.54-1.78,3.36-1.78,5.42,0,2.06.61,3.88,1.78,5.18,1.17,1.29,2.59,2.22,4.25,2.87,1.66.61,3.72,1.21,6.15,1.74,2.14.49,3.72.93,4.73,1.33s1.5,1.05,1.5,1.9-.53,1.74-1.62,2.27c-1.09.53-2.35.81-3.76.81-3.52,0-5.78-1.33-6.8-4.04l-7.44,3.8c1.21,2.47,3.03,4.29,5.46,5.54,2.43,1.25,5.34,1.86,8.78,1.86s4.81-.4,7-1.17c2.14-.77,3.88-1.94,5.22-3.48,1.29-1.54,1.98-3.4,1.98-5.54s-.61-4.45-1.86-5.87l-.12-.12Z"/>
  <rect class="cls-5" y="1085.2" width="900" height="14.8"/>
  <g>
    <path d="M34.57,251.97v-42.72h10.25l13.39,22.79h-3.55l13.2-22.79h9.87v42.72h-8.79v-37.96h3.9l-13.96,24.31h-5.49l-14.31-24.31h4.03v37.96h-8.54Z"/>
    <path d="M101.57,252.54c-3.45,0-6.35-.64-8.7-1.92-2.35-1.28-4.12-3.13-5.33-5.54-1.21-2.41-1.81-5.31-1.81-8.7s.59-6.1,1.76-8.47c1.17-2.37,2.9-4.19,5.17-5.47,2.28-1.28,5.07-1.92,8.4-1.92,4.61,0,8.26,1.35,10.93,4.05,2.68,2.7,4.01,6.54,4.01,11.54,0,.25,0,.6-.03,1.03-.02.43-.05.77-.1,1h-21.74c.04,1.46.31,2.83.81,4.09.5,1.27,1.29,2.29,2.37,3.06,1.08.77,2.5,1.16,4.25,1.16s3.28-.4,4.38-1.19c1.1-.79,1.66-1.97,1.68-3.54h8.29c-.11,2.41-.77,4.42-1.98,6.03s-2.88,2.81-4.98,3.6c-2.11.79-4.57,1.19-7.38,1.19ZM94.24,232.8h13.43c-.06-2.16-.71-3.77-1.92-4.84s-2.78-1.6-4.68-1.6-3.54.55-4.78,1.65c-1.24,1.1-1.92,2.7-2.05,4.79Z"/>
    <path d="M137.72,252.54c-3.45,0-6.35-.64-8.7-1.92-2.35-1.28-4.12-3.13-5.33-5.54-1.21-2.41-1.81-5.31-1.81-8.7s.59-6.1,1.76-8.47c1.17-2.37,2.9-4.19,5.17-5.47,2.27-1.28,5.07-1.92,8.39-1.92,4.61,0,8.26,1.35,10.93,4.05,2.68,2.7,4.02,6.54,4.02,11.54,0,.25-.01.6-.03,1.03-.02.43-.05.77-.09,1h-21.74c.04,1.46.31,2.83.81,4.09.5,1.27,1.29,2.29,2.36,3.06,1.08.77,2.5,1.16,4.25,1.16s3.28-.4,4.38-1.19c1.1-.79,1.66-1.97,1.68-3.54h8.28c-.11,2.41-.77,4.42-1.98,6.03s-2.88,2.81-4.98,3.6c-2.11.79-4.56,1.19-7.38,1.19ZM130.39,232.8h13.43c-.06-2.16-.7-3.77-1.92-4.84s-2.78-1.6-4.68-1.6-3.54.55-4.78,1.65c-1.24,1.1-1.92,2.7-2.05,4.79Z"/>
    <path d="M172.85,251.97c-3.13,0-5.56-.38-7.29-1.13-1.72-.75-2.93-1.91-3.6-3.49-.68-1.58-1.02-3.63-1.02-6.17v-13.71h-5.14v-6.47h5.14v-7.3h8.41v7.3h6.76v6.47h-6.76v13.2c0,1.63.23,2.84.68,3.62.46.78,1.49,1.17,3.1,1.17h2.98v6.51h-3.27Z"/>
    <path d="M186.95,216.93c-1.54,0-2.72-.39-3.54-1.17-.82-.78-1.22-1.76-1.22-2.92s.41-2.16,1.22-2.94c.81-.77,1.99-1.16,3.54-1.16s2.72.39,3.54,1.16c.81.77,1.22,1.75,1.22,2.94s-.41,2.14-1.22,2.92c-.81.78-1.99,1.17-3.54,1.17ZM182.72,251.97v-30.98h8.41v30.98h-8.41Z"/>
    <path d="M200.15,251.97v-30.98h8.09l.16,4.63c1.04-1.33,2.4-2.51,4.09-3.54,1.69-1.03,3.89-1.54,6.6-1.54,3.15,0,5.6.96,7.33,2.87,1.73,1.92,2.6,4.71,2.6,8.4v20.15h-8.35v-19.07c0-1.12-.16-2.1-.47-2.95-.32-.85-.82-1.5-1.51-1.97-.69-.47-1.59-.7-2.71-.7-1.67,0-3.1.39-4.3,1.17-1.2.78-2.24,1.74-3.13,2.86v20.66h-8.41Z"/>
    <path d="M249.98,263.93c-3.7,0-6.64-.38-8.82-1.14-2.18-.76-3.75-1.76-4.7-3-.95-1.24-1.43-2.58-1.43-4.02,0-1.76.83-3.3,2.51-4.62,1.67-1.32,4.32-2.25,7.94-2.78l1.4-2.98h4.19c5.14,0,8.89.71,11.25,2.13,2.36,1.42,3.54,3.59,3.54,6.51s-1.35,5.35-4.06,7.17-6.64,2.73-11.81,2.73ZM245.6,251.27c-2.22-.25-4.02-.7-5.4-1.35s-2.38-1.39-3.01-2.24-.95-1.68-.95-2.51c0-1.29.49-2.38,1.48-3.29.98-.9,2.47-1.69,4.46-2.36l4.38,1.59c-1.14.28-2.09.61-2.86,1s-1.14.87-1.14,1.44c0,.4.23.74.68,1.02s1.25.48,2.38.62c1.13.14,2.69.21,4.68.21l-4.7,5.87ZM249.41,242.1c-2.79,0-5.17-.5-7.14-1.49-1.97-.99-3.46-2.31-4.48-3.94-1.02-1.63-1.52-3.38-1.52-5.27,0-2.01.51-3.82,1.54-5.44,1.03-1.62,2.54-2.91,4.52-3.89,1.99-.97,4.41-1.46,7.27-1.46s5.38.49,7.32,1.46c1.94.97,3.38,2.27,4.35,3.89.96,1.62,1.45,3.43,1.45,5.44s-.49,3.7-1.48,5.33c-.98,1.63-2.46,2.93-4.41,3.9s-4.43,1.46-7.41,1.46ZM249.85,258.67c2.84,0,4.84-.37,6-1.11,1.16-.74,1.74-1.64,1.74-2.7,0-.68-.2-1.25-.6-1.71-.4-.46-1.07-.82-2-1.08-.93-.25-2.17-.38-3.71-.38h-5.65c-.82.32-1.5.77-2.02,1.35-.52.58-.78,1.25-.78,2.01,0,.89.55,1.71,1.65,2.48s2.89,1.14,5.36,1.14ZM249.41,237.05c1.56,0,2.87-.48,3.92-1.44,1.05-.96,1.57-2.36,1.57-4.2,0-1.95-.49-3.4-1.46-4.35-.97-.95-2.24-1.43-3.81-1.43s-2.9.49-3.94,1.48c-1.04.98-1.56,2.42-1.56,4.3s.54,3.27,1.6,4.22,2.29,1.43,3.67,1.43ZM258.26,225.31l-2.48-3.14c.83-2.2,2.1-3.7,3.82-4.51,1.72-.8,3.8-1.22,6.24-1.24v6.13c-1.65,0-3.16.15-4.52.46-1.37.31-2.39,1.07-3.06,2.3Z"/>
    <path d="M299.33,252.54c-3.24,0-6.15-.46-8.74-1.38-2.59-.92-4.65-2.38-6.17-4.4-1.52-2.01-2.29-4.63-2.29-7.87h9.14c.04,1.65.42,2.95,1.14,3.89.72.94,1.69,1.61,2.9,2.02,1.21.4,2.61.6,4.17.6s2.82-.18,3.97-.54c1.14-.36,2.04-.92,2.68-1.67.64-.75.97-1.71.97-2.87s-.28-2.05-.83-2.78c-.55-.73-1.52-1.4-2.92-2-1.4-.6-3.35-1.25-5.87-1.95-2.94-.85-5.49-1.78-7.63-2.79-2.15-1.02-3.81-2.33-4.98-3.94-1.17-1.61-1.76-3.7-1.76-6.28,0-2.77.67-5.03,2.01-6.78,1.34-1.75,3.2-3.03,5.57-3.86s5.09-1.24,8.16-1.24,5.6.44,8.04,1.33,4.4,2.24,5.86,4.06c1.46,1.82,2.19,4.14,2.19,6.95h-9.14c.02-1.82-.66-3.18-2.03-4.08s-3.03-1.35-4.95-1.35-3.48.35-4.73,1.06c-1.25.71-1.87,1.8-1.87,3.29,0,.85.27,1.59.79,2.24.53.65,1.51,1.28,2.94,1.89,1.43.61,3.5,1.31,6.21,2.09,3.24.95,5.89,1.95,7.96,3,2.07,1.05,3.61,2.4,4.62,4.06,1,1.66,1.51,3.85,1.51,6.55,0,3.03-.74,5.47-2.22,7.33-1.48,1.86-3.5,3.23-6.05,4.09-2.55.87-5.43,1.3-8.65,1.3Z"/>
    <path d="M338.08,252.54c-3.45,0-6.35-.64-8.7-1.92-2.35-1.28-4.12-3.13-5.33-5.54-1.21-2.41-1.81-5.31-1.81-8.7s.59-6.1,1.76-8.47c1.17-2.37,2.9-4.19,5.17-5.47,2.28-1.28,5.07-1.92,8.4-1.92,4.61,0,8.26,1.35,10.93,4.05,2.68,2.7,4.01,6.54,4.01,11.54,0,.25,0,.6-.03,1.03-.02.43-.05.77-.1,1h-21.74c.04,1.46.31,2.83.81,4.09.5,1.27,1.29,2.29,2.37,3.06,1.08.77,2.5,1.16,4.25,1.16s3.28-.4,4.38-1.19c1.1-.79,1.66-1.97,1.68-3.54h8.29c-.11,2.41-.77,4.42-1.98,6.03s-2.88,2.81-4.98,3.6c-2.11.79-4.57,1.19-7.38,1.19ZM330.75,232.8h13.43c-.06-2.16-.71-3.77-1.92-4.84s-2.78-1.6-4.68-1.6-3.54.55-4.78,1.65c-1.24,1.1-1.92,2.7-2.05,4.79Z"/>
    <path d="M359.98,251.97v-30.98h8.06l.16,5.36c.8-1.86,2.01-3.29,3.62-4.28,1.61-.99,3.55-1.49,5.84-1.49h.63v7.08h-.79c-1.25,0-2.45.11-3.59.33-1.14.22-2.18.6-3.11,1.14-.93.54-1.73,1.29-2.41,2.24v20.6h-8.41Z"/>
    <path d="M388.2,216.93c-1.54,0-2.72-.39-3.54-1.17-.81-.78-1.22-1.76-1.22-2.92s.41-2.16,1.22-2.94c.81-.77,1.99-1.16,3.54-1.16s2.72.39,3.54,1.16c.81.77,1.22,1.75,1.22,2.94s-.41,2.14-1.22,2.92c-.81.78-1.99,1.17-3.54,1.17ZM383.98,251.97v-30.98h8.41v30.98h-8.41Z"/>
    <path d="M415.65,252.54c-3.45,0-6.35-.64-8.7-1.92-2.35-1.28-4.12-3.13-5.33-5.54-1.21-2.41-1.81-5.31-1.81-8.7s.59-6.1,1.76-8.47c1.17-2.37,2.9-4.19,5.17-5.47,2.28-1.28,5.07-1.92,8.4-1.92,4.61,0,8.26,1.35,10.93,4.05,2.68,2.7,4.01,6.54,4.01,11.54,0,.25,0,.6-.03,1.03-.02.43-.05.77-.1,1h-21.74c.04,1.46.31,2.83.81,4.09.5,1.27,1.29,2.29,2.37,3.06,1.08.77,2.5,1.16,4.25,1.16s3.28-.4,4.38-1.19c1.1-.79,1.66-1.97,1.68-3.54h8.29c-.11,2.41-.77,4.42-1.98,6.03s-2.88,2.81-4.98,3.6c-2.11.79-4.57,1.19-7.38,1.19ZM408.32,232.8h13.43c-.06-2.16-.71-3.77-1.92-4.84s-2.78-1.6-4.68-1.6-3.54.55-4.78,1.65c-1.24,1.1-1.92,2.7-2.05,4.79Z"/>
    <path d="M449.67,252.54c-1.71,0-3.39-.16-5.04-.48s-3.14-.86-4.48-1.63c-1.33-.77-2.39-1.83-3.17-3.16s-1.17-2.99-1.17-4.98h7.81c0,1.74.61,2.94,1.82,3.62s2.64,1.02,4.27,1.02,2.86-.26,3.74-.78c.89-.52,1.33-1.39,1.33-2.62,0-1.16-.53-2.03-1.57-2.6s-2.88-1.15-5.51-1.75c-2.2-.53-4.16-1.17-5.89-1.92-1.72-.75-3.07-1.76-4.04-3.01-.97-1.26-1.46-2.91-1.46-4.97,0-1.61.37-2.97,1.11-4.09.74-1.12,1.73-2.03,2.97-2.71,1.24-.69,2.63-1.19,4.19-1.51s3.15-.48,4.78-.48,3.14.16,4.67.48,2.9.85,4.12,1.6,2.21,1.76,2.95,3.03,1.11,2.86,1.11,4.76h-7.81c0-1.59-.5-2.69-1.51-3.3-1.01-.61-2.19-.92-3.54-.92-1.46,0-2.61.21-3.44.63-.84.42-1.25,1.12-1.25,2.09,0,.57.26,1.07.79,1.51s1.38.84,2.54,1.21,2.7.77,4.6,1.19c2.01.47,3.81,1.07,5.4,1.81,1.59.74,2.85,1.74,3.78,2.98.93,1.25,1.4,2.87,1.4,4.86,0,1.86-.38,3.44-1.13,4.73-.75,1.29-1.76,2.33-3.02,3.13-1.26.79-2.7,1.37-4.32,1.73s-3.3.54-5.03.54Z"/>
    <path d="M485.09,251.97l1.65-11.9h-6.06v-5.27h6.82l1.02-7.4h-6.09v-5.24h6.86l1.65-11.77h5.75l-1.62,11.77h6.32l1.62-11.77h5.81l-1.65,11.77h5.97v5.24h-6.73l-.98,7.4h5.9v5.27h-6.63l-1.65,11.9h-5.78l1.62-11.9h-6.32l-1.65,11.9h-5.81ZM493.31,234.8h6.35l.95-7.4h-6.29l-1.02,7.4Z"/>
    <path d="M516.64,251.97v-5.84l15.2-13.84c1.76-1.61,3.06-3.16,3.92-4.67.86-1.5,1.29-3.05,1.29-4.63s-.39-3.03-1.18-4.13c-.78-1.1-2.14-1.65-4.06-1.65-2.18,0-3.74.67-4.68,2s-1.41,3.06-1.41,5.17h-8.06c0-3.05.55-5.66,1.65-7.84,1.1-2.18,2.71-3.85,4.82-5,2.12-1.15,4.68-1.73,7.68-1.73,2.79,0,5.23.5,7.3,1.49,2.07.99,3.68,2.42,4.82,4.28,1.14,1.86,1.71,4.13,1.71,6.79,0,2.22-.4,4.19-1.19,5.92-.79,1.73-1.87,3.32-3.24,4.79-1.36,1.47-2.89,2.96-4.59,4.46l-8.22,7.27h18.34v7.14h-30.12Z"/>
  </g>
  <g>
    <path d="M36.9,339.41v-32.86h4.39v32.86h-4.39Z"/>
    <path d="M49.91,339.41v-32.86h11.87c2.03,0,3.87.39,5.49,1.16,1.63.77,2.91,1.91,3.86,3.42.94,1.51,1.42,3.35,1.42,5.53s-.47,3.92-1.42,5.37c-.94,1.45-2.23,2.55-3.86,3.3-1.63.75-3.46,1.12-5.49,1.12h-7.47v12.96h-4.39ZM54.31,322.81h7.13c1.99,0,3.59-.51,4.82-1.53,1.23-1.02,1.84-2.56,1.84-4.63,0-2.21-.62-3.85-1.86-4.91-1.24-1.06-2.84-1.59-4.81-1.59h-7.13v12.65Z"/>
    <path d="M92.34,339.85c-3.4,0-6.27-.72-8.59-2.15-2.33-1.43-4.09-3.41-5.29-5.93-1.2-2.52-1.79-5.44-1.79-8.76s.6-6.25,1.79-8.79c1.2-2.54,2.96-4.52,5.29-5.96,2.33-1.43,5.19-2.15,8.59-2.15,2.25,0,4.37.39,6.36,1.17,1.99.78,3.65,1.97,4.98,3.58,1.33,1.6,2.1,3.63,2.33,6.07h-4.42c-.2-1.64-.75-3-1.65-4.07-.9-1.07-2.02-1.86-3.35-2.38-1.33-.52-2.75-.78-4.26-.78-2.64,0-4.77.6-6.41,1.81-1.64,1.2-2.83,2.81-3.58,4.81-.75,2-1.12,4.23-1.12,6.69s.37,4.66,1.12,6.67c.75,2,1.94,3.59,3.58,4.77,1.63,1.18,3.77,1.77,6.41,1.77s4.83-.66,6.49-1.98,2.62-3.29,2.88-5.91h4.44c-.26,2.59-1.02,4.73-2.27,6.43-1.25,1.7-2.87,2.97-4.86,3.82-1.99.85-4.22,1.27-6.69,1.27Z"/>
    <path d="M112.95,339.41v-32.86h20.97v3.66h-16.58v10.47h15.26v3.61h-15.26v11.45h16.58v3.66h-20.97Z"/>
    <path d="M140.76,339.41v-32.86h4.39v32.86h-4.39Z"/>
    <path d="M151.89,329.09v-3.61h12.18v3.61h-12.18Z"/>
    <path d="M185.04,339.85c-3.4,0-6.27-.72-8.59-2.15-2.33-1.43-4.09-3.41-5.29-5.93-1.2-2.52-1.79-5.44-1.79-8.76s.6-6.25,1.79-8.79c1.2-2.54,2.96-4.52,5.29-5.96,2.33-1.43,5.19-2.15,8.59-2.15,2.25,0,4.37.39,6.36,1.17,1.99.78,3.65,1.97,4.98,3.58,1.33,1.6,2.1,3.63,2.33,6.07h-4.42c-.2-1.64-.75-3-1.65-4.07-.9-1.07-2.02-1.86-3.35-2.38-1.33-.52-2.75-.78-4.26-.78-2.64,0-4.77.6-6.41,1.81-1.64,1.2-2.83,2.81-3.58,4.81-.75,2-1.12,4.23-1.12,6.69s.37,4.66,1.12,6.67c.75,2,1.94,3.59,3.58,4.77,1.63,1.18,3.77,1.77,6.41,1.77s4.83-.66,6.49-1.98,2.62-3.29,2.88-5.91h4.44c-.26,2.59-1.02,4.73-2.27,6.43-1.25,1.7-2.87,2.97-4.86,3.82-1.99.85-4.22,1.27-6.69,1.27Z"/>
    <path d="M205.65,339.41v-32.86h4.39v32.86h-4.39Z"/>
    <path d="M228.74,339.85c-2.34,0-4.46-.36-6.35-1.07-1.89-.72-3.39-1.84-4.5-3.37-1.11-1.53-1.67-3.52-1.67-5.96h4.42c0,1.74.38,3.11,1.14,4.1.76.99,1.76,1.69,3.01,2.1,1.25.41,2.63.61,4.13.61,1.38,0,2.65-.21,3.8-.62,1.15-.42,2.06-1.04,2.75-1.88.68-.84,1.03-1.92,1.03-3.23,0-1.14-.27-2.08-.81-2.81s-1.43-1.37-2.67-1.92c-1.25-.54-2.92-1.09-5.02-1.62-2.47-.65-4.51-1.36-6.1-2.14-1.6-.77-2.78-1.74-3.55-2.89-.77-1.16-1.16-2.62-1.16-4.39,0-1.87.44-3.45,1.32-4.72.88-1.28,2.14-2.25,3.78-2.92,1.64-.67,3.6-1,5.86-1,2.12,0,4.05.34,5.81,1.03s3.16,1.71,4.21,3.08c1.05,1.37,1.58,3.07,1.58,5.1h-4.39c.02-1.86-.67-3.26-2.05-4.21-1.38-.95-3.09-1.43-5.13-1.43s-3.73.42-4.9,1.26c-1.16.84-1.75,2.06-1.75,3.67,0,.96.25,1.76.76,2.4.5.64,1.37,1.23,2.6,1.75,1.23.52,2.94,1.07,5.14,1.64,2.54.68,4.6,1.42,6.19,2.2,1.59.78,2.75,1.78,3.5,3,.75,1.22,1.12,2.82,1.12,4.81,0,2.12-.53,3.87-1.59,5.26-1.06,1.39-2.5,2.44-4.32,3.14-1.82.7-3.88,1.05-6.18,1.05Z"/>
    <path d="M262.48,339.41l-9.62-32.86h4.61l7.42,27.42,7.84-27.42h4.91l7.86,27.42,7.47-27.42h4.39l-9.59,32.86h-4.59l-8.08-27.78-7.96,27.78h-4.66Z"/>
    <path d="M309.85,339.8c-2.33,0-4.32-.49-5.98-1.48-1.66-.98-2.93-2.39-3.8-4.22-.87-1.83-1.31-4.01-1.31-6.53s.44-4.81,1.31-6.65c.87-1.85,2.14-3.27,3.8-4.26s3.65-1.49,5.98-1.49,4.41.5,6.09,1.49c1.68.99,2.98,2.41,3.88,4.26.9,1.85,1.36,4.07,1.36,6.65s-.45,4.7-1.36,6.53c-.9,1.83-2.2,3.24-3.88,4.22-1.69.99-3.72,1.48-6.09,1.48ZM309.85,336.56c1.76,0,3.16-.39,4.2-1.16,1.04-.77,1.79-1.84,2.25-3.2.46-1.36.68-2.9.68-4.63s-.23-3.33-.68-4.71c-.46-1.38-1.21-2.47-2.25-3.26-1.04-.79-2.44-1.18-4.2-1.18s-3.06.39-4.06,1.18c-1,.79-1.72,1.88-2.16,3.26s-.66,2.95-.66,4.71.22,3.27.66,4.63c.44,1.36,1.16,2.43,2.16,3.2,1,.77,2.36,1.16,4.06,1.16Z"/>
    <path d="M327.69,339.41v-23.78h3.83l.15,4.05c.67-1.24,1.59-2.27,2.78-3.1,1.19-.83,2.73-1.25,4.64-1.25h.49v3.74h-.56c-1.19,0-2.23.15-3.12.46-.9.31-1.68.74-2.34,1.28-.67.55-1.26,1.18-1.78,1.89v16.7h-4.08Z"/>
    <path d="M344.42,339.41v-32.86h4.08v20.29l10.74-11.21h4.81l-10.74,11.13,11.72,12.65h-5.08l-11.45-12.35v12.35h-4.08Z"/>
    <path d="M376.5,339.85c-1.33,0-2.6-.15-3.8-.44-1.2-.29-2.25-.76-3.16-1.39-.91-.63-1.62-1.47-2.14-2.5-.51-1.03-.77-2.28-.77-3.75h3.93c0,1.86.57,3.16,1.72,3.92,1.15.76,2.58,1.14,4.31,1.14,1.55,0,2.82-.3,3.82-.89,1-.59,1.5-1.57,1.5-2.94,0-1.17-.45-2.04-1.36-2.61-.9-.57-2.49-1.12-4.77-1.66-1.86-.44-3.42-.95-4.69-1.53-1.27-.58-2.22-1.31-2.86-2.2-.63-.89-.95-2.01-.95-3.36,0-1.06.22-1.99.67-2.8.45-.81,1.07-1.48,1.88-2.01.8-.54,1.75-.94,2.84-1.21,1.09-.27,2.27-.4,3.54-.4s2.43.15,3.53.44c1.1.29,2.07.75,2.9,1.37.84.62,1.5,1.42,1.99,2.39s.73,2.15.73,3.52h-3.96c0-1.69-.5-2.89-1.51-3.59-1.01-.7-2.24-1.05-3.69-1.05s-2.65.26-3.56.78c-.91.52-1.37,1.33-1.37,2.44,0,.63.2,1.17.61,1.61.41.44,1.09.83,2.05,1.18.96.35,2.25.72,3.88,1.11,1.77.42,3.26.93,4.47,1.51,1.2.59,2.11,1.34,2.72,2.26.61.92.92,2.1.92,3.53,0,1.24-.24,2.31-.72,3.21-.48.9-1.15,1.64-2,2.22-.86.58-1.86,1.01-3,1.28-1.15.28-2.39.42-3.72.42Z"/>
    <path d="M400.01,339.41c-1.92,0-3.39-.31-4.42-.92s-1.73-1.49-2.11-2.64c-.38-1.15-.57-2.53-.57-4.14v-12.79h-3.98v-3.3h3.98v-5.44h4.05v5.44h5.86v3.3h-5.86v12.6c0,1.48.19,2.62.57,3.41.38.79,1.3,1.18,2.75,1.18h2.59v3.3h-2.86Z"/>
    <path d="M408.24,339.41v-23.78h3.83l.15,4.05c.67-1.24,1.59-2.27,2.78-3.1,1.19-.83,2.73-1.25,4.64-1.25h.49v3.74h-.56c-1.19,0-2.23.15-3.12.46-.9.31-1.68.74-2.34,1.28-.67.55-1.26,1.18-1.78,1.89v16.7h-4.08Z"/>
    <path d="M434.16,339.85c-2.59,0-4.71-.54-6.36-1.62-1.65-1.08-2.88-2.55-3.67-4.42-.8-1.86-1.2-3.96-1.2-6.29s.39-4.56,1.16-6.41c.77-1.85,1.95-3.29,3.54-4.33,1.59-1.04,3.6-1.56,6.04-1.56,3.24,0,5.78.98,7.62,2.93,1.84,1.95,2.76,4.76,2.76,8.42,0,.24,0,.53-.02.87-.02.33-.04.57-.07.72h-16.94c.02,1.55.26,2.97.75,4.26.48,1.29,1.24,2.33,2.28,3.11,1.04.78,2.42,1.17,4.13,1.17,1.82,0,3.25-.43,4.27-1.28s1.56-2.09,1.61-3.7h4.03c-.05,1.68-.48,3.12-1.29,4.33-.81,1.21-1.95,2.15-3.42,2.81s-3.2.99-5.2.99ZM427.04,325.18h12.99c-.05-2.21-.63-3.91-1.73-5.08-1.11-1.17-2.65-1.76-4.61-1.76s-3.54.58-4.68,1.75c-1.13,1.16-1.79,2.86-1.96,5.09Z"/>
    <path d="M456.75,339.85c-1.37,0-2.62-.26-3.75-.78-1.13-.52-2.03-1.29-2.71-2.31-.68-1.02-1.01-2.27-1.01-3.77,0-2.13.67-3.75,2-4.86,1.33-1.11,3.22-1.86,5.66-2.26,2.44-.4,5.3-.61,8.57-.65v-1.66c0-2.03-.5-3.43-1.51-4.19-1.01-.76-2.29-1.13-3.83-1.13-1.64,0-3.03.42-4.15,1.25s-1.68,2.14-1.68,3.93h-3.96c0-1.95.42-3.53,1.26-4.74.84-1.2,1.99-2.08,3.47-2.64,1.47-.55,3.16-.83,5.07-.83,1.22,0,2.39.11,3.5.34,1.11.23,2.12.64,3,1.25.89.6,1.59,1.44,2.11,2.53.52,1.08.78,2.48.78,4.19v15.89h-3.81l-.17-3.61c-1.09,1.22-2.36,2.2-3.8,2.94-1.44.74-3.12,1.11-5.04,1.11ZM457.82,336.73c1.63,0,3.09-.38,4.39-1.15,1.3-.76,2.39-1.73,3.27-2.91v-4.83c-4.33.05-7.43.46-9.31,1.22-1.88.76-2.82,2.02-2.82,3.76,0,1.19.38,2.14,1.14,2.84.76.71,1.87,1.06,3.33,1.06Z"/>
    <path d="M477.18,339.41v-23.78h3.91l.15,3.66c.7-.96,1.72-1.87,3.08-2.72,1.35-.85,3.04-1.28,5.05-1.28,2.64,0,4.53.77,5.69,2.32,1.16,1.55,1.73,3.7,1.73,6.47v15.33h-4.1v-14.75c0-1.16-.12-2.18-.35-3.08-.24-.9-.67-1.6-1.31-2.11s-1.55-.77-2.73-.77c-1.68,0-3.09.4-4.25,1.21-1.16.81-2.08,1.69-2.78,2.65v16.85h-4.08ZM508.14,339.41v-14.75c0-1.16-.12-2.18-.35-3.08-.24-.9-.67-1.6-1.31-2.11s-1.54-.77-2.71-.77c-1.69,0-3.12.39-4.27,1.18-1.16.79-2.11,1.67-2.86,2.62l-.61-2.98c.94-1.04,2.14-2.01,3.58-2.91,1.44-.9,3.17-1.34,5.19-1.34,2.64,0,4.53.77,5.69,2.32,1.16,1.55,1.73,3.7,1.73,6.47v15.33h-4.08Z"/>
    <path d="M528.33,339.41v-3.22l11.3-10.33c1.95-1.77,3.37-3.39,4.25-4.83s1.32-2.97,1.32-4.57-.44-3.02-1.33-4.09c-.89-1.07-2.34-1.6-4.36-1.6-2.28,0-3.91.59-4.9,1.77-.98,1.18-1.48,2.67-1.48,4.46h-4.08c0-1.99.39-3.72,1.16-5.2.77-1.48,1.94-2.63,3.49-3.44,1.55-.81,3.49-1.22,5.8-1.22,2.12,0,3.91.38,5.4,1.13,1.48.76,2.61,1.82,3.38,3.19.77,1.37,1.16,2.98,1.16,4.83,0,1.66-.32,3.17-.96,4.54-.64,1.37-1.51,2.65-2.6,3.86-1.09,1.2-2.29,2.4-3.61,3.59l-8.37,7.52h16.48v3.61h-22.05Z"/>
    <path d="M36.53,391.41v-32.86h7.89l10.3,17.53h-2.73l10.16-17.53h7.59v32.86h-6.76v-29.2h3l-10.74,18.7h-4.22l-11.01-18.7h3.1v29.2h-6.57Z"/>
    <path d="M84.46,391.73c-2.41,0-4.27-.75-5.59-2.23-1.32-1.49-1.98-3.61-1.98-6.36v-15.55h6.47v14.77c0,.81.12,1.53.35,2.16.24.63.63,1.11,1.17,1.45.55.34,1.27.51,2.16.51,1.3,0,2.41-.29,3.33-.87.92-.58,1.72-1.28,2.4-2.11v-15.92h6.47v23.83h-6.25l-.1-3.59c-.8,1.01-1.89,1.91-3.27,2.71-1.38.8-3.11,1.2-5.18,1.2Z"/>
    <path d="M115.12,391.41c-2.43,0-4.3-.29-5.62-.87-1.32-.58-2.24-1.47-2.76-2.69-.52-1.21-.78-2.79-.78-4.75v-24.56h6.45v24.17c0,1.25.17,2.17.51,2.76s1.14.88,2.39.88h1.49v5.05h-1.68Z"/>
    <path d="M130.92,391.41c-2.41,0-4.28-.29-5.6-.87-1.33-.58-2.25-1.47-2.77-2.69-.52-1.21-.78-2.79-.78-4.75v-10.55h-3.96v-4.98h3.96v-5.62h6.47v5.62h5.2v4.98h-5.2v10.16c0,1.25.17,2.18.52,2.78.35.6,1.14.9,2.38.9h2.29v5h-2.51Z"/>
    <path d="M141.76,364.46c-1.19,0-2.1-.3-2.72-.9-.63-.6-.94-1.35-.94-2.25s.31-1.66.94-2.26c.63-.59,1.53-.89,2.72-.89s2.1.3,2.72.89c.63.59.94,1.35.94,2.26s-.31,1.64-.94,2.25c-.63.6-1.53.9-2.72.9ZM138.51,391.41v-23.83h6.47v23.83h-6.47Z"/>
    <path d="M177.04,391.85c-3.32,0-6.18-.7-8.57-2.09-2.39-1.39-4.23-3.34-5.52-5.86-1.29-2.51-1.93-5.48-1.93-8.9s.64-6.39,1.93-8.92c1.29-2.53,3.12-4.49,5.52-5.88,2.39-1.39,5.25-2.09,8.57-2.09,2.57,0,4.94.44,7.1,1.33,2.16.89,3.92,2.2,5.27,3.93,1.35,1.73,2.09,3.87,2.22,6.41h-7.03c-.18-1.33-.61-2.44-1.31-3.32-.69-.88-1.58-1.54-2.65-1.98s-2.28-.66-3.61-.66c-2.15,0-3.88.52-5.19,1.56-1.31,1.04-2.26,2.4-2.86,4.09-.59,1.68-.89,3.53-.89,5.53s.3,3.83.89,5.52c.59,1.69,1.55,3.05,2.86,4.08,1.31,1.03,3.04,1.54,5.19,1.54,2.26,0,4.05-.58,5.36-1.75,1.31-1.16,2.06-2.82,2.26-4.97h7.03c-.2,2.69-.9,4.95-2.12,6.8-1.22,1.85-2.89,3.25-5,4.2-2.12.95-4.62,1.43-7.52,1.43Z"/>
    <path d="M206.33,391.41c-2.43,0-4.3-.29-5.62-.87-1.32-.58-2.24-1.47-2.76-2.69-.52-1.21-.78-2.79-.78-4.75v-24.56h6.45v24.17c0,1.25.17,2.17.51,2.76s1.14.88,2.39.88h1.49v5.05h-1.68Z"/>
    <path d="M219.54,391.73c-2.41,0-4.27-.75-5.59-2.23-1.32-1.49-1.98-3.61-1.98-6.36v-15.55h6.47v14.77c0,.81.12,1.53.35,2.16.24.63.63,1.11,1.17,1.45.55.34,1.27.51,2.16.51,1.3,0,2.41-.29,3.33-.87.92-.58,1.72-1.28,2.4-2.11v-15.92h6.47v23.83h-6.25l-.1-3.59c-.8,1.01-1.89,1.91-3.27,2.71-1.38.8-3.11,1.2-5.18,1.2Z"/>
    <path d="M250.84,391.85c-1.32,0-2.61-.12-3.88-.37s-2.42-.66-3.44-1.26c-1.03-.59-1.84-1.4-2.44-2.43-.6-1.03-.9-2.3-.9-3.83h6.01c0,1.33.47,2.26,1.4,2.78.94.52,2.03.78,3.28.78s2.2-.2,2.88-.6c.68-.4,1.03-1.07,1.03-2.01,0-.89-.4-1.56-1.21-2-.81-.44-2.22-.89-4.24-1.34-1.69-.41-3.2-.9-4.53-1.48-1.33-.58-2.36-1.35-3.11-2.32-.75-.97-1.12-2.24-1.12-3.82,0-1.24.28-2.29.85-3.15.57-.86,1.33-1.56,2.28-2.09.95-.53,2.03-.92,3.22-1.16,1.2-.24,2.42-.37,3.67-.37s2.42.12,3.59.37,2.23.66,3.17,1.23c.94.58,1.7,1.35,2.27,2.33.57.98.85,2.2.85,3.66h-6.01c0-1.22-.39-2.07-1.16-2.54-.77-.47-1.68-.71-2.72-.71-1.12,0-2.01.16-2.65.49-.64.33-.96.86-.96,1.61,0,.44.2.83.61,1.16.41.33,1.06.64,1.95.93.89.28,2.08.59,3.54.92,1.55.36,2.93.82,4.15,1.39,1.22.57,2.19,1.33,2.91,2.29.72.96,1.07,2.21,1.07,3.74,0,1.43-.29,2.65-.87,3.64-.58.99-1.35,1.79-2.32,2.4-.97.61-2.07,1.05-3.32,1.33-1.24.28-2.54.42-3.87.42Z"/>
    <path d="M276.82,391.41c-2.41,0-4.28-.29-5.6-.87-1.33-.58-2.25-1.47-2.77-2.69-.52-1.21-.78-2.79-.78-4.75v-10.55h-3.96v-4.98h3.96v-5.62h6.47v5.62h5.2v4.98h-5.2v10.16c0,1.25.17,2.18.52,2.78.35.6,1.14.9,2.38.9h2.29v5h-2.51Z"/>
    <path d="M295.13,391.85c-2.65,0-4.88-.49-6.69-1.48-1.81-.99-3.17-2.41-4.1-4.26s-1.39-4.08-1.39-6.69.45-4.7,1.36-6.52c.9-1.82,2.23-3.23,3.98-4.21,1.75-.99,3.9-1.48,6.46-1.48,3.55,0,6.35,1.04,8.41,3.11,2.06,2.08,3.09,5.03,3.09,8.88,0,.2,0,.46-.02.79-.02.33-.04.59-.07.77h-16.72c.03,1.12.24,2.17.62,3.15.38.98.99,1.76,1.82,2.36.83.59,1.92.89,3.27.89s2.52-.3,3.37-.92c.85-.61,1.28-1.52,1.29-2.72h6.37c-.08,1.86-.59,3.4-1.53,4.64-.94,1.24-2.21,2.16-3.83,2.77-1.62.61-3.51.92-5.68.92ZM289.49,376.67h10.33c-.05-1.66-.54-2.9-1.48-3.72-.94-.82-2.14-1.23-3.6-1.23s-2.72.42-3.67,1.27c-.95.85-1.48,2.08-1.57,3.69Z"/>
    <path d="M311.97,391.41v-23.83h6.2l.12,4.13c.62-1.43,1.55-2.53,2.78-3.3,1.24-.76,2.73-1.15,4.49-1.15h.49v5.44h-.61c-.96,0-1.88.09-2.76.26-.88.17-1.68.46-2.39.88-.72.42-1.33.99-1.86,1.72v15.84h-6.47Z"/>
    <path d="M341.05,391.41v-32.86h6.86v15.67l11.79-15.67h7.59l-12.16,15.41,12.96,17.46h-7.93l-12.26-16.82v16.82h-6.86Z"/>
    <path d="M377.77,391.73c-2.41,0-4.27-.75-5.59-2.23-1.32-1.49-1.98-3.61-1.98-6.36v-15.55h6.47v14.77c0,.81.12,1.53.35,2.16.24.63.63,1.11,1.17,1.45.55.34,1.27.51,2.16.51,1.3,0,2.41-.29,3.33-.87.92-.58,1.72-1.28,2.4-2.11v-15.92h6.47v23.83h-6.25l-.1-3.59c-.8,1.01-1.89,1.91-3.27,2.71-1.38.8-3.11,1.2-5.18,1.2Z"/>
    <path d="M413.07,391.85c-1.74,0-3.17-.33-4.3-1s-2.08-1.59-2.88-2.76l-.27,3.32h-6.13v-32.86h6.47v12.45c.85-1.16,1.88-2.08,3.1-2.77,1.22-.69,2.73-1.04,4.52-1.04s3.45.44,4.88,1.33c1.43.89,2.56,2.24,3.39,4.05.83,1.82,1.25,4.13,1.25,6.95s-.44,5.11-1.33,6.93c-.89,1.82-2.09,3.18-3.6,4.07-1.51.89-3.21,1.33-5.1,1.33ZM411.46,386.9c1.58,0,2.81-.62,3.7-1.86.89-1.24,1.33-3.04,1.33-5.4,0-2.55-.42-4.46-1.26-5.7-.84-1.24-2.01-1.87-3.5-1.87-1.33,0-2.5.4-3.5,1.2-1,.8-1.75,1.73-2.26,2.81v6.98c.47,1.03,1.18,1.92,2.11,2.69.94.77,2.06,1.15,3.38,1.15Z"/>
    <path d="M439.78,391.85c-2.65,0-4.88-.49-6.69-1.48-1.81-.99-3.17-2.41-4.1-4.26s-1.39-4.08-1.39-6.69.45-4.7,1.36-6.52c.9-1.82,2.23-3.23,3.98-4.21,1.75-.99,3.9-1.48,6.46-1.48,3.55,0,6.35,1.04,8.41,3.11,2.06,2.08,3.09,5.03,3.09,8.88,0,.2,0,.46-.02.79-.02.33-.04.59-.07.77h-16.72c.03,1.12.24,2.17.62,3.15.38.98.99,1.76,1.82,2.36.83.59,1.92.89,3.27.89s2.52-.3,3.37-.92c.85-.61,1.28-1.52,1.29-2.72h6.37c-.08,1.86-.59,3.4-1.53,4.64-.94,1.24-2.21,2.16-3.83,2.77-1.62.61-3.51.92-5.68.92ZM434.14,376.67h10.33c-.05-1.66-.54-2.9-1.48-3.72-.94-.82-2.14-1.23-3.6-1.23s-2.72.42-3.67,1.27c-.95.85-1.48,2.08-1.57,3.69Z"/>
    <path d="M456.63,391.41v-23.83h6.2l.12,4.13c.62-1.43,1.55-2.53,2.78-3.3,1.24-.76,2.73-1.15,4.49-1.15h.49v5.44h-.61c-.96,0-1.88.09-2.76.26-.88.17-1.68.46-2.39.88-.72.42-1.33.99-1.86,1.72v15.84h-6.47Z"/>
    <path d="M475.08,391.41v-23.83h6.23l.12,3.56c.8-1.03,1.85-1.93,3.15-2.72,1.3-.79,2.99-1.18,5.08-1.18,2.42,0,4.3.74,5.64,2.21,1.33,1.47,2,3.63,2,6.46v15.5h-6.42v-14.67c0-.86-.12-1.62-.37-2.27-.24-.65-.63-1.16-1.16-1.51-.53-.36-1.22-.54-2.09-.54-1.29,0-2.39.3-3.31.9-.92.6-1.72,1.33-2.41,2.2v15.89h-6.47Z"/>
    <path d="M515,391.85c-2.65,0-4.88-.49-6.69-1.48-1.81-.99-3.17-2.41-4.1-4.26s-1.39-4.08-1.39-6.69.45-4.7,1.36-6.52c.9-1.82,2.23-3.23,3.98-4.21,1.75-.99,3.9-1.48,6.46-1.48,3.55,0,6.35,1.04,8.41,3.11,2.06,2.08,3.09,5.03,3.09,8.88,0,.2,0,.46-.02.79-.02.33-.04.59-.07.77h-16.72c.03,1.12.24,2.17.62,3.15.38.98.99,1.76,1.82,2.36.83.59,1.92.89,3.27.89s2.52-.3,3.37-.92c.85-.61,1.28-1.52,1.29-2.72h6.37c-.08,1.86-.59,3.4-1.53,4.64-.94,1.24-2.21,2.16-3.83,2.77-1.62.61-3.51.92-5.68.92ZM509.36,376.67h10.33c-.05-1.66-.54-2.9-1.48-3.72-.94-.82-2.14-1.23-3.6-1.23s-2.72.42-3.67,1.27c-.95.85-1.48,2.08-1.57,3.69Z"/>
    <path d="M542.03,391.41c-2.41,0-4.28-.29-5.6-.87-1.33-.58-2.25-1.47-2.77-2.69-.52-1.21-.78-2.79-.78-4.75v-10.55h-3.96v-4.98h3.96v-5.62h6.47v5.62h5.2v4.98h-5.2v10.16c0,1.25.17,2.18.52,2.78.35.6,1.14.9,2.38.9h2.29v5h-2.51Z"/>
    <path d="M560.34,391.85c-2.65,0-4.88-.49-6.69-1.48-1.81-.99-3.17-2.41-4.1-4.26s-1.39-4.08-1.39-6.69.45-4.7,1.36-6.52c.9-1.82,2.23-3.23,3.98-4.21,1.75-.99,3.9-1.48,6.46-1.48,3.55,0,6.35,1.04,8.41,3.11,2.06,2.08,3.09,5.03,3.09,8.88,0,.2,0,.46-.02.79-.02.33-.04.59-.07.77h-16.72c.03,1.12.24,2.17.62,3.15.38.98.99,1.76,1.82,2.36.83.59,1.92.89,3.27.89s2.52-.3,3.37-.92c.85-.61,1.28-1.52,1.29-2.72h6.37c-.08,1.86-.59,3.4-1.53,4.64-.94,1.24-2.21,2.16-3.83,2.77-1.62.61-3.51.92-5.68.92ZM554.7,376.67h10.33c-.05-1.66-.54-2.9-1.48-3.72-.94-.82-2.14-1.23-3.6-1.23s-2.72.42-3.67,1.27c-.95.85-1.48,2.08-1.57,3.69Z"/>
    <path d="M586.51,391.85c-1.32,0-2.61-.12-3.88-.37s-2.42-.66-3.44-1.26c-1.03-.59-1.84-1.4-2.44-2.43-.6-1.03-.9-2.3-.9-3.83h6.01c0,1.33.47,2.26,1.4,2.78.94.52,2.03.78,3.28.78s2.2-.2,2.88-.6c.68-.4,1.03-1.07,1.03-2.01,0-.89-.4-1.56-1.21-2-.81-.44-2.22-.89-4.24-1.34-1.69-.41-3.2-.9-4.53-1.48-1.33-.58-2.36-1.35-3.11-2.32-.75-.97-1.12-2.24-1.12-3.82,0-1.24.28-2.29.85-3.15.57-.86,1.33-1.56,2.28-2.09.95-.53,2.03-.92,3.22-1.16,1.2-.24,2.42-.37,3.67-.37s2.42.12,3.59.37,2.23.66,3.17,1.23c.94.58,1.7,1.35,2.27,2.33.57.98.85,2.2.85,3.66h-6.01c0-1.22-.39-2.07-1.16-2.54-.77-.47-1.68-.71-2.72-.71-1.12,0-2.01.16-2.65.49-.64.33-.96.86-.96,1.61,0,.44.2.83.61,1.16.41.33,1.06.64,1.95.93.89.28,2.08.59,3.54.92,1.55.36,2.93.82,4.15,1.39,1.22.57,2.19,1.33,2.91,2.29.72.96,1.07,2.21,1.07,3.74,0,1.43-.29,2.65-.87,3.64-.58.99-1.35,1.79-2.32,2.4-.97.61-2.07,1.05-3.32,1.33-1.24.28-2.54.42-3.87.42Z"/>
    <path d="M36.53,443.41v-32.86h7.89l10.3,17.53h-2.73l10.16-17.53h7.59v32.86h-6.76v-29.2h3l-10.74,18.7h-4.22l-11.01-18.7h3.1v29.2h-6.57Z"/>
    <path d="M92.07,443.85c-3.32,0-6.18-.7-8.57-2.09-2.39-1.39-4.23-3.34-5.52-5.86-1.29-2.51-1.93-5.48-1.93-8.9s.64-6.39,1.93-8.92c1.29-2.53,3.12-4.49,5.52-5.88,2.39-1.39,5.25-2.09,8.57-2.09,2.57,0,4.94.44,7.1,1.33,2.16.89,3.92,2.2,5.27,3.93,1.35,1.73,2.09,3.87,2.22,6.41h-7.03c-.18-1.33-.61-2.44-1.31-3.32-.69-.88-1.58-1.54-2.65-1.98s-2.28-.66-3.61-.66c-2.15,0-3.88.52-5.19,1.56-1.31,1.04-2.26,2.4-2.86,4.09-.59,1.68-.89,3.53-.89,5.53s.3,3.83.89,5.52c.59,1.69,1.55,3.05,2.86,4.08,1.31,1.03,3.04,1.54,5.19,1.54,2.26,0,4.05-.58,5.36-1.75,1.31-1.16,2.06-2.82,2.26-4.97h7.03c-.2,2.69-.9,4.95-2.12,6.8-1.22,1.85-2.89,3.25-5,4.2-2.12.95-4.62,1.43-7.52,1.43Z"/>
    <path d="M112.9,443.41v-32.86h6.86v15.67l11.79-15.67h7.59l-12.16,15.41,12.96,17.46h-7.93l-12.26-16.82v16.82h-6.86Z"/>
  </g>
  <line class="cls-3" x1="25.46" y1="272.11" x2="792.52" y2="272.11"/>
  <g>
    <rect class="cls-1" x="94.38" y="619.7" width="608.87" height="94.27"/>
    <path d="M102.35,647.3v-23.65h-7.61v-3.96h19.91v3.96h-7.57v23.65h-4.74Z"/>
    <path d="M122.54,647.58c-2.17,0-3.79-.64-4.86-1.91s-1.6-3.05-1.6-5.33v-13.04h4.43v12.49c0,.79.1,1.5.31,2.11s.57,1.1,1.09,1.45,1.24.52,2.15.52c1.29,0,2.38-.28,3.27-.83s1.64-1.21,2.25-1.98v-13.76h4.43v20h-4.29l-.08-3.06c-.66.83-1.57,1.6-2.73,2.3s-2.62,1.05-4.37,1.05Z"/>
    <path d="M148.58,647.66c-2.19,0-4.01-.43-5.47-1.3s-2.55-2.08-3.27-3.65-1.09-3.38-1.09-5.45.35-3.89,1.06-5.42,1.76-2.73,3.16-3.59,3.16-1.28,5.26-1.28c2.84,0,5.09.85,6.73,2.54s2.46,4.12,2.46,7.26c0,.19-.01.43-.03.71s-.04.48-.07.6h-14.13c.01,1.13.2,2.18.56,3.13s.94,1.71,1.73,2.29,1.83.86,3.1.86c1.37,0,2.44-.3,3.22-.91s1.19-1.51,1.23-2.7h4.37c-.07,1.48-.47,2.73-1.2,3.76s-1.74,1.81-3.04,2.35-2.82.8-4.58.8ZM143.23,635.11h9.78c-.04-1.61-.49-2.84-1.34-3.68s-2-1.26-3.43-1.26-2.65.42-3.52,1.27-1.36,2.07-1.49,3.67Z"/>
    <path d="M169.55,647.66c-1.12,0-2.2-.11-3.23-.34s-1.96-.6-2.77-1.12-1.46-1.21-1.93-2.07-.71-1.92-.71-3.18h4.18c0,1.34.44,2.28,1.31,2.81s1.93.8,3.18.8c1.18,0,2.12-.21,2.83-.62s1.07-1.11,1.07-2.08c0-.86-.36-1.5-1.09-1.93s-1.99-.84-3.79-1.25c-1.49-.37-2.78-.79-3.87-1.27s-1.92-1.11-2.5-1.9-.87-1.79-.87-3.03c0-.96.21-1.78.65-2.48s1.02-1.27,1.75-1.72,1.59-.79,2.54-1,1.97-.33,3.04-.33,2.02.11,2.97.34,1.81.59,2.56,1.1,1.35,1.17,1.78,1.99.66,1.83.66,3.01h-4.16c0-1.22-.38-2.07-1.13-2.57s-1.65-.75-2.69-.75c-1.09,0-1.97.18-2.62.53s-.97.93-.97,1.72c0,.45.17.84.51,1.16s.9.62,1.67.88,1.81.55,3.11.85c1.39.33,2.6.74,3.63,1.22s1.81,1.12,2.37,1.91.83,1.81.83,3.07c0,1.12-.22,2.08-.67,2.87s-1.05,1.44-1.81,1.94-1.65.86-2.66,1.1-2.07.35-3.19.35Z"/>
    <path d="M189.21,647.64c-1.56,0-2.94-.38-4.13-1.15s-2.13-1.92-2.8-3.48-1-3.49-1-5.81.36-4.2,1.08-5.71,1.71-2.65,2.97-3.4,2.72-1.14,4.38-1.14c1.39,0,2.6.3,3.63.9s1.85,1.4,2.46,2.4v-10.56h4.43v27.6h-4.2l-.23-2.87c-.71.97-1.61,1.75-2.69,2.34s-2.38.88-3.9.88ZM190.36,644.18c1.31,0,2.42-.33,3.32-.99s1.61-1.45,2.11-2.37v-6.79c-.48-1-1.14-1.85-1.98-2.55s-1.88-1.06-3.13-1.06c-1.59,0-2.8.58-3.63,1.75s-1.25,2.84-1.25,5.01c0,2.32.39,4.07,1.18,5.24s1.91,1.75,3.37,1.75Z"/>
    <path d="M211.35,647.64c-1.15,0-2.2-.21-3.17-.65s-1.74-1.08-2.33-1.95-.88-1.95-.88-3.25c0-1.82.56-3.19,1.67-4.12s2.68-1.57,4.7-1.91,4.38-.53,7.08-.57v-1.23c0-1.49-.37-2.52-1.11-3.08s-1.67-.84-2.81-.84c-1.23,0-2.26.3-3.08.9s-1.23,1.57-1.23,2.89h-4.2c0-1.67.36-3,1.08-4.01s1.72-1.73,2.99-2.18,2.76-.68,4.44-.68c1.13,0,2.2.1,3.2.31s1.88.56,2.64,1.08,1.35,1.22,1.78,2.11.65,2.04.65,3.43v13.39h-4.14l-.16-2.81c-.88.98-1.9,1.76-3.07,2.32s-2.52.84-4.05.84ZM212.68,644.49c1.2,0,2.3-.29,3.28-.88s1.79-1.31,2.42-2.15v-3.63c-3.25.01-5.56.31-6.93.9s-2.05,1.54-2.05,2.85c0,.93.29,1.65.87,2.15s1.38.76,2.41.76Z"/>
    <path d="M227.44,654.64v-3.63h1.76c.79,0,1.46-.17,1.99-.52s.96-.93,1.29-1.73l.59-1.46-7.88-20h4.63l5.62,15.57,5.11-15.57h4.49l-7.34,20-.84,2.19c-.49,1.31-1.04,2.34-1.64,3.09s-1.34,1.27-2.22,1.59-1.99.47-3.31.47h-2.26Z"/>
    <path d="M245.11,653.32l-.8-2.32c.89-.31,1.63-.78,2.23-1.4s.96-1.39,1.1-2.31l.27.25c-.9,0-1.64-.29-2.21-.86s-.86-1.28-.86-2.11c0-.88.29-1.59.86-2.13s1.31-.82,2.21-.82,1.63.31,2.19.94.84,1.57.84,2.83c0,1.5-.27,2.79-.82,3.85s-1.26,1.92-2.14,2.58-1.84,1.17-2.86,1.51Z"/>
    <path d="M265.27,647.3v-27.6h9.78c2.91,0,5.4.54,7.46,1.63s3.64,2.66,4.74,4.72,1.64,4.53,1.64,7.41-.55,5.46-1.65,7.52-2.68,3.63-4.75,4.71-4.55,1.62-7.44,1.62h-9.78ZM269.99,643.34h4.33c2.2,0,4.02-.36,5.45-1.08s2.5-1.81,3.21-3.27,1.07-3.32,1.07-5.56-.37-4.01-1.11-5.46-1.83-2.53-3.27-3.25-3.22-1.08-5.34-1.08h-4.33v19.69Z"/>
    <path d="M302.52,647.66c-2.19,0-4.01-.43-5.46-1.3s-2.55-2.08-3.27-3.65-1.09-3.38-1.09-5.45.35-3.89,1.06-5.42,1.76-2.73,3.16-3.59,3.15-1.28,5.26-1.28c2.84,0,5.09.85,6.73,2.54s2.46,4.12,2.46,7.26c0,.19,0,.43-.03.71s-.04.48-.07.6h-14.13c.01,1.13.2,2.18.56,3.13s.94,1.71,1.73,2.29,1.83.86,3.1.86c1.37,0,2.44-.3,3.22-.91s1.19-1.51,1.23-2.7h4.37c-.07,1.48-.47,2.73-1.2,3.76s-1.74,1.81-3.04,2.35-2.82.8-4.58.8ZM297.17,635.11h9.78c-.04-1.61-.49-2.84-1.34-3.68s-2-1.26-3.44-1.26-2.65.42-3.52,1.27-1.36,2.07-1.49,3.67Z"/>
    <path d="M324.7,647.6c-1.85,0-3.49-.37-4.94-1.1s-2.59-1.86-3.44-3.37-1.26-3.44-1.26-5.76.41-4.28,1.22-5.81,1.94-2.69,3.38-3.45,3.12-1.14,5.04-1.14c1.61,0,3.07.27,4.37.8s2.33,1.33,3.11,2.4,1.18,2.41,1.22,4.04h-4.33c-.07-1.16-.48-2.08-1.23-2.75s-1.78-1-3.1-1c-1.76,0-3.06.61-3.9,1.82s-1.25,2.91-1.25,5.1c0,1.42.18,2.64.55,3.65s.93,1.78,1.69,2.32,1.73.8,2.9.8c1.34,0,2.41-.36,3.22-1.07s1.23-1.74,1.27-3.08h4.33c-.04,1.67-.45,3.07-1.23,4.2s-1.83,1.99-3.15,2.55-2.81.85-4.48.85Z"/>
    <path d="M347.07,647.66c-2.19,0-4.01-.43-5.47-1.3s-2.55-2.08-3.27-3.65-1.09-3.38-1.09-5.45.35-3.89,1.06-5.42,1.76-2.73,3.16-3.59,3.16-1.28,5.26-1.28c2.84,0,5.09.85,6.73,2.54s2.46,4.12,2.46,7.26c0,.19-.01.43-.03.71s-.04.48-.07.6h-14.13c.01,1.13.2,2.18.56,3.13s.94,1.71,1.73,2.29,1.83.86,3.1.86c1.37,0,2.44-.3,3.22-.91s1.19-1.51,1.23-2.7h4.37c-.07,1.48-.47,2.73-1.2,3.76s-1.74,1.81-3.04,2.35-2.82.8-4.58.8ZM341.72,635.11h9.78c-.04-1.61-.49-2.84-1.34-3.68s-2-1.26-3.43-1.26-2.65.42-3.52,1.27-1.36,2.07-1.49,3.67Z"/>
    <path d="M360.68,647.3v-20h4.27l.1,3.04c.63-.83,1.51-1.6,2.66-2.29s2.56-1.04,4.26-1.04c2.12,0,3.69.64,4.72,1.93s1.54,3.08,1.54,5.39v12.96h-4.45v-12.37c0-.85-.1-1.6-.3-2.25s-.54-1.16-1.03-1.52-1.16-.54-2.02-.54c-1.23,0-2.28.3-3.14.89s-1.58,1.27-2.15,2.02v13.76h-4.45ZM386.82,647.3v-12.37c0-.85-.1-1.6-.3-2.25s-.54-1.16-1.03-1.52-1.16-.54-2.02-.54c-1.23,0-2.28.28-3.14.85s-1.6,1.23-2.21,1.98l-.59-2.95c.82-.89,1.85-1.69,3.09-2.41s2.7-1.08,4.4-1.08c2.11,0,3.67.64,4.7,1.93s1.54,3.08,1.54,5.39v12.96h-4.43Z"/>
    <path d="M407.45,647.66c-1.48,0-2.71-.28-3.7-.85s-1.81-1.34-2.47-2.33l-.21,2.81h-4.18v-27.6h4.45v10.64c.7-1.01,1.58-1.83,2.66-2.45s2.37-.93,3.89-.93,2.98.38,4.17,1.15,2.13,1.91,2.8,3.44,1,3.45,1,5.77-.36,4.24-1.08,5.77-1.71,2.69-2.97,3.45-2.72,1.14-4.36,1.14ZM406.44,644.18c1.57,0,2.78-.59,3.61-1.76s1.25-2.86,1.25-5.04c0-2.3-.39-4.03-1.18-5.21s-1.91-1.76-3.37-1.76c-1.29,0-2.39.36-3.3,1.07s-1.62,1.57-2.11,2.56v6.79c.46.93,1.12,1.72,1.98,2.38s1.9.98,3.13.98Z"/>
    <path d="M429.36,647.66c-2.19,0-4.01-.43-5.47-1.3s-2.55-2.08-3.27-3.65-1.09-3.38-1.09-5.45.35-3.89,1.06-5.42,1.76-2.73,3.16-3.59,3.16-1.28,5.26-1.28c2.84,0,5.09.85,6.73,2.54s2.46,4.12,2.46,7.26c0,.19-.01.43-.03.71s-.04.48-.07.6h-14.13c.01,1.13.2,2.18.56,3.13s.94,1.71,1.73,2.29,1.83.86,3.1.86c1.37,0,2.44-.3,3.22-.91s1.19-1.51,1.23-2.7h4.37c-.07,1.48-.47,2.73-1.2,3.76s-1.74,1.81-3.04,2.35-2.82.8-4.58.8ZM424.01,635.11h9.78c-.04-1.61-.49-2.84-1.34-3.68s-2-1.26-3.43-1.26-2.65.42-3.52,1.27-1.36,2.07-1.49,3.67Z"/>
    <path d="M442.97,647.3v-20h4.22l.1,3.42c.55-1.11,1.33-2,2.35-2.68s2.3-1.02,3.85-1.02h.39v3.88h-.47c-.92,0-1.75.1-2.49.3s-1.4.5-1.98.9-1.08.91-1.52,1.51v13.68h-4.45Z"/>
    <path d="M464.11,647.3v-3.24l9.66-8.8c1.38-1.27,2.4-2.45,3.05-3.55s.97-2.24.97-3.42-.31-2.25-.94-3.04-1.67-1.2-3.14-1.2c-1.67,0-2.86.46-3.58,1.39s-1.08,2.11-1.08,3.55h-4.31c0-1.83.34-3.41,1.02-4.73s1.68-2.34,3.01-3.06,2.98-1.08,4.93-1.08c1.79,0,3.33.32,4.62.96s2.28,1.55,2.97,2.73,1.04,2.58,1.04,4.2c0,1.42-.26,2.7-.79,3.83s-1.24,2.18-2.13,3.17-1.9,1.97-3,2.95l-6.17,5.52h12.84v3.81h-18.97Z"/>
    <path d="M487.57,647.3v-20h4.27l.1,3.04c.66-.83,1.54-1.6,2.67-2.29s2.56-1.04,4.33-1.04c2.12,0,3.71.63,4.77,1.9s1.59,3.07,1.59,5.42v12.96h-4.43v-12.37c0-.85-.1-1.6-.31-2.25s-.55-1.16-1.04-1.52-1.15-.54-2-.54c-1.29,0-2.38.3-3.27.89s-1.64,1.27-2.23,2.02v13.76h-4.45Z"/>
    <path d="M517.79,647.64c-1.56,0-2.94-.38-4.13-1.15s-2.13-1.92-2.8-3.48-1-3.49-1-5.81.36-4.2,1.08-5.71,1.71-2.65,2.97-3.4,2.72-1.14,4.38-1.14c1.39,0,2.6.3,3.63.9s1.85,1.4,2.46,2.4v-10.56h4.43v27.6h-4.2l-.23-2.87c-.71.97-1.61,1.75-2.69,2.34s-2.38.88-3.9.88ZM518.93,644.18c1.31,0,2.42-.33,3.32-.99s1.61-1.45,2.11-2.37v-6.79c-.48-1-1.14-1.85-1.98-2.55s-1.88-1.06-3.13-1.06c-1.59,0-2.8.58-3.63,1.75s-1.25,2.84-1.25,5.01c0,2.32.39,4.07,1.18,5.24s1.91,1.75,3.37,1.75Z"/>
    <path d="M534.9,653.32l-.8-2.32c.89-.31,1.63-.78,2.23-1.4s.96-1.39,1.1-2.31l.27.25c-.9,0-1.64-.29-2.21-.86s-.86-1.28-.86-2.11c0-.88.29-1.59.86-2.13s1.31-.82,2.21-.82,1.63.31,2.19.94.84,1.57.84,2.83c0,1.5-.27,2.79-.82,3.85s-1.26,1.92-2.14,2.58-1.84,1.17-2.86,1.51ZM537.69,633.23c-.9,0-1.64-.29-2.21-.86s-.86-1.28-.86-2.11c0-.88.29-1.59.86-2.13s1.31-.82,2.21-.82,1.63.27,2.19.82.84,1.26.84,2.13-.28,1.54-.84,2.11-1.29.86-2.19.86Z"/>
    <path d="M105.06,700.31v-21.49c-.4.49-.93.97-1.59,1.45s-1.46.89-2.38,1.24-1.98.62-3.17.8v-4.14c1.19-.23,2.27-.59,3.23-1.09s1.82-1.06,2.55-1.69,1.35-1.29,1.83-1.96h4.18v26.89h-4.66Z"/>
    <path d="M127.65,700.68c-1.65,0-3.08-.33-4.27-.97s-2.16-1.58-2.92-2.79-1.32-2.66-1.68-4.35-.54-3.56-.54-5.63.18-3.96.54-5.66.92-3.15,1.68-4.37,1.73-2.15,2.92-2.81,2.61-.98,4.27-.98,3.06.33,4.25.98,2.16,1.59,2.92,2.81,1.32,2.67,1.69,4.36.55,3.57.55,5.65-.18,3.96-.55,5.65-.93,3.14-1.69,4.35-1.73,2.14-2.92,2.79-2.6.97-4.25.97ZM127.65,696.82c.94,0,1.72-.27,2.34-.82s1.09-1.29,1.42-2.21.57-1.99.72-3.17.22-2.42.22-3.7-.07-2.52-.22-3.71-.38-2.25-.72-3.19-.81-1.67-1.42-2.21-1.39-.81-2.34-.81-1.74.27-2.35.81-1.09,1.28-1.44,2.21-.59,2-.73,3.19-.21,2.43-.21,3.71.07,2.52.21,3.7.38,2.24.73,3.17.83,1.67,1.44,2.21,1.39.82,2.35.82Z"/>
    <path d="M144.66,686.24c-.9,0-1.64-.29-2.21-.86s-.86-1.28-.86-2.11c0-.88.29-1.59.86-2.13s1.31-.82,2.21-.82,1.63.27,2.19.82.84,1.26.84,2.13-.28,1.54-.84,2.11-1.29.86-2.19.86ZM144.66,700.56c-.9,0-1.64-.29-2.21-.86s-.86-1.28-.86-2.11c0-.88.29-1.59.86-2.13s1.31-.82,2.21-.82,1.63.27,2.19.82.84,1.26.84,2.13-.28,1.54-.84,2.11-1.29.86-2.19.86Z"/>
    <path d="M161.63,700.68c-1.65,0-3.08-.33-4.27-.97s-2.16-1.58-2.92-2.79-1.32-2.66-1.68-4.35-.54-3.56-.54-5.63.18-3.96.54-5.66.92-3.15,1.68-4.37,1.73-2.15,2.92-2.81,2.61-.98,4.27-.98,3.06.33,4.25.98,2.16,1.59,2.92,2.81,1.32,2.67,1.69,4.36.55,3.57.55,5.65-.18,3.96-.55,5.65-.93,3.14-1.69,4.35-1.73,2.14-2.92,2.79-2.6.97-4.25.97ZM161.63,696.82c.94,0,1.72-.27,2.34-.82s1.09-1.29,1.42-2.21.57-1.99.72-3.17.22-2.42.22-3.7-.07-2.52-.22-3.71-.38-2.25-.72-3.19-.81-1.67-1.42-2.21-1.39-.81-2.34-.81-1.74.27-2.35.81-1.09,1.28-1.44,2.21-.59,2-.73,3.19-.21,2.43-.21,3.71.07,2.52.21,3.7.38,2.24.73,3.17.83,1.67,1.44,2.21,1.39.82,2.35.82Z"/>
    <path d="M183.69,700.68c-1.65,0-3.08-.33-4.27-.97s-2.16-1.58-2.92-2.79-1.32-2.66-1.68-4.35-.54-3.56-.54-5.63.18-3.96.54-5.66.92-3.15,1.68-4.37,1.73-2.15,2.92-2.81,2.61-.98,4.27-.98,3.06.33,4.25.98,2.16,1.59,2.92,2.81,1.32,2.67,1.69,4.36.55,3.57.55,5.65-.18,3.96-.55,5.65-.93,3.14-1.69,4.35-1.73,2.14-2.92,2.79-2.6.97-4.25.97ZM183.69,696.82c.94,0,1.72-.27,2.34-.82s1.09-1.29,1.43-2.21.57-1.99.72-3.17.21-2.42.21-3.7-.07-2.52-.21-3.71-.38-2.25-.72-3.19-.81-1.67-1.43-2.21-1.39-.81-2.34-.81-1.74.27-2.35.81-1.09,1.28-1.44,2.21-.59,2-.73,3.19-.21,2.43-.21,3.71.07,2.52.21,3.7.38,2.24.73,3.17.83,1.67,1.44,2.21,1.39.82,2.35.82Z"/>
    <path d="M211.09,700.66c-1.15,0-2.2-.22-3.17-.65s-1.74-1.08-2.33-1.95-.88-1.95-.88-3.25c0-1.82.56-3.19,1.67-4.12s2.68-1.57,4.7-1.91,4.38-.53,7.08-.57v-1.23c0-1.49-.37-2.52-1.11-3.08s-1.67-.84-2.81-.84c-1.23,0-2.26.3-3.08.9s-1.23,1.57-1.23,2.89h-4.2c0-1.67.36-3,1.08-4.01s1.72-1.73,2.99-2.18,2.76-.68,4.44-.68c1.13,0,2.2.1,3.2.31s1.88.56,2.64,1.08,1.35,1.22,1.78,2.11.65,2.04.65,3.44v13.39h-4.14l-.16-2.81c-.88.98-1.9,1.76-3.07,2.32s-2.52.84-4.05.84ZM212.43,697.5c1.2,0,2.3-.29,3.28-.88s1.79-1.31,2.42-2.15v-3.63c-3.25.01-5.56.31-6.93.9s-2.05,1.54-2.05,2.85c0,.93.29,1.65.87,2.15s1.38.76,2.41.76Z"/>
    <path d="M228.15,700.31v-20h4.27l.1,3.04c.63-.83,1.51-1.6,2.66-2.29s2.56-1.04,4.25-1.04c2.12,0,3.69.64,4.72,1.93s1.54,3.08,1.54,5.39v12.96h-4.45v-12.37c0-.85-.1-1.6-.3-2.25s-.54-1.16-1.03-1.52-1.16-.54-2.02-.54c-1.23,0-2.28.3-3.14.89s-1.58,1.27-2.15,2.02v13.76h-4.45ZM254.29,700.31v-12.37c0-.85-.1-1.6-.3-2.25s-.54-1.16-1.03-1.52-1.16-.54-2.02-.54c-1.23,0-2.28.28-3.14.85s-1.6,1.23-2.21,1.98l-.59-2.95c.82-.89,1.85-1.69,3.09-2.41s2.7-1.08,4.4-1.08c2.11,0,3.67.64,4.7,1.93s1.54,3.08,1.54,5.39v12.96h-4.43Z"/>
    <path d="M261.26,692.44v-4.09h20.7v4.09h-20.7Z"/>
    <path d="M289.84,701.3v-23.03c-.42.53-.99,1.04-1.7,1.55-.71.51-1.56.95-2.55,1.33-.99.38-2.12.67-3.4.86v-4.44c1.27-.25,2.43-.64,3.46-1.16,1.03-.53,1.94-1.13,2.74-1.81.79-.68,1.44-1.38,1.96-2.1h4.48v28.81h-4.99Z"/>
    <path d="M313.47,701.3v-23.03c-.42.53-.99,1.04-1.7,1.55-.71.51-1.56.95-2.55,1.33-.99.38-2.12.67-3.4.86v-4.44c1.27-.25,2.43-.64,3.46-1.16,1.03-.53,1.94-1.13,2.74-1.81.79-.68,1.44-1.38,1.96-2.1h4.48v28.81h-4.99Z"/>
    <path d="M332.27,686.22c-.97,0-1.76-.31-2.37-.92s-.92-1.37-.92-2.26c0-.94.31-1.7.92-2.29s1.41-.88,2.37-.88,1.75.29,2.35.88.9,1.35.9,2.29-.3,1.65-.9,2.26-1.38.92-2.35.92ZM332.27,701.56c-.97,0-1.76-.31-2.37-.92s-.92-1.37-.92-2.26c0-.94.31-1.7.92-2.29s1.41-.88,2.37-.88,1.75.29,2.35.88.9,1.35.9,2.29-.3,1.65-.9,2.26-1.38.92-2.35.92Z"/>
    <path d="M350.6,701.67c-3.21,0-5.73-.77-7.58-2.32-1.85-1.54-2.77-3.83-2.77-6.87h4.64c0,1.61.5,2.89,1.49,3.82s2.4,1.41,4.2,1.41c1.66,0,2.93-.39,3.83-1.18.9-.78,1.35-2.02,1.35-3.7s-.53-2.79-1.58-3.54-2.45-1.12-4.2-1.12h-1.74v-3.87h1.87c1.57,0,2.79-.4,3.68-1.19.89-.79,1.33-1.85,1.33-3.16s-.41-2.23-1.24-2.86c-.83-.63-1.94-.95-3.35-.95-1.55,0-2.76.41-3.62,1.23-.86.82-1.29,1.91-1.29,3.27h-4.61c0-1.85.41-3.4,1.23-4.66s1.94-2.22,3.37-2.87c1.43-.65,3.06-.98,4.89-.98,1.68,0,3.23.27,4.62.81,1.4.54,2.52,1.37,3.37,2.47.85,1.11,1.27,2.5,1.27,4.19s-.46,3.15-1.38,4.21c-.92,1.06-2.15,1.81-3.69,2.25,1.71.32,3.13,1.07,4.25,2.23,1.12,1.16,1.68,2.76,1.68,4.8,0,1.85-.41,3.41-1.24,4.68-.83,1.27-1.99,2.24-3.49,2.89-1.5.65-3.27.98-5.31.98Z"/>
    <path d="M374.08,701.69c-1.77,0-3.3-.35-4.57-1.04-1.27-.7-2.32-1.69-3.13-2.99-.81-1.3-1.41-2.85-1.8-4.66-.39-1.81-.58-3.82-.58-6.03s.19-4.25.58-6.06c.39-1.82.99-3.38,1.8-4.68.81-1.3,1.86-2.31,3.13-3.01s2.8-1.05,4.57-1.05,3.27.35,4.55,1.05,2.32,1.71,3.13,3.01c.81,1.3,1.42,2.86,1.81,4.67.4,1.81.59,3.83.59,6.05s-.2,4.24-.59,6.05c-.4,1.81-1,3.36-1.81,4.66-.81,1.3-1.86,2.29-3.13,2.99-1.27.7-2.79,1.04-4.55,1.04ZM374.08,697.56c1.01,0,1.85-.29,2.5-.88s1.17-1.38,1.53-2.37c.36-1,.62-2.13.77-3.39.15-1.27.23-2.59.23-3.97s-.08-2.7-.23-3.98c-.15-1.27-.41-2.41-.77-3.42-.36-1-.87-1.79-1.53-2.37-.66-.58-1.49-.87-2.5-.87s-1.86.29-2.52.87c-.65.58-1.16,1.37-1.54,2.37-.37,1-.63,2.14-.78,3.42s-.22,2.6-.22,3.98.07,2.7.22,3.97c.15,1.27.41,2.4.78,3.39.37,1,.89,1.79,1.54,2.37.65.59,1.49.88,2.52.88Z"/>
    <path d="M403.44,701.67c-1.23,0-2.36-.23-3.39-.69-1.03-.46-1.86-1.16-2.49-2.09-.63-.93-.94-2.09-.94-3.48,0-1.95.6-3.42,1.79-4.42,1.19-1,2.87-1.68,5.03-2.04,2.16-.37,4.69-.57,7.59-.62v-1.32c0-1.6-.4-2.7-1.19-3.3s-1.79-.9-3.01-.9c-1.32,0-2.42.32-3.3.97s-1.32,1.68-1.32,3.1h-4.5c0-1.79.38-3.22,1.15-4.3.77-1.08,1.84-1.86,3.21-2.34,1.37-.48,2.96-.72,4.76-.72,1.22,0,2.36.11,3.43.33s2.01.6,2.82,1.15c.81.55,1.45,1.3,1.91,2.26.46.96.69,2.19.69,3.68v14.35h-4.44l-.18-3.01c-.94,1.05-2.03,1.88-3.29,2.48-1.25.6-2.7.9-4.34.9ZM404.87,698.29c1.29,0,2.46-.32,3.52-.95s1.92-1.4,2.59-2.31v-3.89c-3.49.01-5.96.34-7.43.97s-2.2,1.65-2.2,3.05c0,1,.31,1.76.93,2.31.62.54,1.48.81,2.58.81Z"/>
    <path d="M421.71,701.3v-21.42h4.57l.11,3.25c.67-.89,1.62-1.71,2.85-2.45,1.22-.74,2.74-1.11,4.56-1.11,2.27,0,3.96.69,5.05,2.07s1.65,3.3,1.65,5.78v13.89h-4.77v-13.25c0-.91-.11-1.71-.32-2.41-.21-.7-.58-1.24-1.1-1.63-.52-.39-1.24-.58-2.16-.58-1.32,0-2.44.32-3.36.96-.92.64-1.69,1.36-2.31,2.17v14.74h-4.77ZM449.73,701.3v-13.25c0-.91-.11-1.71-.32-2.41-.21-.7-.58-1.24-1.1-1.63-.52-.39-1.24-.58-2.17-.58-1.32,0-2.44.3-3.36.91-.92.61-1.71,1.32-2.37,2.12l-.64-3.16c.88-.95,1.98-1.81,3.31-2.58,1.33-.77,2.9-1.15,4.71-1.15,2.26,0,3.93.69,5.03,2.07s1.65,3.3,1.65,5.78v13.89h-4.75Z"/>
    <path d="M480.79,700.68c-2.83,0-5.24-.59-7.22-1.77s-3.49-2.83-4.53-4.95-1.56-4.59-1.56-7.42.52-5.31,1.56-7.43,2.55-3.78,4.53-4.97,4.39-1.78,7.22-1.78c2.01,0,3.89.35,5.64,1.05s3.19,1.75,4.31,3.15,1.76,3.16,1.91,5.26h-4.8c-.15-1.26-.56-2.29-1.23-3.11s-1.51-1.42-2.52-1.83-2.11-.6-3.3-.6c-2.01,0-3.64.47-4.88,1.4s-2.15,2.18-2.71,3.73-.84,3.26-.84,5.14.28,3.56.84,5.12,1.46,2.79,2.71,3.72,2.87,1.39,4.88,1.39,3.72-.52,4.97-1.57,1.96-2.57,2.14-4.56h4.82c-.19,2.2-.81,4.05-1.85,5.55s-2.42,2.62-4.14,3.37-3.71,1.13-5.95,1.13Z"/>
    <path d="M497.8,700.31v-27.6h18.05v3.94h-13.33v7.61h12.18v3.81h-12.18v8.31h13.33v3.94h-18.05Z"/>
    <path d="M525.56,700.31v-23.65h-7.61v-3.96h19.91v3.96h-7.57v23.65h-4.74Z"/>
  </g>
  <rect class="cls-2" x="41.13" y="617.87" width="40.49" height="34.31" rx="3.22" ry="3.22"/>
  <rect class="cls-8" x="41.37" y="618.46" width="40.49" height="7.3"/>
  <rect class="cls-8" x="47.84" y="611.55" width="5.51" height="11.04" rx="2.76" ry="2.76" transform="translate(101.18 1234.13) rotate(-180)"/>
  <rect class="cls-4" x="47.76" y="611.55" width="5.51" height="11.04" rx="2.76" ry="2.76" transform="translate(101.02 1234.13) rotate(-180)"/>
  <rect class="cls-8" x="69.2" y="611.55" width="5.51" height="11.04" rx="2.76" ry="2.76" transform="translate(143.92 1234.13) rotate(-180)"/>
  <rect class="cls-4" x="69.12" y="611.55" width="5.51" height="11.04" rx="2.76" ry="2.76" transform="translate(143.76 1234.13) rotate(-180)"/>
  <rect class="cls-8" x="62.11" y="629.83" width="5.57" height="4.94" rx=".26" ry=".26"/>
  <rect class="cls-8" x="70.04" y="629.83" width="5.57" height="4.94" rx=".26" ry=".26"/>
  <rect class="cls-8" x="62.11" y="636.74" width="5.57" height="4.94" rx=".26" ry=".26"/>
  <rect class="cls-8" x="70.04" y="636.74" width="5.57" height="4.94" rx=".26" ry=".26"/>
  <rect class="cls-8" x="62.11" y="643.66" width="5.57" height="4.94" rx=".26" ry=".26"/>
  <rect class="cls-8" x="70.04" y="643.66" width="5.57" height="4.94" rx=".26" ry=".26"/>
  <rect class="cls-8" x="46.31" y="636.74" width="5.57" height="4.94" rx=".26" ry=".26"/>
  <rect class="cls-8" x="54.24" y="636.74" width="5.57" height="4.94" rx=".26" ry=".26"/>
  <rect class="cls-8" x="46.31" y="643.66" width="5.57" height="4.94" rx=".26" ry=".26"/>
  <rect class="cls-8" x="54.24" y="643.66" width="5.57" height="4.94" rx=".26" ry=".26"/>
</svg>