<?xml version="1.0" encoding="UTF-8"?>
<svg id="a" data-name="Layer 1" xmlns="http://www.w3.org/2000/svg" width="764" height="400" xmlns:xlink="http://www.w3.org/1999/xlink" viewBox="0 0 764 400">
  <defs>
    <linearGradient id="b" x1="0" y1="397.63" x2="764" y2="397.63" gradientUnits="userSpaceOnUse">
      <stop offset="0" stop-color="#0f6bff"/>
      <stop offset="1" stop-color="#000025"/>
    </linearGradient>
    <radialGradient id="d" cx="64.46" cy="-3458.84" fx="64.46" fy="-3458.84" r="5.47" gradientTransform="translate(0 -3124.09) scale(1 -1)" gradientUnits="userSpaceOnUse">
      <stop offset="0" stop-color="#289152"/>
      <stop offset=".23" stop-color="#248b4e"/>
      <stop offset=".52" stop-color="#1a7c43"/>
      <stop offset=".84" stop-color="#0a6331"/>
      <stop offset="1" stop-color="#005426"/>
    </radialGradient>
    <radialGradient id="e" cx="141.29" fx="141.29" r="5.47" xlink:href="#d"/>
    <linearGradient id="g" x1="161.21" y1="-3443.6" x2="44.68" y2="-3443.6" gradientTransform="translate(0 -3124.08) scale(1 -1)" gradientUnits="userSpaceOnUse">
      <stop offset="0" stop-color="#6584d6"/>
      <stop offset=".24" stop-color="#5373be"/>
      <stop offset=".66" stop-color="#395a99"/>
      <stop offset=".88" stop-color="#2f518b"/>
    </linearGradient>
    <linearGradient id="h" x1="96.78" y1="-3445.43" x2="149.42" y2="-3445.43" gradientTransform="translate(0 -3124.09) scale(1 -1)" gradientUnits="userSpaceOnUse">
      <stop offset="0" stop-color="#289152"/>
      <stop offset=".25" stop-color="#268d50"/>
      <stop offset=".46" stop-color="#21834a"/>
      <stop offset=".66" stop-color="#187240"/>
      <stop offset=".84" stop-color="#0d5933"/>
      <stop offset="1" stop-color="#003f24"/>
    </linearGradient>
    <linearGradient id="i" x1="66.83" y1="-3473.1" x2="140.19" y2="-3473.1" gradientTransform="translate(0 -3124.09) scale(1 -1)" gradientUnits="userSpaceOnUse">
      <stop offset="0" stop-color="#003f24"/>
      <stop offset=".02" stop-color="#024427"/>
      <stop offset=".16" stop-color="#126539"/>
      <stop offset=".29" stop-color="#1e7d47"/>
      <stop offset=".41" stop-color="#258c4f"/>
      <stop offset=".52" stop-color="#289152"/>
      <stop offset=".62" stop-color="#258c4f"/>
      <stop offset=".73" stop-color="#1f7f48"/>
      <stop offset=".85" stop-color="#146a3c"/>
      <stop offset=".96" stop-color="#064c2c"/>
      <stop offset="1" stop-color="#014226"/>
    </linearGradient>
    <linearGradient id="j" x1="82.68" y1="-3445.1" x2="60.85" y2="-3445.48" xlink:href="#h"/>
    <linearGradient id="k" x1="161.22" y1="-3443.6" x2="44.69" y2="-3443.6" gradientTransform="translate(0 -3124.09) scale(1 -1)" xlink:href="#g"/>
    <linearGradient id="l" x1="39.22" y1="-3482.89" x2="133.82" y2="-3383.26" gradientTransform="translate(0 -3124.09) scale(1 -1)" gradientUnits="userSpaceOnUse">
      <stop offset="0" stop-color="#009f76"/>
      <stop offset="1" stop-color="#006476"/>
    </linearGradient>
    <linearGradient id="m" x1="-11521.64" y1="2826.1" x2="-11443.75" y2="2826.1" gradientTransform="translate(-11360.48 -2472.72) rotate(-180) scale(1 -1)" xlink:href="#g"/>
    <linearGradient id="n" x1="-11521.64" y1="2808.72" x2="-11443.75" y2="2808.72" gradientTransform="translate(-11360.48 -2472.72) rotate(-180) scale(1 -1)" xlink:href="#g"/>
    <linearGradient id="o" x1="122.54" y1="-3420.93" x2="44.62" y2="-3420.93" gradientTransform="translate(0 -3124.09) scale(1 -1)" xlink:href="#g"/>
    <linearGradient id="p" x1="44.59" y1="-3390.35" x2="153.56" y2="-3390.35" gradientTransform="translate(0 -3124.09) scale(1 -1)" gradientUnits="userSpaceOnUse">
      <stop offset="0" stop-color="#289152"/>
      <stop offset=".11" stop-color="#268d50"/>
      <stop offset=".19" stop-color="#21834a"/>
      <stop offset=".27" stop-color="#187240"/>
      <stop offset=".35" stop-color="#0d5933"/>
      <stop offset=".42" stop-color="#003f24"/>
      <stop offset=".45" stop-color="#074e2c"/>
      <stop offset=".5" stop-color="#116438"/>
      <stop offset=".56" stop-color="#197641"/>
      <stop offset=".63" stop-color="#1e8248"/>
      <stop offset=".74" stop-color="#22894b"/>
      <stop offset="1" stop-color="#238b4d"/>
    </linearGradient>
    <linearGradient id="q" x1="122.54" y1="-3386.44" x2="44.62" y2="-3386.44" gradientTransform="translate(0 -3124.09) scale(1 -1)" xlink:href="#g"/>
    <linearGradient id="r" x1="83.27" y1="-3403.52" x2="120.07" y2="-3403.52" xlink:href="#l"/>
    <linearGradient id="s" x1="122.54" y1="-3399.61" x2="44.62" y2="-3399.61" gradientTransform="translate(0 -3124.09) scale(1 -1)" xlink:href="#g"/>
    <linearGradient id="t" x1="177.98" y1="-3465.36" x2="108.45" y2="-3423.4" xlink:href="#l"/>
    <linearGradient id="u" x1="44.68" y1="-3430.85" x2="100.88" y2="-3430.85" gradientTransform="translate(0 -3124.09) scale(1 -1)" gradientUnits="userSpaceOnUse">
      <stop offset="0" stop-color="#009f76"/>
      <stop offset=".24" stop-color="#009976"/>
      <stop offset=".55" stop-color="#008876"/>
      <stop offset=".89" stop-color="#006d76"/>
      <stop offset="1" stop-color="#006476"/>
    </linearGradient>
    <linearGradient id="v" x1="167.13" y1="-3433.15" x2="693.49" y2="-3433.15" gradientTransform="translate(0 -3124.09) scale(1 -1)" gradientUnits="userSpaceOnUse">
      <stop offset="0" stop-color="#289152"/>
      <stop offset=".26" stop-color="#197240"/>
      <stop offset=".55" stop-color="#0b5631"/>
      <stop offset=".81" stop-color="#024527"/>
      <stop offset="1" stop-color="#003f24"/>
    </linearGradient>
  </defs>
  <polyline points="0 0 764 0 764 400 0 400" fill="#fff"/>
  <path d="M61.1,22.05c-2.86,0-5.42,1.3-7.14,3.31-.16-.2-.34-.38-.51-.56-.54-.54-1.14-1.01-1.77-1.39-1.48-.9-3.18-1.34-4.86-1.37h0c-2.39,0-4.81.92-6.62,2.75-1.84,1.84-2.75,4.23-2.75,6.62,0,1.68.45,3.38,1.34,4.86.38.63.85,1.23,1.39,1.77.54.54,1.14,1.01,1.77,1.39,3.6,2.19,8.39,1.72,11.5-1.39.18-.18.36-.38.51-.56,1.72,2.01,4.27,3.31,7.14,3.31,5.17,0,9.38-4.21,9.38-9.38s-4.21-9.38-9.38-9.38h0ZM41.9,31.43c0-1.25.47-2.51,1.43-3.47.96-.96,2.22-1.43,3.47-1.43h0c.51,0,1.03.09,1.52.25l-3.87,3.87-2.31,2.31c-.16-.49-.25-1.01-.25-1.52ZM50.29,34.9c-1.34,1.34-3.29,1.75-4.99,1.21l2.39-2.39,3.78-3.78.45-.45c-.13.63-.2,1.3-.2,1.97,0,1.25-.47,2.51-1.43,3.47v-.02ZM61.1,36.35c-2.71,0-4.92-2.19-4.92-4.92s2.19-4.92,4.92-4.92,4.92,2.19,4.92,4.92-2.19,4.92-4.92,4.92Z" fill="#333"/>
  <polygon points="30.13 29.84 20.91 15.54 15.54 15.54 15.54 40.65 20.91 40.65 20.91 24.94 30.96 40.65 35.52 40.65 35.52 15.54 30.13 15.54 30.13 29.84" fill="#333"/>
  <polygon points="88.19 29.84 78.96 15.54 73.59 15.54 73.59 40.65 78.96 40.65 78.96 24.94 89.01 40.65 93.56 40.65 93.56 15.54 88.19 15.54 88.19 29.84" fill="#0f6bff"/>
  <path d="M109.52,23.48c-1.34-.83-2.89-1.23-4.61-1.23s-3.42.4-4.83,1.21c-1.41.81-2.51,1.92-3.29,3.33-.78,1.41-1.19,3-1.19,4.72s.4,3.31,1.21,4.72c.81,1.41,1.92,2.53,3.38,3.33s3.13,1.21,5.06,1.21,3.2-.31,4.5-.96c1.3-.63,2.37-1.54,3.2-2.75l-3.8-2.26c-.4.51-.94.94-1.63,1.23-.69.31-1.41.47-2.13.47-1.21,0-2.17-.27-2.93-.78-.76-.54-1.34-1.34-1.79-2.42h13.07c.09-.54.13-1.14.13-1.79,0-1.72-.38-3.29-1.12-4.7-.76-1.41-1.81-2.53-3.16-3.36l-.07.02ZM100.52,29.41c.04-.78.49-1.43,1.34-1.99s1.86-.83,3-.83,2.04.25,2.8.74,1.23,1.19,1.39,2.08h-8.55.02Z" fill="#0f6bff"/>
  <path d="M131.56,23.46c-1.34-.81-2.95-1.21-4.83-1.21s-1.92.16-2.84.49c-.92.31-1.77.78-2.57,1.39v-1.39h-5.13v25.11h5.13v-8.5c.78.6,1.66,1.05,2.57,1.39.94.31,1.88.49,2.84.49,1.86,0,3.47-.4,4.83-1.23,1.34-.83,2.39-1.95,3.11-3.38.72-1.43,1.07-3.07,1.07-4.88s-.36-3.45-1.07-4.86c-.72-1.43-1.75-2.55-3.11-3.36v-.07ZM129.32,34.96c-.85.83-1.95,1.23-3.29,1.23s-2.48-.4-3.38-1.23-1.34-1.9-1.34-3.25.45-2.44,1.37-3.29c.92-.85,2.04-1.3,3.38-1.3s2.44.43,3.29,1.25c.85.83,1.28,1.95,1.28,3.29s-.43,2.46-1.28,3.29h-.02Z" fill="#0f6bff"/>
  <path d="M150.27,23.01c-1.07-.45-2.1-.67-3.13-.67-1.52,0-2.95.56-4.27,1.66v-8.46h-5.13v25.11h5.13v-10.97c.13-.98.49-1.7,1.03-2.17.56-.47,1.19-.69,1.95-.69s1.66.25,2.31.76c.65.51.96,1.34.96,2.48v10.59h5.13v-10.72c-.02-1.9-.43-3.42-1.21-4.57-.78-1.12-1.7-1.9-2.75-2.35Z" fill="#0f6bff"/>
  <path d="M170.15,23.48c-1.41-.83-2.95-1.25-4.61-1.25s-3.25.43-4.66,1.25c-1.41.83-2.55,1.95-3.38,3.38-.83,1.41-1.25,2.98-1.25,4.66s.43,3.2,1.25,4.63c.83,1.43,1.95,2.55,3.38,3.38,1.41.83,2.98,1.25,4.66,1.25s3.2-.43,4.61-1.25c1.41-.83,2.53-1.97,3.38-3.38.83-1.43,1.25-2.98,1.25-4.63s-.43-3.25-1.25-4.66c-.83-1.41-1.95-2.53-3.38-3.38ZM168.51,34.52c-.85.83-1.86,1.25-3.02,1.25s-2.17-.43-3-1.25c-.83-.83-1.25-1.84-1.25-3s.43-2.17,1.25-3.02c.83-.85,1.84-1.25,3-1.25s2.17.43,3.02,1.25c.85.85,1.25,1.86,1.25,3.02s-.43,2.17-1.25,3Z" fill="#0f6bff"/>
  <path d="M191.34,31.81c-.69-.78-1.5-1.34-2.39-1.68-.92-.34-2.06-.65-3.45-.94-1.07-.2-1.86-.43-2.35-.6-.49-.2-.74-.49-.74-.9s.2-.81.6-1.07.94-.4,1.61-.4,1.39.13,1.88.43c.47.29.85.72,1.14,1.3l4.07-1.99c-.69-1.19-1.68-2.1-2.91-2.73s-2.64-.94-4.19-.94-2.53.22-3.63.67c-1.12.45-1.99,1.1-2.64,1.95-.65.85-.98,1.86-.98,3s.34,2.15.98,2.86c.65.72,1.43,1.23,2.35,1.59.92.34,2.06.67,3.4.96,1.19.27,2.06.51,2.62.74s.83.58.83,1.05-.29.96-.9,1.25c-.6.29-1.3.45-2.08.45-1.95,0-3.2-.74-3.76-2.24l-4.12,2.1c.67,1.37,1.68,2.37,3.02,3.07,1.34.69,2.95,1.03,4.86,1.03s2.66-.22,3.87-.65c1.19-.43,2.15-1.07,2.89-1.92.72-.85,1.1-1.88,1.1-3.07s-.34-2.46-1.03-3.25l-.07-.07Z" fill="#0f6bff"/>
  <rect y="395.27" width="764" height="4.73" fill="url(#b)"/>
  <g>
    <path d="M44.4,101.2v-23h4.7l10.58,15.5v-15.5h4.53v23h-4.72l-10.6-15.6v15.6h-4.49Z"/>
    <path d="M77.04,101.51c-1.86,0-3.42-.34-4.68-1.03-1.27-.69-2.22-1.68-2.87-2.98-.65-1.3-.97-2.86-.97-4.68s.32-3.29.95-4.56c.63-1.28,1.56-2.26,2.79-2.95,1.22-.69,2.73-1.03,4.52-1.03,2.48,0,4.45.73,5.89,2.18,1.44,1.45,2.16,3.52,2.16,6.21,0,.14,0,.32-.02.56-.01.23-.03.41-.05.54h-11.71c.02.79.17,1.52.44,2.21.27.68.69,1.23,1.27,1.65.58.42,1.34.62,2.29.62s1.77-.21,2.36-.64c.59-.43.89-1.06.91-1.91h4.46c-.06,1.3-.41,2.38-1.07,3.25-.66.87-1.55,1.51-2.68,1.94-1.13.43-2.46.64-3.97.64ZM73.09,90.88h7.23c-.03-1.16-.38-2.03-1.03-2.61-.66-.57-1.5-.86-2.52-.86s-1.91.3-2.57.89c-.67.59-1.03,1.45-1.1,2.58Z"/>
    <path d="M91.6,101.2l-5.25-16.68h4.6l3.21,11.78,3.21-11.78h4.75l3.28,11.76,3.16-11.76h4.29l-5.25,16.68h-4.63l-3.37-12-3.4,12h-4.62Z"/>
    <path d="M122.79,101.2v-23h9.02c1.51,0,2.9.27,4.14.8,1.25.54,2.24,1.35,2.98,2.44.74,1.09,1.11,2.49,1.11,4.19s-.37,3.06-1.11,4.15c-.74,1.09-1.73,1.91-2.98,2.44-1.25.53-2.63.79-4.14.79h-4.22v8.19h-4.8ZM127.59,89.15h3.78c1.12,0,2.02-.3,2.71-.89s1.03-1.47,1.03-2.63-.35-2.1-1.06-2.68c-.71-.58-1.6-.87-2.68-.87h-3.78v7.08Z"/>
    <path d="M143.31,101.2v-16.68h4.34l.09,2.89c.43-1,1.08-1.77,1.95-2.31.87-.54,1.91-.8,3.14-.8h.34v3.81h-.43c-.67,0-1.32.06-1.93.18-.62.12-1.17.32-1.68.62-.5.29-.93.69-1.3,1.21v11.09h-4.53Z"/>
    <path d="M163.41,101.47c-1.69,0-3.17-.34-4.44-1.01s-2.25-1.65-2.95-2.92c-.7-1.28-1.04-2.82-1.04-4.63s.35-3.42,1.04-4.71c.69-1.29,1.68-2.28,2.95-2.96s2.75-1.02,4.44-1.02,3.2.34,4.47,1.02c1.27.68,2.26,1.66,2.96,2.96.71,1.29,1.06,2.86,1.06,4.71s-.35,3.36-1.06,4.63c-.71,1.28-1.7,2.25-2.96,2.92-1.27.67-2.76,1.01-4.47,1.01ZM163.41,98.02c.99,0,1.77-.23,2.33-.69.56-.46.96-1.08,1.2-1.85s.35-1.63.35-2.56-.12-1.83-.35-2.62-.63-1.41-1.2-1.88c-.56-.47-1.34-.7-2.33-.7s-1.73.23-2.28.7c-.55.47-.94,1.09-1.17,1.88-.23.79-.34,1.66-.34,2.62s.11,1.79.34,2.56c.23.77.62,1.39,1.17,1.85.55.46,1.31.69,2.28.69Z"/>
    <path d="M172.73,107.32v-3.57h.97c.74,0,1.29-.18,1.66-.53.36-.35.55-.92.55-1.69v-17h4.53v16.65c0,1.98-.5,3.5-1.49,4.56-.99,1.06-2.54,1.59-4.65,1.59h-1.57ZM178.18,82.33c-.83,0-1.47-.21-1.91-.63s-.66-.95-.66-1.57.22-1.18.66-1.59,1.07-.62,1.91-.62,1.47.21,1.91.62c.44.41.66.94.66,1.59s-.22,1.15-.66,1.57c-.44.42-1.07.63-1.91.63Z"/>
    <path d="M192.96,101.51c-1.86,0-3.42-.34-4.68-1.03-1.27-.69-2.22-1.68-2.87-2.98-.65-1.3-.97-2.86-.97-4.68s.32-3.29.95-4.56c.63-1.28,1.56-2.26,2.79-2.95,1.22-.69,2.73-1.03,4.52-1.03,2.48,0,4.45.73,5.89,2.18,1.44,1.45,2.16,3.52,2.16,6.21,0,.14,0,.32-.02.56-.01.23-.03.41-.05.54h-11.71c.02.79.17,1.52.44,2.21.27.68.69,1.23,1.27,1.65.58.42,1.34.62,2.29.62s1.77-.21,2.36-.64c.59-.43.89-1.06.91-1.91h4.46c-.06,1.3-.41,2.38-1.07,3.25-.66.87-1.55,1.51-2.68,1.94-1.13.43-2.46.64-3.97.64ZM189.01,90.88h7.23c-.03-1.16-.38-2.03-1.03-2.61-.66-.57-1.5-.86-2.52-.86s-1.91.3-2.57.89c-.67.59-1.03,1.45-1.1,2.58Z"/>
    <path d="M212.24,101.44c-1.55,0-2.96-.3-4.22-.89-1.27-.59-2.27-1.51-3.01-2.77-.74-1.25-1.11-2.87-1.11-4.85s.35-3.61,1.06-4.89c.71-1.28,1.69-2.22,2.95-2.85,1.26-.62,2.7-.93,4.33-.93,1.41,0,2.69.23,3.83.7,1.14.47,2.04,1.17,2.72,2.09.67.93,1.01,2.1,1.03,3.51h-4.39c-.02-.85-.31-1.54-.85-2.04s-1.32-.76-2.31-.76c-1.31,0-2.26.45-2.85,1.35-.59.9-.88,2.17-.88,3.81,0,1.06.13,1.96.38,2.71.26.75.66,1.32,1.21,1.71.55.39,1.26.59,2.13.59,1.01,0,1.81-.28,2.4-.83s.89-1.34.91-2.35h4.39c-.03,1.45-.38,2.67-1.05,3.66-.67.99-1.58,1.74-2.73,2.26-1.15.51-2.47.77-3.95.77Z"/>
    <path d="M231.09,101.2c-1.69,0-2.99-.2-3.92-.61s-1.58-1.03-1.94-1.88c-.37-.85-.55-1.96-.55-3.32v-7.38h-2.77v-3.49h2.77v-3.93h4.53v3.93h3.64v3.49h-3.64v7.11c0,.88.12,1.53.37,1.95.24.42.8.63,1.67.63h1.61v3.5h-1.76Z"/>
    <path d="M241.14,101.2l8.27-23h5.04l8.29,23h-5.01l-1.64-5.06h-8.31l-1.69,5.06h-4.96ZM248.93,92.16h5.98l-2.99-9.21-2.99,9.21Z"/>
    <path d="M265.51,101.2v-16.68h4.36l.08,2.5c.56-.72,1.29-1.35,2.2-1.91.91-.55,2.1-.83,3.55-.83,1.7,0,3.01.52,3.95,1.55.93,1.03,1.4,2.54,1.4,4.52v10.85h-4.49v-10.27c0-.6-.09-1.13-.26-1.59-.17-.46-.44-.81-.81-1.06-.37-.25-.86-.38-1.46-.38-.9,0-1.67.21-2.32.63s-1.21.93-1.68,1.54v11.12h-4.53Z"/>
    <path d="M285.78,101.2v-16.68h4.36l.08,2.5c.56-.72,1.29-1.35,2.2-1.91.91-.55,2.1-.83,3.55-.83,1.7,0,3.01.52,3.95,1.55.93,1.03,1.4,2.54,1.4,4.52v10.85h-4.49v-10.27c0-.6-.09-1.13-.26-1.59-.17-.46-.44-.81-.81-1.06-.37-.25-.86-.38-1.46-.38-.9,0-1.67.21-2.32.63s-1.21.93-1.68,1.54v11.12h-4.53Z"/>
    <path d="M313.61,101.47c-1.69,0-3.17-.34-4.44-1.01s-2.25-1.65-2.95-2.92c-.7-1.28-1.04-2.82-1.04-4.63s.35-3.42,1.04-4.71c.69-1.29,1.68-2.28,2.95-2.96s2.75-1.02,4.44-1.02,3.2.34,4.47,1.02c1.27.68,2.26,1.66,2.96,2.96.71,1.29,1.06,2.86,1.06,4.71s-.35,3.36-1.06,4.63c-.71,1.28-1.7,2.25-2.96,2.92-1.27.67-2.76,1.01-4.47,1.01ZM313.61,98.02c.99,0,1.77-.23,2.33-.69.56-.46.96-1.08,1.2-1.85s.35-1.63.35-2.56-.12-1.83-.35-2.62-.63-1.41-1.2-1.88c-.56-.47-1.34-.7-2.33-.7s-1.73.23-2.28.7c-.55.47-.94,1.09-1.17,1.88-.23.79-.34,1.66-.34,2.62s.11,1.79.34,2.56c.23.77.62,1.39,1.17,1.85.55.46,1.31.69,2.28.69Z"/>
    <path d="M330.96,101.42c-1.69,0-2.99-.52-3.91-1.56-.92-1.04-1.38-2.53-1.38-4.45v-10.89h4.53v10.34c0,.57.08,1.07.25,1.51.17.44.44.78.82,1.02.38.24.89.36,1.51.36.91,0,1.69-.2,2.33-.61s1.21-.9,1.68-1.48v-11.14h4.53v16.68h-4.38l-.07-2.51c-.56.71-1.32,1.34-2.29,1.9-.97.56-2.18.84-3.62.84Z"/>
    <path d="M346.17,101.2v-16.68h4.36l.08,2.5c.56-.72,1.29-1.35,2.2-1.91.91-.55,2.1-.83,3.55-.83,1.7,0,3.01.52,3.95,1.55.93,1.03,1.4,2.54,1.4,4.52v10.85h-4.49v-10.27c0-.6-.09-1.13-.26-1.59-.17-.46-.44-.81-.81-1.06-.37-.25-.86-.38-1.46-.38-.9,0-1.67.21-2.32.63s-1.21.93-1.68,1.54v11.12h-4.53Z"/>
    <path d="M373.92,101.44c-1.55,0-2.96-.3-4.22-.89-1.27-.59-2.27-1.51-3.01-2.77-.74-1.25-1.11-2.87-1.11-4.85s.35-3.61,1.06-4.89c.71-1.28,1.69-2.22,2.95-2.85,1.26-.62,2.7-.93,4.33-.93,1.41,0,2.69.23,3.83.7,1.14.47,2.04,1.17,2.72,2.09.67.93,1.01,2.1,1.03,3.51h-4.39c-.02-.85-.31-1.54-.85-2.04s-1.32-.76-2.31-.76c-1.31,0-2.26.45-2.85,1.35-.59.9-.88,2.17-.88,3.81,0,1.06.13,1.96.38,2.71.26.75.66,1.32,1.21,1.71.55.39,1.26.59,2.13.59,1.01,0,1.81-.28,2.4-.83s.89-1.34.91-2.35h4.39c-.03,1.45-.38,2.67-1.05,3.66-.67.99-1.58,1.74-2.73,2.26-1.15.51-2.47.77-3.95.77Z"/>
    <path d="M393.32,101.51c-1.86,0-3.42-.34-4.68-1.03-1.27-.69-2.22-1.68-2.87-2.98-.65-1.3-.97-2.86-.97-4.68s.32-3.29.95-4.56c.63-1.28,1.56-2.26,2.79-2.95,1.22-.69,2.73-1.03,4.52-1.03,2.48,0,4.45.73,5.89,2.18,1.44,1.45,2.16,3.52,2.16,6.21,0,.14,0,.32-.02.56-.01.23-.03.41-.05.54h-11.71c.02.79.17,1.52.44,2.21.27.68.69,1.23,1.27,1.65.58.42,1.34.62,2.29.62s1.77-.21,2.36-.64c.59-.43.89-1.06.91-1.91h4.46c-.06,1.3-.41,2.38-1.07,3.25-.66.87-1.55,1.51-2.68,1.94-1.13.43-2.46.64-3.97.64ZM389.37,90.88h7.23c-.03-1.16-.38-2.03-1.03-2.61-.66-.57-1.5-.86-2.52-.86s-1.91.3-2.57.89c-.67.59-1.03,1.45-1.1,2.58Z"/>
    <path d="M405.11,101.2v-16.68h4.36l.08,2.5c.55-.72,1.3-1.35,2.26-1.91.96-.55,2.15-.83,3.56-.83,1.68,0,2.96.53,3.85,1.58.89,1.05,1.34,2.55,1.34,4.49v10.85h-4.53v-10.27c0-.6-.08-1.13-.25-1.59-.17-.46-.43-.81-.8-1.06-.37-.25-.85-.38-1.44-.38-.88,0-1.63.21-2.26.63-.63.42-1.18.93-1.66,1.54v11.12h-4.53ZM427.01,101.2v-10.27c0-.6-.08-1.13-.25-1.59-.17-.46-.43-.81-.8-1.06-.37-.25-.85-.38-1.44-.38-.88,0-1.63.19-2.26.58-.63.39-1.2.87-1.7,1.45l-.55-2.8c.72-.76,1.6-1.43,2.64-2,1.04-.57,2.27-.85,3.68-.85,1.66,0,2.95.53,3.85,1.58.91,1.05,1.36,2.55,1.36,4.49v10.85h-4.53Z"/>
    <path d="M443.91,101.51c-1.86,0-3.42-.34-4.68-1.03-1.27-.69-2.22-1.68-2.87-2.98-.65-1.3-.97-2.86-.97-4.68s.32-3.29.95-4.56c.63-1.28,1.56-2.26,2.79-2.95,1.22-.69,2.73-1.03,4.52-1.03,2.48,0,4.45.73,5.89,2.18,1.44,1.45,2.16,3.52,2.16,6.21,0,.14,0,.32-.02.56-.01.23-.03.41-.05.54h-11.71c.02.79.17,1.52.44,2.21.27.68.69,1.23,1.27,1.65.58.42,1.34.62,2.29.62s1.77-.21,2.36-.64c.59-.43.89-1.06.91-1.91h4.46c-.06,1.3-.41,2.38-1.07,3.25-.66.87-1.55,1.51-2.68,1.94-1.13.43-2.46.64-3.97.64ZM439.96,90.88h7.23c-.03-1.16-.38-2.03-1.03-2.61-.66-.57-1.5-.86-2.52-.86s-1.91.3-2.57.89c-.67.59-1.03,1.45-1.1,2.58Z"/>
    <path d="M455.7,101.2v-16.68h4.36l.08,2.5c.56-.72,1.29-1.35,2.2-1.91.91-.55,2.1-.83,3.55-.83,1.7,0,3.01.52,3.95,1.55.93,1.03,1.4,2.54,1.4,4.52v10.85h-4.49v-10.27c0-.6-.09-1.13-.26-1.59-.17-.46-.44-.81-.81-1.06-.37-.25-.86-.38-1.46-.38-.9,0-1.67.21-2.32.63s-1.21.93-1.68,1.54v11.12h-4.53Z"/>
    <path d="M483.09,101.2c-1.69,0-2.99-.2-3.92-.61s-1.58-1.03-1.94-1.88c-.37-.85-.55-1.96-.55-3.32v-7.38h-2.77v-3.49h2.77v-3.93h4.53v3.93h3.64v3.49h-3.64v7.11c0,.88.12,1.53.37,1.95.24.42.8.63,1.67.63h1.61v3.5h-1.76Z"/>
  </g>
  <g>
    <path d="M48.51,145.89l-4.81-16.43h2.31l3.71,13.71,3.92-13.71h2.45l3.93,13.71,3.73-13.71h2.2l-4.8,16.43h-2.29l-4.04-13.89-3.98,13.89h-2.33Z"/>
    <path d="M72.26,146.11c-1.29,0-2.35-.27-3.18-.81-.83-.54-1.44-1.28-1.84-2.21-.4-.93-.6-1.98-.6-3.14s.19-2.28.58-3.2c.39-.92.98-1.65,1.77-2.17.79-.52,1.8-.78,3.02-.78,1.62,0,2.89.49,3.81,1.46s1.38,2.38,1.38,4.21c0,.12,0,.27-.01.43,0,.17-.02.29-.04.36h-8.47c0,.77.13,1.48.37,2.13.24.65.62,1.17,1.14,1.56.52.39,1.21.59,2.06.59.91,0,1.62-.21,2.14-.64.51-.43.78-1.04.81-1.85h2.01c-.02.84-.24,1.56-.65,2.17-.41.61-.98,1.07-1.71,1.4-.73.33-1.6.49-2.6.49ZM68.7,138.78h6.49c-.02-1.11-.31-1.95-.87-2.54-.55-.59-1.32-.88-2.31-.88s-1.77.29-2.34.87-.89,1.43-.98,2.54Z"/>
    <path d="M80.28,135.48l-.48-1.06c.52-.26.95-.58,1.28-.95.33-.37.53-.83.59-1.37l.15.11c-.46,0-.83-.14-1.13-.42-.3-.28-.45-.63-.45-1.06,0-.45.15-.81.45-1.09.3-.28.67-.42,1.13-.42s.83.16,1.12.48c.29.32.43.81.43,1.46,0,.72-.14,1.37-.41,1.94s-.64,1.05-1.1,1.45c-.46.4-.99.71-1.57.93Z"/>
    <path d="M86.21,145.89v-11.89h1.92l.07,2.03c.33-.62.8-1.14,1.39-1.55s1.37-.62,2.32-.62h.24v1.87h-.28c-.59,0-1.11.08-1.56.23-.45.15-.84.37-1.17.64-.33.27-.63.59-.89.95v8.35h-2.04Z"/>
    <path d="M99.18,146.11c-1.29,0-2.35-.27-3.18-.81-.83-.54-1.44-1.28-1.84-2.21-.4-.93-.6-1.98-.6-3.14s.19-2.28.58-3.2c.39-.92.98-1.65,1.77-2.17.79-.52,1.8-.78,3.02-.78,1.62,0,2.89.49,3.81,1.46s1.38,2.38,1.38,4.21c0,.12,0,.27-.01.43,0,.17-.02.29-.04.36h-8.47c0,.77.13,1.48.37,2.13.24.65.62,1.17,1.14,1.56.52.39,1.21.59,2.06.59.91,0,1.62-.21,2.14-.64.51-.43.78-1.04.81-1.85h2.01c-.02.84-.24,1.56-.65,2.17-.41.61-.98,1.07-1.71,1.4-.73.33-1.6.49-2.6.49ZM95.62,138.78h6.49c-.02-1.11-.31-1.95-.87-2.54-.55-.59-1.32-.88-2.31-.88s-1.77.29-2.34.87-.89,1.43-.98,2.54Z"/>
    <path d="M117.43,146.11c-1.29,0-2.35-.27-3.18-.81-.83-.54-1.44-1.28-1.84-2.21-.4-.93-.6-1.98-.6-3.14s.19-2.28.58-3.2c.39-.92.98-1.65,1.77-2.17.79-.52,1.8-.78,3.02-.78,1.62,0,2.89.49,3.81,1.46s1.38,2.38,1.38,4.21c0,.12,0,.27-.01.43,0,.17-.02.29-.04.36h-8.47c0,.77.13,1.48.37,2.13.24.65.62,1.17,1.14,1.56.52.39,1.21.59,2.06.59.91,0,1.62-.21,2.14-.64.51-.43.78-1.04.81-1.85h2.01c-.02.84-.24,1.56-.65,2.17-.41.61-.98,1.07-1.71,1.4-.73.33-1.6.49-2.6.49ZM113.86,138.78h6.49c-.02-1.11-.31-1.95-.87-2.54-.55-.59-1.32-.88-2.31-.88s-1.77.29-2.34.87-.89,1.43-.98,2.54Z"/>
    <path d="M123.42,145.89l4.37-6.46.87-.67,3.03-4.76h2.18l-4.08,5.98-.78.65-3.43,5.26h-2.16ZM132.09,145.89l-3.44-5.26-.8-.63-4.03-5.99h2.19l3.02,4.76.82.6,4.43,6.53h-2.17Z"/>
    <path d="M140.77,146.1c-1.07,0-2.03-.23-2.86-.68-.83-.45-1.48-1.13-1.95-2.04-.47-.91-.7-2.04-.7-3.41s.23-2.51.69-3.42c.46-.92,1.1-1.6,1.93-2.06.83-.46,1.79-.69,2.89-.69.92,0,1.75.15,2.48.45s1.32.75,1.76,1.36c.44.61.67,1.37.7,2.3h-2.01c-.05-.76-.33-1.37-.83-1.81-.5-.44-1.19-.66-2.06-.66-1.16,0-2.02.4-2.59,1.19-.57.79-.85,1.91-.85,3.34,0,.95.13,1.76.38,2.42.25.66.63,1.17,1.15,1.53.51.35,1.15.53,1.92.53.87,0,1.58-.23,2.12-.68.54-.45.83-1.11.85-1.98h2.01c-.02.96-.26,1.76-.7,2.4-.44.64-1.04,1.12-1.79,1.43s-1.6.48-2.53.48Z"/>
    <path d="M150.07,131.77c-.38,0-.69-.11-.92-.33-.23-.22-.35-.51-.35-.85s.12-.62.35-.85c.23-.22.54-.34.92-.34s.69.11.93.34.35.51.35.85-.12.62-.35.85c-.24.22-.54.33-.93.33ZM149.06,145.89v-11.89h2.04v11.89h-2.04Z"/>
    <path d="M158.93,145.89c-.96,0-1.7-.15-2.21-.46-.51-.3-.86-.74-1.06-1.32-.19-.57-.29-1.26-.29-2.07v-6.4h-1.99v-1.65h1.99v-2.72h2.03v2.72h2.93v1.65h-2.93v6.3c0,.74.1,1.31.29,1.7s.65.59,1.37.59h1.29v1.65h-1.43Z"/>
    <path d="M167.87,146.11c-1.29,0-2.35-.27-3.18-.81-.83-.54-1.44-1.28-1.84-2.21-.4-.93-.6-1.98-.6-3.14s.19-2.28.58-3.2c.39-.92.98-1.65,1.77-2.17.79-.52,1.8-.78,3.02-.78,1.62,0,2.89.49,3.81,1.46s1.38,2.38,1.38,4.21c0,.12,0,.27-.01.43,0,.17-.02.29-.04.36h-8.47c0,.77.13,1.48.37,2.13.24.65.62,1.17,1.14,1.56.52.39,1.21.59,2.06.59.91,0,1.62-.21,2.14-.64.51-.43.78-1.04.81-1.85h2.01c-.02.84-.24,1.56-.65,2.17-.41.61-.98,1.07-1.71,1.4-.73.33-1.6.49-2.6.49ZM164.3,138.78h6.49c-.02-1.11-.31-1.95-.87-2.54-.55-.59-1.32-.88-2.31-.88s-1.77.29-2.34.87-.89,1.43-.98,2.54Z"/>
    <path d="M180.16,146.11c-.97,0-1.81-.23-2.51-.7s-1.26-1.16-1.64-2.08c-.39-.92-.58-2.06-.58-3.42s.21-2.48.62-3.38.99-1.58,1.74-2.04c.75-.46,1.63-.69,2.65-.69.85,0,1.58.19,2.21.56.63.37,1.13.87,1.51,1.51v-6.4h2.04v16.43h-1.93l-.11-1.73c-.42.58-.97,1.05-1.63,1.41-.67.36-1.45.54-2.36.54ZM180.58,144.44c.87,0,1.59-.21,2.17-.62s1.05-.91,1.4-1.48v-4.58c-.33-.67-.77-1.22-1.31-1.65-.54-.44-1.22-.65-2.04-.65-1.08,0-1.9.39-2.45,1.16-.55.77-.82,1.87-.82,3.3s.26,2.6.78,3.37c.52.77,1.28,1.16,2.28,1.16Z"/>
    <path d="M199.15,145.89c-.96,0-1.7-.15-2.21-.46-.51-.3-.86-.74-1.06-1.32-.19-.57-.29-1.26-.29-2.07v-6.4h-1.99v-1.65h1.99v-2.72h2.03v2.72h2.93v1.65h-2.93v6.3c0,.74.1,1.31.29,1.7s.65.59,1.37.59h1.29v1.65h-1.43Z"/>
    <path d="M208.02,146.09c-1.16,0-2.16-.25-2.99-.74-.83-.49-1.46-1.2-1.9-2.11-.44-.92-.65-2-.65-3.27s.22-2.4.65-3.33c.43-.92,1.07-1.63,1.9-2.13s1.83-.75,2.99-.75,2.2.25,3.05.75c.84.5,1.49,1.21,1.94,2.13.45.92.68,2.03.68,3.33s-.23,2.35-.68,3.27c-.45.92-1.1,1.62-1.94,2.11-.84.49-1.86.74-3.05.74ZM208.02,144.47c.88,0,1.58-.19,2.1-.58.52-.39.9-.92,1.12-1.6s.34-1.45.34-2.31-.11-1.66-.34-2.36-.6-1.24-1.12-1.63-1.22-.59-2.1-.59-1.53.2-2.03.59c-.5.39-.86.94-1.08,1.63-.22.69-.33,1.48-.33,2.36s.11,1.63.33,2.31c.22.68.58,1.21,1.08,1.6.5.39,1.18.58,2.03.58Z"/>
    <path d="M225.08,146.11c-.68,0-1.31-.13-1.87-.39-.57-.26-1.02-.65-1.35-1.15-.34-.51-.51-1.14-.51-1.89,0-1.07.33-1.88,1-2.43s1.61-.93,2.83-1.13c1.22-.2,2.65-.31,4.29-.32v-.83c0-1.02-.25-1.71-.76-2.09-.5-.38-1.14-.57-1.92-.57-.82,0-1.51.21-2.08.62s-.84,1.07-.84,1.96h-1.98c0-.98.21-1.77.63-2.37.42-.6,1-1.04,1.73-1.32.74-.28,1.58-.42,2.53-.42.61,0,1.19.06,1.75.17.56.11,1.06.32,1.5.62s.8.72,1.06,1.26c.26.54.39,1.24.39,2.09v7.95h-1.9l-.08-1.81c-.54.61-1.18,1.1-1.9,1.47-.72.37-1.56.56-2.52.56ZM225.62,144.55c.81,0,1.55-.19,2.2-.57.65-.38,1.2-.87,1.64-1.45v-2.42c-2.17.02-3.72.23-4.66.61-.94.38-1.41,1.01-1.41,1.88,0,.59.19,1.07.57,1.42.38.35.93.53,1.67.53Z"/>
    <path d="M235.3,145.89v-11.89h1.95l.07,1.83c.37-.48.89-.93,1.57-1.36.68-.43,1.56-.64,2.62-.64,1.3,0,2.25.38,2.84,1.15.59.77.89,1.85.89,3.24v7.67h-2.04v-7.37c0-.58-.06-1.09-.18-1.54-.12-.45-.34-.8-.65-1.06-.31-.26-.77-.38-1.36-.38-.89,0-1.63.2-2.23.6-.6.4-1.09.84-1.45,1.32v8.42h-2.04Z"/>
    <path d="M249.08,145.89v-11.89h1.95l.07,1.83c.37-.48.89-.93,1.57-1.36.68-.43,1.56-.64,2.62-.64,1.3,0,2.25.38,2.84,1.15.59.77.89,1.85.89,3.24v7.67h-2.04v-7.37c0-.58-.06-1.09-.18-1.54-.12-.45-.34-.8-.65-1.06-.31-.26-.77-.38-1.36-.38-.89,0-1.63.2-2.23.6-.6.4-1.09.84-1.45,1.32v8.42h-2.04Z"/>
    <path d="M267.73,146.09c-1.16,0-2.16-.25-2.99-.74-.83-.49-1.46-1.2-1.9-2.11-.44-.92-.65-2-.65-3.27s.22-2.4.65-3.33c.43-.92,1.07-1.63,1.9-2.13s1.83-.75,2.99-.75,2.2.25,3.05.75c.84.5,1.49,1.21,1.94,2.13.45.92.68,2.03.68,3.33s-.23,2.35-.68,3.27c-.45.92-1.1,1.62-1.94,2.11-.84.49-1.86.74-3.05.74ZM267.73,144.47c.88,0,1.58-.19,2.1-.58.52-.39.9-.92,1.12-1.6s.34-1.45.34-2.31-.11-1.66-.34-2.36-.6-1.24-1.12-1.63-1.22-.59-2.1-.59-1.53.2-2.03.59c-.5.39-.86.94-1.08,1.63-.22.69-.33,1.48-.33,2.36s.11,1.63.33,2.31c.22.68.58,1.21,1.08,1.6.5.39,1.18.58,2.03.58Z"/>
    <path d="M280.28,146.08c-1.38,0-2.37-.38-2.98-1.15-.61-.76-.92-1.82-.92-3.16v-7.76h2.05v7.48c0,.54.06,1.02.18,1.44.12.42.35.75.7.99s.83.35,1.48.35c.9,0,1.64-.18,2.25-.55.6-.37,1.09-.8,1.45-1.29v-8.42h2.05v11.89h-1.97l-.06-1.83c-.38.47-.92.93-1.62,1.36-.7.43-1.57.65-2.62.65Z"/>
    <path d="M290.48,145.89v-11.89h1.95l.07,1.83c.37-.48.89-.93,1.57-1.36.68-.43,1.56-.64,2.62-.64,1.3,0,2.25.38,2.84,1.15.59.77.89,1.85.89,3.24v7.67h-2.04v-7.37c0-.58-.06-1.09-.18-1.54-.12-.45-.34-.8-.65-1.06-.31-.26-.77-.38-1.36-.38-.89,0-1.63.2-2.23.6-.6.4-1.09.84-1.45,1.32v8.42h-2.04Z"/>
    <path d="M309.09,146.1c-1.07,0-2.03-.23-2.86-.68-.83-.45-1.48-1.13-1.95-2.04-.47-.91-.7-2.04-.7-3.41s.23-2.51.69-3.42c.46-.92,1.1-1.6,1.93-2.06.83-.46,1.79-.69,2.89-.69.92,0,1.75.15,2.48.45s1.32.75,1.76,1.36c.44.61.67,1.37.7,2.3h-2.01c-.05-.76-.33-1.37-.83-1.81-.5-.44-1.19-.66-2.06-.66-1.16,0-2.02.4-2.59,1.19-.57.79-.85,1.91-.85,3.34,0,.95.13,1.76.38,2.42.25.66.63,1.17,1.15,1.53.51.35,1.15.53,1.92.53.87,0,1.58-.23,2.12-.68.54-.45.83-1.11.85-1.98h2.01c-.02.96-.26,1.76-.7,2.4-.44.64-1.04,1.12-1.79,1.43s-1.6.48-2.53.48Z"/>
    <path d="M322.32,146.11c-1.29,0-2.35-.27-3.18-.81-.83-.54-1.44-1.28-1.84-2.21-.4-.93-.6-1.98-.6-3.14s.19-2.28.58-3.2c.39-.92.98-1.65,1.77-2.17.79-.52,1.8-.78,3.02-.78,1.62,0,2.89.49,3.81,1.46s1.38,2.38,1.38,4.21c0,.12,0,.27-.01.43,0,.17-.02.29-.04.36h-8.47c0,.77.13,1.48.37,2.13.24.65.62,1.17,1.14,1.56.52.39,1.21.59,2.06.59.91,0,1.62-.21,2.14-.64.51-.43.78-1.04.81-1.85h2.01c-.02.84-.24,1.56-.65,2.17-.41.61-.98,1.07-1.71,1.4-.73.33-1.6.49-2.6.49ZM318.76,138.78h6.49c-.02-1.11-.31-1.95-.87-2.54-.55-.59-1.32-.88-2.31-.88s-1.77.29-2.34.87-.89,1.43-.98,2.54Z"/>
    <path d="M339.6,145.89c-.96,0-1.7-.15-2.21-.46-.51-.3-.86-.74-1.06-1.32-.19-.57-.29-1.26-.29-2.07v-6.4h-1.99v-1.65h1.99v-2.72h2.03v2.72h2.93v1.65h-2.93v6.3c0,.74.1,1.31.29,1.7s.65.59,1.37.59h1.29v1.65h-1.43Z"/>
    <path d="M343.71,145.89v-16.43h2.03v6.37c.37-.48.89-.93,1.57-1.36.68-.43,1.55-.64,2.61-.64,1.33,0,2.29.38,2.88,1.15.58.76.87,1.85.87,3.25v7.67h-2.04v-7.39c0-.57-.06-1.08-.18-1.53-.12-.45-.34-.8-.65-1.06-.32-.26-.77-.38-1.37-.38-.89,0-1.63.2-2.23.6-.6.4-1.09.84-1.45,1.32v8.42h-2.04Z"/>
    <path d="M360.56,146.11c-.68,0-1.31-.13-1.87-.39-.57-.26-1.02-.65-1.35-1.15-.34-.51-.51-1.14-.51-1.89,0-1.07.33-1.88,1-2.43s1.61-.93,2.83-1.13c1.22-.2,2.65-.31,4.29-.32v-.83c0-1.02-.25-1.71-.76-2.09-.5-.38-1.14-.57-1.92-.57-.82,0-1.51.21-2.08.62s-.84,1.07-.84,1.96h-1.98c0-.98.21-1.77.63-2.37.42-.6,1-1.04,1.73-1.32.74-.28,1.58-.42,2.53-.42.61,0,1.19.06,1.75.17.56.11,1.06.32,1.5.62s.8.72,1.06,1.26c.26.54.39,1.24.39,2.09v7.95h-1.9l-.08-1.81c-.54.61-1.18,1.1-1.9,1.47-.72.37-1.56.56-2.52.56ZM361.09,144.55c.81,0,1.55-.19,2.2-.57.65-.38,1.2-.87,1.64-1.45v-2.42c-2.17.02-3.72.23-4.66.61-.94.38-1.41,1.01-1.41,1.88,0,.59.19,1.07.57,1.42.38.35.93.53,1.67.53Z"/>
    <path d="M374.52,145.89c-.96,0-1.7-.15-2.21-.46-.51-.3-.86-.74-1.06-1.32-.19-.57-.29-1.26-.29-2.07v-6.4h-1.99v-1.65h1.99v-2.72h2.03v2.72h2.93v1.65h-2.93v6.3c0,.74.1,1.31.29,1.7s.65.59,1.37.59h1.29v1.65h-1.43Z"/>
  </g>
  <g>
    <path d="M52.89,179.49c-1.72,0-3.17-.35-4.36-1.04-1.19-.7-2.1-1.67-2.72-2.93-.62-1.26-.93-2.74-.93-4.45s.31-3.2.93-4.46c.62-1.27,1.52-2.25,2.72-2.94,1.19-.7,2.65-1.04,4.36-1.04s3.17.35,4.36,1.04c1.19.7,2.09,1.68,2.71,2.94s.93,2.75.93,4.46-.31,3.19-.93,4.45c-.62,1.26-1.52,2.23-2.71,2.93-1.19.7-2.64,1.04-4.36,1.04ZM52.89,176.63c1.07,0,1.92-.25,2.58-.76s1.13-1.18,1.43-2.03c.3-.85.45-1.77.45-2.78s-.15-1.96-.45-2.81c-.3-.85-.78-1.52-1.43-2.03s-1.51-.76-2.58-.76-1.94.25-2.59.76-1.13,1.18-1.43,2.03c-.3.85-.45,1.78-.45,2.81s.15,1.94.45,2.78c.3.85.77,1.52,1.43,2.03s1.52.76,2.59.76Z"/>
    <path d="M63.84,183.64v-16.28h3.05l.18,1.82c.44-.64.97-1.14,1.59-1.48.62-.35,1.35-.52,2.2-.52.93,0,1.75.22,2.47.67.72.45,1.29,1.13,1.7,2.04.41.91.62,2.08.62,3.5s-.22,2.51-.67,3.41c-.44.9-1.04,1.57-1.8,2.01-.76.45-1.61.67-2.55.68-.77,0-1.46-.15-2.07-.48s-1.1-.78-1.48-1.37v5.99h-3.24ZM69.82,177.01c.81,0,1.44-.31,1.87-.94.43-.63.65-1.53.65-2.72,0-1.26-.2-2.2-.6-2.81-.4-.61-.95-.92-1.65-.92s-1.36.21-1.88.62c-.52.41-.9.86-1.12,1.35v3.52c.26.52.62.97,1.09,1.34.47.38,1.02.56,1.65.56Z"/>
    <path d="M83.98,179.49c-1.33,0-2.44-.25-3.35-.74-.9-.49-1.59-1.2-2.05-2.13-.46-.93-.7-2.04-.7-3.34s.23-2.35.68-3.26c.45-.91,1.11-1.61,1.99-2.11.88-.49,1.95-.74,3.23-.74,1.77,0,3.17.52,4.21,1.56,1.03,1.04,1.54,2.52,1.54,4.44,0,.1,0,.23-.01.4,0,.17-.02.29-.04.38h-8.36c.02.56.12,1.09.31,1.57s.5.88.91,1.18c.42.3.96.45,1.64.45s1.26-.15,1.68-.46c.42-.3.64-.76.65-1.36h3.19c-.04.93-.3,1.7-.76,2.32-.47.62-1.11,1.08-1.92,1.39-.81.31-1.76.46-2.84.46ZM81.16,171.9h5.16c-.03-.83-.27-1.45-.74-1.86-.47-.41-1.07-.62-1.8-.62s-1.36.21-1.84.63c-.48.42-.74,1.04-.79,1.84Z"/>
    <path d="M92.4,179.27v-11.91h3.11l.06,1.78c.4-.51.92-.97,1.58-1.36.65-.39,1.5-.59,2.54-.59,1.21,0,2.15.37,2.82,1.1s1,1.81,1,3.23v7.75h-3.21v-7.34c0-.43-.06-.81-.18-1.13s-.32-.58-.58-.76-.61-.27-1.04-.27c-.64,0-1.19.15-1.65.45-.46.3-.86.67-1.2,1.1v7.95h-3.24Z"/>
    <path d="M112.19,179.27v-16.43h3.43v7.84l5.9-7.84h3.8l-6.08,7.7,6.48,8.73h-3.97l-6.13-8.41v8.41h-3.43Z"/>
    <path d="M132.37,179.49c-1.33,0-2.44-.25-3.35-.74-.9-.49-1.59-1.2-2.05-2.13-.46-.93-.7-2.04-.7-3.34s.23-2.35.68-3.26c.45-.91,1.11-1.61,1.99-2.11.88-.49,1.95-.74,3.23-.74,1.77,0,3.17.52,4.21,1.56,1.03,1.04,1.54,2.52,1.54,4.44,0,.1,0,.23-.01.4,0,.17-.02.29-.04.38h-8.36c.02.56.12,1.09.31,1.57s.5.88.91,1.18c.42.3.96.45,1.64.45s1.26-.15,1.68-.46c.42-.3.64-.76.65-1.36h3.19c-.04.93-.3,1.7-.76,2.32-.47.62-1.11,1.08-1.92,1.39-.81.31-1.76.46-2.84.46ZM129.55,171.9h5.16c-.03-.83-.27-1.45-.74-1.86-.47-.41-1.07-.62-1.8-.62s-1.36.21-1.84.63c-.48.42-.74,1.04-.79,1.84Z"/>
    <path d="M140.37,183.64v-2.62h1.07c.48,0,.88-.09,1.2-.26.32-.17.56-.45.7-.84l.27-.65-4.64-11.91h3.37l3.02,8.81,2.69-8.81h3.27l-4.29,11.91-.44,1.18c-.31.84-.67,1.49-1.07,1.95-.41.46-.91.79-1.5.96-.59.18-1.33.27-2.2.27h-1.45Z"/>
    <path d="M165.61,179.49c-1.66,0-3.09-.35-4.29-1.04-1.2-.7-2.12-1.67-2.76-2.93-.64-1.26-.96-2.74-.96-4.45s.32-3.2.96-4.46,1.56-2.25,2.76-2.94c1.2-.7,2.62-1.04,4.29-1.04,1.29,0,2.47.22,3.55.67s1.96,1.1,2.64,1.97c.68.87,1.05,1.93,1.11,3.2h-3.52c-.09-.67-.31-1.22-.65-1.66-.35-.44-.79-.77-1.32-.99s-1.14-.33-1.81-.33c-1.07,0-1.94.26-2.59.78s-1.13,1.2-1.43,2.04c-.3.84-.45,1.76-.45,2.76s.15,1.91.45,2.76c.3.85.77,1.53,1.43,2.04s1.52.77,2.59.77c1.13,0,2.02-.29,2.68-.87s1.03-1.41,1.13-2.48h3.52c-.1,1.34-.45,2.48-1.06,3.4-.61.92-1.44,1.62-2.5,2.1-1.06.48-2.31.71-3.76.71Z"/>
    <path d="M175.79,179.27v-16.43h3.17v6.3c.4-.51.92-.97,1.58-1.36.65-.39,1.49-.59,2.51-.59,1.24,0,2.19.36,2.85,1.09.66.73,1,1.81,1,3.24v7.75h-3.23v-7.35c0-.42-.06-.8-.18-1.12s-.31-.58-.57-.76-.61-.27-1.04-.27c-.64,0-1.19.15-1.65.45-.46.3-.86.67-1.2,1.1v7.95h-3.24Z"/>
    <path d="M193.51,179.48c-.68,0-1.31-.13-1.89-.39-.59-.26-1.06-.65-1.42-1.18-.36-.52-.54-1.18-.54-1.97,0-1.1.33-1.93.99-2.48.66-.56,1.58-.94,2.77-1.14,1.18-.2,2.56-.32,4.13-.35v-.63c0-.77-.19-1.3-.56-1.59s-.85-.43-1.43-.43c-.64,0-1.17.15-1.59.46-.41.31-.62.8-.62,1.48h-3.03c0-1.02.22-1.82.67-2.42s1.06-1.02,1.84-1.28c.79-.26,1.69-.39,2.73-.39.76,0,1.45.06,2.07.19.63.13,1.17.34,1.63.65s.82.73,1.07,1.26c.25.53.38,1.2.38,2v8h-3.03l-.1-1.55c-.5.58-1.09,1.02-1.76,1.31-.67.3-1.44.45-2.31.45ZM194.58,177.26c.61,0,1.17-.16,1.69-.48.52-.32.93-.68,1.24-1.09v-1.93c-1.71,0-2.91.17-3.59.48s-1.03.82-1.03,1.52c0,.5.16.88.47,1.12.31.24.72.37,1.21.37Z"/>
    <path d="M205.69,165.79c-.59,0-1.05-.15-1.36-.45-.31-.3-.47-.67-.47-1.12s.16-.83.47-1.13c.31-.3.77-.45,1.36-.45s1.05.15,1.36.45.47.67.47,1.13-.16.82-.47,1.12c-.31.3-.77.45-1.36.45ZM204.06,179.27v-11.91h3.24v11.91h-3.24Z"/>
    <path d="M210.76,179.27v-11.91h3.11l.06,1.78c.4-.51.92-.97,1.58-1.36.65-.39,1.5-.59,2.54-.59,1.21,0,2.15.37,2.82,1.1s1,1.81,1,3.23v7.75h-3.21v-7.34c0-.43-.06-.81-.18-1.13s-.32-.58-.58-.76-.61-.27-1.04-.27c-.64,0-1.19.15-1.65.45-.46.3-.86.67-1.2,1.1v7.95h-3.24Z"/>
    <path d="M230.55,179.27v-16.43h3.94l5.15,8.76h-1.37l5.08-8.76h3.8v16.43h-3.38v-14.6h1.5l-5.37,9.35h-2.11l-5.5-9.35h1.55v14.6h-3.28Z"/>
    <path d="M254.09,179.48c-.68,0-1.31-.13-1.89-.39-.59-.26-1.06-.65-1.42-1.18-.36-.52-.54-1.18-.54-1.97,0-1.1.33-1.93.99-2.48.66-.56,1.58-.94,2.77-1.14,1.18-.2,2.56-.32,4.13-.35v-.63c0-.77-.19-1.3-.56-1.59s-.85-.43-1.43-.43c-.64,0-1.17.15-1.59.46-.41.31-.62.8-.62,1.48h-3.03c0-1.02.22-1.82.67-2.42s1.06-1.02,1.84-1.28c.79-.26,1.69-.39,2.73-.39.76,0,1.45.06,2.07.19.63.13,1.17.34,1.63.65s.82.73,1.07,1.26c.25.53.38,1.2.38,2v8h-3.03l-.1-1.55c-.5.58-1.09,1.02-1.76,1.31-.67.3-1.44.45-2.31.45ZM255.15,177.26c.61,0,1.17-.16,1.69-.48.52-.32.93-.68,1.24-1.09v-1.93c-1.71,0-2.91.17-3.59.48s-1.03.82-1.03,1.52c0,.5.16.88.47,1.12.31.24.72.37,1.21.37Z"/>
    <path d="M264.63,179.27v-11.91h3.11l.06,1.78c.4-.51.92-.97,1.58-1.36.65-.39,1.5-.59,2.54-.59,1.21,0,2.15.37,2.82,1.1s1,1.81,1,3.23v7.75h-3.21v-7.34c0-.43-.06-.81-.18-1.13s-.32-.58-.58-.76-.61-.27-1.04-.27c-.64,0-1.19.15-1.65.45-.46.3-.86.67-1.2,1.1v7.95h-3.24Z"/>
    <path d="M282.36,179.48c-.68,0-1.31-.13-1.89-.39-.59-.26-1.06-.65-1.42-1.18-.36-.52-.54-1.18-.54-1.97,0-1.1.33-1.93.99-2.48.66-.56,1.58-.94,2.77-1.14,1.18-.2,2.56-.32,4.13-.35v-.63c0-.77-.19-1.3-.56-1.59s-.85-.43-1.43-.43c-.64,0-1.17.15-1.59.46-.41.31-.62.8-.62,1.48h-3.03c0-1.02.22-1.82.67-2.42s1.06-1.02,1.84-1.28c.79-.26,1.69-.39,2.73-.39.76,0,1.45.06,2.07.19.63.13,1.17.34,1.63.65s.82.73,1.07,1.26c.25.53.38,1.2.38,2v8h-3.03l-.1-1.55c-.5.58-1.09,1.02-1.76,1.31-.67.3-1.44.45-2.31.45ZM283.42,177.26c.61,0,1.17-.16,1.69-.48.52-.32.93-.68,1.24-1.09v-1.93c-1.71,0-2.91.17-3.59.48s-1.03.82-1.03,1.52c0,.5.16.88.47,1.12.31.24.72.37,1.21.37Z"/>
    <path d="M297.59,183.87c-1.42,0-2.56-.15-3.39-.44s-1.44-.68-1.81-1.15-.55-.99-.55-1.54c0-.67.32-1.27.96-1.78s1.66-.86,3.05-1.07l.54-1.15h1.61c1.98,0,3.42.27,4.33.82s1.36,1.38,1.36,2.5-.52,2.06-1.56,2.76-2.56,1.05-4.54,1.05ZM295.91,179c-.85-.1-1.55-.27-2.08-.52-.53-.25-.92-.54-1.16-.86-.24-.33-.37-.65-.37-.96,0-.5.19-.92.57-1.26.38-.35.95-.65,1.71-.91l1.68.61c-.44.11-.81.23-1.1.38-.29.15-.44.33-.44.55,0,.16.09.29.26.39.17.11.48.19.92.24s1.04.08,1.8.08l-1.81,2.26ZM297.37,175.47c-1.07,0-1.99-.19-2.75-.57-.76-.38-1.33-.89-1.72-1.51s-.59-1.3-.59-2.03c0-.77.2-1.47.59-2.09.39-.62.97-1.12,1.74-1.5.77-.37,1.7-.56,2.8-.56s2.07.19,2.81.56c.75.37,1.3.87,1.67,1.5.37.62.56,1.32.56,2.09s-.19,1.42-.57,2.05c-.38.63-.94,1.13-1.7,1.5-.75.38-1.7.56-2.85.56ZM297.54,181.85c1.09,0,1.86-.14,2.31-.43.45-.29.67-.63.67-1.04,0-.26-.08-.48-.23-.66-.16-.18-.41-.32-.77-.42s-.83-.15-1.43-.15h-2.17c-.32.12-.58.29-.77.52-.2.22-.3.48-.3.77,0,.34.21.66.63.95.42.29,1.11.44,2.06.44ZM297.37,173.53c.6,0,1.1-.19,1.51-.56.4-.37.6-.91.6-1.62,0-.75-.19-1.31-.56-1.67-.38-.37-.86-.55-1.46-.55s-1.12.19-1.51.57c-.4.38-.6.93-.6,1.65s.21,1.26.62,1.62.88.55,1.41.55ZM300.78,169.02l-.95-1.21c.32-.85.81-1.42,1.47-1.73.66-.31,1.46-.47,2.4-.48v2.36c-.63,0-1.21.06-1.74.18-.53.12-.92.41-1.18.88Z"/>
    <path d="M310.86,179.49c-1.33,0-2.44-.25-3.35-.74-.9-.49-1.59-1.2-2.05-2.13-.46-.93-.7-2.04-.7-3.34s.23-2.35.68-3.26c.45-.91,1.11-1.61,1.99-2.11.88-.49,1.95-.74,3.23-.74,1.77,0,3.17.52,4.21,1.56,1.03,1.04,1.54,2.52,1.54,4.44,0,.1,0,.23-.01.4,0,.17-.02.29-.04.38h-8.36c.02.56.12,1.09.31,1.57s.5.88.91,1.18c.42.3.96.45,1.64.45s1.26-.15,1.68-.46c.42-.3.64-.76.65-1.36h3.19c-.04.93-.3,1.7-.76,2.32-.47.62-1.11,1.08-1.92,1.39-.81.31-1.76.46-2.84.46ZM308.04,171.9h5.16c-.03-.83-.27-1.45-.74-1.86-.47-.41-1.07-.62-1.8-.62s-1.36.21-1.84.63c-.48.42-.74,1.04-.79,1.84Z"/>
    <path d="M319.28,179.27v-11.91h3.1l.06,2.06c.31-.72.77-1.26,1.39-1.65.62-.38,1.37-.57,2.25-.57h.24v2.72h-.31c-.48,0-.94.04-1.38.13-.44.09-.84.23-1.2.44-.36.21-.67.49-.93.86v7.92h-3.24Z"/>
    <path d="M333.59,179.27v-16.43h3.17v6.3c.4-.51.92-.97,1.58-1.36.65-.39,1.49-.59,2.51-.59,1.24,0,2.19.36,2.85,1.09.66.73,1,1.81,1,3.24v7.75h-3.23v-7.35c0-.42-.06-.8-.18-1.12s-.31-.58-.57-.76-.61-.27-1.04-.27c-.64,0-1.19.15-1.65.45-.46.3-.86.67-1.2,1.1v7.95h-3.24Z"/>
    <path d="M351.32,179.48c-.68,0-1.31-.13-1.89-.39-.59-.26-1.06-.65-1.42-1.18-.36-.52-.54-1.18-.54-1.97,0-1.1.33-1.93.99-2.48.66-.56,1.58-.94,2.77-1.14,1.18-.2,2.56-.32,4.13-.35v-.63c0-.77-.19-1.3-.56-1.59s-.85-.43-1.43-.43c-.64,0-1.17.15-1.59.46-.41.31-.62.8-.62,1.48h-3.03c0-1.02.22-1.82.67-2.42s1.06-1.02,1.84-1.28c.79-.26,1.69-.39,2.73-.39.76,0,1.45.06,2.07.19.63.13,1.17.34,1.63.65s.82.73,1.07,1.26c.25.53.38,1.2.38,2v8h-3.03l-.1-1.55c-.5.58-1.09,1.02-1.76,1.31-.67.3-1.44.45-2.31.45ZM352.38,177.26c.61,0,1.17-.16,1.69-.48.52-.32.93-.68,1.24-1.09v-1.93c-1.71,0-2.91.17-3.59.48s-1.03.82-1.03,1.52c0,.5.16.88.47,1.12.31.24.72.37,1.21.37Z"/>
    <path d="M366.65,179.49c-.66,0-1.31-.06-1.94-.18s-1.21-.33-1.72-.63c-.51-.3-.92-.7-1.22-1.21s-.45-1.15-.45-1.92h3c0,.67.23,1.13.7,1.39.47.26,1.02.39,1.64.39s1.1-.1,1.44-.3.51-.54.51-1.01c0-.45-.2-.78-.6-1-.4-.22-1.11-.44-2.12-.67-.85-.2-1.6-.45-2.26-.74s-1.18-.68-1.56-1.16c-.38-.48-.56-1.12-.56-1.91,0-.62.14-1.14.43-1.57s.67-.78,1.14-1.04c.48-.26,1.01-.46,1.61-.58.6-.12,1.21-.18,1.84-.18s1.21.06,1.79.18,1.11.33,1.59.62c.47.29.85.68,1.14,1.17s.43,1.1.43,1.83h-3c0-.61-.19-1.03-.58-1.27-.39-.24-.84-.35-1.36-.35-.56,0-1,.08-1.32.24-.32.16-.48.43-.48.81,0,.22.1.41.3.58.2.17.53.32.98.46.45.14,1.04.29,1.77.46.77.18,1.46.41,2.08.7s1.09.67,1.45,1.15c.36.48.54,1.1.54,1.87,0,.72-.15,1.32-.43,1.82-.29.5-.68.9-1.16,1.2-.48.31-1.04.53-1.66.67-.62.14-1.27.21-1.93.21Z"/>
    <path d="M386.62,179.49c-.87,0-1.59-.17-2.15-.5-.56-.33-1.04-.79-1.44-1.38l-.13,1.66h-3.06v-16.43h3.24v6.23c.42-.58.94-1.04,1.55-1.39s1.36-.52,2.26-.52,1.72.22,2.44.67c.72.44,1.28,1.12,1.7,2.03s.62,2.07.62,3.47-.22,2.56-.67,3.47c-.44.91-1.04,1.59-1.8,2.03-.76.44-1.61.67-2.55.67ZM385.81,177.01c.79,0,1.41-.31,1.85-.93.44-.62.67-1.52.67-2.7,0-1.28-.21-2.23-.63-2.85-.42-.62-1-.93-1.75-.93-.67,0-1.25.2-1.75.6-.5.4-.88.87-1.13,1.4v3.49c.24.51.59.96,1.06,1.34.47.38,1.03.57,1.69.57Z"/>
    <path d="M399.97,179.49c-1.33,0-2.44-.25-3.35-.74-.9-.49-1.59-1.2-2.05-2.13-.46-.93-.7-2.04-.7-3.34s.23-2.35.68-3.26c.45-.91,1.11-1.61,1.99-2.11.88-.49,1.95-.74,3.23-.74,1.77,0,3.17.52,4.21,1.56,1.03,1.04,1.54,2.52,1.54,4.44,0,.1,0,.23-.01.4,0,.17-.02.29-.04.38h-8.36c.02.56.12,1.09.31,1.57s.5.88.91,1.18c.42.3.96.45,1.64.45s1.26-.15,1.68-.46c.42-.3.64-.76.65-1.36h3.19c-.04.93-.3,1.7-.76,2.32-.47.62-1.11,1.08-1.92,1.39-.81.31-1.76.46-2.84.46ZM397.15,171.9h5.16c-.03-.83-.27-1.45-.74-1.86-.47-.41-1.07-.62-1.8-.62s-1.36.21-1.84.63c-.48.42-.74,1.04-.79,1.84Z"/>
    <path d="M413.88,179.49c-1.33,0-2.44-.25-3.35-.74-.9-.49-1.59-1.2-2.05-2.13-.46-.93-.7-2.04-.7-3.34s.23-2.35.68-3.26c.45-.91,1.11-1.61,1.99-2.11.88-.49,1.95-.74,3.23-.74,1.77,0,3.17.52,4.21,1.56,1.03,1.04,1.54,2.52,1.54,4.44,0,.1,0,.23-.01.4,0,.17-.02.29-.04.38h-8.36c.02.56.12,1.09.31,1.57s.5.88.91,1.18c.42.3.96.45,1.64.45s1.26-.15,1.68-.46c.42-.3.64-.76.65-1.36h3.19c-.04.93-.3,1.7-.76,2.32-.47.62-1.11,1.08-1.92,1.39-.81.31-1.76.46-2.84.46ZM411.06,171.9h5.16c-.03-.83-.27-1.45-.74-1.86-.47-.41-1.07-.62-1.8-.62s-1.36.21-1.84.63c-.48.42-.74,1.04-.79,1.84Z"/>
    <path d="M422.3,179.27v-11.91h3.11l.06,1.78c.4-.51.92-.97,1.58-1.36.65-.39,1.5-.59,2.54-.59,1.21,0,2.15.37,2.82,1.1s1,1.81,1,3.23v7.75h-3.21v-7.34c0-.43-.06-.81-.18-1.13s-.32-.58-.58-.76-.61-.27-1.04-.27c-.64,0-1.19.15-1.65.45-.46.3-.86.67-1.2,1.1v7.95h-3.24Z"/>
    <path d="M445.1,179.48c-.68,0-1.31-.13-1.89-.39-.59-.26-1.06-.65-1.42-1.18-.36-.52-.54-1.18-.54-1.97,0-1.1.33-1.93.99-2.48.66-.56,1.58-.94,2.77-1.14,1.18-.2,2.56-.32,4.13-.35v-.63c0-.77-.19-1.3-.56-1.59s-.85-.43-1.43-.43c-.64,0-1.17.15-1.59.46-.41.31-.62.8-.62,1.48h-3.03c0-1.02.22-1.82.67-2.42s1.06-1.02,1.84-1.28c.79-.26,1.69-.39,2.73-.39.76,0,1.45.06,2.07.19.63.13,1.17.34,1.63.65s.82.73,1.07,1.26c.25.53.38,1.2.38,2v8h-3.03l-.1-1.55c-.5.58-1.09,1.02-1.76,1.31-.67.3-1.44.45-2.31.45ZM446.17,177.26c.61,0,1.17-.16,1.69-.48.52-.32.93-.68,1.24-1.09v-1.93c-1.71,0-2.91.17-3.59.48s-1.03.82-1.03,1.52c0,.5.16.88.47,1.12.31.24.72.37,1.21.37Z"/>
    <path d="M461,179.44c-1.11,0-2.11-.21-3.02-.63-.9-.42-1.62-1.08-2.15-1.98-.53-.9-.79-2.05-.79-3.47s.25-2.58.76-3.49,1.21-1.59,2.11-2.03c.9-.44,1.93-.67,3.09-.67,1.01,0,1.92.17,2.73.5s1.46.83,1.94,1.5c.48.66.72,1.5.73,2.51h-3.14c-.02-.61-.22-1.1-.61-1.46s-.94-.54-1.65-.54c-.94,0-1.61.32-2.03.96-.42.64-.63,1.55-.63,2.72,0,.76.09,1.4.27,1.93.18.53.47.94.87,1.22.39.28.9.42,1.52.42.72,0,1.3-.2,1.72-.59.42-.39.64-.95.65-1.68h3.14c-.02,1.03-.27,1.9-.75,2.61-.48.71-1.12,1.25-1.95,1.61-.82.37-1.76.55-2.82.55Z"/>
    <path d="M474.72,179.44c-1.11,0-2.11-.21-3.02-.63-.9-.42-1.62-1.08-2.15-1.98-.53-.9-.79-2.05-.79-3.47s.25-2.58.76-3.49,1.21-1.59,2.11-2.03c.9-.44,1.93-.67,3.09-.67,1.01,0,1.92.17,2.73.5s1.46.83,1.94,1.5c.48.66.72,1.5.73,2.51h-3.14c-.02-.61-.22-1.1-.61-1.46s-.94-.54-1.65-.54c-.94,0-1.61.32-2.03.96-.42.64-.63,1.55-.63,2.72,0,.76.09,1.4.27,1.93.18.53.47.94.87,1.22.39.28.9.42,1.52.42.72,0,1.3-.2,1.72-.59.42-.39.64-.95.65-1.68h3.14c-.02,1.03-.27,1.9-.75,2.61-.48.71-1.12,1.25-1.95,1.61-.82.37-1.76.55-2.82.55Z"/>
    <path d="M488.57,179.49c-1.33,0-2.44-.25-3.35-.74-.9-.49-1.59-1.2-2.05-2.13-.46-.93-.7-2.04-.7-3.34s.23-2.35.68-3.26c.45-.91,1.11-1.61,1.99-2.11.88-.49,1.95-.74,3.23-.74,1.77,0,3.17.52,4.21,1.56,1.03,1.04,1.54,2.52,1.54,4.44,0,.1,0,.23-.01.4,0,.17-.02.29-.04.38h-8.36c.02.56.12,1.09.31,1.57s.5.88.91,1.18c.42.3.96.45,1.64.45s1.26-.15,1.68-.46c.42-.3.64-.76.65-1.36h3.19c-.04.93-.3,1.7-.76,2.32-.47.62-1.11,1.08-1.92,1.39-.81.31-1.76.46-2.84.46ZM485.75,171.9h5.16c-.03-.83-.27-1.45-.74-1.86-.47-.41-1.07-.62-1.8-.62s-1.36.21-1.84.63c-.48.42-.74,1.04-.79,1.84Z"/>
    <path d="M496.99,183.64v-16.28h3.05l.18,1.82c.44-.64.97-1.14,1.59-1.48.62-.35,1.35-.52,2.2-.52.93,0,1.75.22,2.47.67.72.45,1.29,1.13,1.7,2.04.41.91.62,2.08.62,3.5s-.22,2.51-.67,3.41c-.44.9-1.04,1.57-1.8,2.01-.76.45-1.61.67-2.55.68-.77,0-1.46-.15-2.07-.48s-1.1-.78-1.48-1.37v5.99h-3.24ZM502.98,177.01c.81,0,1.44-.31,1.87-.94.43-.63.65-1.53.65-2.72,0-1.26-.2-2.2-.6-2.81-.4-.61-.95-.92-1.65-.92s-1.36.21-1.88.62c-.52.41-.9.86-1.12,1.35v3.52c.26.52.62.97,1.09,1.34.47.38,1.02.56,1.65.56Z"/>
    <path d="M516.75,179.27c-1.21,0-2.14-.14-2.8-.43-.66-.29-1.12-.74-1.39-1.34s-.39-1.4-.39-2.37v-5.27h-1.98v-2.49h1.98v-2.81h3.23v2.81h2.6v2.49h-2.6v5.08c0,.63.09,1.09.26,1.39s.57.45,1.19.45h1.15v2.5h-1.26Z"/>
    <path d="M525.9,179.49c-1.33,0-2.44-.25-3.35-.74-.9-.49-1.59-1.2-2.05-2.13-.46-.93-.7-2.04-.7-3.34s.23-2.35.68-3.26c.45-.91,1.11-1.61,1.99-2.11.88-.49,1.95-.74,3.23-.74,1.77,0,3.17.52,4.21,1.56,1.03,1.04,1.54,2.52,1.54,4.44,0,.1,0,.23-.01.4,0,.17-.02.29-.04.38h-8.36c.02.56.12,1.09.31,1.57s.5.88.91,1.18c.42.3.96.45,1.64.45s1.26-.15,1.68-.46c.42-.3.64-.76.65-1.36h3.19c-.04.93-.3,1.7-.76,2.32-.47.62-1.11,1.08-1.92,1.39-.81.31-1.76.46-2.84.46ZM523.08,171.9h5.16c-.03-.83-.27-1.45-.74-1.86-.47-.41-1.07-.62-1.8-.62s-1.36.21-1.84.63c-.48.42-.74,1.04-.79,1.84Z"/>
    <path d="M538.42,179.48c-.9,0-1.7-.22-2.41-.67s-1.27-1.13-1.68-2.06c-.41-.92-.62-2.1-.62-3.52s.22-2.51.67-3.41,1.04-1.56,1.8-2,1.61-.66,2.55-.66c.83,0,1.54.17,2.14.51s1.07.79,1.42,1.34v-6.18h3.24v16.43h-3.1l-.13-1.7c-.42.59-.95,1.05-1.58,1.39-.63.34-1.39.51-2.28.51ZM539.38,177.01c.68,0,1.27-.19,1.77-.57.5-.38.88-.83,1.14-1.34v-3.48c-.25-.54-.61-1-1.06-1.4-.46-.4-1.02-.6-1.69-.6-.8,0-1.42.31-1.86.93-.44.62-.66,1.51-.66,2.69,0,1.29.21,2.24.63,2.86.42.62,1,.93,1.73.93Z"/>
    <path d="M47.03,195.79c-.59,0-1.05-.15-1.36-.45-.31-.3-.47-.68-.47-1.12s.16-.83.47-1.13c.31-.3.77-.45,1.36-.45s1.05.15,1.36.45c.31.3.47.67.47,1.13s-.16.82-.47,1.12c-.31.3-.77.45-1.36.45ZM45.41,209.27v-11.91h3.24v11.91h-3.24Z"/>
    <path d="M52.11,209.27v-11.91h3.11l.06,1.78c.4-.51.92-.97,1.58-1.36.65-.39,1.5-.59,2.54-.59,1.21,0,2.15.37,2.82,1.1.67.74,1,1.81,1,3.23v7.75h-3.21v-7.34c0-.43-.06-.81-.18-1.14s-.32-.58-.58-.76-.61-.27-1.04-.27c-.64,0-1.19.15-1.65.45-.46.3-.86.67-1.2,1.1v7.95h-3.24Z"/>
    <path d="M71.68,209.27c-1.21,0-2.14-.14-2.8-.43-.66-.29-1.12-.74-1.39-1.34-.26-.61-.39-1.4-.39-2.37v-5.27h-1.98v-2.49h1.98v-2.81h3.23v2.81h2.6v2.49h-2.6v5.08c0,.63.09,1.09.26,1.39s.57.45,1.19.45h1.15v2.5h-1.26Z"/>
    <path d="M80.76,209.47c-1.2,0-2.26-.24-3.17-.72-.91-.48-1.61-1.18-2.11-2.09-.5-.91-.74-2.01-.74-3.31s.25-2.44.74-3.36c.5-.92,1.2-1.63,2.11-2.11.91-.48,1.96-.73,3.17-.73s2.29.24,3.19.73c.91.48,1.61,1.19,2.12,2.11s.76,2.04.76,3.36-.25,2.4-.76,3.31-1.21,1.61-2.12,2.09c-.91.48-1.97.72-3.19.72ZM80.76,207c.71,0,1.26-.17,1.67-.49.4-.33.69-.77.85-1.33.17-.55.25-1.16.25-1.83s-.08-1.31-.25-1.87c-.17-.56-.45-1.01-.85-1.34-.4-.33-.96-.5-1.67-.5s-1.23.17-1.63.5c-.4.33-.67.78-.84,1.34-.16.56-.24,1.18-.24,1.87s.08,1.28.24,1.83c.16.55.44,1,.84,1.33.39.33.94.49,1.63.49Z"/>
    <path d="M99.85,209.27c-1.21,0-2.14-.14-2.8-.43-.66-.29-1.12-.74-1.39-1.34-.26-.61-.39-1.4-.39-2.37v-5.27h-1.98v-2.49h1.98v-2.81h3.23v2.81h2.6v2.49h-2.6v5.08c0,.63.09,1.09.26,1.39s.57.45,1.19.45h1.15v2.5h-1.26Z"/>
    <path d="M103.65,209.27v-16.43h3.17v6.3c.4-.51.92-.97,1.58-1.36.65-.39,1.49-.59,2.51-.59,1.24,0,2.19.36,2.85,1.09s1,1.81,1,3.24v7.75h-3.23v-7.35c0-.42-.06-.8-.18-1.12s-.31-.58-.57-.76-.61-.27-1.04-.27c-.64,0-1.19.15-1.65.45-.46.3-.86.67-1.2,1.1v7.95h-3.24Z"/>
    <path d="M123.61,209.49c-1.33,0-2.44-.25-3.35-.74-.9-.49-1.59-1.2-2.05-2.13-.46-.93-.7-2.04-.7-3.35s.23-2.35.68-3.26c.45-.91,1.11-1.61,1.99-2.11s1.95-.74,3.23-.74c1.77,0,3.17.52,4.21,1.56,1.03,1.04,1.54,2.52,1.54,4.44,0,.1,0,.23-.01.4,0,.17-.02.29-.04.38h-8.36c.02.56.12,1.09.31,1.57s.5.88.91,1.18c.42.3.96.45,1.64.45s1.26-.15,1.68-.46c.42-.3.64-.76.65-1.36h3.19c-.04.93-.3,1.7-.76,2.32-.47.62-1.11,1.08-1.92,1.38-.81.31-1.76.46-2.84.46ZM120.79,201.9h5.16c-.03-.83-.27-1.45-.74-1.86s-1.07-.62-1.8-.62-1.36.21-1.84.63c-.48.42-.74,1.04-.79,1.84Z"/>
    <path d="M137.34,209.27v-16.43h3.36l7.56,11.07v-11.07h3.23v16.43h-3.37l-7.57-11.14v11.14h-3.21Z"/>
    <path d="M160.65,209.49c-1.33,0-2.44-.25-3.35-.74-.9-.49-1.59-1.2-2.05-2.13-.46-.93-.7-2.04-.7-3.35s.23-2.35.68-3.26c.45-.91,1.11-1.61,1.99-2.11s1.95-.74,3.23-.74c1.77,0,3.17.52,4.21,1.56,1.03,1.04,1.54,2.52,1.54,4.44,0,.1,0,.23-.01.4,0,.17-.02.29-.04.38h-8.36c.02.56.12,1.09.31,1.57s.5.88.91,1.18c.42.3.96.45,1.64.45s1.26-.15,1.68-.46c.42-.3.64-.76.65-1.36h3.19c-.04.93-.3,1.7-.76,2.32-.47.62-1.11,1.08-1.92,1.38-.81.31-1.76.46-2.84.46ZM157.83,201.9h5.16c-.03-.83-.27-1.45-.74-1.86s-1.07-.62-1.8-.62-1.36.21-1.84.63c-.48.42-.74,1.04-.79,1.84Z"/>
    <path d="M174.48,209.47c-1.2,0-2.26-.24-3.17-.72-.91-.48-1.61-1.18-2.11-2.09-.5-.91-.74-2.01-.74-3.31s.25-2.44.74-3.36c.5-.92,1.2-1.63,2.11-2.11.91-.48,1.96-.73,3.17-.73s2.29.24,3.19.73c.91.48,1.61,1.19,2.12,2.11s.76,2.04.76,3.36-.25,2.4-.76,3.31-1.21,1.61-2.12,2.09c-.91.48-1.97.72-3.19.72ZM174.48,207c.71,0,1.26-.17,1.67-.49.4-.33.69-.77.85-1.33.17-.55.25-1.16.25-1.83s-.08-1.31-.25-1.87c-.17-.56-.45-1.01-.85-1.34-.4-.33-.96-.5-1.67-.5s-1.23.17-1.63.5c-.4.33-.67.78-.84,1.34-.16.56-.24,1.18-.24,1.87s.08,1.28.24,1.83c.16.55.44,1,.84,1.33.39.33.94.49,1.63.49Z"/>
    <path d="M183.64,209.27v-16.43h3.36l7.56,11.07v-11.07h3.23v16.43h-3.37l-7.57-11.14v11.14h-3.21Z"/>
    <path d="M206.96,209.49c-1.33,0-2.44-.25-3.35-.74-.9-.49-1.59-1.2-2.05-2.13-.46-.93-.7-2.04-.7-3.35s.23-2.35.68-3.26c.45-.91,1.11-1.61,1.99-2.11s1.95-.74,3.23-.74c1.77,0,3.17.52,4.21,1.56,1.03,1.04,1.54,2.52,1.54,4.44,0,.1,0,.23-.01.4,0,.17-.02.29-.04.38h-8.36c.02.56.12,1.09.31,1.57s.5.88.91,1.18c.42.3.96.45,1.64.45s1.26-.15,1.68-.46c.42-.3.64-.76.65-1.36h3.19c-.04.93-.3,1.7-.76,2.32-.47.62-1.11,1.08-1.92,1.38-.81.31-1.76.46-2.84.46ZM204.14,201.9h5.16c-.03-.83-.27-1.45-.74-1.86s-1.07-.62-1.8-.62-1.36.21-1.84.63c-.48.42-.74,1.04-.79,1.84Z"/>
    <path d="M215.38,213.64v-16.28h3.05l.18,1.82c.44-.64.97-1.14,1.59-1.48.62-.35,1.35-.52,2.2-.52.93,0,1.75.22,2.47.67.72.45,1.29,1.13,1.7,2.04.41.91.62,2.08.62,3.5s-.22,2.51-.67,3.41c-.44.9-1.04,1.57-1.8,2.01-.76.45-1.61.68-2.55.68-.77,0-1.46-.15-2.07-.48-.61-.33-1.1-.78-1.48-1.37v5.99h-3.24ZM221.36,207.01c.81,0,1.44-.31,1.87-.94.43-.63.65-1.53.65-2.72,0-1.26-.2-2.2-.6-2.81-.4-.61-.95-.92-1.65-.92s-1.36.21-1.88.62c-.52.41-.9.86-1.12,1.35v3.52c.26.52.62.97,1.09,1.34.47.38,1.02.56,1.65.56Z"/>
    <path d="M230.04,209.27v-16.43h3.17v6.3c.4-.51.92-.97,1.58-1.36.65-.39,1.49-.59,2.51-.59,1.24,0,2.19.36,2.85,1.09s1,1.81,1,3.24v7.75h-3.23v-7.35c0-.42-.06-.8-.18-1.12s-.31-.58-.57-.76-.61-.27-1.04-.27c-.64,0-1.19.15-1.65.45-.46.3-.86.67-1.2,1.1v7.95h-3.24Z"/>
    <path d="M249.92,209.47c-1.2,0-2.26-.24-3.17-.72-.91-.48-1.61-1.18-2.11-2.09-.5-.91-.74-2.01-.74-3.31s.25-2.44.74-3.36c.5-.92,1.2-1.63,2.11-2.11.91-.48,1.96-.73,3.17-.73s2.29.24,3.19.73c.91.48,1.61,1.19,2.12,2.11s.76,2.04.76,3.36-.25,2.4-.76,3.31-1.21,1.61-2.12,2.09c-.91.48-1.97.72-3.19.72ZM249.92,207c.71,0,1.26-.17,1.67-.49.4-.33.69-.77.85-1.33.17-.55.25-1.16.25-1.83s-.08-1.31-.25-1.87c-.17-.56-.45-1.01-.85-1.34-.4-.33-.96-.5-1.67-.5s-1.23.17-1.63.5c-.4.33-.67.78-.84,1.34-.16.56-.24,1.18-.24,1.87s.08,1.28.24,1.83c.16.55.44,1,.84,1.33.39.33.94.49,1.63.49Z"/>
    <path d="M263.42,209.49c-.66,0-1.31-.06-1.94-.18-.63-.12-1.21-.33-1.72-.63s-.92-.7-1.22-1.21-.45-1.15-.45-1.92h3c0,.67.23,1.13.7,1.39.47.26,1.02.39,1.64.39s1.1-.1,1.44-.3c.34-.2.51-.54.51-1.01,0-.45-.2-.78-.6-1-.4-.22-1.11-.44-2.12-.67-.85-.2-1.6-.45-2.26-.74-.66-.29-1.18-.67-1.56-1.16-.38-.48-.56-1.12-.56-1.91,0-.62.14-1.14.43-1.57s.67-.78,1.14-1.04c.48-.26,1.01-.46,1.61-.58.6-.12,1.21-.18,1.84-.18s1.21.06,1.79.18c.59.12,1.11.33,1.59.62.47.29.85.68,1.14,1.17s.43,1.1.43,1.83h-3c0-.61-.19-1.03-.58-1.27-.39-.24-.84-.35-1.36-.35-.56,0-1,.08-1.32.24-.32.16-.48.43-.48.81,0,.22.1.41.3.58.2.17.53.32.98.46.45.14,1.04.29,1.77.46.77.18,1.46.41,2.08.7s1.09.67,1.45,1.15c.36.48.54,1.1.54,1.87,0,.72-.15,1.32-.43,1.82-.29.5-.68.9-1.16,1.2-.48.31-1.04.53-1.66.67-.62.14-1.27.21-1.93.21Z"/>
    <path d="M276.84,209.27v-16.43h10.74v2.84h-7.31v3.84h6.56v2.72h-6.56v7.02h-3.43Z"/>
    <path d="M295.24,209.47c-1.2,0-2.26-.24-3.17-.72-.91-.48-1.61-1.18-2.11-2.09-.5-.91-.74-2.01-.74-3.31s.25-2.44.74-3.36c.5-.92,1.2-1.63,2.11-2.11.91-.48,1.96-.73,3.17-.73s2.29.24,3.19.73c.91.48,1.61,1.19,2.12,2.11s.76,2.04.76,3.36-.25,2.4-.76,3.31-1.21,1.61-2.12,2.09c-.91.48-1.97.72-3.19.72ZM295.24,207c.71,0,1.26-.17,1.67-.49.4-.33.69-.77.85-1.33.17-.55.25-1.16.25-1.83s-.08-1.31-.25-1.87c-.17-.56-.45-1.01-.85-1.34-.4-.33-.96-.5-1.67-.5s-1.23.17-1.63.5c-.4.33-.67.78-.84,1.34-.16.56-.24,1.18-.24,1.87s.08,1.28.24,1.83c.16.55.44,1,.84,1.33.39.33.94.49,1.63.49Z"/>
    <path d="M307.63,209.43c-1.21,0-2.14-.37-2.8-1.12-.66-.75-.99-1.8-.99-3.18v-7.78h3.24v7.38c0,.41.06.77.18,1.08s.31.56.59.73c.27.17.63.26,1.08.26.65,0,1.21-.14,1.67-.43.46-.29.86-.64,1.2-1.06v-7.96h3.23v11.91h-3.12l-.05-1.79c-.4.5-.94.96-1.63,1.36-.69.4-1.55.6-2.59.6Z"/>
    <path d="M318.49,209.27v-11.91h3.11l.06,1.78c.4-.51.92-.97,1.58-1.36.65-.39,1.5-.59,2.54-.59,1.21,0,2.15.37,2.82,1.1.67.74,1,1.81,1,3.23v7.75h-3.21v-7.34c0-.43-.06-.81-.18-1.14s-.32-.58-.58-.76-.61-.27-1.04-.27c-.64,0-1.19.15-1.65.45-.46.3-.86.67-1.2,1.1v7.95h-3.24Z"/>
    <path d="M337.07,209.48c-.9,0-1.7-.22-2.41-.67s-1.27-1.13-1.68-2.06-.62-2.1-.62-3.52.22-2.51.67-3.41,1.04-1.56,1.8-2,1.61-.66,2.55-.66c.83,0,1.54.17,2.14.51s1.07.79,1.42,1.34v-6.18h3.24v16.43h-3.1l-.13-1.7c-.42.59-.95,1.05-1.58,1.39-.63.34-1.39.51-2.28.51ZM338.02,207.01c.68,0,1.27-.19,1.77-.57.5-.38.88-.83,1.14-1.34v-3.48c-.25-.54-.61-1-1.06-1.4-.46-.4-1.02-.6-1.69-.6-.8,0-1.42.31-1.86.93-.44.62-.66,1.51-.66,2.69,0,1.29.21,2.24.63,2.86.42.62,1,.93,1.73.93Z"/>
    <path d="M350.86,209.48c-.68,0-1.31-.13-1.89-.39-.59-.26-1.06-.65-1.42-1.18-.36-.52-.54-1.18-.54-1.97,0-1.1.33-1.93.99-2.48.66-.56,1.58-.94,2.77-1.14,1.18-.2,2.56-.32,4.13-.35v-.63c0-.77-.19-1.3-.56-1.59s-.85-.43-1.43-.43c-.64,0-1.17.15-1.59.46-.41.31-.62.8-.62,1.48h-3.03c0-1.02.22-1.82.67-2.42s1.06-1.02,1.84-1.28c.79-.26,1.69-.39,2.73-.39.76,0,1.45.06,2.07.19.63.13,1.17.34,1.63.65s.82.73,1.07,1.26.38,1.2.38,2v8h-3.03l-.1-1.55c-.5.58-1.09,1.02-1.76,1.31-.67.3-1.44.45-2.31.45ZM351.93,207.26c.61,0,1.17-.16,1.69-.48.52-.32.93-.68,1.24-1.09v-1.93c-1.71,0-2.91.17-3.59.48-.68.31-1.03.82-1.03,1.52,0,.5.16.88.47,1.12.31.24.72.37,1.21.37Z"/>
    <path d="M366.34,209.27c-1.21,0-2.14-.14-2.8-.43-.66-.29-1.12-.74-1.39-1.34-.26-.61-.39-1.4-.39-2.37v-5.27h-1.98v-2.49h1.98v-2.81h3.23v2.81h2.6v2.49h-2.6v5.08c0,.63.09,1.09.26,1.39s.57.45,1.19.45h1.15v2.5h-1.26Z"/>
    <path d="M371.76,195.79c-.59,0-1.05-.15-1.36-.45-.31-.3-.47-.68-.47-1.12s.16-.83.47-1.13c.31-.3.77-.45,1.36-.45s1.05.15,1.36.45c.31.3.47.67.47,1.13s-.16.82-.47,1.12c-.31.3-.77.45-1.36.45ZM370.14,209.27v-11.91h3.24v11.91h-3.24Z"/>
    <path d="M382.25,209.47c-1.2,0-2.26-.24-3.17-.72-.91-.48-1.61-1.18-2.11-2.09-.5-.91-.74-2.01-.74-3.31s.25-2.44.74-3.36c.5-.92,1.2-1.63,2.11-2.11.91-.48,1.96-.73,3.17-.73s2.29.24,3.19.73c.91.48,1.61,1.19,2.12,2.11s.76,2.04.76,3.36-.25,2.4-.76,3.31-1.21,1.61-2.12,2.09c-.91.48-1.97.72-3.19.72ZM382.25,207c.71,0,1.26-.17,1.67-.49.4-.33.69-.77.85-1.33.17-.55.25-1.16.25-1.83s-.08-1.31-.25-1.87c-.17-.56-.45-1.01-.85-1.34-.4-.33-.96-.5-1.67-.5s-1.23.17-1.63.5c-.4.33-.67.78-.84,1.34-.16.56-.24,1.18-.24,1.87s.08,1.28.24,1.83c.16.55.44,1,.84,1.33.39.33.94.49,1.63.49Z"/>
    <path d="M391.17,209.27v-11.91h3.11l.06,1.78c.4-.51.92-.97,1.58-1.36.65-.39,1.5-.59,2.54-.59,1.21,0,2.15.37,2.82,1.1.67.74,1,1.81,1,3.23v7.75h-3.21v-7.34c0-.43-.06-.81-.18-1.14s-.32-.58-.58-.76-.61-.27-1.04-.27c-.64,0-1.19.15-1.65.45-.46.3-.86.67-1.2,1.1v7.95h-3.24Z"/>
    <path d="M407.59,209.44c-.62,0-1.12-.19-1.51-.58-.39-.39-.58-.86-.58-1.41,0-.59.19-1.07.58-1.43.39-.36.89-.54,1.51-.54s1.12.18,1.49.54c.37.36.56.84.56,1.43,0,.55-.19,1.02-.56,1.41-.38.39-.87.58-1.49.58ZM406.7,203.69c-.16-.84-.33-1.86-.51-3.05-.17-1.2-.26-2.47-.26-3.82v-3.98h3.32v3.98c0,1.36-.09,2.63-.26,3.82-.18,1.19-.35,2.21-.53,3.05h-1.76Z"/>
  </g>
  <line x1="5.13" y1="112.32" x2="646.85" y2="112.32" fill="none" stroke="#000" stroke-miterlimit="10"/>
  <g id="c" data-name="a">
    <circle cx="64.46" cy="334.75" r="5.47" fill="url(#d)"/>
    <circle cx="141.29" cy="334.75" r="5.47" fill="url(#e)"/>
  </g>
  <g id="f" data-name="d">
    <g>
      <polygon points="92.63 324.32 98.18 314.72 98.18 314.72 92.63 324.32" fill="url(#g)"/>
      <path d="M102.32,314.71l-5.55,9.61h45c3.08,0,5.84,1.42,7.64,3.65l-7.66-13.26h-39.44,0Z" fill="url(#h)"/>
      <path d="M143.71,344.02c-.63.13-1.27.19-1.93.19h-1.22c1.05.11,2.11.04,3.16-.19Z" fill="#3771c8"/>
      <path d="M145.83,353.39c-.08.02-.14.03-.22.04.08-.01.14-.03.22-.04Z" fill="#3771c8"/>
      <path d="M124.73,344.21h-43.59l-.04.07c-3.13,5.42-8.5,8.76-14.27,9.54h73.35c-6.21-.44-12.09-3.84-15.45-9.61h0Z" fill="url(#i)"/>
      <path d="M64.12,324.32h13.28l5.55-9.61h-18.83l-7.73,13.39c1.8-2.3,4.6-3.78,7.74-3.78h0Z" fill="url(#j)"/>
      <polygon points="81.55 324.32 92.63 324.32 98.17 314.71 87.09 314.71 81.55 324.32" fill="url(#k)"/>
      <path d="M81.1,344.28l.04-.07h-15.04c-2.23.43-4.62.09-6.74-1.14l-.21-.13c-2.27-1.31-3.9-3.43-4.58-5.97-.41-1.53-.45-3.09-.12-4.59.29-1.6.97-3.07,1.93-4.3l7.73-13.39c-6.5,0-12.27,3.22-15.8,8.15l-1.08,1.87c-1.04,1.8-1.77,3.72-2.19,5.7-.23,1.2-.36,2.45-.36,3.72v.24c0,10.71,8.72,19.43,19.43,19.43h2.72c5.77-.77,11.14-4.12,14.27-9.54h0Z" fill="#3771c8"/>
      <path d="M110.54,274.09l-5.53,9.58,5.55,9.61,9.38-16.25s.03-.04.03-.06l-1.66-2.87s-7.78,0-7.78,0Z" fill="url(#l)"/>
      <path d="M145.94,353.37s-.08.02-.11.03c.04,0,.08-.02.11-.03Z" fill="url(#m)"/>
      <path d="M151.61,334.39v-.24c0-2.33-.82-4.48-2.19-6.17l.83,1.44c2.71,4.69,1.1,10.71-3.6,13.42l-.21.12c-.87.5-1.79.86-2.72,1.07,4.49-.9,7.89-4.88,7.89-9.63h0Z" fill="url(#n)"/>
      <path d="M151.46,351.15c9.28-5.36,12.47-17.26,7.11-26.55l-1.12-1.94c-3.54-4.81-9.24-7.95-15.66-7.95h-.02l7.66,13.26c1.37,1.69,2.19,3.83,2.19,6.17v.24c0,4.76-3.4,8.73-7.89,9.63-1.05.24-2.11.29-3.16.19h-15.83c3.36,5.77,9.24,9.17,15.45,9.61h1.6c1.31,0,2.59-.13,3.83-.38.08-.01.14-.03.22-.04.04,0,.08-.02.11-.03,1.82-.42,3.6-1.12,5.3-2.1l.21-.12h0Z" fill="#3771c8"/>
      <path d="M111.02,261.53c.14.2.27.41.39.62l.65,1.12c-.28-.62-.62-1.2-1.01-1.74h-.03,0Z" fill="#00baff"/>
      <polygon points="108.47 296.87 102.93 287.26 97.42 296.81 102.96 306.42 108.47 296.87" fill="url(#o)"/>
      <path d="M149.08,261.53h-72.92c-.21,0-.42.02-.63.05-.25-1.42-1.47-2.5-2.95-2.55-2.55-4.59-7.44-7.69-13.06-7.69-8.25,0-14.94,6.69-14.94,14.94s6.69,14.94,14.94,14.94c5.64,0,10.54-3.13,13.09-7.73,1.63-.07,2.92-1.38,2.97-3.01.19.03.38.04.58.04h58.95v8.89h4.34v-5.2h4.47v5.2h4.34v-8.89h.8c2.48,0,4.49-2.01,4.49-4.49s-2.01-4.49-4.49-4.49h0ZM59.47,273.97c-4.25,0-7.71-3.45-7.71-7.71s3.45-7.71,7.71-7.71,7.71,3.45,7.71,7.71-3.45,7.71-7.71,7.71Z" fill="url(#p)"/>
      <path d="M85.87,276.9l.04.06,7.53-13.05c.75-2.13,2.23-4.03,4.35-5.25l.21-.12c1.54-.89,3.23-1.31,4.9-1.31,1.25,0,2.48.24,3.63.7h13.55l-.34-.59c-.59-1.02-1.26-1.96-1.99-2.82-1.39-1.59-3.04-2.96-4.92-4.04l-.21-.13c-9.28-5.36-21.19-2.17-26.55,7.11l-1.3,2.25c-2.24,5.4-2.04,11.74,1.1,17.18h0Z" fill="url(#q)"/>
      <path d="M94.18,272.1c-1.49-2.58-1.67-5.57-.75-8.18.75-2.13,2.23-4.03,4.35-5.25l.21-.12c1.54-.89,3.23-1.31,4.9-1.31,1.25,0,2.48.24,3.63.7h13.55l-.34-.59c-.59-1.02-1.26-1.96-1.99-2.82-1.39-1.59-3.04-2.96-4.92-4.04l-.21-.13c-9.28-5.36-21.19-2.17-26.55,7.11l-1.3,2.25c-2.24,5.4-2.04,11.74,1.1,17.18l.04.06,10.69,18.53,9.02,15.63h11.09l-14.87-25.76-7.66-13.27h0Z" fill="url(#r)"/>
      <path d="M118.31,274.09l1.66,2.87c.53-.93.98-1.89,1.35-2.87h-3.01Z" fill="url(#s)"/>
      <path d="M158.57,324.61l-1.12-1.94-28.04-48.57h-11.09l1.66,2.87c.26-.46.51-.94.73-1.41-.23.48-.47.95-.73,1.41l21.8,37.75,7.66,13.26c1.37,1.69,2.19,3.83,2.19,6.17v.24c0,4.76-3.4,8.73-7.89,9.63-1.05.24-2.11.29-3.16.19-3.04-.31-5.9-2.01-7.54-4.86l-6.61-11.44h-11.09l9.38,16.25s.03.04.03.06c3.36,5.77,9.24,9.17,15.45,9.61h1.6c1.31,0,2.59-.13,3.83-.38.08-.01.14-.03.22-.04.04,0,.08-.02.11-.03,1.82-.42,3.6-1.12,5.3-2.1l.21-.12c9.28-5.36,12.47-17.26,7.11-26.55h-.01Z" fill="url(#t)"/>
      <path d="M95.34,300.41l-22.56,39.07c-1.49,2.57-3.97,4.22-6.68,4.73-2.23.43-4.62.09-6.74-1.14l-.21-.13c-2.27-1.31-3.9-3.43-4.58-5.97-.41-1.53-.45-3.09-.12-4.59.29-1.6.97-3.07,1.93-4.3l7.73-13.39,21.8-37.75-.04-.06c-3.14-5.44-3.34-11.78-1.1-17.18l-36.45,63.13-1.08,1.87c-1.04,1.8-1.77,3.72-2.19,5.7-.23,1.2-.36,2.45-.36,3.72v.24c0,10.71,8.72,19.43,19.43,19.43h2.72c5.77-.77,11.14-4.12,14.27-9.54l.04-.07,11.48-19.89,5.55-9.61,2.71-4.7-5.55-9.61h.01Z" fill="url(#u)"/>
    </g>
    <path d="M285.16,318.37c1.54,0,2.91.36,4.12,1.08,1.2.72,2.14,1.78,2.8,3.16h8.85c-.94-3.58-2.81-6.4-5.6-8.47-2.79-2.07-6.15-3.11-10.07-3.11-3.2,0-6.06.72-8.59,2.14-2.53,1.43-4.49,3.42-5.91,5.98s-2.12,5.47-2.12,8.73.7,6.17,2.12,8.71c1.41,2.54,3.38,4.52,5.91,5.96s5.39,2.14,8.59,2.14c3.92,0,7.28-1.03,10.07-3.08,2.79-2.05,4.66-4.87,5.6-8.45h-8.85c-.66,1.38-1.59,2.44-2.8,3.16s-2.58,1.08-4.12,1.08c-2.48,0-4.49-.87-6.02-2.59-1.54-1.73-2.3-4.03-2.3-6.92s.77-5.19,2.3-6.92,3.55-2.59,6.02-2.59h0ZM259.18,269.2c-1.98-1.07-4.24-1.6-6.78-1.6s-4.91.55-6.92,1.64c-2.01,1.1-3.57,2.67-4.68,4.71-1.12,2.04-1.67,4.42-1.67,7.15s.56,5.11,1.69,7.15c1.13,2.04,2.7,3.61,4.71,4.71s4.3,1.64,6.87,1.64c2.13,0,4.06-.39,5.79-1.18,1.73-.78,3.16-1.86,4.31-3.24,1.14-1.38,1.94-2.93,2.38-4.66h-8.57c-.78,1.69-2.18,2.54-4.19,2.54-1.35,0-2.49-.43-3.41-1.29-.93-.86-1.45-2.11-1.58-3.74h18.22c.09-.82.14-1.6.14-2.35,0-2.64-.56-4.95-1.67-6.92-1.12-1.98-2.66-3.5-4.64-4.57h0ZM247.18,278.57c.22-1.44.79-2.56,1.72-3.35.92-.78,2.06-1.18,3.41-1.18s2.59.41,3.53,1.22,1.41,1.91,1.41,3.29h-10.07ZM277.54,279.98c0-1.76.45-3.12,1.37-4.1.91-.97,2.13-1.46,3.67-1.46s2.76.49,3.67,1.46c.91.97,1.37,2.34,1.37,4.1v14.26h8v-15.34c0-3.48-.92-6.22-2.76-8.22-1.83-1.99-4.29-2.99-7.37-2.99-1.73,0-3.28.34-4.66,1.01-1.38.68-2.48,1.59-3.29,2.76v-3.48h-8.05v26.26h8.05s0-14.26,0-14.26ZM244.07,334.62l-6.07-16.42h-8.99l10.69,25.37-6.02,13.37h8.66l16.47-38.73h-8.71l-6.02,16.42h0ZM201.71,311.41h-9.46l-11.01,14.5v-14.5h-8.05v33.04h8.05v-14.59l11.11,14.59h9.83l-13.27-16.85,12.8-16.19ZM180.27,292.41c2.59,1.44,5.43,2.17,8.54,2.17s5.94-.72,8.52-2.17c2.57-1.44,4.61-3.46,6.12-6.05s2.26-5.5,2.26-8.73-.75-6.14-2.23-8.71-3.53-4.58-6.12-6.02c-2.59-1.44-5.43-2.17-8.54-2.17s-5.96.72-8.54,2.17-4.64,3.45-6.17,6.02c-1.53,2.57-2.28,5.48-2.28,8.71s.76,6.14,2.28,8.73c1.52,2.59,3.58,4.61,6.17,6.05h0ZM182.43,270.61c1.58-1.73,3.71-2.59,6.38-2.59s4.74.87,6.33,2.61c1.58,1.74,2.38,4.07,2.38,6.99s-.79,5.21-2.38,6.97c-1.59,1.76-3.7,2.64-6.33,2.64s-4.79-.87-6.38-2.61c-1.59-1.74-2.38-4.07-2.38-6.99s.79-5.28,2.38-7.02ZM222.61,319.41c-1.98-1.07-4.24-1.6-6.78-1.6s-4.91.55-6.92,1.64c-2.01,1.1-3.57,2.67-4.68,4.71-1.12,2.04-1.67,4.42-1.67,7.15s.56,5.11,1.69,7.15c1.13,2.04,2.7,3.61,4.71,4.71s4.3,1.64,6.87,1.64c2.13,0,4.06-.39,5.79-1.18,1.73-.78,3.16-1.86,4.31-3.24,1.14-1.38,1.94-2.93,2.38-4.66h-8.57c-.78,1.69-2.18,2.54-4.19,2.54-1.35,0-2.49-.43-3.41-1.29s-1.45-2.11-1.58-3.74h18.22c.09-.82.14-1.6.14-2.35,0-2.64-.56-4.95-1.67-6.92-1.12-1.98-2.66-3.5-4.64-4.57h0ZM210.61,328.78c.22-1.44.79-2.56,1.72-3.35.92-.78,2.06-1.18,3.41-1.18s2.59.41,3.53,1.22,1.41,1.91,1.41,3.29h-10.07ZM217.05,290.57c.78,1.19,1.88,2.17,3.27,2.92,1.39.75,3.01,1.13,4.83,1.13,2.17,0,4.12-.56,5.89-1.67,1.76-1.11,3.14-2.7,4.17-4.76,1.02-2.05,1.53-4.43,1.53-7.13s-.51-5.06-1.53-7.11c-1.02-2.04-2.41-3.61-4.17-4.71-1.76-1.1-3.72-1.64-5.89-1.64-1.85,0-3.47.38-4.84,1.13-1.38.75-2.47,1.74-3.25,2.97v-3.72h-8.05v38.78h8.05v-16.19h0ZM218.68,276.36c1.11-1.16,2.47-1.74,4.07-1.74s3.01.57,4.12,1.72,1.67,2.72,1.67,4.73-.56,3.6-1.69,4.78-2.5,1.76-4.1,1.76-2.96-.58-4.07-1.74-1.67-2.75-1.67-4.76.56-3.59,1.67-4.76h0ZM372.89,306.75c-1.41,0-2.57.41-3.46,1.25-.9.83-1.34,1.88-1.34,3.13s.45,2.25,1.34,3.08c.89.83,2.05,1.25,3.46,1.25s2.52-.41,3.41-1.25c.9-.83,1.34-1.86,1.34-3.08s-.45-2.3-1.34-3.13c-.89-.83-2.03-1.25-3.41-1.25ZM579.71,321.91c-.75-1.22-1.83-2.22-3.23-2.97-1.4-.75-3.02-1.13-4.87-1.13-2.17,0-4.13.55-5.89,1.64-1.76,1.1-3.14,2.67-4.17,4.71-1.02,2.04-1.53,4.41-1.53,7.11s.51,5.08,1.53,7.13c1.02,2.06,2.41,3.64,4.17,4.76s3.72,1.67,5.89,1.67c1.85,0,3.46-.38,4.85-1.15,1.38-.77,2.46-1.76,3.24-2.99v3.72c0,2.1-.5,3.63-1.48,4.59-.99.95-2.32,1.44-3.98,1.44-1.38,0-2.54-.29-3.48-.87s-1.54-1.37-1.79-2.38h-7.95c.35,3.14,1.73,5.62,4.14,7.46,2.42,1.83,5.57,2.76,9.46,2.76,2.92,0,5.36-.58,7.32-1.74s3.42-2.72,4.37-4.68c.95-1.96,1.44-4.15,1.44-6.56v-26.21h-8.05v3.72h0ZM578.04,336.07c-1.12,1.16-2.47,1.74-4.07,1.74s-2.96-.59-4.07-1.76c-1.12-1.18-1.67-2.77-1.67-4.78s.56-3.58,1.67-4.73c1.11-1.15,2.47-1.72,4.07-1.72s2.96.58,4.07,1.74c1.11,1.16,1.67,2.75,1.67,4.76s-.56,3.6-1.67,4.76h0ZM514.43,317.9c-1.73,0-3.28.34-4.66,1.01-1.38.68-2.48,1.59-3.29,2.76v-3.48h-8.05v26.26h8.05v-14.26c0-1.76.45-3.12,1.37-4.1.91-.97,2.13-1.46,3.67-1.46s2.76.49,3.67,1.46c.91.97,1.37,2.34,1.37,4.1v14.26h8v-15.34c0-3.48-.92-6.22-2.76-8.22-1.83-1.99-4.29-2.99-7.37-2.99h0ZM321.78,317.9c-1.76,0-3.34.35-4.76,1.04-1.41.69-2.53,1.62-3.34,2.78v-12.1h-8.05v34.83h8.05v-14.26c0-1.76.45-3.12,1.37-4.1.91-.97,2.13-1.46,3.67-1.46s2.76.49,3.67,1.46,1.37,2.34,1.37,4.1v14.26h8v-15.34c0-3.48-.91-6.22-2.73-8.22-1.82-1.99-4.24-2.99-7.25-2.99h0ZM633.7,319.15c-1.41.83-2.59,1.97-3.53,3.41v-4.37h-8.05v26.26h8.05v-12.19c0-2.17.5-3.68,1.51-4.54,1-.87,2.51-1.29,4.52-1.29h2.21v-8.52c-1.73,0-3.29.41-4.71,1.25h0ZM611.81,319.41c-1.98-1.07-4.24-1.6-6.78-1.6s-4.91.55-6.92,1.64c-2.01,1.1-3.57,2.67-4.68,4.71-1.12,2.04-1.67,4.42-1.67,7.15s.56,5.11,1.69,7.15,2.7,3.61,4.71,4.71,4.3,1.64,6.87,1.64c2.13,0,4.06-.39,5.79-1.18,1.73-.78,3.16-1.86,4.31-3.24s1.94-2.93,2.38-4.66h-8.57c-.78,1.69-2.18,2.54-4.19,2.54-1.35,0-2.49-.43-3.41-1.29s-1.45-2.11-1.58-3.74h18.22c.09-.82.14-1.6.14-2.35,0-2.64-.56-4.95-1.67-6.92-1.12-1.98-2.66-3.5-4.64-4.57h0ZM599.81,328.78c.22-1.44.79-2.56,1.72-3.35.92-.78,2.06-1.18,3.41-1.18s2.59.41,3.53,1.22,1.41,1.91,1.41,3.29h-10.07ZM547.99,321.91c-.75-1.22-1.83-2.22-3.23-2.97-1.4-.75-3.02-1.13-4.87-1.13-2.17,0-4.13.55-5.89,1.64-1.76,1.1-3.14,2.67-4.17,4.71-1.02,2.04-1.53,4.41-1.53,7.11s.51,5.08,1.53,7.13c1.02,2.06,2.41,3.64,4.17,4.76s3.7,1.67,5.84,1.67c1.85,0,3.48-.38,4.87-1.13,1.39-.75,2.49-1.74,3.27-2.96v3.72h8.05v-26.26h-8.05v3.72h0ZM546.32,336.07c-1.12,1.16-2.47,1.74-4.07,1.74s-2.96-.59-4.07-1.76c-1.12-1.18-1.67-2.77-1.67-4.78s.56-3.58,1.67-4.73c1.11-1.15,2.47-1.72,4.07-1.72s2.96.58,4.07,1.74c1.11,1.16,1.67,2.75,1.67,4.76s-.56,3.6-1.67,4.76h0ZM484.78,321.91c-.75-1.22-1.83-2.22-3.23-2.97-1.4-.75-3.02-1.13-4.87-1.13-2.17,0-4.13.55-5.89,1.64-1.76,1.1-3.14,2.67-4.17,4.71-1.02,2.04-1.53,4.41-1.53,7.11s.51,5.08,1.53,7.13c1.02,2.06,2.41,3.64,4.17,4.76s3.7,1.67,5.84,1.67c1.85,0,3.48-.38,4.87-1.13,1.39-.75,2.49-1.74,3.27-2.96v3.72h8.05v-26.26h-8.05v3.72h0ZM483.1,336.07c-1.12,1.16-2.47,1.74-4.07,1.74s-2.96-.59-4.07-1.76c-1.12-1.18-1.67-2.77-1.67-4.78s.56-3.58,1.67-4.73c1.11-1.15,2.47-1.72,4.07-1.72s2.96.58,4.07,1.74c1.11,1.16,1.67,2.75,1.67,4.76s-.56,3.6-1.67,4.76h0ZM368.84,344.45h8.05v-26.26h-8.05v26.26ZM355.2,321.91c-.75-1.22-1.83-2.22-3.23-2.97-1.4-.75-3.02-1.13-4.87-1.13-2.17,0-4.13.55-5.89,1.64-1.76,1.1-3.14,2.67-4.17,4.71-1.02,2.04-1.53,4.41-1.53,7.11s.51,5.08,1.53,7.13c1.02,2.06,2.41,3.64,4.17,4.76,1.76,1.12,3.7,1.67,5.84,1.67,1.85,0,3.48-.38,4.87-1.13s2.49-1.74,3.27-2.96v3.72h8.05v-26.26h-8.05v3.72h0ZM353.52,336.07c-1.12,1.16-2.47,1.74-4.07,1.74s-2.96-.59-4.07-1.76c-1.12-1.18-1.67-2.77-1.67-4.78s.56-3.58,1.67-4.73c1.11-1.15,2.47-1.72,4.07-1.72s2.96.58,4.07,1.74c1.11,1.16,1.67,2.75,1.67,4.76s-.56,3.6-1.67,4.76h0ZM442.51,334.28l-9.28-22.88h-9.51v33.04h8.05v-19.86l7.44,19.86h6.5l7.39-19.82v19.82h8.05v-33.04h-9.46l-9.18,22.88h0ZM398.5,317.9c-1.73,0-3.28.34-4.66,1.01-1.38.68-2.48,1.59-3.29,2.76v-3.48h-8.05v26.26h8.05v-14.26c0-1.76.45-3.12,1.37-4.1.91-.97,2.13-1.46,3.67-1.46s2.76.49,3.67,1.46c.91.97,1.37,2.34,1.37,4.1v14.26h8v-15.34c0-3.48-.92-6.22-2.76-8.22-1.83-1.99-4.29-2.99-7.37-2.99h0Z" fill="url(#v)"/>
  </g>
</svg>