<?xml version="1.0" encoding="UTF-8"?>
<svg id="Layer_1" data-name="Layer 1" xmlns="http://www.w3.org/2000/svg" width="900" height="1100" xmlns:xlink="http://www.w3.org/1999/xlink" viewBox="0 0 900 1100">
  <defs>
    <linearGradient id="linear-gradient" x1="0" y1="1092.6" x2="900" y2="1092.6" gradientUnits="userSpaceOnUse">
      <stop offset="0" stop-color="#0f6bff"/>
      <stop offset="1" stop-color="#000025"/>
    </linearGradient>
    <clipPath id="clippath">
      <rect x="308.61" y="587.17" width="24.19" height="27.29" fill="none"/>
    </clipPath>
    <clipPath id="clippath-1">
      <rect x="300.55" y="544.44" width="30.64" height="29.83" fill="none"/>
    </clipPath>
    <clipPath id="clippath-2">
      <rect x="569.86" y="561.37" width="17.64" height="16.13" fill="none"/>
    </clipPath>
    <clipPath id="clippath-3">
      <rect x="354.05" y="650.89" width="175.06" height="31.39" fill="none"/>
    </clipPath>
    <clipPath id="clippath-4">
      <rect x="80.93" y="419.49" width="93.83" height="94.15" fill="none"/>
    </clipPath>
    <clipPath id="clippath-5">
      <rect x="80.93" y="465.26" width="93.83" height="94.28" fill="none"/>
    </clipPath>
    <clipPath id="clippath-6">
      <rect x="773.06" y="468.48" width="28.61" height="40.32" fill="none"/>
    </clipPath>
  </defs>
  <rect x="0" y=".02" width="899.63" height="1092.58" fill="#e07260"/>
  <path d="M119.97,37.18c-5.18,0-9.79,2.35-12.9,5.99-.28-.36-.61-.69-.93-1.01-.97-.97-2.06-1.82-3.2-2.51-2.67-1.62-5.74-2.43-8.78-2.47h0c-4.33,0-8.7,1.66-11.97,4.98-3.32,3.32-4.98,7.64-4.98,11.97,0,3.03.81,6.11,2.43,8.78.69,1.13,1.54,2.22,2.51,3.2.97.97,2.06,1.82,3.2,2.51,6.51,3.96,15.17,3.11,20.79-2.51.32-.32.65-.69.93-1.01,3.11,3.64,7.73,5.99,12.9,5.99,9.34,0,16.95-7.6,16.95-16.95,0-9.34-7.6-16.95-16.95-16.95h0ZM85.27,54.13c0-2.27.85-4.53,2.59-6.27,1.74-1.74,4-2.59,6.27-2.59h0c.93,0,1.86.16,2.75.44l-7,7-4.17,4.17c-.28-.89-.44-1.82-.44-2.75ZM100.43,60.4c-2.43,2.43-5.95,3.15-9.02,2.18l4.33-4.33,6.84-6.84.81-.81c-.24,1.13-.36,2.35-.36,3.56,0,2.27-.85,4.53-2.59,6.27v-.04ZM119.97,63.03c-4.89,0-8.9-3.96-8.9-8.9,0-4.93,3.96-8.9,8.9-8.9,4.93,0,8.9,3.96,8.9,8.9,0,4.93-3.96,8.9-8.9,8.9Z" fill="#333"/>
  <polygon points="63.99 51.26 47.33 25.41 37.62 25.41 37.62 70.79 47.33 70.79 47.33 42.4 65.49 70.79 73.74 70.79 73.74 25.41 63.99 25.41 63.99 51.26" fill="#333"/>
  <polygon points="168.91 51.26 152.25 25.41 142.54 25.41 142.54 70.79 152.25 70.79 152.25 42.4 170.41 70.79 178.62 70.79 178.62 25.41 168.91 25.41 168.91 51.26" fill="#0f6bff"/>
  <path d="M207.46,39.77c-2.43-1.5-5.22-2.22-8.33-2.22s-6.19.73-8.74,2.18c-2.55,1.46-4.53,3.48-5.95,6.03-1.42,2.55-2.14,5.42-2.14,8.53s.73,5.99,2.18,8.53c1.46,2.55,3.48,4.57,6.11,6.03s5.66,2.18,9.14,2.18,5.78-.57,8.13-1.74c2.35-1.13,4.29-2.79,5.78-4.98l-6.88-4.09c-.73.93-1.7,1.7-2.95,2.22-1.25.57-2.55.85-3.84.85-2.18,0-3.92-.49-5.3-1.42-1.38-.97-2.43-2.43-3.24-4.37h23.62c.16-.97.24-2.06.24-3.24,0-3.11-.69-5.95-2.02-8.49-1.38-2.55-3.28-4.57-5.7-6.07l-.12.04ZM191.2,50.49c.08-1.42.89-2.59,2.43-3.6,1.54-1.01,3.36-1.5,5.42-1.5s3.68.44,5.06,1.33,2.22,2.14,2.51,3.76h-15.45s.04,0,.04,0Z" fill="#0f6bff"/>
  <path d="M247.3,39.73c-2.43-1.46-5.34-2.18-8.74-2.18s-3.48.28-5.14.89c-1.66.57-3.2,1.42-4.65,2.51v-2.51h-9.26s0,45.38,0,45.38h9.26s0-15.37,0-15.37c1.42,1.09,2.99,1.9,4.65,2.51,1.7.57,3.4.89,5.14.89,3.36,0,6.27-.73,8.74-2.22,2.43-1.5,4.33-3.52,5.62-6.11,1.29-2.59,1.94-5.54,1.94-8.82s-.65-6.23-1.94-8.78c-1.29-2.59-3.15-4.61-5.62-6.07v-.12ZM243.26,60.52c-1.54,1.5-3.52,2.22-5.95,2.22-2.43,0-4.49-.73-6.11-2.22s-2.43-3.44-2.43-5.87.81-4.41,2.47-5.95c1.66-1.54,3.68-2.35,6.11-2.35s4.41.77,5.95,2.27c1.54,1.5,2.31,3.52,2.31,5.95s-.77,4.45-2.31,5.95h-.04Z" fill="#0f6bff"/>
  <path d="M281.12,38.92c-1.94-.81-3.8-1.21-5.66-1.21-2.75,0-5.34,1.01-7.73,2.99v-15.29s-9.26,0-9.26,0v45.38s9.26,0,9.26,0v-19.82c.24-1.78.89-3.07,1.86-3.92,1.01-.85,2.14-1.25,3.52-1.25s2.99.44,4.17,1.38c1.17.93,1.74,2.43,1.74,4.49v19.13s9.26,0,9.26,0v-19.37c-.04-3.44-.77-6.19-2.18-8.25-1.42-2.02-3.07-3.44-4.98-4.25Z" fill="#0f6bff"/>
  <path d="M317.04,39.77c-2.55-1.5-5.34-2.27-8.33-2.27s-5.87.77-8.41,2.27c-2.55,1.5-4.61,3.52-6.11,6.11-1.5,2.55-2.27,5.38-2.27,8.41s.77,5.78,2.27,8.37c1.5,2.59,3.52,4.61,6.11,6.11,2.55,1.5,5.38,2.27,8.41,2.27s5.78-.77,8.33-2.27c2.55-1.5,4.57-3.56,6.11-6.11,1.5-2.59,2.27-5.38,2.27-8.37,0-2.99-.77-5.87-2.27-8.41-1.5-2.55-3.52-4.57-6.11-6.11ZM314.08,59.71c-1.54,1.5-3.36,2.27-5.46,2.27s-3.92-.77-5.42-2.27c-1.5-1.5-2.27-3.32-2.27-5.42,0-2.1.77-3.92,2.27-5.46,1.5-1.54,3.32-2.27,5.42-2.27s3.92.77,5.46,2.27c1.54,1.54,2.27,3.36,2.27,5.46s-.77,3.92-2.27,5.42Z" fill="#0f6bff"/>
  <path d="M355.34,54.82c-1.25-1.42-2.71-2.43-4.33-3.03-1.66-.61-3.72-1.17-6.23-1.7-1.94-.36-3.36-.77-4.25-1.09-.89-.36-1.33-.89-1.33-1.62s.36-1.46,1.09-1.94c.73-.49,1.7-.73,2.91-.73s2.51.24,3.4.77c.85.53,1.54,1.29,2.06,2.35l7.36-3.6c-1.25-2.14-3.03-3.8-5.26-4.93-2.22-1.13-4.77-1.7-7.56-1.7s-4.57.4-6.55,1.21c-2.02.81-3.6,1.98-4.77,3.52-1.17,1.54-1.78,3.36-1.78,5.42,0,2.06.61,3.88,1.78,5.18,1.17,1.29,2.59,2.22,4.25,2.87,1.66.61,3.72,1.21,6.15,1.74,2.14.49,3.72.93,4.73,1.33s1.5,1.05,1.5,1.9-.53,1.74-1.62,2.27c-1.09.53-2.35.81-3.76.81-3.52,0-5.78-1.33-6.8-4.04l-7.44,3.8c1.21,2.47,3.03,4.29,5.46,5.54,2.43,1.25,5.34,1.86,8.78,1.86s4.81-.4,7-1.17c2.14-.77,3.88-1.94,5.22-3.48,1.29-1.54,1.98-3.4,1.98-5.54,0-2.14-.61-4.45-1.86-5.87l-.12-.12Z" fill="#0f6bff"/>
  <rect y="1085.2" width="900" height="14.8" fill="url(#linear-gradient)"/>
  <path d="M661.46,352.35c-7.65,0-14.37-1.41-20.18-4.24-5.8-2.83-10.34-6.95-13.61-12.37-3.27-5.42-4.91-12.02-4.91-19.79,0-5.59.93-10.62,2.79-15.09s4.49-8.28,7.9-11.45c3.41-3.16,7.44-5.59,12.09-7.28,4.65-1.69,9.77-2.53,15.36-2.53,6.27,0,11.75.91,16.45,2.74,4.7,1.83,8.62,4.33,11.77,7.51s5.51,6.82,7.07,10.92c1.57,4.1,2.35,8.41,2.35,12.92,0,4.82-.71,8.79-2.14,11.91-1.43,3.12-3.39,5.44-5.87,6.96-2.49,1.52-5.31,2.28-8.48,2.28s-5.66-.58-7.85-1.75c-2.2-1.17-3.75-2.89-4.68-5.16-.86,1.94-2.31,3.57-4.35,4.91-2.04,1.34-4.66,2-7.85,2s-6-.76-8.41-2.28c-2.41-1.52-4.29-3.69-5.64-6.5-1.35-2.81-2.03-6.13-2.03-9.97s.69-6.98,2.07-9.7c1.38-2.72,3.29-4.81,5.74-6.29s5.26-2.21,8.45-2.21c2.52,0,4.71.43,6.57,1.29,1.86.86,3.26,1.98,4.21,3.36l.42-4.01h10.5v22.94c0,1.72.35,2.94,1.06,3.66.71.72,1.74,1.08,3.09,1.08,1.44,0,2.63-.51,3.55-1.52.92-1.01,1.6-2.45,2.05-4.31.44-1.86.67-4.02.67-6.47,0-5.19-1.13-9.73-3.39-13.61-2.26-3.88-5.52-6.9-9.79-9.05-4.27-2.15-9.44-3.23-15.53-3.23s-11.04,1.11-15.43,3.34c-4.39,2.23-7.79,5.43-10.2,9.61-2.41,4.18-3.62,9.17-3.62,14.97,0,6.27,1.24,11.47,3.71,15.62,2.47,4.15,5.91,7.24,10.32,9.28s9.51,3.06,15.32,3.06c3.29,0,6.48-.28,9.58-.85,3.1-.57,5.85-1.36,8.25-2.37v8.89c-2.43.89-5.14,1.57-8.13,2.05-3,.48-6.07.71-9.24.71ZM660.35,326.04c2.03,0,3.62-.47,4.77-1.4,1.15-.94,1.96-2.18,2.44-3.73.48-1.55.71-3.22.71-5,0-1.6-.24-3.11-.71-4.54-.48-1.43-1.28-2.59-2.42-3.5-1.14-.91-2.67-1.36-4.61-1.36s-3.57.45-4.72,1.36c-1.15.91-1.96,2.07-2.42,3.5-.46,1.43-.69,2.94-.69,4.54,0,1.72.23,3.36.69,4.91.46,1.55,1.25,2.81,2.37,3.78,1.12.97,2.65,1.45,4.58,1.45Z" fill="#333"/>
  <path d="M307.1,298.94c-6.53,0-12.35,2.96-16.27,7.55-.36-.46-.77-.87-1.17-1.28-1.22-1.22-2.6-2.3-4.03-3.16-3.37-2.04-7.24-3.06-11.07-3.11h0c-5.46,0-10.97,2.09-15.1,6.27-4.18,4.18-6.27,9.64-6.27,15.1,0,3.83,1.02,7.7,3.06,11.07.87,1.43,1.94,2.81,3.16,4.03,1.22,1.22,2.6,2.3,4.03,3.16,8.21,5,19.13,3.93,26.22-3.16.41-.41.82-.87,1.17-1.28,3.93,4.59,9.74,7.55,16.27,7.55,11.78,0,21.37-9.59,21.37-21.37,0-11.78-9.59-21.37-21.37-21.37h0ZM263.33,320.31c0-2.86,1.07-5.71,3.26-7.91,2.19-2.19,5.05-3.26,7.91-3.26h0c1.17,0,2.35.2,3.47.56l-8.83,8.83-5.25,5.25c-.36-1.12-.56-2.3-.56-3.47ZM282.46,328.22c-3.06,3.06-7.5,3.98-11.38,2.75l5.46-5.46,8.62-8.62,1.02-1.02c-.31,1.43-.46,2.96-.46,4.49,0,2.86-1.07,5.71-3.26,7.91v-.05ZM307.1,331.54c-6.17,0-11.22-5-11.22-11.22,0-6.22,5-11.22,11.22-11.22,6.22,0,11.22,5,11.22,11.22s-5,11.22-11.22,11.22Z" fill="#333"/>
  <polygon points="236.49 316.69 215.48 284.09 203.23 284.09 203.23 341.33 215.48 341.33 215.48 305.52 238.38 341.33 248.79 341.33 248.79 284.09 236.49 284.09 236.49 316.69" fill="#333"/>
  <polygon points="368.82 316.69 347.81 284.09 335.56 284.09 335.56 341.33 347.81 341.33 347.81 305.52 370.71 341.33 381.07 341.33 381.07 284.09 368.82 284.09 368.82 316.69" fill="#0f6bff"/>
  <path d="M417.44,302.2c-3.06-1.89-6.58-2.81-10.51-2.81-3.93,0-7.81.92-11.02,2.75-3.21,1.84-5.71,4.39-7.5,7.6-1.79,3.21-2.7,6.84-2.7,10.76,0,3.93.92,7.55,2.75,10.76,1.84,3.21,4.39,5.76,7.7,7.6,3.32,1.84,7.14,2.75,11.53,2.75,4.39,0,7.29-.71,10.25-2.19,2.96-1.43,5.41-3.52,7.29-6.27l-8.67-5.15c-.92,1.17-2.14,2.14-3.72,2.81-1.58.71-3.21,1.07-4.85,1.07-2.75,0-4.95-.61-6.68-1.79-1.73-1.22-3.06-3.06-4.08-5.51h29.79c.2-1.22.31-2.6.31-4.08,0-3.93-.87-7.5-2.55-10.71-1.73-3.21-4.13-5.76-7.19-7.65l-.15.05ZM396.93,315.72c.1-1.79,1.12-3.26,3.06-4.54,1.94-1.28,4.23-1.89,6.84-1.89s4.64.56,6.38,1.68,2.81,2.7,3.16,4.74h-19.49s.05,0,.05,0Z" fill="#0f6bff"/>
  <path d="M467.69,302.15c-3.06-1.84-6.73-2.75-11.02-2.75-4.29,0-4.39.36-6.48,1.12-2.09.71-4.03,1.79-5.87,3.16v-3.16h-11.68s0,57.24,0,57.24h11.68s0-19.39,0-19.39c1.79,1.38,3.78,2.4,5.87,3.16,2.14.71,4.29,1.12,6.48,1.12,4.23,0,7.91-.92,11.02-2.81,3.06-1.89,5.46-4.44,7.09-7.7,1.63-3.26,2.45-6.99,2.45-11.12,0-4.13-.82-7.86-2.45-11.07-1.63-3.26-3.98-5.82-7.09-7.65v-.15ZM462.59,328.37c-1.94,1.89-4.44,2.81-7.5,2.81-3.06,0-5.66-.92-7.7-2.81-2.04-1.89-3.06-4.34-3.06-7.4,0-3.06,1.02-5.56,3.11-7.5,2.09-1.94,4.64-2.96,7.7-2.96,3.06,0,5.56.97,7.5,2.86,1.94,1.89,2.91,4.44,2.91,7.5,0,3.06-.97,5.61-2.91,7.5h-.05Z" fill="#0f6bff"/>
  <path d="M510.34,301.13c-2.45-1.02-4.8-1.53-7.14-1.53-3.47,0-6.73,1.28-9.74,3.78v-19.28s-11.68,0-11.68,0v57.24s11.68,0,11.68,0v-25c.31-2.24,1.12-3.88,2.35-4.95,1.28-1.07,2.7-1.58,4.44-1.58s3.78.56,5.25,1.73c1.48,1.17,2.19,3.06,2.19,5.66v24.13s11.68,0,11.68,0v-24.44c-.05-4.34-.97-7.81-2.75-10.41-1.79-2.55-3.88-4.34-6.27-5.36Z" fill="#0f6bff"/>
  <path d="M555.64,302.2c-3.21-1.89-6.73-2.86-10.51-2.86-3.77,0-7.4.97-10.61,2.86-3.21,1.89-5.82,4.44-7.7,7.7-1.89,3.21-2.86,6.78-2.86,10.61,0,3.83.97,7.29,2.86,10.56,1.89,3.26,4.44,5.82,7.7,7.7,3.21,1.89,6.78,2.86,10.61,2.86,3.83,0,7.29-.97,10.51-2.86,3.21-1.89,5.76-4.49,7.7-7.7,1.89-3.26,2.86-6.78,2.86-10.56,0-3.78-.97-7.4-2.86-10.61-1.89-3.21-4.44-5.76-7.7-7.7ZM551.91,327.35c-1.94,1.89-4.23,2.86-6.89,2.86s-4.95-.97-6.84-2.86c-1.89-1.89-2.86-4.18-2.86-6.84,0-2.65.97-4.95,2.86-6.89,1.89-1.94,4.18-2.86,6.84-2.86s4.95.97,6.89,2.86c1.94,1.94,2.86,4.23,2.86,6.89,0,2.65-.97,4.95-2.86,6.84Z" fill="#0f6bff"/>
  <path d="M603.95,321.18c-1.58-1.79-3.42-3.06-5.46-3.83-2.09-.77-4.69-1.48-7.86-2.14-2.45-.46-4.23-.97-5.36-1.38-1.12-.46-1.68-1.12-1.68-2.04,0-.92.46-1.84,1.38-2.45.92-.61,2.14-.92,3.67-.92,1.53,0,3.16.31,4.29.97,1.07.66,1.94,1.63,2.6,2.96l9.28-4.54c-1.58-2.7-3.83-4.8-6.63-6.22-2.81-1.43-6.02-2.14-9.54-2.14-3.52,0-5.76.51-8.26,1.53-2.55,1.02-4.54,2.5-6.02,4.44-1.48,1.94-2.24,4.23-2.24,6.84,0,2.6.77,4.9,2.24,6.53,1.48,1.63,3.26,2.81,5.36,3.62,2.09.77,4.69,1.53,7.75,2.19,2.7.61,4.69,1.17,5.97,1.68s1.89,1.33,1.89,2.4-.66,2.19-2.04,2.86c-1.38.66-2.96,1.02-4.74,1.02-4.44,0-7.29-1.68-8.57-5.1l-9.39,4.8c1.53,3.11,3.83,5.41,6.89,6.99,3.06,1.58,6.73,2.35,11.07,2.35,4.34,0,6.07-.51,8.83-1.48,2.7-.97,4.9-2.45,6.58-4.39,1.63-1.94,2.5-4.29,2.5-6.99s-.77-5.61-2.35-7.4l-.15-.15Z" fill="#0f6bff"/>
  <path d="M307.51,584.78c-1.55,1.93-2.34,3.9-2.37,5.92-.03,2.45,1.15,4.84,3.55,7.16,5.14-5.01,10.34-10.17,15.5-15.38,1,2.41,2.81,4.35,5.06,5.43h0c-10.44,6.65-16.17,12.5-20.39,22.78-1.34-.84-2.61-1.83-3.86-2.97-.6-.55-1.12-1.17-1.73-1.74-1.1-1.05-2.07-2.14-2.9-3.34-.83-1.21-1.56-2.42-2.19-3.65-.61-1.23-1.05-2.4-1.34-3.53-.28-1.15-.43-2.56-.48-4.3-.03-1.4.21-2.78.74-4.13,2.8-2.3,4.59-2.9,10.41-2.25h0Z" fill="#003942" fill-rule="evenodd"/>
  <g clip-path="url(#clippath)">
    <path d="M308.85,610.68c.16-4.4,1.17-8.16,4.52-11.82,3.78-4.21,10.02-9.92,15.86-10.96h0c-5.03,5.12-10.15,10.17-15.24,15.02,2.51,2.32,4.69,3.48,6.59,3.52,1.9.03,3.33-.26,4.3-.86.92-.57,2.02-1.45,3.25-2.62,1.54,1.49,3.04,2.92,4.5,4.29.03.03.04.06.07.09-.03.03-.05.04-.08.06-1.95,1.85-3.8,3.29-5.47,4.28-1.69.98-3.74,1.76-6.09,2.08-3,.38-5.82-.08-8.47-1.15-1.28-.54-2.54-1.18-3.75-1.93Z" fill="#003942" fill-rule="evenodd"/>
  </g>
  <path d="M297.1,587.04c3.67-.96,7.89-2,9.57-2.16.28-.03.56-.06.84-.09.35-.43.74-.87,1.17-1.3,3.58-3.58,7.18-7.16,10.72-10.68-1.8-1.78-3.6-3.55-5.4-5.31-3.58,3.51-7.19,7.09-10.79,10.67-1.12,1.13-2.15,2.31-3.1,3.57-.94,1.23-1.81,2.69-2.61,4.35-.15.31-.28.63-.4.94ZM338.48,603.25c1.45,1.17,2.96,1.65,4.53,1.49,1.86-.23,3.74-1.42,5.64-3.62-3.25-3.95-7.04-8.33-11.31-13.05,2.12-1,3.82-2.83,4.79-5.1,0,.02,0,.03,0,.03,4.93,9.63,8.75,14.15,14.69,16.37-.66,1.17-1.38,2.3-2.21,3.42-.41.53-.85,1.04-1.29,1.6-.77.95-1.59,1.86-2.47,2.67-.91.83-1.8,1.53-2.69,2.16-.93.64-1.8,1.13-2.61,1.49-.84.36-1.9.68-3.17.93-1.08.22-2.08.18-3.07-.07-1.55-1.96-1.87-3.36-.83-8.32Z" fill="#003942" fill-rule="evenodd"/>
  <path d="M356.82,599.37c-2.54.5-4.82.11-7-2.34-2.8-2.95-6.99-8.39-7.69-14.03,0,0,0-.01,0-.03,4.02,4.72,7.56,9.13,10.53,13.16,1.76-2.37,2.68-4.35,2.87-6.06.15-1.66.06-2.9-.26-3.77-.32-.81-.84-1.74-1.59-2.82,1.08-1.56,2.09-3.02,3.03-4.5.03,0,.04-.05.05-.09.02.04.03.04.04.09,1.08,1.75,1.85,3.31,2.34,4.81.43,1.44.71,3.13.69,5.15-.08,2.47-.62,4.88-1.49,7.18-.45,1.12-.96,2.21-1.53,3.27ZM339.31,611.57c-.38-2.81-.82-6.2-.83-7.6,0-.23,0-.49,0-.72-.33-.28-.67-.57-1-.92-2.86-2.97-5.93-6.12-9.17-9.42-1.75,1.78-3.52,3.55-5.3,5.31,3.33,3.24,6.51,6.32,9.49,9.2.91.84,1.83,1.61,2.81,2.27.95.64,2.05,1.2,3.28,1.67.23.08.46.16.71.2Z" fill="#003942" fill-rule="evenodd"/>
  <g clip-path="url(#clippath-1)">
    <path d="M326.85,553.6c-1.83-1.39-3.7-2.14-5.59-2.26-2.32-.13-4.57.78-6.83,2.77,5.04,4.64,10.15,9.56,15.23,14.63-2.27.91-4.12,2.7-5.19,5,0,0,0,0,0-.02-6.65-10.38-12.62-15.72-23.54-19.35.97-1.21,2.07-2.35,3.32-3.43.59-.51,1.25-.97,1.84-1.47,1.08-.89,2.2-1.69,3.4-2.34,1.22-.64,2.4-1.18,3.58-1.62,1.14-.43,2.26-.72,3.32-.89,1.07-.16,2.41-.2,3.97-.13,1.28.06,2.54.33,3.8.81,2.24,2.27,2.9,3.68,2.69,8.32Z" fill="#003942" fill-rule="evenodd"/>
  </g>
  <path d="M354.15,573.32c.8-1.53,1.12-3.1.97-4.77-.2-2-1.11-4.06-2.78-6.24-2.77,3.7-6.13,7.86-10.02,12.4-.93-2.3-2.58-4.2-4.66-5.35t.01,0c8.2-5.29,11.58-9.68,12.44-17.29.94.9,1.86,1.9,2.75,2.99.43.53.82,1.08,1.23,1.63.74.98,1.39,1.95,2,3,.57,1.03,1.08,2.03,1.54,3.06.45,1.03.78,1.95,1.05,2.84.26.94.49,2.04.68,3.35.14,1.12.16,2.15.04,3.21-1.14,1.65-2,2.03-5.25,1.18Z" fill="#003942" fill-rule="evenodd"/>
  <path d="M350.11,552.06c.77,3.4.78,6.27-.88,8.85-2.17,3.22-6.56,7.82-11.56,8.44t0,0c4.06-4.4,7.6-8.43,10.61-11.91-2.09-2.31-3.88-3.64-5.32-3.97-1.5-.33-2.61-.3-3.34.06-.68.38-1.48,1-2.41,1.88-1.63-1.59-3.26-3.14-4.91-4.67-.06-.04-.09-.07-.11-.09.01-.02.05-.01.07-.04,1.56-1.36,2.95-2.32,4.28-2.87,1.25-.52,2.75-.79,4.57-.57,2.18.31,4.28,1.27,6.29,2.65.94.69,1.83,1.42,2.72,2.24ZM359.4,572.13c-1.64.52-3.8,1.12-4.75,1.18-.17-.01-.33.02-.5.01-.18.38-.4.72-.64,1.06-2.18,2.99-4.61,6.15-7.28,9.39,1.34,1.61,2.61,3.18,3.82,4.75,2.51-3.29,4.78-6.48,6.77-9.47.57-.89,1.06-1.84,1.48-2.85.4-.93.72-2.07.98-3.36.05-.21.09-.45.12-.71ZM300.93,554.36c4.78.03,8.75.89,12.52,3.91,4.27,3.52,9.98,9.56,11.02,15.44,0,.01,0,.02,0,.02-5.12-5.12-10.22-10.1-15.25-14.87-2.54,2.41-3.89,4.57-4.02,6.46-.12,1.92.12,3.38.73,4.35.59.93,1.51,2.03,2.75,3.28-1.77,1.77-3.54,3.54-5.3,5.3-.04.04-.07.08-.1.11-.02-.03-.04-.04-.06-.08-2.02-2.07-3.55-3.96-4.58-5.74-1.03-1.74-1.77-3.82-1.95-6.27-.21-3.01.5-5.82,1.91-8.42.67-1.21,1.45-2.39,2.32-3.5Z" fill="#003942" fill-rule="evenodd"/>
  <path d="M324.16,545.28c1.12,2.84,2.31,6.24,2.55,7.62.06.24.09.47.14.71.41.31.82.66,1.24,1.05,3.4,3.25,6.78,6.62,10.07,10.03,1.39-1.51,2.75-2.93,4.03-4.32-3.19-3.33-6.5-6.61-9.85-9.76-1.03-.94-2.14-1.84-3.31-2.66-1.16-.81-2.48-1.56-3.99-2.28-.31-.14-.6-.26-.88-.38Z" fill="#003942" fill-rule="evenodd"/>
  <path d="M384.32,556.34v3.45h-6.85c-1.49,0-2.65.4-3.46,1.18-.83.78-1.23,1.93-1.23,3.46h11.55v3.45h-11.55c0,1.66.31,2.82.91,3.5.61.67,1.17,1.06,1.7,1.18.52.12,1.22.18,2.09.18h6.85v3.45h-7.02c-1.32,0-2.45-.11-3.38-.35-.93-.23-1.86-.69-2.8-1.39-1.12-.96-1.92-2.11-2.39-3.45-.47-1.35-.71-2.8-.71-4.37l.06-1.19c0-.72.08-1.42.22-2.1.15-.68.33-1.32.55-1.93.22-.6.48-1.14.77-1.6.29-.46.72-.98,1.3-1.55s1.26-.99,2.07-1.25c.81-.26,1.57-.45,2.27-.54.71-.09,1.42-.13,2.14-.13h6.9ZM391.44,576.2h-3.81v-14.56h14.72c.94,0,1.81.09,2.6.28.74.2,1.36.5,1.86.9.51.4.9.93,1.18,1.6.27.67.41,1.52.41,2.56v9.22h-3.84v-8.72c0-.74-.09-1.3-.26-1.69s-.45-.64-.84-.77c-.38-.13-.84-.19-1.35-.19h-2.19v11.38h-3.95v-11.38h-4.53v11.38ZM411.85,576.2v-19.86h3.81v5.3h3.35c1.25,0,2.34.15,3.28.45.93.31,1.71.85,2.34,1.63s1.08,1.58,1.34,2.39c.26.81.38,1.69.38,2.65v.53c0,.5-.05.98-.15,1.44s-.29,1.03-.57,1.71c-.28.69-.71,1.32-1.3,1.91-.59.59-1.31,1.05-2.17,1.37s-1.84.49-2.94.49h-7.38ZM418.05,564.82h-2.38v8.26l1.2.06h1.17c1.25,0,2.26-.21,2.99-.64.74-.42,1.17-1.28,1.28-2.56v-.97c0-1.08-.16-1.91-.47-2.47s-.66-.96-1.05-1.18c-.39-.22-.77-.36-1.15-.41-.38-.06-.91-.09-1.59-.09h0ZM440.8,573.19v3.01h-5.61c-2.48,0-4.33-.66-5.54-1.99-1.2-1.32-1.81-3.09-1.81-5.3s.47-3.83,1.41-4.88c.94-1.04,1.88-1.69,2.83-1.97s1.98-.42,3.11-.42h5.61v3.01h-5.08c-.83,0-1.49.06-1.97.2-.48.13-.86.4-1.13.8-.33.42-.5,1.01-.5,1.77h8.67v3.06h-8.67c0,.76.13,1.33.4,1.73s.65.67,1.15.81c.48.11,1.15.17,2.02.17h5.11ZM452.87,556.34h3.9v19.86h-7.41c-1.4,0-2.43-.18-3.11-.52-.67-.35-1.1-.6-1.3-.74-.2-.13-.45-.37-.79-.69s-.65-.75-.95-1.29-.54-1.12-.72-1.74c-.18-.63-.26-1.27-.26-1.93v-.3c0-2.07.44-3.65,1.31-4.76.88-1.1,1.78-1.81,2.71-2.12s2.04-.47,3.33-.47h3.29v-5.3ZM451.65,573.11h1.22v-8.29l-.88-.03h-1.08l-1.9.08c-.45,0-.97.25-1.57.75-.46.46-.77,1-.91,1.61s-.22,1.32-.22,2.11.09,1.42.29,1.92c.2.51.57.94,1.13,1.3s1.54.54,2.94.54h.99ZM469.69,556.34h3.9v19.86h-7.4c-1.4,0-2.44-.18-3.11-.52-.67-.35-1.1-.6-1.3-.74-.19-.13-.45-.37-.79-.69-.33-.32-.65-.75-.95-1.29s-.54-1.12-.72-1.74c-.18-.63-.26-1.27-.26-1.93v-.3c0-2.07.44-3.65,1.32-4.76.87-1.1,1.78-1.81,2.7-2.12.93-.31,2.04-.47,3.33-.47h3.28v-5.3ZM468.48,573.11h1.21v-8.29l-.88-.03h-1.08l-1.9.08c-.44,0-.97.25-1.57.75-.46.46-.77,1-.91,1.61s-.22,1.32-.22,2.11.09,1.42.29,1.92c.2.51.57.94,1.13,1.3s1.54.54,2.94.54h1ZM489,573.19v3.01h-5.61c-2.48,0-4.33-.66-5.54-1.99-1.2-1.32-1.81-3.09-1.81-5.3s.47-3.83,1.4-4.88c.94-1.04,1.88-1.69,2.83-1.97.94-.28,1.98-.42,3.11-.42h5.61v3.01h-5.08c-.83,0-1.48.06-1.96.2-.48.13-.86.4-1.13.8-.33.42-.49,1.01-.49,1.77h8.67v3.06h-8.67c0,.76.13,1.33.4,1.73s.65.67,1.15.81c.48.11,1.15.17,2.02.17h5.11ZM501.07,556.34h3.89v19.86h-7.4c-1.4,0-2.43-.18-3.11-.52-.67-.35-1.1-.6-1.3-.74-.2-.13-.45-.37-.79-.69s-.65-.75-.95-1.29c-.31-.54-.54-1.12-.72-1.74-.18-.63-.26-1.27-.26-1.93v-.3c0-2.07.43-3.65,1.31-4.76.88-1.1,1.78-1.81,2.71-2.12s2.04-.47,3.33-.47h3.29v-5.3ZM499.85,573.11h1.22v-8.29l-.88-.03h-1.08l-1.91.08c-.44,0-.96.25-1.57.75-.47.46-.77,1-.91,1.61-.15.62-.22,1.32-.22,2.11s.09,1.42.29,1.92c.19.51.57.94,1.13,1.3.56.36,1.54.54,2.94.54h1ZM530.01,572.91v3.29h-5.97c-.77,0-1.46-.04-2.06-.11-.6-.07-1.25-.26-1.95-.58-.7-.31-1.32-.74-1.85-1.3-.54-.55-.93-1.15-1.18-1.78-.25-.63-.42-1.31-.51-2.03s-.14-1.46-.14-2.24v-11.82h4.15v12.14c0,.34.03.81.09,1.39.06.59.25,1.12.57,1.6.28.48.74.84,1.38,1.08.65.24,1.47.36,2.49.36h4.97ZM531.86,556.34h3.97v3.62h-3.97v-3.62ZM531.86,561.64h3.97v14.56h-3.97v-14.56ZM543.02,576.2h-3.81v-14.56h7.21c1.35,0,2.46.16,3.35.47s1.56.86,2.04,1.64c.48.78.72,1.85.72,3.21v9.23h-3.89v-8.73c0-.29-.01-.57-.04-.84-.03-.27-.09-.55-.18-.86-.09-.31-.31-.53-.66-.68-.35-.14-.89-.22-1.63-.22h-3.09v11.33ZM565.09,561.64h3.84v14.56h-7.24c-1.31,0-2.41-.17-3.29-.51s-1.56-.91-2.03-1.69c-.47-.78-.71-1.83-.71-3.14v-9.22h3.81v8.95c0,.59.08,1.06.22,1.44.15.37.41.62.77.77.37.15.86.23,1.49.23h3.12v-11.38Z" fill="#003942"/>
  <g clip-path="url(#clippath-2)">
    <path d="M575.26,576.2h-4.42l5.33-7.29-5.39-7.26h4.42l3.12,4.42,3.26-4.42h4.42l-5.41,7.38,5.3,7.18h-4.47l-3.09-4.2-3.07,4.2Z" fill="#003942"/>
  </g>
  <path d="M384.26,583.96v3.4h-6.85c-1.22,0-2.18.29-2.9.87s-1.18,1.23-1.39,1.93c-.2.71-.35,1.37-.44,1.96-.09.6-.14,1.2-.14,1.78v.67c0,.26.01.54.03.84.02.31.05.67.11,1.11.06.43.18.89.37,1.39.2.5.47.96.81,1.38.46.48.96.78,1.49.9.54.12,1.22.18,2.07.18h6.83v3.45h-6.99c-1.32,0-2.44-.11-3.37-.34-.93-.23-1.86-.7-2.79-1.4-1.12-.96-1.92-2.1-2.38-3.45-.47-1.34-.71-2.8-.71-4.37v-1.18c0-.72.08-1.42.22-2.1.15-.68.33-1.33.55-1.93.22-.61.48-1.14.77-1.61.29-.46.72-.97,1.3-1.54.57-.57,1.26-.99,2.07-1.26.81-.26,1.57-.44,2.27-.54.71-.09,1.42-.14,2.14-.14h6.9ZM399.32,602.08c-.7.64-1.42,1.1-2.15,1.37-.74.27-1.35.45-1.85.54-.5.09-1.01.14-1.54.14-1.01,0-2.03-.18-3.04-.54s-1.85-.86-2.53-1.51-1.15-1.35-1.45-2.11-.49-1.39-.58-1.88c-.09-.49-.14-1.01-.14-1.56,0-1.05.14-1.94.43-2.66.28-.73.55-1.29.8-1.67.25-.39.64-.84,1.16-1.37s1.27-.97,2.24-1.33c.97-.36,2-.54,3.11-.54,1.05,0,2.05.17,3.02.51.96.34,1.72.77,2.26,1.3s.94.98,1.2,1.38.52.95.8,1.66c.28.71.42,1.62.42,2.72s-.18,2.06-.54,3.02c-.36.97-.89,1.81-1.61,2.53ZM392.47,600.76c.14.07.33.13.56.16.23.04.46.06.68.06.79,0,1.51-.23,2.15-.69.64-.46,1.07-1.02,1.29-1.68.21-.67.31-1.34.31-2.02,0-.98-.18-1.83-.54-2.56s-.94-1.25-1.73-1.59c-.52-.18-.99-.28-1.41-.28-.48,0-.98.1-1.49.3-.5.24-.91.55-1.24.91s-.59.82-.76,1.35-.26,1.15-.26,1.85c0,.94.2,1.78.59,2.54s1.01,1.3,1.84,1.63ZM407.66,603.82h-3.81v-14.55h7.21c1.35,0,2.46.16,3.35.47.88.31,1.56.86,2.04,1.64s.72,1.86.72,3.22v9.22h-3.89v-8.72c0-.3-.01-.57-.04-.84-.03-.26-.09-.55-.18-.86-.09-.3-.31-.53-.66-.67-.35-.14-.89-.22-1.63-.22h-3.09v11.32ZM425.67,603.82h-3.98v-11.65h-2.73v-2.9h2.73v-1.8c0-.28.03-.66.1-1.13.06-.48.22-.9.48-1.27.26-.37.66-.64,1.22-.8.55-.2,1.29-.3,2.21-.3h3.67v2.87l-.6-.08h-1c-.77,0-1.3.12-1.57.36-.35.18-.53.6-.53,1.27v.89h3.7v2.9h-3.7v11.65h0ZM443.34,600.81v3.01h-5.61c-2.49,0-4.33-.66-5.54-1.98-1.21-1.33-1.81-3.09-1.81-5.3s.47-3.84,1.41-4.88,1.88-1.7,2.83-1.98c.95-.27,1.98-.41,3.11-.41h5.61v3.01h-5.08c-.83,0-1.48.06-1.96.19-.49.13-.86.4-1.13.8-.33.43-.5,1.01-.5,1.77h8.67v3.07h-8.67c0,.76.13,1.33.4,1.73.27.4.65.67,1.15.81.48.11,1.15.16,2.02.16h5.12ZM449.64,603.82h-3.81v-14.55h6.46c1.18,0,2.06.16,2.65.5.59.33.96.78,1.13,1.35.16.57.25,1.36.25,2.37v1.85h-3.64v-1.16c0-.76-.05-1.25-.14-1.51-.09-.25-.27-.42-.53-.51-.24-.04-.45-.06-.63-.08-.19-.02-.49-.03-.91-.03h-.83v11.76ZM470.9,600.81v3.01h-5.61c-2.48,0-4.33-.66-5.54-1.98-1.2-1.33-1.81-3.09-1.81-5.3s.47-3.84,1.41-4.88,1.88-1.7,2.83-1.98c.94-.27,1.98-.41,3.11-.41h5.61v3.01h-5.08c-.83,0-1.49.06-1.97.19-.48.13-.86.4-1.13.8-.33.43-.49,1.01-.49,1.77h8.67v3.07h-8.67c0,.76.13,1.33.4,1.73s.65.67,1.15.81c.48.11,1.15.16,2.02.16h5.11ZM477.2,603.82h-3.81v-14.55h7.21c1.35,0,2.46.16,3.35.47.88.31,1.56.86,2.04,1.64s.72,1.86.72,3.22v9.22h-3.89v-8.72c0-.3-.01-.57-.04-.84-.03-.26-.09-.55-.18-.86-.09-.3-.31-.53-.66-.67-.35-.14-.89-.22-1.63-.22h-3.09v11.32ZM497.39,600.7h4.53v3.12h-5.17c-1.08,0-2.09-.12-3.02-.37-.93-.25-1.75-.71-2.47-1.38s-1.27-1.51-1.63-2.5c-.37-1-.55-1.99-.55-2.98,0-.7.08-1.37.22-2,.15-.64.4-1.28.75-1.92.35-.64.74-1.2,1.18-1.68.65-.63,1.3-1.03,1.98-1.22.67-.19,1.3-.31,1.89-.39.59-.07,1.14-.11,1.66-.11h5.17v3.15h-4.91c-.94,0-1.82.24-2.64.73-.82.49-1.23,1.63-1.23,3.44s.42,2.89,1.27,3.38c.84.49,1.84.73,2.98.73ZM516.59,600.81v3.01h-5.61c-2.49,0-4.33-.66-5.54-1.98-1.2-1.33-1.81-3.09-1.81-5.3s.47-3.84,1.4-4.88c.94-1.04,1.88-1.7,2.83-1.98.94-.27,1.98-.41,3.11-.41h5.61v3.01h-5.08c-.83,0-1.48.06-1.96.19-.48.13-.86.4-1.13.8-.33.43-.5,1.01-.5,1.77h8.67v3.07h-8.67c0,.76.14,1.33.4,1.73s.65.67,1.15.81c.48.11,1.15.16,2.02.16h5.11Z" fill="#003942"/>
  <g clip-path="url(#clippath-3)">
    <path d="M354.05,682.06v-30.46h15.25v6.09h-9.15v6.09h8.01v6.09h-8.01v6.1h9.67v6.09h-15.77ZM379.61,671.46v-19.86h6.09v19.81c0,6.39,9.89,6.39,9.89,0v-19.81h6.05v19.86c0,14.48-22.02,14.48-22.02,0M427.8,682.06l-6.14-11.64h-2.94v11.64h-6.09v-30.46h12.01c10.87,0,11.94,15.3,2.99,17.89l7.07,12.57h-6.9ZM418.72,664.51h5.37c4.14,0,4.14-6.82,0-6.82h-5.37v6.82ZM457.66,651.09c20.96,0,20.96,31.4,0,31.4s-20.96-31.4,0-31.4M457.66,657.35c-12.18,0-12.18,18.83,0,18.83s12.18-18.83,0-18.83M483.35,682.06v-30.42h11.97c11.84,0,11.8,18.79,0,18.79h-5.88v11.64h-6.09ZM494.81,664.51c4.09,0,4.09-6.82,0-6.82h-5.37v6.82h5.37ZM513.3,682.06v-30.46h15.25v6.09h-9.16v6.09h8.01v6.09h-8.01v6.1h9.68v6.09h-15.77Z" fill="#003942"/>
  </g>
  <g clip-path="url(#clippath-4)">
    <path d="M127.71,512.62c-25.68,0-46.56-20.89-46.56-46.57s20.88-46.56,46.56-46.56,46.57,20.89,46.57,46.56h-16.55c0-16.55-13.46-30.02-30.02-30.02s-30.02,13.47-30.02,30.02,13.47,30.02,30.02,30.02v16.54Z" fill="#003942"/>
  </g>
  <g clip-path="url(#clippath-5)">
    <path d="M127.71,559.82c-25.68,0-46.56-20.89-46.56-46.57h16.54c0,16.55,13.47,30.02,30.02,30.02s30.02-13.47,30.02-30.02-13.46-30.02-30.02-30.02v-16.55c25.68,0,46.57,20.89,46.57,46.57s-20.89,46.57-46.57,46.57Z" fill="#003942"/>
  </g>
  <path d="M215.39,468.7c26.85,0,26.85,40.23,0,40.23s-26.85-40.23,0-40.23ZM215.39,476.72c-15.61,0-15.61,24.13,0,24.13s15.61-24.13,0-24.13ZM244.48,508.38v-38.97h15.34c15.18,0,15.12,24.08,0,24.08h-7.53v14.9h-7.81ZM259.17,485.89c5.24,0,5.24-8.73,0-8.73h-6.88v8.73h6.88ZM279.03,508.38v-39.03h19.54v7.81h-11.74v7.81h10.27v7.81h-10.27v7.81h12.39v7.81h-20.2ZM315.98,508.38h-7.81v-39.84h2.07l19.7,22.92v-22.05h7.86v39.79h-2.07l-19.76-22.05v21.23ZM364.56,497.68c4.48,3.17,9.34,3.28,11.14,3.11,2.29-.16,4.26-1.8,4.04-3.93-.16-2.24-1.85-3.22-4.04-3.99-6.12-2.24-11.57-5.35-11.57-11.9s4.53-11.57,11.02-11.9c2.02-.11,4.7-.11,9.72,1.64l-.98,7.53c-4.32-1.74-6.77-1.69-7.97-1.64-2.78.16-4.04,2.19-3.87,4.37.21,2.19,2.12,3.17,4.37,3.93,6.06,2.24,11.29,5.73,11.29,11.96s-4.47,11.47-11.79,11.84c-2.19.16-7.04-.11-12.34-2.83l.98-8.19ZM414.66,468.7c26.86,0,26.86,40.23,0,40.23s-26.85-40.23,0-40.23ZM414.66,476.72c-15.61,0-15.61,24.13,0,24.13s15.62-24.13,0-24.13ZM443.53,494.79v-25.44h7.81v25.38c0,8.19,12.66,8.19,12.66,0v-25.38h7.75v25.44c0,18.56-28.22,18.56-28.22,0ZM501.44,508.38l-7.86-14.9h-3.77v14.9h-7.81v-39.03h15.39c13.92,0,15.28,19.6,3.82,22.92l9.06,16.1h-8.84ZM489.82,485.89h6.88c5.29,0,5.29-8.73,0-8.73h-6.88v8.73Z" fill="#003942"/>
  <path d="M535.18,476.72c-15.45,0-15.45,23.81,0,23.81,3.38,0,6.06-.98,7.53-1.75l1.03,8.08c-2.4.98-5.84,1.64-8.57,1.64-26.48,0-26.42-39.63,0-39.63,2.73,0,5.35.49,7.7,1.52l-.93,8.03c-1.47-.76-3.38-1.69-6.77-1.69ZM551.61,508.38v-39.03h19.54v7.81h-11.74v7.81h10.26v7.81h-10.26v7.81h12.39v7.81h-20.2ZM597.07,497.68c4.48,3.17,9.34,3.28,11.14,3.11,2.29-.16,4.26-1.8,4.04-3.93-.16-2.24-1.86-3.22-4.04-3.99-6.12-2.24-11.57-5.35-11.57-11.9s4.53-11.57,11.02-11.9c2.02-.11,4.69-.11,9.72,1.64l-.98,7.53c-4.32-1.74-6.77-1.69-7.98-1.64-2.78.16-4.04,2.19-3.87,4.37.22,2.19,2.13,3.17,4.37,3.93,6.06,2.24,11.3,5.73,11.3,11.96s-4.47,11.47-11.79,11.84c-2.18.16-7.04-.11-12.33-2.83l.98-8.19ZM628.18,494.79v-25.44h7.81v25.38c0,8.19,12.66,8.19,12.66,0v-25.38h7.75v25.44c0,18.56-28.22,18.56-28.22,0ZM699.96,468.75h2.46v39.63h-7.92l.06-21.78-9.99,10.48-9.99-10.48v21.78h-7.91v-39.63h2.51l15.4,17.14,15.4-17.14ZM746.14,468.75h2.46v39.63h-7.92l.06-21.78-9.99,10.48-9.99-10.48v21.78h-7.91v-39.63h2.51l15.4,17.14,15.4-17.14ZM759.01,469.35h7.81v39.03h-7.81v-39.03Z" fill="#003942"/>
  <g clip-path="url(#clippath-6)">
    <path d="M783.68,508.38v-31.22h-9.71v-7.75h27.24v7.75h-9.72v31.22h-7.81Z" fill="#003942"/>
  </g>
  <path d="M540.62,437.98c.08,0,.13.04.13.13v1.56c0,.08-.04.13-.13.13h-3.75v12.37c0,.09-.04.13-.13.13h-1.56c-.08,0-.13-.04-.13-.13v-12.37h-3.76c-.08,0-.13-.04-.13-.13v-1.56c0-.09.04-.13.13-.13h9.33ZM555.15,437.98c.09,0,.13.04.13.13v14.05c0,.09-.04.13-.13.13h-1.57c-.09,0-.13-.04-.13-.13v-6.14h-6.68v6.12c0,.08-.04.13-.13.13h-1.57c-.09,0-.13-.04-.13-.13v-14.05c0-.09.04-.13.13-.13h1.57c.09,0,.13.04.13.13v6.1h6.68v-6.09c0-.09.04-.13.13-.13h1.57ZM570.3,437.98c.09,0,.13.04.13.13v1.56c0,.08-.04.13-.13.13h-7.6v4.43h5.51c.09,0,.13.04.13.13v1.56c0,.09-.04.13-.13.13h-5.51v4.43h7.6c.09,0,.13.04.13.13v1.56c0,.09-.04.13-.13.13h-9.29c-.09,0-.13-.04-.13-.13v-14.05c0-.09.04-.13.13-.13h9.29ZM590.1,450.46c.08,0,.13.04.13.13v1.57c0,.08-.04.13-.13.13h-7.96c-.09,0-.13-.04-.13-.13v-14.07c0-.08.04-.13.13-.13h1.57c.09,0,.13.04.13.13v12.37h6.26ZM596.19,437.98c.09,0,.13.04.13.13v14.05c0,.09-.04.13-.13.13h-1.57c-.09,0-.13-.04-.13-.13v-14.05c0-.09.04-.13.13-.13h1.57ZM612.1,437.97c.09,0,.13.04.13.13v14.06c0,.09-.04.13-.13.13h-.71s-.08-.01-.1-.04l-7.63-10.19v10.1c0,.09-.04.13-.13.13h-1.48c-.09,0-.13-.04-.13-.13v-14.06c0-.09.04-.13.13-.13h.66s.07.02.09.06l7.68,10.25v-10.17c0-.09.04-.13.13-.13h1.48ZM627.76,437.98c.09,0,.13.04.13.13v9.05c0,1.4-.5,2.6-1.48,3.6-.99,1-2.18,1.51-3.58,1.54-1.44.03-2.66-.48-3.69-1.52-1.02-1.03-1.54-2.27-1.54-3.72v-8.93c0-.09.04-.13.13-.13h1.56c.09,0,.13.04.13.13v8.96c0,.91.31,1.69.92,2.36.62.67,1.39,1.01,2.28,1.05.94.03,1.74-.28,2.43-.93s1.02-1.46,1.02-2.39v-9.05c0-.09.04-.13.13-.13h1.56ZM643.15,437.99s.08.03.11.07c.03.04.03.08,0,.13l-4.37,6.97,4.35,6.94s.03.09,0,.13c-.03.05-.06.07-.11.07h-1.81c-.05,0-.09-.02-.11-.06l-3.39-5.4-3.38,5.4s-.06.06-.11.06h-1.81s-.08-.02-.11-.07c-.03-.04-.03-.08,0-.13l4.36-6.94-4.38-6.97c-.03-.05-.03-.09,0-.13.02-.04.06-.07.11-.07h1.8c.05,0,.09.02.11.06l3.41,5.42,3.42-5.42s.06-.06.11-.06h1.8ZM656.13,439.79v4.4h5.42c.09,0,.13.04.13.13v1.57c0,.09-.04.13-.13.13h-5.42v6.14c0,.08-.04.13-.13.13h-1.57c-.08,0-.13-.04-.13-.13v-14.07c0-.09.04-.13.13-.13h8.69c.09,0,.13.04.13.13v1.57c0,.09-.04.13-.13.13h-6.99ZM673.22,437.98c1.97,0,3.65.69,5.05,2.1,1.4,1.4,2.1,3.08,2.1,5.05s-.7,3.66-2.1,5.06c-1.4,1.4-3.08,2.1-5.05,2.1s-3.66-.7-5.06-2.1-2.1-3.09-2.1-5.06.7-3.65,2.1-5.05,3.09-2.1,5.06-2.1h0ZM673.22,450.46c1.46,0,2.72-.52,3.77-1.56s1.56-2.29,1.56-3.77-.52-2.72-1.56-3.77c-1.05-1.04-2.31-1.56-3.77-1.56s-2.73.52-3.77,1.56c-1.04,1.05-1.56,2.31-1.56,3.77s.52,2.73,1.56,3.77c1.04,1.05,2.29,1.56,3.77,1.56ZM695.28,437.98c.09,0,.13.04.13.13v9.05c0,1.4-.49,2.6-1.48,3.6-.98,1-2.18,1.51-3.58,1.54-1.43.03-2.66-.48-3.69-1.52-1.03-1.03-1.54-2.27-1.54-3.72v-8.93c0-.09.04-.13.13-.13h1.56c.08,0,.13.04.13.13v8.96c0,.91.31,1.69.92,2.36.63.67,1.39,1.01,2.28,1.05.94.03,1.75-.28,2.43-.93.68-.66,1.02-1.46,1.02-2.39v-9.05c0-.09.04-.13.13-.13h1.56ZM711.04,437.97c.09,0,.13.04.13.13v14.06c0,.09-.04.13-.13.13h-.71s-.07-.01-.1-.04l-7.62-10.19v10.1c0,.09-.04.13-.13.13h-1.47c-.09,0-.13-.04-.13-.13v-14.06c0-.09.04-.13.13-.13h.66s.08.02.1.06l7.67,10.25v-10.17c0-.09.04-.13.13-.13h1.48ZM721.44,437.95c2.01,0,3.71.71,5.12,2.15,1.41,1.43,2.1,3.15,2.05,5.15-.04,1.96-.77,3.62-2.2,4.99-1.42,1.37-3.12,2.05-5.1,2.05h-4.42c-.09,0-.13-.04-.13-.13v-14.09c0-.09.04-.13.13-.13h4.54ZM721.44,450.46c1.48,0,2.74-.52,3.78-1.57,1.05-1.05,1.57-2.31,1.57-3.78s-.52-2.73-1.57-3.77-2.3-1.56-3.78-1.56h-2.83v10.68h2.83ZM739.47,437.95c.06,0,.1.03.12.08l5.85,14.09s.02.08-.01.12c-.03.04-.06.06-.11.06h-1.6c-.06,0-.1-.03-.12-.08l-2.29-5.52h-5.07l-2.29,5.52c-.02.05-.06.08-.12.08h-1.6s-.08-.02-.11-.06c-.03-.04-.03-.08-.01-.12l5.85-14.09c.03-.05.07-.08.12-.08h1.39ZM740.58,444.96l-1.8-4.35-1.81,4.35h3.61ZM757.81,437.98c.09,0,.13.04.13.13v1.56c0,.08-.04.13-.13.13h-3.75v12.37c0,.09-.04.13-.13.13h-1.56c-.09,0-.13-.04-.13-.13v-12.37h-3.76c-.09,0-.13-.04-.13-.13v-1.56c0-.09.04-.13.13-.13h9.32ZM763.83,437.98c.09,0,.13.04.13.13v14.05c0,.09-.04.13-.13.13h-1.57c-.09,0-.13-.04-.13-.13v-14.05c0-.09.04-.13.13-.13h1.57ZM775.69,437.98c1.97,0,3.66.69,5.06,2.1,1.4,1.4,2.1,3.08,2.1,5.05s-.7,3.66-2.1,5.06-3.09,2.1-5.06,2.1-3.66-.7-5.06-2.1-2.1-3.09-2.1-5.06.7-3.65,2.1-5.05c1.4-1.4,3.09-2.1,5.06-2.1h0ZM775.69,450.46c1.47,0,2.72-.52,3.77-1.56s1.56-2.29,1.56-3.77-.52-2.72-1.56-3.77c-1.05-1.04-2.3-1.56-3.77-1.56s-2.73.52-3.77,1.56c-1.04,1.05-1.56,2.31-1.56,3.77s.52,2.73,1.56,3.77c1.04,1.05,2.29,1.56,3.77,1.56ZM798.01,437.97c.09,0,.13.04.13.13v14.06c0,.09-.04.13-.13.13h-.71s-.08-.01-.1-.04l-7.63-10.19v10.1c0,.09-.04.13-.13.13h-1.48c-.09,0-.13-.04-.13-.13v-14.06c0-.09.04-.13.13-.13h.66s.07.02.09.06l7.68,10.25v-10.17c0-.09.04-.13.13-.13h1.47Z" fill="#003942"/>
  <g>
    <path d="M270.37,899.97l16-31.38h-19.6v-7h27.45v6.36l-15.47,32.02h-8.38Z"/>
    <path d="M296.48,888.78v-6.62h27.6v6.62h-27.6Z"/>
    <path d="M339.99,900.5c-2.54,0-4.72-.44-6.53-1.32s-3.26-2.11-4.34-3.71c-1.07-1.59-1.76-3.45-2.05-5.58h7.59c.25,1.31.82,2.34,1.71,3.11.89.76,2.09,1.14,3.62,1.14,2.27,0,4.05-.99,5.35-2.96,1.3-1.97,1.95-5.13,1.95-9.46v-3.25c0-2.7-.31-4.85-.92-6.47-.62-1.62-1.43-2.79-2.43-3.5-1.01-.71-2.09-1.07-3.27-1.07-1.89,0-3.32.6-4.26,1.8-.95,1.2-1.42,2.72-1.42,4.56s.44,3.21,1.32,4.23,2.11,1.54,3.69,1.54c1.48,0,2.76-.24,3.84-.72,1.07-.48,2.05-1.12,2.92-1.93.87-.81,1.72-1.71,2.56-2.71l.12,5.42c-.72.92-1.55,1.85-2.49,2.8-.94.95-2.07,1.75-3.38,2.4-1.32.65-2.91.98-4.76.98-2.25,0-4.26-.46-6.04-1.38-1.78-.92-3.18-2.27-4.2-4.06s-1.54-3.96-1.54-6.52.53-4.68,1.6-6.61c1.06-1.92,2.61-3.43,4.64-4.53,2.03-1.09,4.49-1.64,7.38-1.64,2.73,0,5.2.65,7.4,1.96,2.2,1.31,3.94,3.38,5.24,6.23,1.3,2.84,1.95,6.56,1.95,11.15s-.65,8.59-1.96,11.54c-1.31,2.95-3.11,5.11-5.41,6.49-2.3,1.38-4.92,2.07-7.87,2.07Z"/>
    <path d="M391.43,900.5c-4.12,0-7.61-.83-10.47-2.5-2.86-1.67-5.03-4.01-6.52-7.03s-2.23-6.58-2.23-10.68.74-7.67,2.23-10.71c1.48-3.04,3.66-5.39,6.52-7.06,2.86-1.67,6.35-2.5,10.47-2.5s7.61.83,10.46,2.5,5.02,4.02,6.5,7.06c1.48,3.04,2.23,6.61,2.23,10.71s-.74,7.66-2.23,10.68-3.65,5.36-6.5,7.03-6.34,2.5-10.46,2.5ZM391.43,893.64c2.56,0,4.62-.6,6.18-1.82,1.56-1.21,2.71-2.83,3.43-4.86.72-2.03,1.08-4.26,1.08-6.68s-.36-4.71-1.08-6.74c-.72-2.03-1.87-3.65-3.43-4.86-1.56-1.21-3.62-1.82-6.18-1.82s-4.65.61-6.23,1.82c-1.57,1.21-2.71,2.83-3.43,4.86-.71,2.03-1.07,4.28-1.07,6.74s.36,4.65,1.07,6.68c.71,2.03,1.86,3.65,3.43,4.86,1.57,1.21,3.65,1.82,6.23,1.82Z"/>
    <path d="M435.67,900.5c-3.98,0-7.41-.83-10.28-2.5s-5.08-4.01-6.62-7.03-2.31-6.58-2.31-10.68.77-7.67,2.31-10.71c1.54-3.04,3.75-5.39,6.62-7.06s6.3-2.5,10.28-2.5c3.09,0,5.93.53,8.53,1.6,2.6,1.06,4.71,2.64,6.33,4.72s2.51,4.64,2.67,7.69h-8.44c-.21-1.6-.74-2.93-1.57-3.98-.83-1.05-1.89-1.85-3.18-2.37s-2.73-.79-4.34-.79c-2.58,0-4.65.63-6.23,1.88-1.57,1.25-2.71,2.89-3.43,4.91-.71,2.02-1.07,4.23-1.07,6.64s.36,4.59,1.07,6.62c.71,2.03,1.86,3.66,3.43,4.89,1.57,1.23,3.65,1.85,6.23,1.85,2.71,0,4.86-.7,6.43-2.09,1.57-1.4,2.48-3.38,2.71-5.96h8.44c-.23,3.22-1.08,5.94-2.55,8.16-1.46,2.22-3.47,3.9-6.01,5.04s-5.55,1.71-9.02,1.71Z"/>
    <path d="M466.02,899.97v-32.58h-10.55v-6.86h29.27v6.86h-10.49v32.58h-8.23Z"/>
    <path d="M506.01,900.5c-4.12,0-7.61-.83-10.47-2.5s-5.03-4.01-6.52-7.03-2.23-6.58-2.23-10.68.74-7.67,2.23-10.71c1.48-3.04,3.66-5.39,6.52-7.06s6.35-2.5,10.47-2.5,7.61.83,10.46,2.5,5.02,4.02,6.5,7.06c1.48,3.04,2.23,6.61,2.23,10.71s-.74,7.66-2.23,10.68-3.65,5.36-6.5,7.03-6.34,2.5-10.46,2.5ZM506.01,893.64c2.56,0,4.62-.6,6.18-1.82,1.56-1.21,2.71-2.83,3.43-4.86.72-2.03,1.08-4.26,1.08-6.68s-.36-4.71-1.08-6.74c-.72-2.03-1.87-3.65-3.43-4.86-1.56-1.21-3.62-1.82-6.18-1.82s-4.65.61-6.23,1.82c-1.57,1.21-2.71,2.83-3.43,4.86-.71,2.03-1.07,4.28-1.07,6.74s.36,4.65,1.07,6.68c.71,2.03,1.86,3.65,3.43,4.86,1.57,1.21,3.65,1.82,6.23,1.82Z"/>
    <path d="M532.85,899.97v-39.43h13.48c4.26,0,7.63.81,10.11,2.42s3.72,4.09,3.72,7.43c0,2.09-.52,3.86-1.57,5.32-1.04,1.46-2.44,2.5-4.17,3.15,2.73.55,4.82,1.66,6.25,3.34,1.44,1.68,2.15,3.75,2.15,6.21,0,2.64-.6,4.81-1.8,6.52-1.2,1.71-2.92,2.98-5.16,3.81-2.24.83-4.92,1.25-8.04,1.25h-14.97ZM541.08,876.5h5.13c1.58,0,2.91-.41,3.98-1.23s1.61-2.02,1.61-3.6c0-1.11-.24-2-.73-2.65-.49-.65-1.15-1.12-1.99-1.41-.84-.28-1.8-.42-2.87-.42h-5.13v9.32ZM541.08,893.14h6.45c1.29,0,2.46-.16,3.52-.48s1.89-.89,2.5-1.7c.62-.81.92-1.9.92-3.27,0-1.76-.65-3.01-1.96-3.76-1.31-.75-2.97-1.13-4.98-1.13h-6.45v10.34Z"/>
    <path d="M570,899.97v-39.43h26.46v6.83h-18.22v9.17h16.52v6.59h-16.52v10.02h18.22v6.83h-26.46Z"/>
    <path d="M604.39,899.97v-39.43h16.23c2.54,0,4.8.36,6.8,1.07,1.99.71,3.57,1.87,4.73,3.46,1.16,1.59,1.74,3.71,1.74,6.34,0,2.5-.67,4.62-2.01,6.36-1.34,1.74-3.36,2.98-6.08,3.72,1.66.25,2.99.76,3.98,1.51,1,.75,1.8,1.76,2.42,3.03.62,1.27,1.18,2.83,1.68,4.69l2.61,9.26h-8.61l-1.85-7.62c-.39-1.72-.84-3.12-1.35-4.22-.51-1.09-1.2-1.91-2.07-2.45-.87-.54-2.07-.81-3.59-.81h-6.42v15.09h-8.23ZM612.62,878.08h6.62c1.29,0,2.4-.21,3.33-.62s1.65-1.03,2.15-1.85.76-1.83.76-3.02c0-1.74-.53-3.05-1.58-3.93s-2.45-1.32-4.19-1.32h-7.09v10.72Z"/>
    <path d="M201.32,971.97v-39.43h15.47c2.6,0,4.97.46,7.1,1.38s3.84,2.31,5.11,4.19,1.9,4.27,1.9,7.18-.63,5.24-1.9,7.12-2.97,3.27-5.11,4.17-4.51,1.36-7.1,1.36h-7.24v14.03h-8.23ZM209.55,951.31h6.47c1.91,0,3.46-.51,4.64-1.52,1.18-1.02,1.77-2.52,1.77-4.51s-.61-3.6-1.82-4.6-2.74-1.49-4.6-1.49h-6.47v12.13Z"/>
    <path d="M237.65,971.97v-39.43h16.23c2.54,0,4.8.36,6.8,1.07s3.57,1.87,4.73,3.46c1.16,1.59,1.74,3.71,1.74,6.34,0,2.5-.67,4.62-2.01,6.36-1.34,1.74-3.36,2.98-6.08,3.72,1.66.25,2.99.76,3.98,1.51s1.8,1.76,2.42,3.03,1.18,2.83,1.68,4.69l2.61,9.26h-8.61l-1.85-7.62c-.39-1.72-.84-3.12-1.35-4.22s-1.2-1.91-2.07-2.45c-.87-.54-2.07-.81-3.59-.81h-6.42v15.09h-8.23ZM245.88,950.08h6.62c1.29,0,2.4-.21,3.33-.62.93-.41,1.65-1.03,2.15-1.85s.76-1.83.76-3.02c0-1.74-.53-3.05-1.58-3.93s-2.45-1.32-4.19-1.32h-7.09v10.72Z"/>
    <path d="M270.96,971.97l14.18-39.43h8.64l14.21,39.43h-8.58l-2.81-8.67h-14.24l-2.9,8.67h-8.5ZM284.32,956.47h10.25l-5.13-15.79-5.13,15.79Z"/>
    <path d="M329.17,972.49c-4.04,0-7.51-.83-10.4-2.5s-5.11-4.02-6.67-7.05-2.33-6.58-2.33-10.66.78-7.67,2.33-10.71,3.77-5.39,6.67-7.06,6.36-2.5,10.4-2.5c2.03,0,4.02.26,5.98.79s3.74,1.34,5.36,2.45,2.96,2.5,4.01,4.2,1.69,3.71,1.9,6.04h-8.41c-.16-1.29-.61-2.43-1.35-3.43s-1.76-1.78-3.05-2.34-2.83-.85-4.63-.85c-2.58,0-4.66.62-6.24,1.86s-2.73,2.87-3.46,4.89-1.08,4.24-1.08,6.67.37,4.62,1.1,6.65,1.9,3.66,3.5,4.89,3.72,1.85,6.36,1.85c1.95,0,3.62-.34,5-1.01s2.45-1.61,3.22-2.8c.77-1.19,1.22-2.57,1.33-4.13h-9.35v-6.56h17.61v4.01c0,3.42-.69,6.43-2.07,9.02s-3.39,4.63-6.04,6.09c-2.65,1.46-5.88,2.2-9.71,2.2Z"/>
    <path d="M370.54,972.49c-3.87,0-7.03-.62-9.49-1.86s-4.27-3.07-5.42-5.49-1.73-5.37-1.73-8.85v-23.76h8.44v23.55c0,3.24.66,5.65,1.99,7.24s3.42,2.37,6.27,2.37,4.95-.79,6.23-2.37c1.28-1.58,1.92-3.99,1.92-7.24v-23.55h8.47v23.76c0,3.48-.58,6.43-1.73,8.85s-2.96,4.25-5.41,5.49c-2.45,1.24-5.63,1.86-9.54,1.86Z"/>
    <path d="M396.15,971.97v-39.43h26.46v6.83h-18.22v9.17h16.52v6.59h-16.52v10.02h18.22v6.83h-26.46Z"/>
    <path d="M430.54,981.05l-1.05-3.84c1.37-.43,2.48-1.07,3.34-1.92s1.38-1.96,1.55-3.33l.5.41c-1.5,0-2.72-.46-3.65-1.39-.93-.93-1.39-2.06-1.39-3.38,0-1.45.46-2.6,1.39-3.46.93-.86,2.14-1.29,3.65-1.29s2.65.51,3.56,1.54,1.36,2.55,1.36,4.58c0,2.4-.45,4.44-1.36,6.11s-2.07,2.99-3.47,3.97-2.88,1.64-4.42,1.99Z"/>
    <path d="M478.12,972.49c-3.98,0-7.41-.83-10.28-2.5s-5.08-4.01-6.62-7.03-2.31-6.58-2.31-10.68.77-7.67,2.31-10.71,3.75-5.39,6.62-7.06,6.3-2.5,10.28-2.5c3.09,0,5.93.53,8.53,1.6s4.71,2.64,6.33,4.72,2.51,4.64,2.67,7.69h-8.44c-.21-1.6-.74-2.93-1.57-3.98s-1.89-1.85-3.18-2.37-2.73-.79-4.34-.79c-2.58,0-4.65.62-6.23,1.88s-2.71,2.89-3.43,4.91-1.07,4.23-1.07,6.64.36,4.59,1.07,6.62,1.86,3.66,3.43,4.89,3.65,1.85,6.23,1.85c2.71,0,4.86-.7,6.43-2.09s2.48-3.38,2.71-5.96h8.44c-.23,3.22-1.08,5.94-2.55,8.16s-3.47,3.9-6.01,5.04-5.55,1.71-9.02,1.71Z"/>
    <path d="M499.3,971.97v-6.5l18.46-26.07h-16.96v-6.86h27.22v6.15l-18.78,26.43h20.1v6.86h-30.03Z"/>
    <path d="M535.45,971.97v-39.43h26.46v6.83h-18.22v9.17h16.52v6.59h-16.52v10.02h18.22v6.83h-26.46Z"/>
    <path d="M586.66,972.49c-3.98,0-7.41-.83-10.28-2.5s-5.08-4.01-6.62-7.03-2.31-6.58-2.31-10.68.77-7.67,2.31-10.71,3.75-5.39,6.62-7.06,6.3-2.5,10.28-2.5c3.09,0,5.93.53,8.53,1.6s4.71,2.64,6.33,4.72,2.51,4.64,2.67,7.69h-8.44c-.21-1.6-.74-2.93-1.57-3.98s-1.89-1.85-3.18-2.37-2.73-.79-4.34-.79c-2.58,0-4.65.62-6.23,1.88s-2.71,2.89-3.43,4.91-1.07,4.23-1.07,6.64.36,4.59,1.07,6.62,1.86,3.66,3.43,4.89,3.65,1.85,6.23,1.85c2.71,0,4.86-.7,6.43-2.09s2.48-3.38,2.71-5.96h8.44c-.23,3.22-1.08,5.94-2.55,8.16s-3.47,3.9-6.01,5.04-5.55,1.71-9.02,1.71Z"/>
    <path d="M611.65,971.97v-39.43h8.23v15.41h17.87v-15.41h8.23v39.43h-8.23v-16.76h-17.87v16.76h-8.23Z"/>
    <path d="M655.39,971.97v-39.43h8.23v39.43h-8.23Z"/>
    <path d="M668.4,971.97l14.18-39.43h8.64l14.21,39.43h-8.58l-2.81-8.67h-14.24l-2.9,8.67h-8.5ZM681.76,956.47h10.25l-5.13-15.79-5.13,15.79Z"/>
  </g>
</svg>