<?xml version="1.0" encoding="UTF-8"?>
<svg id="Layer_1" data-name="Layer 1" xmlns="http://www.w3.org/2000/svg" width="1600" height="900" xmlns:xlink="http://www.w3.org/1999/xlink" viewBox="0 0 1600 900">
  <defs>
    <linearGradient id="linear-gradient" x1="0" y1="889.81" x2="1600" y2="889.81" gradientUnits="userSpaceOnUse">
      <stop offset="0" stop-color="#0f6bff"/>
      <stop offset="1" stop-color="#000025"/>
    </linearGradient>
  </defs>
  <rect x="1.68" y=".85" width="1598.32" height="899.04" fill="#e07260"/>
  <path d="M110.65,45.37c-4.95,0-9.36,2.24-12.34,5.72-.27-.35-.58-.66-.89-.97-.93-.93-1.97-1.74-3.06-2.4-2.55-1.55-5.49-2.32-8.39-2.36h0c-4.14,0-8.32,1.59-11.45,4.76-3.17,3.17-4.76,7.31-4.76,11.45,0,2.9.77,5.84,2.32,8.39.66,1.08,1.47,2.13,2.4,3.06.93.93,1.97,1.74,3.06,2.4,6.23,3.79,14.5,2.98,19.88-2.4.31-.31.62-.66.89-.97,2.98,3.48,7.39,5.72,12.34,5.72,8.93,0,16.2-7.27,16.2-16.2,0-8.93-7.27-16.2-16.2-16.2h0ZM77.47,61.58c0-2.17.81-4.33,2.48-5.99,1.66-1.66,3.83-2.48,5.99-2.48h0c.89,0,1.78.15,2.63.43l-6.69,6.69-3.98,3.98c-.27-.85-.43-1.74-.43-2.63ZM91.97,67.57c-2.32,2.32-5.69,3.02-8.62,2.09l4.14-4.14,6.54-6.54.77-.77c-.23,1.08-.35,2.24-.35,3.4,0,2.17-.81,4.33-2.48,5.99v-.04ZM110.65,70.09c-4.68,0-8.51-3.79-8.51-8.51s3.79-8.51,8.51-8.51c4.72,0,8.51,3.79,8.51,8.51,0,4.72-3.79,8.51-8.51,8.51Z" fill="#333"/>
  <polygon points="57.12 58.83 41.19 34.12 31.91 34.12 31.91 77.51 41.19 77.51 41.19 50.36 58.55 77.51 66.44 77.51 66.44 34.12 57.12 34.12 57.12 58.83" fill="#333"/>
  <polygon points="157.45 58.83 141.51 34.12 132.23 34.12 132.23 77.51 141.51 77.51 141.51 50.36 158.88 77.51 166.73 77.51 166.73 34.12 157.45 34.12 157.45 58.83" fill="#0f6bff"/>
  <path d="M194.3,47.85c-2.32-1.43-4.99-2.13-7.97-2.13s-5.92.7-8.35,2.09c-2.44,1.39-4.33,3.33-5.69,5.76-1.35,2.44-2.05,5.18-2.05,8.16,0,2.98.7,5.72,2.09,8.16,1.39,2.44,3.33,4.37,5.84,5.76,2.51,1.39,5.41,2.09,8.74,2.09,3.33,0,5.53-.54,7.77-1.66,2.24-1.08,4.1-2.67,5.53-4.76l-6.57-3.91c-.7.89-1.62,1.62-2.82,2.13-1.2.54-2.44.81-3.67.81-2.09,0-3.75-.46-5.07-1.35-1.31-.93-2.32-2.32-3.09-4.18h22.59c.15-.93.23-1.97.23-3.09,0-2.98-.66-5.69-1.93-8.12-1.31-2.44-3.13-4.37-5.45-5.8l-.12.04ZM178.76,58.1c.08-1.35.85-2.48,2.32-3.44,1.47-.97,3.21-1.43,5.18-1.43,1.97,0,3.52.43,4.83,1.28s2.13,2.05,2.4,3.6h-14.77s.04,0,.04,0Z" fill="#0f6bff"/>
  <path d="M232.4,47.81c-2.32-1.39-5.11-2.09-8.35-2.09-3.25,0-3.33.27-4.91.85-1.59.54-3.06,1.35-4.45,2.4v-2.4h-8.86s0,43.39,0,43.39h8.86s0-14.7,0-14.7c1.35,1.04,2.86,1.82,4.45,2.4,1.62.54,3.25.85,4.91.85,3.21,0,5.99-.7,8.35-2.13,2.32-1.43,4.14-3.36,5.38-5.84s1.86-5.3,1.86-8.43-.62-5.96-1.86-8.39c-1.24-2.48-3.02-4.41-5.38-5.8v-.12ZM228.53,67.69c-1.47,1.43-3.36,2.13-5.69,2.13s-4.29-.7-5.84-2.13c-1.55-1.43-2.32-3.29-2.32-5.61s.77-4.22,2.36-5.69c1.59-1.47,3.52-2.24,5.84-2.24s4.22.73,5.69,2.17c1.47,1.43,2.2,3.36,2.2,5.69,0,2.32-.73,4.25-2.2,5.69h-.04Z" fill="#0f6bff"/>
  <path d="M264.73,47.04c-1.86-.77-3.64-1.16-5.41-1.16-2.63,0-5.11.97-7.39,2.86v-14.62s-8.86,0-8.86,0v43.39s8.86,0,8.86,0v-18.95c.23-1.7.85-2.94,1.78-3.75.97-.81,2.05-1.2,3.36-1.2,1.31,0,2.86.43,3.98,1.31,1.12.89,1.66,2.32,1.66,4.29v18.29s8.86,0,8.86,0v-18.53c-.04-3.29-.73-5.92-2.09-7.89-1.35-1.93-2.94-3.29-4.76-4.06Z" fill="#0f6bff"/>
  <path d="M299.07,47.85c-2.44-1.43-5.11-2.17-7.97-2.17-2.86,0-5.61.73-8.04,2.17-2.44,1.43-4.41,3.36-5.84,5.84-1.43,2.44-2.17,5.14-2.17,8.04s.73,5.53,2.17,8.01c1.43,2.48,3.36,4.41,5.84,5.84,2.44,1.43,5.14,2.17,8.04,2.17,2.9,0,5.53-.73,7.97-2.17s4.37-3.4,5.84-5.84c1.43-2.48,2.17-5.14,2.17-8.01s-.73-5.61-2.17-8.04c-1.43-2.44-3.36-4.37-5.84-5.84ZM296.25,66.91c-1.47,1.43-3.21,2.17-5.22,2.17s-3.75-.73-5.18-2.17c-1.43-1.43-2.17-3.17-2.17-5.18s.73-3.75,2.17-5.22c1.43-1.47,3.17-2.17,5.18-2.17s3.75.73,5.22,2.17c1.47,1.47,2.17,3.21,2.17,5.22s-.73,3.75-2.17,5.18Z" fill="#0f6bff"/>
  <path d="M335.7,62.23c-1.2-1.35-2.59-2.32-4.14-2.9-1.59-.58-3.56-1.12-5.96-1.62-1.86-.35-3.21-.73-4.06-1.04-.85-.35-1.28-.85-1.28-1.55s.35-1.39,1.04-1.86c.7-.46,1.62-.7,2.78-.7s2.4.23,3.25.73c.81.5,1.47,1.24,1.97,2.24l7.04-3.44c-1.2-2.05-2.9-3.64-5.03-4.72-2.13-1.08-4.56-1.62-7.23-1.62s-4.37.39-6.27,1.16c-1.93.77-3.44,1.9-4.56,3.36-1.12,1.47-1.7,3.21-1.7,5.18s.58,3.71,1.7,4.95c1.12,1.24,2.48,2.13,4.06,2.75,1.59.58,3.56,1.16,5.88,1.66,2.05.46,3.56.89,4.52,1.28s1.43,1.01,1.43,1.82-.5,1.66-1.55,2.17c-1.04.5-2.24.77-3.6.77-3.36,0-5.53-1.28-6.5-3.87l-7.12,3.64c1.16,2.36,2.9,4.1,5.22,5.3,2.32,1.2,5.11,1.78,8.39,1.78s4.6-.39,6.69-1.12c2.05-.73,3.71-1.86,4.99-3.33,1.24-1.47,1.9-3.25,1.9-5.3s-.58-4.25-1.78-5.61l-.12-.12Z" fill="#0f6bff"/>
  <rect y="879.74" width="1600" height="20.14" fill="url(#linear-gradient)"/>
</svg>