<?xml version="1.0" encoding="UTF-8"?>
<svg id="a" data-name="Layer 1" xmlns="http://www.w3.org/2000/svg" width="764" height="400" xmlns:xlink="http://www.w3.org/1999/xlink" viewBox="0 0 764 400">
  <defs>
    <linearGradient id="b" x1="0" y1="397.63" x2="764" y2="397.63" gradientUnits="userSpaceOnUse">
      <stop offset="0" stop-color="#0f6bff"/>
      <stop offset="1" stop-color="#000025"/>
    </linearGradient>
  </defs>
  <g>
    <path d="M44.4,101.2v-23h4.7l10.58,15.5v-15.5h4.53v23h-4.72l-10.6-15.6v15.6h-4.49Z"/>
    <path d="M77.04,101.51c-1.86,0-3.42-.34-4.68-1.03-1.27-.69-2.22-1.68-2.87-2.98-.65-1.3-.97-2.86-.97-4.68s.32-3.29.95-4.56c.63-1.28,1.56-2.26,2.79-2.95,1.22-.69,2.73-1.03,4.52-1.03,2.48,0,4.45.73,5.89,2.18,1.44,1.45,2.16,3.52,2.16,6.21,0,.14,0,.32-.02.56-.01.23-.03.41-.05.54h-11.71c.02.79.17,1.52.44,2.21.27.68.69,1.23,1.27,1.65.58.42,1.34.62,2.29.62s1.77-.21,2.36-.64c.59-.43.89-1.06.91-1.91h4.46c-.06,1.3-.41,2.38-1.07,3.25-.66.87-1.55,1.51-2.68,1.94-1.13.43-2.46.64-3.97.64ZM73.09,90.88h7.23c-.03-1.16-.38-2.03-1.03-2.61-.66-.57-1.5-.86-2.52-.86s-1.91.3-2.57.89c-.67.59-1.03,1.45-1.1,2.58Z"/>
    <path d="M91.6,101.2l-5.25-16.68h4.6l3.21,11.78,3.21-11.78h4.75l3.28,11.76,3.16-11.76h4.29l-5.25,16.68h-4.63l-3.37-12-3.4,12h-4.62Z"/>
    <path d="M122.79,101.2v-23h9.02c1.51,0,2.9.27,4.14.8,1.25.54,2.24,1.35,2.98,2.44.74,1.09,1.11,2.49,1.11,4.19s-.37,3.06-1.11,4.15c-.74,1.09-1.73,1.91-2.98,2.44-1.25.53-2.63.79-4.14.79h-4.22v8.19h-4.8ZM127.59,89.15h3.78c1.12,0,2.02-.3,2.71-.89s1.03-1.47,1.03-2.63-.35-2.1-1.06-2.68c-.71-.58-1.6-.87-2.68-.87h-3.78v7.08Z"/>
    <path d="M143.31,101.2v-16.68h4.34l.09,2.89c.43-1,1.08-1.77,1.95-2.31.87-.54,1.91-.8,3.14-.8h.34v3.81h-.43c-.67,0-1.32.06-1.93.18-.62.12-1.17.32-1.68.62-.5.29-.93.69-1.3,1.21v11.09h-4.53Z"/>
    <path d="M163.41,101.47c-1.69,0-3.17-.34-4.44-1.01s-2.25-1.65-2.95-2.92c-.7-1.28-1.04-2.82-1.04-4.63s.35-3.42,1.04-4.71c.69-1.29,1.68-2.28,2.95-2.96s2.75-1.02,4.44-1.02,3.2.34,4.47,1.02c1.27.68,2.26,1.66,2.96,2.96.71,1.29,1.06,2.86,1.06,4.71s-.35,3.36-1.06,4.63c-.71,1.28-1.7,2.25-2.96,2.92-1.27.67-2.76,1.01-4.47,1.01ZM163.41,98.02c.99,0,1.77-.23,2.33-.69.56-.46.96-1.08,1.2-1.85s.35-1.63.35-2.56-.12-1.83-.35-2.62-.63-1.41-1.2-1.88c-.56-.47-1.34-.7-2.33-.7s-1.73.23-2.28.7c-.55.47-.94,1.09-1.17,1.88-.23.79-.34,1.66-.34,2.62s.11,1.79.34,2.56c.23.77.62,1.39,1.17,1.85.55.46,1.31.69,2.28.69Z"/>
    <path d="M172.73,107.32v-3.57h.97c.74,0,1.29-.18,1.66-.53.36-.35.55-.92.55-1.69v-17h4.53v16.65c0,1.98-.5,3.5-1.49,4.56-.99,1.06-2.54,1.59-4.65,1.59h-1.57ZM178.18,82.33c-.83,0-1.47-.21-1.91-.63s-.66-.95-.66-1.57.22-1.18.66-1.59,1.07-.62,1.91-.62,1.47.21,1.91.62c.44.41.66.94.66,1.59s-.22,1.15-.66,1.57c-.44.42-1.07.63-1.91.63Z"/>
    <path d="M192.96,101.51c-1.86,0-3.42-.34-4.68-1.03-1.27-.69-2.22-1.68-2.87-2.98-.65-1.3-.97-2.86-.97-4.68s.32-3.29.95-4.56c.63-1.28,1.56-2.26,2.79-2.95,1.22-.69,2.73-1.03,4.52-1.03,2.48,0,4.45.73,5.89,2.18,1.44,1.45,2.16,3.52,2.16,6.21,0,.14,0,.32-.02.56-.01.23-.03.41-.05.54h-11.71c.02.79.17,1.52.44,2.21.27.68.69,1.23,1.27,1.65.58.42,1.34.62,2.29.62s1.77-.21,2.36-.64c.59-.43.89-1.06.91-1.91h4.46c-.06,1.3-.41,2.38-1.07,3.25-.66.87-1.55,1.51-2.68,1.94-1.13.43-2.46.64-3.97.64ZM189.01,90.88h7.23c-.03-1.16-.38-2.03-1.03-2.61-.66-.57-1.5-.86-2.52-.86s-1.91.3-2.57.89c-.67.59-1.03,1.45-1.1,2.58Z"/>
    <path d="M212.24,101.44c-1.55,0-2.96-.3-4.22-.89-1.27-.59-2.27-1.51-3.01-2.77-.74-1.25-1.11-2.87-1.11-4.85s.35-3.61,1.06-4.89c.71-1.28,1.69-2.22,2.95-2.85,1.26-.62,2.7-.93,4.33-.93,1.41,0,2.69.23,3.83.7,1.14.47,2.04,1.17,2.72,2.09.67.93,1.01,2.1,1.03,3.51h-4.39c-.02-.85-.31-1.54-.85-2.04s-1.32-.76-2.31-.76c-1.31,0-2.26.45-2.85,1.35-.59.9-.88,2.17-.88,3.81,0,1.06.13,1.96.38,2.71.26.75.66,1.32,1.21,1.71.55.39,1.26.59,2.13.59,1.01,0,1.81-.28,2.4-.83s.89-1.34.91-2.35h4.39c-.03,1.45-.38,2.67-1.05,3.66-.67.99-1.58,1.74-2.73,2.26-1.15.51-2.47.77-3.95.77Z"/>
    <path d="M231.09,101.2c-1.69,0-2.99-.2-3.92-.61s-1.58-1.03-1.94-1.88c-.37-.85-.55-1.96-.55-3.32v-7.38h-2.77v-3.49h2.77v-3.93h4.53v3.93h3.64v3.49h-3.64v7.11c0,.88.12,1.53.37,1.95.24.42.8.63,1.67.63h1.61v3.5h-1.76Z"/>
    <path d="M241.14,101.2l8.27-23h5.04l8.29,23h-5.01l-1.64-5.06h-8.31l-1.69,5.06h-4.96ZM248.93,92.16h5.98l-2.99-9.21-2.99,9.21Z"/>
    <path d="M265.51,101.2v-16.68h4.36l.08,2.5c.56-.72,1.29-1.35,2.2-1.91.91-.55,2.1-.83,3.55-.83,1.7,0,3.01.52,3.95,1.55.93,1.03,1.4,2.54,1.4,4.52v10.85h-4.49v-10.27c0-.6-.09-1.13-.26-1.59-.17-.46-.44-.81-.81-1.06-.37-.25-.86-.38-1.46-.38-.9,0-1.67.21-2.32.63s-1.21.93-1.68,1.54v11.12h-4.53Z"/>
    <path d="M285.78,101.2v-16.68h4.36l.08,2.5c.56-.72,1.29-1.35,2.2-1.91.91-.55,2.1-.83,3.55-.83,1.7,0,3.01.52,3.95,1.55.93,1.03,1.4,2.54,1.4,4.52v10.85h-4.49v-10.27c0-.6-.09-1.13-.26-1.59-.17-.46-.44-.81-.81-1.06-.37-.25-.86-.38-1.46-.38-.9,0-1.67.21-2.32.63s-1.21.93-1.68,1.54v11.12h-4.53Z"/>
    <path d="M313.61,101.47c-1.69,0-3.17-.34-4.44-1.01s-2.25-1.65-2.95-2.92c-.7-1.28-1.04-2.82-1.04-4.63s.35-3.42,1.04-4.71c.69-1.29,1.68-2.28,2.95-2.96s2.75-1.02,4.44-1.02,3.2.34,4.47,1.02c1.27.68,2.26,1.66,2.96,2.96.71,1.29,1.06,2.86,1.06,4.71s-.35,3.36-1.06,4.63c-.71,1.28-1.7,2.25-2.96,2.92-1.27.67-2.76,1.01-4.47,1.01ZM313.61,98.02c.99,0,1.77-.23,2.33-.69.56-.46.96-1.08,1.2-1.85s.35-1.63.35-2.56-.12-1.83-.35-2.62-.63-1.41-1.2-1.88c-.56-.47-1.34-.7-2.33-.7s-1.73.23-2.28.7c-.55.47-.94,1.09-1.17,1.88-.23.79-.34,1.66-.34,2.62s.11,1.79.34,2.56c.23.77.62,1.39,1.17,1.85.55.46,1.31.69,2.28.69Z"/>
    <path d="M330.96,101.42c-1.69,0-2.99-.52-3.91-1.56-.92-1.04-1.38-2.53-1.38-4.45v-10.89h4.53v10.34c0,.57.08,1.07.25,1.51.17.44.44.78.82,1.02.38.24.89.36,1.51.36.91,0,1.69-.2,2.33-.61s1.21-.9,1.68-1.48v-11.14h4.53v16.68h-4.38l-.07-2.51c-.56.71-1.32,1.34-2.29,1.9-.97.56-2.18.84-3.62.84Z"/>
    <path d="M346.17,101.2v-16.68h4.36l.08,2.5c.56-.72,1.29-1.35,2.2-1.91.91-.55,2.1-.83,3.55-.83,1.7,0,3.01.52,3.95,1.55.93,1.03,1.4,2.54,1.4,4.52v10.85h-4.49v-10.27c0-.6-.09-1.13-.26-1.59-.17-.46-.44-.81-.81-1.06-.37-.25-.86-.38-1.46-.38-.9,0-1.67.21-2.32.63s-1.21.93-1.68,1.54v11.12h-4.53Z"/>
    <path d="M373.92,101.44c-1.55,0-2.96-.3-4.22-.89-1.27-.59-2.27-1.51-3.01-2.77-.74-1.25-1.11-2.87-1.11-4.85s.35-3.61,1.06-4.89c.71-1.28,1.69-2.22,2.95-2.85,1.26-.62,2.7-.93,4.33-.93,1.41,0,2.69.23,3.83.7,1.14.47,2.04,1.17,2.72,2.09.67.93,1.01,2.1,1.03,3.51h-4.39c-.02-.85-.31-1.54-.85-2.04s-1.32-.76-2.31-.76c-1.31,0-2.26.45-2.85,1.35-.59.9-.88,2.17-.88,3.81,0,1.06.13,1.96.38,2.71.26.75.66,1.32,1.21,1.71.55.39,1.26.59,2.13.59,1.01,0,1.81-.28,2.4-.83s.89-1.34.91-2.35h4.39c-.03,1.45-.38,2.67-1.05,3.66-.67.99-1.58,1.74-2.73,2.26-1.15.51-2.47.77-3.95.77Z"/>
    <path d="M393.32,101.51c-1.86,0-3.42-.34-4.68-1.03-1.27-.69-2.22-1.68-2.87-2.98-.65-1.3-.97-2.86-.97-4.68s.32-3.29.95-4.56c.63-1.28,1.56-2.26,2.79-2.95,1.22-.69,2.73-1.03,4.52-1.03,2.48,0,4.45.73,5.89,2.18,1.44,1.45,2.16,3.52,2.16,6.21,0,.14,0,.32-.02.56-.01.23-.03.41-.05.54h-11.71c.02.79.17,1.52.44,2.21.27.68.69,1.23,1.27,1.65.58.42,1.34.62,2.29.62s1.77-.21,2.36-.64c.59-.43.89-1.06.91-1.91h4.46c-.06,1.3-.41,2.38-1.07,3.25-.66.87-1.55,1.51-2.68,1.94-1.13.43-2.46.64-3.97.64ZM389.37,90.88h7.23c-.03-1.16-.38-2.03-1.03-2.61-.66-.57-1.5-.86-2.52-.86s-1.91.3-2.57.89c-.67.59-1.03,1.45-1.1,2.58Z"/>
    <path d="M405.11,101.2v-16.68h4.36l.08,2.5c.55-.72,1.3-1.35,2.26-1.91.96-.55,2.15-.83,3.56-.83,1.68,0,2.96.53,3.85,1.58.89,1.05,1.34,2.55,1.34,4.49v10.85h-4.53v-10.27c0-.6-.08-1.13-.25-1.59-.17-.46-.43-.81-.8-1.06-.37-.25-.85-.38-1.44-.38-.88,0-1.63.21-2.26.63-.63.42-1.18.93-1.66,1.54v11.12h-4.53ZM427,101.2v-10.27c0-.6-.08-1.13-.25-1.59-.17-.46-.43-.81-.8-1.06-.37-.25-.85-.38-1.44-.38-.88,0-1.63.19-2.26.58-.63.39-1.2.87-1.7,1.45l-.55-2.8c.72-.76,1.6-1.43,2.64-2,1.04-.57,2.27-.85,3.68-.85,1.66,0,2.95.53,3.85,1.58.91,1.05,1.36,2.55,1.36,4.49v10.85h-4.53Z"/>
    <path d="M443.91,101.51c-1.86,0-3.42-.34-4.68-1.03-1.27-.69-2.22-1.68-2.87-2.98-.65-1.3-.97-2.86-.97-4.68s.32-3.29.95-4.56c.63-1.28,1.56-2.26,2.79-2.95,1.22-.69,2.73-1.03,4.52-1.03,2.48,0,4.45.73,5.89,2.18,1.44,1.45,2.16,3.52,2.16,6.21,0,.14,0,.32-.02.56-.01.23-.03.41-.05.54h-11.71c.02.79.17,1.52.44,2.21.27.68.69,1.23,1.27,1.65.58.42,1.34.62,2.29.62s1.77-.21,2.36-.64c.59-.43.89-1.06.91-1.91h4.46c-.06,1.3-.41,2.38-1.07,3.25-.66.87-1.55,1.51-2.68,1.94-1.13.43-2.46.64-3.97.64ZM439.96,90.88h7.23c-.03-1.16-.38-2.03-1.03-2.61-.66-.57-1.5-.86-2.52-.86s-1.91.3-2.57.89c-.67.59-1.03,1.45-1.1,2.58Z"/>
    <path d="M455.7,101.2v-16.68h4.36l.08,2.5c.56-.72,1.29-1.35,2.2-1.91.91-.55,2.1-.83,3.55-.83,1.7,0,3.01.52,3.95,1.55.93,1.03,1.4,2.54,1.4,4.52v10.85h-4.49v-10.27c0-.6-.09-1.13-.26-1.59-.17-.46-.44-.81-.81-1.06-.37-.25-.86-.38-1.46-.38-.9,0-1.67.21-2.32.63s-1.21.93-1.68,1.54v11.12h-4.53Z"/>
    <path d="M483.09,101.2c-1.69,0-2.99-.2-3.92-.61s-1.58-1.03-1.94-1.88c-.37-.85-.55-1.96-.55-3.32v-7.38h-2.77v-3.49h2.77v-3.93h4.53v3.93h3.64v3.49h-3.64v7.11c0,.88.12,1.53.37,1.95.24.42.8.63,1.67.63h1.61v3.5h-1.76Z"/>
  </g>
  <polyline points="0 0 764 0 764 400 0 400" fill="#fff"/>
  <path d="M61.1,22.05c-2.86,0-5.42,1.3-7.14,3.31-.16-.2-.34-.38-.51-.56-.54-.54-1.14-1.01-1.77-1.39-1.48-.9-3.18-1.34-4.86-1.37h0c-2.39,0-4.81.92-6.62,2.75-1.84,1.84-2.75,4.23-2.75,6.62,0,1.68.45,3.38,1.34,4.86.38.63.85,1.23,1.39,1.77.54.54,1.14,1.01,1.77,1.39,3.6,2.19,8.39,1.72,11.5-1.39.18-.18.36-.38.51-.56,1.72,2.01,4.27,3.31,7.14,3.31,5.17,0,9.38-4.21,9.38-9.38s-4.21-9.38-9.38-9.38h0ZM41.9,31.43c0-1.25.47-2.51,1.43-3.47.96-.96,2.22-1.43,3.47-1.43h0c.51,0,1.03.09,1.52.25l-3.87,3.87-2.31,2.31c-.16-.49-.25-1.01-.25-1.52ZM50.29,34.9c-1.34,1.34-3.29,1.75-4.99,1.21l2.39-2.39,3.78-3.78.45-.45c-.13.63-.2,1.3-.2,1.97,0,1.25-.47,2.51-1.43,3.47v-.02ZM61.1,36.35c-2.71,0-4.92-2.19-4.92-4.92s2.19-4.92,4.92-4.92,4.92,2.19,4.92,4.92-2.19,4.92-4.92,4.92Z" fill="#333"/>
  <polygon points="30.13 29.84 20.91 15.54 15.54 15.54 15.54 40.65 20.91 40.65 20.91 24.94 30.96 40.65 35.52 40.65 35.52 15.54 30.13 15.54 30.13 29.84" fill="#333"/>
  <polygon points="88.19 29.84 78.96 15.54 73.59 15.54 73.59 40.65 78.96 40.65 78.96 24.94 89.01 40.65 93.56 40.65 93.56 15.54 88.19 15.54 88.19 29.84" fill="#0f6bff"/>
  <path d="M109.52,23.48c-1.34-.83-2.89-1.23-4.61-1.23s-3.42.4-4.83,1.21c-1.41.81-2.51,1.92-3.29,3.33-.78,1.41-1.19,3-1.19,4.72s.4,3.31,1.21,4.72c.81,1.41,1.92,2.53,3.38,3.33s3.13,1.21,5.06,1.21,3.2-.31,4.5-.96c1.3-.63,2.37-1.54,3.2-2.75l-3.8-2.26c-.4.51-.94.94-1.63,1.23-.69.31-1.41.47-2.13.47-1.21,0-2.17-.27-2.93-.78-.76-.54-1.34-1.34-1.79-2.42h13.07c.09-.54.13-1.14.13-1.79,0-1.72-.38-3.29-1.12-4.7-.76-1.41-1.81-2.53-3.16-3.36l-.07.02ZM100.52,29.41c.04-.78.49-1.43,1.34-1.99s1.86-.83,3-.83,2.04.25,2.8.74,1.23,1.19,1.39,2.08h-8.55.02Z" fill="#0f6bff"/>
  <path d="M131.56,23.46c-1.34-.81-2.95-1.21-4.83-1.21s-1.92.16-2.84.49c-.92.31-1.77.78-2.57,1.39v-1.39h-5.13v25.11h5.13v-8.5c.78.6,1.66,1.05,2.57,1.39.94.31,1.88.49,2.84.49,1.86,0,3.47-.4,4.83-1.23,1.34-.83,2.39-1.95,3.11-3.38.72-1.43,1.07-3.07,1.07-4.88s-.36-3.45-1.07-4.86c-.72-1.43-1.75-2.55-3.11-3.36v-.07ZM129.32,34.96c-.85.83-1.95,1.23-3.29,1.23s-2.48-.4-3.38-1.23c-.9-.83-1.34-1.9-1.34-3.25s.45-2.44,1.37-3.29,2.04-1.3,3.38-1.3,2.44.43,3.29,1.25c.85.83,1.28,1.95,1.28,3.29s-.43,2.46-1.28,3.29h-.02Z" fill="#0f6bff"/>
  <path d="M150.27,23.01c-1.07-.45-2.1-.67-3.13-.67-1.52,0-2.95.56-4.27,1.66v-8.46h-5.13v25.11h5.13v-10.97c.13-.98.49-1.7,1.03-2.17.56-.47,1.19-.69,1.95-.69s1.66.25,2.31.76c.65.51.96,1.34.96,2.48v10.59h5.13v-10.72c-.02-1.9-.43-3.42-1.21-4.57-.78-1.12-1.7-1.9-2.75-2.35Z" fill="#0f6bff"/>
  <path d="M170.15,23.48c-1.41-.83-2.95-1.25-4.61-1.25s-3.25.43-4.66,1.25c-1.41.83-2.55,1.95-3.38,3.38-.83,1.41-1.25,2.98-1.25,4.66s.43,3.2,1.25,4.63c.83,1.43,1.95,2.55,3.38,3.38,1.41.83,2.98,1.25,4.66,1.25s3.2-.43,4.61-1.25c1.41-.83,2.53-1.97,3.38-3.38.83-1.43,1.25-2.98,1.25-4.63s-.43-3.25-1.25-4.66c-.83-1.41-1.95-2.53-3.38-3.38ZM168.51,34.52c-.85.83-1.86,1.25-3.02,1.25s-2.17-.43-3-1.25c-.83-.83-1.25-1.84-1.25-3s.43-2.17,1.25-3.02c.83-.85,1.84-1.25,3-1.25s2.17.43,3.02,1.25c.85.85,1.25,1.86,1.25,3.02s-.43,2.17-1.25,3Z" fill="#0f6bff"/>
  <path d="M191.34,31.81c-.69-.78-1.5-1.34-2.39-1.68-.92-.34-2.06-.65-3.45-.94-1.07-.2-1.86-.43-2.35-.6-.49-.2-.74-.49-.74-.9s.2-.81.6-1.07c.4-.27.94-.4,1.61-.4s1.39.13,1.88.43c.47.29.85.72,1.14,1.3l4.07-1.99c-.69-1.19-1.68-2.1-2.91-2.73-1.23-.63-2.64-.94-4.19-.94s-2.53.22-3.63.67c-1.12.45-1.99,1.1-2.64,1.95-.65.85-.98,1.86-.98,3s.34,2.15.98,2.86c.65.72,1.43,1.23,2.35,1.59.92.34,2.06.67,3.4.96,1.19.27,2.06.51,2.62.74s.83.58.83,1.05-.29.96-.9,1.25c-.6.29-1.3.45-2.08.45-1.95,0-3.2-.74-3.76-2.24l-4.12,2.1c.67,1.37,1.68,2.37,3.02,3.07,1.34.69,2.95,1.03,4.86,1.03s2.66-.22,3.87-.65c1.19-.43,2.15-1.07,2.89-1.92.72-.85,1.1-1.88,1.1-3.07s-.34-2.46-1.03-3.25l-.07-.07Z" fill="#0f6bff"/>
  <rect y="395.27" width="764" height="4.73" fill="url(#b)"/>
  <g>
    <path d="M52.83,146.11c-1.7,0-3.13-.36-4.3-1.07s-2.04-1.71-2.64-2.97c-.6-1.26-.9-2.72-.9-4.38s.3-3.12.9-4.39c.6-1.27,1.48-2.26,2.64-2.98s2.6-1.07,4.3-1.07c1.12,0,2.18.2,3.18.59,1,.39,1.83.99,2.49,1.79.66.8,1.05,1.81,1.17,3.03h-2.21c-.1-.82-.37-1.5-.82-2.03-.45-.53-1.01-.93-1.67-1.19-.66-.26-1.37-.39-2.13-.39-1.32,0-2.39.3-3.21.9-.82.6-1.41,1.4-1.79,2.41-.37,1-.56,2.12-.56,3.34s.19,2.33.56,3.33c.38,1,.97,1.8,1.79,2.39s1.89.88,3.21.88,2.42-.33,3.25-.99,1.31-1.64,1.44-2.95h2.22c-.13,1.29-.51,2.37-1.13,3.22-.63.85-1.44,1.49-2.43,1.91-.99.42-2.11.63-3.34.63Z"/>
    <path d="M67.82,146.09c-1.16,0-2.16-.25-2.99-.74-.83-.49-1.46-1.2-1.9-2.11-.44-.92-.65-2-.65-3.27s.22-2.4.65-3.33c.43-.92,1.07-1.63,1.9-2.13s1.83-.75,2.99-.75,2.2.25,3.04.75,1.49,1.21,1.94,2.13.68,2.03.68,3.33-.23,2.35-.68,3.27c-.45.92-1.1,1.62-1.94,2.11-.84.49-1.86.74-3.04.74ZM67.82,144.47c.88,0,1.58-.19,2.1-.58.52-.39.89-.92,1.12-1.6.23-.68.34-1.45.34-2.31s-.12-1.66-.34-2.36c-.23-.69-.6-1.24-1.12-1.63-.52-.39-1.22-.59-2.1-.59s-1.53.2-2.03.59-.86.94-1.08,1.63c-.22.69-.33,1.48-.33,2.36s.11,1.63.33,2.31c.22.68.58,1.21,1.08,1.6.5.39,1.18.58,2.03.58Z"/>
    <path d="M76.74,145.89v-11.89h1.95l.07,1.83c.37-.48.89-.93,1.57-1.36.68-.43,1.56-.64,2.62-.64,1.3,0,2.25.38,2.84,1.15.59.77.89,1.85.89,3.24v7.67h-2.04v-7.37c0-.58-.06-1.09-.18-1.54-.12-.45-.34-.8-.65-1.06-.31-.26-.77-.38-1.36-.38-.89,0-1.63.2-2.23.6-.6.4-1.09.84-1.45,1.32v8.42h-2.04Z"/>
    <path d="M94.74,146.11c-.67,0-1.3-.07-1.9-.22-.6-.15-1.12-.38-1.58-.7s-.81-.73-1.07-1.25-.38-1.14-.38-1.87h1.97c0,.93.29,1.58.86,1.96.57.38,1.29.57,2.15.57.77,0,1.41-.15,1.91-.45.5-.3.75-.79.75-1.47,0-.59-.23-1.02-.68-1.31s-1.25-.56-2.39-.83c-.93-.22-1.71-.47-2.34-.76-.63-.29-1.11-.66-1.43-1.1-.32-.44-.48-1-.48-1.68,0-.53.11-1,.34-1.4.22-.4.54-.74.94-1.01s.88-.47,1.42-.6c.54-.13,1.14-.2,1.77-.2s1.21.07,1.76.22c.55.15,1.03.38,1.45.68.42.31.75.71,1,1.2s.37,1.07.37,1.76h-1.98c0-.85-.25-1.44-.76-1.79-.5-.35-1.12-.53-1.84-.53s-1.33.13-1.78.39c-.46.26-.68.67-.68,1.22,0,.32.1.59.3.81s.54.42,1.03.59c.48.17,1.13.36,1.94.55.89.21,1.63.46,2.23.76.6.29,1.05.67,1.36,1.13.3.46.46,1.05.46,1.76,0,.62-.12,1.15-.36,1.61-.24.45-.57.82-1,1.11s-.93.5-1.5.64c-.57.14-1.19.21-1.86.21Z"/>
    <path d="M106.3,146.08c-1.38,0-2.37-.38-2.98-1.15-.61-.76-.92-1.82-.92-3.16v-7.76h2.05v7.48c0,.54.06,1.02.18,1.44.12.42.35.75.7.99s.83.35,1.48.35c.9,0,1.64-.18,2.25-.55.6-.37,1.09-.8,1.45-1.29v-8.42h2.05v11.89h-1.96l-.06-1.83c-.38.47-.92.93-1.62,1.36-.7.43-1.57.65-2.62.65Z"/>
    <path d="M119.91,145.89c-.97,0-1.71-.15-2.22-.46-.51-.3-.86-.74-1.05-1.32-.19-.57-.28-1.26-.28-2.07v-12.58h2.03v12.49c0,.74.1,1.31.29,1.7s.65.59,1.37.59h.55v1.66h-.68Z"/>
    <path d="M126.84,145.89c-.96,0-1.7-.15-2.21-.46-.51-.3-.87-.74-1.06-1.32-.19-.57-.29-1.26-.29-2.07v-6.4h-1.99v-1.65h1.99v-2.72h2.03v2.72h2.93v1.65h-2.93v6.3c0,.74.1,1.31.29,1.7s.65.59,1.37.59h1.29v1.65h-1.43Z"/>
    <path d="M131.97,131.77c-.38,0-.69-.11-.92-.33-.23-.22-.35-.51-.35-.85s.12-.62.35-.85.54-.34.92-.34.69.11.93.34.35.51.35.85-.12.62-.35.85c-.24.22-.54.33-.93.33ZM130.95,145.89v-11.89h2.04v11.89h-2.04Z"/>
    <path d="M136.92,145.89v-11.89h1.95l.07,1.83c.37-.48.89-.93,1.57-1.36.68-.43,1.56-.64,2.62-.64,1.3,0,2.25.38,2.84,1.15.59.77.89,1.85.89,3.24v7.67h-2.04v-7.37c0-.58-.06-1.09-.18-1.54-.12-.45-.34-.8-.65-1.06-.31-.26-.77-.38-1.36-.38-.89,0-1.63.2-2.23.6-.6.4-1.09.84-1.45,1.32v8.42h-2.04Z"/>
    <path d="M154.84,150.49c-1.29,0-2.31-.15-3.08-.44-.77-.29-1.32-.68-1.67-1.17s-.51-1.02-.51-1.59c0-.69.29-1.31.88-1.84s1.5-.92,2.73-1.14l.39-.67h1.5c1.95,0,3.35.26,4.19.78.84.52,1.26,1.32,1.26,2.4s-.48,1.95-1.43,2.64c-.96.69-2.38,1.03-4.25,1.03ZM153.17,145.2c-.77-.08-1.38-.24-1.83-.48-.44-.24-.76-.51-.95-.81-.19-.3-.28-.58-.28-.86,0-.4.16-.77.48-1.13.32-.35.85-.64,1.58-.87l1.01.63c-.43.12-.77.28-1.03.47-.25.19-.38.4-.38.64,0,.16.08.31.23.43.15.13.41.23.77.3.36.08.86.12,1.51.12l-1.12,1.55ZM154.7,142.05c-.98,0-1.8-.19-2.48-.57-.68-.38-1.2-.88-1.54-1.49s-.52-1.28-.52-2c0-.76.18-1.44.53-2.06.36-.62.88-1.11,1.56-1.48s1.53-.55,2.52-.55,1.86.18,2.54.55,1.18.86,1.51,1.48.5,1.31.5,2.06-.17,1.41-.51,2.02-.85,1.11-1.53,1.48c-.68.37-1.54.55-2.58.55ZM154.79,149.02c1.38,0,2.36-.2,2.92-.59.56-.39.85-.88.85-1.45,0-.34-.1-.64-.29-.88s-.54-.44-1.06-.58c-.52-.14-1.25-.21-2.2-.21h-1.81c-.55.14-.98.37-1.28.71-.3.33-.45.72-.45,1.16,0,.49.26.92.77,1.29.51.37,1.36.55,2.55.55ZM154.69,140.66c.78,0,1.43-.22,1.93-.67s.76-1.11.76-1.99-.24-1.6-.72-2.04c-.48-.44-1.12-.67-1.9-.67s-1.41.23-1.92.68c-.51.46-.76,1.13-.76,2.01s.26,1.56.79,2.01,1.13.67,1.83.67ZM157.8,135.21l-.83-.77c.35-.76.81-1.29,1.37-1.56.57-.28,1.3-.43,2.19-.45v1.72c-.57,0-1.09.06-1.57.18s-.87.41-1.17.88Z"/>
    <path d="M171.86,145.89c-.96,0-1.7-.15-2.21-.46-.51-.3-.87-.74-1.06-1.32-.19-.57-.29-1.26-.29-2.07v-6.4h-1.99v-1.65h1.99v-2.72h2.03v2.72h2.93v1.65h-2.93v6.3c0,.74.1,1.31.29,1.7s.65.59,1.37.59h1.29v1.65h-1.43Z"/>
    <path d="M175.97,145.89v-16.43h2.03v6.37c.37-.48.89-.93,1.57-1.36.68-.43,1.55-.64,2.61-.64,1.34,0,2.29.38,2.88,1.15s.87,1.85.87,3.25v7.67h-2.04v-7.39c0-.57-.06-1.08-.18-1.53-.12-.45-.34-.8-.65-1.06-.32-.26-.77-.38-1.37-.38-.89,0-1.63.2-2.23.6-.6.4-1.09.84-1.45,1.32v8.42h-2.04Z"/>
    <path d="M194.7,146.11c-1.29,0-2.35-.27-3.18-.81-.83-.54-1.44-1.28-1.84-2.21-.4-.93-.6-1.98-.6-3.14s.19-2.28.58-3.2.98-1.65,1.77-2.17c.79-.52,1.8-.78,3.02-.78,1.62,0,2.89.49,3.81,1.46s1.38,2.38,1.38,4.21c0,.12,0,.27-.01.43,0,.17-.02.29-.04.36h-8.47c0,.77.13,1.48.37,2.13.24.65.62,1.17,1.14,1.56s1.21.59,2.06.59c.91,0,1.62-.21,2.14-.64.51-.43.78-1.04.81-1.85h2.01c-.03.84-.24,1.56-.65,2.17-.41.61-.98,1.07-1.71,1.4-.73.33-1.6.49-2.6.49ZM191.13,138.78h6.49c-.02-1.11-.31-1.95-.87-2.54-.55-.59-1.32-.88-2.31-.88s-1.77.29-2.34.87c-.56.58-.89,1.43-.98,2.54Z"/>
    <path d="M206.14,145.89l6.15-16.43h2.32l6.07,16.43h-2.27l-1.56-4.6h-6.81l-1.64,4.6h-2.26ZM210.63,139.45h5.59l-2.78-7.8-2.81,7.8Z"/>
    <path d="M228.51,146.11c-.88,0-1.63-.17-2.25-.51-.62-.34-1.12-.8-1.51-1.4l-.11,1.68h-1.9v-16.43h2.04v6.45c.42-.63.96-1.14,1.63-1.53.67-.39,1.46-.59,2.36-.59.97,0,1.81.23,2.51.69.71.46,1.26,1.15,1.64,2.06s.58,2.05.58,3.41-.21,2.48-.62,3.4c-.41.92-.99,1.6-1.74,2.07-.75.46-1.63.7-2.64.7ZM228.13,144.44c1.07,0,1.89-.39,2.44-1.17.55-.78.83-1.88.83-3.3s-.26-2.59-.78-3.37-1.28-1.17-2.29-1.17c-.85,0-1.58.23-2.17.68-.59.46-1.06,1.01-1.4,1.66v4.58c.32.6.75,1.1,1.31,1.5s1.24.59,2.05.59Z"/>
    <path d="M240.83,146.11c-.67,0-1.3-.07-1.9-.22-.6-.15-1.12-.38-1.58-.7s-.81-.73-1.07-1.25-.38-1.14-.38-1.87h1.97c0,.93.29,1.58.86,1.96.57.38,1.29.57,2.15.57.77,0,1.41-.15,1.91-.45.5-.3.75-.79.75-1.47,0-.59-.23-1.02-.68-1.31s-1.25-.56-2.39-.83c-.93-.22-1.71-.47-2.34-.76-.63-.29-1.11-.66-1.43-1.1-.32-.44-.48-1-.48-1.68,0-.53.11-1,.34-1.4.22-.4.54-.74.94-1.01s.88-.47,1.42-.6c.54-.13,1.14-.2,1.77-.2s1.21.07,1.76.22c.55.15,1.03.38,1.45.68.42.31.75.71,1,1.2s.37,1.07.37,1.76h-1.98c0-.85-.25-1.44-.76-1.79-.5-.35-1.12-.53-1.84-.53s-1.33.13-1.78.39c-.46.26-.68.67-.68,1.22,0,.32.1.59.3.81s.54.42,1.03.59c.48.17,1.13.36,1.94.55.89.21,1.63.46,2.23.76.6.29,1.05.67,1.36,1.13.3.46.46,1.05.46,1.76,0,.62-.12,1.15-.36,1.61-.24.45-.57.82-1,1.11s-.93.5-1.5.64c-.57.14-1.19.21-1.86.21Z"/>
    <path d="M252.59,145.89c-.96,0-1.7-.15-2.21-.46-.51-.3-.86-.74-1.05-1.32-.19-.57-.29-1.26-.29-2.07v-6.4h-1.99v-1.65h1.99v-2.72h2.03v2.72h2.93v1.65h-2.93v6.3c0,.74.1,1.31.29,1.7s.65.59,1.37.59h1.29v1.65h-1.43Z"/>
    <path d="M256.7,145.89v-11.89h1.92l.07,2.03c.33-.62.8-1.14,1.39-1.55s1.37-.62,2.32-.62h.24v1.87h-.28c-.59,0-1.12.08-1.56.23s-.84.37-1.17.64-.63.59-.89.95v8.35h-2.04Z"/>
    <path d="M267.38,146.11c-.68,0-1.31-.13-1.88-.39-.56-.26-1.02-.65-1.35-1.15-.34-.51-.51-1.14-.51-1.89,0-1.07.33-1.88,1-2.43.67-.55,1.61-.93,2.83-1.13,1.22-.2,2.65-.31,4.29-.32v-.83c0-1.02-.25-1.71-.76-2.09-.5-.38-1.14-.57-1.92-.57-.82,0-1.51.21-2.08.62-.56.42-.84,1.07-.84,1.96h-1.98c0-.98.21-1.77.63-2.37.42-.6,1-1.04,1.73-1.32.74-.28,1.58-.42,2.53-.42.61,0,1.19.06,1.75.17.56.11,1.06.32,1.5.62s.8.72,1.06,1.26c.26.54.39,1.24.39,2.09v7.95h-1.9l-.09-1.81c-.54.61-1.18,1.1-1.9,1.47-.72.37-1.56.56-2.52.56ZM267.92,144.55c.81,0,1.54-.19,2.2-.57.65-.38,1.2-.87,1.63-1.45v-2.42c-2.16.02-3.72.23-4.66.61s-1.41,1.01-1.41,1.88c0,.59.19,1.07.57,1.42.38.35.93.53,1.67.53Z"/>
    <path d="M282.43,146.1c-1.07,0-2.03-.23-2.86-.68-.83-.45-1.48-1.13-1.95-2.04-.47-.91-.7-2.04-.7-3.41s.23-2.51.69-3.42c.46-.92,1.1-1.6,1.93-2.06.83-.46,1.79-.69,2.89-.69.92,0,1.75.15,2.48.45s1.32.75,1.76,1.36c.44.61.67,1.37.7,2.3h-2.01c-.05-.76-.33-1.37-.83-1.81s-1.19-.66-2.06-.66c-1.16,0-2.02.4-2.59,1.19-.57.79-.86,1.91-.86,3.34,0,.95.13,1.76.38,2.42.25.66.63,1.17,1.15,1.53.51.35,1.15.53,1.92.53.87,0,1.58-.23,2.12-.68.54-.45.83-1.11.86-1.98h2.01c-.02.96-.26,1.76-.7,2.4-.45.64-1.04,1.12-1.79,1.43-.75.32-1.6.48-2.53.48Z"/>
    <path d="M294.69,145.89c-.96,0-1.7-.15-2.21-.46-.51-.3-.87-.74-1.06-1.32-.19-.57-.29-1.26-.29-2.07v-6.4h-1.99v-1.65h1.99v-2.72h2.03v2.72h2.93v1.65h-2.93v6.3c0,.74.1,1.31.29,1.7s.65.59,1.37.59h1.29v1.65h-1.43Z"/>
    <path d="M300.42,137.08c-.46,0-.83-.15-1.13-.45-.3-.3-.45-.66-.45-1.09s.15-.82.45-1.1c.3-.29.68-.43,1.13-.43s.82.14,1.11.43c.29.29.44.66.44,1.1s-.15.79-.44,1.09c-.29.3-.66.45-1.11.45ZM300.42,146.02c-.46,0-.83-.15-1.13-.45-.3-.3-.45-.66-.45-1.09s.15-.82.45-1.1c.3-.29.68-.43,1.13-.43s.82.14,1.11.43c.29.29.44.66.44,1.1s-.15.79-.44,1.09c-.29.3-.66.45-1.11.45Z"/>
  </g>
  <g>
    <path d="M52.89,179.49c-1.66,0-3.09-.35-4.29-1.04-1.2-.7-2.12-1.67-2.76-2.93-.64-1.26-.96-2.74-.96-4.45s.32-3.2.96-4.46,1.56-2.25,2.76-2.94c1.2-.7,2.62-1.04,4.29-1.04,1.29,0,2.47.22,3.55.67s1.96,1.1,2.64,1.97c.68.87,1.04,1.93,1.11,3.2h-3.52c-.09-.67-.31-1.22-.65-1.66s-.79-.77-1.32-.99-1.14-.33-1.81-.33c-1.07,0-1.94.26-2.59.78-.66.52-1.13,1.2-1.43,2.04-.3.84-.45,1.76-.45,2.76s.15,1.91.45,2.76c.3.85.77,1.53,1.43,2.04.65.51,1.52.77,2.59.77,1.13,0,2.02-.29,2.68-.87.65-.58,1.03-1.41,1.13-2.48h3.52c-.1,1.34-.45,2.48-1.06,3.4-.61.92-1.44,1.62-2.5,2.1-1.06.48-2.31.71-3.76.71Z"/>
    <path d="M68.48,179.47c-1.21,0-2.26-.24-3.17-.72-.91-.48-1.61-1.18-2.11-2.09s-.74-2.01-.74-3.31.25-2.44.74-3.36c.5-.92,1.2-1.63,2.11-2.11s1.96-.73,3.17-.73,2.29.24,3.19.73c.91.48,1.61,1.19,2.12,2.11.5.92.76,2.04.76,3.36s-.25,2.4-.76,3.31c-.51.91-1.21,1.61-2.12,2.09-.91.48-1.97.72-3.19.72ZM68.48,177c.71,0,1.26-.17,1.67-.49.4-.33.69-.77.86-1.33.17-.55.25-1.16.25-1.83s-.08-1.31-.25-1.87c-.17-.56-.45-1.01-.86-1.34s-.96-.5-1.67-.5-1.23.17-1.63.5c-.4.33-.67.78-.84,1.34-.16.56-.24,1.18-.24,1.87s.08,1.28.24,1.83c.16.55.44,1,.84,1.33.39.33.94.49,1.63.49Z"/>
    <path d="M77.4,179.27v-11.91h3.11l.06,1.78c.4-.51.92-.97,1.58-1.36.65-.39,1.5-.59,2.54-.59,1.21,0,2.15.37,2.82,1.1.67.74,1,1.81,1,3.23v7.75h-3.21v-7.34c0-.43-.06-.81-.18-1.13-.12-.33-.31-.58-.58-.76-.26-.18-.61-.27-1.04-.27-.64,0-1.2.15-1.65.45-.46.3-.86.67-1.2,1.1v7.95h-3.24Z"/>
    <path d="M92.39,179.27v-9.42h-1.98v-2.49h1.98v-.38c0-.72.07-1.34.21-1.86.14-.52.38-.95.71-1.29.34-.33.8-.58,1.4-.74s1.35-.24,2.26-.24h1.18v2.34h-1.07c-.62,0-1.02.14-1.19.43-.17.29-.26.74-.26,1.37v.38h2.54v2.49h-2.54v9.42h-3.23ZM101.88,165.79c-.59,0-1.05-.15-1.36-.45-.31-.3-.47-.67-.47-1.12s.16-.83.47-1.13.77-.45,1.36-.45,1.05.15,1.36.45c.31.3.47.67.47,1.13s-.16.82-.47,1.12c-.31.3-.77.45-1.36.45ZM100.25,179.27v-11.91h3.23v11.91h-3.23Z"/>
    <path d="M111.06,179.48c-.89,0-1.7-.22-2.41-.67-.71-.45-1.27-1.13-1.69-2.06-.41-.92-.62-2.1-.62-3.52s.22-2.51.66-3.41,1.04-1.56,1.8-2c.76-.44,1.61-.66,2.55-.66.83,0,1.54.17,2.13.51s1.07.79,1.42,1.34v-6.18h3.24v16.43h-3.1l-.13-1.7c-.42.59-.95,1.05-1.57,1.39s-1.39.51-2.28.51ZM112.01,177.01c.68,0,1.27-.19,1.77-.57s.88-.83,1.13-1.34v-3.48c-.25-.54-.61-1-1.06-1.4-.46-.4-1.02-.6-1.69-.6-.8,0-1.42.31-1.86.93-.44.62-.66,1.51-.66,2.69,0,1.29.21,2.24.63,2.86.42.62,1,.93,1.73.93Z"/>
    <path d="M127.09,179.49c-1.33,0-2.44-.25-3.35-.74-.9-.49-1.59-1.2-2.05-2.13-.46-.93-.7-2.04-.7-3.34s.22-2.35.68-3.26c.45-.91,1.11-1.61,1.99-2.11.88-.49,1.95-.74,3.23-.74,1.77,0,3.17.52,4.21,1.56,1.03,1.04,1.54,2.52,1.54,4.44,0,.1,0,.23-.01.4s-.02.29-.04.38h-8.36c.02.56.12,1.09.31,1.57s.5.88.91,1.18c.42.3.96.45,1.64.45s1.26-.15,1.68-.46c.42-.3.64-.76.65-1.36h3.19c-.04.93-.3,1.7-.76,2.32-.47.62-1.11,1.08-1.92,1.39-.81.31-1.76.46-2.84.46ZM124.27,171.9h5.16c-.03-.83-.27-1.45-.74-1.86-.47-.41-1.07-.62-1.8-.62s-1.36.21-1.84.63c-.48.42-.74,1.04-.79,1.84Z"/>
    <path d="M135.51,179.27v-11.91h3.11l.06,1.78c.4-.51.92-.97,1.58-1.36.65-.39,1.5-.59,2.54-.59,1.21,0,2.15.37,2.82,1.1.67.74,1,1.81,1,3.23v7.75h-3.21v-7.34c0-.43-.06-.81-.18-1.13-.12-.33-.31-.58-.58-.76-.26-.18-.61-.27-1.04-.27-.64,0-1.2.15-1.65.45-.46.3-.86.67-1.2,1.1v7.95h-3.24Z"/>
    <path d="M155.08,179.27c-1.21,0-2.14-.14-2.8-.43s-1.12-.74-1.38-1.34c-.26-.61-.39-1.4-.39-2.37v-5.27h-1.98v-2.49h1.98v-2.81h3.23v2.81h2.6v2.49h-2.6v5.08c0,.63.09,1.09.26,1.39.18.3.57.45,1.19.45h1.15v2.5h-1.26Z"/>
    <path d="M160.5,165.79c-.6,0-1.05-.15-1.36-.45-.31-.3-.47-.67-.47-1.12s.16-.83.47-1.13c.31-.3.77-.45,1.36-.45s1.05.15,1.36.45c.31.3.47.67.47,1.13s-.16.82-.47,1.12c-.31.3-.77.45-1.36.45ZM158.87,179.27v-11.91h3.24v11.91h-3.24Z"/>
    <path d="M168.7,179.48c-.68,0-1.31-.13-1.89-.39-.59-.26-1.06-.65-1.42-1.18-.36-.52-.54-1.18-.54-1.97,0-1.1.33-1.93.99-2.48.66-.56,1.58-.94,2.77-1.14,1.18-.2,2.56-.32,4.13-.35v-.63c0-.77-.19-1.3-.55-1.59-.37-.29-.85-.43-1.43-.43-.64,0-1.17.15-1.59.46-.41.31-.62.8-.62,1.48h-3.03c0-1.02.22-1.82.67-2.42s1.06-1.02,1.84-1.28c.79-.26,1.69-.39,2.73-.39.76,0,1.45.06,2.07.19s1.17.34,1.63.65c.46.31.82.73,1.07,1.26.25.53.38,1.2.38,2v8h-3.03l-.1-1.55c-.5.58-1.09,1.02-1.76,1.31s-1.44.45-2.31.45ZM169.76,177.26c.61,0,1.17-.16,1.69-.48s.93-.68,1.24-1.09v-1.93c-1.71,0-2.91.17-3.59.48s-1.03.82-1.03,1.52c0,.5.16.88.47,1.12.31.24.72.37,1.21.37Z"/>
    <path d="M183.71,179.27c-1.21,0-2.15-.14-2.81-.43-.66-.29-1.12-.74-1.38-1.34-.26-.61-.39-1.4-.39-2.37v-12.28h3.22v12.08c0,.63.09,1.09.26,1.38.17.29.57.44,1.2.44h.74v2.53h-.84Z"/>
    <path d="M199.2,179.49c-1.66,0-3.09-.35-4.29-1.04-1.2-.7-2.12-1.67-2.76-2.93-.64-1.26-.96-2.74-.96-4.45s.32-3.2.96-4.46,1.56-2.25,2.76-2.94c1.2-.7,2.62-1.04,4.29-1.04,1.29,0,2.47.22,3.55.67s1.96,1.1,2.64,1.97c.68.87,1.05,1.93,1.11,3.2h-3.52c-.09-.67-.31-1.22-.65-1.66-.35-.44-.79-.77-1.32-.99s-1.14-.33-1.81-.33c-1.07,0-1.94.26-2.6.78-.65.52-1.13,1.2-1.43,2.04-.3.84-.45,1.76-.45,2.76s.15,1.91.45,2.76.77,1.53,1.43,2.04c.66.51,1.52.77,2.6.77,1.13,0,2.02-.29,2.68-.87.66-.58,1.03-1.41,1.13-2.48h3.52c-.1,1.34-.45,2.48-1.06,3.4-.61.92-1.45,1.62-2.5,2.1-1.06.48-2.31.71-3.76.71Z"/>
    <path d="M214.79,179.47c-1.21,0-2.26-.24-3.17-.72-.91-.48-1.61-1.18-2.11-2.09s-.74-2.01-.74-3.31.25-2.44.74-3.36c.5-.92,1.2-1.63,2.11-2.11s1.96-.73,3.17-.73,2.29.24,3.19.73c.91.48,1.61,1.19,2.12,2.11.5.92.76,2.04.76,3.36s-.25,2.4-.76,3.31c-.51.91-1.21,1.61-2.12,2.09-.91.48-1.97.72-3.19.72ZM214.79,177c.71,0,1.26-.17,1.67-.49.4-.33.69-.77.86-1.33.17-.55.25-1.16.25-1.83s-.08-1.31-.25-1.87c-.17-.56-.45-1.01-.86-1.34s-.96-.5-1.67-.5-1.23.17-1.63.5c-.4.33-.67.78-.84,1.34-.16.56-.24,1.18-.24,1.87s.08,1.28.24,1.83c.16.55.44,1,.84,1.33.39.33.94.49,1.63.49Z"/>
    <path d="M223.71,179.27v-11.91h3.11l.06,1.78c.39-.51.93-.97,1.62-1.36s1.54-.59,2.55-.59c1.2,0,2.11.38,2.75,1.13s.96,1.82.96,3.2v7.75h-3.24v-7.34c0-.43-.06-.81-.18-1.13-.12-.33-.31-.58-.57-.76-.27-.18-.61-.27-1.03-.27-.63,0-1.16.15-1.61.45-.45.3-.84.67-1.18,1.1v7.95h-3.24ZM239.35,179.27v-7.34c0-.43-.06-.81-.18-1.13-.12-.33-.31-.58-.57-.76s-.61-.27-1.03-.27c-.63,0-1.17.14-1.62.42s-.86.62-1.21,1.04l-.39-2c.51-.54,1.14-1.02,1.89-1.43.74-.41,1.62-.61,2.63-.61,1.19,0,2.11.38,2.75,1.13s.97,1.82.97,3.2v7.75h-3.23Z"/>
    <path d="M245.95,183.64v-16.28h3.05l.18,1.82c.44-.64.97-1.14,1.59-1.48.62-.35,1.35-.52,2.2-.52.93,0,1.75.22,2.47.67s1.29,1.13,1.7,2.04c.41.91.62,2.08.62,3.5s-.22,2.51-.66,3.41c-.44.9-1.04,1.57-1.8,2.01-.76.45-1.61.67-2.55.68-.77,0-1.46-.15-2.07-.48-.61-.33-1.1-.78-1.48-1.37v5.99h-3.23ZM251.93,177.01c.81,0,1.44-.31,1.87-.94.43-.63.65-1.53.65-2.72,0-1.26-.2-2.2-.61-2.81-.4-.61-.95-.92-1.65-.92s-1.36.21-1.88.62-.89.86-1.12,1.35v3.52c.26.52.62.97,1.09,1.34.47.38,1.02.56,1.65.56Z"/>
    <path d="M264.07,179.43c-1.21,0-2.14-.37-2.79-1.12-.66-.75-.99-1.8-.99-3.18v-7.78h3.24v7.38c0,.41.06.77.18,1.08.12.31.31.55.59.73.27.17.63.26,1.08.26.65,0,1.21-.14,1.67-.43.46-.29.86-.64,1.2-1.06v-7.96h3.23v11.91h-3.12l-.05-1.79c-.4.5-.94.96-1.63,1.36s-1.55.6-2.59.6Z"/>
    <path d="M280.08,179.27c-1.21,0-2.14-.14-2.8-.43s-1.12-.74-1.38-1.34c-.26-.61-.39-1.4-.39-2.37v-5.27h-1.98v-2.49h1.98v-2.81h3.23v2.81h2.6v2.49h-2.6v5.08c0,.63.09,1.09.26,1.39.18.3.57.45,1.19.45h1.15v2.5h-1.26Z"/>
    <path d="M285.5,165.79c-.6,0-1.05-.15-1.36-.45-.31-.3-.47-.67-.47-1.12s.16-.83.47-1.13c.31-.3.77-.45,1.36-.45s1.05.15,1.36.45c.31.3.47.67.47,1.13s-.16.82-.47,1.12c-.31.3-.77.45-1.36.45ZM283.87,179.27v-11.91h3.24v11.91h-3.24Z"/>
    <path d="M290.57,179.27v-11.91h3.11l.06,1.78c.4-.51.92-.97,1.57-1.36s1.5-.59,2.54-.59c1.21,0,2.15.37,2.82,1.1.67.74,1,1.81,1,3.23v7.75h-3.21v-7.34c0-.43-.06-.81-.18-1.13-.12-.33-.32-.58-.58-.76-.27-.18-.61-.27-1.04-.27-.64,0-1.19.15-1.65.45-.46.3-.86.67-1.2,1.1v7.95h-3.23Z"/>
    <path d="M309.74,183.87c-1.42,0-2.55-.15-3.39-.44s-1.44-.68-1.81-1.15c-.37-.48-.55-.99-.55-1.54,0-.67.32-1.27.96-1.78s1.66-.86,3.05-1.07l.54-1.15h1.61c1.98,0,3.42.27,4.33.82.91.54,1.36,1.38,1.36,2.5s-.52,2.06-1.56,2.76c-1.04.7-2.55,1.05-4.54,1.05ZM308.05,179c-.86-.1-1.55-.27-2.08-.52-.53-.25-.91-.54-1.16-.86-.24-.33-.37-.65-.37-.96,0-.5.19-.92.57-1.26.38-.35.95-.65,1.71-.91l1.68.61c-.44.11-.8.23-1.1.38-.29.15-.44.33-.44.55,0,.16.09.29.26.39.18.11.48.19.92.24s1.04.08,1.8.08l-1.81,2.26ZM309.52,175.47c-1.07,0-1.99-.19-2.75-.57-.76-.38-1.33-.89-1.72-1.51s-.59-1.3-.59-2.03c0-.77.2-1.47.59-2.09.39-.62.97-1.12,1.74-1.5s1.7-.56,2.79-.56,2.07.19,2.81.56,1.3.87,1.67,1.5c.37.62.56,1.32.56,2.09s-.19,1.42-.57,2.05-.95,1.13-1.7,1.5c-.75.38-1.7.56-2.85.56ZM309.69,181.85c1.09,0,1.86-.14,2.31-.43.45-.29.67-.63.67-1.04,0-.26-.08-.48-.23-.66-.16-.18-.41-.32-.77-.42-.36-.1-.83-.15-1.43-.15h-2.17c-.32.12-.58.29-.78.52-.2.22-.3.48-.3.77,0,.34.21.66.63.95s1.11.44,2.06.44ZM309.52,173.53c.6,0,1.1-.19,1.51-.56.4-.37.6-.91.6-1.62,0-.75-.19-1.31-.56-1.67-.38-.37-.86-.55-1.46-.55s-1.12.19-1.51.57c-.4.38-.6.93-.6,1.65s.21,1.26.62,1.62c.41.37.88.55,1.41.55ZM312.93,169.02l-.95-1.21c.32-.85.81-1.42,1.47-1.73.66-.31,1.46-.47,2.4-.48v2.36c-.63,0-1.21.06-1.74.18-.53.12-.92.41-1.18.88Z"/>
    <path d="M323.14,179.27v-16.43h6.76c1.06,0,2,.15,2.83.45s1.49.78,1.97,1.44.73,1.54.73,2.64c0,1.04-.28,1.92-.84,2.65-.56.72-1.4,1.24-2.53,1.55.69.11,1.24.32,1.66.63.41.31.75.73,1.01,1.26.26.53.49,1.18.7,1.95l1.09,3.86h-3.59l-.77-3.17c-.16-.72-.35-1.3-.56-1.76-.21-.46-.5-.8-.86-1.02-.36-.22-.86-.34-1.5-.34h-2.67v6.29h-3.43ZM326.57,170.15h2.76c.54,0,1-.08,1.38-.26s.69-.43.9-.77c.21-.34.32-.76.32-1.26,0-.72-.22-1.27-.66-1.64s-1.02-.55-1.75-.55h-2.96v4.47Z"/>
    <path d="M344.24,179.49c-1.33,0-2.44-.25-3.35-.74-.9-.49-1.59-1.2-2.05-2.13-.46-.93-.7-2.04-.7-3.34s.22-2.35.68-3.26c.45-.91,1.11-1.61,1.99-2.11.88-.49,1.95-.74,3.23-.74,1.77,0,3.17.52,4.21,1.56,1.03,1.04,1.54,2.52,1.54,4.44,0,.1,0,.23-.01.4s-.02.29-.04.38h-8.36c.02.56.12,1.09.31,1.57s.5.88.91,1.18c.42.3.96.45,1.64.45s1.26-.15,1.68-.46c.42-.3.64-.76.65-1.36h3.19c-.04.93-.3,1.7-.76,2.32-.47.62-1.11,1.08-1.92,1.39-.81.31-1.76.46-2.84.46ZM341.42,171.9h5.16c-.03-.83-.27-1.45-.74-1.86-.47-.41-1.07-.62-1.8-.62s-1.36.21-1.84.63c-.48.42-.74,1.04-.79,1.84Z"/>
    <path d="M355.17,179.27l-4.33-11.91h3.37l2.81,8.9,2.89-8.9h3.27l-4.32,11.91h-3.69Z"/>
    <path d="M366.54,165.79c-.6,0-1.05-.15-1.36-.45-.31-.3-.47-.67-.47-1.12s.16-.83.47-1.13c.31-.3.77-.45,1.36-.45s1.05.15,1.36.45c.31.3.47.67.47,1.13s-.16.82-.47,1.12c-.31.3-.77.45-1.36.45ZM364.91,179.27v-11.91h3.24v11.91h-3.24Z"/>
    <path d="M376.4,179.49c-.66,0-1.3-.06-1.94-.18s-1.21-.33-1.72-.63c-.51-.3-.92-.7-1.22-1.21s-.45-1.15-.45-1.92h3c0,.67.23,1.13.7,1.39.47.26,1.02.39,1.64.39s1.1-.1,1.44-.3.51-.54.51-1.01c0-.45-.2-.78-.61-1s-1.11-.44-2.12-.67c-.85-.2-1.6-.45-2.27-.74-.66-.29-1.18-.68-1.55-1.16-.38-.48-.56-1.12-.56-1.91,0-.62.14-1.14.43-1.57s.66-.78,1.14-1.04,1.01-.46,1.61-.58,1.21-.18,1.84-.18,1.21.06,1.79.18,1.11.33,1.59.62c.47.29.85.68,1.13,1.17s.43,1.1.43,1.83h-3c0-.61-.2-1.03-.58-1.27-.39-.24-.84-.35-1.36-.35-.56,0-1,.08-1.32.24-.32.16-.48.43-.48.81,0,.22.1.41.3.58.2.17.53.32.98.46.45.14,1.04.29,1.77.46.77.18,1.46.41,2.08.7.61.29,1.09.67,1.45,1.15.36.48.54,1.1.54,1.87,0,.72-.15,1.32-.43,1.82-.29.5-.68.9-1.16,1.2-.48.31-1.04.53-1.66.67-.62.14-1.27.21-1.94.21Z"/>
    <path d="M386.13,165.79c-.6,0-1.05-.15-1.36-.45-.31-.3-.47-.67-.47-1.12s.16-.83.47-1.13c.31-.3.77-.45,1.36-.45s1.05.15,1.36.45c.31.3.47.67.47,1.13s-.16.82-.47,1.12c-.31.3-.77.45-1.36.45ZM384.51,179.27v-11.91h3.24v11.91h-3.24Z"/>
    <path d="M396.35,179.27c-1.21,0-2.14-.14-2.8-.43-.66-.29-1.12-.74-1.39-1.34-.26-.61-.39-1.4-.39-2.37v-5.27h-1.98v-2.49h1.98v-2.81h3.23v2.81h2.6v2.49h-2.6v5.08c0,.63.09,1.09.26,1.39.17.3.57.45,1.19.45h1.15v2.5h-1.26Z"/>
    <path d="M405.5,179.49c-1.33,0-2.44-.25-3.35-.74-.9-.49-1.59-1.2-2.05-2.13-.46-.93-.7-2.04-.7-3.34s.22-2.35.68-3.26c.45-.91,1.11-1.61,1.99-2.11.88-.49,1.95-.74,3.23-.74,1.77,0,3.17.52,4.21,1.56,1.03,1.04,1.54,2.52,1.54,4.44,0,.1,0,.23-.01.4s-.02.29-.04.38h-8.36c.02.56.12,1.09.31,1.57s.5.88.91,1.18c.42.3.96.45,1.64.45s1.26-.15,1.68-.46c.42-.3.64-.76.65-1.36h3.19c-.04.93-.3,1.7-.76,2.32-.47.62-1.11,1.08-1.92,1.39-.81.31-1.76.46-2.84.46ZM402.68,171.9h5.16c-.03-.83-.27-1.45-.74-1.86-.47-.41-1.07-.62-1.8-.62s-1.36.21-1.84.63c-.48.42-.74,1.04-.79,1.84Z"/>
    <path d="M418.03,179.48c-.89,0-1.7-.22-2.41-.67-.71-.45-1.27-1.13-1.69-2.06-.41-.92-.62-2.1-.62-3.52s.22-2.51.66-3.41,1.04-1.56,1.8-2c.76-.44,1.61-.66,2.55-.66.83,0,1.54.17,2.13.51s1.07.79,1.42,1.34v-6.18h3.24v16.43h-3.1l-.13-1.7c-.42.59-.95,1.05-1.57,1.39s-1.39.51-2.28.51ZM418.98,177.01c.68,0,1.27-.19,1.77-.57s.88-.83,1.13-1.34v-3.48c-.25-.54-.61-1-1.06-1.4-.46-.4-1.02-.6-1.69-.6-.8,0-1.42.31-1.86.93-.44.62-.66,1.51-.66,2.69,0,1.29.21,2.24.63,2.86.42.62,1,.93,1.73.93Z"/>
    <path d="M430.61,171.34c-.63,0-1.13-.19-1.52-.58s-.58-.86-.58-1.41c0-.6.19-1.08.58-1.44.39-.36.89-.54,1.52-.54s1.11.18,1.48.54c.38.36.57.84.57,1.44,0,.55-.19,1.02-.57,1.41-.38.39-.87.58-1.48.58ZM430.61,179.44c-.63,0-1.13-.19-1.52-.58s-.58-.86-.58-1.41c0-.6.19-1.08.58-1.44.39-.36.89-.54,1.52-.54s1.11.18,1.48.54c.38.36.57.84.57,1.44,0,.55-.19,1.02-.57,1.41-.38.39-.87.58-1.48.58Z"/>
    <path d="M52.38,209.49c-1.61,0-2.93-.26-3.96-.78-1.03-.52-1.78-1.28-2.26-2.29-.48-1.01-.72-2.24-.72-3.69v-9.9h3.52v9.81c0,1.35.28,2.36.83,3.01.55.66,1.43.99,2.61.99s2.06-.33,2.59-.99c.53-.66.8-1.66.8-3.01v-9.81h3.53v9.9c0,1.45-.24,2.68-.72,3.69-.48,1.01-1.23,1.77-2.25,2.29-1.02.52-2.35.78-3.97.78Z"/>
    <path d="M67.51,209.49c-.66,0-1.3-.06-1.94-.18-.63-.12-1.21-.33-1.72-.63-.51-.3-.92-.7-1.22-1.21s-.45-1.15-.45-1.92h3c0,.67.23,1.13.7,1.39.47.26,1.02.39,1.64.39s1.1-.1,1.44-.3c.34-.2.51-.54.51-1.01,0-.45-.2-.78-.61-1s-1.11-.44-2.12-.67c-.85-.2-1.6-.45-2.27-.74-.66-.29-1.18-.67-1.55-1.16-.38-.48-.56-1.12-.56-1.91,0-.62.14-1.14.43-1.57s.66-.78,1.14-1.04c.48-.26,1.01-.46,1.61-.58.6-.12,1.21-.18,1.84-.18s1.21.06,1.79.18c.59.12,1.11.33,1.59.62s.85.68,1.13,1.17.43,1.1.43,1.83h-3c0-.61-.2-1.03-.58-1.27-.39-.24-.84-.35-1.36-.35-.56,0-1,.08-1.32.24-.32.16-.48.43-.48.81,0,.22.1.41.3.58s.53.32.98.46,1.04.29,1.77.46c.77.18,1.46.41,2.08.7.61.29,1.09.67,1.45,1.15.36.48.54,1.1.54,1.87,0,.72-.15,1.32-.43,1.82-.29.5-.68.9-1.16,1.2-.48.31-1.04.53-1.66.67-.62.14-1.27.21-1.94.21Z"/>
    <path d="M78.62,209.48c-.68,0-1.31-.13-1.89-.39-.59-.26-1.06-.65-1.42-1.18-.36-.52-.54-1.18-.54-1.97,0-1.1.33-1.93.99-2.48.66-.56,1.58-.94,2.77-1.14,1.18-.2,2.56-.32,4.13-.35v-.63c0-.77-.19-1.3-.55-1.59-.37-.29-.85-.43-1.43-.43-.64,0-1.17.15-1.59.46-.41.31-.62.8-.62,1.48h-3.03c0-1.02.22-1.82.67-2.42s1.06-1.02,1.84-1.28c.79-.26,1.69-.39,2.73-.39.76,0,1.45.06,2.07.19.63.13,1.17.34,1.63.65.46.31.82.73,1.07,1.26s.38,1.2.38,2v8h-3.03l-.1-1.55c-.5.58-1.09,1.02-1.76,1.31s-1.44.45-2.31.45ZM79.69,207.26c.61,0,1.17-.16,1.69-.48s.93-.68,1.24-1.09v-1.93c-1.71,0-2.91.17-3.59.48-.68.31-1.03.82-1.03,1.52,0,.5.16.88.47,1.12.31.24.72.37,1.21.37Z"/>
    <path d="M95.96,209.49c-.87,0-1.59-.17-2.15-.5-.56-.33-1.04-.79-1.44-1.38l-.13,1.66h-3.06v-16.43h3.24v6.23c.42-.58.94-1.04,1.55-1.39.61-.35,1.36-.52,2.26-.52s1.72.22,2.44.67c.71.44,1.28,1.12,1.7,2.03.42.91.62,2.07.62,3.47s-.22,2.56-.67,3.47c-.44.91-1.04,1.59-1.8,2.03-.76.44-1.61.67-2.55.67ZM95.15,207.01c.79,0,1.4-.31,1.85-.93.44-.62.66-1.52.66-2.7,0-1.28-.21-2.23-.63-2.85-.42-.62-1-.93-1.75-.93-.67,0-1.25.2-1.75.6-.5.4-.88.87-1.13,1.4v3.49c.23.51.59.96,1.05,1.34s1.03.57,1.69.57Z"/>
    <path d="M105.45,195.79c-.6,0-1.05-.15-1.36-.45-.31-.3-.47-.68-.47-1.12s.16-.83.47-1.13c.31-.3.77-.45,1.36-.45s1.05.15,1.36.45c.31.3.47.67.47,1.13s-.16.82-.47,1.12c-.31.3-.77.45-1.36.45ZM103.83,209.27v-11.91h3.24v11.91h-3.24Z"/>
    <path d="M115,209.27c-1.21,0-2.15-.14-2.81-.43-.66-.29-1.12-.74-1.38-1.34-.26-.61-.39-1.4-.39-2.37v-12.28h3.22v12.08c0,.63.09,1.09.26,1.38.17.29.57.44,1.2.44h.74v2.53h-.84Z"/>
    <path d="M119.55,195.79c-.6,0-1.05-.15-1.36-.45-.31-.3-.47-.68-.47-1.12s.16-.83.47-1.13c.31-.3.77-.45,1.36-.45s1.05.15,1.36.45c.31.3.47.67.47,1.13s-.16.82-.47,1.12c-.31.3-.77.45-1.36.45ZM117.93,209.27v-11.91h3.24v11.91h-3.24Z"/>
    <path d="M129.77,209.27c-1.21,0-2.14-.14-2.8-.43-.66-.29-1.12-.74-1.38-1.34-.26-.61-.39-1.4-.39-2.37v-5.27h-1.98v-2.49h1.98v-2.81h3.23v2.81h2.6v2.49h-2.6v5.08c0,.63.09,1.09.26,1.39.18.3.57.45,1.19.45h1.15v2.5h-1.26Z"/>
    <path d="M133.22,213.64v-2.62h1.07c.48,0,.88-.09,1.2-.26.32-.17.55-.45.7-.84l.27-.65-4.64-11.91h3.37l3.02,8.81,2.69-8.81h3.27l-4.29,11.91-.44,1.18c-.31.84-.67,1.49-1.07,1.95-.41.46-.91.79-1.5.96s-1.32.27-2.2.27h-1.45Z"/>
    <path d="M144.44,213.05l-.44-1.6c.57-.18,1.03-.45,1.39-.8.36-.35.57-.82.65-1.39l.21.17c-.63,0-1.13-.19-1.52-.58-.39-.39-.58-.86-.58-1.41,0-.6.19-1.08.58-1.44.39-.36.89-.54,1.52-.54s1.11.21,1.48.64c.38.43.57,1.06.57,1.91,0,1-.19,1.85-.57,2.54-.38.7-.86,1.25-1.45,1.65s-1.2.68-1.84.83Z"/>
    <path d="M157.02,209.27v-16.43h3.94l5.15,8.76h-1.37l5.08-8.76h3.79v16.43h-3.38v-14.6h1.5l-5.37,9.35h-2.11l-5.51-9.35h1.55v14.6h-3.29Z"/>
    <path d="M180.55,209.48c-.68,0-1.31-.13-1.89-.39-.59-.26-1.06-.65-1.42-1.18-.36-.52-.54-1.18-.54-1.97,0-1.1.33-1.93.99-2.48.66-.56,1.58-.94,2.77-1.14,1.18-.2,2.56-.32,4.13-.35v-.63c0-.77-.19-1.3-.55-1.59-.37-.29-.85-.43-1.43-.43-.64,0-1.17.15-1.59.46-.41.31-.62.8-.62,1.48h-3.03c0-1.02.22-1.82.67-2.42s1.06-1.02,1.84-1.28c.79-.26,1.69-.39,2.73-.39.76,0,1.45.06,2.07.19.63.13,1.17.34,1.63.65.46.31.82.73,1.07,1.26s.38,1.2.38,2v8h-3.03l-.1-1.55c-.5.58-1.09,1.02-1.76,1.31s-1.44.45-2.31.45ZM181.61,207.26c.61,0,1.17-.16,1.69-.48s.93-.68,1.24-1.09v-1.93c-1.71,0-2.91.17-3.59.48-.68.31-1.03.82-1.03,1.52,0,.5.16.88.47,1.12.31.24.72.37,1.21.37Z"/>
    <path d="M191.1,209.27v-11.91h3.1l.06,2.06c.31-.72.77-1.26,1.39-1.65.62-.38,1.37-.57,2.25-.57h.24v2.72h-.31c-.48,0-.94.04-1.38.13-.44.09-.84.23-1.2.44-.36.21-.67.49-.93.86v7.92h-3.24Z"/>
    <path d="M200.33,209.27v-16.43h3.24v10.01l4.65-5.49h3.52l-4.71,5.48,5.05,6.43h-3.69l-4.82-6.29v6.29h-3.24Z"/>
    <path d="M218.63,209.49c-1.33,0-2.44-.25-3.35-.74-.9-.49-1.59-1.2-2.05-2.13-.46-.93-.7-2.04-.7-3.35s.22-2.35.68-3.26c.45-.91,1.11-1.61,1.99-2.11s1.95-.74,3.23-.74c1.77,0,3.17.52,4.21,1.56,1.03,1.04,1.54,2.52,1.54,4.44,0,.1,0,.23-.01.4,0,.17-.02.29-.04.38h-8.36c.02.56.12,1.09.31,1.57s.5.88.91,1.18c.42.3.96.45,1.64.45s1.26-.15,1.68-.46c.42-.3.64-.76.65-1.36h3.19c-.04.93-.3,1.7-.76,2.32-.47.62-1.11,1.08-1.92,1.38-.81.31-1.76.46-2.84.46ZM215.81,201.9h5.16c-.03-.83-.27-1.45-.74-1.86-.47-.41-1.07-.62-1.8-.62s-1.36.21-1.84.63c-.48.42-.74,1.04-.79,1.84Z"/>
    <path d="M232.14,209.27c-1.21,0-2.14-.14-2.8-.43-.66-.29-1.12-.74-1.39-1.34-.26-.61-.39-1.4-.39-2.37v-5.27h-1.98v-2.49h1.98v-2.81h3.23v2.81h2.6v2.49h-2.6v5.08c0,.63.09,1.09.26,1.39.17.3.57.45,1.19.45h1.15v2.5h-1.26Z"/>
    <path d="M236.17,213.05l-.44-1.6c.57-.18,1.04-.45,1.39-.8.36-.35.57-.82.65-1.39l.21.17c-.62,0-1.13-.19-1.52-.58-.39-.39-.58-.86-.58-1.41,0-.6.19-1.08.58-1.44.39-.36.89-.54,1.52-.54s1.11.21,1.48.64c.38.43.57,1.06.57,1.91,0,1-.19,1.85-.57,2.54-.38.7-.86,1.25-1.45,1.65s-1.2.68-1.84.83Z"/>
    <path d="M254.32,209.49c-1.24,0-2.37-.18-3.36-.53-1-.35-1.79-.92-2.37-1.69s-.88-1.78-.88-3.03h3.52c.02.63.16,1.13.44,1.5.28.36.65.62,1.12.78.47.15,1,.23,1.61.23s1.09-.07,1.53-.21.78-.35,1.03-.64.37-.66.37-1.11-.11-.79-.32-1.07c-.21-.28-.59-.54-1.12-.77-.54-.23-1.29-.48-2.26-.75-1.13-.33-2.11-.68-2.94-1.07-.83-.39-1.46-.89-1.92-1.51-.45-.62-.68-1.42-.68-2.42,0-1.07.26-1.94.77-2.61.52-.67,1.23-1.17,2.14-1.48.91-.32,1.96-.48,3.14-.48s2.15.17,3.09.51,1.69.86,2.25,1.56c.56.7.84,1.59.84,2.67h-3.52c0-.7-.25-1.22-.78-1.57s-1.16-.52-1.9-.52-1.34.14-1.82.41c-.48.27-.72.69-.72,1.26,0,.33.1.61.31.86.2.25.58.49,1.13.73.55.24,1.34.5,2.39.81,1.24.37,2.27.75,3.06,1.15.8.4,1.39.92,1.78,1.56.38.64.58,1.48.58,2.52,0,1.16-.29,2.1-.86,2.82s-1.35,1.24-2.33,1.57c-.98.33-2.09.5-3.33.5Z"/>
    <path d="M268.55,209.27c-1.21,0-2.14-.14-2.8-.43-.66-.29-1.12-.74-1.38-1.34-.26-.61-.39-1.4-.39-2.37v-5.27h-1.98v-2.49h1.98v-2.81h3.23v2.81h2.6v2.49h-2.6v5.08c0,.63.09,1.09.26,1.39.18.3.57.45,1.19.45h1.15v2.5h-1.26Z"/>
    <path d="M275.56,209.48c-.68,0-1.31-.13-1.89-.39-.59-.26-1.06-.65-1.42-1.18-.36-.52-.54-1.18-.54-1.97,0-1.1.33-1.93.99-2.48.66-.56,1.58-.94,2.77-1.14,1.18-.2,2.56-.32,4.13-.35v-.63c0-.77-.19-1.3-.56-1.59-.37-.29-.85-.43-1.43-.43-.64,0-1.17.15-1.59.46-.41.31-.62.8-.62,1.48h-3.03c0-1.02.22-1.82.66-2.42s1.06-1.02,1.84-1.28c.79-.26,1.7-.39,2.73-.39.76,0,1.45.06,2.07.19.63.13,1.17.34,1.63.65.46.31.82.73,1.07,1.26s.38,1.2.38,2v8h-3.03l-.1-1.55c-.5.58-1.09,1.02-1.76,1.31-.67.3-1.44.45-2.31.45ZM276.62,207.26c.61,0,1.17-.16,1.69-.48.52-.32.93-.68,1.24-1.09v-1.93c-1.71,0-2.91.17-3.59.48-.68.31-1.03.82-1.03,1.52,0,.5.16.88.47,1.12s.72.37,1.21.37Z"/>
    <path d="M286.11,209.27v-11.91h3.11l.06,1.78c.4-.51.92-.97,1.58-1.36.65-.39,1.5-.59,2.54-.59,1.21,0,2.15.37,2.82,1.1.67.74,1,1.81,1,3.23v7.75h-3.21v-7.34c0-.43-.06-.81-.18-1.14-.12-.33-.31-.58-.58-.76-.26-.18-.61-.27-1.04-.27-.64,0-1.2.15-1.65.45-.46.3-.86.67-1.2,1.1v7.95h-3.24Z"/>
    <path d="M304.69,209.48c-.9,0-1.7-.22-2.41-.67-.71-.45-1.27-1.13-1.68-2.06-.41-.92-.62-2.1-.62-3.52s.22-2.51.67-3.41,1.04-1.56,1.8-2c.76-.44,1.61-.66,2.55-.66.83,0,1.54.17,2.14.51s1.07.79,1.42,1.34v-6.18h3.23v16.43h-3.1l-.13-1.7c-.42.59-.95,1.05-1.58,1.39-.62.34-1.39.51-2.28.51ZM305.64,207.01c.68,0,1.27-.19,1.77-.57.5-.38.88-.83,1.14-1.34v-3.48c-.25-.54-.61-1-1.06-1.4s-1.02-.6-1.69-.6c-.8,0-1.42.31-1.86.93-.44.62-.66,1.51-.66,2.69,0,1.29.21,2.24.63,2.86.42.62.99.93,1.73.93Z"/>
    <path d="M315.23,213.64v-16.28h3.05l.18,1.82c.44-.64.97-1.14,1.59-1.48.62-.35,1.35-.52,2.2-.52.93,0,1.75.22,2.47.67s1.29,1.13,1.7,2.04c.41.91.62,2.08.62,3.5s-.22,2.51-.66,3.41c-.44.9-1.04,1.57-1.8,2.01-.76.45-1.61.68-2.55.68-.77,0-1.46-.15-2.07-.48-.61-.33-1.1-.78-1.48-1.37v5.99h-3.23ZM321.21,207.01c.81,0,1.44-.31,1.87-.94.43-.63.65-1.53.65-2.72,0-1.26-.2-2.2-.61-2.81-.4-.61-.95-.92-1.65-.92s-1.36.21-1.88.62c-.52.41-.89.86-1.12,1.35v3.52c.26.52.62.97,1.09,1.34.47.38,1.02.56,1.65.56Z"/>
    <path d="M335.3,209.47c-1.21,0-2.26-.24-3.17-.72-.91-.48-1.61-1.18-2.11-2.09s-.74-2.01-.74-3.31.25-2.44.74-3.36,1.2-1.63,2.11-2.11c.91-.48,1.96-.73,3.17-.73s2.29.24,3.19.73c.91.48,1.61,1.19,2.12,2.11.5.92.76,2.04.76,3.36s-.25,2.4-.76,3.31c-.51.91-1.21,1.61-2.12,2.09-.91.48-1.97.72-3.19.72ZM335.3,207c.71,0,1.26-.17,1.67-.49.4-.33.69-.77.86-1.33.17-.55.25-1.16.25-1.83s-.08-1.31-.25-1.87c-.17-.56-.45-1.01-.86-1.34s-.96-.5-1.67-.5-1.23.17-1.63.5c-.4.33-.67.78-.84,1.34-.16.56-.24,1.18-.24,1.87s.08,1.28.24,1.83c.16.55.44,1,.84,1.33.39.33.94.49,1.63.49Z"/>
    <path d="M345.85,195.79c-.6,0-1.05-.15-1.36-.45-.31-.3-.47-.68-.47-1.12s.16-.83.47-1.13c.31-.3.77-.45,1.36-.45s1.05.15,1.36.45c.31.3.47.67.47,1.13s-.16.82-.47,1.12c-.31.3-.77.45-1.36.45ZM344.22,209.27v-11.91h3.24v11.91h-3.24Z"/>
    <path d="M350.93,209.27v-11.91h3.11l.06,1.78c.4-.51.92-.97,1.57-1.36.65-.39,1.5-.59,2.54-.59,1.21,0,2.15.37,2.82,1.1.67.74,1,1.81,1,3.23v7.75h-3.21v-7.34c0-.43-.06-.81-.18-1.14-.12-.33-.32-.58-.58-.76-.27-.18-.61-.27-1.04-.27-.64,0-1.19.15-1.65.45-.46.3-.86.67-1.2,1.1v7.95h-3.23Z"/>
    <path d="M370.49,209.27c-1.21,0-2.14-.14-2.8-.43-.66-.29-1.12-.74-1.38-1.34-.26-.61-.39-1.4-.39-2.37v-5.27h-1.98v-2.49h1.98v-2.81h3.23v2.81h2.6v2.49h-2.6v5.08c0,.63.09,1.09.26,1.39.18.3.57.45,1.19.45h1.15v2.5h-1.26Z"/>
    <path d="M379.04,209.49c-.66,0-1.3-.06-1.94-.18-.63-.12-1.21-.33-1.72-.63-.51-.3-.92-.7-1.22-1.21s-.45-1.15-.45-1.92h3c0,.67.23,1.13.7,1.39.47.26,1.02.39,1.64.39s1.1-.1,1.44-.3c.34-.2.51-.54.51-1.01,0-.45-.2-.78-.61-1s-1.11-.44-2.12-.67c-.85-.2-1.6-.45-2.27-.74-.66-.29-1.18-.67-1.55-1.16-.38-.48-.56-1.12-.56-1.91,0-.62.14-1.14.43-1.57s.66-.78,1.14-1.04c.48-.26,1.01-.46,1.61-.58.6-.12,1.21-.18,1.84-.18s1.21.06,1.79.18c.59.12,1.11.33,1.59.62s.85.68,1.13,1.17.43,1.1.43,1.83h-3c0-.61-.2-1.03-.58-1.27-.39-.24-.84-.35-1.36-.35-.56,0-1,.08-1.32.24-.32.16-.48.43-.48.81,0,.22.1.41.3.58s.53.32.98.46,1.04.29,1.77.46c.77.18,1.46.41,2.08.7.61.29,1.09.67,1.45,1.15.36.48.54,1.1.54,1.87,0,.72-.15,1.32-.43,1.82-.29.5-.68.9-1.16,1.2-.48.31-1.04.53-1.66.67-.62.14-1.27.21-1.94.21Z"/>
    <path d="M395.47,209.48c-.68,0-1.31-.13-1.89-.39-.59-.26-1.06-.65-1.42-1.18-.36-.52-.54-1.18-.54-1.97,0-1.1.33-1.93.99-2.48.66-.56,1.58-.94,2.77-1.14,1.18-.2,2.56-.32,4.13-.35v-.63c0-.77-.19-1.3-.55-1.59-.37-.29-.85-.43-1.43-.43-.64,0-1.17.15-1.59.46-.41.31-.62.8-.62,1.48h-3.03c0-1.02.22-1.82.67-2.42s1.06-1.02,1.84-1.28c.79-.26,1.69-.39,2.73-.39.76,0,1.45.06,2.07.19.63.13,1.17.34,1.63.65.46.31.82.73,1.07,1.26s.38,1.2.38,2v8h-3.03l-.1-1.55c-.5.58-1.09,1.02-1.76,1.31s-1.44.45-2.31.45ZM396.53,207.26c.61,0,1.17-.16,1.69-.48s.93-.68,1.24-1.09v-1.93c-1.71,0-2.91.17-3.59.48-.68.31-1.03.82-1.03,1.52,0,.5.16.88.47,1.12.31.24.72.37,1.21.37Z"/>
    <path d="M406.02,209.27v-11.91h3.11l.06,1.78c.4-.51.92-.97,1.58-1.36.65-.39,1.5-.59,2.54-.59,1.21,0,2.15.37,2.82,1.1.67.74,1,1.81,1,3.23v7.75h-3.21v-7.34c0-.43-.06-.81-.18-1.14-.12-.33-.31-.58-.58-.76-.26-.18-.61-.27-1.04-.27-.64,0-1.2.15-1.65.45-.46.3-.86.67-1.2,1.1v7.95h-3.24Z"/>
    <path d="M424.59,209.48c-.89,0-1.7-.22-2.41-.67-.71-.45-1.27-1.13-1.69-2.06-.41-.92-.62-2.1-.62-3.52s.22-2.51.66-3.41,1.04-1.56,1.8-2c.76-.44,1.61-.66,2.55-.66.83,0,1.54.17,2.13.51s1.07.79,1.42,1.34v-6.18h3.24v16.43h-3.1l-.13-1.7c-.42.59-.95,1.05-1.57,1.39s-1.39.51-2.28.51ZM425.55,207.01c.68,0,1.27-.19,1.77-.57s.88-.83,1.13-1.34v-3.48c-.25-.54-.61-1-1.06-1.4-.46-.4-1.02-.6-1.69-.6-.8,0-1.42.31-1.86.93-.44.62-.66,1.51-.66,2.69,0,1.29.21,2.24.63,2.86.42.62,1,.93,1.73.93Z"/>
    <path d="M443.1,209.27v-13.57h-4.39v-2.86h12.2v2.86h-4.37v13.57h-3.43Z"/>
    <path d="M451.73,209.27v-11.91h3.1l.06,2.06c.31-.72.77-1.26,1.39-1.65.62-.38,1.37-.57,2.25-.57h.24v2.72h-.31c-.48,0-.94.04-1.38.13-.44.09-.84.23-1.2.44-.36.21-.67.49-.93.86v7.92h-3.24Z"/>
    <path d="M466.16,209.49c-1.33,0-2.44-.25-3.35-.74-.9-.49-1.59-1.2-2.05-2.13-.46-.93-.7-2.04-.7-3.35s.22-2.35.68-3.26c.45-.91,1.11-1.61,1.99-2.11s1.95-.74,3.23-.74c1.77,0,3.17.52,4.21,1.56,1.03,1.04,1.54,2.52,1.54,4.44,0,.1,0,.23-.01.4,0,.17-.02.29-.04.38h-8.36c.02.56.12,1.09.31,1.57s.5.88.91,1.18c.42.3.96.45,1.64.45s1.26-.15,1.68-.46c.42-.3.64-.76.65-1.36h3.19c-.04.93-.3,1.7-.76,2.32-.47.62-1.11,1.08-1.92,1.38-.81.31-1.76.46-2.84.46ZM463.34,201.9h5.16c-.03-.83-.27-1.45-.74-1.86-.47-.41-1.07-.62-1.8-.62s-1.36.21-1.84.63c-.48.42-.74,1.04-.79,1.84Z"/>
    <path d="M474.58,209.27v-11.91h3.11l.06,1.78c.4-.51.92-.97,1.58-1.36.65-.39,1.5-.59,2.54-.59,1.21,0,2.15.37,2.82,1.1.67.74,1,1.81,1,3.23v7.75h-3.21v-7.34c0-.43-.06-.81-.18-1.14-.12-.33-.31-.58-.58-.76-.26-.18-.61-.27-1.04-.27-.64,0-1.2.15-1.65.45-.46.3-.86.67-1.2,1.1v7.95h-3.24Z"/>
    <path d="M493.16,209.48c-.9,0-1.7-.22-2.41-.67-.71-.45-1.27-1.13-1.68-2.06-.41-.92-.62-2.1-.62-3.52s.22-2.51.67-3.41,1.04-1.56,1.8-2c.76-.44,1.61-.66,2.55-.66.83,0,1.54.17,2.14.51s1.07.79,1.42,1.34v-6.18h3.23v16.43h-3.1l-.13-1.7c-.42.59-.95,1.05-1.58,1.39-.62.34-1.39.51-2.28.51ZM494.11,207.01c.68,0,1.27-.19,1.77-.57.5-.38.88-.83,1.14-1.34v-3.48c-.25-.54-.61-1-1.06-1.4s-1.02-.6-1.69-.6c-.8,0-1.42.31-1.86.93-.44.62-.66,1.51-.66,2.69,0,1.29.21,2.24.63,2.86.42.62.99.93,1.73.93Z"/>
    <path d="M508.49,209.49c-.66,0-1.31-.06-1.94-.18-.63-.12-1.21-.33-1.72-.63-.51-.3-.92-.7-1.22-1.21s-.45-1.15-.45-1.92h3c0,.67.23,1.13.7,1.39.47.26,1.02.39,1.64.39s1.1-.1,1.44-.3c.34-.2.51-.54.51-1.01,0-.45-.2-.78-.6-1-.4-.22-1.11-.44-2.12-.67-.85-.2-1.6-.45-2.26-.74-.66-.29-1.18-.67-1.56-1.16s-.56-1.12-.56-1.91c0-.62.14-1.14.43-1.57s.67-.78,1.14-1.04c.47-.26,1.01-.46,1.61-.58.6-.12,1.21-.18,1.84-.18s1.21.06,1.79.18c.59.12,1.12.33,1.59.62.47.29.85.68,1.14,1.17s.43,1.1.43,1.83h-3c0-.61-.19-1.03-.58-1.27-.39-.24-.84-.35-1.36-.35-.56,0-1,.08-1.32.24s-.48.43-.48.81c0,.22.1.41.3.58.21.17.53.32.98.46.45.14,1.04.29,1.77.46.77.18,1.46.41,2.07.7.61.29,1.1.67,1.45,1.15s.54,1.1.54,1.87c0,.72-.14,1.32-.43,1.82s-.68.9-1.16,1.2c-.48.31-1.04.53-1.66.67-.62.14-1.27.21-1.93.21Z"/>
  </g>
  <line x1="5.13" y1="112.32" x2="646.85" y2="112.32" fill="none" stroke="#000" stroke-miterlimit="10"/>
  <g>
    <path d="M47.57,102.53v-23h4.7l10.58,15.5v-15.5h4.53v23h-4.72l-10.6-15.6v15.6h-4.49Z"/>
    <path d="M80.22,102.83c-1.86,0-3.42-.34-4.68-1.03-1.27-.69-2.22-1.68-2.87-2.98-.65-1.3-.97-2.86-.97-4.68s.32-3.29.95-4.56c.63-1.28,1.56-2.26,2.79-2.95,1.22-.69,2.73-1.03,4.52-1.03,2.48,0,4.45.73,5.89,2.18,1.44,1.45,2.16,3.52,2.16,6.21,0,.14,0,.32-.02.56-.01.23-.03.41-.05.54h-11.71c.02.79.17,1.52.44,2.2.27.68.69,1.23,1.27,1.65.58.42,1.34.62,2.29.62s1.77-.21,2.36-.64c.59-.43.89-1.06.91-1.91h4.46c-.06,1.3-.41,2.38-1.07,3.25-.66.87-1.55,1.51-2.68,1.94-1.13.43-2.46.64-3.97.64ZM76.27,92.2h7.23c-.03-1.16-.38-2.03-1.03-2.61-.66-.57-1.5-.86-2.52-.86s-1.91.3-2.57.89c-.67.59-1.03,1.45-1.1,2.58Z"/>
    <path d="M94.78,102.53l-5.25-16.68h4.6l3.21,11.77,3.21-11.77h4.75l3.28,11.76,3.16-11.76h4.29l-5.25,16.68h-4.63l-3.37-12-3.4,12h-4.62Z"/>
    <path d="M125.97,102.53v-23h9.02c1.51,0,2.9.27,4.14.8,1.25.54,2.24,1.35,2.98,2.44.74,1.09,1.11,2.49,1.11,4.19s-.37,3.06-1.11,4.15c-.74,1.09-1.73,1.91-2.98,2.44-1.25.53-2.63.79-4.14.79h-4.22v8.19h-4.8ZM130.77,90.48h3.78c1.12,0,2.02-.3,2.71-.89.69-.59,1.03-1.47,1.03-2.63s-.35-2.1-1.06-2.68c-.71-.58-1.6-.87-2.68-.87h-3.78v7.08Z"/>
    <path d="M150.28,102.82c-.95,0-1.83-.18-2.65-.55-.82-.36-1.48-.91-1.99-1.65-.51-.74-.76-1.65-.76-2.76,0-1.54.46-2.7,1.38-3.48.92-.78,2.21-1.31,3.87-1.59,1.66-.28,3.59-.44,5.79-.49v-.89c0-1.08-.26-1.82-.78-2.22-.52-.4-1.19-.6-2.01-.6-.9,0-1.64.21-2.22.64-.58.43-.87,1.12-.87,2.08h-4.24c0-1.42.31-2.55.93-3.38.62-.83,1.48-1.43,2.58-1.79,1.1-.36,2.37-.55,3.82-.55,1.06,0,2.03.09,2.91.27.88.18,1.64.48,2.28.91.64.43,1.14,1.02,1.5,1.77.35.75.53,1.68.53,2.79v11.19h-4.24l-.14-2.17c-.71.81-1.53,1.42-2.46,1.84-.93.42-2.01.62-3.23.62ZM151.77,99.71c.86,0,1.64-.22,2.37-.67s1.3-.95,1.73-1.52v-2.7c-2.39.01-4.07.24-5.02.68s-1.44,1.15-1.44,2.13c0,.71.22,1.23.66,1.57s1.01.51,1.7.51Z"/>
    <path d="M165.05,108.65v-22.8h4.27l.26,2.55c.62-.9,1.36-1.59,2.22-2.08.87-.48,1.89-.73,3.08-.73,1.3,0,2.45.31,3.46.94,1.01.63,1.8,1.58,2.38,2.85.58,1.28.86,2.91.86,4.9s-.31,3.52-.93,4.77c-.62,1.25-1.46,2.19-2.52,2.82-1.06.63-2.25.95-3.57.96-1.08.01-2.05-.21-2.9-.67-.85-.46-1.54-1.09-2.08-1.91v8.39h-4.53ZM173.42,99.37c1.14,0,2.01-.44,2.62-1.32.6-.88.91-2.15.91-3.81,0-1.77-.28-3.08-.85-3.93-.56-.85-1.34-1.28-2.32-1.28s-1.9.29-2.63.86c-.73.58-1.25,1.21-1.57,1.89v4.92c.37.73.88,1.36,1.53,1.88.65.53,1.43.79,2.32.79Z"/>
    <path d="M193.25,102.83c-1.86,0-3.42-.34-4.68-1.03-1.27-.69-2.22-1.68-2.87-2.98-.65-1.3-.97-2.86-.97-4.68s.32-3.29.95-4.56c.63-1.28,1.56-2.26,2.79-2.95,1.22-.69,2.73-1.03,4.52-1.03,2.48,0,4.45.73,5.89,2.18,1.44,1.45,2.16,3.52,2.16,6.21,0,.14,0,.32-.02.56-.01.23-.03.41-.05.54h-11.71c.02.79.17,1.52.44,2.2.27.68.69,1.23,1.27,1.65.58.42,1.34.62,2.29.62s1.77-.21,2.36-.64c.59-.43.89-1.06.91-1.91h4.46c-.06,1.3-.41,2.38-1.07,3.25-.66.87-1.55,1.51-2.68,1.94-1.13.43-2.46.64-3.97.64ZM189.3,92.2h7.23c-.03-1.16-.38-2.03-1.03-2.61-.66-.57-1.5-.86-2.52-.86s-1.91.3-2.57.89c-.67.59-1.03,1.45-1.1,2.58Z"/>
    <path d="M205.04,102.53v-16.68h4.34l.09,2.89c.43-1,1.08-1.77,1.95-2.31.87-.54,1.91-.8,3.14-.8h.34v3.81h-.43c-.67,0-1.32.06-1.93.18-.62.12-1.17.32-1.68.62-.5.29-.93.69-1.3,1.21v11.09h-4.53Z"/>
    <path d="M225.39,102.53v-23h9.47c1.48,0,2.8.21,3.96.62s2.08,1.09,2.76,2.02c.68.93,1.02,2.16,1.02,3.7s-.39,2.7-1.17,3.71-1.96,1.74-3.55,2.17c.97.15,1.74.44,2.32.88s1.05,1.03,1.41,1.77c.36.74.69,1.65.98,2.73l1.52,5.4h-5.03l-1.08-4.44c-.23-1-.49-1.82-.79-2.46-.3-.64-.7-1.11-1.21-1.43s-1.2-.47-2.09-.47h-3.74v8.8h-4.8ZM230.2,89.76h3.86c.75,0,1.4-.12,1.94-.36s.96-.6,1.26-1.08c.3-.48.45-1.06.45-1.76,0-1.01-.31-1.78-.92-2.29s-1.43-.77-2.44-.77h-4.14v6.25Z"/>
    <path d="M254.93,102.83c-1.86,0-3.42-.34-4.68-1.03-1.27-.69-2.22-1.68-2.87-2.98-.65-1.3-.97-2.86-.97-4.68s.32-3.29.95-4.56c.63-1.28,1.56-2.26,2.79-2.95,1.22-.69,2.73-1.03,4.52-1.03,2.48,0,4.45.73,5.89,2.18,1.44,1.45,2.16,3.52,2.16,6.21,0,.14,0,.32-.02.56-.01.23-.03.41-.05.54h-11.71c.02.79.17,1.52.44,2.2.27.68.69,1.23,1.27,1.65.58.42,1.34.62,2.29.62s1.77-.21,2.36-.64c.59-.43.89-1.06.91-1.91h4.46c-.06,1.3-.41,2.38-1.07,3.25-.66.87-1.55,1.51-2.68,1.94-1.13.43-2.46.64-3.97.64ZM250.98,92.2h7.23c-.03-1.16-.38-2.03-1.03-2.61-.66-.57-1.5-.86-2.52-.86s-1.91.3-2.57.89c-.67.59-1.03,1.45-1.1,2.58Z"/>
    <path d="M272.97,102.53c-1.7,0-3.01-.2-3.93-.61s-1.57-1.03-1.93-1.88c-.37-.85-.55-1.96-.55-3.32v-17.19h4.51v16.92c0,.88.12,1.52.36,1.93s.8.62,1.67.62h1.04v3.54h-1.18Z"/>
    <path d="M284.75,102.83c-1.86,0-3.42-.34-4.68-1.03-1.27-.69-2.22-1.68-2.87-2.98-.65-1.3-.97-2.86-.97-4.68s.32-3.29.95-4.56c.63-1.28,1.56-2.26,2.79-2.95,1.22-.69,2.73-1.03,4.52-1.03,2.48,0,4.45.73,5.89,2.18,1.44,1.45,2.16,3.52,2.16,6.21,0,.14,0,.32-.02.56-.01.23-.03.41-.05.54h-11.71c.02.79.17,1.52.44,2.2.27.68.69,1.23,1.27,1.65.58.42,1.34.62,2.29.62s1.77-.21,2.36-.64c.59-.43.89-1.06.91-1.91h4.46c-.06,1.3-.41,2.38-1.07,3.25-.66.87-1.55,1.51-2.68,1.94-1.13.43-2.46.64-3.97.64ZM280.8,92.2h7.23c-.03-1.16-.38-2.03-1.03-2.61-.66-.57-1.5-.86-2.52-.86s-1.91.3-2.57.89c-.67.59-1.03,1.45-1.1,2.58Z"/>
    <path d="M301.09,102.82c-.95,0-1.83-.18-2.65-.55-.82-.36-1.48-.91-1.99-1.65-.51-.74-.76-1.65-.76-2.76,0-1.54.46-2.7,1.38-3.48.92-.78,2.21-1.31,3.87-1.59,1.66-.28,3.59-.44,5.79-.49v-.89c0-1.08-.26-1.82-.78-2.22-.52-.4-1.19-.6-2.01-.6-.9,0-1.64.21-2.22.64-.58.43-.87,1.12-.87,2.08h-4.24c0-1.42.31-2.55.93-3.38.62-.83,1.48-1.43,2.58-1.79,1.1-.36,2.37-.55,3.82-.55,1.06,0,2.03.09,2.91.27.88.18,1.64.48,2.28.91.64.43,1.14,1.02,1.5,1.77.35.75.53,1.68.53,2.79v11.19h-4.24l-.14-2.17c-.71.81-1.53,1.42-2.46,1.84-.93.42-2.01.62-3.23.62ZM302.57,99.71c.86,0,1.64-.22,2.37-.67s1.3-.95,1.73-1.52v-2.7c-2.39.01-4.07.24-5.02.68s-1.44,1.15-1.44,2.13c0,.71.22,1.23.66,1.57s1.01.51,1.7.51Z"/>
    <path d="M322.55,102.83c-.92,0-1.83-.09-2.72-.26-.89-.17-1.69-.46-2.41-.88s-1.29-.98-1.71-1.7c-.42-.72-.63-1.61-.63-2.68h4.2c0,.93.33,1.58.98,1.95.65.37,1.42.55,2.3.55s1.54-.14,2.02-.42.72-.75.72-1.41c0-.63-.28-1.09-.85-1.4-.56-.31-1.55-.62-2.96-.94-1.19-.28-2.24-.63-3.17-1.03-.93-.4-1.66-.95-2.18-1.62-.52-.68-.79-1.57-.79-2.67,0-.87.2-1.6.6-2.2.4-.6.93-1.09,1.6-1.46.67-.37,1.42-.64,2.26-.81.84-.17,1.69-.26,2.57-.26s1.69.08,2.51.26c.82.17,1.56.46,2.22.86.66.41,1.19.95,1.59,1.63.4.68.6,1.54.6,2.56h-4.21c0-.86-.27-1.45-.81-1.78s-1.18-.5-1.91-.5c-.79,0-1.4.11-1.85.34-.45.23-.67.6-.67,1.13,0,.31.14.58.43.81.28.23.74.45,1.37.65.63.2,1.45.41,2.48.64,1.08.25,2.05.58,2.91.97.85.4,1.53.93,2.03,1.61.5.67.75,1.54.75,2.62,0,1-.2,1.85-.61,2.55-.4.7-.95,1.26-1.62,1.68-.68.43-1.45.74-2.32.93-.87.19-1.78.29-2.71.29Z"/>
    <path d="M341.28,102.83c-1.86,0-3.42-.34-4.68-1.03-1.27-.69-2.22-1.68-2.87-2.98-.65-1.3-.97-2.86-.97-4.68s.32-3.29.95-4.56c.63-1.28,1.56-2.26,2.79-2.95,1.22-.69,2.73-1.03,4.52-1.03,2.48,0,4.45.73,5.89,2.18,1.44,1.45,2.16,3.52,2.16,6.21,0,.14,0,.32-.02.56-.01.23-.03.41-.05.54h-11.71c.02.79.17,1.52.44,2.2.27.68.69,1.23,1.27,1.65.58.42,1.34.62,2.29.62s1.77-.21,2.36-.64c.59-.43.89-1.06.91-1.91h4.46c-.06,1.3-.41,2.38-1.07,3.25-.66.87-1.55,1.51-2.68,1.94-1.13.43-2.46.64-3.97.64ZM337.33,92.2h7.23c-.03-1.16-.38-2.03-1.03-2.61-.66-.57-1.5-.86-2.52-.86s-1.91.3-2.57.89c-.67.59-1.03,1.45-1.1,2.58Z"/>
  </g>
  <g>
    <path d="M51.58,340.19c-.88,0-1.63-.17-2.25-.51s-1.12-.8-1.51-1.4l-.11,1.69h-1.9v-16.43h2.04v6.45c.42-.63.96-1.13,1.63-1.53.67-.39,1.46-.59,2.36-.59.97,0,1.81.23,2.51.69.71.46,1.26,1.15,1.64,2.06.39.91.58,2.05.58,3.41s-.21,2.48-.62,3.4c-.41.91-.99,1.6-1.74,2.07s-1.63.7-2.64.7ZM51.2,338.52c1.07,0,1.89-.39,2.44-1.17.55-.78.83-1.88.83-3.3s-.26-2.59-.78-3.37c-.52-.78-1.28-1.17-2.29-1.17-.85,0-1.58.23-2.17.68s-1.06,1.01-1.4,1.66v4.58c.32.6.75,1.1,1.31,1.5.55.39,1.24.59,2.05.59Z"/>
    <path d="M58.9,344.34v-1.69h1c.46,0,.86-.12,1.18-.37.32-.25.6-.66.82-1.24l.46-1.07-4.75-11.89h2.16l3.67,9.73,3.39-9.73h2.08l-4.47,11.89-.56,1.44c-.28.71-.57,1.28-.88,1.71-.31.43-.7.74-1.15.93-.46.19-1.04.29-1.75.29h-1.21Z"/>
    <path d="M74.1,339.97l6.15-16.43h2.32l6.07,16.43h-2.27l-1.56-4.6h-6.81l-1.64,4.6h-2.26ZM78.59,333.53h5.59l-2.78-7.8-2.81,7.8Z"/>
    <path d="M94.47,340.16c-1.38,0-2.37-.38-2.98-1.15-.61-.76-.92-1.82-.92-3.16v-7.76h2.05v7.48c0,.54.06,1.02.18,1.44.12.42.35.75.7.99.34.24.83.35,1.48.35.9,0,1.64-.18,2.25-.56.6-.37,1.09-.8,1.45-1.29v-8.42h2.05v11.89h-1.97l-.06-1.83c-.38.47-.92.93-1.62,1.36-.7.44-1.57.65-2.62.65Z"/>
    <path d="M108.57,339.97c-.96,0-1.7-.15-2.21-.46-.51-.3-.86-.74-1.06-1.32-.19-.57-.29-1.26-.29-2.07v-6.4h-1.99v-1.65h1.99v-2.72h2.03v2.72h2.93v1.65h-2.93v6.3c0,.74.1,1.31.29,1.7s.65.59,1.37.59h1.29v1.65h-1.43Z"/>
    <path d="M112.68,339.97v-16.43h2.03v6.37c.37-.48.89-.93,1.57-1.36s1.55-.64,2.61-.64c1.33,0,2.29.38,2.88,1.15.58.77.87,1.85.87,3.25v7.67h-2.04v-7.39c0-.57-.06-1.08-.18-1.53-.12-.45-.34-.8-.65-1.05-.32-.26-.77-.38-1.37-.38-.89,0-1.63.2-2.23.6-.6.4-1.09.84-1.45,1.32v8.42h-2.04Z"/>
    <path d="M131.34,340.17c-1.16,0-2.16-.25-2.99-.74-.83-.49-1.46-1.2-1.9-2.11-.44-.91-.65-2-.65-3.26s.22-2.4.65-3.33c.43-.92,1.07-1.63,1.9-2.13s1.83-.75,2.99-.75,2.2.25,3.05.75c.84.5,1.49,1.21,1.94,2.13.45.92.68,2.03.68,3.33s-.23,2.35-.68,3.26c-.45.92-1.1,1.62-1.94,2.11-.84.49-1.86.74-3.05.74ZM131.34,338.54c.88,0,1.58-.19,2.1-.58.52-.39.9-.92,1.12-1.6s.34-1.45.34-2.31-.11-1.66-.34-2.36c-.23-.69-.6-1.23-1.12-1.63s-1.22-.59-2.1-.59-1.53.2-2.03.59c-.5.39-.86.94-1.08,1.63-.22.69-.33,1.48-.33,2.36s.11,1.63.33,2.31c.22.68.58,1.21,1.08,1.6.5.39,1.18.58,2.03.58Z"/>
    <path d="M140.26,339.97v-11.89h1.92l.07,2.03c.33-.62.8-1.14,1.39-1.55s1.37-.62,2.32-.62h.24v1.87h-.28c-.59,0-1.11.08-1.56.23-.45.16-.84.37-1.17.64-.33.27-.63.59-.89.95v8.35h-2.04Z"/>
    <path d="M153.88,339.97v-16.43h2.4l5.85,9.68h-.89l5.74-9.68h2.34v16.43h-2.16v-14.6h.76l-5.58,9.44h-1.44l-5.66-9.44h.76v14.6h-2.11Z"/>
    <path d="M176.52,340.19c-.68,0-1.31-.13-1.87-.39-.57-.26-1.02-.64-1.35-1.15-.34-.51-.51-1.14-.51-1.89,0-1.07.33-1.88,1-2.43.67-.55,1.61-.93,2.83-1.13s2.65-.31,4.29-.32v-.83c0-1.02-.25-1.72-.76-2.09-.5-.38-1.14-.57-1.92-.57-.82,0-1.51.21-2.08.62-.56.41-.84,1.07-.84,1.96h-1.98c0-.98.21-1.77.63-2.37s1-1.04,1.73-1.32,1.58-.42,2.53-.42c.61,0,1.19.06,1.75.17.56.11,1.06.32,1.5.62.44.3.8.72,1.06,1.26.26.54.39,1.24.39,2.09v7.95h-1.9l-.08-1.81c-.54.61-1.18,1.1-1.9,1.47-.72.37-1.56.55-2.52.55ZM177.05,338.63c.81,0,1.55-.19,2.2-.57.65-.38,1.2-.87,1.64-1.45v-2.42c-2.17.03-3.72.23-4.66.61-.94.38-1.41,1.01-1.41,1.88,0,.59.19,1.07.57,1.42.38.36.93.53,1.67.53Z"/>
    <path d="M190.48,339.97c-.96,0-1.7-.15-2.21-.46-.51-.3-.86-.74-1.06-1.32-.19-.57-.29-1.26-.29-2.07v-6.4h-1.99v-1.65h1.99v-2.72h2.03v2.72h2.93v1.65h-2.93v6.3c0,.74.1,1.31.29,1.7s.65.59,1.37.59h1.29v1.65h-1.43Z"/>
    <path d="M198.56,339.97c-.96,0-1.7-.15-2.21-.46-.51-.3-.86-.74-1.06-1.32-.19-.57-.29-1.26-.29-2.07v-6.4h-1.99v-1.65h1.99v-2.72h2.03v2.72h2.93v1.65h-2.93v6.3c0,.74.1,1.31.29,1.7s.65.59,1.37.59h1.29v1.65h-1.43Z"/>
    <path d="M202.67,339.97v-16.43h2.03v6.37c.37-.48.89-.93,1.57-1.36s1.55-.64,2.61-.64c1.33,0,2.29.38,2.88,1.15.58.77.87,1.85.87,3.25v7.67h-2.04v-7.39c0-.57-.06-1.08-.18-1.53-.12-.45-.34-.8-.65-1.05-.32-.26-.77-.38-1.37-.38-.89,0-1.63.2-2.23.6-.6.4-1.09.84-1.45,1.32v8.42h-2.04Z"/>
    <path d="M217.47,325.85c-.38,0-.69-.11-.92-.33-.23-.22-.35-.51-.35-.85s.12-.62.35-.85c.23-.22.54-.34.92-.34s.69.11.93.34c.24.22.35.51.35.85s-.12.62-.35.85c-.24.22-.54.33-.93.33ZM216.46,339.97v-11.89h2.04v11.89h-2.04Z"/>
    <path d="M225.37,340.19c-.68,0-1.31-.13-1.87-.39-.57-.26-1.02-.64-1.35-1.15-.34-.51-.51-1.14-.51-1.89,0-1.07.33-1.88,1-2.43.67-.55,1.61-.93,2.83-1.13s2.65-.31,4.29-.32v-.83c0-1.02-.25-1.72-.76-2.09-.5-.38-1.14-.57-1.92-.57-.82,0-1.51.21-2.08.62-.56.41-.84,1.07-.84,1.96h-1.98c0-.98.21-1.77.63-2.37s1-1.04,1.73-1.32,1.58-.42,2.53-.42c.61,0,1.19.06,1.75.17.56.11,1.06.32,1.5.62.44.3.8.72,1.06,1.26.26.54.39,1.24.39,2.09v7.95h-1.9l-.08-1.81c-.54.61-1.18,1.1-1.9,1.47-.72.37-1.56.55-2.52.55ZM225.9,338.63c.81,0,1.55-.19,2.2-.57.65-.38,1.2-.87,1.64-1.45v-2.42c-2.17.03-3.72.23-4.66.61-.94.38-1.41,1.01-1.41,1.88,0,.59.19,1.07.57,1.42.38.36.93.53,1.67.53Z"/>
    <path d="M239.8,340.19c-.67,0-1.3-.07-1.9-.22-.6-.15-1.12-.38-1.58-.7-.46-.32-.81-.73-1.07-1.25-.26-.52-.38-1.14-.38-1.87h1.97c0,.93.29,1.58.86,1.96.57.38,1.29.57,2.15.57.77,0,1.41-.15,1.91-.45.5-.3.75-.79.75-1.47,0-.59-.23-1.02-.68-1.31-.45-.28-1.25-.56-2.39-.83-.93-.22-1.71-.47-2.34-.76-.63-.29-1.11-.66-1.43-1.1s-.48-1-.48-1.68c0-.53.11-1,.34-1.4s.54-.74.94-1.01c.4-.27.88-.47,1.42-.6s1.14-.2,1.77-.2,1.21.07,1.76.22c.55.15,1.03.37,1.45.68s.75.71,1,1.2.37,1.07.37,1.76h-1.98c0-.85-.25-1.44-.76-1.79-.5-.35-1.12-.52-1.84-.52s-1.33.13-1.78.39c-.46.26-.68.67-.68,1.22,0,.32.1.59.31.81s.54.42,1.03.59c.48.18,1.13.36,1.94.56.89.21,1.63.46,2.23.76s1.06.67,1.36,1.13c.3.46.46,1.05.46,1.76,0,.62-.12,1.15-.36,1.61-.24.45-.57.82-1,1.11-.43.29-.93.5-1.5.64-.57.14-1.19.21-1.86.21Z"/>
    <path d="M260.02,340.19c-1.71,0-3.15-.35-4.32-1.06s-2.05-1.69-2.65-2.96c-.6-1.27-.9-2.73-.9-4.4s.3-3.15.9-4.42c.6-1.27,1.48-2.26,2.65-2.97s2.61-1.06,4.32-1.06c.85,0,1.66.11,2.43.32.77.22,1.47.54,2.1.98.63.44,1.14.98,1.54,1.64.4.66.65,1.44.74,2.33h-2.2c-.08-.63-.32-1.2-.7-1.73-.39-.52-.91-.95-1.57-1.27-.66-.32-1.45-.48-2.36-.48-1.32,0-2.39.3-3.22.9s-1.44,1.4-1.82,2.4c-.38,1-.57,2.12-.57,3.36s.19,2.34.58,3.34c.39,1,1,1.79,1.83,2.38s1.91.88,3.23.88c1.15,0,2.09-.21,2.83-.62.74-.41,1.29-.98,1.65-1.72s.55-1.58.57-2.54h-4.8v-1.82h6.95v1.28c0,1.42-.27,2.68-.8,3.77-.53,1.09-1.33,1.94-2.39,2.56-1.06.62-2.39.92-4,.92Z"/>
    <path d="M270.52,339.97v-11.89h1.92l.07,2.03c.33-.62.8-1.14,1.39-1.55s1.37-.62,2.32-.62h.24v1.87h-.28c-.59,0-1.11.08-1.56.23-.45.16-.84.37-1.17.64-.33.27-.63.59-.89.95v8.35h-2.04Z"/>
    <path d="M279.9,325.85c-.38,0-.69-.11-.92-.33-.23-.22-.35-.51-.35-.85s.12-.62.35-.85c.23-.22.54-.34.92-.34s.69.11.93.34c.24.22.35.51.35.85s-.12.62-.35.85c-.24.22-.54.33-.93.33ZM278.88,339.97v-11.89h2.04v11.89h-2.04Z"/>
    <path d="M289.8,340.19c-1.29,0-2.35-.27-3.18-.81-.83-.54-1.44-1.28-1.84-2.21-.4-.93-.6-1.98-.6-3.14s.19-2.28.58-3.21c.39-.92.98-1.64,1.77-2.17.79-.52,1.8-.78,3.02-.78,1.62,0,2.89.49,3.81,1.46s1.38,2.38,1.38,4.21c0,.12,0,.27-.01.43,0,.17-.02.29-.04.36h-8.47c0,.77.13,1.48.37,2.13.24.65.62,1.17,1.14,1.56.52.39,1.21.59,2.06.59.91,0,1.62-.21,2.14-.64.51-.43.78-1.04.81-1.85h2.01c-.02.84-.24,1.56-.65,2.17-.41.61-.98,1.07-1.71,1.4s-1.6.49-2.6.49ZM286.23,332.86h6.49c-.02-1.11-.31-1.95-.87-2.54-.55-.59-1.32-.88-2.31-.88s-1.77.29-2.34.87-.89,1.43-.98,2.54Z"/>
    <path d="M302.11,340.19c-.67,0-1.3-.07-1.9-.22-.6-.15-1.12-.38-1.58-.7-.46-.32-.81-.73-1.07-1.25-.26-.52-.38-1.14-.38-1.87h1.97c0,.93.29,1.58.86,1.96.57.38,1.29.57,2.15.57.77,0,1.41-.15,1.91-.45.5-.3.75-.79.75-1.47,0-.59-.23-1.02-.68-1.31-.45-.28-1.25-.56-2.39-.83-.93-.22-1.71-.47-2.34-.76-.63-.29-1.11-.66-1.43-1.1s-.48-1-.48-1.68c0-.53.11-1,.34-1.4s.54-.74.94-1.01c.4-.27.88-.47,1.42-.6s1.14-.2,1.77-.2,1.21.07,1.76.22c.55.15,1.03.37,1.45.68s.75.71,1,1.2.37,1.07.37,1.76h-1.98c0-.85-.25-1.44-.76-1.79-.5-.35-1.12-.52-1.84-.52s-1.33.13-1.78.39c-.46.26-.68.67-.68,1.22,0,.32.1.59.31.81s.54.42,1.03.59c.48.18,1.13.36,1.94.56.89.21,1.63.46,2.23.76s1.06.67,1.36,1.13c.3.46.46,1.05.46,1.76,0,.62-.12,1.15-.36,1.61-.24.45-.57.82-1,1.11-.43.29-.93.5-1.5.64-.57.14-1.19.21-1.86.21Z"/>
    <path d="M315.54,339.97v-10.24h-1.99v-1.65h1.99v-.68c0-.6.05-1.14.15-1.62.1-.48.28-.88.54-1.21.26-.33.61-.58,1.07-.76.46-.18,1.06-.26,1.79-.26h1.23v1.6h-1.1c-.72,0-1.18.2-1.37.59s-.29.96-.29,1.7v.66h2.77v1.65h-2.77v10.24h-2.03Z"/>
    <path d="M322.66,339.97v-11.89h1.92l.07,2.03c.33-.62.8-1.14,1.39-1.55s1.37-.62,2.32-.62h.24v1.87h-.28c-.59,0-1.11.08-1.56.23-.45.16-.84.37-1.17.64-.33.27-.63.59-.89.95v8.35h-2.04Z"/>
    <path d="M335.55,340.17c-1.16,0-2.16-.25-2.99-.74-.83-.49-1.46-1.2-1.9-2.11-.44-.91-.65-2-.65-3.26s.22-2.4.65-3.33c.43-.92,1.07-1.63,1.9-2.13s1.83-.75,2.99-.75,2.2.25,3.05.75c.84.5,1.49,1.21,1.94,2.13.45.92.68,2.03.68,3.33s-.23,2.35-.68,3.26c-.45.92-1.1,1.62-1.94,2.11-.84.49-1.86.74-3.05.74ZM335.55,338.54c.88,0,1.58-.19,2.1-.58.52-.39.9-.92,1.12-1.6s.34-1.45.34-2.31-.11-1.66-.34-2.36c-.23-.69-.6-1.23-1.12-1.63s-1.22-.59-2.1-.59-1.53.2-2.03.59c-.5.39-.86.94-1.08,1.63-.22.69-.33,1.48-.33,2.36s.11,1.63.33,2.31c.22.68.58,1.21,1.08,1.6.5.39,1.18.58,2.03.58Z"/>
    <path d="M344.47,339.97v-11.89h1.95l.07,1.83c.35-.48.86-.93,1.54-1.36.68-.43,1.52-.64,2.53-.64,1.32,0,2.27.39,2.84,1.16.58.77.87,1.85.87,3.24v7.67h-2.05v-7.37c0-.58-.06-1.09-.18-1.54-.12-.45-.34-.8-.65-1.05-.32-.26-.77-.38-1.37-.38-.84,0-1.55.2-2.12.6s-1.04.84-1.39,1.32v8.42h-2.04ZM359.95,339.97v-7.37c0-.58-.06-1.09-.18-1.54-.12-.45-.33-.8-.65-1.05-.32-.26-.77-.38-1.35-.38-.85,0-1.56.2-2.14.59-.58.39-1.05.83-1.43,1.31l-.31-1.49c.47-.52,1.07-1,1.79-1.45.72-.45,1.58-.67,2.59-.67,1.32,0,2.27.39,2.84,1.16.58.77.87,1.85.87,3.24v7.67h-2.04Z"/>
    <path d="M378.07,340.19c-1.7,0-3.13-.36-4.3-1.07-1.16-.71-2.04-1.7-2.64-2.97-.6-1.26-.9-2.72-.9-4.38s.3-3.12.9-4.39c.6-1.27,1.48-2.26,2.64-2.98,1.16-.72,2.6-1.07,4.3-1.07,1.12,0,2.18.2,3.18.59s1.83.99,2.49,1.79c.66.8,1.05,1.81,1.17,3.03h-2.21c-.1-.82-.37-1.5-.82-2.03-.45-.53-1.01-.93-1.67-1.19s-1.37-.39-2.13-.39c-1.32,0-2.39.3-3.2.9-.82.6-1.41,1.4-1.79,2.4-.37,1-.56,2.12-.56,3.35s.19,2.33.56,3.33c.38,1,.97,1.8,1.79,2.39.82.59,1.89.88,3.2.88s2.42-.33,3.25-.99c.83-.66,1.31-1.64,1.44-2.96h2.22c-.13,1.29-.51,2.37-1.13,3.22-.63.85-1.44,1.49-2.43,1.91-.99.42-2.11.63-3.34.63Z"/>
    <path d="M387.5,344.34v-1.69h1c.46,0,.86-.12,1.18-.37.32-.25.6-.66.82-1.24l.46-1.07-4.75-11.89h2.16l3.67,9.73,3.39-9.73h2.08l-4.47,11.89-.56,1.44c-.28.71-.57,1.28-.88,1.71-.31.43-.7.74-1.15.93-.46.19-1.04.29-1.75.29h-1.21Z"/>
    <path d="M405.26,340.19c-.88,0-1.63-.17-2.25-.51s-1.12-.8-1.51-1.4l-.11,1.69h-1.9v-16.43h2.04v6.45c.42-.63.96-1.13,1.63-1.53.67-.39,1.46-.59,2.36-.59.97,0,1.81.23,2.51.69.71.46,1.26,1.15,1.64,2.06.39.91.58,2.05.58,3.41s-.21,2.48-.62,3.4c-.41.91-.99,1.6-1.74,2.07s-1.63.7-2.64.7ZM404.89,338.52c1.07,0,1.89-.39,2.44-1.17.55-.78.83-1.88.83-3.3s-.26-2.59-.78-3.37c-.52-.78-1.28-1.17-2.29-1.17-.85,0-1.58.23-2.17.68s-1.06,1.01-1.4,1.66v4.58c.32.6.75,1.1,1.31,1.5.55.39,1.24.59,2.05.59Z"/>
    <path d="M418.46,340.19c-1.29,0-2.35-.27-3.18-.81-.83-.54-1.44-1.28-1.84-2.21-.4-.93-.6-1.98-.6-3.14s.19-2.28.58-3.21c.39-.92.98-1.64,1.77-2.17.79-.52,1.8-.78,3.02-.78,1.62,0,2.89.49,3.81,1.46s1.38,2.38,1.38,4.21c0,.12,0,.27-.01.43,0,.17-.02.29-.04.36h-8.47c0,.77.13,1.48.37,2.13.24.65.62,1.17,1.14,1.56.52.39,1.21.59,2.06.59.91,0,1.62-.21,2.14-.64.51-.43.78-1.04.81-1.85h2.01c-.02.84-.24,1.56-.65,2.17-.41.61-.98,1.07-1.71,1.4s-1.6.49-2.6.49ZM414.89,332.86h6.49c-.02-1.11-.31-1.95-.87-2.54-.55-.59-1.32-.88-2.31-.88s-1.77.29-2.34.87-.89,1.43-.98,2.54Z"/>
    <path d="M426.69,339.97v-11.89h1.92l.07,2.03c.33-.62.8-1.14,1.39-1.55s1.37-.62,2.32-.62h.24v1.87h-.28c-.59,0-1.11.08-1.56.23-.45.16-.84.37-1.17.64-.33.27-.63.59-.89.95v8.35h-2.04Z"/>
    <path d="M438.76,340.16c-1.38,0-2.37-.38-2.98-1.15-.61-.76-.92-1.82-.92-3.16v-7.76h2.05v7.48c0,.54.06,1.02.18,1.44.12.42.35.75.7.99.34.24.83.35,1.48.35.9,0,1.64-.18,2.25-.56.6-.37,1.09-.8,1.45-1.29v-8.42h2.05v11.89h-1.97l-.06-1.83c-.38.47-.92.93-1.62,1.36-.7.44-1.57.65-2.62.65Z"/>
    <path d="M453.16,340.19c-.67,0-1.3-.07-1.9-.22-.6-.15-1.12-.38-1.58-.7-.46-.32-.81-.73-1.07-1.25-.26-.52-.38-1.14-.38-1.87h1.97c0,.93.29,1.58.86,1.96.57.38,1.29.57,2.15.57.77,0,1.41-.15,1.91-.45.5-.3.75-.79.75-1.47,0-.59-.23-1.02-.68-1.31-.45-.28-1.25-.56-2.39-.83-.93-.22-1.71-.47-2.34-.76-.63-.29-1.11-.66-1.43-1.1s-.48-1-.48-1.68c0-.53.11-1,.34-1.4s.54-.74.94-1.01c.4-.27.88-.47,1.42-.6s1.14-.2,1.77-.2,1.21.07,1.76.22c.55.15,1.03.37,1.45.68s.75.71,1,1.2.37,1.07.37,1.76h-1.98c0-.85-.25-1.44-.76-1.79-.5-.35-1.12-.52-1.84-.52s-1.33.13-1.78.39c-.46.26-.68.67-.68,1.22,0,.32.1.59.31.81s.54.42,1.03.59c.48.18,1.13.36,1.94.56.89.21,1.63.46,2.23.76s1.06.67,1.36,1.13c.3.46.46,1.05.46,1.76,0,.62-.12,1.15-.36,1.61-.24.45-.57.82-1,1.11-.43.29-.93.5-1.5.64-.57.14-1.19.21-1.86.21Z"/>
    <path d="M469.11,339.97v-14.59h-4.67v-1.84h11.52v1.84h-4.66v14.59h-2.19Z"/>
    <path d="M481.08,340.19c-1.29,0-2.35-.27-3.18-.81-.83-.54-1.44-1.28-1.84-2.21-.4-.93-.6-1.98-.6-3.14s.19-2.28.58-3.21c.39-.92.98-1.64,1.77-2.17.79-.52,1.8-.78,3.02-.78,1.62,0,2.89.49,3.81,1.46s1.38,2.38,1.38,4.21c0,.12,0,.27-.01.43,0,.17-.02.29-.04.36h-8.47c0,.77.13,1.48.37,2.13.24.65.62,1.17,1.14,1.56.52.39,1.21.59,2.06.59.91,0,1.62-.21,2.14-.64.51-.43.78-1.04.81-1.85h2.01c-.02.84-.24,1.56-.65,2.17-.41.61-.98,1.07-1.71,1.4s-1.6.49-2.6.49ZM477.52,332.86h6.49c-.02-1.11-.31-1.95-.87-2.54-.55-.59-1.32-.88-2.31-.88s-1.77.29-2.34.87-.89,1.43-.98,2.54Z"/>
    <path d="M494.14,340.18c-1.07,0-2.03-.23-2.86-.68s-1.48-1.13-1.95-2.04c-.47-.91-.7-2.04-.7-3.41s.23-2.51.69-3.42c.46-.91,1.1-1.6,1.93-2.06.83-.46,1.79-.69,2.89-.69.92,0,1.75.15,2.48.45.74.3,1.32.76,1.76,1.36.44.61.67,1.37.7,2.3h-2.01c-.05-.76-.33-1.37-.83-1.81-.5-.44-1.19-.66-2.06-.66-1.16,0-2.02.4-2.59,1.19s-.85,1.91-.85,3.34c0,.95.13,1.76.38,2.42.25.66.63,1.17,1.15,1.53.51.36,1.15.53,1.92.53.87,0,1.58-.22,2.12-.68.54-.45.83-1.11.85-1.98h2.01c-.02.96-.26,1.76-.7,2.4-.44.64-1.04,1.12-1.79,1.43-.75.32-1.6.48-2.53.48Z"/>
    <path d="M502.43,339.97v-16.43h2.03v6.37c.37-.48.89-.93,1.57-1.36s1.55-.64,2.61-.64c1.33,0,2.29.38,2.88,1.15.58.77.87,1.85.87,3.25v7.67h-2.04v-7.39c0-.57-.06-1.08-.18-1.53-.12-.45-.34-.8-.65-1.05-.32-.26-.77-.38-1.37-.38-.89,0-1.63.2-2.23.6-.6.4-1.09.84-1.45,1.32v8.42h-2.04Z"/>
    <path d="M516.21,339.97v-11.89h1.95l.07,1.83c.37-.48.89-.93,1.57-1.36s1.56-.64,2.62-.64c1.3,0,2.25.38,2.84,1.15.59.77.89,1.85.89,3.24v7.67h-2.04v-7.37c0-.58-.06-1.09-.18-1.54-.12-.45-.34-.8-.65-1.05-.31-.26-.77-.38-1.36-.38-.89,0-1.63.2-2.23.6-.6.4-1.09.84-1.45,1.32v8.42h-2.04Z"/>
    <path d="M534.87,340.17c-1.16,0-2.16-.25-2.99-.74-.83-.49-1.46-1.2-1.9-2.11-.44-.91-.65-2-.65-3.26s.22-2.4.65-3.33c.43-.92,1.07-1.63,1.9-2.13s1.83-.75,2.99-.75,2.2.25,3.05.75c.84.5,1.49,1.21,1.94,2.13.45.92.68,2.03.68,3.33s-.23,2.35-.68,3.26c-.45.92-1.1,1.62-1.94,2.11-.84.49-1.86.74-3.05.74ZM534.87,338.54c.88,0,1.58-.19,2.1-.58.52-.39.9-.92,1.12-1.6s.34-1.45.34-2.31-.11-1.66-.34-2.36c-.23-.69-.6-1.23-1.12-1.63s-1.22-.59-2.1-.59-1.53.2-2.03.59c-.5.39-.86.94-1.08,1.63-.22.69-.33,1.48-.33,2.36s.11,1.63.33,2.31c.22.68.58,1.21,1.08,1.6.5.39,1.18.58,2.03.58Z"/>
    <path d="M547.21,339.97c-.97,0-1.71-.15-2.22-.46-.51-.3-.86-.74-1.05-1.32-.19-.57-.28-1.26-.28-2.07v-12.59h2.03v12.49c0,.74.1,1.31.29,1.7.19.39.65.59,1.37.59h.55v1.66h-.68Z"/>
    <path d="M555.17,340.17c-1.16,0-2.16-.25-2.99-.74-.83-.49-1.46-1.2-1.9-2.11-.44-.91-.65-2-.65-3.26s.22-2.4.65-3.33c.43-.92,1.07-1.63,1.9-2.13s1.83-.75,2.99-.75,2.2.25,3.05.75c.84.5,1.49,1.21,1.94,2.13.45.92.68,2.03.68,3.33s-.23,2.35-.68,3.26c-.45.92-1.1,1.62-1.94,2.11-.84.49-1.86.74-3.05.74ZM555.17,338.54c.88,0,1.58-.19,2.1-.58.52-.39.9-.92,1.12-1.6s.34-1.45.34-2.31-.11-1.66-.34-2.36c-.23-.69-.6-1.23-1.12-1.63s-1.22-.59-2.1-.59-1.53.2-2.03.59c-.5.39-.86.94-1.08,1.63-.22.69-.33,1.48-.33,2.36s.11,1.63.33,2.31c.22.68.58,1.21,1.08,1.6.5.39,1.18.58,2.03.58Z"/>
    <path d="M568.23,344.57c-1.29,0-2.31-.15-3.08-.44-.77-.29-1.32-.68-1.67-1.17s-.51-1.02-.51-1.59c0-.69.29-1.31.89-1.84.59-.54,1.5-.92,2.73-1.14l.39-.67h1.5c1.95,0,3.35.26,4.19.78.84.52,1.26,1.32,1.26,2.4s-.48,1.95-1.43,2.64-2.37,1.03-4.25,1.03ZM566.56,339.28c-.77-.08-1.38-.24-1.83-.48-.44-.24-.76-.51-.95-.81s-.28-.58-.28-.86c0-.4.16-.77.48-1.13.32-.35.85-.64,1.58-.87l1.01.63c-.43.12-.77.28-1.03.47-.25.19-.38.41-.38.64,0,.16.08.31.23.43.15.13.41.23.77.3.36.08.86.12,1.51.12l-1.12,1.55ZM568.08,336.13c-.98,0-1.8-.19-2.48-.57-.68-.38-1.19-.87-1.54-1.49-.35-.62-.52-1.28-.52-2,0-.76.18-1.44.53-2.06.35-.62.88-1.11,1.56-1.48s1.53-.55,2.52-.55,1.86.18,2.54.55c.68.37,1.18.86,1.51,1.48.33.62.5,1.31.5,2.06s-.17,1.41-.51,2.02c-.34.62-.85,1.11-1.53,1.48-.68.37-1.54.55-2.58.55ZM568.18,343.1c1.38,0,2.36-.2,2.92-.59.57-.39.85-.88.85-1.45,0-.34-.1-.64-.29-.88-.19-.25-.55-.44-1.06-.58s-1.25-.21-2.2-.21h-1.81c-.55.14-.98.37-1.28.71-.3.33-.45.72-.45,1.16,0,.49.26.92.77,1.29.51.37,1.36.55,2.55.55ZM568.07,334.74c.78,0,1.43-.22,1.93-.67.51-.45.76-1.11.76-1.99s-.24-1.6-.72-2.04c-.48-.44-1.11-.67-1.9-.67s-1.41.23-1.92.68c-.51.46-.76,1.13-.76,2.01s.26,1.56.79,2.01c.52.44,1.13.67,1.83.67ZM571.18,329.29l-.83-.77c.35-.76.81-1.29,1.37-1.56.57-.28,1.3-.43,2.19-.45v1.72c-.57,0-1.09.06-1.57.18-.48.12-.87.41-1.17.88Z"/>
    <path d="M575.76,344.34v-1.69h1c.46,0,.86-.12,1.18-.37.32-.25.6-.66.82-1.24l.46-1.07-4.75-11.89h2.16l3.67,9.73,3.39-9.73h2.08l-4.47,11.89-.56,1.44c-.28.71-.57,1.28-.88,1.71-.31.43-.7.74-1.15.93-.46.19-1.04.29-1.75.29h-1.21Z"/>
    <path d="M600.04,340.19c-1.71,0-3.15-.35-4.32-1.06s-2.05-1.69-2.65-2.96c-.6-1.27-.9-2.73-.9-4.4s.3-3.15.9-4.42c.6-1.27,1.48-2.26,2.65-2.97s2.61-1.06,4.32-1.06c.85,0,1.66.11,2.43.32.77.22,1.47.54,2.1.98.63.44,1.14.98,1.54,1.64.4.66.65,1.44.74,2.33h-2.2c-.08-.63-.32-1.2-.7-1.73-.39-.52-.91-.95-1.57-1.27-.66-.32-1.45-.48-2.36-.48-1.32,0-2.39.3-3.22.9s-1.44,1.4-1.82,2.4c-.38,1-.57,2.12-.57,3.36s.19,2.34.58,3.34c.39,1,1,1.79,1.83,2.38s1.91.88,3.23.88c1.15,0,2.09-.21,2.83-.62.74-.41,1.29-.98,1.65-1.72s.55-1.58.57-2.54h-4.8v-1.82h6.95v1.28c0,1.42-.27,2.68-.8,3.77-.53,1.09-1.33,1.94-2.39,2.56-1.06.62-2.39.92-4,.92Z"/>
    <path d="M610.54,339.97v-11.89h1.95l.07,1.83c.35-.48.86-.93,1.54-1.36.68-.43,1.52-.64,2.53-.64,1.32,0,2.27.39,2.84,1.16.58.77.87,1.85.87,3.24v7.67h-2.05v-7.37c0-.58-.06-1.09-.18-1.54-.12-.45-.34-.8-.65-1.05-.32-.26-.77-.38-1.37-.38-.84,0-1.55.2-2.12.6s-1.04.84-1.39,1.32v8.42h-2.04ZM626.01,339.97v-7.37c0-.58-.06-1.09-.18-1.54-.12-.45-.33-.8-.65-1.05-.32-.26-.77-.38-1.35-.38-.85,0-1.56.2-2.14.59-.58.39-1.05.83-1.43,1.31l-.31-1.49c.47-.52,1.07-1,1.79-1.45.72-.45,1.58-.67,2.59-.67,1.32,0,2.27.39,2.84,1.16.58.77.87,1.85.87,3.24v7.67h-2.04Z"/>
    <path d="M637.64,340.19c-.88,0-1.63-.17-2.25-.51s-1.12-.8-1.51-1.4l-.11,1.69h-1.9v-16.43h2.04v6.45c.42-.63.96-1.13,1.63-1.53.67-.39,1.46-.59,2.36-.59.97,0,1.81.23,2.51.69.71.46,1.26,1.15,1.64,2.06.39.91.58,2.05.58,3.41s-.21,2.48-.62,3.4c-.41.91-.99,1.6-1.74,2.07s-1.63.7-2.64.7ZM637.26,338.52c1.07,0,1.89-.39,2.44-1.17.55-.78.83-1.88.83-3.3s-.26-2.59-.78-3.37c-.52-.78-1.28-1.17-2.29-1.17-.85,0-1.58.23-2.17.68s-1.06,1.01-1.4,1.66v4.58c.32.6.75,1.1,1.31,1.5.55.39,1.24.59,2.05.59Z"/>
    <path d="M646.07,339.97v-16.43h2.2v6.9h8.98v-6.9h2.17v16.43h-2.17v-7.63h-8.98v7.63h-2.2Z"/>
  </g>
  <g id="c" data-name="g10">
    <g id="d" data-name="g12">
      <path id="e" data-name="path14" d="M75.74,289.06v.41c0,.21-.07.27-.3.27h-4.94v14.89c0,.23-.07.3-.27.3h-.48c-.23,0-.3-.07-.3-.3v-14.89h-4.94c-.23,0-.3-.07-.3-.27v-.41c0-.23.07-.3.3-.3h10.93c.23,0,.3.07.3.3" fill="#231f20"/>
      <path id="f" data-name="path16" d="M87.78,289.06v.41c0,.21-.07.27-.3.27h-8.54v6.51h7.56c.2,0,.27.07.27.27v.41c0,.23-.07.3-.27.3h-7.56v6.72h8.86c.21,0,.3.07.3.27v.41c0,.23-.09.3-.3.3h-9.61c-.23,0-.3-.07-.3-.3v-15.58c0-.23.07-.3.3-.3h9.29c.23,0,.3.07.3.3" fill="#231f20"/>
      <path id="g" data-name="path18" d="M96.4,288.45c3.53,0,5.22,1.37,5.99,3.96.07.23,0,.3-.21.39l-.41.14c-.23.04-.32.02-.39-.18-.68-2.26-2.03-3.32-4.99-3.32-3.37,0-5.08,1.73-5.08,4.6v5.63c0,2.85,1.78,4.62,5.08,4.62,3.05,0,4.35-1.18,5.03-3.44.09-.2.18-.25.39-.18l.43.16c.21.07.25.16.18.36-.77,2.6-2.41,4.08-6.03,4.08-3.96,0-6.13-2.14-6.13-5.63v-5.58c0-3.46,2.1-5.6,6.13-5.6" fill="#231f20"/>
      <path id="h" data-name="path20" d="M116.91,289.06v15.58c0,.23-.07.3-.3.3h-.48c-.2,0-.27-.07-.27-.3v-7.4h-9.63v7.4c0,.23-.07.3-.27.3h-.48c-.23,0-.3-.07-.3-.3v-15.58c0-.23.07-.3.3-.3h.48c.21,0,.27.07.27.3v7.2h9.63v-7.2c0-.23.07-.3.27-.3h.48c.23,0,.3.07.3.3" fill="#231f20"/>
      <path id="i" data-name="path22" d="M132.57,289.06v15.58c0,.23-.07.3-.27.3h-.48c-.16,0-.23-.02-.32-.18l-8.08-11.52c-.75-1.07-1.37-2.3-1.84-2.96h-.05c0,.86.14,2.32.14,3.76v10.61c0,.23-.07.3-.27.3h-.46c-.23,0-.3-.07-.3-.3v-15.58c0-.23.07-.3.3-.3h.46c.18,0,.27.09.32.16l7.86,11.23c.84,1.21,1.55,2.48,2.09,3.26h.05c0-1-.16-2.53-.16-4.1v-10.27c0-.2.07-.27.3-.27h.45c.21,0,.27.07.27.3" fill="#231f20"/>
      <path id="j" data-name="path24" d="M141.97,289.43c-3.32,0-5.1,1.73-5.1,4.65v5.56c0,2.91,1.78,4.65,5.1,4.65s5.06-1.73,5.06-4.65v-5.56c0-2.91-1.78-4.65-5.06-4.65ZM141.97,288.45c3.96,0,6.1,2.14,6.1,5.63v5.56c0,3.48-2.14,5.63-6.1,5.63s-6.15-2.14-6.15-5.63v-5.56c0-3.48,2.14-5.63,6.15-5.63" fill="#231f20"/>
      <path id="k" data-name="path26" d="M152.37,289.06v14.89h8.29c.2,0,.27.07.27.27v.41c0,.23-.07.3-.27.3h-9.04c-.23,0-.29-.07-.29-.3v-15.58c0-.23.07-.3.29-.3h.48c.2,0,.27.07.27.3" fill="#231f20"/>
      <path id="l" data-name="path28" d="M168.49,289.43c-3.32,0-5.1,1.73-5.1,4.65v5.56c0,2.91,1.78,4.65,5.1,4.65s5.05-1.73,5.05-4.65v-5.56c0-2.91-1.77-4.65-5.05-4.65ZM168.49,288.45c3.96,0,6.1,2.14,6.1,5.63v5.56c0,3.48-2.14,5.63-6.1,5.63s-6.15-2.14-6.15-5.63v-5.56c0-3.48,2.14-5.63,6.15-5.63" fill="#231f20"/>
      <path id="m" data-name="path30" d="M189.61,297.1v2.66c0,3.32-2.14,5.49-6.1,5.49s-6.15-2.16-6.15-5.65v-5.56c0-3.46,2.1-5.6,6.13-5.6,3.53,0,5.21,1.37,5.99,3.96.07.23,0,.3-.2.39l-.41.14c-.2.07-.32.02-.39-.18-.68-2.26-2.03-3.32-4.99-3.32-3.4,0-5.08,1.73-5.08,4.6v5.58c0,2.91,1.78,4.67,5.1,4.67s5.08-1.75,5.08-4.51v-1.98h-4.87c-.23,0-.3-.09-.3-.3v-.41c0-.21.07-.3.3-.3h5.6c.23,0,.3.09.3.32" fill="#231f20"/>
      <path id="n" data-name="path32" d="M203.93,289.06l-6.17,9.22v6.35c0,.23-.07.3-.27.3h-.48c-.23,0-.29-.07-.29-.3v-6.38l-6.15-9.2c-.09-.16-.05-.3.16-.3h.61c.32,0,.41.02.52.25l5.4,8.18,5.4-8.18c.14-.23.23-.25.55-.25h.57c.21,0,.25.14.16.3" fill="#231f20"/>
      <path id="o" data-name="path34" d="M58.4,252.61c6.01,0,9.76,2.46,11.4,6.83.39,1.13.12,1.72-1.05,2.11l-4.18,1.48c-1.21.35-1.68.16-2.11-1.05-.7-1.76-1.87-2.54-4.06-2.54-3.08,0-4.29,1.33-4.29,4.06v7.1c0,2.73,1.21,4.06,4.29,4.06,2.19,0,3.43-.86,4.06-2.54.47-1.21.94-1.48,2.11-1.05l4.18,1.48c1.17.39,1.44.98,1.05,2.11-1.64,4.37-5.39,6.83-11.4,6.83-7.69,0-12.02-4.18-12.02-10.93v-7.02c0-6.75,4.33-10.93,12.02-10.93" fill="#231f20"/>
      <path id="p" data-name="path36" d="M95.82,254.83l-9.01,15.34v9.09c0,1.21-.39,1.64-1.64,1.64h-4.41c-1.25,0-1.68-.43-1.68-1.64v-9.09l-8.98-15.34c-.55-.9-.39-1.64.82-1.64h4.68c1.95,0,2.5.08,3.24,1.44l4.17,7.96,4.29-7.96c.74-1.37,1.29-1.44,3.2-1.44h4.49c1.17,0,1.33.74.82,1.64" fill="#231f20"/>
      <path id="q" data-name="path38" d="M110.34,270.01h-4.53v4.56h4.53c1.68,0,2.5-.66,2.5-2.3s-.82-2.26-2.5-2.26ZM109.6,259.44h-3.78v4.29h3.78c1.56,0,2.38-.59,2.38-2.11s-.82-2.18-2.38-2.18ZM119.82,260.57c0,2.62-.82,4.37-2.81,5.74v.16c2.5,1.09,3.94,3.32,3.94,6.71,0,5.03-4.1,7.73-9.6,7.73h-11.59c-1.25,0-1.68-.43-1.68-1.64v-24.43c0-1.25.43-1.68,1.68-1.68h11.43c5.39,0,8.62,2.65,8.62,7.41" fill="#231f20"/>
      <path id="r" data-name="path40" d="M143.47,254.83v3.51c0,1.25-.43,1.68-1.68,1.68h-10.3v3.47h8.23c1.25,0,1.68.43,1.68,1.64v3.51c0,1.25-.43,1.68-1.68,1.68h-8.23v3.75h10.65c1.21,0,1.64.39,1.64,1.64v3.55c0,1.21-.43,1.64-1.64,1.64h-16.7c-1.25,0-1.68-.43-1.68-1.64v-24.43c0-1.21.43-1.64,1.68-1.64h16.35c1.25,0,1.68.43,1.68,1.64" fill="#231f20"/>
      <path id="s" data-name="path42" d="M158.64,260.02h-4.22v5.15h4.22c1.64,0,2.57-1.01,2.57-2.62s-.9-2.54-2.57-2.54ZM169.22,262.6c0,3.83-1.56,6.56-4.21,8.04.39.51.74,1.05,1.05,1.68l3.51,6.67c.55,1.05.27,1.91-1.02,1.91h-4.22c-2.07,0-2.97-.51-3.59-1.87l-2.5-5.35c-.66-1.33-1.33-1.99-2.93-1.99h-.9v7.57c0,1.21-.39,1.64-1.64,1.64h-4.41c-1.25,0-1.68-.43-1.68-1.64v-24.43c0-1.21.43-1.64,1.68-1.64h11.12c5.89,0,9.71,3.36,9.71,9.4" fill="#231f20"/>
      <path id="t" data-name="path44" d="M184.05,274.65c2.69,0,4.06-1.29,4.06-3.59v-16.23c0-1.21.39-1.64,1.64-1.64h4.41c1.25,0,1.68.43,1.68,1.64v15.88c0,6.56-4.06,10.77-11.79,10.77s-11.75-4.21-11.75-10.77v-15.88c0-1.21.39-1.64,1.64-1.64h4.41c1.25,0,1.68.43,1.68,1.64v16.23c0,2.3,1.33,3.59,4.02,3.59" fill="#231f20"/>
      <path id="u" data-name="path46" d="M210.23,252.61c5.77,0,9.05,1.72,10.89,5.46.55,1.13.23,1.72-.94,2.18l-3.9,1.68c-1.05.47-1.48.31-2.11-.82-.74-1.48-2.15-2.03-3.94-2.03-2.65,0-3.71.66-3.71,2.03,0,1.68,2.3,2.03,5.11,2.38,4.53.62,10.38,1.72,10.38,9.09,0,5.74-5.19,8.9-12.1,8.9-5.81,0-9.87-1.99-11.36-6.05-.43-1.17-.08-1.72,1.05-2.15l3.67-1.33c1.17-.39,1.72-.27,2.3.86.7,1.37,2.22,2.07,4.41,2.07,2.61,0,4.18-.55,4.18-2.22,0-1.52-1.99-1.95-4.57-2.3-4.57-.62-10.97-1.44-10.97-9.01,0-5.15,4.14-8.74,11.59-8.74" fill="#231f20"/>
    </g>
  </g>
</svg>