<?xml version="1.0" encoding="UTF-8"?>
<svg id="a" data-name="Layer 1" xmlns="http://www.w3.org/2000/svg" width="1600" height="900" xmlns:xlink="http://www.w3.org/1999/xlink" viewBox="0 0 1600 900">
  <defs>
    <linearGradient id="b" x1="-.48" y1="889.93" x2="1599.52" y2="889.93" gradientUnits="userSpaceOnUse">
      <stop offset="0" stop-color="#0f6bff"/>
      <stop offset="1" stop-color="#000025"/>
    </linearGradient>
    <linearGradient id="c" x1="62.12" y1="347.84" x2="1123.88" y2="347.84" gradientTransform="translate(-5.8)" gradientUnits="userSpaceOnUse">
      <stop offset="0" stop-color="#000"/>
      <stop offset=".56" stop-color="#0a0a0a" stop-opacity=".96"/>
      <stop offset="1" stop-color="#fff" stop-opacity="0"/>
    </linearGradient>
  </defs>
  <rect width="1599.52" height="900" fill="#fff"/>
  <g>
    <path d="M66.75,316.53v-52.58h12.62l16.48,28.05h-4.38l16.25-28.05h12.15v52.58h-10.82v-46.72h4.8l-17.19,29.92h-6.76l-17.62-29.92h4.96v46.72h-10.51Z"/>
    <path d="M149.21,317.24c-4.25,0-7.81-.79-10.7-2.36-2.89-1.58-5.08-3.85-6.56-6.82s-2.23-6.54-2.23-10.7.72-7.51,2.17-10.43c1.45-2.92,3.57-5.16,6.37-6.74,2.8-1.58,6.24-2.36,10.33-2.36,5.68,0,10.16,1.66,13.46,4.98,3.29,3.32,4.94,8.05,4.94,14.2,0,.31-.01.74-.04,1.27-.03.53-.07.94-.12,1.23h-26.76c.05,1.8.38,3.48,1,5.04.61,1.56,1.58,2.82,2.91,3.77,1.33.95,3.07,1.43,5.23,1.43s4.04-.49,5.39-1.46c1.35-.98,2.04-2.43,2.07-4.36h10.2c-.13,2.97-.94,5.44-2.44,7.42-1.5,1.98-3.54,3.46-6.13,4.43-2.59.98-5.62,1.46-9.08,1.46ZM140.19,292.94h16.52c-.08-2.66-.87-4.64-2.36-5.96-1.5-1.31-3.42-1.97-5.76-1.97s-4.36.68-5.88,2.03c-1.52,1.35-2.36,3.32-2.52,5.9Z"/>
    <path d="M193.7,317.24c-4.25,0-7.81-.79-10.7-2.36-2.89-1.58-5.08-3.85-6.56-6.82s-2.23-6.54-2.23-10.7.72-7.51,2.17-10.43c1.45-2.92,3.57-5.16,6.37-6.74,2.8-1.58,6.24-2.36,10.33-2.36,5.68,0,10.16,1.66,13.46,4.98,3.29,3.32,4.94,8.05,4.94,14.2,0,.31-.01.74-.04,1.27-.03.53-.07.94-.12,1.23h-26.76c.05,1.8.38,3.48,1,5.04.61,1.56,1.58,2.82,2.91,3.77,1.33.95,3.07,1.43,5.23,1.43s4.04-.49,5.39-1.46c1.35-.98,2.04-2.43,2.07-4.36h10.2c-.13,2.97-.94,5.44-2.44,7.42-1.5,1.98-3.54,3.46-6.13,4.43-2.59.98-5.62,1.46-9.08,1.46ZM184.68,292.94h16.52c-.08-2.66-.87-4.64-2.36-5.96-1.5-1.31-3.42-1.97-5.76-1.97s-4.36.68-5.88,2.03c-1.52,1.35-2.36,3.32-2.52,5.9Z"/>
    <path d="M236.94,316.53c-3.85,0-6.84-.46-8.96-1.39-2.12-.92-3.6-2.36-4.43-4.3-.83-1.94-1.25-4.47-1.25-7.6v-16.88h-6.33v-7.97h6.33v-8.98h10.35v8.98h8.32v7.97h-8.32v16.25c0,2.01.28,3.49.84,4.45.56.96,1.83,1.45,3.81,1.45h3.67v8.01h-4.02Z"/>
    <path d="M254.29,273.41c-1.9,0-3.35-.48-4.36-1.45-1-.96-1.5-2.16-1.5-3.59s.5-2.66,1.5-3.61c1-.95,2.45-1.43,4.36-1.43s3.35.48,4.36,1.43c1,.95,1.5,2.16,1.5,3.61s-.5,2.63-1.5,3.59c-1,.96-2.46,1.45-4.36,1.45ZM249.09,316.53v-38.12h10.35v38.12h-10.35Z"/>
    <path d="M270.54,316.53v-38.12h9.96l.2,5.7c1.28-1.64,2.96-3.09,5.04-4.36,2.08-1.26,4.79-1.89,8.12-1.89,3.88,0,6.89,1.18,9.02,3.54,2.13,2.36,3.2,5.8,3.2,10.33v24.8h-10.27v-23.48c0-1.38-.2-2.59-.59-3.63-.39-1.04-1.01-1.85-1.86-2.42-.85-.57-1.96-.86-3.34-.86-2.06,0-3.82.48-5.29,1.45-1.47.96-2.75,2.14-3.85,3.52v25.43h-10.35Z"/>
    <path d="M331.87,331.26c-4.56,0-8.18-.47-10.86-1.41-2.68-.94-4.61-2.17-5.78-3.69s-1.76-3.17-1.76-4.94c0-2.16,1.03-4.06,3.09-5.68,2.06-1.63,5.31-2.77,9.77-3.42l1.72-3.67h5.16c6.33,0,10.94.87,13.85,2.62,2.9,1.75,4.36,4.41,4.36,8.01s-1.67,6.59-5,8.83c-3.33,2.24-8.18,3.36-14.53,3.36ZM326.48,315.67c-2.73-.31-4.95-.87-6.64-1.66-1.69-.79-2.93-1.71-3.71-2.75-.78-1.04-1.17-2.07-1.17-3.09,0-1.59.61-2.94,1.82-4.04,1.21-1.11,3.04-2.08,5.49-2.91l5.39,1.95c-1.41.34-2.58.75-3.52,1.23-.94.48-1.41,1.07-1.41,1.78,0,.5.28.91.84,1.25.56.34,1.54.59,2.93.76,1.39.17,3.31.25,5.76.25l-5.78,7.23ZM331.16,304.38c-3.44,0-6.37-.61-8.79-1.84-2.42-1.22-4.26-2.84-5.51-4.84-1.25-2-1.88-4.17-1.88-6.48,0-2.47.63-4.71,1.89-6.7,1.26-1.99,3.12-3.59,5.57-4.79,2.45-1.2,5.43-1.8,8.95-1.8s6.62.6,9,1.8c2.38,1.2,4.17,2.79,5.35,4.79,1.18,1.99,1.78,4.23,1.78,6.7s-.61,4.56-1.82,6.56c-1.21,2.01-3.02,3.61-5.43,4.8-2.41,1.2-5.45,1.8-9.12,1.8ZM331.71,324.77c3.49,0,5.95-.46,7.38-1.37,1.43-.91,2.15-2.02,2.15-3.32,0-.83-.25-1.54-.74-2.11-.5-.57-1.32-1.02-2.46-1.33-1.15-.31-2.67-.47-4.57-.47h-6.95c-1.02.39-1.84.94-2.48,1.66-.64.72-.96,1.54-.96,2.48,0,1.09.68,2.11,2.03,3.05,1.35.94,3.55,1.41,6.6,1.41ZM331.16,298.17c1.93,0,3.54-.59,4.82-1.78,1.29-1.18,1.93-2.91,1.93-5.18,0-2.4-.6-4.18-1.8-5.35-1.2-1.17-2.76-1.76-4.69-1.76s-3.57.61-4.84,1.82c-1.28,1.21-1.91,2.98-1.91,5.29s.66,4.02,1.97,5.2c1.31,1.17,2.82,1.76,4.51,1.76ZM342.06,283.72l-3.05-3.87c1.02-2.71,2.58-4.56,4.71-5.55,2.12-.99,4.68-1.5,7.68-1.52v7.54c-2.03,0-3.89.19-5.57.57-1.68.38-2.94,1.32-3.77,2.83Z"/>
    <path d="M392.61,317.24c-3.98,0-7.57-.57-10.76-1.7-3.19-1.13-5.72-2.94-7.6-5.41-1.88-2.47-2.81-5.7-2.81-9.69h11.25c.05,2.03.52,3.63,1.41,4.79.88,1.16,2.08,1.99,3.57,2.48,1.5.5,3.21.74,5.14.74s3.48-.22,4.88-.66c1.41-.44,2.51-1.13,3.3-2.05.79-.92,1.19-2.1,1.19-3.54s-.34-2.52-1.02-3.42c-.68-.9-1.88-1.72-3.59-2.46s-4.13-1.54-7.23-2.4c-3.62-1.04-6.75-2.19-9.39-3.44-2.64-1.25-4.69-2.86-6.13-4.84-1.45-1.98-2.17-4.56-2.17-7.73,0-3.41.83-6.19,2.48-8.34,1.65-2.15,3.94-3.73,6.86-4.75,2.92-1.02,6.26-1.52,10.04-1.52s6.89.55,9.9,1.64,5.41,2.76,7.21,5c1.8,2.24,2.7,5.09,2.7,8.55h-11.25c.03-2.24-.81-3.91-2.5-5.02-1.69-1.11-3.72-1.66-6.09-1.66s-4.28.44-5.82,1.31c-1.54.87-2.3,2.22-2.3,4.04,0,1.04.33,1.96.98,2.75.65.79,1.86,1.57,3.61,2.32,1.76.76,4.3,1.62,7.64,2.58,3.98,1.17,7.25,2.4,9.8,3.69,2.55,1.29,4.45,2.96,5.68,5,1.24,2.04,1.86,4.73,1.86,8.07,0,3.72-.91,6.73-2.73,9.02-1.82,2.29-4.3,3.97-7.44,5.04-3.14,1.07-6.69,1.6-10.64,1.6Z"/>
    <path d="M440.3,317.24c-4.25,0-7.81-.79-10.7-2.36-2.89-1.58-5.08-3.85-6.56-6.82s-2.23-6.54-2.23-10.7.72-7.51,2.17-10.43c1.45-2.92,3.57-5.16,6.37-6.74,2.8-1.58,6.24-2.36,10.33-2.36,5.68,0,10.16,1.66,13.46,4.98,3.29,3.32,4.94,8.05,4.94,14.2,0,.31-.01.74-.04,1.27-.03.53-.07.94-.12,1.23h-26.76c.05,1.8.38,3.48,1,5.04.61,1.56,1.58,2.82,2.91,3.77,1.33.95,3.07,1.43,5.23,1.43s4.04-.49,5.39-1.46c1.35-.98,2.04-2.43,2.07-4.36h10.2c-.13,2.97-.94,5.44-2.44,7.42-1.5,1.98-3.54,3.46-6.13,4.43-2.59.98-5.62,1.46-9.08,1.46ZM431.28,292.94h16.52c-.08-2.66-.87-4.64-2.36-5.96-1.5-1.31-3.42-1.97-5.76-1.97s-4.36.68-5.88,2.03c-1.52,1.35-2.36,3.32-2.52,5.9Z"/>
    <path d="M467.26,316.53v-38.12h9.92l.2,6.6c.99-2.29,2.47-4.05,4.45-5.27,1.98-1.22,4.38-1.84,7.19-1.84h.78v8.71h-.98c-1.54,0-3.01.14-4.41.41s-2.68.74-3.83,1.41c-1.15.66-2.14,1.58-2.97,2.75v25.35h-10.35Z"/>
    <path d="M501.98,273.41c-1.9,0-3.35-.48-4.36-1.45-1-.96-1.5-2.16-1.5-3.59s.5-2.66,1.5-3.61c1-.95,2.45-1.43,4.36-1.43s3.35.48,4.36,1.43c1,.95,1.5,2.16,1.5,3.61s-.5,2.63-1.5,3.59c-1,.96-2.46,1.45-4.36,1.45ZM496.79,316.53v-38.12h10.35v38.12h-10.35Z"/>
    <path d="M535.77,317.24c-4.25,0-7.81-.79-10.7-2.36-2.89-1.58-5.08-3.85-6.56-6.82s-2.23-6.54-2.23-10.7.72-7.51,2.17-10.43c1.45-2.92,3.57-5.16,6.37-6.74,2.8-1.58,6.24-2.36,10.33-2.36,5.68,0,10.16,1.66,13.46,4.98,3.29,3.32,4.94,8.05,4.94,14.2,0,.31-.01.74-.04,1.27-.03.53-.07.94-.12,1.23h-26.76c.05,1.8.38,3.48,1,5.04.61,1.56,1.58,2.82,2.91,3.77,1.33.95,3.07,1.43,5.23,1.43s4.04-.49,5.39-1.46c1.35-.98,2.04-2.43,2.07-4.36h10.2c-.13,2.97-.94,5.44-2.44,7.42-1.5,1.98-3.54,3.46-6.13,4.43-2.59.98-5.62,1.46-9.08,1.46ZM526.75,292.94h16.52c-.08-2.66-.87-4.64-2.36-5.96-1.5-1.31-3.42-1.97-5.76-1.97s-4.36.68-5.88,2.03c-1.52,1.35-2.36,3.32-2.52,5.9Z"/>
    <path d="M577.65,317.24c-2.11,0-4.18-.2-6.21-.59s-3.87-1.06-5.51-2.01c-1.64-.95-2.94-2.25-3.91-3.89-.96-1.64-1.45-3.68-1.45-6.13h9.61c0,2.14.75,3.62,2.25,4.45,1.5.83,3.25,1.25,5.25,1.25s3.52-.32,4.61-.96c1.09-.64,1.64-1.71,1.64-3.22,0-1.43-.64-2.5-1.93-3.2s-3.55-1.42-6.78-2.15c-2.71-.65-5.12-1.44-7.25-2.36-2.12-.92-3.78-2.16-4.98-3.71-1.2-1.55-1.8-3.59-1.8-6.11,0-1.98.46-3.66,1.37-5.04.91-1.38,2.13-2.49,3.65-3.34,1.52-.85,3.24-1.46,5.16-1.86s3.87-.59,5.88-.59,3.87.2,5.74.59,3.57,1.05,5.08,1.97c1.51.92,2.72,2.17,3.63,3.73.91,1.56,1.37,3.52,1.37,5.86h-9.61c0-1.95-.62-3.31-1.86-4.06-1.24-.75-2.69-1.13-4.36-1.13-1.8,0-3.21.26-4.24.78-1.03.52-1.54,1.38-1.54,2.58,0,.7.33,1.32.98,1.86.65.53,1.69,1.03,3.12,1.48,1.43.46,3.32.94,5.66,1.46,2.47.57,4.69,1.32,6.64,2.23,1.95.91,3.5,2.14,4.65,3.67,1.15,1.54,1.72,3.53,1.72,5.98,0,2.29-.46,4.23-1.39,5.82-.92,1.59-2.16,2.87-3.71,3.85-1.55.98-3.32,1.69-5.31,2.13s-4.06.66-6.19.66Z"/>
    <path d="M621.24,316.53l2.03-14.65h-7.46v-6.48h8.4l1.25-9.1h-7.5v-6.45h8.44l2.03-14.49h7.07l-1.99,14.49h7.77l1.99-14.49h7.15l-2.03,14.49h7.34v6.45h-8.28l-1.21,9.1h7.27v6.48h-8.16l-2.03,14.65h-7.11l1.99-14.65h-7.77l-2.03,14.65h-7.15ZM631.36,295.4h7.81l1.17-9.1h-7.73l-1.25,9.1Z"/>
    <path d="M678.82,317.24c-3.52,0-6.71-.57-9.57-1.72-2.87-1.15-5.14-2.9-6.84-5.25-1.69-2.36-2.54-5.32-2.54-8.89h10.35c0,2.34.81,4.16,2.42,5.45,1.61,1.29,3.67,1.93,6.17,1.93,2.37,0,4.29-.75,5.76-2.27,1.47-1.51,2.21-3.92,2.21-7.23,0-3.02-.78-5.2-2.32-6.54-1.55-1.34-3.55-2.01-6-2.01-1.9,0-3.43.29-4.59.88-1.16.59-2.09,1.31-2.79,2.17h-9.3l2.23-28.4h29.41v8.83h-21.02l-.9,11.6c.86-.88,2.04-1.65,3.54-2.29,1.5-.64,3.35-.96,5.57-.96,2.97,0,5.73.56,8.28,1.68,2.55,1.12,4.61,2.9,6.17,5.35,1.56,2.45,2.34,5.68,2.34,9.69s-.82,7.34-2.46,10-3.86,4.65-6.66,5.98c-2.8,1.33-5.96,1.99-9.47,1.99Z"/>
  </g>
  <path d="M110.65,45.49c-4.95,0-9.36,2.24-12.34,5.72-.27-.35-.58-.66-.89-.97-.93-.93-1.97-1.74-3.06-2.4-2.55-1.55-5.49-2.32-8.39-2.36h0c-4.14,0-8.32,1.59-11.45,4.76-3.17,3.17-4.76,7.31-4.76,11.45,0,2.9.77,5.84,2.32,8.39.66,1.08,1.47,2.13,2.4,3.06.93.93,1.97,1.74,3.06,2.4,6.23,3.79,14.5,2.98,19.88-2.4.31-.31.62-.66.89-.97,2.98,3.48,7.39,5.72,12.34,5.72,8.93,0,16.2-7.27,16.2-16.2s-7.27-16.2-16.2-16.2h0ZM77.47,61.69c0-2.17.81-4.33,2.48-5.99,1.66-1.66,3.83-2.48,5.99-2.48h0c.89,0,1.78.15,2.63.43l-6.69,6.69-3.98,3.98c-.27-.85-.43-1.74-.43-2.63ZM91.97,67.69c-2.32,2.32-5.69,3.02-8.62,2.09l4.14-4.14,6.54-6.54.77-.77c-.23,1.08-.35,2.24-.35,3.4,0,2.17-.81,4.33-2.48,5.99v-.04ZM110.65,70.2c-4.68,0-8.51-3.79-8.51-8.51s3.79-8.51,8.51-8.51c4.72,0,8.51,3.79,8.51,8.51,0,4.72-3.79,8.51-8.51,8.51Z" fill="#333"/>
  <polygon points="57.12 58.95 41.19 34.24 31.91 34.24 31.91 77.63 41.19 77.63 41.19 50.48 58.55 77.63 66.44 77.63 66.44 34.24 57.12 34.24 57.12 58.95" fill="#333"/>
  <polygon points="157.45 58.95 141.51 34.24 132.23 34.24 132.23 77.63 141.51 77.63 141.51 50.48 158.88 77.63 166.73 77.63 166.73 34.24 157.45 34.24 157.45 58.95" fill="#0f6bff"/>
  <path d="M194.3,47.97c-2.32-1.43-4.99-2.13-7.97-2.13-2.98,0-5.92.7-8.35,2.09-2.44,1.39-4.33,3.33-5.69,5.76-1.35,2.44-2.05,5.18-2.05,8.16,0,2.98.7,5.72,2.09,8.16,1.39,2.44,3.33,4.37,5.84,5.76s5.41,2.09,8.74,2.09,5.53-.54,7.77-1.66c2.24-1.08,4.1-2.67,5.53-4.76l-6.57-3.91c-.7.89-1.62,1.62-2.82,2.13-1.2.54-2.44.81-3.67.81-2.09,0-3.75-.46-5.07-1.35-1.31-.93-2.32-2.32-3.09-4.18h22.59c.15-.93.23-1.97.23-3.09,0-2.98-.66-5.69-1.93-8.12-1.31-2.44-3.13-4.37-5.45-5.8l-.12.04ZM178.76,58.21c.08-1.35.85-2.48,2.32-3.44,1.47-.97,3.21-1.43,5.18-1.43s3.52.43,4.83,1.28c1.31.85,2.13,2.05,2.4,3.6h-14.77s.04,0,.04,0Z" fill="#0f6bff"/>
  <path d="M232.4,47.93c-2.32-1.39-5.11-2.09-8.35-2.09-3.25,0-3.33.27-4.91.85-1.59.54-3.06,1.35-4.45,2.4v-2.4h-8.86s0,43.39,0,43.39h8.86s0-14.7,0-14.7c1.35,1.04,2.86,1.82,4.45,2.4,1.62.54,3.25.85,4.91.85,3.21,0,5.99-.7,8.35-2.13,2.32-1.43,4.14-3.36,5.38-5.84,1.24-2.48,1.86-5.3,1.86-8.43s-.62-5.96-1.86-8.39c-1.24-2.48-3.02-4.41-5.38-5.8v-.12ZM228.53,67.81c-1.47,1.43-3.36,2.13-5.69,2.13-2.32,0-4.29-.7-5.84-2.13-1.55-1.43-2.32-3.29-2.32-5.61s.77-4.22,2.36-5.69c1.59-1.47,3.52-2.24,5.84-2.24s4.22.73,5.69,2.17c1.47,1.43,2.2,3.36,2.2,5.69s-.73,4.25-2.2,5.69h-.04Z" fill="#0f6bff"/>
  <path d="M264.73,47.15c-1.86-.77-3.64-1.16-5.41-1.16-2.63,0-5.11.97-7.39,2.86v-14.62s-8.86,0-8.86,0v43.39s8.86,0,8.86,0v-18.95c.23-1.7.85-2.94,1.78-3.75.97-.81,2.05-1.2,3.36-1.2s2.86.43,3.98,1.31c1.12.89,1.66,2.32,1.66,4.29v18.29s8.86,0,8.86,0v-18.53c-.04-3.29-.73-5.92-2.09-7.89-1.35-1.93-2.94-3.29-4.76-4.06Z" fill="#0f6bff"/>
  <path d="M299.07,47.97c-2.44-1.43-5.11-2.17-7.97-2.17-2.86,0-5.61.73-8.04,2.17-2.44,1.43-4.41,3.36-5.84,5.84-1.43,2.44-2.17,5.14-2.17,8.04s.73,5.53,2.17,8.01c1.43,2.48,3.36,4.41,5.84,5.84,2.44,1.43,5.14,2.17,8.04,2.17,2.9,0,5.53-.73,7.97-2.17,2.44-1.43,4.37-3.4,5.84-5.84,1.43-2.48,2.17-5.14,2.17-8.01s-.73-5.61-2.17-8.04c-1.43-2.44-3.36-4.37-5.84-5.84ZM296.25,67.03c-1.47,1.43-3.21,2.17-5.22,2.17s-3.75-.73-5.18-2.17c-1.43-1.43-2.17-3.17-2.17-5.18s.73-3.75,2.17-5.22c1.43-1.47,3.17-2.17,5.18-2.17s3.75.73,5.22,2.17c1.47,1.47,2.17,3.21,2.17,5.22,0,2.01-.73,3.75-2.17,5.18Z" fill="#0f6bff"/>
  <path d="M335.7,62.35c-1.2-1.35-2.59-2.32-4.14-2.9-1.59-.58-3.56-1.12-5.96-1.62-1.86-.35-3.21-.73-4.06-1.04-.85-.35-1.28-.85-1.28-1.55s.35-1.39,1.04-1.86c.7-.46,1.62-.7,2.78-.7s2.4.23,3.25.73c.81.5,1.47,1.24,1.97,2.24l7.04-3.44c-1.2-2.05-2.9-3.64-5.03-4.72-2.13-1.08-4.56-1.62-7.23-1.62s-4.37.39-6.27,1.16c-1.93.77-3.44,1.9-4.56,3.36-1.12,1.47-1.7,3.21-1.7,5.18s.58,3.71,1.7,4.95c1.12,1.24,2.48,2.13,4.06,2.75,1.59.58,3.56,1.16,5.88,1.66,2.05.46,3.56.89,4.52,1.28s1.43,1.01,1.43,1.82-.5,1.66-1.55,2.17c-1.04.5-2.24.77-3.6.77-3.36,0-5.53-1.28-6.5-3.87l-7.12,3.64c1.16,2.36,2.9,4.1,5.22,5.3,2.32,1.2,5.11,1.78,8.39,1.78s4.6-.39,6.69-1.12c2.05-.73,3.71-1.86,4.99-3.33,1.24-1.47,1.9-3.25,1.9-5.3s-.58-4.25-1.78-5.61l-.12-.12Z" fill="#0f6bff"/>
  <rect x="-.48" y="879.86" width="1600" height="20.14" fill="url(#b)"/>
  <g>
    <path d="M67.62,412.36v-39.43h5.27v39.43h-5.27Z"/>
    <path d="M83.23,412.36v-39.43h14.24c2.44,0,4.64.46,6.59,1.39,1.95.93,3.5,2.3,4.63,4.1,1.13,1.81,1.7,4.02,1.7,6.64s-.57,4.71-1.7,6.45c-1.13,1.74-2.68,3.06-4.63,3.96-1.95.9-4.15,1.35-6.59,1.35h-8.96v15.56h-5.27ZM88.51,392.44h8.55c2.38,0,4.31-.61,5.79-1.83,1.47-1.22,2.21-3.07,2.21-5.55,0-2.66-.74-4.62-2.23-5.89-1.48-1.27-3.41-1.9-5.77-1.9h-8.55v15.18Z"/>
    <path d="M134.15,412.89c-4.08,0-7.52-.86-10.31-2.58-2.79-1.72-4.91-4.09-6.34-7.12-1.44-3.03-2.15-6.53-2.15-10.52s.72-7.5,2.15-10.55,3.55-5.43,6.34-7.15c2.79-1.72,6.23-2.58,10.31-2.58,2.7,0,5.24.47,7.63,1.41s4.38,2.37,5.98,4.29c1.59,1.92,2.52,4.35,2.8,7.28h-5.3c-.23-1.97-.89-3.6-1.98-4.88-1.08-1.28-2.42-2.23-4.01-2.86-1.59-.62-3.3-.94-5.11-.94-3.16,0-5.73.72-7.69,2.17-1.96,1.45-3.39,3.37-4.29,5.77s-1.35,5.08-1.35,8.03.45,5.6,1.35,8,2.33,4.31,4.29,5.73c1.96,1.42,4.53,2.12,7.69,2.12s5.8-.79,7.79-2.37,3.14-3.94,3.46-7.09h5.33c-.31,3.11-1.22,5.68-2.72,7.72-1.5,2.04-3.45,3.57-5.83,4.58-2.38,1.02-5.06,1.52-8.03,1.52Z"/>
    <path d="M158.88,412.36v-39.43h25.17v4.39h-19.89v12.57h18.31v4.34h-18.31v13.74h19.89v4.39h-25.17Z"/>
    <path d="M192.25,412.36v-39.43h5.27v39.43h-5.27Z"/>
    <path d="M205.6,399.97v-4.34h14.62v4.34h-14.62Z"/>
    <path d="M245.39,412.89c-4.08,0-7.52-.86-10.31-2.58-2.79-1.72-4.91-4.09-6.34-7.12-1.44-3.03-2.15-6.53-2.15-10.52s.72-7.5,2.15-10.55,3.55-5.43,6.34-7.15c2.79-1.72,6.23-2.58,10.31-2.58,2.7,0,5.24.47,7.63,1.41s4.38,2.37,5.98,4.29c1.59,1.92,2.52,4.35,2.8,7.28h-5.3c-.23-1.97-.89-3.6-1.98-4.88-1.08-1.28-2.42-2.23-4.01-2.86-1.59-.62-3.3-.94-5.11-.94-3.16,0-5.73.72-7.69,2.17-1.96,1.45-3.39,3.37-4.29,5.77s-1.35,5.08-1.35,8.03.45,5.6,1.35,8,2.33,4.31,4.29,5.73c1.96,1.42,4.53,2.12,7.69,2.12s5.8-.79,7.79-2.37,3.14-3.94,3.46-7.09h5.33c-.31,3.11-1.22,5.68-2.72,7.72-1.5,2.04-3.45,3.57-5.83,4.58-2.38,1.02-5.06,1.52-8.03,1.52Z"/>
    <path d="M270.12,412.36v-39.43h5.27v39.43h-5.27Z"/>
    <path d="M297.83,412.89c-2.81,0-5.35-.43-7.62-1.29s-4.07-2.21-5.41-4.04c-1.34-1.83-2.01-4.22-2.01-7.15h5.3c0,2.09.45,3.73,1.36,4.92.91,1.19,2.11,2.03,3.62,2.52,1.5.49,3.15.73,4.95.73,1.66,0,3.18-.25,4.56-.75s2.48-1.25,3.3-2.26c.82-1.01,1.23-2.3,1.23-3.88,0-1.37-.32-2.49-.97-3.37s-1.71-1.64-3.21-2.3c-1.49-.65-3.5-1.3-6.02-1.95-2.97-.78-5.41-1.64-7.32-2.56-1.91-.93-3.33-2.08-4.26-3.47-.93-1.39-1.39-3.14-1.39-5.27,0-2.25.53-4.13,1.58-5.67,1.05-1.53,2.57-2.7,4.54-3.5,1.97-.8,4.32-1.2,7.03-1.2,2.54,0,4.86.41,6.97,1.23s3.79,2.05,5.05,3.69,1.89,3.68,1.89,6.12h-5.27c.02-2.23-.8-3.91-2.46-5.05s-3.71-1.71-6.15-1.71-4.48.5-5.87,1.51c-1.4,1.01-2.09,2.48-2.09,4.41,0,1.15.3,2.11.91,2.89.61.77,1.65,1.47,3.12,2.09,1.47.63,3.53,1.28,6.17,1.96,3.05.82,5.52,1.7,7.43,2.64s3.31,2.14,4.2,3.6,1.35,3.39,1.35,5.77c0,2.54-.63,4.64-1.9,6.31s-3,2.93-5.19,3.76c-2.19.84-4.66,1.26-7.41,1.26Z"/>
    <path d="M338.32,412.36l-11.54-39.43h5.54l8.91,32.9,9.4-32.9h5.89l9.43,32.9,8.96-32.9h5.27l-11.51,39.43h-5.51l-9.7-33.34-9.55,33.34h-5.6Z"/>
    <path d="M395.16,412.83c-2.79,0-5.19-.59-7.18-1.77-1.99-1.18-3.51-2.87-4.56-5.07s-1.57-4.81-1.57-7.84.52-5.77,1.57-7.98c1.04-2.22,2.56-3.92,4.56-5.11,1.99-1.19,4.38-1.79,7.18-1.79s5.29.6,7.31,1.79c2.02,1.19,3.57,2.9,4.66,5.11,1.08,2.22,1.63,4.88,1.63,7.98s-.54,5.64-1.63,7.84-2.64,3.89-4.66,5.07c-2.02,1.18-4.46,1.77-7.31,1.77ZM395.16,408.93c2.11,0,3.79-.46,5.04-1.39,1.25-.93,2.15-2.21,2.7-3.84.55-1.63.82-3.48.82-5.55s-.27-3.99-.82-5.65c-.55-1.66-1.45-2.96-2.7-3.91-1.25-.95-2.93-1.42-5.04-1.42s-3.68.47-4.88,1.42c-1.2.95-2.07,2.25-2.59,3.91-.53,1.66-.79,3.54-.79,5.65s.26,3.92.79,5.55c.53,1.63,1.39,2.91,2.59,3.84,1.2.93,2.83,1.39,4.88,1.39Z"/>
    <path d="M416.57,412.36v-28.54h4.6l.18,4.86c.8-1.48,1.91-2.72,3.34-3.72s3.28-1.49,5.57-1.49h.59v4.48h-.67c-1.43,0-2.68.19-3.75.56-1.07.37-2.01.88-2.81,1.54-.8.66-1.51,1.41-2.14,2.27v20.04h-4.89Z"/>
    <path d="M436.64,412.36v-39.43h4.89v24.35l12.89-13.45h5.77l-12.89,13.36,14.06,15.18h-6.09l-13.74-14.82v14.82h-4.89Z"/>
    <path d="M475.14,412.89c-1.6,0-3.12-.18-4.56-.53s-2.7-.91-3.79-1.67-1.95-1.76-2.56-3c-.62-1.24-.92-2.74-.92-4.5h4.72c0,2.23.69,3.79,2.07,4.7s3.1,1.36,5.17,1.36c1.86,0,3.38-.36,4.58-1.07,1.2-.71,1.8-1.89,1.8-3.53,0-1.41-.54-2.45-1.63-3.13-1.08-.68-2.99-1.35-5.73-1.99-2.23-.53-4.1-1.14-5.62-1.83-1.52-.69-2.67-1.57-3.43-2.64-.76-1.06-1.14-2.41-1.14-4.03,0-1.27.27-2.39.81-3.35s1.29-1.77,2.26-2.42,2.1-1.13,3.41-1.45,2.72-.48,4.25-.48,2.92.18,4.23.53,2.48.9,3.49,1.64c1.01.74,1.8,1.7,2.39,2.87s.88,2.58.88,4.22h-4.75c0-2.03-.61-3.47-1.82-4.31-1.21-.84-2.69-1.26-4.42-1.26s-3.18.31-4.28.94c-1.09.63-1.64,1.6-1.64,2.93,0,.76.24,1.41.73,1.93s1.31,1,2.46,1.42c1.15.42,2.71.86,4.66,1.33,2.13.51,3.92,1.11,5.36,1.82s2.53,1.61,3.27,2.71c.73,1.1,1.1,2.52,1.1,4.23,0,1.48-.29,2.77-.86,3.85s-1.38,1.97-2.4,2.67c-1.03.69-2.23,1.21-3.6,1.54s-2.87.5-4.47.5Z"/>
    <path d="M503.35,412.36c-2.3,0-4.07-.37-5.3-1.1s-2.08-1.79-2.53-3.16-.69-3.03-.69-4.97v-15.35h-4.78v-3.96h4.78v-6.53h4.86v6.53h7.03v3.96h-7.03v15.12c0,1.78.23,3.14.69,4.09.46.95,1.56,1.42,3.3,1.42h3.11v3.96h-3.43Z"/>
    <path d="M513.22,412.36v-28.54h4.6l.18,4.86c.8-1.48,1.91-2.72,3.34-3.72s3.28-1.49,5.57-1.49h.59v4.48h-.67c-1.43,0-2.68.19-3.75.56-1.07.37-2.01.88-2.81,1.54-.8.66-1.51,1.41-2.14,2.27v20.04h-4.89Z"/>
    <path d="M544.34,412.89c-3.11,0-5.65-.65-7.63-1.95-1.98-1.3-3.45-3.07-4.41-5.3-.96-2.24-1.44-4.75-1.44-7.54s.46-5.47,1.39-7.69c.93-2.22,2.34-3.95,4.25-5.2,1.9-1.25,4.32-1.88,7.25-1.88,3.89,0,6.93,1.17,9.14,3.52s3.31,5.71,3.31,10.11c0,.29,0,.64-.03,1.04-.02.4-.05.69-.09.86h-20.33c.02,1.86.32,3.56.89,5.11s1.49,2.8,2.74,3.74,2.9,1.41,4.95,1.41c2.19,0,3.9-.51,5.13-1.54s1.88-2.5,1.93-4.44h4.83c-.06,2.01-.58,3.75-1.55,5.2-.98,1.46-2.34,2.58-4.1,3.37s-3.84,1.19-6.24,1.19ZM535.78,395.28h15.59c-.06-2.66-.75-4.69-2.08-6.09s-3.17-2.11-5.54-2.11-4.25.7-5.61,2.09c-1.36,1.4-2.14,3.43-2.36,6.11Z"/>
    <path d="M571.43,412.89c-1.64,0-3.14-.31-4.5-.94s-2.44-1.55-3.25-2.77c-.81-1.22-1.22-2.73-1.22-4.53,0-2.56.8-4.5,2.4-5.83,1.6-1.33,3.87-2.23,6.8-2.71,2.93-.48,6.36-.74,10.28-.78v-1.99c0-2.44-.61-4.12-1.82-5.02s-2.74-1.36-4.6-1.36c-1.97,0-3.63.5-4.98,1.49s-2.02,2.57-2.02,4.72h-4.75c0-2.34.5-4.24,1.51-5.68,1.01-1.45,2.39-2.5,4.16-3.16,1.77-.66,3.79-1,6.08-1,1.46,0,2.87.14,4.2.41,1.34.27,2.54.77,3.6,1.49,1.06.72,1.91,1.73,2.53,3.03.62,1.3.94,2.97.94,5.02v19.07h-4.57l-.21-4.34c-1.31,1.46-2.83,2.64-4.56,3.53s-3.75,1.33-6.05,1.33ZM572.72,409.14c1.95,0,3.71-.46,5.27-1.38,1.56-.92,2.87-2.08,3.93-3.49v-5.8c-5.2.06-8.92.55-11.18,1.46-2.26.92-3.38,2.42-3.38,4.51,0,1.43.45,2.56,1.36,3.41s2.24,1.27,4,1.27Z"/>
    <path d="M595.96,412.36v-28.54h4.69l.18,4.39c.84-1.15,2.07-2.24,3.69-3.27s3.64-1.54,6.06-1.54c3.16,0,5.44.93,6.83,2.78,1.39,1.86,2.08,4.44,2.08,7.76v18.4h-4.92v-17.7c0-1.39-.14-2.62-.42-3.69-.28-1.07-.81-1.92-1.57-2.53s-1.86-.92-3.28-.92c-2.01,0-3.71.48-5.1,1.45s-2.5,2.03-3.34,3.18v20.21h-4.89ZM633.1,412.36v-17.7c0-1.39-.14-2.62-.42-3.69-.28-1.07-.81-1.92-1.57-2.53s-1.85-.92-3.25-.92c-2.03,0-3.74.47-5.13,1.42-1.39.95-2.53,2-3.43,3.15l-.73-3.57c1.13-1.25,2.56-2.41,4.29-3.49,1.73-1.07,3.8-1.61,6.23-1.61,3.16,0,5.44.93,6.83,2.78,1.39,1.86,2.08,4.44,2.08,7.76v18.4h-4.89Z"/>
    <path d="M657.33,412.36v-3.87l13.56-12.39c2.34-2.13,4.04-4.06,5.1-5.8,1.05-1.74,1.58-3.56,1.58-5.48s-.53-3.63-1.6-4.91c-1.06-1.28-2.81-1.92-5.23-1.92-2.73,0-4.69.71-5.87,2.12-1.18,1.42-1.77,3.2-1.77,5.35h-4.89c0-2.38.46-4.46,1.39-6.24.93-1.78,2.32-3.15,4.19-4.13,1.87-.98,4.18-1.46,6.96-1.46,2.54,0,4.7.45,6.47,1.36s3.13,2.18,4.06,3.82,1.39,3.57,1.39,5.8c0,1.99-.39,3.81-1.16,5.45s-1.81,3.18-3.12,4.63c-1.31,1.45-2.75,2.88-4.34,4.31l-10.05,9.02h19.78v4.34h-26.46Z"/>
    <path d="M67.18,484.36v-39.43h9.46l12.36,21.04h-3.28l12.19-21.04h9.11v39.43h-8.12v-35.04h3.6l-12.89,22.44h-5.07l-13.21-22.44h3.72v35.04h-7.88Z"/>
    <path d="M124.69,484.74c-2.89,0-5.13-.89-6.71-2.68s-2.37-4.33-2.37-7.63v-18.66h7.76v17.72c0,.98.14,1.84.42,2.59s.75,1.33,1.41,1.74,1.52.62,2.59.62c1.56,0,2.9-.35,4-1.04s2.07-1.54,2.89-2.53v-19.1h7.76v28.59h-7.5l-.12-4.31c-.96,1.21-2.27,2.29-3.93,3.25s-3.73,1.44-6.21,1.44Z"/>
    <path d="M161.48,484.36c-2.91,0-5.16-.35-6.74-1.04s-2.69-1.77-3.31-3.22-.94-3.35-.94-5.7v-29.47h7.73v29c0,1.5.21,2.61.62,3.31s1.37,1.05,2.87,1.05h1.79v6.06h-2.02Z"/>
    <path d="M180.44,484.36c-2.89,0-5.13-.35-6.72-1.04s-2.7-1.77-3.33-3.22-.94-3.35-.94-5.7v-12.66h-4.75v-5.98h4.75v-6.74h7.76v6.74h6.24v5.98h-6.24v12.19c0,1.5.21,2.62.63,3.34s1.37,1.08,2.86,1.08h2.75v6.01h-3.02Z"/>
    <path d="M193.45,452.02c-1.43,0-2.51-.36-3.27-1.08s-1.13-1.62-1.13-2.7.38-2,1.13-2.71,1.84-1.07,3.27-1.07,2.51.36,3.27,1.07,1.13,1.62,1.13,2.71-.38,1.97-1.13,2.7-1.84,1.08-3.27,1.08ZM189.55,484.36v-28.59h7.76v28.59h-7.76Z"/>
    <path d="M235.78,484.89c-3.98,0-7.41-.83-10.28-2.5s-5.08-4.01-6.62-7.03-2.31-6.58-2.31-10.68.77-7.67,2.31-10.71,3.75-5.39,6.62-7.06,6.3-2.5,10.28-2.5c3.09,0,5.93.53,8.53,1.6s4.71,2.64,6.33,4.72,2.51,4.64,2.67,7.69h-8.44c-.21-1.6-.74-2.93-1.57-3.98s-1.89-1.85-3.18-2.37-2.73-.79-4.34-.79c-2.58,0-4.65.62-6.23,1.88s-2.71,2.89-3.43,4.91-1.07,4.23-1.07,6.64.36,4.59,1.07,6.62,1.86,3.66,3.43,4.89,3.65,1.85,6.23,1.85c2.71,0,4.86-.7,6.43-2.09s2.48-3.38,2.71-5.96h8.44c-.23,3.22-1.08,5.94-2.55,8.16s-3.47,3.9-6.01,5.04-5.55,1.71-9.02,1.71Z"/>
    <path d="M270.94,484.36c-2.91,0-5.16-.35-6.74-1.04s-2.69-1.77-3.31-3.22-.94-3.35-.94-5.7v-29.47h7.73v29c0,1.5.21,2.61.62,3.31s1.37,1.05,2.87,1.05h1.79v6.06h-2.02Z"/>
    <path d="M286.79,484.74c-2.89,0-5.13-.89-6.71-2.68s-2.37-4.33-2.37-7.63v-18.66h7.76v17.72c0,.98.14,1.84.42,2.59s.75,1.33,1.41,1.74,1.52.62,2.59.62c1.56,0,2.9-.35,4-1.04s2.07-1.54,2.89-2.53v-19.1h7.76v28.59h-7.5l-.12-4.31c-.96,1.21-2.27,2.29-3.93,3.25s-3.73,1.44-6.21,1.44Z"/>
    <path d="M324.34,484.89c-1.58,0-3.13-.15-4.66-.44s-2.9-.8-4.13-1.51-2.21-1.68-2.93-2.92-1.08-2.76-1.08-4.6h7.21c0,1.6.56,2.71,1.68,3.34s2.44.94,3.94.94,2.64-.24,3.46-.72,1.23-1.28,1.23-2.42c0-1.07-.48-1.88-1.45-2.4s-2.66-1.06-5.08-1.61c-2.03-.49-3.84-1.08-5.43-1.77s-2.84-1.62-3.74-2.78-1.35-2.69-1.35-4.58c0-1.48.34-2.74,1.03-3.78s1.6-1.87,2.74-2.5,2.43-1.1,3.87-1.39,2.91-.44,4.41-.44,2.9.15,4.31.44,2.68.79,3.81,1.48,2.04,1.63,2.72,2.8,1.03,2.64,1.03,4.39h-7.21c0-1.46-.46-2.48-1.39-3.05s-2.02-.85-3.27-.85c-1.35,0-2.41.2-3.18.59s-1.16,1.04-1.16,1.93c0,.53.24.99.73,1.39s1.27.77,2.34,1.11,2.49.71,4.25,1.1c1.86.43,3.52.99,4.98,1.67s2.63,1.6,3.49,2.75,1.29,2.65,1.29,4.48c0,1.72-.35,3.17-1.04,4.37s-1.62,2.15-2.78,2.89-2.49,1.26-3.98,1.6-3.04.5-4.64.5Z"/>
    <path d="M355.52,484.36c-2.89,0-5.13-.35-6.72-1.04s-2.7-1.77-3.33-3.22-.94-3.35-.94-5.7v-12.66h-4.75v-5.98h4.75v-6.74h7.76v6.74h6.24v5.98h-6.24v12.19c0,1.5.21,2.62.63,3.34s1.37,1.08,2.86,1.08h2.75v6.01h-3.02Z"/>
    <path d="M377.49,484.89c-3.18,0-5.86-.59-8.03-1.77s-3.81-2.89-4.92-5.11-1.67-4.9-1.67-8.03.54-5.63,1.63-7.82,2.68-3.87,4.78-5.05,4.68-1.77,7.75-1.77c4.26,0,7.62,1.25,10.09,3.74s3.71,6.04,3.71,10.65c0,.23,0,.55-.03.95s-.05.71-.09.92h-20.07c.04,1.35.29,2.61.75,3.78s1.19,2.11,2.18,2.83,2.3,1.07,3.93,1.07,3.03-.37,4.04-1.1,1.53-1.82,1.55-3.27h7.65c-.1,2.23-.71,4.08-1.83,5.57s-2.66,2.59-4.6,3.33-4.21,1.1-6.81,1.1ZM370.72,466.67h12.39c-.06-1.99-.65-3.48-1.77-4.47s-2.56-1.48-4.32-1.48-3.27.51-4.41,1.52-1.77,2.49-1.89,4.42Z"/>
    <path d="M397.7,484.36v-28.59h7.44l.15,4.95c.74-1.72,1.86-3.04,3.34-3.96s3.28-1.38,5.39-1.38h.59v6.53h-.73c-1.15,0-2.26.1-3.31.31s-2.01.56-2.87,1.05-1.6,1.19-2.23,2.07v19.01h-7.76Z"/>
    <path d="M432.6,484.36v-39.43h8.23v18.81l14.15-18.81h9.11l-14.59,18.49,15.56,20.95h-9.52l-14.71-20.19v20.19h-8.23Z"/>
    <path d="M476.66,484.74c-2.89,0-5.13-.89-6.71-2.68s-2.37-4.33-2.37-7.63v-18.66h7.76v17.72c0,.98.14,1.84.42,2.59s.75,1.33,1.41,1.74,1.52.62,2.59.62c1.56,0,2.9-.35,4-1.04s2.07-1.54,2.89-2.53v-19.1h7.76v28.59h-7.5l-.12-4.31c-.96,1.21-2.27,2.29-3.93,3.25s-3.73,1.44-6.21,1.44Z"/>
    <path d="M519.02,484.89c-2.09,0-3.81-.4-5.16-1.2s-2.5-1.9-3.46-3.31l-.32,3.98h-7.35v-39.43h7.76v14.94c1.02-1.39,2.26-2.5,3.72-3.33s3.27-1.25,5.42-1.25,4.14.53,5.86,1.6,3.08,2.69,4.07,4.86,1.49,4.96,1.49,8.33-.53,6.13-1.6,8.32-2.5,3.81-4.32,4.88-3.86,1.6-6.12,1.6ZM517.09,478.94c1.89,0,3.37-.74,4.44-2.23s1.6-3.64,1.6-6.47c0-3.07-.5-5.35-1.51-6.84s-2.41-2.24-4.2-2.24c-1.6,0-3,.48-4.2,1.44s-2.1,2.08-2.71,3.37v8.38c.57,1.23,1.41,2.3,2.53,3.22s2.48,1.38,4.06,1.38Z"/>
    <path d="M551.07,484.89c-3.18,0-5.86-.59-8.03-1.77s-3.81-2.89-4.92-5.11-1.67-4.9-1.67-8.03.54-5.63,1.63-7.82,2.68-3.87,4.78-5.05,4.68-1.77,7.75-1.77c4.26,0,7.62,1.25,10.09,3.74s3.71,6.04,3.71,10.65c0,.23,0,.55-.03.95s-.05.71-.09.92h-20.07c.04,1.35.29,2.61.75,3.78s1.19,2.11,2.18,2.83,2.3,1.07,3.93,1.07,3.03-.37,4.04-1.1,1.53-1.82,1.55-3.27h7.65c-.1,2.23-.71,4.08-1.83,5.57s-2.66,2.59-4.6,3.33-4.21,1.1-6.81,1.1ZM544.31,466.67h12.39c-.06-1.99-.65-3.48-1.77-4.47s-2.56-1.48-4.32-1.48-3.27.51-4.41,1.52-1.77,2.49-1.89,4.42Z"/>
    <path d="M571.29,484.36v-28.59h7.44l.15,4.95c.74-1.72,1.86-3.04,3.34-3.96s3.28-1.38,5.39-1.38h.59v6.53h-.73c-1.15,0-2.26.1-3.31.31s-2.01.56-2.87,1.05-1.6,1.19-2.23,2.07v19.01h-7.76Z"/>
    <path d="M593.44,484.36v-28.59h7.47l.15,4.28c.96-1.23,2.22-2.32,3.78-3.27s3.59-1.42,6.09-1.42c2.91,0,5.17.88,6.77,2.65s2.4,4.35,2.4,7.75v18.6h-7.71v-17.61c0-1.04-.15-1.94-.44-2.72s-.76-1.39-1.39-1.82-1.47-.64-2.5-.64c-1.54,0-2.87.36-3.97,1.08s-2.07,1.6-2.89,2.64v19.07h-7.76Z"/>
    <path d="M641.34,484.89c-3.18,0-5.86-.59-8.03-1.77s-3.81-2.89-4.92-5.11-1.67-4.9-1.67-8.03.54-5.63,1.63-7.82,2.68-3.87,4.78-5.05,4.68-1.77,7.75-1.77c4.26,0,7.62,1.25,10.09,3.74s3.71,6.04,3.71,10.65c0,.23,0,.55-.03.95s-.05.71-.09.92h-20.07c.04,1.35.29,2.61.75,3.78s1.19,2.11,2.18,2.83,2.3,1.07,3.93,1.07,3.03-.37,4.04-1.1,1.53-1.82,1.55-3.27h7.65c-.1,2.23-.71,4.08-1.83,5.57s-2.66,2.59-4.6,3.33-4.21,1.1-6.81,1.1ZM634.57,466.67h12.39c-.06-1.99-.65-3.48-1.77-4.47s-2.56-1.48-4.32-1.48-3.27.51-4.41,1.52-1.77,2.49-1.89,4.42Z"/>
    <path d="M673.77,484.36c-2.89,0-5.13-.35-6.72-1.04s-2.7-1.77-3.33-3.22-.94-3.35-.94-5.7v-12.66h-4.75v-5.98h4.75v-6.74h7.76v6.74h6.24v5.98h-6.24v12.19c0,1.5.21,2.62.63,3.34s1.37,1.08,2.86,1.08h2.75v6.01h-3.02Z"/>
    <path d="M695.74,484.89c-3.18,0-5.86-.59-8.03-1.77s-3.81-2.89-4.92-5.11-1.67-4.9-1.67-8.03.54-5.63,1.63-7.82,2.68-3.87,4.78-5.05,4.68-1.77,7.75-1.77c4.26,0,7.62,1.25,10.09,3.74s3.71,6.04,3.71,10.65c0,.23,0,.55-.03.95s-.05.71-.09.92h-20.07c.04,1.35.29,2.61.75,3.78s1.19,2.11,2.18,2.83,2.3,1.07,3.93,1.07,3.03-.37,4.04-1.1,1.53-1.82,1.55-3.27h7.65c-.1,2.23-.71,4.08-1.83,5.57s-2.66,2.59-4.6,3.33-4.21,1.1-6.81,1.1ZM688.97,466.67h12.39c-.06-1.99-.65-3.48-1.77-4.47s-2.56-1.48-4.32-1.48-3.27.51-4.41,1.52-1.77,2.49-1.89,4.42Z"/>
    <path d="M727.15,484.89c-1.58,0-3.13-.15-4.66-.44s-2.9-.8-4.13-1.51-2.21-1.68-2.93-2.92-1.08-2.76-1.08-4.6h7.21c0,1.6.56,2.71,1.68,3.34s2.44.94,3.94.94,2.64-.24,3.46-.72,1.23-1.28,1.23-2.42c0-1.07-.48-1.88-1.45-2.4s-2.66-1.06-5.08-1.61c-2.03-.49-3.84-1.08-5.43-1.77s-2.84-1.62-3.74-2.78-1.35-2.69-1.35-4.58c0-1.48.34-2.74,1.03-3.78s1.6-1.87,2.74-2.5,2.43-1.1,3.87-1.39,2.91-.44,4.41-.44,2.9.15,4.31.44,2.68.79,3.81,1.48,2.04,1.63,2.72,2.8,1.03,2.64,1.03,4.39h-7.21c0-1.46-.46-2.48-1.39-3.05s-2.02-.85-3.27-.85c-1.35,0-2.41.2-3.18.59s-1.16,1.04-1.16,1.93c0,.53.24.99.73,1.39s1.27.77,2.34,1.11,2.49.71,4.25,1.1c1.86.43,3.52.99,4.98,1.67s2.63,1.6,3.49,2.75,1.29,2.65,1.29,4.48c0,1.72-.35,3.17-1.04,4.37s-1.62,2.15-2.78,2.89-2.49,1.26-3.98,1.6-3.04.5-4.64.5Z"/>
    <path d="M67.18,556.36v-39.43h9.46l12.36,21.04h-3.28l12.19-21.04h9.11v39.43h-8.12v-35.04h3.6l-12.89,22.44h-5.07l-13.21-22.44h3.72v35.04h-7.88Z"/>
    <path d="M133.83,556.89c-3.98,0-7.41-.83-10.28-2.5s-5.08-4.01-6.62-7.03-2.31-6.58-2.31-10.68.77-7.67,2.31-10.71,3.75-5.39,6.62-7.06,6.3-2.5,10.28-2.5c3.09,0,5.93.53,8.53,1.6s4.71,2.64,6.33,4.72,2.51,4.64,2.67,7.69h-8.44c-.21-1.6-.74-2.93-1.57-3.98s-1.89-1.85-3.18-2.37-2.73-.79-4.34-.79c-2.58,0-4.65.62-6.23,1.88s-2.71,2.89-3.43,4.91-1.07,4.23-1.07,6.64.36,4.59,1.07,6.62,1.86,3.66,3.43,4.89,3.65,1.85,6.23,1.85c2.71,0,4.86-.7,6.43-2.09s2.48-3.38,2.71-5.96h8.44c-.23,3.22-1.08,5.94-2.55,8.16s-3.47,3.9-6.01,5.04-5.55,1.71-9.02,1.71Z"/>
    <path d="M158.82,556.36v-39.43h8.23v18.81l14.15-18.81h9.11l-14.59,18.49,15.56,20.95h-9.52l-14.71-20.19v20.19h-8.23Z"/>
  </g>
  <g>
    <path d="M167.43,741.88v-28.15h-9.06v-4.71h23.71v4.71h-9.01v28.15h-5.64Z"/>
    <path d="M191.47,742.22c-2.59,0-4.52-.76-5.79-2.27s-1.9-3.63-1.9-6.35v-15.53h5.27v14.87c0,.94.12,1.78.37,2.51s.68,1.31,1.29,1.72c.62.42,1.47.62,2.56.62,1.53,0,2.83-.33,3.89-.99,1.07-.66,1.96-1.44,2.67-2.36v-16.38h5.27v23.8h-5.1l-.1-3.64c-.78.99-1.86,1.9-3.25,2.73-1.38.83-3.12,1.25-5.2,1.25Z"/>
    <path d="M222.46,742.32c-2.6,0-4.77-.52-6.51-1.55-1.73-1.03-3.03-2.48-3.89-4.35-.86-1.86-1.29-4.02-1.29-6.48s.42-4.63,1.26-6.46c.84-1.83,2.09-3.25,3.76-4.27,1.67-1.02,3.76-1.53,6.26-1.53,3.39,0,6.05,1.01,8.01,3.03s2.93,4.9,2.93,8.64c0,.23-.01.51-.04.84-.02.33-.05.57-.09.72h-16.82c.02,1.35.24,2.59.67,3.72.43,1.13,1.12,2.04,2.06,2.72.94.68,2.17,1.03,3.69,1.03,1.63,0,2.91-.36,3.83-1.09.93-.72,1.42-1.79,1.46-3.21h5.2c-.08,1.76-.56,3.25-1.43,4.48-.87,1.23-2.08,2.16-3.61,2.8s-3.36.95-5.46.95ZM216.09,727.38h11.65c-.05-1.92-.58-3.38-1.6-4.38-1.02-1-2.38-1.5-4.09-1.5s-3.15.5-4.19,1.51c-1.03,1.01-1.62,2.47-1.77,4.37Z"/>
    <path d="M247.43,742.32c-1.33,0-2.62-.13-3.85-.4-1.23-.27-2.33-.71-3.3-1.33-.97-.62-1.73-1.44-2.29-2.47s-.84-2.29-.84-3.78h4.98c0,1.59.52,2.71,1.56,3.34,1.04.63,2.3.95,3.78.95,1.4,0,2.52-.25,3.37-.75.85-.5,1.27-1.32,1.27-2.48,0-1.03-.43-1.79-1.29-2.29-.86-.5-2.37-1-4.52-1.49-1.77-.44-3.31-.94-4.6-1.51s-2.29-1.32-2.98-2.26c-.69-.94-1.04-2.14-1.04-3.6,0-1.14.26-2.12.77-2.95s1.21-1.51,2.09-2.05,1.89-.94,3.03-1.2c1.14-.26,2.34-.39,3.61-.39s2.4.13,3.54.4c1.14.27,2.16.7,3.05,1.31.9.6,1.6,1.39,2.12,2.37.52.98.78,2.17.78,3.59h-4.96c0-1.45-.45-2.47-1.34-3.06-.9-.59-1.96-.89-3.2-.89-1.3,0-2.34.21-3.11.63-.77.42-1.16,1.11-1.16,2.05,0,.54.2,1,.61,1.38.41.38,1.07.73,1.99,1.05.92.32,2.15.66,3.7,1.01,1.66.39,3.1.88,4.32,1.45,1.22.58,2.16,1.33,2.82,2.27.66.94.99,2.15.99,3.65,0,1.33-.26,2.47-.79,3.42-.53.94-1.25,1.71-2.16,2.31-.91.59-1.97,1.03-3.16,1.31s-2.46.42-3.8.42Z"/>
    <path d="M270.83,742.29c-1.86,0-3.5-.46-4.92-1.37-1.42-.91-2.54-2.29-3.33-4.14-.8-1.85-1.2-4.15-1.2-6.92s.43-5,1.28-6.8c.85-1.8,2.03-3.15,3.54-4.05,1.51-.9,3.24-1.35,5.21-1.35,1.66,0,3.1.36,4.32,1.07s2.2,1.67,2.93,2.86v-12.57h5.27v32.86h-5l-.27-3.42c-.85,1.16-1.91,2.08-3.2,2.78-1.29.7-2.83,1.05-4.64,1.05ZM272.2,738.17c1.56,0,2.88-.39,3.96-1.18,1.07-.79,1.91-1.73,2.51-2.82v-8.08c-.57-1.19-1.35-2.2-2.36-3.04-1-.84-2.24-1.26-3.72-1.26-1.89,0-3.33.7-4.32,2.09-.99,1.39-1.49,3.38-1.49,5.97,0,2.77.47,4.85,1.4,6.24.94,1.39,2.27,2.09,4.02,2.09Z"/>
    <path d="M297.19,742.29c-1.37,0-2.62-.26-3.77-.77s-2.07-1.29-2.77-2.32c-.7-1.03-1.05-2.32-1.05-3.87,0-2.17.66-3.8,1.99-4.91,1.33-1.11,3.19-1.86,5.59-2.27,2.4-.41,5.21-.63,8.44-.68v-1.46c0-1.77-.44-3-1.32-3.66s-1.99-1-3.34-1c-1.46,0-2.69.36-3.66,1.07s-1.46,1.86-1.46,3.44h-5c0-1.99.43-3.58,1.28-4.77s2.04-2.06,3.56-2.6c1.52-.54,3.28-.81,5.29-.81,1.35,0,2.62.12,3.81.37,1.19.24,2.23.67,3.14,1.28s1.61,1.45,2.12,2.51c.51,1.07.77,2.43.77,4.09v15.94h-4.93l-.2-3.34c-1.04,1.17-2.26,2.09-3.65,2.76s-3,1-4.82,1ZM298.78,738.54c1.43,0,2.73-.35,3.91-1.05s2.13-1.55,2.88-2.56v-4.32c-3.87.02-6.62.37-8.25,1.07-1.63.7-2.44,1.83-2.44,3.39,0,1.11.35,1.96,1.04,2.56.69.6,1.65.9,2.87.9Z"/>
    <path d="M316.34,750.62v-4.32h2.1c.94,0,1.73-.21,2.37-.62s1.15-1.1,1.54-2.06l.71-1.73-9.38-23.8h5.52l6.69,18.53,6.08-18.53h5.35l-8.74,23.8-1,2.61c-.59,1.56-1.24,2.79-1.95,3.67-.72.89-1.6,1.52-2.65,1.89-1.05.37-2.36.56-3.94.56h-2.69Z"/>
    <path d="M337.38,749.06l-.95-2.76c1.06-.38,1.94-.93,2.65-1.67s1.14-1.66,1.31-2.75l.32.29c-1.07,0-1.95-.34-2.64-1.03s-1.03-1.52-1.03-2.51c0-1.04.34-1.89,1.03-2.54s1.56-.98,2.64-.98,1.94.37,2.61,1.12c.67.75,1,1.87,1,3.37,0,1.79-.33,3.32-.98,4.58-.65,1.26-1.5,2.29-2.55,3.08s-2.19,1.39-3.41,1.79Z"/>
    <path d="M361.38,741.88v-32.86h6.32l11.01,18.43h-2.25l10.82-18.43h6.13v32.86h-5.54v-29.2h2.25l-10.94,18.77h-3.54l-11.18-18.77h2.32v29.2h-5.4Z"/>
    <path d="M407.07,742.29c-1.37,0-2.62-.26-3.77-.77s-2.07-1.29-2.77-2.32c-.7-1.03-1.05-2.32-1.05-3.87,0-2.17.66-3.8,1.99-4.91,1.33-1.11,3.19-1.86,5.59-2.27,2.4-.41,5.21-.63,8.44-.68v-1.46c0-1.77-.44-3-1.32-3.66s-1.99-1-3.34-1c-1.46,0-2.69.36-3.66,1.07s-1.46,1.86-1.46,3.44h-5c0-1.99.43-3.58,1.28-4.77s2.04-2.06,3.56-2.6c1.52-.54,3.28-.81,5.29-.81,1.35,0,2.62.12,3.81.37,1.19.24,2.23.67,3.14,1.28s1.61,1.45,2.12,2.51c.51,1.07.77,2.43.77,4.09v15.94h-4.93l-.2-3.34c-1.04,1.17-2.26,2.09-3.65,2.76s-3,1-4.82,1ZM408.66,738.54c1.43,0,2.73-.35,3.91-1.05s2.13-1.55,2.88-2.56v-4.32c-3.87.02-6.62.37-8.25,1.07-1.63.7-2.44,1.83-2.44,3.39,0,1.11.35,1.96,1.04,2.56.69.6,1.65.9,2.87.9Z"/>
    <path d="M427.37,741.88v-23.8h5.03l.12,4.08c.65-1.32,1.58-2.38,2.8-3.19,1.21-.81,2.74-1.21,4.58-1.21h.46v4.61h-.56c-1.09,0-2.08.12-2.97.35-.89.24-1.67.59-2.36,1.07-.68.48-1.29,1.08-1.81,1.79v16.28h-5.3Z"/>
    <path d="M454.07,742.25c-2.2,0-4.16-.44-5.88-1.31-1.73-.87-3.09-2.21-4.09-4.02s-1.5-4.09-1.5-6.86.48-5.09,1.45-6.92c.97-1.83,2.31-3.2,4.03-4.1,1.72-.9,3.71-1.35,5.99-1.35,1.92,0,3.65.32,5.2.95,1.55.63,2.78,1.59,3.7,2.86.92,1.27,1.4,2.87,1.45,4.81h-5.15c-.08-1.38-.57-2.47-1.46-3.27-.9-.8-2.12-1.2-3.69-1.2-2.1,0-3.65.72-4.64,2.16-.99,1.44-1.49,3.46-1.49,6.07,0,1.69.22,3.14.66,4.35s1.11,2.12,2.01,2.76,2.05.95,3.45.95c1.59,0,2.87-.42,3.83-1.27.96-.85,1.46-2.07,1.51-3.66h5.15c-.05,1.99-.54,3.65-1.46,5s-2.18,2.36-3.75,3.04c-1.57.68-3.35,1.01-5.33,1.01Z"/>
    <path d="M470.27,741.88v-32.86h5.2v12.67c.78-.99,1.84-1.9,3.17-2.72,1.33-.82,3.04-1.23,5.13-1.23,2.56,0,4.46.74,5.71,2.23,1.25,1.49,1.88,3.65,1.88,6.48v15.43h-5.3v-14.72c0-1.01-.12-1.9-.35-2.67-.24-.77-.64-1.38-1.21-1.81-.57-.43-1.37-.65-2.39-.65-1.53,0-2.83.35-3.89,1.06-1.07.71-1.95,1.51-2.65,2.41v16.38h-5.3Z"/>
    <path d="M516.81,741.88v-25.59c-.47.59-1.1,1.16-1.89,1.72-.79.56-1.73,1.05-2.83,1.48s-2.36.74-3.77.95v-4.93c1.42-.28,2.7-.71,3.85-1.29s2.16-1.26,3.04-2.01,1.6-1.53,2.17-2.33h4.98v32.01h-5.54Z"/>
    <path d="M535.96,741.88l13.62-27.12h-17.09v-4.81h22.44v4.44l-13.26,27.49h-5.71Z"/>
    <path d="M569.35,741.88c-2.17,0-3.83-.3-5-.89-1.17-.59-1.98-1.48-2.43-2.66-.45-1.18-.67-2.66-.67-4.43v-11.67h-3.98v-4.15h3.98v-5.54h5.25v5.54h5.54v4.15h-5.54v11.35c0,1.37.18,2.4.55,3.1s1.22,1.05,2.58,1.05h2.42v4.15h-2.69Z"/>
    <path d="M576.81,741.88v-32.86h5.2v12.67c.78-.99,1.84-1.9,3.17-2.72,1.33-.82,3.04-1.23,5.13-1.23,2.56,0,4.46.74,5.71,2.23,1.25,1.49,1.88,3.65,1.88,6.48v15.43h-5.3v-14.72c0-1.01-.12-1.9-.35-2.67-.24-.77-.64-1.38-1.21-1.81-.57-.43-1.37-.65-2.39-.65-1.53,0-2.83.35-3.89,1.06-1.07.71-1.95,1.51-2.65,2.41v16.38h-5.3Z"/>
    <path d="M604.95,749.06l-.95-2.76c1.06-.38,1.94-.93,2.65-1.67s1.14-1.66,1.31-2.75l.32.29c-1.07,0-1.95-.34-2.64-1.03s-1.03-1.52-1.03-2.51c0-1.04.34-1.89,1.03-2.54s1.56-.98,2.64-.98,1.94.37,2.61,1.12c.67.75,1,1.87,1,3.37,0,1.79-.33,3.32-.98,4.58-.65,1.26-1.5,2.29-2.55,3.08s-2.19,1.39-3.41,1.79ZM608.27,725.13c-1.07,0-1.95-.34-2.64-1.03s-1.03-1.52-1.03-2.51c0-1.04.34-1.89,1.03-2.54s1.56-.98,2.64-.98,1.94.33,2.61.98c.67.65,1,1.5,1,2.54s-.33,1.83-1,2.51c-.67.68-1.54,1.03-2.61,1.03Z"/>
    <path d="M637.55,741.88v-25.59c-.47.59-1.1,1.16-1.89,1.72-.79.56-1.73,1.05-2.83,1.48s-2.36.74-3.77.95v-4.93c1.42-.28,2.7-.71,3.85-1.29s2.16-1.26,3.04-2.01,1.6-1.53,2.17-2.33h4.98v32.01h-5.54Z"/>
    <path d="M664.44,742.32c-1.97,0-3.66-.39-5.08-1.16-1.42-.77-2.58-1.88-3.48-3.32s-1.57-3.17-2-5.18c-.43-2.01-.65-4.24-.65-6.7s.22-4.72.65-6.74c.43-2.02,1.1-3.75,2-5.2s2.06-2.56,3.48-3.34,3.11-1.17,5.08-1.17,3.64.39,5.05,1.17,2.58,1.9,3.48,3.34,1.57,3.18,2.01,5.19c.44,2.01.66,4.25.66,6.73s-.22,4.72-.66,6.73c-.44,2.01-1.11,3.74-2.01,5.18s-2.06,2.55-3.48,3.32c-1.42.77-3.1,1.16-5.05,1.16ZM664.44,737.73c1.12,0,2.05-.33,2.78-.98s1.3-1.53,1.7-2.64c.4-1.11.68-2.36.85-3.77.17-1.41.26-2.88.26-4.41s-.09-3-.26-4.42-.46-2.68-.85-3.8c-.4-1.11-.96-1.99-1.7-2.64-.73-.64-1.66-.96-2.78-.96s-2.07.32-2.8.96c-.72.64-1.29,1.52-1.71,2.64-.42,1.12-.7,2.38-.87,3.8-.16,1.42-.24,2.89-.24,4.42s.08,3,.24,4.41c.16,1.41.45,2.67.87,3.77s.98,1.99,1.71,2.64c.72.65,1.66.98,2.8.98Z"/>
    <path d="M684.69,725.13c-1.07,0-1.95-.34-2.64-1.03s-1.03-1.52-1.03-2.51c0-1.04.34-1.89,1.03-2.54s1.56-.98,2.64-.98,1.94.33,2.61.98c.67.65,1,1.5,1,2.54s-.33,1.83-1,2.51c-.67.68-1.54,1.03-2.61,1.03ZM684.69,742.17c-1.07,0-1.95-.34-2.64-1.03s-1.03-1.52-1.03-2.51c0-1.04.34-1.89,1.03-2.54s1.56-.98,2.64-.98,1.94.33,2.61.98c.67.65,1,1.5,1,2.54s-.33,1.83-1,2.51c-.67.68-1.54,1.03-2.61,1.03Z"/>
    <path d="M704.9,742.32c-1.97,0-3.66-.39-5.08-1.16-1.42-.77-2.58-1.88-3.48-3.32s-1.57-3.17-2-5.18c-.43-2.01-.65-4.24-.65-6.7s.22-4.72.65-6.74c.43-2.02,1.1-3.75,2-5.2s2.06-2.56,3.48-3.34,3.11-1.17,5.08-1.17,3.64.39,5.05,1.17,2.58,1.9,3.48,3.34,1.57,3.18,2.01,5.19c.44,2.01.66,4.25.66,6.73s-.22,4.72-.66,6.73c-.44,2.01-1.11,3.74-2.01,5.18s-2.06,2.55-3.48,3.32c-1.42.77-3.1,1.16-5.05,1.16ZM704.9,737.73c1.12,0,2.05-.33,2.78-.98s1.3-1.53,1.7-2.64c.4-1.11.68-2.36.85-3.77.17-1.41.26-2.88.26-4.41s-.09-3-.26-4.42-.46-2.68-.85-3.8c-.4-1.11-.96-1.99-1.7-2.64-.73-.64-1.66-.96-2.78-.96s-2.07.32-2.8.96c-.72.64-1.29,1.52-1.71,2.64-.42,1.12-.7,2.38-.87,3.8-.16,1.42-.24,2.89-.24,4.42s.08,3,.24,4.41c.16,1.41.45,2.67.87,3.77s.98,1.99,1.71,2.64c.72.65,1.66.98,2.8.98Z"/>
    <path d="M731.16,742.32c-1.97,0-3.66-.39-5.08-1.16-1.42-.77-2.58-1.88-3.48-3.32s-1.57-3.17-2-5.18c-.43-2.01-.65-4.24-.65-6.7s.22-4.72.65-6.74c.43-2.02,1.1-3.75,2-5.2s2.06-2.56,3.48-3.34,3.11-1.17,5.08-1.17,3.64.39,5.05,1.17,2.58,1.9,3.48,3.34,1.57,3.18,2.01,5.19c.44,2.01.66,4.25.66,6.73s-.22,4.72-.66,6.73c-.44,2.01-1.11,3.74-2.01,5.18s-2.06,2.55-3.48,3.32c-1.42.77-3.1,1.16-5.05,1.16ZM731.16,737.73c1.12,0,2.05-.33,2.78-.98s1.3-1.53,1.7-2.64c.4-1.11.68-2.36.85-3.77.17-1.41.26-2.88.26-4.41s-.09-3-.26-4.42-.46-2.68-.85-3.8c-.4-1.11-.96-1.99-1.7-2.64-.73-.64-1.66-.96-2.78-.96s-2.07.32-2.8.96c-.72.64-1.29,1.52-1.71,2.64-.42,1.12-.7,2.38-.87,3.8-.16,1.42-.24,2.89-.24,4.42s.08,3,.24,4.41c.16,1.41.45,2.67.87,3.77s.98,1.99,1.71,2.64c.72.65,1.66.98,2.8.98Z"/>
    <path d="M763.78,742.29c-1.37,0-2.62-.26-3.77-.77s-2.07-1.29-2.77-2.32c-.7-1.03-1.05-2.32-1.05-3.87,0-2.17.66-3.8,1.99-4.91,1.33-1.11,3.19-1.86,5.59-2.27,2.4-.41,5.21-.63,8.44-.68v-1.46c0-1.77-.44-3-1.32-3.66s-1.99-1-3.34-1c-1.46,0-2.69.36-3.66,1.07s-1.46,1.86-1.46,3.44h-5c0-1.99.43-3.58,1.28-4.77s2.04-2.06,3.56-2.6c1.52-.54,3.28-.81,5.29-.81,1.35,0,2.62.12,3.81.37,1.19.24,2.23.67,3.14,1.28s1.61,1.45,2.12,2.51c.51,1.07.77,2.43.77,4.09v15.94h-4.93l-.2-3.34c-1.04,1.17-2.26,2.09-3.65,2.76s-3,1-4.82,1ZM765.37,738.54c1.43,0,2.73-.35,3.91-1.05s2.13-1.55,2.88-2.56v-4.32c-3.87.02-6.62.37-8.25,1.07-1.63.7-2.44,1.83-2.44,3.39,0,1.11.35,1.96,1.04,2.56.69.6,1.65.9,2.87.9Z"/>
    <path d="M784.08,741.88v-23.8h5.08l.12,3.61c.75-.99,1.8-1.9,3.16-2.72,1.36-.82,3.05-1.23,5.07-1.23,2.52,0,4.39.76,5.62,2.29s1.83,3.67,1.83,6.42v15.43h-5.3v-14.72c0-1.01-.12-1.9-.35-2.67-.24-.77-.64-1.38-1.22-1.81-.58-.43-1.38-.65-2.4-.65-1.46,0-2.71.35-3.74,1.06s-1.88,1.51-2.56,2.41v16.38h-5.3ZM815.21,741.88v-14.72c0-1.01-.12-1.9-.35-2.67-.24-.77-.64-1.38-1.22-1.81-.58-.43-1.38-.65-2.4-.65-1.46,0-2.71.34-3.74,1.01-1.03.68-1.9,1.46-2.64,2.36l-.71-3.52c.98-1.06,2.2-2.01,3.67-2.87,1.47-.85,3.22-1.28,5.24-1.28,2.51,0,4.37.76,5.59,2.29s1.83,3.67,1.83,6.42v15.43h-5.27Z"/>
    <path d="M833.41,732.04v-4.54h23v4.54h-23Z"/>
    <path d="M865.16,741.88v-25.59c-.47.59-1.1,1.16-1.89,1.72-.79.56-1.73,1.05-2.83,1.48-1.1.42-2.36.74-3.77.95v-4.93c1.42-.28,2.7-.71,3.84-1.29,1.15-.59,2.16-1.26,3.04-2.01s1.6-1.53,2.17-2.33h4.98v32.01h-5.54Z"/>
    <path d="M891.42,741.88v-25.59c-.47.59-1.1,1.16-1.89,1.72-.79.56-1.73,1.05-2.83,1.48-1.1.42-2.36.74-3.77.95v-4.93c1.42-.28,2.7-.71,3.84-1.29,1.15-.59,2.16-1.26,3.04-2.01s1.6-1.53,2.17-2.33h4.98v32.01h-5.54Z"/>
    <path d="M912.31,725.13c-1.07,0-1.95-.34-2.64-1.03s-1.03-1.52-1.03-2.51c0-1.04.34-1.89,1.03-2.54s1.56-.98,2.64-.98,1.94.33,2.61.98c.67.65,1,1.5,1,2.54s-.33,1.83-1,2.51c-.67.68-1.54,1.03-2.61,1.03ZM912.31,742.17c-1.07,0-1.95-.34-2.64-1.03s-1.03-1.52-1.03-2.51c0-1.04.34-1.89,1.03-2.54s1.56-.98,2.64-.98,1.94.33,2.61.98c.67.65,1,1.5,1,2.54s-.33,1.83-1,2.51c-.67.68-1.54,1.03-2.61,1.03Z"/>
    <path d="M932.68,742.29c-3.56,0-6.37-.86-8.42-2.58-2.05-1.72-3.08-4.26-3.08-7.63h5.15c0,1.79.55,3.21,1.66,4.25,1.11,1.04,2.66,1.56,4.66,1.56,1.84,0,3.26-.44,4.26-1.31,1-.87,1.5-2.24,1.5-4.11s-.59-3.1-1.76-3.93-2.73-1.25-4.66-1.25h-1.93v-4.3h2.08c1.74,0,3.1-.44,4.09-1.32.98-.88,1.48-2.05,1.48-3.52s-.46-2.47-1.38-3.17c-.92-.7-2.16-1.05-3.72-1.05-1.73,0-3.06.46-4.02,1.37-.95.91-1.43,2.12-1.43,3.64h-5.13c0-2.05.46-3.78,1.37-5.18.91-1.4,2.16-2.46,3.75-3.19,1.59-.72,3.4-1.09,5.43-1.09,1.87,0,3.58.3,5.14.9,1.55.6,2.8,1.52,3.75,2.75.94,1.23,1.42,2.78,1.42,4.65s-.51,3.5-1.54,4.67c-1.03,1.18-2.39,2.01-4.1,2.5,1.9.36,3.48,1.18,4.72,2.48,1.25,1.29,1.87,3.07,1.87,5.33,0,2.05-.46,3.78-1.38,5.2-.92,1.42-2.21,2.49-3.88,3.21-1.67.72-3.63,1.09-5.9,1.09Z"/>
    <path d="M958.77,742.32c-1.97,0-3.66-.39-5.08-1.16-1.42-.77-2.58-1.88-3.48-3.32-.9-1.44-1.57-3.17-2-5.18-.43-2.01-.65-4.24-.65-6.7s.22-4.72.65-6.74c.43-2.02,1.1-3.75,2-5.2.9-1.45,2.06-2.56,3.48-3.34s3.11-1.17,5.08-1.17,3.64.39,5.05,1.17,2.58,1.9,3.48,3.34c.9,1.45,1.58,3.18,2.01,5.19.44,2.01.66,4.25.66,6.73s-.22,4.72-.66,6.73c-.44,2.01-1.11,3.74-2.01,5.18-.9,1.44-2.06,2.55-3.48,3.32-1.42.77-3.1,1.16-5.05,1.16ZM958.77,737.73c1.12,0,2.05-.33,2.78-.98s1.3-1.53,1.7-2.64c.4-1.11.68-2.36.86-3.77.17-1.41.26-2.88.26-4.41s-.09-3-.26-4.42c-.17-1.42-.46-2.68-.86-3.8-.4-1.11-.96-1.99-1.7-2.64-.73-.64-1.66-.96-2.78-.96s-2.07.32-2.8.96c-.72.64-1.29,1.52-1.71,2.64-.41,1.12-.7,2.38-.87,3.8-.16,1.42-.24,2.89-.24,4.42s.08,3,.24,4.41c.16,1.41.45,2.67.87,3.77.42,1.11.99,1.99,1.71,2.64.72.65,1.66.98,2.8.98Z"/>
    <path d="M991.39,742.29c-1.37,0-2.62-.26-3.77-.77-1.15-.51-2.07-1.29-2.77-2.32-.7-1.03-1.05-2.32-1.05-3.87,0-2.17.66-3.8,1.99-4.91,1.33-1.11,3.19-1.86,5.59-2.27,2.4-.41,5.21-.63,8.43-.68v-1.46c0-1.77-.44-3-1.32-3.66s-1.99-1-3.34-1c-1.46,0-2.69.36-3.66,1.07s-1.46,1.86-1.46,3.44h-5c0-1.99.43-3.58,1.28-4.77.85-1.2,2.04-2.06,3.56-2.6,1.52-.54,3.28-.81,5.29-.81,1.35,0,2.62.12,3.81.37,1.19.24,2.23.67,3.14,1.28.9.61,1.61,1.45,2.12,2.51.51,1.07.77,2.43.77,4.09v15.94h-4.93l-.2-3.34c-1.04,1.17-2.26,2.09-3.65,2.76-1.39.67-3,1-4.82,1ZM992.98,738.54c1.43,0,2.73-.35,3.91-1.05s2.13-1.55,2.88-2.56v-4.32c-3.87.02-6.62.37-8.25,1.07-1.63.7-2.44,1.83-2.44,3.39,0,1.11.35,1.96,1.04,2.56.69.6,1.65.9,2.87.9Z"/>
    <path d="M1011.69,741.88v-23.8h5.08l.12,3.61c.75-.99,1.8-1.9,3.16-2.72,1.36-.82,3.05-1.23,5.07-1.23,2.52,0,4.39.76,5.62,2.29s1.83,3.67,1.83,6.42v15.43h-5.3v-14.72c0-1.01-.12-1.9-.35-2.67-.24-.77-.64-1.38-1.22-1.81-.58-.43-1.38-.65-2.4-.65-1.46,0-2.71.35-3.74,1.06s-1.88,1.51-2.56,2.41v16.38h-5.3ZM1042.82,741.88v-14.72c0-1.01-.12-1.9-.35-2.67-.24-.77-.64-1.38-1.22-1.81-.58-.43-1.38-.65-2.41-.65-1.46,0-2.71.34-3.74,1.01-1.03.68-1.9,1.46-2.64,2.36l-.71-3.52c.98-1.06,2.2-2.01,3.67-2.87,1.47-.85,3.22-1.28,5.24-1.28,2.51,0,4.37.76,5.59,2.29s1.83,3.67,1.83,6.42v15.43h-5.27Z"/>
    <path d="M1079.2,742.32c-3.37,0-6.23-.7-8.59-2.11-2.36-1.41-4.16-3.37-5.4-5.9-1.24-2.52-1.86-5.47-1.86-8.84s.62-6.32,1.86-8.85c1.24-2.53,3.04-4.5,5.4-5.92,2.36-1.42,5.22-2.12,8.59-2.12,2.39,0,4.63.42,6.71,1.25,2.08.83,3.79,2.08,5.13,3.75,1.33,1.67,2.09,3.76,2.27,6.26h-5.71c-.18-1.5-.67-2.73-1.46-3.7-.8-.97-1.8-1.69-3-2.17-1.21-.48-2.51-.72-3.93-.72-2.39,0-4.33.56-5.81,1.67-1.48,1.12-2.56,2.6-3.22,4.44-.67,1.85-1,3.89-1,6.12s.33,4.24,1,6.09c.67,1.85,1.74,3.33,3.22,4.43,1.48,1.11,3.42,1.66,5.81,1.66s4.43-.62,5.92-1.87c1.49-1.25,2.34-3.06,2.55-5.43h5.74c-.23,2.62-.96,4.82-2.2,6.6-1.24,1.78-2.88,3.12-4.93,4.02s-4.41,1.34-7.08,1.34Z"/>
    <path d="M1099.45,741.88v-32.86h21.48v4.69h-15.87v9.06h14.5v4.54h-14.5v9.89h15.87v4.69h-21.48Z"/>
    <path d="M1132.5,741.88v-28.15h-9.06v-4.71h23.71v4.71h-9.01v28.15h-5.64Z"/>
  </g>
  <line x1="56.46" y1="347.84" x2="1120.51" y2="347.84" fill="none" stroke="url(#c)" stroke-miterlimit="10" stroke-width="3"/>
  <rect x="73.76" y="702.67" width="55.32" height="46.88" rx="3.22" ry="3.22" fill="none" stroke="#333" stroke-miterlimit="10" stroke-width="4"/>
  <rect x="74.08" y="703.49" width="55.32" height="9.98" fill="#333"/>
  <rect x="82.91" y="694.04" width="7.53" height="15.08" rx="3.06" ry="3.06" transform="translate(173.36 1403.16) rotate(180)" fill="#333"/>
  <rect x="82.8" y="694.04" width="7.53" height="15.08" rx="3.06" ry="3.06" transform="translate(173.14 1403.16) rotate(180)" fill="none" stroke="#e6e6e6" stroke-miterlimit="10" stroke-width="2"/>
  <rect x="112.11" y="694.04" width="7.53" height="15.08" rx="3.06" ry="3.06" transform="translate(231.75 1403.16) rotate(180)" fill="#333"/>
  <rect x="112" y="694.04" width="7.53" height="15.08" rx="3.06" ry="3.06" transform="translate(231.53 1403.16) rotate(180)" fill="none" stroke="#e6e6e6" stroke-miterlimit="10" stroke-width="2"/>
  <rect x="102.42" y="719.01" width="7.61" height="6.75" rx=".26" ry=".26" fill="#333"/>
  <rect x="113.26" y="719.01" width="7.61" height="6.75" rx=".26" ry=".26" fill="#333"/>
  <rect x="102.42" y="728.46" width="7.61" height="6.75" rx=".26" ry=".26" fill="#333"/>
  <rect x="113.26" y="728.46" width="7.61" height="6.75" rx=".26" ry=".26" fill="#333"/>
  <rect x="102.42" y="737.91" width="7.61" height="6.75" rx=".26" ry=".26" fill="#333"/>
  <rect x="113.26" y="737.91" width="7.61" height="6.75" rx=".26" ry=".26" fill="#333"/>
  <rect x="80.82" y="728.46" width="7.61" height="6.75" rx=".26" ry=".26" fill="#333"/>
  <rect x="91.66" y="728.46" width="7.61" height="6.75" rx=".26" ry=".26" fill="#333"/>
  <rect x="80.82" y="737.91" width="7.61" height="6.75" rx=".26" ry=".26" fill="#333"/>
  <rect x="91.66" y="737.91" width="7.61" height="6.75" rx=".26" ry=".26" fill="#333"/>
</svg>
