<?xml version="1.0" encoding="UTF-8"?>
<svg id="a" data-name="Layer 1" xmlns="http://www.w3.org/2000/svg" width="900" height="1100" xmlns:xlink="http://www.w3.org/1999/xlink" viewBox="0 0 900 1100">
  <defs>
    <linearGradient id="b" x1="246.39" y1="44.28" x2="246.39" y2="-86.6" gradientTransform="translate(0 492) scale(1 -1)" gradientUnits="userSpaceOnUse">
      <stop offset=".39" stop-color="#339eff"/>
      <stop offset="1" stop-color="#0065bf"/>
    </linearGradient>
    <linearGradient id="c" x1="246.51" y1="-4.84" x2="246.51" y2="-44.71" xlink:href="#b"/>
    <linearGradient id="d" x1="0" y1="1092.6" x2="900" y2="1092.6" gradientUnits="userSpaceOnUse">
      <stop offset="0" stop-color="#0f6bff"/>
      <stop offset="1" stop-color="#000025"/>
    </linearGradient>
  </defs>
  <rect x=".66" width="898.68" height="1098.35" fill="#fff"/>
  <rect x="82.16" y="692.67" width="732.64" height="149.02" rx="14.93" ry="14.93" fill="#bfddff"/>
  <path d="M455.07,451.15c-6.57,0-12.34-1.21-17.32-3.64s-8.88-5.97-11.69-10.62c-2.81-4.65-4.21-10.32-4.21-16.99,0-4.8.8-9.12,2.39-12.95,1.6-3.84,3.86-7.11,6.78-9.83s6.39-4.8,10.38-6.25c3.99-1.45,8.39-2.18,13.19-2.18,5.38,0,10.09.79,14.12,2.35,4.04,1.57,7.4,3.72,10.11,6.45,2.7,2.73,4.73,5.85,6.07,9.37,1.35,3.52,2.02,7.22,2.02,11.09,0,4.14-.61,7.55-1.84,10.22-1.23,2.68-2.91,4.67-5.04,5.97-2.14,1.3-4.56,1.96-7.28,1.96s-4.86-.5-6.74-1.5-3.22-2.48-4.01-4.43c-.74,1.66-1.98,3.06-3.74,4.21-1.75,1.15-4,1.72-6.74,1.72s-5.15-.65-7.22-1.96c-2.07-1.31-3.69-3.16-4.85-5.58-1.16-2.41-1.74-5.27-1.74-8.56s.59-5.99,1.78-8.33c1.19-2.33,2.83-4.13,4.92-5.4,2.1-1.27,4.51-1.9,7.26-1.9,2.16,0,4.04.37,5.64,1.11s2.8,1.7,3.62,2.89l.36-3.44h9.02v19.7c0,1.48.3,2.52.91,3.14.61.62,1.49.93,2.65.93,1.24,0,2.25-.43,3.04-1.3s1.38-2.1,1.76-3.7c.38-1.59.57-3.45.57-5.56,0-4.46-.97-8.35-2.91-11.69-1.94-3.33-4.74-5.93-8.4-7.77-3.66-1.85-8.11-2.77-13.33-2.77s-9.48.96-13.25,2.87c-3.77,1.91-6.69,4.66-8.76,8.25-2.07,3.59-3.11,7.87-3.11,12.85,0,5.38,1.06,9.85,3.18,13.41,2.12,3.56,5.08,6.22,8.86,7.97,3.78,1.75,8.17,2.63,13.15,2.63,2.82,0,5.56-.24,8.23-.73,2.66-.49,5.02-1.17,7.08-2.04v7.63c-2.08.76-4.41,1.35-6.98,1.76s-5.21.61-7.93.61ZM454.12,428.56c1.74,0,3.11-.4,4.09-1.21.99-.8,1.69-1.87,2.1-3.2.41-1.33.61-2.76.61-4.29,0-1.37-.21-2.67-.61-3.9-.41-1.23-1.1-2.23-2.08-3.01-.98-.78-2.29-1.17-3.96-1.17s-3.06.39-4.05,1.17c-.99.78-1.68,1.78-2.08,3.01-.39,1.23-.59,2.53-.59,3.9,0,1.48.2,2.88.59,4.21.4,1.33,1.07,2.41,2.04,3.24.96.83,2.27,1.25,3.94,1.25Z"/>
  <path d="M306.21,294.45c-8.52,0-16.11,3.86-21.24,9.85-.47-.6-1-1.13-1.53-1.66-1.6-1.6-3.4-3-5.26-4.13-4.39-2.66-9.46-4-14.45-4.06h0c-7.12,0-14.32,2.73-19.71,8.19-5.46,5.46-8.19,12.58-8.19,19.71,0,4.99,1.33,10.05,4,14.45,1.13,1.86,2.53,3.66,4.13,5.26,1.6,1.6,3.4,3,5.26,4.13,10.72,6.53,24.97,5.13,34.22-4.13.53-.53,1.07-1.13,1.53-1.66,5.13,5.99,12.72,9.85,21.24,9.85,15.38,0,27.9-12.52,27.9-27.9,0-15.38-12.52-27.9-27.9-27.9h0ZM249.08,322.34c0-3.73,1.4-7.46,4.26-10.32,2.86-2.86,6.59-4.26,10.32-4.26h0c1.53,0,3.06.27,4.53.73l-11.52,11.52-6.86,6.86c-.47-1.46-.73-3-.73-4.53ZM274.05,332.67c-4,4-9.79,5.19-14.85,3.6l7.12-7.12,11.25-11.25,1.33-1.33c-.4,1.86-.6,3.86-.6,5.86,0,3.73-1.4,7.46-4.26,10.32v-.07ZM306.21,336.99c-8.06,0-14.65-6.53-14.65-14.65,0-8.12,6.53-14.65,14.65-14.65,8.12,0,14.65,6.53,14.65,14.65s-6.53,14.65-14.65,14.65Z" fill="#333"/>
  <polygon points="214.05 317.62 186.62 275.07 170.64 275.07 170.64 349.78 186.62 349.78 186.62 303.04 216.52 349.78 230.1 349.78 230.1 275.07 214.05 275.07 214.05 317.62" fill="#333"/>
  <polygon points="386.77 317.62 359.34 275.07 343.36 275.07 343.36 349.78 359.34 349.78 359.34 303.03 389.24 349.78 402.76 349.78 402.76 275.07 386.77 275.07 386.77 317.62" fill="#0f6bff"/>
  <path d="M450.23,298.71c-4-2.46-8.59-3.66-13.72-3.66-5.13,0-10.19,1.2-14.38,3.6-4.19,2.4-7.46,5.73-9.79,9.92-2.33,4.19-3.53,8.92-3.53,14.05,0,5.13,1.2,9.85,3.6,14.05,2.4,4.19,5.73,7.52,10.05,9.92s9.32,3.6,15.05,3.6c5.73,0,9.52-.93,13.38-2.86,3.86-1.86,7.06-4.59,9.52-8.19l-11.32-6.73c-1.2,1.53-2.8,2.8-4.86,3.66-2.06.93-4.19,1.4-6.33,1.4-3.6,0-6.46-.8-8.72-2.33-2.26-1.6-4-4-5.33-7.19h38.89c.27-1.6.4-3.4.4-5.33,0-5.13-1.13-9.79-3.33-13.98-2.26-4.19-5.39-7.52-9.39-9.99l-.2.07ZM423.46,316.35c.13-2.33,1.46-4.26,4-5.93,2.53-1.66,5.53-2.46,8.92-2.46s6.06.73,8.32,2.2c2.26,1.46,3.66,3.53,4.13,6.19h-25.44s.07,0,.07,0Z" fill="#0f6bff"/>
  <path d="M515.82,298.64c-4-2.4-8.79-3.6-14.38-3.6-5.59,0-5.73.47-8.46,1.46-2.73.93-5.26,2.33-7.66,4.13v-4.13h-15.25s0,74.71,0,74.71h15.25s0-25.3,0-25.3c2.33,1.8,4.93,3.13,7.66,4.13,2.8.93,5.59,1.46,8.46,1.46,5.53,0,10.32-1.2,14.38-3.66,4-2.46,7.12-5.79,9.26-10.05,2.13-4.26,3.2-9.12,3.2-14.52s-1.07-10.25-3.2-14.45c-2.13-4.26-5.19-7.59-9.26-9.99v-.2ZM509.16,332.86c-2.53,2.46-5.79,3.66-9.79,3.66-4,0-7.39-1.2-10.05-3.66s-4-5.66-4-9.65,1.33-7.26,4.06-9.79c2.73-2.53,6.06-3.86,10.05-3.86s7.26,1.27,9.79,3.73c2.53,2.46,3.8,5.79,3.8,9.79s-1.27,7.32-3.8,9.79h-.07Z" fill="#0f6bff"/>
  <path d="M571.48,297.31c-3.2-1.33-6.26-2-9.32-2-4.53,0-8.79,1.66-12.72,4.93v-25.17s-15.25,0-15.25,0v74.71s15.25,0,15.25,0v-32.63c.4-2.93,1.46-5.06,3.06-6.46,1.66-1.4,3.53-2.06,5.79-2.06s4.93.73,6.86,2.26c1.93,1.53,2.86,4,2.86,7.39v31.49s15.25,0,15.25,0v-31.89c-.07-5.66-1.27-10.19-3.6-13.58-2.33-3.33-5.06-5.66-8.19-6.99Z" fill="#0f6bff"/>
  <path d="M630.61,298.71c-4.19-2.46-8.79-3.73-13.72-3.73-4.93,0-9.65,1.27-13.85,3.73-4.19,2.46-7.59,5.79-10.05,10.05-2.46,4.19-3.73,8.86-3.73,13.85,0,4.99,1.27,9.52,3.73,13.78,2.46,4.26,5.79,7.59,10.05,10.05,4.19,2.46,8.86,3.73,13.85,3.73,4.99,0,9.52-1.27,13.72-3.73,4.19-2.46,7.52-5.86,10.05-10.05,2.46-4.26,3.73-8.86,3.73-13.78,0-4.93-1.27-9.65-3.73-13.85-2.46-4.19-5.79-7.52-10.05-10.05ZM625.75,331.53c-2.53,2.46-5.53,3.73-8.99,3.73s-6.46-1.27-8.92-3.73c-2.46-2.46-3.73-5.46-3.73-8.92,0-3.46,1.27-6.46,3.73-8.99,2.46-2.53,5.46-3.73,8.92-3.73s6.46,1.27,8.99,3.73c2.53,2.53,3.73,5.53,3.73,8.99s-1.27,6.46-3.73,8.92Z" fill="#0f6bff"/>
  <path d="M693.66,323.48c-2.06-2.33-4.46-4-7.12-4.99-2.73-1-6.13-1.93-10.25-2.8-3.2-.6-5.53-1.27-6.99-1.8-1.46-.6-2.2-1.46-2.2-2.66s.6-2.4,1.8-3.2c1.2-.8,2.8-1.2,4.79-1.2s4.13.4,5.59,1.27c1.4.87,2.53,2.13,3.4,3.86l12.12-5.93c-2.06-3.53-4.99-6.26-8.66-8.12-3.66-1.86-7.86-2.8-12.45-2.8s-7.52.67-10.79,2c-3.33,1.33-5.93,3.26-7.86,5.79-1.93,2.53-2.93,5.53-2.93,8.92,0,3.4,1,6.39,2.93,8.52,1.93,2.13,4.26,3.66,6.99,4.73,2.73,1,6.13,2,10.12,2.86,3.53.8,6.13,1.53,7.79,2.2s2.46,1.73,2.46,3.13c0,1.4-.87,2.86-2.66,3.73-1.8.87-3.86,1.33-6.19,1.33-5.79,0-9.52-2.2-11.19-6.66l-12.25,6.26c2,4.06,4.99,7.06,8.99,9.12,4,2.06,8.79,3.06,14.45,3.06,5.66,0,7.92-.67,11.52-1.93,3.53-1.27,6.39-3.2,8.59-5.73,2.13-2.53,3.26-5.59,3.26-9.12,0-3.53-1-7.32-3.06-9.65l-.2-.2Z" fill="#0f6bff"/>
  <path d="M340.93,475.36c10.02,0,17.59,7.62,17.59,17.35s-7.57,17.83-17.59,17.83-17.59-7.81-17.59-17.83,7.57-17.35,17.59-17.35ZM340.93,504.88c6.23,0,11.21-5.18,11.21-12.17s-4.98-11.69-11.21-11.69-11.21,4.98-11.21,11.69,4.98,12.17,11.21,12.17ZM363.84,485.52h5.56v1.77c0,.91-.1,1.68-.1,1.68h.1s2.11-4.03,7.86-4.03c6.61,0,10.83,5.22,10.83,12.8s-4.74,12.8-11.17,12.8c-4.84,0-7-3.35-7-3.35h-.1s.1.86.1,2.11v10.26h-6.09v-34.03h0ZM375.83,505.41c3.35,0,6.13-2.73,6.13-7.57s-2.49-7.67-6.09-7.67c-3.16,0-6.13,2.3-6.13,7.72,0,3.79,2.06,7.52,6.09,7.52ZM403.81,484.94c7.04,0,10.83,5.13,10.83,11.6,0,.72-.14,2.35-.14,2.35h-16.87c.38,4.27,3.69,6.47,7.33,6.47,3.93,0,7.04-2.68,7.04-2.68l2.35,4.36s-3.74,3.5-9.82,3.5c-8.1,0-13.13-5.85-13.13-12.8,0-7.52,5.13-12.8,12.41-12.8h0ZM408.51,494.72c-.1-3.31-2.16-5.08-4.84-5.08-3.12,0-5.27,1.92-5.85,5.08h10.69ZM419.68,485.52h5.85v2.83c0,.91-.1,1.68-.1,1.68h.1c1.05-2.06,3.74-5.08,8.67-5.08,5.42,0,8.48,2.83,8.48,9.3v15.72h-6.04v-14.47c0-2.97-.77-4.98-3.88-4.98s-5.65,2.06-6.57,4.98c-.34,1.01-.43,2.11-.43,3.26v11.21h-6.09v-24.44ZM462.43,501.24s3.69,3.59,8.48,3.59c2.59,0,4.94-1.34,4.94-4.12,0-6.09-16.05-5.03-16.05-15.48,0-5.65,4.89-9.87,11.41-9.87s10.16,3.64,10.16,3.64l-2.68,5.03s-3.26-2.97-7.52-2.97c-2.88,0-5.13,1.68-5.13,4.07,0,6.04,16.01,4.55,16.01,15.43,0,5.42-4.12,9.97-11.21,9.97-7.57,0-11.74-4.65-11.74-4.65l3.36-4.65ZM498.85,484.94c7.48,0,13.47,5.32,13.47,12.8s-5.99,12.8-13.42,12.8-13.47-5.27-13.47-12.8,5.99-12.8,13.42-12.8h0ZM498.9,505.36c3.93,0,7.24-3.07,7.24-7.62s-3.31-7.62-7.24-7.62-7.28,3.12-7.28,7.62,3.31,7.62,7.28,7.62ZM513.86,485.52h6.42l5.08,15.14c.48,1.44.81,3.69.86,3.69h.1s.38-2.25.86-3.69l5.08-15.14h6.42l-8.77,24.44h-7.19s-8.87-24.44-8.87-24.44ZM552.77,484.94c7.05,0,10.83,5.13,10.83,11.6,0,.72-.14,2.35-.14,2.35h-16.87c.38,4.27,3.69,6.47,7.33,6.47,3.93,0,7.04-2.68,7.04-2.68l2.35,4.36s-3.74,3.5-9.82,3.5c-8.1,0-13.13-5.85-13.13-12.8,0-7.52,5.13-12.8,12.41-12.8h0ZM557.47,494.72c-.1-3.31-2.16-5.08-4.84-5.08-3.12,0-5.27,1.92-5.85,5.08h10.69ZM568.64,485.52h5.85v4.22c0,.91-.1,1.73-.1,1.73h.1c1.1-3.5,4.03-6.28,7.76-6.28.58,0,1.1.1,1.1.1v5.99s-.62-.1-1.44-.1c-2.59,0-5.51,1.49-6.66,5.13-.38,1.2-.53,2.54-.53,3.98v9.68h-6.09v-24.44ZM598.16,484.94c7.05,0,10.83,5.13,10.83,11.6,0,.72-.14,2.35-.14,2.35h-16.87c.38,4.27,3.69,6.47,7.33,6.47,3.93,0,7.04-2.68,7.04-2.68l2.35,4.36s-3.74,3.5-9.82,3.5c-8.1,0-13.13-5.85-13.13-12.8,0-7.52,5.13-12.8,12.41-12.8h0ZM602.85,494.72c-.1-3.31-2.16-5.08-4.84-5.08-3.12,0-5.27,1.92-5.85,5.08h10.69ZM614.02,475.93h6.04v5.42h-6.04v-5.42ZM614.02,485.52h6.09v24.44h-6.09v-24.44ZM636.07,514.85c3.74,0,6.9-1.58,6.9-5.94v-1.44c0-.57.1-1.29.1-1.29h-.1c-1.44,2.16-3.55,3.31-6.8,3.31-7,0-10.98-5.66-10.98-12.36s3.79-12.17,10.83-12.17c5.32,0,7.24,3.12,7.24,3.12h.14s-.05-.29-.05-.67v-1.87h5.7v22.96c0,8.39-6.52,11.55-12.89,11.55-3.07,0-6.33-.86-8.67-2.11l1.82-4.65s3.07,1.58,6.76,1.58ZM643.11,497.16c0-5.56-2.73-7.05-6.04-7.05-3.69,0-5.75,2.68-5.75,6.81s2.2,7.43,6.13,7.43c2.92,0,5.66-1.68,5.66-7.19h0ZM655.77,485.52h5.85v2.83c0,.91-.1,1.68-.1,1.68h.1c1.05-2.06,3.74-5.08,8.67-5.08,5.42,0,8.48,2.83,8.48,9.3v15.72h-6.04v-14.47c0-2.97-.77-4.98-3.88-4.98s-5.65,2.06-6.57,4.98c-.34,1.01-.43,2.11-.43,3.26v11.21h-6.09v-24.44ZM340.84,526.47c8.29,0,12.56,4.65,12.56,4.65l-2.97,4.6s-3.88-3.59-9.3-3.59c-7.19,0-11.41,5.37-11.41,11.69s4.36,12.17,11.45,12.17c5.89,0,9.87-4.31,9.87-4.31l3.26,4.46s-4.7,5.51-13.37,5.51c-10.4,0-17.59-7.72-17.59-17.73s7.48-17.44,17.49-17.44h0ZM358.72,527.05h6.04v25.5c0,2.68.91,3.35,2.49,3.35.48,0,.91-.05.91-.05v5.32s-.91.14-1.92.14c-3.35,0-7.52-.86-7.52-7.86,0,0,0-26.41,0-26.41ZM384.26,536.06c7.48,0,13.47,5.32,13.47,12.8s-5.99,12.8-13.42,12.8-13.47-5.27-13.47-12.8,5.99-12.8,13.42-12.8ZM384.31,556.47c3.93,0,7.24-3.07,7.24-7.62s-3.31-7.62-7.24-7.62-7.28,3.12-7.28,7.62,3.31,7.62,7.28,7.62ZM402.28,536.63h6.09v14.47c0,2.97.77,4.98,3.79,4.98,4.41,0,6.85-3.88,6.85-8.24v-11.21h6.09v24.44h-5.85v-2.78c0-.96.1-1.73.1-1.73h-.1c-1.2,2.54-4.31,5.08-8.48,5.08-5.22,0-8.48-2.64-8.48-9.3v-15.72h0ZM441.2,536.06c5.37,0,7.04,3.12,7.04,3.12h.1s-.05-.62-.05-1.39v-10.74h6.09v34.03h-5.75v-2.01c0-.91.1-1.58.1-1.58h-.1s-2.06,4.17-7.67,4.17c-6.61,0-10.83-5.22-10.83-12.8s4.6-12.8,11.07-12.8h0ZM442.35,556.52c3.16,0,6.13-2.3,6.13-7.72,0-3.79-2.01-7.52-6.09-7.52-3.35,0-6.13,2.73-6.13,7.57s2.49,7.67,6.09,7.67ZM473.69,527.05h11.6c10.5,0,17.35,6.23,17.35,16.97s-6.85,17.06-17.35,17.06h-11.6v-34.03h0ZM484.95,555.75c6.9,0,11.31-4.07,11.31-11.74s-4.51-11.65-11.31-11.65h-5.08v23.39h5.08ZM520.57,545.74h.81v-.34c0-3.21-2.01-4.31-4.7-4.31-3.5,0-6.71,2.35-6.71,2.35l-2.3-4.36s3.79-3.02,9.58-3.02c6.42,0,10.16,3.55,10.16,9.73v15.29h-5.61v-2.01c0-.96.1-1.73.1-1.73h-.1s-1.87,4.31-7.43,4.31c-4.36,0-8.29-2.73-8.29-7.62,0-7.76,10.5-8.29,14.47-8.29h0ZM515.92,556.9c3.21,0,5.51-3.45,5.51-6.42v-.57h-1.05c-3.12,0-8.15.43-8.15,3.83,0,1.63,1.2,3.16,3.69,3.16ZM532.45,565s1.34,1.01,2.73,1.01c1.68,0,3.31-1.01,4.22-3.16l.91-2.16-10.3-24.06h6.85l5.13,14.09c.48,1.29.91,3.31.91,3.31h.1s.38-1.92.82-3.21l4.79-14.19h6.66l-10.93,28.13c-1.73,4.46-5.13,6.37-8.82,6.37-2.92,0-5.08-1.58-5.08-1.58l2.01-4.55h0Z" fill="#121743"/>
  <path d="M299.52,489.1s-9.24-6.48-24.82-10.85c.05-.7.08-1.42.08-2.13,0-15.68-12.71-28.39-28.39-28.39s-28.39,12.71-28.39,28.39c0,.72.03,1.43.08,2.13-15.58,4.37-24.82,10.85-24.82,10.85,0,0-3.95,68.81,53.13,89.5,57.08-20.69,53.13-89.5,53.13-89.5ZM246.39,454.21c11.25,0,20.37,9.24,20.37,20.64,0,.5-.02,1-.05,1.49-6.1-1.21-12.91-1.99-20.32-1.99s-14.21.79-20.32,1.99c-.03-.49-.05-.99-.05-1.49,0-11.4,9.12-20.64,20.37-20.64ZM286.13,524.07c-3.27,10.35-8.01,19.33-14.09,26.69-6.83,8.28-15.45,14.58-25.66,18.78-10.21-4.2-18.83-10.51-25.66-18.78-6.07-7.36-10.81-16.34-14.09-26.69-3.97-12.54-4.82-24.14-4.96-30.17,2.28-1.25,5.58-2.89,9.75-4.52,7.67-3,19.96-6.57,34.96-6.57s27.29,3.57,34.96,6.57c4.17,1.63,7.47,3.27,9.75,4.52-.14,6.03-.99,17.63-4.96,30.17Z" fill="url(#b)"/>
  <path d="M261.78,510.46c-.87-7.66-7.37-13.62-15.27-13.62s-14.4,5.96-15.27,13.62c-6.66.65-11.87,6.26-11.87,13.09s5.69,12.95,12.79,13.14h0s8.22,0,8.22,0v-12c0-3.31,2.69-6,6-6s6,2.69,6,6v12h8.48c7.1-.2,12.79-6.01,12.79-13.15s-5.21-12.44-11.87-13.09h0Z" fill="url(#c)"/>
  <path d="M140.2,60.18c-5.18,0-9.79,2.35-12.9,5.99-.28-.36-.61-.69-.93-1.01-.97-.97-2.06-1.82-3.2-2.51-2.67-1.62-5.74-2.43-8.78-2.47h0c-4.33,0-8.7,1.66-11.97,4.98-3.32,3.32-4.98,7.64-4.98,11.97,0,3.03.81,6.11,2.43,8.78.69,1.13,1.54,2.22,2.51,3.2.97.97,2.06,1.82,3.2,2.51,6.51,3.96,15.17,3.11,20.79-2.51.32-.32.65-.69.93-1.01,3.11,3.64,7.73,5.99,12.9,5.99,9.34,0,16.95-7.6,16.95-16.95,0-9.34-7.6-16.95-16.95-16.95h0ZM105.49,77.13c0-2.27.85-4.53,2.59-6.27,1.74-1.74,4-2.59,6.27-2.59h0c.93,0,1.86.16,2.75.44l-7,7-4.17,4.17c-.28-.89-.44-1.82-.44-2.75ZM120.66,83.4c-2.43,2.43-5.95,3.15-9.02,2.18l4.33-4.33,6.84-6.84.81-.81c-.24,1.13-.36,2.35-.36,3.56,0,2.27-.85,4.53-2.59,6.27v-.04ZM140.2,86.03c-4.89,0-8.9-3.96-8.9-8.9,0-4.93,3.96-8.9,8.9-8.9,4.93,0,8.9,3.96,8.9,8.9s-3.96,8.9-8.9,8.9Z" fill="#333"/>
  <polygon points="84.22 74.26 67.55 48.41 57.84 48.41 57.84 93.79 67.55 93.79 67.55 65.4 85.71 93.79 93.97 93.79 93.97 48.41 84.22 48.41 84.22 74.26" fill="#333"/>
  <polygon points="189.14 74.26 172.48 48.41 162.77 48.41 162.77 93.79 172.48 93.79 172.48 65.4 190.64 93.79 198.85 93.79 198.85 48.41 189.14 48.41 189.14 74.26" fill="#0f6bff"/>
  <path d="M227.69,62.77c-2.43-1.5-5.22-2.22-8.33-2.22s-6.19.73-8.74,2.18c-2.55,1.46-4.53,3.48-5.95,6.03-1.42,2.55-2.14,5.42-2.14,8.53s.73,5.99,2.18,8.53c1.46,2.55,3.48,4.57,6.11,6.03s5.66,2.18,9.14,2.18,5.78-.57,8.13-1.74c2.35-1.13,4.29-2.79,5.78-4.98l-6.88-4.09c-.73.93-1.7,1.7-2.95,2.22-1.25.57-2.55.85-3.84.85-2.18,0-3.92-.49-5.3-1.42-1.38-.97-2.43-2.43-3.24-4.37h23.62c.16-.97.24-2.06.24-3.24,0-3.11-.69-5.95-2.02-8.49-1.38-2.55-3.28-4.57-5.7-6.07l-.12.04ZM211.43,73.49c.08-1.42.89-2.59,2.43-3.6,1.54-1.01,3.36-1.5,5.42-1.5s3.68.44,5.06,1.33,2.22,2.14,2.51,3.76h-15.45s.04,0,.04,0Z" fill="#0f6bff"/>
  <path d="M267.53,62.73c-2.43-1.46-5.34-2.18-8.74-2.18s-3.48.28-5.14.89c-1.66.57-3.2,1.42-4.65,2.51v-2.51h-9.26s0,45.38,0,45.38h9.26s0-15.37,0-15.37c1.42,1.09,2.99,1.9,4.65,2.51,1.7.57,3.4.89,5.14.89,3.36,0,6.27-.73,8.74-2.22,2.43-1.5,4.33-3.52,5.62-6.11,1.29-2.59,1.94-5.54,1.94-8.82s-.65-6.23-1.94-8.78c-1.29-2.59-3.15-4.61-5.62-6.07v-.12ZM263.48,83.52c-1.54,1.5-3.52,2.22-5.95,2.22-2.43,0-4.49-.73-6.11-2.22s-2.43-3.44-2.43-5.87.81-4.41,2.47-5.95c1.66-1.54,3.68-2.35,6.11-2.35s4.41.77,5.95,2.27c1.54,1.5,2.31,3.52,2.31,5.95s-.77,4.45-2.31,5.95h-.04Z" fill="#0f6bff"/>
  <path d="M301.34,61.92c-1.94-.81-3.8-1.21-5.66-1.21-2.75,0-5.34,1.01-7.73,2.99v-15.29s-9.26,0-9.26,0v45.38s9.26,0,9.26,0v-19.82c.24-1.78.89-3.07,1.86-3.92,1.01-.85,2.14-1.25,3.52-1.25s2.99.44,4.17,1.38c1.17.93,1.74,2.43,1.74,4.49v19.13s9.26,0,9.26,0v-19.37c-.04-3.44-.77-6.19-2.18-8.25-1.42-2.02-3.07-3.44-4.98-4.25Z" fill="#0f6bff"/>
  <path d="M337.26,62.77c-2.55-1.5-5.34-2.27-8.33-2.27s-5.87.77-8.41,2.27c-2.55,1.5-4.61,3.52-6.11,6.11-1.5,2.55-2.27,5.38-2.27,8.41s.77,5.78,2.27,8.37c1.5,2.59,3.52,4.61,6.11,6.11,2.55,1.5,5.38,2.27,8.41,2.27s5.78-.77,8.33-2.27c2.55-1.5,4.57-3.56,6.11-6.11,1.5-2.59,2.27-5.38,2.27-8.37,0-2.99-.77-5.87-2.27-8.41-1.5-2.55-3.52-4.57-6.11-6.11ZM334.31,82.71c-1.54,1.5-3.36,2.27-5.46,2.27s-3.92-.77-5.42-2.27c-1.5-1.5-2.27-3.32-2.27-5.42,0-2.1.77-3.92,2.27-5.46,1.5-1.54,3.32-2.27,5.42-2.27s3.92.77,5.46,2.27c1.54,1.54,2.27,3.36,2.27,5.46s-.77,3.92-2.27,5.42Z" fill="#0f6bff"/>
  <path d="M375.57,77.82c-1.25-1.42-2.71-2.43-4.33-3.03-1.66-.61-3.72-1.17-6.23-1.7-1.94-.36-3.36-.77-4.25-1.09-.89-.36-1.33-.89-1.33-1.62s.36-1.46,1.09-1.94c.73-.49,1.7-.73,2.91-.73s2.51.24,3.4.77c.85.53,1.54,1.29,2.06,2.35l7.36-3.6c-1.25-2.14-3.03-3.8-5.26-4.93-2.22-1.13-4.77-1.7-7.56-1.7s-4.57.4-6.55,1.21c-2.02.81-3.6,1.98-4.77,3.52-1.17,1.54-1.78,3.36-1.78,5.42,0,2.06.61,3.88,1.78,5.18,1.17,1.29,2.59,2.22,4.25,2.87,1.66.61,3.72,1.21,6.15,1.74,2.14.49,3.72.93,4.73,1.33s1.5,1.05,1.5,1.9-.53,1.74-1.62,2.27c-1.09.53-2.35.81-3.76.81-3.52,0-5.78-1.33-6.8-4.04l-7.44,3.8c1.21,2.47,3.03,4.29,5.46,5.54,2.43,1.25,5.34,1.86,8.78,1.86s4.81-.4,7-1.17c2.14-.77,3.88-1.94,5.22-3.48,1.29-1.54,1.98-3.4,1.98-5.54,0-2.14-.61-4.45-1.86-5.87l-.12-.12Z" fill="#0f6bff"/>
  <rect y="1085.2" width="900" height="14.8" fill="url(#d)"/>
  <g>
    <path d="M69.59,1011.59c-2.25,0-4.14-.47-5.67-1.42-1.54-.95-2.7-2.25-3.49-3.92-.79-1.67-1.19-3.59-1.19-5.79s.39-4.12,1.19-5.8c.79-1.68,1.95-2.99,3.49-3.93,1.54-.95,3.43-1.42,5.67-1.42,1.48,0,2.88.26,4.2.77s2.41,1.3,3.29,2.36c.88,1.06,1.39,2.39,1.54,4h-2.92c-.13-1.08-.49-1.98-1.09-2.68-.6-.7-1.33-1.23-2.21-1.57-.88-.34-1.81-.52-2.81-.52-1.74,0-3.15.4-4.23,1.19s-1.87,1.85-2.36,3.17-.74,2.79-.74,4.42.25,3.08.74,4.4,1.28,2.37,2.36,3.15c1.08.78,2.49,1.17,4.23,1.17s3.19-.44,4.29-1.31,1.73-2.17,1.9-3.9h2.93c-.17,1.71-.67,3.12-1.5,4.25-.83,1.12-1.9,1.96-3.21,2.52s-2.78.84-4.41.84Z"/>
    <path d="M89.38,1011.56c-1.54,0-2.85-.32-3.95-.97-1.1-.65-1.93-1.58-2.51-2.79-.58-1.21-.86-2.64-.86-4.31s.29-3.17.86-4.39c.57-1.22,1.41-2.16,2.51-2.81s2.41-.98,3.95-.98,2.91.33,4.02.98,1.97,1.59,2.56,2.81c.6,1.22.89,2.68.89,4.39s-.3,3.1-.89,4.31c-.6,1.21-1.45,2.14-2.56,2.79-1.11.65-2.45.97-4.02.97ZM89.38,1009.42c1.16,0,2.08-.25,2.77-.77.69-.51,1.18-1.21,1.48-2.11.3-.9.45-1.91.45-3.05s-.15-2.2-.45-3.11-.79-1.63-1.48-2.15c-.69-.52-1.61-.78-2.77-.78s-2.02.26-2.68.78c-.66.52-1.13,1.24-1.43,2.15-.29.91-.44,1.95-.44,3.11s.15,2.16.44,3.05c.29.9.77,1.6,1.43,2.11.66.51,1.55.77,2.68.77Z"/>
    <path d="M100.82,1004.49v-2.38h8.04v2.38h-8.04Z"/>
    <path d="M113.29,1011.3v-21.69h2.9v9.1h11.86v-9.1h2.87v21.69h-2.87v-10.07h-11.86v10.07h-2.9Z"/>
    <path d="M142.81,1011.56c-1.54,0-2.85-.32-3.95-.97-1.1-.65-1.93-1.58-2.51-2.79-.58-1.21-.86-2.64-.86-4.31s.29-3.17.86-4.39c.57-1.22,1.41-2.16,2.51-2.81s2.41-.98,3.95-.98,2.91.33,4.02.98,1.97,1.59,2.56,2.81c.6,1.22.89,2.68.89,4.39s-.3,3.1-.89,4.31c-.6,1.21-1.45,2.14-2.56,2.79-1.11.65-2.45.97-4.02.97ZM142.81,1009.42c1.16,0,2.08-.25,2.77-.77.69-.51,1.18-1.21,1.48-2.11.3-.9.45-1.91.45-3.05s-.15-2.2-.45-3.11-.79-1.63-1.48-2.15c-.69-.52-1.61-.78-2.77-.78s-2.02.26-2.68.78c-.66.52-1.13,1.24-1.43,2.15-.29.91-.44,1.95-.44,3.11s.15,2.16.44,3.05c.29.9.77,1.6,1.43,2.11.66.51,1.55.77,2.68.77Z"/>
    <path d="M159.96,1011.59c-.88,0-1.72-.1-2.51-.29s-1.49-.5-2.09-.92-1.07-.97-1.41-1.65c-.34-.68-.51-1.51-.51-2.47h2.59c0,1.22.38,2.09,1.14,2.59.76.5,1.71.75,2.84.75,1.02,0,1.86-.2,2.52-.59.66-.39.99-1.04.99-1.94,0-.77-.3-1.35-.89-1.72-.6-.38-1.65-.74-3.15-1.1-1.22-.29-2.26-.62-3.09-1.01-.84-.38-1.46-.86-1.88-1.45-.42-.58-.63-1.32-.63-2.22,0-.7.15-1.31.44-1.84.3-.53.71-.97,1.24-1.33.53-.35,1.16-.62,1.88-.8.72-.18,1.5-.27,2.34-.27s1.6.1,2.33.29,1.37.49,1.92.9.99.93,1.31,1.58.48,1.42.48,2.32h-2.61c0-1.12-.33-1.91-1-2.37s-1.48-.69-2.43-.69-1.75.17-2.35.52-.9.88-.9,1.61c0,.42.13.77.4,1.06.27.29.72.55,1.35.78.63.23,1.49.48,2.56.73,1.17.28,2.15.61,2.95,1s1.39.88,1.8,1.49c.4.61.6,1.38.6,2.33,0,.82-.16,1.52-.47,2.12-.32.6-.76,1.08-1.32,1.47-.56.38-1.22.66-1.98.85s-1.58.27-2.46.27Z"/>
    <path d="M175.47,1011.3c-1.27,0-2.24-.2-2.92-.6-.68-.4-1.14-.98-1.39-1.74-.25-.76-.38-1.67-.38-2.73v-8.44h-2.63v-2.18h2.63v-3.59h2.67v3.59h3.87v2.18h-3.87v8.31c0,.98.13,1.73.38,2.25.25.52.86.78,1.81.78h1.71v2.17h-1.89Z"/>
    <path d="M187.27,1011.59c-1.71,0-3.11-.36-4.2-1.07-1.09-.71-1.9-1.69-2.42-2.92-.53-1.23-.79-2.61-.79-4.15s.26-3.01.77-4.23c.51-1.22,1.29-2.17,2.34-2.86,1.05-.69,2.38-1.03,3.99-1.03,2.14,0,3.81.64,5.03,1.93,1.21,1.29,1.82,3.14,1.82,5.56,0,.16,0,.35-.02.57,0,.22-.03.38-.05.48h-11.18c0,1.02.17,1.96.49,2.81.32.85.82,1.54,1.51,2.05s1.6.77,2.72.77c1.2,0,2.14-.28,2.82-.85.68-.56,1.03-1.38,1.06-2.44h2.66c-.03,1.11-.32,2.06-.85,2.86-.54.8-1.29,1.42-2.26,1.85-.97.43-2.11.65-3.43.65ZM182.56,1001.91h8.57c-.03-1.46-.41-2.58-1.14-3.35-.73-.77-1.75-1.16-3.05-1.16s-2.34.38-3.09,1.15c-.75.77-1.18,1.89-1.3,3.36Z"/>
    <path d="M203.49,1011.59c-1.28,0-2.38-.31-3.32-.92-.94-.61-1.66-1.53-2.17-2.75-.51-1.22-.77-2.73-.77-4.52s.27-3.27.81-4.46,1.31-2.09,2.3-2.7c.99-.61,2.15-.91,3.5-.91,1.12,0,2.09.24,2.92.73.83.49,1.49,1.15,2,1.99v-8.44h2.69v21.69h-2.55l-.14-2.29c-.56.76-1.28,1.38-2.16,1.86-.88.48-1.92.72-3.11.72ZM204.04,1009.39c1.15,0,2.11-.27,2.87-.81.76-.54,1.38-1.19,1.85-1.96v-6.04c-.44-.88-1.02-1.61-1.73-2.18-.71-.57-1.61-.86-2.7-.86-1.43,0-2.51.51-3.23,1.53s-1.09,2.47-1.09,4.35.34,3.43,1.02,4.45,1.68,1.53,3.01,1.53Z"/>
    <path d="M223.57,1011.3v-21.69h6.96c2.18,0,3.92.44,5.23,1.32s1.96,2.22,1.96,4.03c0,1.14-.32,2.15-.96,3.05-.64.89-1.48,1.47-2.54,1.74,1.5.25,2.7.85,3.59,1.8.89.95,1.34,2.12,1.34,3.52,0,1.31-.29,2.43-.87,3.36-.58.93-1.46,1.64-2.63,2.13-1.17.49-2.65.74-4.43.74h-7.65ZM226.47,998.83h4.04c1.39,0,2.46-.32,3.2-.96.74-.64,1.1-1.5,1.1-2.59,0-.73-.17-1.34-.5-1.83-.33-.49-.82-.85-1.46-1.1-.64-.24-1.42-.36-2.34-.36h-4.04v6.83ZM226.47,1008.89h4.71c.91,0,1.76-.12,2.53-.35.77-.23,1.39-.64,1.85-1.22.46-.58.69-1.39.69-2.42,0-1.25-.45-2.17-1.35-2.79s-2.14-.92-3.72-.92h-4.71v7.7Z"/>
    <path d="M242.04,1017.07v-2.22h1.32c.61,0,1.13-.16,1.55-.49.42-.33.79-.87,1.09-1.64l.61-1.42-6.27-15.69h2.85l4.85,12.84,4.48-12.84h2.74l-5.9,15.69-.74,1.9c-.37.93-.75,1.69-1.17,2.26-.41.57-.92.98-1.52,1.23-.6.25-1.37.38-2.3.38h-1.6Z"/>
  </g>
  <path d="M131.29,1045.57c1.18,0,2.28-.24,3.38-.71,1.02-.47,1.96-1.26,2.67-2.2l3.22,3.3c-2.51,2.83-5.42,4.24-8.87,4.24-1.57.08-3.06-.16-4.56-.79-1.41-.55-2.75-1.41-3.93-2.43-1.1-1.02-1.96-2.36-2.51-3.69-.55-1.41-.86-2.91-.79-4.4-.08-1.49.24-3.06.79-4.48s1.41-2.67,2.51-3.77c1.18-1.1,2.59-1.96,4.08-2.51,1.49-.55,3.14-.79,4.79-.71s3.22.47,4.71,1.18,2.75,1.73,3.85,2.98l-3.06,3.53c-.71-.94-1.57-1.65-2.59-2.12s-2.12-.79-3.3-.79c-1.73,0-3.46.63-4.79,1.81-.71.63-1.18,1.41-1.57,2.28-.31.86-.47,1.81-.47,2.67-.08.94.08,1.81.39,2.67s.79,1.65,1.49,2.28c1.26,1.02,2.91,1.65,4.56,1.65ZM144.33,1049.89v-22.15h4.95v17.75h9.5v4.4s-14.45,0-14.45,0ZM180.45,1046.82c-2.28,2.12-5.18,3.3-8.32,3.3s-6.05-1.18-8.32-3.3c-1.1-1.02-1.96-2.28-2.51-3.69s-.86-2.91-.86-4.4c-.08-1.49.24-3.06.79-4.4.55-1.41,1.41-2.67,2.51-3.69,2.28-2.12,5.18-3.3,8.32-3.3s6.05,1.18,8.32,3.3c1.1,1.02,1.96,2.28,2.51,3.69s.86,2.91.79,4.4c.08,1.49-.24,3.06-.79,4.4-.47,1.41-1.34,2.67-2.43,3.69h0ZM178.73,1038.74c0-1.88-.71-3.69-1.96-5.1-.63-.63-1.34-1.18-2.12-1.57s-1.73-.55-2.59-.55-1.73.16-2.59.55c-.79.39-1.57.86-2.12,1.57-1.26,1.41-1.96,3.22-1.96,5.1s.71,3.69,1.96,5.1c.63.63,1.34,1.18,2.12,1.57s1.73.55,2.59.55,1.73-.16,2.59-.55c.79-.39,1.57-.86,2.12-1.57.63-.71,1.18-1.49,1.49-2.36.39-.94.55-1.81.47-2.75ZM193.88,1044.23c.39.55.94.94,1.49,1.18s1.26.39,1.88.39,1.26-.08,1.81-.39c.55-.24,1.1-.71,1.41-1.18.86-1.26,1.26-2.67,1.18-4.16v-12.25h4.95v12.41c0,3.22-.86,5.65-2.67,7.38-.94.86-1.96,1.57-3.14,1.96-1.18.47-2.43.63-3.69.63s-2.51-.16-3.69-.63-2.28-1.1-3.14-1.96c-1.81-1.73-2.67-4.16-2.67-7.38v-12.41h4.95v12.25c0,1.49.47,2.98,1.34,4.16h0ZM228.83,1030.65c2.12,1.96,3.22,4.63,3.22,8.09s-1.02,6.2-3.06,8.25c-2.04,2.04-5.26,2.98-9.42,2.98h-7.7v-22.23h7.85c3.93,0,6.99.94,9.11,2.91h0ZM225.22,1043.84c1.18-1.1,1.81-2.83,1.81-5.03s-.63-3.85-1.81-5.03-3.06-1.81-5.58-1.81h-2.75v13.51h3.14c1.88.16,3.77-.39,5.18-1.65ZM260.25,1027.74h4.95v22.23h-4.95l-10.6-13.9v13.9h-4.95v-22.23h4.63l10.92,14.29s0-14.29,0-14.29ZM286.48,1049.89l-2.12-4.79h-9.35l-2.12,4.79h-5.34l9.58-22.23h4.79l9.66,22.23h-5.1ZM279.8,1034.34l-2.75,6.44h5.5s-2.75-6.44-2.75-6.44ZM302.19,1032.06v17.91h-4.95v-17.91h-6.28v-4.24h17.59v4.24h-6.36ZM312,1027.74h4.95v22.23h-4.95s0-22.23,0-22.23ZM330.69,1041.88l5.65-14.14h5.42l-8.87,22.23h-4.16l-8.87-22.23h5.42l5.42,14.14ZM360.3,1027.74v4.4h-11.07v4.56h9.97v4.24h-9.97v4.63h11.47v4.4h-16.34v-22.15l15.94-.08c0,.08,0,0,0,0ZM125.56,1068.81c.63,0,1.26-.16,1.88-.39.55-.31,1.1-.71,1.49-1.26l1.81,1.88c-.63.71-1.34,1.34-2.28,1.73-.86.39-1.81.63-2.75.63-.86,0-1.73-.08-2.51-.39s-1.57-.79-2.2-1.41c-.63-.55-1.1-1.26-1.41-2.04s-.47-1.65-.47-2.51.16-1.73.47-2.51.79-1.49,1.41-2.12,1.34-1.1,2.12-1.41c.79-.31,1.65-.47,2.51-.47.94,0,1.96.16,2.83.55s1.65,1.02,2.36,1.73l-1.73,1.96c-.39-.55-.86-.94-1.41-1.26-.55-.31-1.18-.39-1.88-.39-1.02,0-1.96.39-2.67,1.02-.39.31-.71.79-.86,1.26s-.31,1.02-.24,1.49c0,.47.08,1.02.24,1.49.16.47.47.94.79,1.26.31.31.71.63,1.18.79s.86.39,1.34.39ZM143.07,1069.52c-1.26,1.18-2.91,1.88-4.63,1.88-.86,0-1.73-.16-2.51-.47s-1.49-.79-2.12-1.41c-1.18-1.18-1.88-2.83-1.88-4.56s.71-3.38,1.88-4.56c1.26-1.18,2.91-1.88,4.63-1.88.86,0,1.73.16,2.51.47s1.49.79,2.12,1.41c1.18,1.18,1.88,2.83,1.88,4.56s-.71,3.38-1.88,4.56ZM142.21,1064.97c0-1.02-.31-2.04-1.02-2.83-.31-.39-.71-.63-1.18-.86s-.94-.31-1.41-.31-1.02.08-1.41.31c-.47.24-.86.55-1.18.94-.39.39-.63.79-.79,1.34-.16.47-.24,1.02-.24,1.49,0,1.02.39,2.04,1.02,2.83.31.39.71.63,1.18.86s.94.31,1.41.31,1.02-.08,1.41-.31c.47-.24.86-.55,1.18-.94.63-.71,1.02-1.73,1.02-2.83ZM158.46,1063.4l-3.38,6.83h-1.65l-3.38-6.83v7.85h-2.75v-12.41h3.77l3.22,6.83,3.22-6.83h3.77v12.49h-2.75s-.08-7.93-.08-7.93ZM172.91,1060.02c.47.39.86.94,1.1,1.57.24.63.31,1.26.24,1.88,0,1.57-.47,2.67-1.34,3.38-.86.79-2.28,1.02-4.08,1.02h-1.65v3.46h-2.83v-12.49h4.4c1.88,0,3.22.39,4.16,1.18h0ZM170.87,1064.89c.39-.47.55-1.02.55-1.65,0-.31,0-.55-.16-.86-.16-.24-.31-.47-.55-.63-.63-.31-1.34-.47-2.04-.47h-1.57v4.16h1.88c.31,0,.71,0,1.02-.08.31-.16.63-.31.86-.47ZM179.75,1068.03c.24.31.47.47.86.63.31.16.71.24,1.02.24.39,0,.71-.08,1.02-.24.31-.16.63-.39.86-.63.47-.71.71-1.57.71-2.36v-6.91h2.75v6.91c.08.79-.08,1.49-.31,2.28-.24.71-.63,1.41-1.18,1.96-1.02.94-2.43,1.41-3.85,1.41s-2.75-.55-3.77-1.49c-.55-.55-.94-1.26-1.18-1.96s-.39-1.49-.31-2.28v-6.91h2.75v6.91c-.16.86.08,1.73.63,2.43h0ZM195.06,1061.28v9.97h-2.75v-9.97h-3.53v-2.36h9.9v2.36h-3.61ZM200.64,1058.84h2.75v12.49h-2.75s0-12.49,0-12.49ZM215.17,1058.84h2.75v12.49h-2.75l-5.89-7.78v7.78h-2.75v-12.49h2.59l6.13,8.01-.08-8.01c.08,0,0,0,0,0ZM229.15,1064.97h2.75v4.4c-.63.71-1.49,1.26-2.36,1.57-.86.39-1.88.55-2.83.47-1.73,0-3.38-.63-4.63-1.81-.63-.55-1.1-1.26-1.41-2.04-.31-.79-.47-1.65-.47-2.51s.16-1.73.47-2.51c.31-.79.79-1.49,1.41-2.12s1.34-1.1,2.12-1.41c.79-.31,1.65-.47,2.51-.47,1.73,0,3.38.63,4.63,1.81l-1.41,2.12c-.39-.47-.94-.79-1.57-.94-.47-.16-1.02-.31-1.49-.31-1.02,0-1.96.39-2.67,1.02-.39.39-.71.79-.86,1.34s-.31,1.02-.24,1.57c0,1.02.31,2.04,1.02,2.83.31.31.71.63,1.1.79s.86.24,1.34.24c.86.08,1.65-.16,2.36-.55v-3.53h.24v.08ZM247.6,1058.84v2.43h-5.73v2.67h5.42v2.51h-5.42v4.87h-2.75v-12.49s8.48,0,8.48,0ZM260.48,1069.52c-1.26,1.18-2.91,1.88-4.63,1.88-.86,0-1.73-.16-2.51-.47s-1.49-.79-2.12-1.41c-1.18-1.18-1.88-2.83-1.88-4.56s.71-3.38,1.88-4.56c1.26-1.18,2.91-1.88,4.63-1.88.86,0,1.73.16,2.51.47s1.49.79,2.12,1.41c1.18,1.18,1.88,2.83,1.88,4.56s-.71,3.38-1.88,4.56h0ZM259.46,1064.97c0-1.02-.31-2.04-1.02-2.83-.31-.39-.71-.63-1.18-.86s-.94-.31-1.41-.31-1.02.08-1.41.31c-.47.24-.86.55-1.18.94-.39.39-.63.79-.79,1.34s-.24,1.02-.24,1.49c0,1.02.39,2.04,1.02,2.83.31.39.71.63,1.18.86.47.24.94.31,1.41.31s1.02-.08,1.41-.31c.47-.24.86-.55,1.18-.94.39-.39.63-.79.79-1.34s.31-.94.24-1.49ZM268.02,1068.03c.24.31.47.47.86.63.31.16.71.24,1.02.24s.71-.08,1.02-.24.63-.39.86-.63c.47-.71.71-1.57.71-2.36v-6.91h2.75v6.91c.08.79-.08,1.49-.31,2.28-.24.71-.63,1.41-1.18,1.96-1.02.94-2.43,1.41-3.85,1.41s-2.75-.55-3.77-1.49c-.55-.55-.94-1.26-1.18-1.96s-.39-1.49-.31-2.28v-6.91h2.75v6.91c-.16.86.08,1.81.63,2.43ZM286.79,1058.84h2.75v12.49h-2.75l-5.89-7.78v7.78h-2.75v-12.49h2.59l6.13,8.01-.08-8.01c.08,0,0,0,0,0h0ZM302.11,1060.49c.63.55,1.1,1.34,1.41,2.12s.47,1.65.39,2.43c.08.86-.08,1.65-.39,2.43s-.79,1.49-1.34,2.12c-1.1,1.1-2.91,1.73-5.34,1.73h-4.24v-12.49h4.4c2.28,0,4.01.55,5.1,1.65ZM300.07,1067.95c.31-.39.63-.79.79-1.26s.24-1.02.24-1.49c0-.55-.08-1.02-.24-1.49s-.47-.94-.79-1.34c-.47-.39-.94-.63-1.49-.79s-1.1-.24-1.65-.16h-1.57v7.54h1.81c1.02-.08,2.12-.39,2.91-1.02ZM314.83,1071.25l-1.1-2.67h-5.26l-1.1,2.67h-2.98l5.42-12.49h2.67l5.42,12.49h-3.06ZM311.06,1062.53l-1.57,3.61h3.14l-1.57-3.61ZM323.63,1061.28v9.97h-2.75v-9.97h-3.61v-2.36h9.9v2.36h-3.53ZM329.12,1058.84h2.75v12.49h-2.75s0-12.49,0-12.49ZM345.46,1069.52c-1.26,1.18-2.91,1.88-4.63,1.88-.86,0-1.73-.16-2.51-.47s-1.49-.79-2.12-1.41c-1.18-1.18-1.88-2.83-1.88-4.56s.71-3.38,1.88-4.56c1.26-1.18,2.91-1.88,4.63-1.88.86,0,1.73.16,2.51.47.79.31,1.49.79,2.12,1.41,1.18,1.18,1.88,2.83,1.88,4.56s-.71,3.38-1.88,4.56ZM344.6,1064.97c0-1.02-.39-2.04-1.02-2.83-.31-.39-.71-.63-1.18-.86s-.94-.31-1.41-.31-1.02.08-1.41.31c-.47.24-.86.55-1.18.94-.39.39-.63.79-.79,1.34s-.24,1.02-.24,1.49c0,1.02.39,2.04,1.02,2.83.31.39.71.63,1.18.86s.94.31,1.41.31,1.02-.08,1.41-.31c.47-.24.86-.55,1.18-.94.63-.71,1.02-1.73,1.02-2.83ZM358.42,1058.84h2.75v12.49h-2.75l-5.89-7.78v7.78h-2.83v-12.49h2.59l6.13,8.01c.08,0,0-8.01,0-8.01Z"/>
  <path d="M66.34,1056.48h-6.83v15.94h15.94v-6.83h-9.11v-9.11ZM100.58,1056.56v9.03h-9.11v6.83h15.94v-15.94l-6.83.08ZM59.51,1040.62h6.91l-.08-.08v-9.03h9.11v-6.83h-15.94v15.94ZM91.47,1024.68v6.83h9.11v9.11h6.83v-15.94h-15.94Z" fill="#0086ff"/>
  <path d="M90.53,1040.62l-9.11-9.11h9.97v-6.83h-15.94v6.83l9.11,9.11h5.97ZM82.36,1056.48h-5.97l7.54,7.54,1.49,1.57h-9.97v6.83h16.02v-6.91l-4.56-4.48-4.56-4.56ZM100.58,1040.62v9.9l-1.57-1.57-7.54-7.54v6.05l4.48,4.48,4.56,4.56h6.91v-15.86s-6.83,0-6.83,0ZM75.45,1049.65l-9.03-9.03h-6.91v15.86h6.83v-9.9l9.11,9.11s0-6.05,0-6.05Z" fill="#93eaff"/>
  <path d="M441.47,1027.99h7.57v.78h-3.32v8.77h-.9v-8.79h-3.32l-.02-.76h0ZM449.95,1027.99h.9v4.15h5.67v-4.15h.9v9.55h-.9v-4.64h-5.67v4.62h-.9v-9.53ZM459.35,1027.99h6.59v.78h-5.69v3.44h5.32v.78h-5.32v3.76h5.74v.78h-6.67l.02-9.55h0Z" fill="#003778"/>
  <path d="M441.47,1061.4h6.06v.78h-5.13v3.44h4.57v.78h-4.57v4.54h-.9v-9.55h-.02ZM452.83,1061.33c2.88,0,4.35,2.27,4.35,4.81s-1.44,4.81-4.35,4.81-4.35-2.27-4.35-4.81,1.44-4.81,4.35-4.81ZM452.83,1070.2c2.42,0,3.47-2.05,3.47-4.05s-1.03-4.05-3.47-4.05-3.47,2.05-3.47,4.05c-.02,2.03,1.03,4.05,3.47,4.05ZM458.62,1061.38h.9v5.79c0,2.17,1,3,2.74,3s2.76-.83,2.76-3v-5.79h.9v6.01c0,1.93-1.03,3.57-3.64,3.57s-3.64-1.64-3.64-3.57v-6.01h-.02ZM467.73,1061.4h1.03l5.57,8.08h.02v-8.08h.9v9.55h-1.03l-5.57-8.08h-.02v8.08h-.9v-9.55ZM477.18,1061.4h3.3c2.88.07,4.4,1.61,4.4,4.79s-1.49,4.71-4.4,4.79h-3.3v-9.57h0ZM478.08,1070.17h1.93c2.74,0,3.93-1.15,3.93-4.01s-1.2-4.01-3.93-4.01h-1.93v8.01h0ZM489.13,1061.4h1.03l3.74,9.55h-.98l-1.17-2.98h-4.35l-1.15,2.98h-.98l3.86-9.55ZM487.68,1067.19h3.76l-1.86-4.88-1.91,4.88ZM492.84,1061.4h7.57v.78h-3.32v8.77h-.9v-8.77h-3.32l-.02-.78h0ZM501.36,1061.4h.9v9.55h-.9v-9.55ZM508.08,1061.4c2.88,0,4.32,2.25,4.32,4.76s-1.44,4.76-4.32,4.76-4.32-2.25-4.32-4.76,1.44-4.76,4.32-4.76ZM508.08,1070.2c2.42,0,3.44-2.03,3.44-4.03s-1.03-4.03-3.44-4.03-3.44,2.03-3.44,4.03,1.03,4.03,3.44,4.03ZM514.16,1061.4h1.03l5.57,8.08h.02v-8.08h.9v9.55h-1.03l-5.57-8.08h-.02v8.08h-.9v-9.55Z" fill="#003778"/>
  <path d="M441.47,1040.37h5.25v12.7h7.55v4.37h-12.82l.02-17.07h0ZM457.74,1040.37h5.25v17.07h-5.25v-17.07ZM466.92,1040.37h5.37l4.98,9.13h.05v-9.13h4.98v17.07h-5.13l-5.23-9.33h-.05v9.33h-4.98v-17.07ZM501.36,1050.58c0,4.64-2.44,6.84-7.57,6.84s-7.6-2.2-7.6-6.84v-10.21h5.13v9.06c0,1.69-.02,3.83,2.49,3.83s2.42-2.15,2.42-3.83v-9.06h5.13v10.21ZM510.11,1048.36l-5.62-7.99h6.18l2.59,4.64,2.54-4.64h5.84l-5.47,8.04,6.11,9.04h-6.33l-2.91-5.1-3,5.1h-6.03l6.11-9.09h0Z" fill="#003778"/>
  <path d="M399.73,1062.26v-17.22h-8.62v25.82h25.84v-8.6h-17.22Z" fill="#0094ff"/>
  <path d="M434.14,1027.82h-43.04v12.92h8.62v-4.27h25.82v25.79h-4.3v8.6h12.9v-43.04Z" fill="#003778"/>
  <path d="M533.07,1027.89h.68v42.96h-.68v-42.96Z" fill="#003778"/>
  <path d="M555.68,1041.69v1.27h-9.33v5.67h8.74v1.27h-8.74v6.2h9.45v1.27h-10.94v-15.68h10.82ZM565.55,1057.4v-2.05h-.05c-.37.76-.9,1.34-1.59,1.76-.71.39-1.47.61-2.32.61-.71,0-1.32-.1-1.83-.29-.51-.2-.93-.49-1.22-.85-.32-.37-.54-.81-.68-1.34s-.22-1.12-.22-1.81v-7.35h1.39v7.38c.02,1.03.27,1.81.71,2.32.44.54,1.22.78,2.32.78.61,0,1.12-.12,1.54-.39.42-.24.78-.59,1.05-1.03.27-.42.49-.9.61-1.47s.2-1.1.2-1.69v-5.91h1.39v11.33s-1.29,0-1.29,0ZM570.7,1046.06v2.66h.05c.34-.93.9-1.64,1.64-2.12s1.61-.73,2.64-.68v1.39c-.64-.02-1.2.05-1.71.24s-.95.49-1.32.85-.66.81-.88,1.32c-.2.51-.32,1.05-.32,1.66v6.06h-1.39v-11.38s1.29,0,1.29,0ZM583.06,1046.21c.66.32,1.22.76,1.69,1.29.46.54.81,1.17,1.03,1.91.24.73.34,1.49.34,2.32s-.12,1.59-.34,2.32c-.24.73-.59,1.37-1.03,1.91-.46.54-1.03.98-1.69,1.29s-1.44.46-2.3.46-1.64-.15-2.3-.46-1.22-.73-1.69-1.29c-.46-.54-.81-1.17-1.03-1.91-.24-.73-.34-1.49-.34-2.32s.12-1.59.34-2.32c.24-.73.59-1.37,1.03-1.91.46-.54,1.03-.98,1.69-1.29s1.44-.49,2.3-.49,1.61.17,2.3.49ZM579.01,1047.31c-.49.27-.9.64-1.25,1.1-.34.46-.59.98-.76,1.54-.17.59-.24,1.17-.24,1.76s.07,1.2.24,1.76c.17.59.42,1.1.76,1.54.32.46.73.83,1.25,1.1.49.27,1.07.42,1.73.42s1.25-.15,1.73-.42.9-.64,1.25-1.1c.34-.46.59-.98.76-1.54.17-.59.24-1.17.24-1.76s-.07-1.2-.24-1.76c-.17-.59-.42-1.1-.76-1.54-.32-.46-.73-.83-1.25-1.1-.49-.27-1.07-.42-1.73-.42s-1.22.15-1.73.42ZM589.46,1046.06v2.15h.05c.32-.78.85-1.39,1.56-1.83.73-.44,1.54-.66,2.47-.66.85,0,1.61.17,2.25.49.64.32,1.17.76,1.59,1.32.42.54.73,1.2.95,1.91.2.73.32,1.49.32,2.3s-.1,1.56-.32,2.3c-.2.73-.51,1.37-.95,1.91-.42.54-.95.98-1.59,1.29s-1.39.46-2.25.46c-.42,0-.83-.05-1.22-.15-.42-.1-.78-.24-1.15-.46-.34-.2-.66-.46-.93-.78-.27-.32-.49-.66-.64-1.07h-.05v6.33h-1.39v-15.49s1.29,0,1.29,0ZM597.06,1049.97c-.15-.59-.37-1.1-.66-1.54-.29-.46-.68-.83-1.15-1.1-.46-.29-1.03-.44-1.69-.44-.76,0-1.39.12-1.91.39s-.93.61-1.22,1.05c-.32.44-.51.95-.66,1.54-.12.59-.2,1.2-.2,1.86,0,.59.07,1.17.22,1.76.15.59.37,1.1.68,1.54.32.46.73.83,1.22,1.1s1.12.44,1.86.44c.66,0,1.22-.15,1.69-.44.46-.29.85-.66,1.15-1.1.29-.46.51-.98.66-1.54.15-.59.22-1.17.22-1.76-.02-.59-.07-1.17-.22-1.76ZM601.82,1053.66c.15.54.37,1.03.66,1.44.32.42.68.78,1.17,1.05.46.27,1.03.42,1.69.42,1,0,1.81-.27,2.37-.78.56-.54.98-1.22,1.2-2.1h1.39c-.29,1.29-.83,2.3-1.61,2.98-.78.71-1.91,1.05-3.32,1.05-.9,0-1.66-.15-2.32-.46s-1.17-.76-1.59-1.29c-.42-.54-.71-1.2-.9-1.91-.2-.73-.29-1.49-.29-2.3,0-.76.1-1.49.29-2.2s.51-1.37.9-1.93c.42-.56.95-1.03,1.59-1.37.66-.34,1.42-.51,2.32-.51s1.69.2,2.32.54c.64.37,1.17.85,1.56,1.44.39.59.68,1.27.88,2.05.17.76.24,1.54.22,2.34h-8.72c0,.49.05,1,.2,1.54h0ZM608.69,1049.41c-.17-.49-.42-.9-.71-1.29-.32-.37-.68-.68-1.12-.9-.44-.22-.93-.34-1.49-.34s-1.07.12-1.51.34-.81.54-1.12.9-.56.81-.73,1.29c-.2.49-.29,1-.37,1.51h7.35c-.02-.51-.12-1.03-.29-1.51h0Z" fill="#0094ff"/>
  <g>
    <path d="M288.01,750.64v-3.55l10.58-9.64c1.51-1.39,2.62-2.69,3.33-3.89.71-1.2,1.07-2.45,1.07-3.75s-.34-2.46-1.03-3.33c-.69-.88-1.83-1.31-3.44-1.31-1.83,0-3.13.51-3.92,1.53-.79,1.02-1.18,2.31-1.18,3.89h-4.72c0-2.01.37-3.73,1.11-5.18s1.84-2.56,3.3-3.35,3.26-1.18,5.4-1.18c1.96,0,3.65.35,5.06,1.06,1.42.7,2.5,1.7,3.26,2.99.76,1.29,1.13,2.82,1.13,4.6,0,1.56-.29,2.95-.87,4.19s-1.36,2.39-2.34,3.47-2.08,2.16-3.29,3.23l-6.76,6.04h14.06v4.18h-20.78Z"/>
    <path d="M323.17,751.02c-3.28,0-5.86-.79-7.75-2.37s-2.83-3.92-2.83-7.02h4.74c0,1.65.51,2.95,1.53,3.91,1.02.96,2.45,1.44,4.29,1.44,1.69,0,3-.4,3.92-1.2s1.38-2.06,1.38-3.79-.54-2.85-1.62-3.62-2.51-1.15-4.29-1.15h-1.77v-3.95h1.91c1.6,0,2.86-.4,3.76-1.21s1.36-1.89,1.36-3.23-.42-2.28-1.27-2.92c-.85-.64-1.99-.97-3.42-.97-1.59,0-2.82.42-3.7,1.26-.88.84-1.31,1.95-1.31,3.35h-4.72c0-1.89.42-3.47,1.26-4.76.84-1.29,1.99-2.26,3.45-2.93s3.13-1,5-1c1.72,0,3.3.28,4.73.83,1.43.55,2.58,1.4,3.45,2.53.87,1.13,1.3,2.56,1.3,4.28s-.47,3.22-1.42,4.3-2.2,1.85-3.77,2.3c1.75.33,3.2,1.09,4.35,2.28s1.72,2.83,1.72,4.91c0,1.89-.42,3.48-1.27,4.78s-2.04,2.29-3.57,2.95-3.34,1-5.42,1Z"/>
    <path d="M348.43,750.64v-30.23h5.82l10.13,16.96h-2.07l9.95-16.96h5.64v30.23h-5.1v-26.86h2.07l-10.06,17.27h-3.26l-10.29-17.27h2.13v26.86h-4.96Z"/>
    <path d="M381.79,750.64l11.12-30.23h5.44l11.03,30.23h-5.37l-2.52-7.55h-11.72l-2.63,7.55h-5.35ZM391.07,738.76h9.07l-4.54-13.23-4.54,13.23Z"/>
    <path d="M413.3,750.64v-30.23h11.93c1.84,0,3.5.28,4.99.83,1.48.55,2.66,1.43,3.54,2.63.88,1.2,1.31,2.77,1.31,4.72s-.52,3.55-1.57,4.9c-1.05,1.35-2.61,2.28-4.69,2.79,1.21.2,2.19.58,2.94,1.15.75.57,1.36,1.34,1.83,2.31.47.97.89,2.17,1.27,3.59l2,7.32h-5.37l-1.57-6.4c-.3-1.27-.65-2.34-1.06-3.2s-.94-1.51-1.62-1.94c-.67-.43-1.59-.65-2.74-.65h-6.02v12.2h-5.17ZM418.47,734.18h5.97c1.05,0,1.97-.19,2.77-.56.8-.37,1.43-.92,1.9-1.63.46-.71.7-1.57.7-2.57,0-1.51-.45-2.67-1.36-3.48s-2.16-1.21-3.76-1.21h-6.22v9.46Z"/>
    <path d="M454.25,751.05c-3.1,0-5.74-.65-7.91-1.94-2.17-1.29-3.83-3.1-4.96-5.42-1.14-2.32-1.71-5.03-1.71-8.13s.57-5.81,1.71-8.14c1.14-2.33,2.79-4.14,4.96-5.45,2.17-1.3,4.81-1.95,7.91-1.95,2.2,0,4.26.38,6.18,1.15s3.49,1.91,4.72,3.45,1.92,3.46,2.09,5.76h-5.26c-.17-1.38-.61-2.51-1.35-3.4s-1.65-1.56-2.76-2-2.31-.66-3.62-.66c-2.2,0-3.98.51-5.35,1.54-1.36,1.03-2.35,2.39-2.96,4.09-.61,1.7-.92,3.58-.92,5.63s.31,3.91.92,5.6c.61,1.7,1.6,3.06,2.96,4.08,1.36,1.02,3.14,1.53,5.35,1.53s4.08-.57,5.45-1.72c1.37-1.15,2.15-2.81,2.35-5h5.28c-.21,2.41-.88,4.44-2.02,6.08s-2.65,2.87-4.54,3.69c-1.89.82-4.06,1.24-6.51,1.24Z"/>
    <path d="M473.3,750.64v-30.23h5.17v12.26h15.12v-12.26h5.17v30.23h-5.17v-13.43h-15.12v13.43h-5.17Z"/>
    <path d="M513.75,750.64v-3.55l10.58-9.64c1.51-1.39,2.62-2.69,3.34-3.89.71-1.2,1.07-2.45,1.07-3.75s-.34-2.46-1.03-3.33-1.83-1.31-3.44-1.31c-1.83,0-3.13.51-3.92,1.53-.79,1.02-1.18,2.31-1.18,3.89h-4.72c0-2.01.37-3.73,1.11-5.18.74-1.45,1.84-2.56,3.3-3.35,1.46-.79,3.26-1.18,5.4-1.18,1.96,0,3.65.35,5.07,1.06,1.41.7,2.5,1.7,3.26,2.99.76,1.29,1.13,2.82,1.13,4.6,0,1.56-.29,2.95-.87,4.19-.58,1.24-1.35,2.39-2.34,3.47-.98,1.08-2.08,2.16-3.29,3.23l-6.76,6.04h14.06v4.18h-20.78Z"/>
    <path d="M548.74,751.05c-1.81,0-3.37-.36-4.67-1.07s-2.37-1.73-3.2-3.05c-.83-1.33-1.45-2.91-1.84-4.76-.4-1.85-.6-3.9-.6-6.17s.2-4.34.6-6.2c.4-1.86,1.01-3.45,1.84-4.78.83-1.33,1.9-2.36,3.2-3.08s2.86-1.08,4.67-1.08,3.35.36,4.65,1.08,2.37,1.75,3.2,3.08c.83,1.33,1.45,2.92,1.85,4.77s.61,3.91.61,6.19-.2,4.34-.61,6.19-1.02,3.44-1.85,4.76c-.83,1.33-1.9,2.34-3.2,3.05s-2.85,1.07-4.65,1.07ZM548.74,746.82c1.03,0,1.89-.3,2.56-.9.67-.6,1.19-1.41,1.56-2.43.37-1.02.63-2.17.79-3.47.16-1.29.24-2.65.24-4.05s-.08-2.76-.24-4.07c-.16-1.3-.42-2.47-.79-3.49-.37-1.03-.89-1.83-1.56-2.43s-1.53-.89-2.56-.89-1.91.3-2.57.89c-.67.59-1.19,1.4-1.57,2.43-.38,1.03-.65,2.19-.8,3.49s-.22,2.66-.22,4.07.08,2.76.22,4.05.42,2.45.8,3.47c.38,1.02.91,1.83,1.57,2.43.67.6,1.52.9,2.57.9Z"/>
    <path d="M562.89,750.64v-3.55l10.58-9.64c1.51-1.39,2.62-2.69,3.34-3.89.71-1.2,1.07-2.45,1.07-3.75s-.34-2.46-1.03-3.33-1.83-1.31-3.44-1.31c-1.83,0-3.13.51-3.92,1.53-.79,1.02-1.18,2.31-1.18,3.89h-4.72c0-2.01.37-3.73,1.11-5.18.74-1.45,1.84-2.56,3.3-3.35,1.46-.79,3.26-1.18,5.4-1.18,1.96,0,3.65.35,5.07,1.06,1.41.7,2.5,1.7,3.26,2.99.76,1.29,1.13,2.82,1.13,4.6,0,1.56-.29,2.95-.87,4.19-.58,1.24-1.35,2.39-2.34,3.47-.98,1.08-2.08,2.16-3.29,3.23l-6.76,6.04h14.06v4.18h-20.78Z"/>
    <path d="M598.54,751.05c-2.13,0-4.03-.5-5.71-1.5-1.68-1-3-2.6-3.95-4.79s-1.44-5.06-1.44-8.59.47-6.38,1.42-8.62,2.25-3.92,3.92-5.01c1.67-1.09,3.6-1.64,5.78-1.64,2.56,0,4.66.66,6.3,1.99,1.64,1.33,2.68,3.27,3.11,5.83h-4.76c-.27-1.26-.8-2.2-1.59-2.82s-1.81-.93-3.05-.93c-1.95,0-3.46.91-4.54,2.72-1.08,1.81-1.62,4.64-1.62,8.49v1.33c0,2.35.29,4.22.88,5.62s1.34,2.39,2.28,3c.94.61,1.94.91,3,.91,1.68,0,2.92-.54,3.74-1.61.82-1.07,1.22-2.41,1.22-4.01s-.4-2.86-1.2-3.76c-.8-.91-1.93-1.36-3.38-1.36-1.78,0-3.34.43-4.68,1.28-1.34.85-2.36,1.88-3.07,3.08l-.4-3.57c.66-.88,1.42-1.69,2.27-2.43.85-.73,1.83-1.32,2.94-1.75,1.11-.43,2.37-.65,3.77-.65,1.66,0,3.15.34,4.47,1.03,1.32.69,2.36,1.71,3.12,3.05s1.15,3,1.15,4.96-.39,3.61-1.16,5.08c-.77,1.47-1.9,2.62-3.38,3.45s-3.29,1.25-5.44,1.25Z"/>
    <path d="M103.26,802.64l11.12-30.23h5.44l11.03,30.23h-5.37l-2.52-7.55h-11.72l-2.63,7.55h-5.35ZM112.54,790.76h9.07l-4.54-13.23-4.54,13.23Z"/>
    <path d="M134.77,802.64v-30.23h5.82l10.13,16.96h-2.07l9.95-16.96h5.64v30.23h-5.1v-26.86h2.07l-10.06,17.27h-3.26l-10.29-17.27h2.13v26.86h-4.96Z"/>
    <path d="M181.58,803.05c-2.23,0-4.24-.33-6.03-.99-1.79-.66-3.21-1.69-4.26-3.1s-1.57-3.25-1.57-5.53h5.26c.03,1.38.34,2.46.94,3.26s1.4,1.36,2.42,1.68,2.13.49,3.36.49,2.22-.16,3.16-.47c.94-.31,1.68-.8,2.22-1.46.55-.66.82-1.49.82-2.49,0-.93-.22-1.69-.67-2.29s-1.21-1.13-2.27-1.58c-1.06-.46-2.52-.94-4.38-1.45-2.17-.58-4.01-1.24-5.5-1.95s-2.63-1.63-3.4-2.73c-.77-1.1-1.16-2.51-1.16-4.23,0-1.84.44-3.37,1.33-4.57.88-1.21,2.12-2.11,3.71-2.71s3.44-.9,5.57-.9,3.87.31,5.54.93c1.67.62,3.01,1.57,4.01,2.84s1.5,2.88,1.5,4.81h-5.26c.01-1.5-.54-2.62-1.67-3.38-1.13-.76-2.5-1.13-4.12-1.13s-2.94.32-3.92.96c-.98.64-1.47,1.59-1.47,2.86,0,.73.21,1.37.63,1.9.42.53,1.17,1.02,2.25,1.47s2.6.95,4.56,1.5c2.31.64,4.19,1.33,5.66,2.07s2.55,1.67,3.26,2.82c.7,1.14,1.06,2.65,1.06,4.53,0,2.04-.51,3.71-1.53,5.01s-2.4,2.27-4.13,2.9-3.7.94-5.88.94Z"/>
    <path d="M202.72,802.64v-25.9h-8.33v-4.33h21.81v4.33h-8.29v25.9h-5.19Z"/>
    <path d="M220.4,802.64v-30.23h19.77v4.31h-14.6v8.33h13.34v4.18h-13.34v9.1h14.6v4.31h-19.77Z"/>
    <path d="M246.38,802.64v-30.23h11.93c1.84,0,3.5.28,4.99.83s2.66,1.43,3.54,2.63,1.31,2.77,1.31,4.72-.52,3.55-1.57,4.9-2.61,2.28-4.69,2.79c1.21.19,2.19.58,2.94,1.15s1.36,1.34,1.83,2.31.89,2.17,1.27,3.59l2,7.32h-5.37l-1.57-6.4c-.3-1.27-.65-2.34-1.06-3.2-.4-.86-.94-1.51-1.62-1.94s-1.59-.65-2.74-.65h-6.02v12.2h-5.17ZM251.55,786.18h5.97c1.05,0,1.97-.19,2.77-.56.8-.37,1.43-.92,1.9-1.63.46-.71.7-1.57.7-2.57,0-1.51-.45-2.67-1.36-3.48-.91-.81-2.16-1.21-3.76-1.21h-6.22v9.46Z"/>
    <path d="M274.89,802.64v-30.23h10.71c3.19,0,5.92.6,8.18,1.79,2.26,1.19,3.99,2.91,5.19,5.17,1.2,2.25,1.8,4.96,1.8,8.12s-.6,5.98-1.81,8.23c-1.21,2.25-2.94,3.97-5.2,5.16s-4.98,1.77-8.15,1.77h-10.71ZM280.05,798.31h4.74c2.41,0,4.4-.39,5.96-1.18,1.56-.79,2.74-1.98,3.51-3.58s1.17-3.63,1.17-6.09-.4-4.39-1.21-5.97-2-2.77-3.58-3.56c-1.58-.79-3.53-1.18-5.85-1.18h-4.74v21.56Z"/>
    <path d="M302.31,802.64l11.12-30.23h5.44l11.03,30.23h-5.37l-2.52-7.55h-11.72l-2.63,7.55h-5.35ZM311.59,790.76h9.07l-4.54-13.23-4.54,13.23Z"/>
    <path d="M333.82,802.64v-30.23h5.82l10.13,16.96h-2.07l9.95-16.96h5.64v30.23h-5.1v-26.86h2.07l-10.06,17.27h-3.26l-10.29-17.27h2.13v26.86h-4.96Z"/>
    <path d="M370.77,809.25l-.88-2.54c.97-.34,1.79-.86,2.44-1.54.65-.68,1.05-1.52,1.2-2.53l.29.27c-.99,0-1.8-.31-2.43-.94s-.94-1.4-.94-2.31c0-.96.31-1.74.94-2.34s1.44-.9,2.43-.9,1.79.34,2.4,1.03.92,1.72.92,3.1c0,1.65-.3,3.05-.9,4.21-.6,1.16-1.38,2.1-2.35,2.83-.97.73-2.01,1.28-3.13,1.65Z"/>
    <path d="M398.62,802.64v-25.9h-8.33v-4.33h21.81v4.33h-8.29v25.9h-5.19Z"/>
    <path d="M416.3,802.64v-30.23h5.17v12.26h15.12v-12.26h5.17v30.23h-5.17v-13.43h-15.12v13.43h-5.17Z"/>
    <path d="M449.34,802.64v-30.23h19.77v4.31h-14.6v8.33h13.34v4.18h-13.34v9.1h14.6v4.31h-19.77Z"/>
    <path d="M484.67,802.64v-30.23h5.14l15.25,22.21v-22.21h4.87v30.23h-5.14l-15.27-22.3v22.3h-4.85Z"/>
    <path d="M517.53,802.64v-30.23h19.77v4.31h-14.6v8.33h13.34v4.18h-13.34v9.1h14.6v4.31h-19.77Z"/>
    <path d="M548.35,802.64v-25.9h-8.33v-4.33h21.81v4.33h-8.29v25.9h-5.19Z"/>
    <path d="M566.02,802.64v-30.23h5.17v12.26h15.12v-12.26h5.17v30.23h-5.17v-13.43h-15.12v13.43h-5.17Z"/>
    <path d="M599.07,802.64v-30.23h19.77v4.31h-14.6v8.33h13.34v4.18h-13.34v9.1h14.6v4.31h-19.77Z"/>
    <path d="M625.05,802.64v-30.23h11.93c1.84,0,3.5.28,4.99.83s2.66,1.43,3.54,2.63c.88,1.2,1.31,2.77,1.31,4.72s-.52,3.55-1.57,4.9-2.61,2.28-4.69,2.79c1.21.19,2.19.58,2.94,1.15s1.36,1.34,1.83,2.31c.47.97.9,2.17,1.27,3.59l2,7.32h-5.37l-1.57-6.4c-.3-1.27-.65-2.34-1.06-3.2-.4-.86-.94-1.51-1.62-1.94s-1.59-.65-2.74-.65h-6.02v12.2h-5.17ZM630.22,786.18h5.97c1.05,0,1.97-.19,2.77-.56.8-.37,1.43-.92,1.9-1.63.46-.71.7-1.57.7-2.57,0-1.51-.45-2.67-1.36-3.48-.91-.81-2.16-1.21-3.76-1.21h-6.22v9.46Z"/>
    <path d="M653.56,802.64v-30.23h5.17v25.72h13.43v4.51h-18.6Z"/>
    <path d="M673.79,802.64l11.12-30.23h5.44l11.03,30.23h-5.37l-2.52-7.55h-11.72l-2.63,7.55h-5.35ZM683.07,790.76h9.07l-4.54-13.23-4.54,13.23Z"/>
    <path d="M705.31,802.64v-30.23h5.14l15.25,22.21v-22.21h4.87v30.23h-5.14l-15.27-22.3v22.3h-4.85Z"/>
    <path d="M738.17,802.64v-30.23h10.71c3.19,0,5.92.6,8.18,1.79,2.26,1.19,3.99,2.91,5.19,5.17,1.2,2.25,1.8,4.96,1.8,8.12s-.6,5.98-1.81,8.23c-1.21,2.25-2.94,3.97-5.2,5.16s-4.98,1.77-8.15,1.77h-10.71ZM743.33,798.31h4.74c2.41,0,4.4-.39,5.96-1.18,1.57-.79,2.74-1.98,3.52-3.58s1.17-3.63,1.17-6.09-.4-4.39-1.21-5.97-2-2.77-3.58-3.56c-1.58-.79-3.53-1.18-5.85-1.18h-4.74v21.56Z"/>
    <path d="M779.96,803.05c-2.23,0-4.24-.33-6.03-.99-1.79-.66-3.21-1.69-4.26-3.1s-1.57-3.25-1.57-5.53h5.26c.03,1.38.34,2.46.94,3.26s1.4,1.36,2.41,1.68c1.01.33,2.13.49,3.36.49s2.22-.16,3.16-.47c.94-.31,1.68-.8,2.22-1.46.55-.66.82-1.49.82-2.49,0-.93-.22-1.69-.67-2.29s-1.21-1.13-2.27-1.58c-1.06-.46-2.52-.94-4.38-1.45-2.17-.58-4.01-1.24-5.5-1.95s-2.63-1.63-3.4-2.73c-.77-1.1-1.16-2.51-1.16-4.23,0-1.84.44-3.37,1.33-4.57.88-1.21,2.12-2.11,3.71-2.71s3.44-.9,5.57-.9,3.87.31,5.54.93c1.67.62,3.01,1.57,4.01,2.84s1.5,2.88,1.5,4.81h-5.26c.01-1.5-.54-2.62-1.67-3.38-1.13-.76-2.5-1.13-4.12-1.13s-2.94.32-3.92.96c-.98.64-1.47,1.59-1.47,2.86,0,.73.21,1.37.63,1.9.42.53,1.17,1.02,2.25,1.47s2.6.95,4.56,1.5c2.31.64,4.19,1.33,5.66,2.07s2.55,1.67,3.26,2.82c.7,1.14,1.06,2.65,1.06,4.53,0,2.04-.51,3.71-1.53,5.01s-2.4,2.27-4.13,2.9-3.7.94-5.88.94Z"/>
  </g>
</svg>