<?xml version="1.0" encoding="UTF-8"?>
<svg id="Layer_1" data-name="Layer 1" xmlns="http://www.w3.org/2000/svg" xmlns:xlink="http://www.w3.org/1999/xlink" viewBox="0 0 764 400">
  <defs>
    <style>
      .cls-1, .cls-2, .cls-3 {
        fill-rule: evenodd;
      }

      .cls-1, .cls-4 {
        fill: #fff;
      }

      .cls-5 {
        fill: url(#linear-gradient-2);
      }

      .cls-6 {
        fill: #0f6bff;
      }

      .cls-7 {
        fill: none;
        stroke: #000;
        stroke-miterlimit: 10;
      }

      .cls-3 {
        fill: url(#linear-gradient);
      }

      .cls-8 {
        fill: #333;
      }
    </style>
    <linearGradient id="linear-gradient" x1="419.33" y1="-3394.16" x2="419.33" y2="-3451.64" gradientTransform="translate(.09 -3125.99) scale(1 -1)" gradientUnits="userSpaceOnUse">
      <stop offset="0" stop-color="#00b1eb"/>
      <stop offset=".21" stop-color="#009ad9"/>
      <stop offset=".52" stop-color="#007fc4"/>
      <stop offset=".79" stop-color="#006eb8"/>
      <stop offset="1" stop-color="#0069b4"/>
    </linearGradient>
    <linearGradient id="linear-gradient-2" x1="0" y1="397.63" x2="764" y2="397.63" gradientUnits="userSpaceOnUse">
      <stop offset="0" stop-color="#0f6bff"/>
      <stop offset="1" stop-color="#000025"/>
    </linearGradient>
  </defs>
  <rect class="cls-4" width="764" height="400"/>
  <g>
    <path d="M39.26,112.72v-23h4.7l10.58,15.5v-15.5h4.53v23h-4.72l-10.6-15.6v15.6h-4.49Z"/>
    <path d="M71.91,113.03c-1.86,0-3.42-.34-4.68-1.03-1.27-.69-2.22-1.68-2.87-2.98-.65-1.3-.97-2.86-.97-4.68s.32-3.29.95-4.56c.63-1.28,1.56-2.26,2.79-2.95,1.22-.69,2.73-1.03,4.52-1.03,2.48,0,4.45.73,5.89,2.18,1.44,1.45,2.16,3.52,2.16,6.21,0,.14,0,.32-.02.56-.01.23-.03.41-.05.54h-11.71c.02.79.17,1.52.44,2.2.27.68.69,1.23,1.27,1.65.58.42,1.34.62,2.29.62s1.77-.21,2.36-.64c.59-.43.89-1.06.91-1.91h4.46c-.06,1.3-.41,2.38-1.07,3.25-.66.87-1.55,1.51-2.68,1.94-1.13.43-2.46.64-3.97.64ZM67.96,102.4h7.23c-.03-1.16-.38-2.03-1.03-2.61-.66-.58-1.5-.86-2.52-.86s-1.91.3-2.57.89c-.67.59-1.03,1.45-1.1,2.58Z"/>
    <path d="M86.47,112.72l-5.25-16.68h4.6l3.21,11.77,3.21-11.77h4.75l3.28,11.76,3.16-11.76h4.29l-5.25,16.68h-4.63l-3.37-12-3.4,12h-4.62Z"/>
    <path d="M117.66,112.72v-23h9.47c1.48,0,2.8.21,3.96.62s2.08,1.09,2.76,2.02c.68.93,1.02,2.16,1.02,3.7,0,1.46-.39,2.7-1.17,3.71s-1.96,1.74-3.55,2.17c.97.15,1.74.44,2.32.88s1.05,1.03,1.41,1.77c.36.74.69,1.65.98,2.73l1.52,5.4h-5.03l-1.08-4.44c-.23-1-.49-1.82-.79-2.46-.3-.64-.7-1.11-1.21-1.43s-1.2-.47-2.09-.47h-3.74v8.8h-4.8ZM122.46,99.96h3.86c.75,0,1.4-.12,1.94-.36s.96-.6,1.26-1.08c.3-.48.45-1.06.45-1.76,0-1.01-.31-1.78-.92-2.29s-1.43-.77-2.44-.77h-4.14v6.25Z"/>
    <path d="M147.19,113.03c-1.86,0-3.42-.34-4.68-1.03-1.27-.69-2.22-1.68-2.87-2.98-.65-1.3-.97-2.86-.97-4.68s.32-3.29.95-4.56c.63-1.28,1.56-2.26,2.79-2.95,1.22-.69,2.73-1.03,4.52-1.03,2.48,0,4.45.73,5.89,2.18,1.44,1.45,2.16,3.52,2.16,6.21,0,.14,0,.32-.02.56-.01.23-.03.41-.05.54h-11.71c.02.79.17,1.52.44,2.2.27.68.69,1.23,1.27,1.65.58.42,1.34.62,2.29.62s1.77-.21,2.36-.64c.59-.43.89-1.06.91-1.91h4.46c-.06,1.3-.41,2.38-1.07,3.25-.66.87-1.55,1.51-2.68,1.94-1.13.43-2.46.64-3.97.64ZM143.24,102.4h7.23c-.03-1.16-.38-2.03-1.03-2.61-.66-.58-1.5-.86-2.52-.86s-1.91.3-2.57.89c-.67.59-1.03,1.45-1.1,2.58Z"/>
    <path d="M165.51,113.03c-.92,0-1.83-.09-2.72-.26s-1.69-.46-2.41-.88-1.29-.98-1.71-1.7c-.42-.72-.63-1.61-.63-2.68h4.2c0,.93.33,1.58.98,1.95.65.37,1.42.55,2.3.55s1.54-.14,2.02-.42.72-.75.72-1.41c0-.63-.28-1.09-.85-1.4-.56-.31-1.55-.62-2.96-.94-1.19-.28-2.24-.63-3.17-1.03-.93-.4-1.66-.95-2.18-1.62-.52-.68-.79-1.57-.79-2.67,0-.87.2-1.6.6-2.2.4-.6.93-1.09,1.6-1.46.67-.37,1.42-.64,2.26-.81.84-.17,1.69-.26,2.57-.26s1.69.08,2.51.26,1.56.46,2.22.86c.66.4,1.19.95,1.59,1.63.4.68.6,1.54.6,2.56h-4.21c0-.85-.27-1.45-.81-1.78-.54-.33-1.18-.5-1.91-.5-.79,0-1.4.11-1.85.34s-.67.6-.67,1.13c0,.31.14.58.43.81.28.23.74.45,1.37.65.63.2,1.45.41,2.48.64,1.08.25,2.05.58,2.91.97s1.53.93,2.03,1.61c.5.67.75,1.54.75,2.61,0,1-.2,1.85-.61,2.55s-.95,1.26-1.62,1.68c-.68.43-1.45.74-2.32.93-.87.19-1.78.29-2.71.29Z"/>
    <path d="M184.24,113.03c-1.86,0-3.42-.34-4.68-1.03-1.27-.69-2.22-1.68-2.87-2.98-.65-1.3-.97-2.86-.97-4.68s.32-3.29.95-4.56c.63-1.28,1.56-2.26,2.79-2.95,1.22-.69,2.73-1.03,4.52-1.03,2.48,0,4.45.73,5.89,2.18,1.44,1.45,2.16,3.52,2.16,6.21,0,.14,0,.32-.02.56-.01.23-.03.41-.05.54h-11.71c.02.79.17,1.52.44,2.2.27.68.69,1.23,1.27,1.65.58.42,1.34.62,2.29.62s1.77-.21,2.36-.64c.59-.43.89-1.06.91-1.91h4.46c-.06,1.3-.41,2.38-1.07,3.25-.66.87-1.55,1.51-2.68,1.94-1.13.43-2.46.64-3.97.64ZM180.29,102.4h7.23c-.03-1.16-.38-2.03-1.03-2.61-.66-.58-1.5-.86-2.52-.86s-1.91.3-2.57.89c-.67.59-1.03,1.45-1.1,2.58Z"/>
    <path d="M200.58,113.01c-.95,0-1.83-.18-2.65-.55s-1.48-.91-1.99-1.65c-.51-.74-.76-1.66-.76-2.76,0-1.54.46-2.7,1.38-3.48.92-.78,2.21-1.31,3.87-1.59,1.66-.28,3.59-.44,5.79-.49v-.89c0-1.08-.26-1.82-.78-2.22-.52-.4-1.19-.6-2.01-.6-.9,0-1.64.21-2.22.64-.58.43-.87,1.12-.87,2.08h-4.24c0-1.42.31-2.55.93-3.38.62-.83,1.48-1.43,2.58-1.79,1.1-.36,2.37-.55,3.82-.55,1.06,0,2.03.09,2.91.27.88.18,1.64.48,2.28.91.64.43,1.14,1.02,1.5,1.77.35.75.53,1.68.53,2.79v11.19h-4.24l-.14-2.17c-.71.81-1.53,1.42-2.46,1.84-.93.42-2.01.62-3.23.62ZM202.06,109.9c.86,0,1.64-.22,2.37-.67s1.3-.95,1.73-1.52v-2.7c-2.39.01-4.07.24-5.02.68s-1.44,1.15-1.44,2.13c0,.71.22,1.23.66,1.57s1.01.51,1.7.51Z"/>
    <path d="M215.34,112.72v-16.68h4.34l.09,2.89c.43-1,1.08-1.77,1.95-2.31.87-.54,1.91-.8,3.14-.8h.34v3.81h-.43c-.67,0-1.32.06-1.93.18-.62.12-1.17.32-1.68.62-.5.29-.93.69-1.3,1.2v11.09h-4.53Z"/>
    <path d="M235.35,112.96c-1.55,0-2.96-.3-4.22-.89-1.27-.59-2.27-1.52-3.01-2.77-.74-1.25-1.11-2.87-1.11-4.85s.35-3.61,1.06-4.89c.71-1.28,1.69-2.22,2.95-2.85,1.26-.62,2.7-.93,4.33-.93,1.41,0,2.69.23,3.83.7,1.14.47,2.04,1.17,2.72,2.09.67.93,1.01,2.1,1.03,3.51h-4.39c-.02-.85-.31-1.54-.85-2.04s-1.32-.76-2.31-.76c-1.31,0-2.26.45-2.85,1.35-.59.9-.88,2.17-.88,3.81,0,1.06.13,1.96.38,2.71.26.75.66,1.32,1.21,1.71.55.39,1.26.59,2.13.59,1.01,0,1.81-.28,2.4-.83s.89-1.34.91-2.35h4.39c-.03,1.45-.38,2.67-1.05,3.66-.67.99-1.58,1.74-2.73,2.26-1.15.51-2.47.77-3.95.77Z"/>
    <path d="M247.08,112.72v-23h4.44v8.82c.56-.72,1.29-1.35,2.2-1.91.91-.55,2.09-.83,3.52-.83,1.73,0,3.06.51,3.99,1.53.93,1.02,1.39,2.53,1.39,4.54v10.85h-4.53v-10.29c0-.59-.08-1.12-.25-1.57-.17-.46-.43-.81-.79-1.06-.37-.25-.85-.38-1.45-.38-.9,0-1.67.21-2.32.63-.64.42-1.21.93-1.68,1.54v11.13h-4.53Z"/>
    <path d="M274.78,112.72v-23h9.02c1.51,0,2.9.27,4.14.8,1.25.54,2.24,1.35,2.98,2.44.74,1.09,1.11,2.49,1.11,4.19s-.37,3.06-1.11,4.15c-.74,1.09-1.73,1.91-2.98,2.44-1.25.53-2.63.79-4.14.79h-4.22v8.19h-4.8ZM279.58,100.67h3.78c1.12,0,2.02-.3,2.71-.89.69-.59,1.03-1.47,1.03-2.63s-.35-2.1-1.06-2.68c-.71-.58-1.6-.87-2.68-.87h-3.78v7.08Z"/>
    <path d="M299.1,113.01c-.95,0-1.83-.18-2.65-.55s-1.48-.91-1.99-1.65c-.51-.74-.76-1.66-.76-2.76,0-1.54.46-2.7,1.38-3.48.92-.78,2.21-1.31,3.87-1.59,1.66-.28,3.59-.44,5.79-.49v-.89c0-1.08-.26-1.82-.78-2.22-.52-.4-1.19-.6-2.01-.6-.9,0-1.64.21-2.22.64-.58.43-.87,1.12-.87,2.08h-4.24c0-1.42.31-2.55.93-3.38.62-.83,1.48-1.43,2.58-1.79,1.1-.36,2.37-.55,3.82-.55,1.06,0,2.03.09,2.91.27.88.18,1.64.48,2.28.91.64.43,1.14,1.02,1.5,1.77.35.75.53,1.68.53,2.79v11.19h-4.24l-.14-2.17c-.71.81-1.53,1.42-2.46,1.84-.93.42-2.01.62-3.23.62ZM300.58,109.9c.86,0,1.64-.22,2.37-.67s1.3-.95,1.73-1.52v-2.7c-2.39.01-4.07.24-5.02.68s-1.44,1.15-1.44,2.13c0,.71.22,1.23.66,1.57s1.01.51,1.7.51Z"/>
    <path d="M313.86,118.84v-22.8h4.27l.26,2.55c.62-.9,1.36-1.59,2.22-2.08.87-.48,1.89-.73,3.08-.73,1.3,0,2.45.31,3.46.94,1.01.63,1.8,1.58,2.38,2.85.58,1.28.86,2.91.86,4.91s-.31,3.51-.93,4.77c-.62,1.25-1.46,2.19-2.52,2.82-1.06.63-2.25.95-3.57.96-1.08.01-2.05-.21-2.9-.67-.85-.46-1.54-1.09-2.08-1.91v8.39h-4.53ZM322.24,109.56c1.14,0,2.01-.44,2.62-1.32.6-.88.91-2.15.91-3.81,0-1.77-.28-3.08-.85-3.93-.56-.85-1.34-1.28-2.32-1.28s-1.9.29-2.63.86c-.73.58-1.25,1.2-1.57,1.89v4.92c.37.73.88,1.36,1.53,1.88.65.52,1.43.79,2.32.79Z"/>
    <path d="M342.06,113.03c-1.86,0-3.42-.34-4.68-1.03-1.27-.69-2.22-1.68-2.87-2.98-.65-1.3-.97-2.86-.97-4.68s.32-3.29.95-4.56c.63-1.28,1.56-2.26,2.79-2.95,1.22-.69,2.73-1.03,4.52-1.03,2.48,0,4.45.73,5.89,2.18,1.44,1.45,2.16,3.52,2.16,6.21,0,.14,0,.32-.02.56-.01.23-.03.41-.05.54h-11.71c.02.79.17,1.52.44,2.2.27.68.69,1.23,1.27,1.65.58.42,1.34.62,2.29.62s1.77-.21,2.36-.64c.59-.43.89-1.06.91-1.91h4.46c-.06,1.3-.41,2.38-1.07,3.25-.66.87-1.55,1.51-2.68,1.94-1.13.43-2.46.64-3.97.64ZM338.11,102.4h7.23c-.03-1.16-.38-2.03-1.03-2.61-.66-.58-1.5-.86-2.52-.86s-1.91.3-2.57.89c-.67.59-1.03,1.45-1.1,2.58Z"/>
    <path d="M353.85,112.72v-16.68h4.34l.09,2.89c.43-1,1.08-1.77,1.95-2.31.87-.54,1.91-.8,3.14-.8h.34v3.81h-.43c-.67,0-1.32.06-1.93.18-.62.12-1.17.32-1.68.62-.5.29-.93.69-1.3,1.2v11.09h-4.53Z"/>
  </g>
  <g>
    <path d="M39.54,356.9l4.92-13.14h1.86l4.85,13.14h-1.82l-1.25-3.68h-5.45l-1.31,3.68h-1.81ZM43.14,351.74h4.47l-2.23-6.24-2.25,6.24Z"/>
    <path d="M60.76,357.06c-.86,0-1.62-.18-2.29-.54s-1.18-.9-1.56-1.63c-.37-.73-.56-1.64-.56-2.73s.18-2.01.55-2.74.88-1.28,1.54-1.65c.66-.37,1.43-.55,2.31-.55.74,0,1.4.12,1.99.36.59.24,1.06.6,1.41,1.09.35.49.54,1.1.56,1.84h-1.61c-.04-.61-.26-1.09-.66-1.45s-.95-.53-1.65-.53c-.92,0-1.61.32-2.07.95s-.68,1.53-.68,2.67c0,.76.1,1.41.3,1.94.2.53.51.94.92,1.22s.92.42,1.53.42c.7,0,1.26-.18,1.7-.54s.66-.89.68-1.59h1.61c-.02.77-.21,1.41-.56,1.92-.35.51-.83.89-1.44,1.15s-1.28.38-2.03.38Z"/>
    <path d="M71.28,357.05c-.93,0-1.73-.2-2.39-.59-.66-.39-1.17-.96-1.52-1.69s-.52-1.6-.52-2.61.17-1.92.52-2.66c.35-.74.85-1.31,1.52-1.7.66-.4,1.46-.6,2.39-.6s1.76.2,2.44.6c.67.4,1.19.97,1.55,1.7.36.74.54,1.63.54,2.66s-.18,1.88-.54,2.61-.88,1.3-1.55,1.69c-.67.39-1.49.59-2.44.59ZM71.28,355.75c.7,0,1.26-.15,1.68-.46.42-.31.72-.74.9-1.28.18-.54.27-1.16.27-1.85s-.09-1.33-.27-1.88c-.18-.55-.48-.99-.9-1.3-.42-.32-.98-.47-1.68-.47s-1.23.16-1.63.47c-.4.32-.69.75-.86,1.3-.18.55-.26,1.18-.26,1.88s.09,1.31.26,1.85c.18.54.46.97.86,1.28.4.31.94.46,1.63.46Z"/>
    <path d="M81.16,356.9c-.77,0-1.37-.12-1.78-.37s-.69-.6-.84-1.05-.22-1.01-.22-1.66v-10.07h1.62v9.99c0,.59.08,1.04.23,1.36s.52.47,1.1.47h.44v1.33h-.55Z"/>
    <path d="M86.18,356.9c-.77,0-1.37-.12-1.78-.37s-.69-.6-.84-1.05-.22-1.01-.22-1.66v-10.07h1.62v9.99c0,.59.08,1.04.23,1.36s.52.47,1.1.47h.44v1.33h-.55Z"/>
    <path d="M91.18,357.07c-.55,0-1.05-.1-1.5-.31-.45-.21-.81-.52-1.08-.92-.27-.41-.41-.91-.41-1.51,0-.85.27-1.5.8-1.94.53-.44,1.29-.74,2.27-.9.98-.16,2.12-.25,3.43-.26v-.66c0-.81-.2-1.37-.61-1.67s-.92-.45-1.53-.45c-.66,0-1.21.17-1.66.5s-.67.86-.67,1.57h-1.58c0-.78.17-1.41.5-1.89.33-.48.8-.83,1.39-1.05.59-.22,1.26-.33,2.03-.33.49,0,.96.05,1.4.14.45.09.85.26,1.2.5.35.24.64.58.84,1.01.21.43.31.99.31,1.67v6.36h-1.52l-.07-1.45c-.44.49-.94.88-1.52,1.18-.58.3-1.25.44-2.02.44ZM91.6,355.82c.65,0,1.24-.15,1.76-.46.52-.31.96-.69,1.31-1.16v-1.93c-1.73.02-2.97.18-3.73.49-.75.31-1.13.81-1.13,1.5,0,.48.15.85.45,1.14s.75.42,1.33.42Z"/>
    <path d="M103.97,357.07c-.7,0-1.3-.13-1.8-.41-.5-.27-.9-.64-1.21-1.12l-.09,1.35h-1.52v-13.14h1.63v5.16c.33-.5.77-.91,1.3-1.22s1.17-.47,1.89-.47c.77,0,1.45.18,2.01.55.57.37,1,.92,1.31,1.65.31.73.46,1.64.46,2.72s-.16,1.99-.49,2.72-.79,1.28-1.39,1.66-1.3.56-2.11.56ZM103.67,355.73c.86,0,1.51-.31,1.95-.93.44-.62.66-1.5.66-2.64s-.21-2.07-.62-2.7-1.02-.94-1.83-.94c-.68,0-1.26.18-1.73.55-.47.37-.84.81-1.12,1.33v3.66c.25.48.6.88,1.04,1.2.44.32.99.47,1.64.47Z"/>
    <path d="M114.47,357.05c-.93,0-1.73-.2-2.39-.59-.66-.39-1.17-.96-1.52-1.69s-.52-1.6-.52-2.61.17-1.92.52-2.66c.35-.74.85-1.31,1.52-1.7.66-.4,1.46-.6,2.39-.6s1.76.2,2.44.6c.67.4,1.19.97,1.55,1.7.36.74.54,1.63.54,2.66s-.18,1.88-.54,2.61-.88,1.3-1.55,1.69c-.67.39-1.49.59-2.44.59ZM114.47,355.75c.7,0,1.26-.15,1.68-.46.42-.31.72-.74.9-1.28.18-.54.27-1.16.27-1.85s-.09-1.33-.27-1.88c-.18-.55-.48-.99-.9-1.3-.42-.32-.98-.47-1.68-.47s-1.23.16-1.63.47c-.4.32-.69.75-.86,1.3-.18.55-.26,1.18-.26,1.88s.09,1.31.26,1.85c.18.54.46.97.86,1.28.4.31.94.46,1.63.46Z"/>
    <path d="M121.6,356.9v-9.51h1.53l.06,1.62c.27-.49.64-.91,1.11-1.24s1.09-.5,1.86-.5h.2v1.49h-.22c-.48,0-.89.06-1.25.19-.36.12-.67.29-.94.51-.27.22-.5.47-.71.76v6.68h-1.63Z"/>
    <path d="M130.15,357.07c-.55,0-1.05-.1-1.5-.31-.45-.21-.81-.52-1.08-.92-.27-.41-.41-.91-.41-1.51,0-.85.27-1.5.8-1.94.53-.44,1.29-.74,2.27-.9.98-.16,2.12-.25,3.43-.26v-.66c0-.81-.2-1.37-.61-1.67s-.92-.45-1.53-.45c-.66,0-1.21.17-1.66.5s-.67.86-.67,1.57h-1.58c0-.78.17-1.41.5-1.89.33-.48.8-.83,1.39-1.05.59-.22,1.26-.33,2.03-.33.49,0,.96.05,1.4.14.45.09.85.26,1.2.5.35.24.64.58.84,1.01.21.43.31.99.31,1.67v6.36h-1.52l-.07-1.45c-.44.49-.94.88-1.52,1.18-.58.3-1.25.44-2.02.44ZM130.58,355.82c.65,0,1.24-.15,1.76-.46.52-.31.96-.69,1.31-1.16v-1.93c-1.73.02-2.97.18-3.73.49-.75.31-1.13.81-1.13,1.5,0,.48.15.85.45,1.14s.75.42,1.33.42Z"/>
    <path d="M141.32,356.9c-.77,0-1.36-.12-1.77-.37s-.69-.6-.84-1.05-.23-1.01-.23-1.66v-5.12h-1.59v-1.32h1.59v-2.18h1.62v2.18h2.34v1.32h-2.34v5.04c0,.59.08,1.05.23,1.36.15.32.52.47,1.1.47h1.04v1.32h-1.14Z"/>
    <path d="M145.42,345.6c-.31,0-.55-.09-.74-.27-.19-.18-.28-.41-.28-.68s.09-.5.28-.68c.19-.18.43-.27.74-.27s.55.09.74.27c.19.18.28.41.28.68s-.09.5-.28.68c-.19.18-.44.27-.74.27ZM144.61,356.9v-9.51h1.63v9.51h-1.63Z"/>
    <path d="M153.28,357.05c-.93,0-1.73-.2-2.39-.59-.66-.39-1.17-.96-1.52-1.69s-.52-1.6-.52-2.61.17-1.92.52-2.66c.35-.74.85-1.31,1.52-1.7.66-.4,1.46-.6,2.39-.6s1.76.2,2.44.6c.67.4,1.19.97,1.55,1.7.36.74.54,1.63.54,2.66s-.18,1.88-.54,2.61-.88,1.3-1.55,1.69c-.67.39-1.49.59-2.44.59ZM153.28,355.75c.7,0,1.26-.15,1.68-.46.42-.31.72-.74.9-1.28.18-.54.27-1.16.27-1.85s-.09-1.33-.27-1.88c-.18-.55-.48-.99-.9-1.3-.42-.32-.98-.47-1.68-.47s-1.23.16-1.63.47c-.4.32-.69.75-.86,1.3-.18.55-.26,1.18-.26,1.88s.09,1.31.26,1.85c.18.54.46.97.86,1.28.4.31.94.46,1.63.46Z"/>
    <path d="M160.42,356.9v-9.51h1.56l.06,1.46c.29-.38.71-.75,1.26-1.09s1.25-.51,2.1-.51c1.04,0,1.8.31,2.28.92s.71,1.48.71,2.59v6.13h-1.63v-5.9c0-.46-.05-.87-.15-1.23-.1-.36-.27-.64-.52-.84s-.61-.31-1.09-.31c-.71,0-1.31.16-1.79.48s-.87.68-1.16,1.06v6.74h-1.63Z"/>
    <path d="M180.13,357.07c-.7,0-1.3-.13-1.8-.41-.5-.27-.9-.64-1.21-1.12l-.09,1.35h-1.52v-13.14h1.63v5.16c.33-.5.77-.91,1.3-1.22s1.17-.47,1.89-.47c.77,0,1.45.18,2.01.55.57.37,1,.92,1.31,1.65.31.73.46,1.64.46,2.72s-.16,1.99-.49,2.72-.79,1.28-1.39,1.66-1.3.56-2.11.56ZM179.83,355.73c.86,0,1.51-.31,1.95-.93.44-.62.66-1.5.66-2.64s-.21-2.07-.62-2.7-1.02-.94-1.83-.94c-.68,0-1.26.18-1.73.55-.47.37-.84.81-1.12,1.33v3.66c.25.48.6.88,1.04,1.2.44.32.99.47,1.64.47Z"/>
    <path d="M190.69,357.07c-1.04,0-1.88-.22-2.54-.65-.66-.43-1.15-1.02-1.47-1.77-.32-.75-.48-1.58-.48-2.51s.15-1.82.46-2.56c.31-.74.78-1.32,1.42-1.73.63-.42,1.44-.62,2.42-.62,1.3,0,2.31.39,3.05,1.17s1.1,1.9,1.1,3.37c0,.1,0,.21,0,.35,0,.13-.02.23-.03.29h-6.78c0,.62.11,1.19.3,1.7s.5.93.91,1.25.97.47,1.65.47c.73,0,1.3-.17,1.71-.51s.62-.83.64-1.48h1.61c-.02.67-.19,1.25-.52,1.73-.33.49-.78.86-1.37,1.12s-1.28.4-2.08.4ZM187.84,351.2h5.2c-.02-.88-.25-1.56-.69-2.03s-1.06-.7-1.85-.7-1.42.23-1.87.7c-.45.47-.71,1.14-.79,2.04Z"/>
    <path d="M200.44,356.9c-.77,0-1.36-.12-1.77-.37s-.69-.6-.84-1.05-.23-1.01-.23-1.66v-5.12h-1.59v-1.32h1.59v-2.18h1.62v2.18h2.34v1.32h-2.34v5.04c0,.59.08,1.05.23,1.36.15.32.52.47,1.1.47h1.04v1.32h-1.14Z"/>
    <path d="M205.31,356.9l-3.04-9.51h1.7l2.26,7.68,2.28-7.68h1.81l2.31,7.67,2.24-7.67h1.6l-3.04,9.51h-1.72l-2.33-7.74-2.32,7.74h-1.74Z"/>
    <path d="M221.91,357.07c-1.04,0-1.88-.22-2.54-.65-.66-.43-1.15-1.02-1.47-1.77-.32-.75-.48-1.58-.48-2.51s.15-1.82.46-2.56c.31-.74.78-1.32,1.42-1.73.63-.42,1.44-.62,2.42-.62,1.3,0,2.31.39,3.05,1.17s1.1,1.9,1.1,3.37c0,.1,0,.21,0,.35,0,.13-.02.23-.03.29h-6.78c0,.62.11,1.19.3,1.7s.5.93.91,1.25.97.47,1.65.47c.73,0,1.3-.17,1.71-.51s.62-.83.64-1.48h1.61c-.02.67-.19,1.25-.52,1.73-.33.49-.78.86-1.37,1.12s-1.28.4-2.08.4ZM219.06,351.2h5.2c-.02-.88-.25-1.56-.69-2.03s-1.06-.7-1.85-.7-1.42.23-1.87.7c-.45.47-.71,1.14-.79,2.04Z"/>
    <path d="M232.44,357.07c-1.04,0-1.88-.22-2.54-.65-.66-.43-1.15-1.02-1.47-1.77-.32-.75-.48-1.58-.48-2.51s.15-1.82.46-2.56c.31-.74.78-1.32,1.42-1.73.63-.42,1.44-.62,2.42-.62,1.3,0,2.31.39,3.05,1.17s1.1,1.9,1.1,3.37c0,.1,0,.21,0,.35,0,.13-.02.23-.03.29h-6.78c0,.62.11,1.19.3,1.7s.5.93.91,1.25.97.47,1.65.47c.73,0,1.3-.17,1.71-.51s.62-.83.64-1.48h1.61c-.02.67-.19,1.25-.52,1.73-.33.49-.78.86-1.37,1.12s-1.28.4-2.08.4ZM229.59,351.2h5.2c-.02-.88-.25-1.56-.69-2.03s-1.06-.7-1.85-.7-1.42.23-1.87.7c-.45.47-.71,1.14-.79,2.04Z"/>
    <path d="M239.03,356.9v-9.51h1.56l.06,1.46c.29-.38.71-.75,1.26-1.09s1.25-.51,2.1-.51c1.04,0,1.8.31,2.28.92s.71,1.48.71,2.59v6.13h-1.63v-5.9c0-.46-.05-.87-.15-1.23-.1-.36-.27-.64-.52-.84s-.61-.31-1.09-.31c-.71,0-1.31.16-1.79.48s-.87.68-1.16,1.06v6.74h-1.63Z"/>
    <path d="M259.87,357.07c-1.36,0-2.51-.29-3.44-.86-.93-.57-1.64-1.36-2.11-2.37-.48-1.01-.72-2.18-.72-3.51s.24-2.5.72-3.52,1.18-1.81,2.11-2.38c.93-.57,2.08-.86,3.44-.86.9,0,1.75.16,2.54.47s1.46.79,1.99,1.43c.53.64.84,1.45.93,2.43h-1.77c-.08-.66-.3-1.2-.66-1.63-.36-.43-.81-.74-1.34-.95-.53-.21-1.1-.31-1.7-.31-1.05,0-1.91.24-2.56.72-.65.48-1.13,1.12-1.43,1.92s-.45,1.69-.45,2.68.15,1.87.45,2.67.78,1.44,1.43,1.91c.65.47,1.51.71,2.56.71s1.93-.26,2.6-.79,1.05-1.31,1.15-2.36h1.78c-.1,1.04-.41,1.89-.91,2.57-.5.68-1.15,1.19-1.94,1.53-.79.34-1.69.51-2.68.51Z"/>
    <path d="M271.86,357.05c-.93,0-1.73-.2-2.39-.59-.66-.39-1.17-.96-1.52-1.69s-.52-1.6-.52-2.61.17-1.92.52-2.66c.35-.74.85-1.31,1.52-1.7.66-.4,1.46-.6,2.39-.6s1.76.2,2.44.6c.67.4,1.19.97,1.55,1.7.36.74.54,1.63.54,2.66s-.18,1.88-.54,2.61-.88,1.3-1.55,1.69c-.67.39-1.49.59-2.44.59ZM271.86,355.75c.7,0,1.26-.15,1.68-.46.42-.31.72-.74.9-1.28.18-.54.27-1.16.27-1.85s-.09-1.33-.27-1.88c-.18-.55-.48-.99-.9-1.3-.42-.32-.98-.47-1.68-.47s-1.23.16-1.63.47c-.4.32-.69.75-.86,1.3-.18.55-.26,1.18-.26,1.88s.09,1.31.26,1.85c.18.54.46.97.86,1.28.4.31.94.46,1.63.46Z"/>
    <path d="M283.62,357.07c-.7,0-1.3-.13-1.8-.41-.5-.27-.9-.64-1.21-1.12l-.09,1.35h-1.52v-13.14h1.63v5.16c.33-.5.77-.91,1.3-1.22s1.17-.47,1.89-.47c.77,0,1.45.18,2.01.55.57.37,1,.92,1.31,1.65.31.73.46,1.64.46,2.72s-.16,1.99-.49,2.72-.79,1.28-1.39,1.66-1.3.56-2.11.56ZM283.31,355.73c.86,0,1.51-.31,1.95-.93.44-.62.66-1.5.66-2.64s-.21-2.07-.62-2.7-1.02-.94-1.83-.94c-.68,0-1.26.18-1.73.55-.47.37-.84.81-1.12,1.33v3.66c.25.48.6.88,1.04,1.2.44.32.99.47,1.64.47Z"/>
    <path d="M292.57,357.07c-.55,0-1.05-.1-1.5-.31-.45-.21-.81-.52-1.08-.92-.27-.41-.41-.91-.41-1.51,0-.85.27-1.5.8-1.94.53-.44,1.29-.74,2.27-.9.98-.16,2.12-.25,3.43-.26v-.66c0-.81-.2-1.37-.61-1.67s-.92-.45-1.53-.45c-.66,0-1.21.17-1.66.5s-.67.86-.67,1.57h-1.58c0-.78.17-1.41.5-1.89.33-.48.8-.83,1.39-1.05.59-.22,1.26-.33,2.03-.33.49,0,.96.05,1.4.14.45.09.85.26,1.2.5.35.24.64.58.84,1.01.21.43.31.99.31,1.67v6.36h-1.52l-.07-1.45c-.44.49-.94.88-1.52,1.18-.58.3-1.25.44-2.02.44ZM293,355.82c.65,0,1.24-.15,1.76-.46.52-.31.96-.69,1.31-1.16v-1.93c-1.73.02-2.97.18-3.73.49-.75.31-1.13.81-1.13,1.5,0,.48.15.85.45,1.14s.75.42,1.33.42Z"/>
    <path d="M303.48,356.9c-.77,0-1.37-.12-1.78-.37s-.69-.6-.84-1.05-.22-1.01-.22-1.66v-10.07h1.62v9.99c0,.59.08,1.04.23,1.36s.52.47,1.1.47h.44v1.33h-.55Z"/>
    <path d="M309.03,356.9c-.77,0-1.36-.12-1.77-.37s-.69-.6-.84-1.05-.23-1.01-.23-1.66v-5.12h-1.59v-1.32h1.59v-2.18h1.62v2.18h2.34v1.32h-2.34v5.04c0,.59.08,1.05.23,1.36.15.32.52.47,1.1.47h1.04v1.32h-1.14Z"/>
    <path d="M318.07,357.07c-1.36,0-2.51-.29-3.44-.86-.93-.57-1.64-1.36-2.11-2.37-.48-1.01-.72-2.18-.72-3.51s.24-2.5.72-3.52,1.18-1.81,2.11-2.38c.93-.57,2.08-.86,3.44-.86.9,0,1.75.16,2.54.47s1.46.79,1.99,1.43c.53.64.84,1.45.93,2.43h-1.77c-.08-.66-.3-1.2-.66-1.63-.36-.43-.81-.74-1.34-.95-.53-.21-1.1-.31-1.7-.31-1.05,0-1.91.24-2.56.72-.65.48-1.13,1.12-1.43,1.92s-.45,1.69-.45,2.68.15,1.87.45,2.67.78,1.44,1.43,1.91c.65.47,1.51.71,2.56.71s1.93-.26,2.6-.79,1.05-1.31,1.15-2.36h1.78c-.1,1.04-.41,1.89-.91,2.57-.5.68-1.15,1.19-1.94,1.53-.79.34-1.69.51-2.68.51Z"/>
    <path d="M330.06,357.05c-.93,0-1.73-.2-2.39-.59-.66-.39-1.17-.96-1.52-1.69s-.52-1.6-.52-2.61.17-1.92.52-2.66c.35-.74.85-1.31,1.52-1.7.66-.4,1.46-.6,2.39-.6s1.76.2,2.44.6c.67.4,1.19.97,1.55,1.7.36.74.54,1.63.54,2.66s-.18,1.88-.54,2.61-.88,1.3-1.55,1.69c-.67.39-1.49.59-2.44.59ZM330.06,355.75c.7,0,1.26-.15,1.68-.46.42-.31.72-.74.9-1.28.18-.54.27-1.16.27-1.85s-.09-1.33-.27-1.88c-.18-.55-.48-.99-.9-1.3-.42-.32-.98-.47-1.68-.47s-1.23.16-1.63.47c-.4.32-.69.75-.86,1.3-.18.55-.26,1.18-.26,1.88s.09,1.31.26,1.85c.18.54.46.97.86,1.28.4.31.94.46,1.63.46Z"/>
    <path d="M337.2,356.9v-9.51h1.53l.06,1.62c.27-.49.64-.91,1.11-1.24s1.09-.5,1.86-.5h.2v1.49h-.22c-.48,0-.89.06-1.25.19-.36.12-.67.29-.94.51-.27.22-.5.47-.71.76v6.68h-1.63Z"/>
    <path d="M347.57,357.07c-1.04,0-1.88-.22-2.54-.65-.66-.43-1.15-1.02-1.47-1.77-.32-.75-.48-1.58-.48-2.51s.15-1.82.46-2.56c.31-.74.78-1.32,1.42-1.73.63-.42,1.44-.62,2.42-.62,1.3,0,2.31.39,3.05,1.17s1.1,1.9,1.1,3.37c0,.1,0,.21,0,.35,0,.13-.02.23-.03.29h-6.78c0,.62.11,1.19.3,1.7s.5.93.91,1.25.97.47,1.65.47c.73,0,1.3-.17,1.71-.51s.62-.83.64-1.48h1.61c-.02.67-.19,1.25-.52,1.73-.33.49-.78.86-1.37,1.12s-1.28.4-2.08.4ZM344.72,351.2h5.2c-.02-.88-.25-1.56-.69-2.03s-1.06-.7-1.85-.7-1.42.23-1.87.7c-.45.47-.71,1.14-.79,2.04Z"/>
    <path d="M353.64,359.61l-.41-.92c.38-.17.71-.41,1-.71.29-.31.46-.67.52-1.08l.11.1c-.36,0-.67-.12-.91-.36-.24-.24-.36-.53-.36-.87s.12-.65.36-.88c.24-.23.54-.35.91-.35s.65.13.89.38.35.64.35,1.17c0,.62-.11,1.15-.33,1.61s-.51.83-.88,1.15-.78.57-1.25.77Z"/>
    <path d="M365.67,356.9v-11.67h-3.74v-1.47h9.22v1.47h-3.73v11.67h-1.75Z"/>
    <path d="M378.12,357.07c-1.23,0-2.23-.22-3.01-.65-.77-.43-1.34-1.03-1.7-1.8-.36-.76-.54-1.64-.54-2.61v-8.26h1.78v8.05c0,1.37.3,2.34.89,2.92.6.58,1.46.87,2.58.87s2-.29,2.59-.87c.59-.58.89-1.56.89-2.92v-8.05h1.78v8.26c0,.98-.18,1.85-.54,2.61-.36.77-.92,1.36-1.69,1.8-.77.43-1.78.65-3.03.65Z"/>
    <path d="M390.73,356.9v-13.14h4.42c1.37,0,2.55.26,3.52.78s1.71,1.27,2.22,2.25c.51.98.76,2.17.76,3.54s-.26,2.57-.77,3.55c-.51.98-1.25,1.73-2.22,2.25-.97.51-2.14.77-3.51.77h-4.42ZM392.48,355.42h2.28c1.15,0,2.1-.18,2.85-.55.75-.37,1.31-.93,1.67-1.69.37-.76.55-1.71.55-2.87s-.19-2.09-.56-2.85-.94-1.31-1.69-1.68-1.69-.56-2.83-.56h-2.28v10.2Z"/>
    <path d="M404.3,356.9v-9.51h1.53l.06,1.62c.27-.49.64-.91,1.11-1.24s1.09-.5,1.86-.5h.2v1.49h-.22c-.48,0-.89.06-1.25.19-.36.12-.67.29-.94.51-.27.22-.5.47-.71.76v6.68h-1.63Z"/>
    <path d="M414.67,357.07c-1.04,0-1.88-.22-2.54-.65-.66-.43-1.15-1.02-1.47-1.77-.32-.75-.48-1.58-.48-2.51s.15-1.82.46-2.56c.31-.74.78-1.32,1.42-1.73.63-.42,1.44-.62,2.42-.62,1.3,0,2.31.39,3.05,1.17s1.1,1.9,1.1,3.37c0,.1,0,.21,0,.35,0,.13-.02.23-.03.29h-6.78c0,.62.11,1.19.3,1.7s.5.93.91,1.25.97.47,1.65.47c.73,0,1.3-.17,1.71-.51s.62-.83.64-1.48h1.61c-.02.67-.19,1.25-.52,1.73-.33.49-.78.86-1.37,1.12s-1.28.4-2.08.4ZM411.82,351.2h5.2c-.02-.88-.25-1.56-.69-2.03s-1.06-.7-1.85-.7-1.42.23-1.87.7c-.45.47-.71,1.14-.79,2.04Z"/>
    <path d="M424.52,357.07c-.53,0-1.04-.06-1.52-.18s-.9-.3-1.26-.56-.65-.59-.85-1c-.21-.41-.31-.91-.31-1.5h1.57c0,.74.23,1.26.69,1.57s1.03.45,1.72.45c.62,0,1.13-.12,1.53-.36.4-.24.6-.63.6-1.18,0-.47-.18-.82-.54-1.04-.36-.23-1-.45-1.91-.66-.74-.18-1.37-.38-1.88-.61-.51-.23-.89-.52-1.14-.88-.25-.35-.38-.8-.38-1.34,0-.42.09-.8.27-1.12s.43-.59.75-.81.7-.38,1.14-.48.91-.16,1.42-.16.97.06,1.41.18.83.3,1.16.55c.33.25.6.57.8.96s.29.86.29,1.41h-1.58c0-.68-.2-1.16-.61-1.44-.4-.28-.9-.42-1.47-.42s-1.06.1-1.43.31c-.36.21-.55.53-.55.98,0,.25.08.47.24.64s.44.33.82.47c.38.14.9.29,1.55.44.71.17,1.31.37,1.79.61s.84.54,1.09.9c.24.37.37.84.37,1.41,0,.5-.1.92-.29,1.28s-.46.66-.8.89c-.34.23-.74.4-1.2.51-.46.11-.96.17-1.49.17Z"/>
    <path d="M434.01,357.07c-.77,0-1.45-.19-2.01-.56s-1-.93-1.31-1.67c-.31-.74-.46-1.65-.46-2.74s.16-1.98.49-2.71.79-1.27,1.39-1.64c.6-.37,1.31-.55,2.12-.55.68,0,1.27.15,1.77.44.5.3.91.7,1.21,1.21v-5.12h1.63v13.14h-1.54l-.09-1.39c-.34.46-.77.84-1.31,1.13-.53.29-1.16.43-1.88.43ZM434.34,355.73c.7,0,1.28-.16,1.74-.49.46-.33.84-.72,1.12-1.19v-3.66c-.27-.53-.62-.97-1.05-1.32-.43-.35-.98-.52-1.64-.52-.87,0-1.52.31-1.96.93-.44.62-.66,1.5-.66,2.64s.21,2.08.62,2.7c.41.62,1.02.93,1.82.93Z"/>
    <path d="M445.92,357.07c-1.04,0-1.88-.22-2.54-.65-.66-.43-1.15-1.02-1.47-1.77-.32-.75-.48-1.58-.48-2.51s.15-1.82.46-2.56c.31-.74.78-1.32,1.42-1.73.63-.42,1.44-.62,2.42-.62,1.3,0,2.31.39,3.05,1.17s1.1,1.9,1.1,3.37c0,.1,0,.21,0,.35,0,.13-.02.23-.03.29h-6.78c0,.62.11,1.19.3,1.7s.5.93.91,1.25.97.47,1.65.47c.73,0,1.3-.17,1.71-.51s.62-.83.64-1.48h1.61c-.02.67-.19,1.25-.52,1.73-.33.49-.78.86-1.37,1.12s-1.28.4-2.08.4ZM443.07,351.2h5.2c-.02-.88-.25-1.56-.69-2.03s-1.06-.7-1.85-.7-1.42.23-1.87.7c-.45.47-.71,1.14-.79,2.04Z"/>
    <path d="M452.5,356.9v-9.51h1.56l.06,1.46c.29-.38.71-.75,1.26-1.09s1.25-.51,2.1-.51c1.04,0,1.8.31,2.28.92s.71,1.48.71,2.59v6.13h-1.63v-5.9c0-.46-.05-.87-.15-1.23-.1-.36-.27-.64-.52-.84s-.61-.31-1.09-.31c-.71,0-1.31.16-1.79.48s-.87.68-1.16,1.06v6.74h-1.63Z"/>
    <path d="M463.62,359.61l-.41-.92c.38-.17.71-.41,1-.71.29-.31.46-.67.52-1.08l.11.1c-.36,0-.67-.12-.91-.36-.24-.24-.36-.53-.36-.87s.12-.65.36-.88c.24-.23.54-.35.91-.35s.65.13.89.38.35.64.35,1.17c0,.62-.11,1.15-.33,1.61s-.51.83-.88,1.15-.78.57-1.25.77Z"/>
    <path d="M475.76,357.07c-.55,0-1.05-.1-1.5-.31-.45-.21-.81-.52-1.08-.92-.27-.41-.41-.91-.41-1.51,0-.85.27-1.5.8-1.94.53-.44,1.29-.74,2.27-.9.98-.16,2.12-.25,3.43-.26v-.66c0-.81-.2-1.37-.61-1.67s-.92-.45-1.53-.45c-.66,0-1.21.17-1.66.5s-.67.86-.67,1.57h-1.58c0-.78.17-1.41.5-1.89.33-.48.8-.83,1.39-1.05.59-.22,1.26-.33,2.03-.33.49,0,.96.05,1.4.14.45.09.85.26,1.2.5.35.24.64.58.84,1.01.21.43.31.99.31,1.67v6.36h-1.52l-.07-1.45c-.44.49-.94.88-1.52,1.18-.58.3-1.25.44-2.02.44ZM476.18,355.82c.65,0,1.24-.15,1.76-.46.52-.31.96-.69,1.31-1.16v-1.93c-1.73.02-2.97.18-3.73.49-.75.31-1.13.81-1.13,1.5,0,.48.15.85.45,1.14s.75.42,1.33.42Z"/>
    <path d="M483.93,356.9v-9.51h1.56l.06,1.46c.29-.38.71-.75,1.26-1.09s1.25-.51,2.1-.51c1.04,0,1.8.31,2.28.92s.71,1.48.71,2.59v6.13h-1.63v-5.9c0-.46-.05-.87-.15-1.23-.1-.36-.27-.64-.52-.84s-.61-.31-1.09-.31c-.71,0-1.31.16-1.79.48s-.87.68-1.16,1.06v6.74h-1.63Z"/>
    <path d="M498.21,357.07c-.77,0-1.45-.19-2.01-.56s-1-.93-1.31-1.67c-.31-.74-.46-1.65-.46-2.74s.16-1.98.49-2.71.79-1.27,1.39-1.64c.6-.37,1.31-.55,2.12-.55.68,0,1.27.15,1.77.44.5.3.91.7,1.21,1.21v-5.12h1.63v13.14h-1.54l-.09-1.39c-.34.46-.77.84-1.31,1.13-.53.29-1.16.43-1.88.43ZM498.54,355.73c.7,0,1.28-.16,1.74-.49.46-.33.84-.72,1.12-1.19v-3.66c-.27-.53-.62-.97-1.05-1.32-.43-.35-.98-.52-1.64-.52-.87,0-1.52.31-1.96.93-.44.62-.66,1.5-.66,2.64s.21,2.08.62,2.7c.41.62,1.02.93,1.82.93Z"/>
    <path d="M514.41,357.07c-.94,0-1.78-.14-2.54-.43-.75-.29-1.36-.74-1.8-1.35-.45-.61-.67-1.41-.67-2.38h1.77c0,.7.15,1.24.45,1.64.3.4.71.68,1.21.84.5.16,1.05.24,1.65.24.55,0,1.06-.08,1.52-.25s.83-.42,1.1-.75c.27-.33.41-.77.41-1.29,0-.46-.11-.83-.32-1.12s-.57-.55-1.07-.77c-.5-.22-1.17-.43-2.01-.65-.99-.26-1.8-.54-2.44-.85-.64-.31-1.11-.69-1.42-1.16-.31-.46-.46-1.05-.46-1.76,0-.75.18-1.38.53-1.89.35-.51.86-.9,1.51-1.17.66-.27,1.44-.4,2.34-.4.85,0,1.62.14,2.32.41s1.26.68,1.68,1.23.63,1.23.63,2.04h-1.76c0-.74-.27-1.3-.82-1.68s-1.24-.57-2.05-.57-1.49.17-1.96.5c-.47.34-.7.83-.7,1.47,0,.38.1.71.3.96.2.26.55.49,1.04.7.49.21,1.18.43,2.06.65,1.02.27,1.84.57,2.48.88s1.1.71,1.4,1.2.45,1.13.45,1.92c0,.85-.21,1.55-.63,2.1s-1,.98-1.73,1.25c-.73.28-1.55.42-2.47.42Z"/>
    <path d="M520.03,356.9l4.92-13.14h1.86l4.85,13.14h-1.82l-1.25-3.68h-5.45l-1.31,3.68h-1.81ZM523.63,351.74h4.47l-2.23-6.24-2.25,6.24Z"/>
    <path d="M533.46,356.9v-13.14h4.75c.81,0,1.55.16,2.2.46.65.31,1.17.77,1.54,1.37.38.6.57,1.34.57,2.21s-.19,1.57-.57,2.15c-.38.58-.89,1.02-1.54,1.32-.65.3-1.38.45-2.2.45h-2.99v5.19h-1.76ZM535.22,350.26h2.85c.79,0,1.44-.2,1.93-.61.49-.41.74-1.02.74-1.85,0-.88-.25-1.54-.74-1.96-.5-.42-1.14-.63-1.92-.63h-2.85v5.06Z"/>
    <path d="M543.4,356.99c-.36,0-.67-.12-.91-.36-.24-.24-.36-.53-.36-.87s.12-.65.36-.88c.24-.23.54-.35.91-.35s.65.12.89.35c.23.23.35.53.35.88s-.12.64-.35.87c-.23.24-.53.36-.89.36Z"/>
  </g>
  <g>
    <path d="M43.43,156.42v-14.59h-4.67v-1.84h11.52v1.84h-4.66v14.59h-2.19Z"/>
    <path d="M52.47,156.42v-16.43h2.03v6.37c.37-.48.89-.93,1.57-1.36.68-.43,1.55-.64,2.61-.64,1.33,0,2.29.38,2.88,1.15.58.77.87,1.85.87,3.25v7.67h-2.04v-7.38c0-.57-.06-1.08-.18-1.53-.12-.45-.34-.8-.65-1.06-.32-.26-.77-.38-1.37-.38-.89,0-1.63.2-2.23.6-.6.4-1.09.84-1.45,1.32v8.42h-2.04Z"/>
    <path d="M71.19,156.64c-1.29,0-2.35-.27-3.18-.81-.83-.54-1.44-1.28-1.84-2.21-.4-.93-.6-1.98-.6-3.14s.19-2.28.58-3.21c.39-.92.98-1.65,1.77-2.17.79-.52,1.8-.78,3.02-.78,1.62,0,2.89.49,3.81,1.46s1.38,2.38,1.38,4.21c0,.12,0,.27-.01.43s-.02.29-.04.36h-8.47c0,.77.13,1.48.37,2.13.24.65.62,1.17,1.14,1.56.52.39,1.21.59,2.06.59.91,0,1.62-.21,2.14-.64.51-.43.78-1.04.81-1.85h2.01c-.02.84-.24,1.56-.65,2.17-.41.61-.98,1.07-1.71,1.4-.73.33-1.6.49-2.6.49ZM67.63,149.3h6.49c-.02-1.11-.31-1.95-.87-2.54-.55-.59-1.32-.88-2.31-.88s-1.77.29-2.34.87c-.57.58-.89,1.43-.98,2.55Z"/>
    <path d="M89.72,156.64c-1.17,0-2.23-.18-3.17-.54-.94-.36-1.69-.92-2.25-1.68-.56-.76-.84-1.76-.84-2.98h2.21c0,.87.19,1.55.57,2.05.38.5.88.85,1.51,1.05.63.2,1.31.31,2.06.31.69,0,1.32-.1,1.9-.31.57-.21,1.03-.52,1.37-.94.34-.42.51-.96.51-1.62,0-.57-.13-1.04-.4-1.4-.27-.37-.71-.69-1.34-.96-.62-.27-1.46-.54-2.51-.81-1.24-.33-2.25-.68-3.05-1.07-.8-.39-1.39-.87-1.78-1.45-.39-.58-.58-1.31-.58-2.2,0-.94.22-1.72.66-2.36.44-.64,1.07-1.12,1.89-1.46s1.8-.5,2.93-.5c1.06,0,2.03.17,2.91.51s1.58.85,2.11,1.54c.53.68.79,1.53.79,2.55h-2.2c0-.93-.33-1.63-1.03-2.11-.69-.48-1.55-.71-2.56-.71s-1.87.21-2.45.63-.87,1.03-.87,1.84c0,.48.13.88.38,1.2.25.32.69.61,1.3.87.61.26,1.47.53,2.57.82,1.27.34,2.3.71,3.09,1.1.79.39,1.38.89,1.75,1.5s.56,1.41.56,2.41c0,1.06-.26,1.93-.79,2.63-.53.7-1.25,1.22-2.16,1.57s-1.94.52-3.09.52Z"/>
    <path d="M96.76,156.42l6.15-16.43h2.32l6.07,16.43h-2.27l-1.56-4.6h-6.81l-1.64,4.6h-2.26ZM101.25,149.97h5.59l-2.78-7.8-2.81,7.8Z"/>
    <path d="M113.54,156.42v-16.43h5.93c1.02,0,1.93.19,2.75.58.81.39,1.46.96,1.93,1.71.47.75.71,1.67.71,2.76s-.24,1.96-.71,2.69c-.47.72-1.11,1.27-1.93,1.65-.81.37-1.73.56-2.75.56h-3.74v6.48h-2.2ZM115.74,148.12h3.56c.99,0,1.8-.25,2.41-.76.61-.51.92-1.28.92-2.31,0-1.11-.31-1.92-.93-2.45-.62-.53-1.42-.79-2.4-.79h-3.56v6.32Z"/>
    <path d="M140.05,156.64c-1.7,0-3.13-.36-4.3-1.07-1.16-.72-2.04-1.7-2.64-2.97-.6-1.26-.9-2.72-.9-4.38s.3-3.12.9-4.39c.6-1.27,1.48-2.26,2.64-2.98,1.16-.72,2.6-1.07,4.3-1.07,1.12,0,2.18.2,3.18.59s1.83.99,2.49,1.79c.66.8,1.05,1.81,1.17,3.03h-2.21c-.1-.82-.37-1.5-.82-2.03-.45-.53-1.01-.93-1.67-1.19s-1.37-.39-2.13-.39c-1.32,0-2.39.3-3.2.9-.82.6-1.41,1.4-1.79,2.4-.37,1-.56,2.12-.56,3.34s.19,2.33.56,3.33c.38,1,.97,1.8,1.79,2.39.82.59,1.89.89,3.2.89s2.42-.33,3.25-.99,1.31-1.64,1.44-2.95h2.22c-.13,1.29-.51,2.37-1.13,3.22-.63.85-1.44,1.49-2.43,1.91s-2.11.63-3.34.63Z"/>
    <path d="M153.59,156.42c-.97,0-1.71-.15-2.22-.46-.51-.3-.86-.74-1.05-1.32-.19-.57-.28-1.26-.28-2.07v-12.59h2.03v12.49c0,.74.1,1.31.29,1.7.19.39.65.59,1.37.59h.55v1.66h-.68Z"/>
    <path d="M161.55,156.61c-1.16,0-2.16-.25-2.99-.74s-1.46-1.2-1.9-2.11c-.44-.92-.65-2-.65-3.26s.22-2.4.65-3.33c.43-.92,1.07-1.63,1.9-2.13.83-.5,1.83-.74,2.99-.74s2.2.25,3.05.74c.84.5,1.49,1.21,1.94,2.13.45.92.68,2.03.68,3.33s-.23,2.35-.68,3.26c-.45.92-1.1,1.62-1.94,2.11-.84.49-1.86.74-3.05.74ZM161.55,154.99c.88,0,1.58-.19,2.1-.58s.9-.92,1.12-1.6c.23-.68.34-1.45.34-2.31s-.11-1.66-.34-2.36c-.23-.69-.6-1.23-1.12-1.63-.52-.39-1.22-.59-2.1-.59s-1.53.2-2.03.59c-.5.4-.86.94-1.08,1.63-.22.69-.33,1.48-.33,2.36s.11,1.63.33,2.31c.22.68.58,1.21,1.08,1.6.5.39,1.18.58,2.03.58Z"/>
    <path d="M174.1,156.6c-1.38,0-2.37-.38-2.98-1.15s-.92-1.82-.92-3.16v-7.76h2.05v7.48c0,.54.06,1.02.18,1.44s.35.75.7.99c.34.24.83.35,1.48.35.9,0,1.64-.19,2.25-.56s1.09-.8,1.45-1.29v-8.42h2.05v11.89h-1.97l-.06-1.83c-.38.47-.92.93-1.62,1.36-.7.44-1.57.65-2.62.65Z"/>
    <path d="M188.36,156.64c-.97,0-1.81-.23-2.51-.7s-1.26-1.16-1.64-2.08c-.39-.92-.58-2.06-.58-3.42s.21-2.48.62-3.38.99-1.58,1.74-2.04c.75-.46,1.63-.69,2.65-.69.85,0,1.58.18,2.21.55.63.37,1.13.87,1.51,1.51v-6.4h2.04v16.43h-1.93l-.11-1.73c-.42.58-.97,1.05-1.63,1.41-.67.36-1.45.54-2.36.54ZM188.77,154.97c.87,0,1.59-.21,2.17-.62.58-.41,1.05-.9,1.4-1.48v-4.58c-.33-.67-.77-1.22-1.31-1.65-.54-.43-1.22-.65-2.04-.65-1.08,0-1.9.39-2.45,1.16-.55.77-.82,1.87-.82,3.3s.26,2.6.78,3.37c.52.77,1.28,1.16,2.28,1.16Z"/>
    <path d="M203.57,156.42v-16.43h2.2v16.43h-2.2Z"/>
    <path d="M209.89,156.42v-11.89h1.95l.07,1.83c.37-.48.89-.93,1.57-1.36.68-.43,1.56-.64,2.62-.64,1.3,0,2.25.38,2.84,1.15.59.77.89,1.85.89,3.24v7.67h-2.04v-7.37c0-.58-.06-1.09-.18-1.54-.12-.45-.34-.8-.65-1.06-.31-.26-.77-.38-1.36-.38-.89,0-1.63.2-2.23.6-.6.4-1.09.84-1.45,1.32v8.42h-2.04Z"/>
    <path d="M224.09,156.42v-10.24h-1.99v-1.65h1.99v-.68c0-.6.05-1.14.15-1.62.1-.48.28-.89.54-1.21.26-.33.61-.58,1.07-.76.46-.17,1.06-.26,1.79-.26h1.23v1.6h-1.1c-.72,0-1.18.2-1.37.59s-.29.96-.29,1.7v.66h2.77v1.65h-2.77v10.24h-2.03Z"/>
    <path d="M231.2,156.42v-11.89h1.92l.07,2.03c.33-.62.8-1.13,1.39-1.55s1.37-.62,2.32-.62h.24v1.87h-.28c-.59,0-1.11.08-1.56.23-.45.16-.84.37-1.17.64-.33.27-.63.59-.89.95v8.35h-2.04Z"/>
    <path d="M241.89,156.64c-.68,0-1.31-.13-1.87-.39-.57-.26-1.02-.64-1.35-1.15-.34-.51-.51-1.14-.51-1.89,0-1.07.33-1.88,1-2.43.67-.55,1.61-.93,2.83-1.13s2.65-.31,4.29-.32v-.83c0-1.02-.25-1.72-.76-2.09-.5-.38-1.14-.57-1.92-.57-.82,0-1.51.21-2.08.62s-.84,1.07-.84,1.97h-1.98c0-.98.21-1.77.63-2.37s1-1.04,1.73-1.32,1.58-.42,2.53-.42c.61,0,1.19.06,1.75.17.56.11,1.06.32,1.5.62.44.3.8.72,1.06,1.26.26.54.39,1.24.39,2.09v7.95h-1.9l-.08-1.81c-.54.61-1.18,1.1-1.9,1.47-.72.37-1.56.56-2.52.56ZM242.42,155.08c.81,0,1.55-.19,2.2-.57s1.2-.87,1.64-1.45v-2.42c-2.17.02-3.72.23-4.66.61-.94.38-1.41,1.01-1.41,1.88,0,.59.19,1.07.57,1.42.38.35.93.53,1.67.53Z"/>
    <path d="M256.31,156.64c-.67,0-1.3-.07-1.9-.22-.6-.15-1.12-.38-1.58-.7-.46-.32-.81-.73-1.07-1.25-.26-.52-.38-1.14-.38-1.87h1.97c0,.93.29,1.58.86,1.96.57.38,1.29.57,2.15.57.77,0,1.41-.15,1.91-.45.5-.3.75-.79.75-1.47,0-.59-.23-1.02-.68-1.31-.45-.28-1.25-.56-2.39-.83-.93-.22-1.71-.47-2.34-.76s-1.11-.66-1.43-1.1-.48-1-.48-1.68c0-.53.11-1,.34-1.4.22-.4.54-.74.94-1.01.4-.27.88-.47,1.42-.6.54-.13,1.14-.2,1.77-.2s1.21.07,1.76.22c.55.15,1.03.37,1.45.68s.75.71,1,1.2.37,1.07.37,1.76h-1.98c0-.85-.25-1.44-.76-1.79-.5-.35-1.12-.52-1.84-.52s-1.33.13-1.78.39c-.46.26-.68.67-.68,1.22,0,.32.1.59.31.81s.54.42,1.03.59,1.13.36,1.94.56c.89.21,1.63.46,2.23.76s1.06.67,1.36,1.13c.3.46.46,1.05.46,1.76,0,.62-.12,1.15-.36,1.61-.24.45-.57.82-1,1.11-.43.29-.93.5-1.5.64-.57.14-1.19.21-1.86.21Z"/>
    <path d="M268.07,156.42c-.96,0-1.7-.15-2.21-.46-.51-.3-.86-.74-1.06-1.32-.19-.57-.29-1.26-.29-2.07v-6.4h-1.99v-1.65h1.99v-2.72h2.03v2.72h2.93v1.65h-2.93v6.3c0,.74.1,1.31.29,1.7.19.4.65.59,1.37.59h1.29v1.65h-1.43Z"/>
    <path d="M272.18,156.42v-11.89h1.92l.07,2.03c.33-.62.8-1.13,1.39-1.55s1.37-.62,2.32-.62h.24v1.87h-.28c-.59,0-1.11.08-1.56.23-.45.16-.84.37-1.17.64-.33.27-.63.59-.89.95v8.35h-2.04Z"/>
    <path d="M284.26,156.6c-1.38,0-2.37-.38-2.98-1.15s-.92-1.82-.92-3.16v-7.76h2.05v7.48c0,.54.06,1.02.18,1.44s.35.75.7.99c.34.24.83.35,1.48.35.9,0,1.64-.19,2.25-.56s1.09-.8,1.45-1.29v-8.42h2.05v11.89h-1.97l-.06-1.83c-.38.47-.92.93-1.62,1.36-.7.44-1.57.65-2.62.65Z"/>
    <path d="M299.28,156.63c-1.07,0-2.03-.23-2.86-.68-.83-.45-1.48-1.13-1.95-2.04-.47-.91-.7-2.04-.7-3.41s.23-2.51.69-3.42c.46-.92,1.1-1.6,1.93-2.06s1.79-.69,2.89-.69c.92,0,1.75.15,2.48.45.74.3,1.32.75,1.76,1.36s.67,1.37.7,2.3h-2.01c-.05-.76-.33-1.37-.83-1.81-.5-.44-1.19-.66-2.06-.66-1.16,0-2.02.4-2.59,1.19-.57.79-.85,1.91-.85,3.34,0,.95.13,1.76.38,2.42.25.66.63,1.17,1.15,1.53.51.35,1.15.53,1.92.53.87,0,1.58-.23,2.12-.68.54-.45.83-1.11.85-1.98h2.01c-.02.96-.26,1.76-.7,2.4-.44.64-1.04,1.12-1.79,1.43s-1.6.48-2.53.48Z"/>
    <path d="M311.54,156.42c-.96,0-1.7-.15-2.21-.46-.51-.3-.86-.74-1.06-1.32-.19-.57-.29-1.26-.29-2.07v-6.4h-1.99v-1.65h1.99v-2.72h2.03v2.72h2.93v1.65h-2.93v6.3c0,.74.1,1.31.29,1.7.19.4.65.59,1.37.59h1.29v1.65h-1.43Z"/>
    <path d="M319.42,156.6c-1.38,0-2.37-.38-2.98-1.15s-.92-1.82-.92-3.16v-7.76h2.05v7.48c0,.54.06,1.02.18,1.44s.35.75.7.99c.34.24.83.35,1.48.35.9,0,1.64-.19,2.25-.56s1.09-.8,1.45-1.29v-8.42h2.05v11.89h-1.97l-.06-1.83c-.38.47-.92.93-1.62,1.36-.7.44-1.57.65-2.62.65Z"/>
    <path d="M329.62,156.42v-11.89h1.92l.07,2.03c.33-.62.8-1.13,1.39-1.55s1.37-.62,2.32-.62h.24v1.87h-.28c-.59,0-1.11.08-1.56.23-.45.16-.84.37-1.17.64-.33.27-.63.59-.89.95v8.35h-2.04Z"/>
    <path d="M342.58,156.64c-1.29,0-2.35-.27-3.18-.81-.83-.54-1.44-1.28-1.84-2.21-.4-.93-.6-1.98-.6-3.14s.19-2.28.58-3.21c.39-.92.98-1.65,1.77-2.17.79-.52,1.8-.78,3.02-.78,1.62,0,2.89.49,3.81,1.46s1.38,2.38,1.38,4.21c0,.12,0,.27-.01.43s-.02.29-.04.36h-8.47c0,.77.13,1.48.37,2.13.24.65.62,1.17,1.14,1.56.52.39,1.21.59,2.06.59.91,0,1.62-.21,2.14-.64.51-.43.78-1.04.81-1.85h2.01c-.02.84-.24,1.56-.65,2.17-.41.61-.98,1.07-1.71,1.4-.73.33-1.6.49-2.6.49ZM339.02,149.3h6.49c-.02-1.11-.31-1.95-.87-2.54-.55-.59-1.32-.88-2.31-.88s-1.77.29-2.34.87c-.57.58-.89,1.43-.98,2.55Z"/>
    <path d="M356.07,156.42v-16.43h5.53c1.72,0,3.18.32,4.39.97,1.21.65,2.14,1.58,2.77,2.81.63,1.23.95,2.71.95,4.43s-.32,3.21-.96,4.44c-.64,1.23-1.56,2.17-2.78,2.81s-2.67.96-4.38.96h-5.53ZM358.27,154.58h2.84c1.44,0,2.63-.23,3.56-.69.94-.46,1.63-1.16,2.09-2.11s.69-2.14.69-3.58-.23-2.62-.7-3.56c-.47-.94-1.17-1.64-2.11-2.11-.94-.46-2.12-.7-3.53-.7h-2.84v12.74Z"/>
    <path d="M376.08,156.64c-.68,0-1.31-.13-1.87-.39-.57-.26-1.02-.64-1.35-1.15-.34-.51-.51-1.14-.51-1.89,0-1.07.33-1.88,1-2.43.67-.55,1.61-.93,2.83-1.13s2.65-.31,4.29-.32v-.83c0-1.02-.25-1.72-.76-2.09-.5-.38-1.14-.57-1.92-.57-.82,0-1.51.21-2.08.62s-.84,1.07-.84,1.97h-1.98c0-.98.21-1.77.63-2.37s1-1.04,1.73-1.32,1.58-.42,2.53-.42c.61,0,1.19.06,1.75.17.56.11,1.06.32,1.5.62.44.3.8.72,1.06,1.26.26.54.39,1.24.39,2.09v7.95h-1.9l-.08-1.81c-.54.61-1.18,1.1-1.9,1.47-.72.37-1.56.56-2.52.56ZM376.61,155.08c.81,0,1.55-.19,2.2-.57s1.2-.87,1.64-1.45v-2.42c-2.17.02-3.72.23-4.66.61-.94.38-1.41,1.01-1.41,1.88,0,.59.19,1.07.57,1.42.38.35.93.53,1.67.53Z"/>
    <path d="M390.04,156.42c-.96,0-1.7-.15-2.21-.46-.51-.3-.86-.74-1.06-1.32-.19-.57-.29-1.26-.29-2.07v-6.4h-1.99v-1.65h1.99v-2.72h2.03v2.72h2.93v1.65h-2.93v6.3c0,.74.1,1.31.29,1.7.19.4.65.59,1.37.59h1.29v1.65h-1.43Z"/>
    <path d="M397.12,156.64c-.68,0-1.31-.13-1.87-.39-.57-.26-1.02-.64-1.35-1.15-.34-.51-.51-1.14-.51-1.89,0-1.07.33-1.88,1-2.43.67-.55,1.61-.93,2.83-1.13s2.65-.31,4.29-.32v-.83c0-1.02-.25-1.72-.76-2.09-.5-.38-1.14-.57-1.92-.57-.82,0-1.51.21-2.08.62s-.84,1.07-.84,1.97h-1.98c0-.98.21-1.77.63-2.37s1-1.04,1.73-1.32,1.58-.42,2.53-.42c.61,0,1.19.06,1.75.17.56.11,1.06.32,1.5.62.44.3.8.72,1.06,1.26.26.54.39,1.24.39,2.09v7.95h-1.9l-.08-1.81c-.54.61-1.18,1.1-1.9,1.47-.72.37-1.56.56-2.52.56ZM397.66,155.08c.81,0,1.55-.19,2.2-.57s1.2-.87,1.64-1.45v-2.42c-2.17.02-3.72.23-4.66.61-.94.38-1.41,1.01-1.41,1.88,0,.59.19,1.07.57,1.42.38.35.93.53,1.67.53Z"/>
    <path d="M411.55,156.64c-.67,0-1.3-.07-1.9-.22-.6-.15-1.12-.38-1.58-.7-.46-.32-.81-.73-1.07-1.25-.26-.52-.38-1.14-.38-1.87h1.97c0,.93.29,1.58.86,1.96.57.38,1.29.57,2.15.57.77,0,1.41-.15,1.91-.45.5-.3.75-.79.75-1.47,0-.59-.23-1.02-.68-1.31-.45-.28-1.25-.56-2.39-.83-.93-.22-1.71-.47-2.34-.76s-1.11-.66-1.43-1.1-.48-1-.48-1.68c0-.53.11-1,.34-1.4.22-.4.54-.74.94-1.01.4-.27.88-.47,1.42-.6.54-.13,1.14-.2,1.77-.2s1.21.07,1.76.22c.55.15,1.03.37,1.45.68s.75.71,1,1.2.37,1.07.37,1.76h-1.98c0-.85-.25-1.44-.76-1.79-.5-.35-1.12-.52-1.84-.52s-1.33.13-1.78.39c-.46.26-.68.67-.68,1.22,0,.32.1.59.31.81s.54.42,1.03.59,1.13.36,1.94.56c.89.21,1.63.46,2.23.76s1.06.67,1.36,1.13c.3.46.46,1.05.46,1.76,0,.62-.12,1.15-.36,1.61-.24.45-.57.82-1,1.11-.43.29-.93.5-1.5.64-.57.14-1.19.21-1.86.21Z"/>
    <path d="M424.28,156.64c-1.29,0-2.35-.27-3.18-.81-.83-.54-1.44-1.28-1.84-2.21-.4-.93-.6-1.98-.6-3.14s.19-2.28.58-3.21c.39-.92.98-1.65,1.77-2.17.79-.52,1.8-.78,3.02-.78,1.62,0,2.89.49,3.81,1.46s1.38,2.38,1.38,4.21c0,.12,0,.27-.01.43s-.02.29-.04.36h-8.47c0,.77.13,1.48.37,2.13.24.65.62,1.17,1.14,1.56.52.39,1.21.59,2.06.59.91,0,1.62-.21,2.14-.64.51-.43.78-1.04.81-1.85h2.01c-.02.84-.24,1.56-.65,2.17-.41.61-.98,1.07-1.71,1.4-.73.33-1.6.49-2.6.49ZM420.72,149.3h6.49c-.02-1.11-.31-1.95-.87-2.54-.55-.59-1.32-.88-2.31-.88s-1.77.29-2.34.87c-.57.58-.89,1.43-.98,2.55Z"/>
    <path d="M436.48,156.42c-.96,0-1.7-.15-2.21-.46-.51-.3-.86-.74-1.06-1.32-.19-.57-.29-1.26-.29-2.07v-6.4h-1.99v-1.65h1.99v-2.72h2.03v2.72h2.93v1.65h-2.93v6.3c0,.74.1,1.31.29,1.7.19.4.65.59,1.37.59h1.29v1.65h-1.43Z"/>
    <path d="M442.21,147.61c-.46,0-.83-.15-1.14-.45-.3-.3-.45-.66-.45-1.09s.15-.82.45-1.1c.3-.29.68-.43,1.14-.43s.82.14,1.11.43.44.66.44,1.1-.15.8-.44,1.09-.66.45-1.11.45ZM442.21,156.54c-.46,0-.83-.15-1.14-.45-.3-.3-.45-.66-.45-1.09s.15-.82.45-1.1c.3-.29.68-.43,1.14-.43s.82.14,1.11.43.44.66.44,1.1-.15.8-.44,1.09-.66.45-1.11.45Z"/>
    <path d="M38.58,186.42l5.91-16.43h3.6l5.92,16.43h-3.58l-1.17-3.61h-5.93l-1.21,3.61h-3.54ZM44.14,179.96h4.27l-2.14-6.58-2.14,6.58Z"/>
    <path d="M61.09,186.42v-16.43h6.76c1.06,0,2,.15,2.83.45.83.3,1.49.78,1.97,1.44.48.66.73,1.54.73,2.64s-.28,1.92-.84,2.65c-.56.72-1.4,1.24-2.53,1.55.69.11,1.25.32,1.66.63.42.31.75.73,1.01,1.26.26.53.49,1.18.7,1.95l1.09,3.86h-3.59l-.77-3.17c-.16-.72-.35-1.3-.56-1.76s-.5-.79-.86-1.02c-.36-.22-.86-.34-1.5-.34h-2.67v6.29h-3.43ZM64.52,177.3h2.76c.54,0,1-.08,1.39-.26.39-.17.69-.43.9-.77.21-.34.32-.76.32-1.26,0-.72-.22-1.27-.66-1.64s-1.02-.55-1.75-.55h-2.95v4.47Z"/>
    <path d="M82.18,186.64c-1.33,0-2.44-.25-3.35-.74-.9-.49-1.59-1.2-2.05-2.13-.46-.93-.7-2.04-.7-3.35s.23-2.35.68-3.26c.45-.91,1.11-1.61,1.99-2.11s1.95-.74,3.23-.74c1.77,0,3.17.52,4.21,1.56,1.03,1.04,1.54,2.52,1.54,4.44,0,.1,0,.23-.01.4,0,.17-.02.29-.04.38h-8.36c.02.56.12,1.09.31,1.57s.5.88.91,1.18c.42.3.96.45,1.64.45s1.26-.15,1.68-.46c.42-.3.64-.76.65-1.36h3.19c-.04.93-.3,1.7-.76,2.32-.47.62-1.11,1.08-1.92,1.38-.81.31-1.76.46-2.84.46ZM79.36,179.05h5.16c-.03-.83-.27-1.45-.74-1.86s-1.07-.62-1.8-.62-1.36.21-1.84.63c-.48.42-.74,1.04-.79,1.84Z"/>
    <path d="M93.85,186.63c-.68,0-1.31-.13-1.89-.39-.59-.26-1.06-.65-1.42-1.18-.36-.52-.54-1.18-.54-1.97,0-1.1.33-1.93.99-2.48.66-.56,1.58-.94,2.77-1.14,1.18-.2,2.56-.32,4.13-.35v-.63c0-.77-.19-1.3-.56-1.59s-.85-.43-1.43-.43c-.64,0-1.17.15-1.59.46-.41.31-.62.8-.62,1.48h-3.03c0-1.02.22-1.82.67-2.42s1.06-1.02,1.84-1.28c.79-.26,1.69-.39,2.73-.39.76,0,1.45.06,2.07.19.63.13,1.17.34,1.63.65s.82.73,1.07,1.26.38,1.2.38,2v8h-3.03l-.1-1.55c-.5.58-1.09,1.02-1.76,1.31-.67.3-1.44.45-2.31.45ZM94.91,184.41c.61,0,1.17-.16,1.69-.48.52-.32.93-.68,1.24-1.09v-1.93c-1.71,0-2.91.17-3.59.48-.68.31-1.03.82-1.03,1.52,0,.5.16.88.47,1.12.31.24.72.37,1.21.37Z"/>
    <path d="M108.87,186.42c-1.21,0-2.15-.14-2.81-.43-.66-.29-1.12-.74-1.38-1.34-.26-.61-.39-1.4-.39-2.37v-12.28h3.22v12.08c0,.63.09,1.09.26,1.38s.57.44,1.2.44h.74v2.53h-.84Z"/>
    <path d="M113.42,172.94c-.59,0-1.05-.15-1.36-.45-.31-.3-.47-.68-.47-1.12s.16-.83.47-1.13c.31-.3.77-.45,1.36-.45s1.05.15,1.36.45c.31.3.47.67.47,1.13s-.16.82-.47,1.12c-.31.3-.77.45-1.36.45ZM111.79,186.42v-11.91h3.24v11.91h-3.24Z"/>
    <path d="M123.64,186.42c-1.21,0-2.14-.14-2.8-.43-.66-.29-1.12-.74-1.39-1.34-.26-.61-.39-1.4-.39-2.37v-5.27h-1.98v-2.49h1.98v-2.81h3.23v2.81h2.6v2.49h-2.6v5.08c0,.63.09,1.09.26,1.39s.57.45,1.19.45h1.15v2.5h-1.26Z"/>
    <path d="M127.09,190.79v-2.62h1.07c.48,0,.88-.09,1.2-.26s.56-.45.7-.84l.27-.65-4.64-11.91h3.37l3.02,8.81,2.69-8.81h3.27l-4.29,11.91-.44,1.18c-.31.84-.67,1.49-1.07,1.95-.41.46-.91.79-1.5.96-.59.18-1.33.27-2.2.27h-1.45Z"/>
    <path d="M152.33,186.64c-1.66,0-3.09-.35-4.29-1.04-1.2-.7-2.12-1.67-2.76-2.93-.64-1.26-.96-2.74-.96-4.45s.32-3.2.96-4.46c.64-1.26,1.56-2.25,2.76-2.94,1.2-.7,2.62-1.04,4.29-1.04,1.29,0,2.47.22,3.55.67,1.08.44,1.96,1.1,2.64,1.97.68.87,1.05,1.93,1.11,3.2h-3.52c-.09-.67-.31-1.22-.65-1.66-.35-.44-.79-.77-1.32-.99-.54-.22-1.14-.33-1.81-.33-1.07,0-1.94.26-2.59.78s-1.13,1.2-1.43,2.04c-.3.84-.45,1.76-.45,2.76s.15,1.91.45,2.76c.3.85.77,1.53,1.43,2.04.66.51,1.52.77,2.59.77,1.13,0,2.02-.29,2.68-.87.66-.58,1.03-1.41,1.13-2.48h3.52c-.1,1.34-.45,2.48-1.06,3.4s-1.44,1.62-2.5,2.1c-1.06.48-2.31.71-3.76.71Z"/>
    <path d="M162.51,186.42v-16.43h3.17v6.3c.4-.51.92-.97,1.58-1.36.65-.39,1.49-.59,2.51-.59,1.24,0,2.19.36,2.85,1.09s1,1.81,1,3.24v7.75h-3.23v-7.35c0-.42-.06-.8-.18-1.12s-.31-.58-.57-.76-.61-.27-1.04-.27c-.64,0-1.19.15-1.65.45-.46.3-.86.67-1.2,1.1v7.95h-3.24Z"/>
    <path d="M182.47,186.64c-1.33,0-2.44-.25-3.35-.74-.9-.49-1.59-1.2-2.05-2.13-.46-.93-.7-2.04-.7-3.35s.23-2.35.68-3.26c.45-.91,1.11-1.61,1.99-2.11s1.95-.74,3.23-.74c1.77,0,3.17.52,4.21,1.56,1.03,1.04,1.54,2.52,1.54,4.44,0,.1,0,.23-.01.4,0,.17-.02.29-.04.38h-8.36c.02.56.12,1.09.31,1.57s.5.88.91,1.18c.42.3.96.45,1.64.45s1.26-.15,1.68-.46c.42-.3.64-.76.65-1.36h3.19c-.04.93-.3,1.7-.76,2.32-.47.62-1.11,1.08-1.92,1.38-.81.31-1.76.46-2.84.46ZM179.65,179.05h5.16c-.03-.83-.27-1.45-.74-1.86s-1.07-.62-1.8-.62-1.36.21-1.84.63c-.48.42-.74,1.04-.79,1.84Z"/>
    <path d="M196.24,186.59c-1.11,0-2.11-.21-3.02-.63-.9-.42-1.62-1.08-2.15-1.98-.53-.9-.79-2.05-.79-3.47s.25-2.58.76-3.49,1.21-1.59,2.11-2.03,1.93-.67,3.09-.67c1.01,0,1.92.17,2.73.5s1.46.83,1.94,1.5c.48.66.72,1.5.73,2.51h-3.14c-.02-.61-.22-1.1-.61-1.46-.39-.36-.94-.54-1.65-.54-.94,0-1.61.32-2.03.96-.42.64-.63,1.55-.63,2.72,0,.76.09,1.4.27,1.93.18.53.47.94.87,1.22.39.28.9.42,1.52.42.72,0,1.3-.2,1.72-.59.42-.39.64-.95.65-1.68h3.14c-.02,1.03-.27,1.9-.75,2.61-.48.71-1.12,1.25-1.95,1.61-.82.37-1.76.55-2.82.55Z"/>
    <path d="M204.62,186.42v-16.43h3.24v10.01l4.65-5.49h3.52l-4.71,5.48,5.05,6.43h-3.69l-4.82-6.29v6.29h-3.24Z"/>
    <path d="M228.46,186.62c-1.2,0-2.26-.24-3.17-.72-.91-.48-1.61-1.18-2.11-2.09-.5-.91-.74-2.01-.74-3.31s.25-2.44.74-3.36c.5-.92,1.2-1.63,2.11-2.11.91-.48,1.96-.73,3.17-.73s2.29.24,3.19.73c.91.48,1.61,1.19,2.12,2.11s.76,2.04.76,3.36-.25,2.4-.76,3.31-1.21,1.61-2.12,2.09c-.91.48-1.97.72-3.19.72ZM228.46,184.15c.71,0,1.26-.17,1.67-.49.4-.33.69-.77.85-1.33.17-.55.25-1.16.25-1.83s-.08-1.31-.25-1.87c-.17-.56-.45-1.01-.85-1.34-.4-.33-.96-.5-1.67-.5s-1.23.17-1.63.5c-.4.33-.67.78-.84,1.34-.16.56-.24,1.18-.24,1.87s.08,1.28.24,1.83c.16.55.44,1,.84,1.33.39.33.94.49,1.63.49Z"/>
    <path d="M237.89,186.42v-9.42h-1.98v-2.49h1.98v-.38c0-.72.07-1.34.21-1.86.14-.52.38-.95.71-1.29.34-.33.8-.58,1.4-.75s1.35-.24,2.26-.24h1.18v2.34h-1.07c-.62,0-1.02.14-1.19.43-.17.29-.26.74-.26,1.37v.38h2.54v2.49h-2.54v9.42h-3.23Z"/>
    <path d="M256.64,186.64c-1.25,0-2.37-.18-3.36-.53-1-.35-1.79-.92-2.37-1.69s-.88-1.78-.88-3.03h3.52c.02.63.16,1.13.44,1.5.28.36.65.62,1.12.78.47.15,1,.23,1.61.23s1.09-.07,1.53-.21.78-.35,1.03-.64.37-.66.37-1.11-.11-.79-.32-1.07c-.21-.28-.59-.54-1.12-.77-.54-.23-1.29-.48-2.26-.75-1.13-.33-2.11-.68-2.94-1.07-.83-.39-1.46-.89-1.92-1.51-.45-.62-.68-1.42-.68-2.42,0-1.07.26-1.94.77-2.61.52-.67,1.23-1.17,2.14-1.48s1.96-.48,3.14-.48,2.15.17,3.09.51c.94.34,1.69.86,2.25,1.56.56.7.84,1.59.84,2.67h-3.52c0-.7-.25-1.22-.78-1.57s-1.16-.52-1.9-.52-1.34.14-1.82.41c-.48.27-.72.69-.72,1.26,0,.33.1.61.31.86.2.25.58.49,1.13.73.55.24,1.34.5,2.39.81,1.24.37,2.27.75,3.06,1.15.8.4,1.39.92,1.78,1.56.39.64.58,1.48.58,2.52,0,1.16-.29,2.1-.86,2.82-.57.72-1.34,1.24-2.33,1.57-.98.33-2.09.5-3.33.5Z"/>
    <path d="M271.41,186.59c-1.11,0-2.11-.21-3.02-.63-.9-.42-1.62-1.08-2.15-1.98-.53-.9-.79-2.05-.79-3.47s.25-2.58.76-3.49,1.21-1.59,2.11-2.03,1.93-.67,3.09-.67c1.01,0,1.92.17,2.73.5s1.46.83,1.94,1.5c.48.66.72,1.5.73,2.51h-3.14c-.02-.61-.22-1.1-.61-1.46-.39-.36-.94-.54-1.65-.54-.94,0-1.61.32-2.03.96-.42.64-.63,1.55-.63,2.72,0,.76.09,1.4.27,1.93.18.53.47.94.87,1.22.39.28.9.42,1.52.42.72,0,1.3-.2,1.72-.59.42-.39.64-.95.65-1.68h3.14c-.02,1.03-.27,1.9-.75,2.61-.48.71-1.12,1.25-1.95,1.61-.82.37-1.76.55-2.82.55Z"/>
    <path d="M279.79,186.42v-16.43h3.17v6.3c.4-.51.92-.97,1.58-1.36.65-.39,1.49-.59,2.51-.59,1.24,0,2.19.36,2.85,1.09s1,1.81,1,3.24v7.75h-3.23v-7.35c0-.42-.06-.8-.18-1.12s-.31-.58-.57-.76-.61-.27-1.04-.27c-.64,0-1.19.15-1.65.45-.46.3-.86.67-1.2,1.1v7.95h-3.24Z"/>
    <path d="M299.75,186.64c-1.33,0-2.44-.25-3.35-.74-.9-.49-1.59-1.2-2.05-2.13-.46-.93-.7-2.04-.7-3.35s.23-2.35.68-3.26c.45-.91,1.11-1.61,1.99-2.11s1.95-.74,3.23-.74c1.77,0,3.17.52,4.21,1.56,1.03,1.04,1.54,2.52,1.54,4.44,0,.1,0,.23-.01.4,0,.17-.02.29-.04.38h-8.36c.02.56.12,1.09.31,1.57s.5.88.91,1.18c.42.3.96.45,1.64.45s1.26-.15,1.68-.46c.42-.3.64-.76.65-1.36h3.19c-.04.93-.3,1.7-.76,2.32-.47.62-1.11,1.08-1.92,1.38-.81.31-1.76.46-2.84.46ZM296.93,179.05h5.16c-.03-.83-.27-1.45-.74-1.86s-1.07-.62-1.8-.62-1.36.21-1.84.63c-.48.42-.74,1.04-.79,1.84Z"/>
    <path d="M312.27,186.63c-.9,0-1.7-.22-2.41-.67s-1.27-1.13-1.68-2.06-.62-2.1-.62-3.52.22-2.51.67-3.41,1.04-1.56,1.8-2,1.61-.66,2.55-.66c.83,0,1.54.17,2.14.51s1.07.79,1.42,1.34v-6.18h3.24v16.43h-3.1l-.13-1.7c-.42.59-.95,1.05-1.58,1.39-.63.34-1.39.51-2.28.51ZM313.22,184.16c.68,0,1.27-.19,1.77-.57.5-.38.88-.83,1.14-1.34v-3.48c-.25-.54-.61-1-1.06-1.4-.46-.4-1.02-.6-1.69-.6-.8,0-1.42.31-1.86.93-.44.62-.66,1.51-.66,2.69,0,1.29.21,2.24.63,2.86.42.62,1,.93,1.73.93Z"/>
    <path d="M326.49,186.58c-1.21,0-2.14-.37-2.8-1.12-.66-.75-.99-1.8-.99-3.18v-7.78h3.24v7.38c0,.41.06.77.18,1.08s.31.56.59.73c.27.17.63.26,1.08.26.65,0,1.21-.14,1.67-.43.46-.29.86-.64,1.2-1.06v-7.96h3.23v11.91h-3.12l-.05-1.79c-.4.5-.94.96-1.63,1.36-.69.4-1.55.6-2.59.6Z"/>
    <path d="M341.82,186.42c-1.21,0-2.15-.14-2.81-.43-.66-.29-1.12-.74-1.38-1.34-.26-.61-.39-1.4-.39-2.37v-12.28h3.22v12.08c0,.63.09,1.09.26,1.38s.57.44,1.2.44h.74v2.53h-.84Z"/>
    <path d="M346.38,172.94c-.59,0-1.05-.15-1.36-.45-.31-.3-.47-.68-.47-1.12s.16-.83.47-1.13c.31-.3.77-.45,1.36-.45s1.05.15,1.36.45c.31.3.47.67.47,1.13s-.16.82-.47,1.12c-.31.3-.77.45-1.36.45ZM344.75,186.42v-11.91h3.24v11.91h-3.24Z"/>
    <path d="M351.46,186.42v-11.91h3.11l.06,1.78c.4-.51.92-.97,1.58-1.36.65-.39,1.5-.59,2.54-.59,1.21,0,2.15.37,2.82,1.1.67.74,1,1.81,1,3.23v7.75h-3.21v-7.34c0-.43-.06-.81-.18-1.14s-.32-.58-.58-.76-.61-.27-1.04-.27c-.64,0-1.19.15-1.65.45-.46.3-.86.67-1.2,1.1v7.95h-3.24Z"/>
    <path d="M370.62,191.02c-1.42,0-2.56-.15-3.39-.44s-1.44-.68-1.81-1.15c-.37-.48-.55-.99-.55-1.54,0-.68.32-1.27.96-1.78.64-.51,1.66-.86,3.05-1.07l.54-1.15h1.61c1.98,0,3.42.27,4.33.82s1.36,1.38,1.36,2.5-.52,2.06-1.56,2.76c-1.04.7-2.56,1.05-4.54,1.05ZM368.94,186.15c-.85-.1-1.55-.27-2.08-.52s-.92-.54-1.16-.86c-.24-.33-.37-.65-.37-.96,0-.5.19-.92.57-1.26.38-.35.95-.65,1.71-.91l1.68.61c-.44.11-.81.23-1.1.38s-.44.33-.44.56c0,.15.09.28.26.39.17.11.48.18.92.24.44.05,1.04.08,1.8.08l-1.81,2.26ZM370.4,182.62c-1.07,0-1.99-.19-2.75-.57-.76-.38-1.33-.89-1.72-1.51s-.59-1.3-.59-2.03c0-.77.2-1.47.59-2.09.39-.62.97-1.12,1.74-1.5.77-.37,1.7-.56,2.8-.56s2.07.19,2.81.56c.75.37,1.3.87,1.67,1.5.37.62.56,1.32.56,2.09s-.19,1.42-.57,2.05c-.38.63-.94,1.13-1.7,1.5-.75.37-1.7.56-2.85.56ZM370.57,189c1.09,0,1.86-.14,2.31-.43.45-.29.67-.63.67-1.04,0-.26-.08-.48-.23-.66-.16-.18-.41-.32-.77-.41s-.83-.15-1.43-.15h-2.17c-.32.12-.58.29-.77.52-.2.22-.3.48-.3.77,0,.34.21.66.63.95.42.29,1.11.44,2.06.44ZM370.4,180.68c.6,0,1.1-.18,1.51-.56.4-.37.6-.91.6-1.62,0-.75-.19-1.31-.56-1.67-.38-.37-.86-.55-1.46-.55s-1.12.19-1.51.57c-.4.38-.6.93-.6,1.65s.21,1.26.62,1.62c.41.37.88.55,1.41.55ZM373.81,176.17l-.95-1.21c.32-.85.81-1.42,1.47-1.73.66-.31,1.46-.47,2.4-.48v2.36c-.63,0-1.21.06-1.74.18-.53.12-.92.41-1.18.88Z"/>
    <path d="M387.04,186.63c-.68,0-1.31-.13-1.89-.39-.59-.26-1.06-.65-1.42-1.18-.36-.52-.54-1.18-.54-1.97,0-1.1.33-1.93.99-2.48.66-.56,1.58-.94,2.77-1.14,1.18-.2,2.56-.32,4.13-.35v-.63c0-.77-.19-1.3-.56-1.59s-.85-.43-1.43-.43c-.64,0-1.17.15-1.59.46-.41.31-.62.8-.62,1.48h-3.03c0-1.02.22-1.82.67-2.42s1.06-1.02,1.84-1.28c.79-.26,1.69-.39,2.73-.39.76,0,1.45.06,2.07.19.63.13,1.17.34,1.63.65s.82.73,1.07,1.26.38,1.2.38,2v8h-3.03l-.1-1.55c-.5.58-1.09,1.02-1.76,1.31-.67.3-1.44.45-2.31.45ZM388.1,184.41c.61,0,1.17-.16,1.69-.48.52-.32.93-.68,1.24-1.09v-1.93c-1.71,0-2.91.17-3.59.48-.68.31-1.03.82-1.03,1.52,0,.5.16.88.47,1.12.31.24.72.37,1.21.37Z"/>
    <path d="M397.59,186.42v-11.91h3.11l.06,1.78c.4-.51.92-.97,1.58-1.36.65-.39,1.5-.59,2.54-.59,1.21,0,2.15.37,2.82,1.1.67.74,1,1.81,1,3.23v7.75h-3.21v-7.34c0-.43-.06-.81-.18-1.14s-.32-.58-.58-.76-.61-.27-1.04-.27c-.64,0-1.19.15-1.65.45-.46.3-.86.67-1.2,1.1v7.95h-3.24Z"/>
    <path d="M416.17,186.63c-.9,0-1.7-.22-2.41-.67s-1.27-1.13-1.68-2.06-.62-2.1-.62-3.52.22-2.51.67-3.41,1.04-1.56,1.8-2,1.61-.66,2.55-.66c.83,0,1.54.17,2.14.51s1.07.79,1.42,1.34v-6.18h3.24v16.43h-3.1l-.13-1.7c-.42.59-.95,1.05-1.58,1.39-.63.34-1.39.51-2.28.51ZM417.12,184.16c.68,0,1.27-.19,1.77-.57.5-.38.88-.83,1.14-1.34v-3.48c-.25-.54-.61-1-1.06-1.4-.46-.4-1.02-.6-1.69-.6-.8,0-1.42.31-1.86.93-.44.62-.66,1.51-.66,2.69,0,1.29.21,2.24.63,2.86.42.62,1,.93,1.73.93Z"/>
    <path d="M432.02,186.42v-16.43h6.45c1.08,0,2.07.19,2.96.57.89.38,1.6.96,2.13,1.75s.79,1.78.79,2.99-.26,2.19-.79,2.97-1.24,1.36-2.13,1.74c-.89.38-1.88.57-2.96.57h-3.01v5.85h-3.43ZM435.45,177.81h2.7c.8,0,1.44-.21,1.93-.63.49-.42.74-1.05.74-1.88s-.25-1.5-.76-1.92-1.14-.62-1.92-.62h-2.7v5.05Z"/>
    <path d="M450.78,186.42c-1.21,0-2.15-.14-2.81-.43-.66-.29-1.12-.74-1.38-1.34-.26-.61-.39-1.4-.39-2.37v-12.28h3.22v12.08c0,.63.09,1.09.26,1.38s.57.44,1.2.44h.74v2.53h-.84Z"/>
    <path d="M457.23,186.63c-.68,0-1.31-.13-1.89-.39-.59-.26-1.06-.65-1.42-1.18-.36-.52-.54-1.18-.54-1.97,0-1.1.33-1.93.99-2.48.66-.56,1.58-.94,2.77-1.14,1.18-.2,2.56-.32,4.13-.35v-.63c0-.77-.19-1.3-.56-1.59s-.85-.43-1.43-.43c-.64,0-1.17.15-1.59.46-.41.31-.62.8-.62,1.48h-3.03c0-1.02.22-1.82.67-2.42s1.06-1.02,1.84-1.28c.79-.26,1.69-.39,2.73-.39.76,0,1.45.06,2.07.19.63.13,1.17.34,1.63.65s.82.73,1.07,1.26.38,1.2.38,2v8h-3.03l-.1-1.55c-.5.58-1.09,1.02-1.76,1.31-.67.3-1.44.45-2.31.45ZM458.29,184.41c.61,0,1.17-.16,1.69-.48.52-.32.93-.68,1.24-1.09v-1.93c-1.71,0-2.91.17-3.59.48-.68.31-1.03.82-1.03,1.52,0,.5.16.88.47,1.12.31.24.72.37,1.21.37Z"/>
    <path d="M473.12,186.59c-1.11,0-2.11-.21-3.02-.63-.9-.42-1.62-1.08-2.15-1.98-.53-.9-.79-2.05-.79-3.47s.25-2.58.76-3.49,1.21-1.59,2.11-2.03,1.93-.67,3.09-.67c1.01,0,1.92.17,2.73.5s1.46.83,1.94,1.5c.48.66.72,1.5.73,2.51h-3.14c-.02-.61-.22-1.1-.61-1.46-.39-.36-.94-.54-1.65-.54-.94,0-1.61.32-2.03.96-.42.64-.63,1.55-.63,2.72,0,.76.09,1.4.27,1.93.18.53.47.94.87,1.22.39.28.9.42,1.52.42.72,0,1.3-.2,1.72-.59.42-.39.64-.95.65-1.68h3.14c-.02,1.03-.27,1.9-.75,2.61-.48.71-1.12,1.25-1.95,1.61-.82.37-1.76.55-2.82.55Z"/>
    <path d="M486.98,186.64c-1.33,0-2.44-.25-3.35-.74-.9-.49-1.59-1.2-2.05-2.13-.46-.93-.7-2.04-.7-3.35s.23-2.35.68-3.26c.45-.91,1.11-1.61,1.99-2.11s1.95-.74,3.23-.74c1.77,0,3.17.52,4.21,1.56,1.03,1.04,1.54,2.52,1.54,4.44,0,.1,0,.23-.01.4,0,.17-.02.29-.04.38h-8.36c.02.56.12,1.09.31,1.57s.5.88.91,1.18c.42.3.96.45,1.64.45s1.26-.15,1.68-.46c.42-.3.64-.76.65-1.36h3.19c-.04.93-.3,1.7-.76,2.32-.47.62-1.11,1.08-1.92,1.38-.81.31-1.76.46-2.84.46ZM484.16,179.05h5.16c-.03-.83-.27-1.45-.74-1.86s-1.07-.62-1.8-.62-1.36.21-1.84.63c-.48.42-.74,1.04-.79,1.84Z"/>
    <path d="M495.4,186.42v-11.91h3.11l.06,1.78c.39-.51.93-.97,1.62-1.36.69-.39,1.54-.59,2.55-.59,1.2,0,2.11.38,2.75,1.13.64.75.96,1.82.96,3.2v7.75h-3.24v-7.34c0-.43-.06-.81-.18-1.14-.12-.33-.31-.58-.57-.76s-.61-.27-1.03-.27c-.63,0-1.16.15-1.61.45-.45.3-.84.67-1.18,1.1v7.95h-3.24ZM511.04,186.42v-7.34c0-.43-.06-.81-.18-1.14s-.31-.58-.57-.76c-.26-.18-.61-.27-1.03-.27-.63,0-1.17.14-1.62.42-.45.28-.86.62-1.21,1.04l-.39-2c.51-.54,1.14-1.02,1.89-1.43.74-.41,1.62-.61,2.63-.61,1.19,0,2.11.38,2.75,1.13.65.75.97,1.82.97,3.2v7.75h-3.23Z"/>
    <path d="M523.11,186.64c-1.33,0-2.44-.25-3.35-.74-.9-.49-1.59-1.2-2.05-2.13-.46-.93-.7-2.04-.7-3.35s.23-2.35.68-3.26c.45-.91,1.11-1.61,1.99-2.11s1.95-.74,3.23-.74c1.77,0,3.17.52,4.21,1.56,1.03,1.04,1.54,2.52,1.54,4.44,0,.1,0,.23-.01.4,0,.17-.02.29-.04.38h-8.36c.02.56.12,1.09.31,1.57s.5.88.91,1.18c.42.3.96.45,1.64.45s1.26-.15,1.68-.46c.42-.3.64-.76.65-1.36h3.19c-.04.93-.3,1.7-.76,2.32-.47.62-1.11,1.08-1.92,1.38-.81.31-1.76.46-2.84.46ZM520.29,179.05h5.16c-.03-.83-.27-1.45-.74-1.86s-1.07-.62-1.8-.62-1.36.21-1.84.63c-.48.42-.74,1.04-.79,1.84Z"/>
    <path d="M531.53,186.42v-11.91h3.11l.06,1.78c.4-.51.92-.97,1.58-1.36.65-.39,1.5-.59,2.54-.59,1.21,0,2.15.37,2.82,1.1.67.74,1,1.81,1,3.23v7.75h-3.21v-7.34c0-.43-.06-.81-.18-1.14s-.32-.58-.58-.76-.61-.27-1.04-.27c-.64,0-1.19.15-1.65.45-.46.3-.86.67-1.2,1.1v7.95h-3.24Z"/>
    <path d="M551.1,186.42c-1.21,0-2.14-.14-2.8-.43-.66-.29-1.12-.74-1.39-1.34-.26-.61-.39-1.4-.39-2.37v-5.27h-1.98v-2.49h1.98v-2.81h3.23v2.81h2.6v2.49h-2.6v5.08c0,.63.09,1.09.26,1.39s.57.45,1.19.45h1.15v2.5h-1.26Z"/>
    <path d="M45.68,216.62c-1.2,0-2.26-.24-3.17-.72-.91-.48-1.61-1.18-2.11-2.09-.5-.91-.74-2.01-.74-3.31s.25-2.44.74-3.36c.5-.92,1.2-1.63,2.11-2.11.91-.48,1.96-.73,3.17-.73s2.29.24,3.19.73c.91.48,1.61,1.19,2.12,2.11s.76,2.04.76,3.36-.25,2.4-.76,3.31-1.21,1.61-2.12,2.09c-.91.48-1.97.72-3.19.72ZM45.68,214.15c.71,0,1.26-.17,1.67-.49.4-.33.69-.77.85-1.33.17-.55.25-1.16.25-1.83s-.08-1.31-.25-1.87c-.17-.56-.45-1.01-.85-1.34-.4-.33-.96-.5-1.67-.5s-1.23.17-1.63.5c-.4.33-.67.78-.84,1.34-.16.56-.24,1.18-.24,1.87s.08,1.28.24,1.83c.16.55.44,1,.84,1.33.39.33.94.49,1.63.49Z"/>
    <path d="M55.12,216.42v-9.42h-1.98v-2.49h1.98v-.38c0-.72.07-1.34.21-1.86.14-.52.38-.95.71-1.29.34-.33.8-.58,1.4-.75s1.35-.24,2.26-.24h1.18v2.34h-1.07c-.62,0-1.02.14-1.19.43-.17.29-.26.74-.26,1.37v.38h2.54v2.49h-2.54v9.42h-3.23Z"/>
    <path d="M71.94,216.42l-5.58-16.43h3.67l3.97,12.93,4.03-12.93h3.67l-5.7,16.43h-4.06Z"/>
    <path d="M83.71,216.42v-16.43h3.94l5.15,8.76h-1.37l5.08-8.76h3.8v16.43h-3.38v-14.6h1.5l-5.37,9.35h-2.11l-5.5-9.35h1.55v14.6h-3.28Z"/>
    <path d="M108.78,216.64c-.66,0-1.31-.06-1.94-.18-.63-.12-1.21-.33-1.72-.63s-.92-.7-1.22-1.21-.45-1.15-.45-1.92h3c0,.67.23,1.13.7,1.39.47.26,1.02.39,1.64.39s1.1-.1,1.44-.3c.34-.2.51-.54.51-1.01,0-.45-.2-.78-.6-1-.4-.22-1.11-.44-2.12-.67-.85-.2-1.6-.45-2.26-.74-.66-.29-1.18-.67-1.56-1.16-.38-.48-.56-1.12-.56-1.91,0-.62.14-1.14.43-1.57s.67-.78,1.14-1.04c.48-.26,1.01-.46,1.61-.58.6-.12,1.21-.18,1.84-.18s1.21.06,1.79.18c.59.12,1.11.33,1.59.62.47.29.85.68,1.14,1.17s.43,1.1.43,1.83h-3c0-.61-.19-1.03-.58-1.27-.39-.24-.84-.35-1.36-.35-.56,0-1,.08-1.32.24-.32.16-.48.43-.48.81,0,.22.1.41.3.58.2.17.53.32.98.46.45.14,1.04.29,1.77.46.77.18,1.46.41,2.08.7s1.09.67,1.45,1.15c.36.48.54,1.1.54,1.87,0,.72-.15,1.32-.43,1.82-.29.5-.68.9-1.16,1.2-.48.31-1.04.53-1.66.67-.62.14-1.27.21-1.93.21Z"/>
    <path d="M123.59,202.94c-.59,0-1.05-.15-1.36-.45-.31-.3-.47-.68-.47-1.12s.16-.83.47-1.13c.31-.3.77-.45,1.36-.45s1.05.15,1.36.45c.31.3.47.67.47,1.13s-.16.82-.47,1.12c-.31.3-.77.45-1.36.45ZM121.96,216.42v-11.91h3.24v11.91h-3.24Z"/>
    <path d="M128.67,216.42v-11.91h3.11l.06,1.78c.4-.51.92-.97,1.58-1.36.65-.39,1.5-.59,2.54-.59,1.21,0,2.15.37,2.82,1.1.67.74,1,1.81,1,3.23v7.75h-3.21v-7.34c0-.43-.06-.81-.18-1.14s-.32-.58-.58-.76-.61-.27-1.04-.27c-.64,0-1.19.15-1.65.45-.46.3-.86.67-1.2,1.1v7.95h-3.24Z"/>
    <path d="M155.7,216.64c-1.66,0-3.09-.35-4.29-1.04-1.2-.7-2.12-1.67-2.76-2.93-.64-1.26-.96-2.74-.96-4.45s.32-3.2.96-4.46c.64-1.26,1.56-2.25,2.76-2.94,1.2-.7,2.62-1.04,4.29-1.04,1.29,0,2.47.22,3.55.67,1.08.44,1.96,1.1,2.64,1.97.68.87,1.05,1.93,1.11,3.2h-3.52c-.09-.67-.31-1.22-.65-1.66-.35-.44-.79-.77-1.32-.99-.54-.22-1.14-.33-1.81-.33-1.07,0-1.94.26-2.59.78s-1.13,1.2-1.43,2.04c-.3.84-.45,1.76-.45,2.76s.15,1.91.45,2.76c.3.85.77,1.53,1.43,2.04.66.51,1.52.77,2.59.77,1.13,0,2.02-.29,2.68-.87.66-.58,1.03-1.41,1.13-2.48h3.52c-.1,1.34-.45,2.48-1.06,3.4s-1.44,1.62-2.5,2.1c-1.06.48-2.31.71-3.76.71Z"/>
    <path d="M170.35,216.42c-1.21,0-2.15-.14-2.81-.43-.66-.29-1.12-.74-1.38-1.34-.26-.61-.39-1.4-.39-2.37v-12.28h3.22v12.08c0,.63.09,1.09.26,1.38s.57.44,1.2.44h.74v2.53h-.84Z"/>
    <path d="M178.69,216.62c-1.2,0-2.26-.24-3.17-.72-.91-.48-1.61-1.18-2.11-2.09-.5-.91-.74-2.01-.74-3.31s.25-2.44.74-3.36c.5-.92,1.2-1.63,2.11-2.11.91-.48,1.96-.73,3.17-.73s2.29.24,3.19.73c.91.48,1.61,1.19,2.12,2.11s.76,2.04.76,3.36-.25,2.4-.76,3.31-1.21,1.61-2.12,2.09c-.91.48-1.97.72-3.19.72ZM178.69,214.15c.71,0,1.26-.17,1.67-.49.4-.33.69-.77.85-1.33.17-.55.25-1.16.25-1.83s-.08-1.31-.25-1.87c-.17-.56-.45-1.01-.85-1.34-.4-.33-.96-.5-1.67-.5s-1.23.17-1.63.5c-.4.33-.67.78-.84,1.34-.16.56-.24,1.18-.24,1.87s.08,1.28.24,1.83c.16.55.44,1,.84,1.33.39.33.94.49,1.63.49Z"/>
    <path d="M191.08,216.58c-1.21,0-2.14-.37-2.8-1.12-.66-.75-.99-1.8-.99-3.18v-7.78h3.24v7.38c0,.41.06.77.18,1.08s.31.56.59.73c.27.17.63.26,1.08.26.65,0,1.21-.14,1.67-.43.46-.29.86-.64,1.2-1.06v-7.96h3.23v11.91h-3.12l-.05-1.79c-.4.5-.94.96-1.63,1.36-.69.4-1.55.6-2.59.6Z"/>
    <path d="M206.05,216.63c-.9,0-1.7-.22-2.41-.67s-1.27-1.13-1.68-2.06-.62-2.1-.62-3.52.22-2.51.67-3.41,1.04-1.56,1.8-2,1.61-.66,2.55-.66c.83,0,1.54.17,2.14.51s1.07.79,1.42,1.34v-6.18h3.24v16.43h-3.1l-.13-1.7c-.42.59-.95,1.05-1.58,1.39-.63.34-1.39.51-2.28.51ZM207,214.16c.68,0,1.27-.19,1.77-.57.5-.38.88-.83,1.14-1.34v-3.48c-.25-.54-.61-1-1.06-1.4-.46-.4-1.02-.6-1.69-.6-.8,0-1.42.31-1.86.93-.44.62-.66,1.51-.66,2.69,0,1.29.21,2.24.63,2.86.42.62,1,.93,1.73.93Z"/>
    <path d="M229.15,216.64c-1.66,0-3.09-.35-4.29-1.04-1.2-.7-2.12-1.67-2.76-2.93-.64-1.26-.96-2.74-.96-4.45s.32-3.2.96-4.46c.64-1.26,1.56-2.25,2.76-2.94,1.2-.7,2.62-1.04,4.29-1.04,1.29,0,2.47.22,3.55.67,1.08.44,1.96,1.1,2.64,1.97.68.87,1.05,1.93,1.11,3.2h-3.52c-.09-.67-.31-1.22-.65-1.66-.35-.44-.79-.77-1.32-.99-.54-.22-1.14-.33-1.81-.33-1.07,0-1.94.26-2.59.78s-1.13,1.2-1.43,2.04c-.3.84-.45,1.76-.45,2.76s.15,1.91.45,2.76c.3.85.77,1.53,1.43,2.04.66.51,1.52.77,2.59.77,1.13,0,2.02-.29,2.68-.87.66-.58,1.03-1.41,1.13-2.48h3.52c-.1,1.34-.45,2.48-1.06,3.4s-1.44,1.62-2.5,2.1c-1.06.48-2.31.71-3.76.71Z"/>
    <path d="M244.74,216.62c-1.2,0-2.26-.24-3.17-.72-.91-.48-1.61-1.18-2.11-2.09-.5-.91-.74-2.01-.74-3.31s.25-2.44.74-3.36c.5-.92,1.2-1.63,2.11-2.11.91-.48,1.96-.73,3.17-.73s2.29.24,3.19.73c.91.48,1.61,1.19,2.12,2.11s.76,2.04.76,3.36-.25,2.4-.76,3.31-1.21,1.61-2.12,2.09c-.91.48-1.97.72-3.19.72ZM244.74,214.15c.71,0,1.26-.17,1.67-.49.4-.33.69-.77.85-1.33.17-.55.25-1.16.25-1.83s-.08-1.31-.25-1.87c-.17-.56-.45-1.01-.85-1.34-.4-.33-.96-.5-1.67-.5s-1.23.17-1.63.5c-.4.33-.67.78-.84,1.34-.16.56-.24,1.18-.24,1.87s.08,1.28.24,1.83c.16.55.44,1,.84,1.33.39.33.94.49,1.63.49Z"/>
    <path d="M253.67,216.42v-11.91h3.11l.06,1.78c.39-.51.93-.97,1.62-1.36.69-.39,1.54-.59,2.55-.59,1.2,0,2.11.38,2.75,1.13.64.75.96,1.82.96,3.2v7.75h-3.24v-7.34c0-.43-.06-.81-.18-1.14-.12-.33-.31-.58-.57-.76s-.61-.27-1.03-.27c-.63,0-1.16.15-1.61.45-.45.3-.84.67-1.18,1.1v7.95h-3.24ZM269.3,216.42v-7.34c0-.43-.06-.81-.18-1.14s-.31-.58-.57-.76c-.26-.18-.61-.27-1.03-.27-.63,0-1.17.14-1.62.42-.45.28-.86.62-1.21,1.04l-.39-2c.51-.54,1.14-1.02,1.89-1.43.74-.41,1.62-.61,2.63-.61,1.19,0,2.11.38,2.75,1.13.65.75.97,1.82.97,3.2v7.75h-3.23Z"/>
    <path d="M275.89,220.79v-16.28h3.05l.18,1.82c.44-.64.97-1.14,1.59-1.48.62-.35,1.35-.52,2.2-.52.93,0,1.75.22,2.47.67.72.45,1.29,1.13,1.7,2.04.41.91.62,2.08.62,3.5s-.22,2.51-.67,3.41c-.44.9-1.04,1.57-1.8,2.01-.76.45-1.61.68-2.55.68-.77,0-1.46-.15-2.07-.48-.61-.33-1.1-.78-1.48-1.37v5.99h-3.24ZM281.88,214.16c.81,0,1.44-.31,1.87-.94.43-.63.65-1.53.65-2.72,0-1.26-.2-2.2-.6-2.81-.4-.61-.95-.92-1.65-.92s-1.36.21-1.88.62c-.52.41-.9.86-1.12,1.35v3.52c.26.52.62.97,1.09,1.34.47.38,1.02.56,1.65.56Z"/>
    <path d="M294.02,216.58c-1.21,0-2.14-.37-2.8-1.12-.66-.75-.99-1.8-.99-3.18v-7.78h3.24v7.38c0,.41.06.77.18,1.08s.31.56.59.73c.27.17.63.26,1.08.26.65,0,1.21-.14,1.67-.43.46-.29.86-.64,1.2-1.06v-7.96h3.23v11.91h-3.12l-.05-1.79c-.4.5-.94.96-1.63,1.36-.69.4-1.55.6-2.59.6Z"/>
    <path d="M310.03,216.42c-1.21,0-2.14-.14-2.8-.43-.66-.29-1.12-.74-1.39-1.34-.26-.61-.39-1.4-.39-2.37v-5.27h-1.98v-2.49h1.98v-2.81h3.23v2.81h2.6v2.49h-2.6v5.08c0,.63.09,1.09.26,1.39s.57.45,1.19.45h1.15v2.5h-1.26Z"/>
    <path d="M315.45,202.94c-.59,0-1.05-.15-1.36-.45-.31-.3-.47-.68-.47-1.12s.16-.83.47-1.13c.31-.3.77-.45,1.36-.45s1.05.15,1.36.45c.31.3.47.67.47,1.13s-.16.82-.47,1.12c-.31.3-.77.45-1.36.45ZM313.82,216.42v-11.91h3.24v11.91h-3.24Z"/>
    <path d="M320.52,216.42v-11.91h3.11l.06,1.78c.4-.51.92-.97,1.58-1.36.65-.39,1.5-.59,2.54-.59,1.21,0,2.15.37,2.82,1.1.67.74,1,1.81,1,3.23v7.75h-3.21v-7.34c0-.43-.06-.81-.18-1.14s-.32-.58-.58-.76-.61-.27-1.04-.27c-.64,0-1.19.15-1.65.45-.46.3-.86.67-1.2,1.1v7.95h-3.24Z"/>
    <path d="M339.69,221.02c-1.42,0-2.56-.15-3.39-.44s-1.44-.68-1.81-1.15c-.37-.48-.55-.99-.55-1.54,0-.68.32-1.27.96-1.78.64-.51,1.66-.86,3.05-1.07l.54-1.15h1.61c1.98,0,3.42.27,4.33.82s1.36,1.38,1.36,2.5-.52,2.06-1.56,2.76c-1.04.7-2.56,1.05-4.54,1.05ZM338,216.15c-.85-.1-1.55-.27-2.08-.52s-.92-.54-1.16-.86c-.24-.33-.37-.65-.37-.96,0-.5.19-.92.57-1.26.38-.35.95-.65,1.71-.91l1.68.61c-.44.11-.81.23-1.1.38s-.44.33-.44.56c0,.15.09.28.26.39.17.11.48.18.92.24.44.05,1.04.08,1.8.08l-1.81,2.26ZM339.47,212.62c-1.07,0-1.99-.19-2.75-.57-.76-.38-1.33-.89-1.72-1.51s-.59-1.3-.59-2.03c0-.77.2-1.47.59-2.09.39-.62.97-1.12,1.74-1.5.77-.37,1.7-.56,2.8-.56s2.07.19,2.81.56c.75.37,1.3.87,1.67,1.5.37.62.56,1.32.56,2.09s-.19,1.42-.57,2.05c-.38.63-.94,1.13-1.7,1.5-.75.37-1.7.56-2.85.56ZM339.64,219c1.09,0,1.86-.14,2.31-.43.45-.29.67-.63.67-1.04,0-.26-.08-.48-.23-.66-.16-.18-.41-.32-.77-.41s-.83-.15-1.43-.15h-2.17c-.32.12-.58.29-.77.52-.2.22-.3.48-.3.77,0,.34.21.66.63.95.42.29,1.11.44,2.06.44ZM339.47,210.68c.6,0,1.1-.18,1.51-.56.4-.37.6-.91.6-1.62,0-.75-.19-1.31-.56-1.67-.38-.37-.86-.55-1.46-.55s-1.12.19-1.51.57c-.4.38-.6.93-.6,1.65s.21,1.26.62,1.62c.41.37.88.55,1.41.55ZM342.87,206.17l-.95-1.21c.32-.85.81-1.42,1.47-1.73.66-.31,1.46-.47,2.4-.48v2.36c-.63,0-1.21.06-1.74.18-.53.12-.92.41-1.18.88Z"/>
  </g>
  <path class="cls-2" d="M67.21,327.39c.45.22.97.22,1.42,0l26.1-12.95c.79-.39,1.11-1.35.72-2.14-.39-.79-1.35-1.11-2.14-.72l-25.39,12.6-24.32-12.15v-28.32s24.36-14.68,24.36-14.68l25.29,13.82c.78.41,1.74.11,2.15-.67.4-.76.12-1.7-.62-2.13l-26.09-14.26c-.5-.27-1.1-.26-1.59.03l-25.92,15.62c-.48.29-.77.81-.77,1.36v30.21c0,.6.34,1.16.88,1.43l25.92,12.95Z"/>
  <path class="cls-2" d="M66.55,318.57c.37.18.79.17,1.15-.02l17.29-9.12,8.71,4.47c.63.32,1.4.06,1.71-.57.31-.62.07-1.38-.55-1.7l-7.17-3.68,7.21-4.01c.62-.34.84-1.12.49-1.73-.12-.21-.29-.39-.51-.5l-7.76-4.2,7.75-4.06c.62-.33.86-1.1.54-1.72-.12-.23-.3-.41-.53-.53l-7.71-4.12,7.72-4.2c.62-.34.85-1.11.51-1.73,0,0,0,0,0,0-.34-.62-1.11-.85-1.73-.51,0,0,0,0,0,0l-9.2,5.01-15.37-8.21c-.39-.21-.86-.2-1.24.02l-17.44,10.18c-.61.36-.81,1.14-.46,1.74.13.22.32.39.54.5l7.53,3.67-7.62,4.48c-.61.36-.81,1.14-.45,1.74.13.22.31.39.54.5l7.66,3.75-7.74,4.52c-.61.35-.81,1.14-.46,1.74.13.22.32.39.54.5l16.05,7.81h0ZM60.8,302.45l-7.05-3.45,14.77-8.68,23.1,12.51-6.67,3.71-15.88-8.23c-.39-.2-.85-.19-1.23.03l-7.05,4.11h0ZM82.23,308l-13.7-7.1-14.77,8.61,13.32,6.48,15.15-7.99ZM60.67,291.98l-6.91-3.36,14.76-8.62,23.03,12.3-7.13,3.74-15.32-8.29c-.39-.21-.87-.2-1.25.02l-7.18,4.21h0Z"/>
  <g>
    <g>
      <polygon points="132.73 291.3 152.62 287.71 152.62 305.59 172.51 325.48 149.62 325.48 132.73 308.59 132.73 291.3"/>
      <polygon points="190.38 301.99 170.49 305.59 170.49 287.71 150.6 267.82 173.5 267.82 190.38 284.7 190.38 301.99"/>
    </g>
    <g>
      <g>
        <path d="M213.34,275.53c0,1.59-.29,2.91-.88,3.99s-1.43,1.88-2.52,2.41c-1.1.53-2.4.8-3.92.8h-4.16s0-14.01,0-14.01h4.53c1.44,0,2.68.26,3.72.78,1.04.52,1.84,1.29,2.39,2.29.55,1,.83,2.25.83,3.74h.01ZM210.69,275.61c0-1.08-.17-1.98-.51-2.69-.34-.7-.84-1.24-1.5-1.58-.66-.34-1.48-.52-2.44-.52h-1.83s0,9.8,0,9.8h1.5c1.61,0,2.81-.41,3.61-1.25.79-.83,1.19-2.08,1.19-3.76h-.01Z"/>
        <path d="M221.15,271.91c.2,0,.41,0,.64.03.23.02.41.05.56.09l-.25,2.32c-.16-.03-.34-.05-.54-.08-.2-.03-.42-.04-.65-.04-.34,0-.67.06-1,.18s-.63.3-.9.55c-.27.25-.49.56-.64.93-.16.37-.23.82-.23,1.35v5.52s-2.49,0-2.49,0v-10.66s1.92,0,1.92,0l.35,1.85h.12c.21-.38.47-.72.78-1.04.31-.31.67-.56,1.06-.73.4-.18.82-.26,1.29-.26h-.01Z"/>
        <path d="M228.02,271.91c.95,0,1.78.19,2.47.57s1.23.93,1.6,1.65c.37.72.56,1.59.56,2.61v1.28s-7.01,0-7.01,0c.03.95.29,1.7.8,2.22s1.24.78,2.18.78c.66,0,1.27-.07,1.81-.2.53-.13,1.09-.32,1.65-.57v1.96c-.52.25-1.06.43-1.63.55-.56.12-1.25.18-2.04.18-1.03,0-1.95-.2-2.76-.6-.8-.4-1.44-1-1.89-1.82s-.67-1.82-.67-3.02.21-2.24.62-3.07.98-1.46,1.73-1.89c.74-.42,1.6-.64,2.58-.64v.02ZM228.06,273.75c-.68,0-1.23.21-1.64.64-.41.43-.65,1.05-.71,1.87h4.53c0-.49-.08-.93-.23-1.31s-.39-.66-.71-.88c-.32-.21-.73-.32-1.23-.32h-.01Z"/>
        <path d="M242.4,279.67c0,.68-.16,1.27-.49,1.75-.33.48-.81.85-1.46,1.12-.64.26-1.44.39-2.39.39-.74,0-1.4-.05-1.96-.16-.56-.1-1.08-.27-1.57-.49v-2.12c.52.25,1.11.45,1.74.62.63.16,1.22.24,1.76.24.7,0,1.22-.1,1.53-.31s.47-.49.47-.84c0-.22-.07-.42-.21-.6s-.38-.35-.74-.54c-.36-.18-.86-.4-1.52-.66s-1.21-.52-1.66-.79c-.45-.27-.79-.59-1.03-.98-.23-.38-.35-.86-.35-1.45,0-.95.38-1.69,1.14-2.19.76-.5,1.76-.75,3-.75.66,0,1.3.07,1.88.2.58.13,1.16.33,1.72.59l-.74,1.77c-.48-.21-.98-.38-1.5-.52-.51-.14-.98-.21-1.42-.21-.55,0-.97.08-1.27.25s-.44.4-.44.7c0,.23.07.43.21.6.14.16.4.33.76.5s.87.38,1.53.63c.64.25,1.19.51,1.64.78.45.27.79.6,1.02.99.23.38.34.88.34,1.49h.01Z"/>
        <path d="M248.13,282.94c-1.23,0-2.23-.46-2.99-1.4-.76-.92-1.15-2.3-1.15-4.1s.38-3.21,1.16-4.14c.77-.92,1.79-1.4,3.04-1.4.52,0,.97.07,1.37.21.38.14.72.32,1.01.56.29.23.53.5.72.78h.1c-.03-.21-.06-.5-.09-.89-.03-.38-.05-.73-.05-1.03v-3.72s2.51,0,2.51,0v14.92s-1.94,0-1.94,0l-.47-1.4h-.1c-.2.29-.43.55-.71.79s-.62.43-1.02.58c-.4.14-.86.21-1.39.21h0ZM248.87,280.91c.91,0,1.57-.26,1.94-.77.38-.51.57-1.31.57-2.36v-.31c0-1.14-.18-2.01-.54-2.62-.36-.61-1.02-.91-1.99-.91-.74,0-1.32.31-1.72.93s-.6,1.5-.6,2.62.2,1.98.6,2.56.97.87,1.74.87h0Z"/>
        <path d="M260.64,271.91c.95,0,1.78.19,2.47.57s1.23.93,1.6,1.65c.37.72.56,1.59.56,2.61v1.28s-7.01,0-7.01,0c.03.95.29,1.7.8,2.22s1.24.78,2.18.78c.66,0,1.27-.07,1.81-.2.53-.13,1.09-.32,1.65-.57v1.96c-.52.25-1.06.43-1.63.55s-1.25.18-2.04.18c-1.03,0-1.95-.2-2.76-.6-.8-.4-1.44-1-1.89-1.82s-.67-1.82-.67-3.02.21-2.24.62-3.07.98-1.46,1.73-1.89c.74-.42,1.6-.64,2.58-.64v.02ZM260.68,273.75c-.68,0-1.23.21-1.64.64-.41.43-.65,1.05-.71,1.87h4.53c0-.49-.08-.93-.23-1.31-.16-.37-.39-.66-.71-.88-.32-.21-.73-.32-1.23-.32h-.01Z"/>
        <path d="M273.07,271.91c1.21,0,2.14.31,2.8.92.66.61,1,1.61,1,2.98v6.93s-2.47,0-2.47,0v-6.42c0-.81-.16-1.42-.48-1.82-.32-.4-.81-.6-1.49-.6-.99,0-1.68.31-2.04.94s-.55,1.53-.55,2.71v5.18s-2.49,0-2.49,0v-10.65s1.92,0,1.92,0l.35,1.44h.12c.23-.36.52-.67.86-.91s.71-.42,1.13-.54c.41-.12.85-.18,1.33-.18h.01Z"/>
      </g>
      <g>
        <path d="M213.07,299.14c0,.96-.2,1.84-.61,2.62-.41.77-1.03,1.4-1.87,1.84-.83.45-1.9.67-3.17.67-1.82,0-3.19-.47-4.14-1.43-.94-.94-1.42-2.2-1.42-3.76v-9.02s2.51,0,2.51,0v8.76c0,1.14.26,1.97.78,2.5.52.53,1.3.79,2.33.79.73,0,1.33-.12,1.78-.37s.78-.62,1-1.13c.21-.5.32-1.11.32-1.82v-8.75s2.49,0,2.49,0v9.06s-.01.02-.01.02Z"/>
        <path d="M221.35,293.27c1.21,0,2.14.31,2.8.92s1,1.61,1,2.98v6.92s-2.47,0-2.47,0v-6.41c0-.81-.16-1.42-.48-1.82s-.81-.6-1.48-.6c-.99,0-1.68.31-2.04.94-.36.62-.55,1.53-.55,2.7v5.17s-2.49,0-2.49,0v-10.63s1.92,0,1.92,0l.35,1.43h.12c.23-.36.52-.67.86-.91.34-.24.71-.42,1.13-.54s.85-.18,1.33-.18v.02Z"/>
        <path d="M228.99,289.34c.36,0,.68.1.96.29.27.2.41.53.41,1.01s-.14.8-.41,1.01c-.27.2-.59.3-.96.3-.39,0-.72-.1-.99-.3-.27-.2-.4-.54-.4-1.01s.13-.82.4-1.01c.27-.2.6-.29.99-.29ZM230.21,293.46v10.63s-2.49,0-2.49,0v-10.63s2.49,0,2.49,0Z"/>
        <path d="M236.03,304.09l-4.04-10.63h2.63s2.08,6.28,2.08,6.28c.08.18.16.41.23.67.08.27.15.53.22.78s.11.48.13.67h.08c.03-.2.07-.42.15-.67.07-.25.15-.51.24-.77.09-.26.16-.49.21-.68l2.12-6.28h2.63s-4.06,10.63-4.06,10.63c0,0-2.63,0-2.63,0Z"/>
        <path d="M248.14,293.27c.95,0,1.78.19,2.47.57s1.23.92,1.6,1.65c.37.72.56,1.59.56,2.61v1.28s-7,0-7,0c.03.95.29,1.7.8,2.22s1.24.78,2.18.78c.66,0,1.27-.06,1.81-.2.53-.13,1.09-.32,1.65-.57v1.96c-.52.25-1.06.43-1.63.55-.56.12-1.25.18-2.04.18-1.03,0-1.95-.2-2.75-.6s-1.43-1-1.88-1.82c-.45-.81-.67-1.82-.67-3.02s.2-2.24.61-3.06c.41-.83.98-1.46,1.73-1.88s1.6-.63,2.58-.63h-.02ZM248.18,295.1c-.68,0-1.23.21-1.64.64s-.65,1.05-.71,1.86h4.53c0-.49-.08-.93-.23-1.31-.16-.37-.39-.66-.71-.88-.32-.21-.73-.32-1.23-.32h-.01Z"/>
        <path d="M260.35,293.27c.2,0,.41,0,.63.03.23.02.41.05.56.09l-.25,2.31c-.16-.03-.34-.05-.54-.08-.2-.03-.42-.04-.65-.04-.34,0-.67.06-1,.18s-.62.3-.9.55c-.27.25-.49.56-.64.93-.16.37-.23.82-.23,1.35v5.51s-2.49,0-2.49,0v-10.63s1.92,0,1.92,0l.35,1.84h.12c.21-.38.47-.72.78-1.03s.67-.56,1.06-.73c.4-.18.82-.26,1.29-.26h0Z"/>
        <path d="M270.45,301.02c0,.68-.16,1.27-.49,1.75-.33.48-.81.85-1.45,1.12-.64.26-1.44.39-2.39.39-.74,0-1.4-.05-1.96-.16-.56-.1-1.08-.27-1.57-.49v-2.12c.52.25,1.11.45,1.74.61.63.16,1.22.24,1.76.24.7,0,1.22-.1,1.53-.31.31-.21.47-.49.47-.84,0-.22-.07-.42-.2-.6-.14-.18-.38-.35-.74-.54-.36-.18-.86-.4-1.52-.66s-1.21-.52-1.66-.79-.79-.59-1.02-.98c-.23-.38-.35-.86-.35-1.44,0-.95.38-1.69,1.14-2.19s1.76-.75,3-.75c.66,0,1.29.07,1.87.2.58.13,1.16.33,1.72.59l-.74,1.77c-.48-.21-.98-.38-1.49-.52-.51-.14-.98-.2-1.42-.2-.55,0-.97.08-1.27.25s-.44.4-.44.7c0,.23.07.43.21.6.14.16.4.33.76.5s.87.38,1.53.62c.64.25,1.19.51,1.64.78s.79.6,1.01.99c.23.38.34.88.34,1.48h-.01Z"/>
        <path d="M273.89,289.34c.36,0,.68.1.96.29.27.2.41.53.41,1.01s-.14.8-.41,1.01c-.27.2-.59.3-.96.3-.39,0-.72-.1-.99-.3-.27-.2-.4-.54-.4-1.01s.13-.82.4-1.01c.27-.2.6-.29.99-.29ZM275.1,293.46v10.63s-2.49,0-2.49,0v-10.63s2.49,0,2.49,0Z"/>
        <path d="M282.44,302.3c.31,0,.61-.03.9-.09s.55-.13.8-.2v1.84c-.26.12-.6.22-1.01.3-.42.08-.85.13-1.32.13-.6,0-1.15-.1-1.64-.3s-.88-.55-1.18-1.04-.44-1.19-.44-2.08v-5.53s-1.43,0-1.43,0v-1.07s1.57-.86,1.57-.86l.78-2.25h1.55s0,2.33,0,2.33h3.02s0,1.86,0,1.86h-3.02s0,5.51,0,5.51c0,.49.13.86.39,1.11.26.24.6.36,1.01.36h0Z"/>
        <path d="M285.36,293.46h2.65s2.12,6.06,2.12,6.06c.09.25.18.5.25.75.08.25.15.5.2.75.06.25.11.48.15.7h.08c.05-.3.14-.65.26-1.04.12-.4.25-.78.38-1.17l2.04-6.06h2.61s-4.43,11.78-4.43,11.78c-.29.74-.61,1.39-.99,1.91-.37.53-.82.93-1.37,1.22-.53.28-1.2.42-1.98.42-.33,0-.61-.02-.85-.05s-.45-.07-.61-.11v-1.96c.14.03.32.05.52.08.2.03.41.04.63.04.4,0,.74-.08,1.02-.24s.52-.38.71-.65c.2-.27.36-.59.49-.94l.35-.9-4.26-10.59h.01Z"/>
        <path d="M310.67,298.75c0,.87-.12,1.66-.35,2.34s-.57,1.27-1.01,1.75c-.44.48-.97.83-1.61,1.07-.63.24-1.35.36-2.13.36-.73,0-1.41-.12-2.02-.36s-1.15-.6-1.59-1.07-.79-1.05-1.04-1.75-.38-1.47-.38-2.34c0-1.19.2-2.19.61-3s.99-1.43,1.76-1.85c.75-.42,1.67-.63,2.72-.63.99,0,1.87.21,2.62.63s1.35,1.04,1.78,1.85c.43.81.64,1.81.64,3h0ZM303.08,298.75c0,.73.09,1.37.26,1.91.18.54.45.95.82,1.25.37.29.85.43,1.44.43s1.06-.14,1.44-.43.64-.7.81-1.25.25-1.18.25-1.91-.09-1.4-.26-1.92c-.18-.52-.45-.92-.81-1.21s-.85-.42-1.45-.42c-.87,0-1.52.31-1.91.93-.4.62-.6,1.5-.6,2.62h.01Z"/>
        <path d="M318.57,295.33h-2.57s0,8.76,0,8.76h-2.47s0-8.76,0-8.76h-1.71s0-1.18,0-1.18l1.71-.7v-.72c0-.91.14-1.64.43-2.16s.7-.89,1.26-1.13c.55-.23,1.2-.34,1.94-.34.52,0,.99.04,1.42.13.42.08.76.18,1.03.28l-.62,1.84c-.22-.06-.47-.13-.73-.19-.27-.06-.56-.09-.87-.09-.47,0-.81.15-1.03.45-.22.3-.33.72-.33,1.26v.68s2.57,0,2.57,0v1.86s-.01.01-.01.01Z"/>
      </g>
      <g>
        <path d="M217.7,314.62c.95,0,1.78.19,2.47.57s1.23.92,1.6,1.65c.37.72.56,1.59.56,2.61v1.28s-7,0-7,0c.03.95.29,1.7.8,2.22s1.24.78,2.18.78c.66,0,1.27-.06,1.81-.2.53-.13,1.09-.32,1.65-.57v1.96c-.52.25-1.06.43-1.63.55-.56.12-1.25.18-2.04.18-1.03,0-1.95-.2-2.75-.6s-1.43-1-1.88-1.82c-.45-.81-.67-1.82-.67-3.02s.2-2.24.61-3.06c.41-.83.98-1.46,1.73-1.88s1.6-.63,2.58-.63h-.02ZM217.74,316.46c-.68,0-1.23.21-1.64.64-.41.43-.65,1.05-.71,1.86h4.53c0-.49-.08-.93-.23-1.31-.16-.37-.39-.66-.71-.88-.32-.21-.73-.32-1.23-.32h-.01Z"/>
        <path d="M229.02,325.64c-.99,0-1.87-.19-2.63-.58-.75-.38-1.35-.98-1.78-1.79-.42-.8-.63-1.84-.63-3.08s.23-2.37.68-3.18c.46-.81,1.07-1.42,1.86-1.81.78-.38,1.68-.58,2.66-.58.59,0,1.15.06,1.69.18.53.12.99.27,1.38.47l-.74,1.94c-.35-.14-.73-.27-1.14-.38-.4-.11-.8-.17-1.2-.17-.57,0-1.06.13-1.46.39-.4.26-.69.65-.89,1.17s-.29,1.17-.29,1.95.1,1.38.3,1.88c.2.51.49.89.88,1.15.38.25.85.38,1.41.38s1.08-.07,1.56-.2c.47-.14.92-.32,1.35-.54v2.08c-.39.22-.82.4-1.31.53-.48.13-1.04.2-1.7.2h0Z"/>
        <path d="M236.8,314.05c0,.46-.01.87-.04,1.25-.03.37-.05.67-.08.91h.14c.22-.36.49-.66.82-.89s.69-.4,1.09-.52c.4-.12.81-.18,1.25-.18.79,0,1.49.14,2.06.41s1.01.69,1.33,1.27.46,1.31.46,2.23v6.92s-2.49,0-2.49,0v-6.41c0-.81-.16-1.42-.47-1.82s-.8-.6-1.47-.6-1.17.14-1.55.43-.64.7-.8,1.24-.23,1.2-.23,1.98v5.17s-2.49,0-2.49,0v-14.9s2.49,0,2.49,0v3.51s-.01.01-.01.01Z"/>
        <path d="M252.09,314.62c1.21,0,2.14.31,2.8.92.66.61,1,1.61,1,2.98v6.92s-2.47,0-2.47,0v-6.41c0-.81-.16-1.42-.48-1.82s-.81-.6-1.48-.6c-.99,0-1.68.31-2.04.94-.36.62-.55,1.53-.55,2.7v5.17s-2.49,0-2.49,0v-10.63s1.92,0,1.92,0l.35,1.43h.12c.23-.36.52-.67.86-.91.34-.24.71-.42,1.13-.54.41-.12.85-.18,1.33-.18v.02Z"/>
        <path d="M267.95,320.11c0,.87-.12,1.66-.35,2.34s-.57,1.27-1.01,1.75c-.44.48-.97.83-1.61,1.07-.63.24-1.35.36-2.13.36-.73,0-1.41-.12-2.02-.36-.61-.24-1.15-.6-1.59-1.07s-.79-1.05-1.04-1.75-.38-1.47-.38-2.34c0-1.19.2-2.19.61-3s.99-1.43,1.76-1.85c.75-.42,1.67-.63,2.72-.63.99,0,1.87.21,2.62.63.75.42,1.35,1.04,1.78,1.85.43.81.64,1.81.64,3ZM260.36,320.11c0,.73.09,1.37.26,1.91.18.54.45.95.82,1.25.37.29.85.43,1.44.43s1.06-.14,1.44-.43.64-.7.81-1.25.25-1.18.25-1.91-.09-1.4-.26-1.92c-.18-.52-.45-.92-.81-1.21-.36-.28-.85-.42-1.45-.42-.87,0-1.52.31-1.91.93-.4.62-.6,1.5-.6,2.62h.01Z"/>
        <path d="M272.31,325.44h-2.49s0-14.9,0-14.9h2.49s0,14.9,0,14.9Z"/>
        <path d="M284.49,320.11c0,.87-.12,1.66-.35,2.34s-.57,1.27-1.01,1.75c-.44.48-.97.83-1.61,1.07-.63.24-1.35.36-2.13.36-.73,0-1.41-.12-2.02-.36s-1.15-.6-1.59-1.07-.79-1.05-1.04-1.75-.38-1.47-.38-2.34c0-1.19.2-2.19.61-3s.99-1.43,1.76-1.85c.75-.42,1.67-.63,2.72-.63.99,0,1.87.21,2.62.63.75.42,1.35,1.04,1.78,1.85.43.81.64,1.81.64,3h0ZM276.9,320.11c0,.73.09,1.37.26,1.91.18.54.45.95.82,1.25.37.29.85.43,1.44.43s1.06-.14,1.44-.43.64-.7.81-1.25.25-1.18.25-1.91-.09-1.4-.26-1.92c-.18-.52-.45-.92-.81-1.21-.36-.28-.85-.42-1.45-.42-.87,0-1.52.31-1.91.93-.4.62-.6,1.5-.6,2.62h.01Z"/>
        <path d="M290.28,314.63c.72,0,1.34.13,1.85.4s.95.65,1.31,1.15h.1s.25-1.36.25-1.36h2.08s0,10.75,0,10.75c0,1-.19,1.85-.56,2.53s-.93,1.2-1.69,1.54-1.71.52-2.87.52c-.79,0-1.52-.05-2.17-.16-.64-.1-1.25-.27-1.8-.49v-2.18c.56.26,1.16.46,1.8.61.63.14,1.35.21,2.15.21.85,0,1.51-.21,1.96-.64.46-.43.68-1.03.68-1.81v-.31c0-.17,0-.39.03-.65.02-.27.04-.49.05-.67h-.08c-.33.49-.74.88-1.26,1.17s-1.14.42-1.86.42c-1.29,0-2.29-.47-3.04-1.43-.74-.95-1.12-2.31-1.12-4.06s.37-3.09,1.13-4.07,1.77-1.46,3.05-1.46h.01ZM290.97,316.62c-.49,0-.91.14-1.27.41-.34.27-.61.67-.78,1.21-.18.53-.26,1.18-.26,1.93,0,1.17.2,2.04.6,2.62.4.58.98.87,1.76.87.44,0,.82-.06,1.14-.19.31-.12.57-.31.77-.57.2-.25.35-.58.45-.97.1-.39.15-.85.15-1.4v-.43c0-.79-.09-1.46-.26-1.97-.18-.51-.45-.89-.82-1.15-.37-.25-.86-.37-1.46-.37h-.02Z"/>
        <path d="M297.42,314.82h2.65s2.12,6.06,2.12,6.06c.09.25.18.5.25.75.08.25.15.5.2.75.06.25.11.48.15.7h.08c.05-.3.14-.65.26-1.04.12-.4.25-.78.38-1.17l2.04-6.06h2.61s-4.43,11.78-4.43,11.78c-.29.74-.61,1.39-.99,1.91-.37.53-.82.93-1.37,1.22-.53.28-1.2.42-1.98.42-.33,0-.61-.02-.85-.05s-.45-.07-.61-.11v-1.96c.14.03.32.05.52.08.2.03.41.04.63.04.4,0,.74-.08,1.02-.24s.52-.38.71-.65.36-.59.49-.94l.35-.9-4.26-10.59h.01Z"/>
        <path d="M208.74,325.46h-2.53s0-11.87,0-11.87h-4.35s0-2.14,0-2.14h11.24s0,2.14,0,2.14h-4.35s0,11.87,0,11.87h-.01Z"/>
      </g>
    </g>
  </g>
  <g id="Layer_1-2" data-name="Layer 1">
    <polyline class="cls-3" points="361.23 325.66 419.96 325.66 477.43 268.18 361.24 268.18 361.23 325.66"/>
    <path class="cls-1" d="M430.19,278.99h-11.44s0,27.19,0,27.19l-9.99-27.19h-9.91s-8.53,22.74-8.53,22.74c-.91-5.73-6.84-7.71-11.51-9.2-3.08-.99-6.35-2.45-6.32-4.05.03-1.32,1.75-2.55,5.18-2.36,2.3.12,4.33.31,8.37,2.26l3.97-6.92c-3.69-1.88-8.78-3.06-12.96-3.07h-.02c-4.87,0-8.93,1.58-11.44,4.18-1.75,1.82-2.7,4.12-2.74,6.67-.06,3.51,1.22,6,3.93,7.98,2.28,1.67,5.2,2.76,7.78,3.56,3.18.98,5.77,1.84,5.74,3.66-.02.66-.28,1.28-.75,1.79-.79.82-2.01,1.12-3.69,1.15-3.24.07-5.64-.44-9.47-2.7l-3.53,7.02c3.82,2.17,8.34,3.44,12.95,3.44h.59c4.01-.08,7.25-1.22,9.84-3.31.15-.12.28-.24.42-.36l-1.15,3.06h10.39s1.74-5.3,1.74-5.3c1.82.62,3.9.97,6.11.97s4.17-.33,5.96-.92l1.68,5.25h16.94s0-10.98,0-10.98h3.69c8.93,0,14.22-4.55,14.22-12.17,0-8.49-5.13-12.39-16.06-12.39h0ZM403.75,302.26c-1.33,0-2.59-.23-3.66-.64l3.63-11.44h.07s3.56,11.47,3.56,11.47c-1.07.38-2.29.61-3.59.61h0ZM430.86,295.69h-2.52s0-9.22,0-9.22h2.52c3.36,0,6.04,1.12,6.04,4.55s-2.68,4.67-6.04,4.67"/>
  </g>
  <line class="cls-7" y1="121.85" x2="369.36" y2="121.85"/>
  <path class="cls-8" d="M61.1,22.05c-2.86,0-5.42,1.3-7.14,3.31-.16-.2-.34-.38-.51-.56-.54-.54-1.14-1.01-1.77-1.39-1.48-.9-3.18-1.34-4.86-1.37h0c-2.39,0-4.81.92-6.62,2.75-1.84,1.84-2.75,4.23-2.75,6.62,0,1.68.45,3.38,1.34,4.86.38.63.85,1.23,1.39,1.77.54.54,1.14,1.01,1.77,1.39,3.6,2.19,8.39,1.72,11.5-1.39.18-.18.36-.38.51-.56,1.72,2.01,4.27,3.31,7.14,3.31,5.17,0,9.38-4.21,9.38-9.38s-4.21-9.38-9.38-9.38h0ZM41.9,31.43c0-1.25.47-2.51,1.43-3.47.96-.96,2.22-1.43,3.47-1.43h0c.51,0,1.03.09,1.52.25l-3.87,3.87-2.31,2.31c-.16-.49-.25-1.01-.25-1.52ZM50.29,34.9c-1.34,1.34-3.29,1.75-4.99,1.21l2.39-2.39,3.78-3.78.45-.45c-.13.63-.2,1.3-.2,1.97,0,1.25-.47,2.51-1.43,3.47v-.02ZM61.1,36.35c-2.71,0-4.92-2.19-4.92-4.92s2.19-4.92,4.92-4.92,4.92,2.19,4.92,4.92-2.19,4.92-4.92,4.92Z"/>
  <polygon class="cls-8" points="30.13 29.84 20.91 15.54 15.54 15.54 15.54 40.65 20.91 40.65 20.91 24.94 30.96 40.65 35.52 40.65 35.52 15.54 30.13 15.54 30.13 29.84"/>
  <polygon class="cls-6" points="88.19 29.84 78.96 15.54 73.59 15.54 73.59 40.65 78.96 40.65 78.96 24.94 89.01 40.65 93.56 40.65 93.56 15.54 88.19 15.54 88.19 29.84"/>
  <path class="cls-6" d="M109.52,23.48c-1.34-.83-2.89-1.23-4.61-1.23s-3.42.4-4.83,1.21c-1.41.81-2.51,1.92-3.29,3.33-.78,1.41-1.19,3-1.19,4.72s.4,3.31,1.21,4.72c.81,1.41,1.92,2.53,3.38,3.33s3.13,1.21,5.06,1.21,3.2-.31,4.5-.96c1.3-.63,2.37-1.54,3.2-2.75l-3.8-2.26c-.4.51-.94.94-1.63,1.23-.69.31-1.41.47-2.13.47-1.21,0-2.17-.27-2.93-.78-.76-.54-1.34-1.34-1.79-2.42h13.07c.09-.54.13-1.14.13-1.79,0-1.72-.38-3.29-1.12-4.7-.76-1.41-1.81-2.53-3.16-3.36l-.07.02ZM100.52,29.41c.04-.78.49-1.43,1.34-1.99s1.86-.83,3-.83,2.04.25,2.8.74,1.23,1.19,1.39,2.08h-8.55.02Z"/>
  <path class="cls-6" d="M131.56,23.46c-1.34-.81-2.95-1.21-4.83-1.21s-1.92.16-2.84.49c-.92.31-1.77.78-2.57,1.39v-1.39h-5.13v25.11h5.13v-8.5c.78.6,1.66,1.05,2.57,1.39.94.31,1.88.49,2.84.49,1.86,0,3.47-.4,4.83-1.23,1.34-.83,2.39-1.95,3.11-3.38s1.07-3.07,1.07-4.88-.36-3.45-1.07-4.86c-.72-1.43-1.75-2.55-3.11-3.36v-.07ZM129.32,34.96c-.85.83-1.95,1.23-3.29,1.23s-2.48-.4-3.38-1.23-1.34-1.9-1.34-3.25.45-2.44,1.37-3.29,2.04-1.3,3.38-1.3,2.44.43,3.29,1.25c.85.83,1.28,1.95,1.28,3.29s-.43,2.46-1.28,3.29h-.02Z"/>
  <path class="cls-6" d="M150.27,23.01c-1.07-.45-2.1-.67-3.13-.67-1.52,0-2.95.56-4.27,1.66v-8.46h-5.13v25.11h5.13v-10.97c.13-.98.49-1.7,1.03-2.17.56-.47,1.19-.69,1.95-.69s1.66.25,2.31.76c.65.51.96,1.34.96,2.48v10.59h5.13v-10.72c-.02-1.9-.43-3.42-1.21-4.57-.78-1.12-1.7-1.9-2.75-2.35Z"/>
  <path class="cls-6" d="M170.15,23.48c-1.41-.83-2.95-1.25-4.61-1.25s-3.25.43-4.66,1.25c-1.41.83-2.55,1.95-3.38,3.38-.83,1.41-1.25,2.98-1.25,4.66s.43,3.2,1.25,4.63c.83,1.43,1.95,2.55,3.38,3.38,1.41.83,2.98,1.25,4.66,1.25s3.2-.43,4.61-1.25,2.53-1.97,3.38-3.38c.83-1.43,1.25-2.98,1.25-4.63s-.43-3.25-1.25-4.66c-.83-1.41-1.95-2.53-3.38-3.38ZM168.51,34.52c-.85.83-1.86,1.25-3.02,1.25s-2.17-.43-3-1.25-1.25-1.84-1.25-3,.43-2.17,1.25-3.02c.83-.85,1.84-1.25,3-1.25s2.17.43,3.02,1.25c.85.85,1.25,1.86,1.25,3.02s-.43,2.17-1.25,3Z"/>
  <path class="cls-6" d="M191.34,31.81c-.69-.78-1.5-1.34-2.39-1.68-.92-.34-2.06-.65-3.45-.94-1.07-.2-1.86-.43-2.35-.6-.49-.2-.74-.49-.74-.9s.2-.81.6-1.07.94-.4,1.61-.4,1.39.13,1.88.43c.47.29.85.72,1.14,1.3l4.07-1.99c-.69-1.19-1.68-2.1-2.91-2.73-1.23-.63-2.64-.94-4.19-.94s-2.53.22-3.63.67c-1.12.45-1.99,1.1-2.64,1.95-.65.85-.98,1.86-.98,3s.34,2.15.98,2.86c.65.72,1.43,1.23,2.35,1.59.92.34,2.06.67,3.4.96,1.19.27,2.06.51,2.62.74s.83.58.83,1.05-.29.96-.9,1.25c-.6.29-1.3.45-2.08.45-1.95,0-3.2-.74-3.76-2.24l-4.12,2.1c.67,1.37,1.68,2.37,3.02,3.07s2.95,1.03,4.86,1.03,2.66-.22,3.87-.65c1.19-.43,2.15-1.07,2.89-1.92.72-.85,1.1-1.88,1.1-3.07s-.34-2.46-1.03-3.25l-.07-.07Z"/>
  <rect class="cls-5" y="395.27" width="764" height="4.73"/>
</svg>
