<?xml version="1.0" encoding="UTF-8"?>
<svg xmlns="http://www.w3.org/2000/svg" width="1396.87246" height="491.464" xmlns:xlink="http://www.w3.org/1999/xlink" viewBox="0 0 1396.87246 491.464">
  <defs>
    <linearGradient id="b" x1="-5081.71906" y1="-893.77103" x2="-3464.31416" y2="-675.2028" gradientTransform="translate(-3916.47844 -586.28253) rotate(-180)" gradientUnits="userSpaceOnUse">
      <stop offset="0" stop-color="#039"/>
      <stop offset=".27877" stop-color="#013396"/>
      <stop offset=".4325" stop-color="#05338e"/>
      <stop offset=".55574" stop-color="#0c3380"/>
      <stop offset=".66284" stop-color="#15336d"/>
      <stop offset=".75849" stop-color="#223354"/>
      <stop offset=".84637" stop-color="#313335"/>
      <stop offset=".85337" stop-color="#333"/>
    </linearGradient>
    <linearGradient id="d" x1="683.35924" y1="459.36149" x2="703.20744" y2="462.04368" gradientUnits="userSpaceOnUse">
      <stop offset="0" stop-color="#0f6bff"/>
      <stop offset=".22681" stop-color="#0f6afc"/>
      <stop offset=".3519" stop-color="#1068f4"/>
      <stop offset=".45219" stop-color="#1364e6"/>
      <stop offset=".53934" stop-color="#165fd3"/>
      <stop offset=".618" stop-color="#1b58b9"/>
      <stop offset=".69055" stop-color="#204f9a"/>
      <stop offset=".75836" stop-color="#274575"/>
      <stop offset=".82079" stop-color="#2e394c"/>
      <stop offset=".85337" stop-color="#333"/>
    </linearGradient>
    <linearGradient id="e" x1="-11898.39767" y1="459.36149" x2="-11878.54947" y2="462.04368" gradientTransform="translate(-11185.94596) scale(-1 1)" xlink:href="#d"/>
  </defs>
  <g id="a" data-name="Layer 2">
    <g>
      <polygon points="1396.87246 -.00012 902.25183 -.00012 609.58775 491.29211 1396.87246 491.29211 1396.87246 -.00012" fill="#f4f9ff"/>
      <polygon points=".2705 491.37812 1123.55041 491.37812 1416.2145 .08588 .2705 .08588 .2705 491.37812" fill="url(#b)"/>
    </g>
  </g>
  <g id="c" data-name="Layer 1">
    <g>
      <rect x="58.56153" y="150.88802" width="802.22251" height="65.88047" fill="none"/>
      <path d="M60.23165,190.30782l8.37891-39.43359h8.23242l-6.82617,32.19727h16.64062l-1.52344,7.23633h-24.90234Z" fill="#fff"/>
      <path d="M104.70431,190.80586c-3.08691,0-5.63574-.6543-7.64648-1.96289-2.01172-1.30859-3.42773-3.14453-4.24805-5.50781s-.99609-5.15625-.52734-8.37891c.44922-2.85156,1.34766-5.30273,2.69531-7.35352s3.10547-3.62305,5.27344-4.7168,4.69727-1.64062,7.58789-1.64062c2.96875,0,5.44922.67383,7.44141,2.02148s3.37891,3.24219,4.16016,5.68359c.78027,2.44141.84961,5.30273.20508,8.58398h-20.09766c-.17578,1.34766-.12793,2.60742.14648,3.7793.27344,1.17188.85938,2.11328,1.75781,2.82617.89746.71289,2.16797,1.07031,3.80859,1.07031,1.60059,0,2.9541-.35742,4.05762-1.07031,1.10254-.71289,1.84082-1.82031,2.21191-3.32422h7.61719c-.89844,3.41797-2.54883,5.9375-4.95117,7.55859s-5.56641,2.43164-9.49219,2.43164ZM100.45626,172.6125h12.1875c.17578-1.26953.06836-2.34375-.32227-3.22266-.3916-.87891-.99219-1.55859-1.80176-2.03711-.81055-.47852-1.79199-.7168-2.94434-.7168-1.875,0-3.42383.51172-4.64355,1.53711-1.2207,1.02539-2.04688,2.50586-2.47559,4.43945Z" fill="#fff"/>
      <path d="M136.81368,190.30782c-2.89062,0-5.09375-.40039-6.60645-1.20117-1.51367-.80078-2.45117-2.00195-2.8125-3.60352-.3623-1.60156-.28906-3.59375.21973-5.97656l2.49023-11.83594h-4.74609l1.28906-5.97656h4.74609l1.40625-6.73828h7.70508l-1.40625,6.73828h6.29883l-1.28906,5.97656h-6.29883l-2.54883,12.1875c-.29297,1.38672-.26855,2.46094.07324,3.22266.34082.76172,1.18652,1.14258,2.53418,1.14258h2.66602l-1.20117,6.06445h-2.51953Z" fill="#fff"/>
      <path d="M150.78829,165.99141c.03906-1.25.10254-2.45703.19043-3.61914s.21973-2.34766.39551-3.55859.41016-2.50977.70312-3.89648l.82031-4.04297h6.79688l-.84961,4.04297c-.29297,1.40625-.61523,2.70898-.9668,3.91016s-.72266,2.37305-1.11328,3.51562c-.3916,1.14258-.82031,2.35938-1.28906,3.64844h-4.6875Z" fill="#fff"/>
      <path d="M169.71407,190.83516c-2.48047,0-4.6875-.33789-6.62109-1.01172s-3.42383-1.71289-4.46777-3.11914c-1.04492-1.40625-1.51953-3.18359-1.4209-5.33203h7.23633c-.01953,1.58203.46875,2.70508,1.46484,3.36914s2.34375.99609,4.04297.99609c1.36621,0,2.45605-.25,3.2666-.74805.80957-.49805,1.30371-1.16602,1.47949-2.00586.11719-.70312.0332-1.30859-.24902-1.81641-.2832-.50781-.86914-.99609-1.75781-1.46484-.88965-.46875-2.16406-.97656-3.82324-1.52344-3.24219-1.09375-5.54199-2.45703-6.89941-4.08789-1.3584-1.63086-1.80176-3.67578-1.33301-6.13672.44922-2.1875,1.74316-3.85352,3.88184-4.99609s4.86719-1.71289,8.18848-1.71289c2.3623,0,4.44238.36133,6.24023,1.08398,1.79688.72266,3.18848,1.76758,4.1748,3.13477.98535,1.36719,1.43066,2.99805,1.33301,4.89258h-7.23633c.03906-1.26953-.3418-2.25195-1.14258-2.94531-.80176-.69336-2.03223-1.03906-3.69141-1.03906-1.13281,0-2.05566.16992-2.76855.51172-.71387.3418-1.14746.875-1.30371,1.59766-.19531.9375.20508,1.71289,1.20117,2.32812s2.8418,1.38281,5.53711,2.30078c3.08594,1.03516,5.18945,2.34766,6.31348,3.93945,1.12305,1.5918,1.48926,3.56055,1.09863,5.9043-.41016,2.48047-1.64551,4.41406-3.70605,5.80078-2.06152,1.38672-5.07324,2.08008-9.03809,2.08008Z" fill="#fff"/>
      <path d="M209.96798,201.35274c-3.37988,0-6.02051-.39062-7.9248-1.17188s-3.20801-1.7832-3.91113-3.00391-.94727-2.49414-.73242-3.82227c.29297-1.62109,1.32324-2.96875,3.09082-4.04297s4.33984-1.8457,7.71973-2.31445l1.58203-2.75391h4.04297c4.74609,0,8.0752.75195,9.99023,2.25586,1.91406,1.50391,2.63672,3.62305,2.16797,6.35742-.46875,2.61719-2.06152,4.6875-4.77539,6.21094-2.71484,1.52344-6.46484,2.28516-11.25,2.28516ZM207.8586,189.63399c-1.97363-.21484-3.54102-.625-4.70215-1.23047-1.16211-.60547-1.96777-1.32812-2.41699-2.16797-.4502-.83984-.60547-1.68945-.46875-2.54883.17578-1.05469.78613-1.96875,1.83105-2.74023,1.04395-.77148,2.52344-1.46875,4.43848-2.09375l3.83789,1.46484c-1.09473.23438-2.01172.52734-2.75391.87891-.74316.35156-1.17188.79102-1.28906,1.31836-.07812.35156.0625.6582.4248.92188.36133.26367,1.04004.46484,2.03613.60156s2.3916.20508,4.18945.20508l-5.12695,5.39062ZM213.60079,181.19649c-2.73535,0-4.98535-.47461-6.75293-1.42188-1.76855-.94727-3.01367-2.2207-3.73535-3.82227-.72266-1.60156-.9082-3.37891-.55664-5.33203.31152-1.66016,1.01074-3.19336,2.09473-4.59961s2.56348-2.53516,4.43848-3.38477,4.14941-1.27344,6.82617-1.27344c4.14062,0,7.12305.99609,8.9502,2.98828,1.82617,1.99219,2.46484,4.48242,1.91895,7.4707-.29297,1.66016-.97754,3.19727-2.05078,4.61328-1.07422,1.41602-2.53906,2.56445-4.39453,3.44336-1.85645.87891-4.10156,1.31836-6.73828,1.31836ZM210.55392,196.48946c2.55859,0,4.46289-.33789,5.71289-1.01172,1.24902-.67383,1.95215-1.48828,2.10938-2.44531.07715-.64453-.0293-1.1875-.32227-1.62695s-.84961-.77539-1.66992-1.00977-1.95312-.35156-3.39844-.35156h-5.18555c-.80176.29297-1.48438.70703-2.05078,1.24414-.56738.53711-.9082,1.12891-1.02539,1.77344-.15723.87891.20508,1.66992,1.08398,2.37305s2.46094,1.05469,4.74609,1.05469ZM213.92306,176.53829c1.46484,0,2.70508-.42969,3.7207-1.28906,1.01465-.85938,1.66992-2.09961,1.96289-3.7207.35156-1.91406.10254-3.31641-.74707-4.20508s-1.98828-1.33203-3.41309-1.33203c-1.48438,0-2.72461.44336-3.7207,1.33203s-1.65137,2.13477-1.96289,3.73633c-.23438,1.23047-.17188,2.25.19043,3.06055.36133.81055.9082,1.41602,1.64062,1.81641s1.50879.60156,2.3291.60156ZM223.73751,165.78633l-1.75781-2.98828c.72168-1.36719,1.58594-2.43164,2.59277-3.19336,1.00586-.76172,2.13867-1.30469,3.39844-1.62695s2.66992-.48242,4.2334-.48242l-.99609,5.6543c-1.62207,0-3.06152.15625-4.32129.46875s-2.31055,1.03516-3.14941,2.16797Z" fill="#fff"/>
      <path d="M244.33321,190.80586c-3.08691,0-5.63574-.6543-7.64648-1.96289-2.01172-1.30859-3.42773-3.14453-4.24805-5.50781s-.99609-5.15625-.52734-8.37891c.44922-2.85156,1.34766-5.30273,2.69531-7.35352s3.10547-3.62305,5.27344-4.7168,4.69727-1.64062,7.58789-1.64062c2.96875,0,5.44922.67383,7.44141,2.02148s3.37891,3.24219,4.16016,5.68359c.78027,2.44141.84961,5.30273.20508,8.58398h-20.09766c-.17578,1.34766-.12793,2.60742.14648,3.7793.27344,1.17188.85938,2.11328,1.75781,2.82617.89746.71289,2.16797,1.07031,3.80859,1.07031,1.60059,0,2.9541-.35742,4.05762-1.07031,1.10254-.71289,1.84082-1.82031,2.21191-3.32422h7.61719c-.89844,3.41797-2.54883,5.9375-4.95117,7.55859s-5.56641,2.43164-9.49219,2.43164ZM240.08517,172.6125h12.1875c.17578-1.26953.06836-2.34375-.32227-3.22266-.3916-.87891-.99219-1.55859-1.80176-2.03711-.81055-.47852-1.79199-.7168-2.94434-.7168-1.875,0-3.42383.51172-4.64355,1.53711-1.2207,1.02539-2.04688,2.50586-2.47559,4.43945Z" fill="#fff"/>
      <path d="M276.44259,190.30782c-2.89062,0-5.09375-.40039-6.60645-1.20117-1.51367-.80078-2.45117-2.00195-2.8125-3.60352-.3623-1.60156-.28906-3.59375.21973-5.97656l2.49023-11.83594h-4.74609l1.28906-5.97656h4.74609l1.40625-6.73828h7.70508l-1.40625,6.73828h6.29883l-1.28906,5.97656h-6.29883l-2.54883,12.1875c-.29297,1.38672-.26855,2.46094.07324,3.22266.34082.76172,1.18652,1.14258,2.53418,1.14258h2.66602l-1.20117,6.06445h-2.51953Z" fill="#fff"/>
      <path d="M307.3215,190.83516c-2.2666,0-4.18945-.63086-5.77148-1.89062s-2.66211-3.0957-3.2373-5.50781c-.57617-2.41211-.50293-5.35547.21973-8.83203.9375-4.47266,2.61719-7.81836,5.03906-10.03516,2.4209-2.2168,5.25391-3.32422,8.49609-3.32422,2.01074,0,3.76855.41016,5.27344,1.23047,1.50391.82031,2.71387,1.96289,3.63281,3.42773l3.22266-15.0293h7.64648l-8.37891,39.46289-7.35352-.0293.43945-3.80859c-1.05469,1.26953-2.3252,2.30859-3.80859,3.11914-1.48438.81055-3.29199,1.2168-5.41992,1.2168ZM310.19259,184.94649c1.17188,0,2.24512-.24414,3.22266-.73242.97656-.48828,1.84961-1.10938,2.62207-1.86133.77148-.75195,1.4209-1.52734,1.94824-2.32812l1.64062-8.14453c-.3125-.85938-.79102-1.65039-1.43555-2.37305s-1.39648-1.29492-2.25586-1.71484c-.86035-.41992-1.78711-.62891-2.7832-.62891-1.79785,0-3.28613.7168-4.46777,2.15234-1.18262,1.43555-2.06543,3.54102-2.65137,6.31445-.4502,2.05078-.57617,3.76953-.38086,5.15625.19434,1.38672.67773,2.42578,1.4502,3.11914.77148.69336,1.80176,1.04102,3.09082,1.04102Z" fill="#fff"/>
      <path d="M346.19845,190.83516c-3.08691,0-5.68848-.66406-7.80762-1.99219-2.12012-1.32812-3.59961-3.21875-4.43848-5.66992-.83984-2.45117-.89844-5.36523-.17578-8.74414.89746-4.29688,2.72852-7.56836,5.49316-9.81445,2.76367-2.24609,6.18555-3.36914,10.26855-3.36914,3.08594,0,5.68359.67383,7.79297,2.02148s3.58887,3.26172,4.43848,5.74219.91211,5.41016.19043,8.78906c-.91895,4.29688-2.74414,7.54297-5.47852,9.74023-2.73535,2.19727-6.16309,3.29688-10.2832,3.29688ZM346.6965,185.21016c2.18652,0,3.8623-.77148,5.02441-2.31445,1.16113-1.54297,2.00684-3.52539,2.53418-5.94727.39062-1.69922.49316-3.32031.30762-4.86328-.18652-1.54297-.71777-2.79883-1.59668-3.76562s-2.1875-1.44922-3.92578-1.44922c-1.48438,0-2.72949.36523-3.73535,1.09766-1.00684.73242-1.82129,1.73438-2.44629,3.00391-.62598,1.26953-1.11328,2.71484-1.46484,4.33594-.37109,1.71875-.4541,3.33008-.24902,4.83398s.75098,2.72461,1.64062,3.66211c.88867.9375,2.19238,1.40625,3.91113,1.40625Z" fill="#fff"/>
      <path d="M370.54415,190.30782l-2.90039-28.59375h7.4707l1.25977,20.18555,9.81445-20.18555h8.14453l1.31836,20.15625,9.72656-20.15625h7.64648l-15.05859,28.59375h-7.91016l-1.40625-20.56641-10.16602,20.56641h-7.93945Z" fill="#fff"/>
      <path d="M411.2961,190.30782l6.06445-28.59375h7.5293l-.79102,4.18945c1.23047-1.23047,2.59668-2.30469,4.10156-3.22266,1.50391-.91797,3.33984-1.37695,5.50781-1.37695,1.93359,0,3.58398.47266,4.95117,1.41992,1.36621.94727,2.32422,2.30469,2.87109,4.07227.5459,1.76758.55664,3.89258.0293,6.37305l-3.60352,17.13867h-7.73438l3.66211-17.16797c.39062-1.81641.29297-3.20898-.29297-4.17578s-1.57227-1.44922-2.95898-1.44922c-1.46484,0-2.81738.36133-4.05762,1.08398-1.24121.72266-2.39844,1.60156-3.47168,2.63672l-4.10156,19.07227h-7.70508Z" fill="#fff"/>
      <path d="M470.97384,190.30782c-2.89062,0-5.09375-.40039-6.60645-1.20117-1.51367-.80078-2.45117-2.00195-2.8125-3.60352-.3623-1.60156-.28906-3.59375.21973-5.97656l2.49023-11.83594h-4.74609l1.28906-5.97656h4.74609l1.40625-6.73828h7.70508l-1.40625,6.73828h6.29883l-1.28906,5.97656h-6.29883l-2.54883,12.1875c-.29297,1.38672-.26855,2.46094.07324,3.22266.34082.76172,1.18652,1.14258,2.53418,1.14258h2.66602l-1.20117,6.06445h-2.51953Z" fill="#fff"/>
      <path d="M493.03439,190.83516c-3.08691,0-5.68848-.66406-7.80762-1.99219-2.12012-1.32812-3.59961-3.21875-4.43848-5.66992-.83984-2.45117-.89844-5.36523-.17578-8.74414.89746-4.29688,2.72852-7.56836,5.49316-9.81445,2.76367-2.24609,6.18555-3.36914,10.26855-3.36914,3.08594,0,5.68359.67383,7.79297,2.02148s3.58887,3.26172,4.43848,5.74219.91211,5.41016.19043,8.78906c-.91895,4.29688-2.74414,7.54297-5.47852,9.74023-2.73535,2.19727-6.16309,3.29688-10.2832,3.29688ZM493.53243,185.21016c2.18652,0,3.8623-.77148,5.02441-2.31445,1.16113-1.54297,2.00684-3.52539,2.53418-5.94727.39062-1.69922.49316-3.32031.30762-4.86328-.18652-1.54297-.71777-2.79883-1.59668-3.76562s-2.1875-1.44922-3.92578-1.44922c-1.48438,0-2.72949.36523-3.73535,1.09766-1.00684.73242-1.82129,1.73438-2.44629,3.00391-.62598,1.26953-1.11328,2.71484-1.46484,4.33594-.37109,1.71875-.4541,3.33008-.24902,4.83398s.75098,2.72461,1.64062,3.66211c.88867.9375,2.19238,1.40625,3.91113,1.40625Z" fill="#fff"/>
      <path d="M542.634,190.83516c-2.01172,0-3.76953-.39062-5.27344-1.17188-1.50488-.78125-2.70605-1.88477-3.60352-3.31055l-1.11328,3.95508h-7.41211l8.37891-39.43359h7.70508l-3.10547,14.73633c1.05469-1.23047,2.31445-2.26562,3.7793-3.10547s3.27051-1.25977,5.41992-1.25977c2.28516,0,4.21875.63477,5.80078,1.9043s2.66602,3.125,3.25195,5.56641.50781,5.41016-.23438,8.90625c-.95703,4.45312-2.64746,7.76758-5.06836,9.94531-2.42188,2.17773-5.26367,3.26758-8.52539,3.26758ZM541.6086,184.91719c1.71777,0,3.15332-.69922,4.30664-2.0957,1.15234-1.39648,2.03125-3.49023,2.63672-6.2832.66309-3.08594.61523-5.41992-.14648-7.00195s-2.06152-2.37305-3.89648-2.37305c-1.15332,0-2.21191.23438-3.17871.70312s-1.83105,1.07812-2.59277,1.83008-1.40625,1.5293-1.93359,2.33008l-1.66992,8.29102c.4873,1.26953,1.30762,2.35352,2.46094,3.25195,1.15234.89844,2.49023,1.34766,4.01367,1.34766Z" fill="#fff"/>
      <path d="M570.02657,190.68868c-1.95312,0-3.62305-.48438-5.00977-1.45117-1.3877-.9668-2.34863-2.34375-2.88574-4.13086-.53809-1.78711-.54199-3.91992-.01465-6.40039l3.63281-16.99219h7.79297l-3.69141,17.19727c-.3916,1.77734-.27832,3.14844.33691,4.11523s1.66504,1.45117,3.14941,1.45117c.95605,0,1.86426-.18164,2.72461-.54297.85938-.36133,1.67383-.83008,2.44629-1.40625.77148-.57617,1.50879-1.19531,2.21191-1.85938l3.98438-18.95508h7.73438l-6.06445,28.59375h-7.5l.76172-4.30664c-.80176.82031-1.66992,1.58594-2.60742,2.29883s-1.97754,1.28906-3.12012,1.72852-2.43652.66016-3.88184.66016Z" fill="#fff"/>
      <path d="M607.46798,190.83516c-2.48047,0-4.6875-.33789-6.62109-1.01172s-3.42383-1.71289-4.46777-3.11914c-1.04492-1.40625-1.51953-3.18359-1.4209-5.33203h7.23633c-.01953,1.58203.46875,2.70508,1.46484,3.36914s2.34375.99609,4.04297.99609c1.36621,0,2.45605-.25,3.2666-.74805s1.30371-1.16602,1.47949-2.00586c.11719-.70312.03418-1.30859-.24902-1.81641s-.86914-.99609-1.75781-1.46484c-.88965-.46875-2.16406-.97656-3.82324-1.52344-3.24219-1.09375-5.54199-2.45703-6.89941-4.08789-1.3584-1.63086-1.80176-3.67578-1.33301-6.13672.44922-2.1875,1.74316-3.85352,3.88184-4.99609s4.86719-1.71289,8.18848-1.71289c2.36328,0,4.44336.36133,6.24023,1.08398s3.18848,1.76758,4.1748,3.13477,1.43066,2.99805,1.33301,4.89258h-7.23633c.03906-1.26953-.3418-2.25195-1.14258-2.94531s-2.03125-1.03906-3.69141-1.03906c-1.13281,0-2.05566.16992-2.76855.51172-.71387.3418-1.14746.875-1.30371,1.59766-.19531.9375.20508,1.71289,1.20117,2.32812s2.8418,1.38281,5.53711,2.30078c3.08594,1.03516,5.19043,2.34766,6.31348,3.93945s1.48926,3.56055,1.09863,5.9043c-.41016,2.48047-1.64551,4.41406-3.70605,5.80078s-5.07324,2.08008-9.03809,2.08008Z" fill="#fff"/>
      <path d="M625.66134,190.30782l6.06445-28.59375h7.73438l-6.06445,28.59375h-7.73438ZM636.94064,157.99336c-1.42578,0-2.51953-.37695-3.28125-1.12891s-1.14258-1.64453-1.14258-2.67969c0-1.05469.38086-1.94922,1.14258-2.68164s1.85547-1.09766,3.28125-1.09766c1.40625,0,2.48047.36523,3.22266,1.09766s1.11328,1.62695,1.11328,2.68164c0,1.03516-.37109,1.92773-1.11328,2.67969s-1.81641,1.12891-3.22266,1.12891Z" fill="#fff"/>
      <path d="M641.62814,190.30782l6.06445-28.59375h7.5293l-.79102,4.18945c1.23047-1.23047,2.59766-2.30469,4.10156-3.22266s3.33984-1.37695,5.50781-1.37695c1.93359,0,3.58398.47266,4.95117,1.41992s2.32422,2.30469,2.87109,4.07227.55664,3.89258.0293,6.37305l-3.60352,17.13867h-7.73438l3.66211-17.16797c.39062-1.81641.29297-3.20898-.29297-4.17578s-1.57227-1.44922-2.95898-1.44922c-1.46484,0-2.81738.36133-4.05762,1.08398s-2.39746,1.60156-3.47168,2.63672l-4.10156,19.07227h-7.70508Z" fill="#fff"/>
      <path d="M690.6711,190.80586c-3.08594,0-5.63477-.6543-7.64648-1.96289s-3.42773-3.14453-4.24805-5.50781-.99609-5.15625-.52734-8.37891c.44922-2.85156,1.34766-5.30273,2.69531-7.35352s3.10547-3.62305,5.27344-4.7168,4.69727-1.64062,7.58789-1.64062c2.96875,0,5.44922.67383,7.44141,2.02148s3.37891,3.24219,4.16016,5.68359.84961,5.30273.20508,8.58398h-20.09766c-.17578,1.34766-.12695,2.60742.14648,3.7793s.85938,2.11328,1.75781,2.82617,2.16797,1.07031,3.80859,1.07031c1.60156,0,2.9541-.35742,4.05762-1.07031s1.84082-1.82031,2.21191-3.32422h7.61719c-.89844,3.41797-2.54883,5.9375-4.95117,7.55859s-5.56641,2.43164-9.49219,2.43164ZM686.42306,172.6125h12.1875c.17578-1.26953.06836-2.34375-.32227-3.22266s-.99121-1.55859-1.80176-2.03711-1.79199-.7168-2.94434-.7168c-1.875,0-3.42285.51172-4.64355,1.53711s-2.0459,2.50586-2.47559,4.43945Z" fill="#fff"/>
      <path d="M722.48751,190.83516c-2.48047,0-4.6875-.33789-6.62109-1.01172s-3.42285-1.71289-4.46777-3.11914-1.51855-3.18359-1.4209-5.33203h7.23633c-.01953,1.58203.46875,2.70508,1.46484,3.36914s2.34375.99609,4.04297.99609c1.36719,0,2.45605-.25,3.2666-.74805s1.30371-1.16602,1.47949-2.00586c.11719-.70312.03418-1.30859-.24902-1.81641s-.86914-.99609-1.75781-1.46484-2.16309-.97656-3.82324-1.52344c-3.24219-1.09375-5.54199-2.45703-6.89941-4.08789s-1.80176-3.67578-1.33301-6.13672c.44922-2.1875,1.74316-3.85352,3.88184-4.99609s4.86816-1.71289,8.18848-1.71289c2.36328,0,4.44336.36133,6.24023,1.08398s3.18848,1.76758,4.1748,3.13477,1.43066,2.99805,1.33301,4.89258h-7.23633c.03906-1.26953-.3418-2.25195-1.14258-2.94531s-2.03125-1.03906-3.69141-1.03906c-1.13281,0-2.05566.16992-2.76855.51172s-1.14746.875-1.30371,1.59766c-.19531.9375.20508,1.71289,1.20117,2.32812s2.8418,1.38281,5.53711,2.30078c3.08594,1.03516,5.19043,2.34766,6.31348,3.93945s1.48926,3.56055,1.09863,5.9043c-.41016,2.48047-1.64551,4.41406-3.70605,5.80078s-5.07324,2.08008-9.03809,2.08008Z" fill="#fff"/>
      <path d="M752.31173,190.83516c-2.48047,0-4.6875-.33789-6.62109-1.01172s-3.42285-1.71289-4.46777-3.11914-1.51855-3.18359-1.4209-5.33203h7.23633c-.01953,1.58203.46875,2.70508,1.46484,3.36914s2.34375.99609,4.04297.99609c1.36719,0,2.45605-.25,3.2666-.74805s1.30371-1.16602,1.47949-2.00586c.11719-.70312.03418-1.30859-.24902-1.81641s-.86914-.99609-1.75781-1.46484-2.16309-.97656-3.82324-1.52344c-3.24219-1.09375-5.54199-2.45703-6.89941-4.08789s-1.80176-3.67578-1.33301-6.13672c.44922-2.1875,1.74316-3.85352,3.88184-4.99609s4.86816-1.71289,8.18848-1.71289c2.36328,0,4.44336.36133,6.24023,1.08398s3.18848,1.76758,4.1748,3.13477,1.43066,2.99805,1.33301,4.89258h-7.23633c.03906-1.26953-.3418-2.25195-1.14258-2.94531s-2.03125-1.03906-3.69141-1.03906c-1.13281,0-2.05566.16992-2.76855.51172s-1.14746.875-1.30371,1.59766c-.19531.9375.20508,1.71289,1.20117,2.32812s2.8418,1.38281,5.53711,2.30078c3.08594,1.03516,5.19043,2.34766,6.31348,3.93945s1.48926,3.56055,1.09863,5.9043c-.41016,2.48047-1.64551,4.41406-3.70605,5.80078s-5.07324,2.08008-9.03809,2.08008Z" fill="#fff"/>
      <path d="M776.0422,190.71797c-1.48438,0-2.68555-.46484-3.60352-1.39258s-1.37695-2.05469-1.37695-3.38281c0-1.42578.45898-2.57422,1.37695-3.44336s2.11914-1.30273,3.60352-1.30273,2.68555.43359,3.60352,1.30273,1.37695,2.01758,1.37695,3.44336c0,1.32812-.45898,2.45508-1.37695,3.38281s-2.11914,1.39258-3.60352,1.39258ZM775.80782,176.91914c.01953-2.57812.14648-5.25.38086-8.01367s.64453-5.58984,1.23047-8.48047l2.08008-9.55078h7.99805l-2.05078,9.55078c-.44922,2.1875-.99121,4.28125-1.62598,6.2832s-1.28418,3.86719-1.94824,5.5957-1.2793,3.26758-1.8457,4.61523h-4.21875Z" fill="#fff"/>
    </g>
    <g>
      <rect x="56.93802" y="278.27603" width="905.65646" height="162.6412" fill="none"/>
      <path d="M75.24825,311.56368c-3.40137,0-6.2666-.71484-8.59375-2.14844-2.32715-1.43164-4.08887-3.4082-5.28516-5.93164s-1.79492-5.44531-1.79492-8.76562.59863-6.25,1.79492-8.78906,2.95801-4.52344,5.28516-5.95703c2.32715-1.43164,5.19238-2.14844,8.59375-2.14844,2.24609,0,4.36621.39062,6.36035,1.17188,1.99316.78125,3.65332,1.97461,4.98047,3.57617,1.32617,1.60352,2.10352,3.62695,2.33105,6.06836h-4.41895c-.19531-1.64453-.74414-3-1.64746-4.06641-.90332-1.06445-2.01855-1.85742-3.34473-2.37891-1.32715-.52148-2.74707-.78125-4.26074-.78125-2.63672,0-4.77246.60156-6.4082,1.80664s-2.82812,2.80664-3.57715,4.80859-1.12305,4.23242-1.12305,6.68945c0,2.44141.37402,4.66406,1.12305,6.66602s1.94141,3.5918,3.57715,4.77148c1.63574,1.18164,3.77148,1.77148,6.4082,1.77148,2.66895,0,4.83398-.66016,6.49414-1.97852s2.62012-3.28711,2.88086-5.9082h4.44336c-.26074,2.58789-1.01758,4.73242-2.27051,6.43359s-2.87305,2.97461-4.8584,3.82031-4.21582,1.26953-6.68945,1.26953Z" fill="#fff"/>
      <path d="M105.22872,311.51485c-2.32715,0-4.32129-.49219-5.98145-1.47656s-2.92578-2.39258-3.7959-4.22461c-.87109-1.83008-1.30664-4.00586-1.30664-6.5293,0-2.58789.43555-4.80664,1.30664-6.6543.87012-1.8457,2.13574-3.26562,3.7959-4.25977,1.66016-.99219,3.6543-1.48828,5.98145-1.48828,2.37598,0,4.40723.49609,6.0918,1.48828,1.68457.99414,2.97852,2.41406,3.88184,4.25977.90332,1.84766,1.35449,4.06641,1.35449,6.6543,0,2.52344-.45117,4.69922-1.35449,6.5293-.90332,1.83203-2.19727,3.24023-3.88184,4.22461s-3.71582,1.47656-6.0918,1.47656ZM105.22872,308.26875c1.75781,0,3.15723-.38672,4.19922-1.16016s1.79004-1.83984,2.24609-3.19922c.45605-1.35742.68359-2.90039.68359-4.625,0-1.75781-.22754-3.32812-.68359-4.71289-.45605-1.38281-1.2041-2.46875-2.24609-3.25977-1.04199-.78906-2.44141-1.18359-4.19922-1.18359-1.70898,0-3.06348.39453-4.06445,1.18359-1.00098.79102-1.72168,1.87695-2.16113,3.25977-.43945,1.38477-.65918,2.95508-.65918,4.71289,0,1.72461.21973,3.26758.65918,4.625.43945,1.35938,1.16016,2.42578,2.16113,3.19922s2.35547,1.16016,4.06445,1.16016Z" fill="#fff"/>
      <path d="M123.0754,311.12422v-23.7793h3.90625l.14648,3.66211c.7002-.95898,1.72559-1.86719,3.07617-2.72266,1.35059-.85352,3.03516-1.28125,5.05371-1.28125,2.63672,0,4.5332.77344,5.68848,2.32031s1.7334,3.70312,1.7334,6.46875v15.33203h-4.10156v-14.74609c0-1.1543-.11816-2.17969-.35352-3.07617-.23633-.89453-.67188-1.59961-1.30664-2.11133-.63477-.51367-1.5459-.76953-2.73438-.76953-1.67676,0-3.09277.40234-4.24805,1.20898-1.15527.80469-2.08301,1.68945-2.7832,2.64844v16.8457h-4.07715ZM154.03243,311.12422v-14.74609c0-1.1543-.11816-2.17969-.35352-3.07617-.23633-.89453-.67188-1.59961-1.30664-2.11133-.63477-.51367-1.53809-.76953-2.70996-.76953-1.69238,0-3.11719.39453-4.27246,1.18359-1.15527.79102-2.10742,1.66602-2.85645,2.625l-.61035-2.97852c.94434-1.04102,2.13672-2.00977,3.57715-2.9043s3.16895-1.34375,5.1875-1.34375c2.63672,0,4.5332.77344,5.68848,2.32031s1.7334,3.70312,1.7334,6.46875v15.33203h-4.07715Z" fill="#fff"/>
      <path d="M165.72677,311.12422v-23.7793h3.90625l.14648,3.66211c.7002-.95898,1.72559-1.86719,3.07617-2.72266,1.35059-.85352,3.03516-1.28125,5.05371-1.28125,2.63672,0,4.5332.77344,5.68848,2.32031s1.7334,3.70312,1.7334,6.46875v15.33203h-4.10156v-14.74609c0-1.1543-.11816-2.17969-.35352-3.07617-.23633-.89453-.67188-1.59961-1.30664-2.11133-.63477-.51367-1.5459-.76953-2.73438-.76953-1.67676,0-3.09277.40234-4.24805,1.20898-1.15527.80469-2.08301,1.68945-2.7832,2.64844v16.8457h-4.07715ZM196.6838,311.12422v-14.74609c0-1.1543-.11816-2.17969-.35352-3.07617-.23633-.89453-.67188-1.59961-1.30664-2.11133-.63477-.51367-1.53809-.76953-2.70996-.76953-1.69238,0-3.11719.39453-4.27246,1.18359-1.15527.79102-2.10742,1.66602-2.85645,2.625l-.61035-2.97852c.94434-1.04102,2.13672-2.00977,3.57715-2.9043s3.16895-1.34375,5.1875-1.34375c2.63672,0,4.5332.77344,5.68848,2.32031s1.7334,3.70312,1.7334,6.46875v15.33203h-4.07715Z" fill="#fff"/>
      <path d="M215.92208,311.49141c-2.75098,0-4.73633-.76562-5.95703-2.29492s-1.83105-3.63867-1.83105-6.32422v-15.52734h4.10156v14.9668c0,1.07422.12207,2.03516.36621,2.88086s.70801,1.50586,1.3916,1.97656c.68359.47266,1.66797.70898,2.9541.70898,1.79004,0,3.28809-.37109,4.49219-1.11133s2.17285-1.59961,2.90527-2.57617v-16.8457h4.10156v23.7793h-3.93066l-.12207-3.66211c-.76465.94531-1.84277,1.85156-3.23438,2.72266s-3.1377,1.30664-5.2373,1.30664Z" fill="#fff"/>
      <path d="M236.30782,311.12422v-23.7793h3.90625l.14648,3.66211c.73242-.95898,1.78223-1.86719,3.14941-2.72266,1.36719-.85352,3.11719-1.28125,5.24902-1.28125,2.60449,0,4.5.76953,5.68848,2.30664,1.18848,1.53906,1.78223,3.69922,1.78223,6.48242v15.33203h-4.07715v-14.74609c0-1.1543-.12207-2.17969-.36621-3.07617-.24414-.89453-.67969-1.59961-1.30566-2.11133-.62695-.51367-1.53418-.76953-2.72266-.76953-1.77441,0-3.26367.40234-4.46777,1.20898-1.2041.80469-2.17285,1.68945-2.90527,2.64844v16.8457h-4.07715Z" fill="#fff"/>
      <path d="M265.89767,282.87813c-.76465,0-1.37891-.22461-1.84277-.67188s-.69629-1.01367-.69629-1.69727.23242-1.24805.69629-1.69727c.46387-.44727,1.07812-.66992,1.84277-.66992s1.38379.22266,1.85547.66992c.47168.44922.70801,1.01367.70801,1.69727s-.23633,1.25-.70801,1.69727-1.09082.67188-1.85547.67188ZM263.8713,311.12422v-23.7793h4.07715v23.7793h-4.07715Z" fill="#fff"/>
      <path d="M283.62228,311.12422c-1.9209,0-3.39355-.30469-4.41895-.91602-1.02539-.60938-1.72949-1.48828-2.11133-2.63672-.38281-1.14648-.57422-2.52539-.57422-4.13672v-12.79297h-3.97949v-3.29688h3.97949v-5.44336h4.05273v5.44336h5.85938v3.29688h-5.85938v12.59766c0,1.48047.19141,2.61523.57422,3.4043.38184.79102,1.29785,1.18555,2.74609,1.18555h2.58789v3.29492h-2.85645Z" fill="#fff"/>
      <path d="M290.48263,319.86446v-3.36914h2.00195c.92773,0,1.71289-.24805,2.35645-.74414.64258-.49609,1.19141-1.32227,1.64746-2.47852l.92773-2.14844-9.49707-23.7793h4.32129l7.34863,19.45898,6.78711-19.45898h4.15039l-8.93555,23.7793-1.12305,2.88086c-.55371,1.41602-1.14355,2.55469-1.76953,3.41797-.62695.86328-1.39648,1.48633-2.30762,1.86719-.91113.38281-2.0752.57422-3.49121.57422h-2.41699Z" fill="#fff"/>
      <path d="M324.9797,311.12422v-32.86133h20.97168v3.66211h-16.57715v10.47461h15.25879v3.61328h-15.25879v11.44922h16.57715v3.66211h-20.97168Z" fill="#fff"/>
      <path d="M357.74337,311.12422l-9.13086-23.7793h4.32129l7.03125,19.77539,7.10449-19.77539h4.15039l-8.98438,23.7793h-4.49219Z" fill="#fff"/>
      <path d="M384.55001,311.56368c-2.58789,0-4.70801-.54102-6.35938-1.62305-1.65234-1.08203-2.87695-2.55469-3.6748-4.41992-.79785-1.86328-1.19629-3.95703-1.19629-6.28516,0-2.42578.38672-4.5625,1.16016-6.41016.77246-1.8457,1.95312-3.29102,3.54004-4.33203s3.60059-1.5625,6.04199-1.5625c3.23926,0,5.77832.97656,7.61719,2.92969s2.75879,4.75977,2.75879,8.42188c0,.24414-.00781.5332-.02441.86719s-.04102.57422-.07324.7207h-16.94336c.0166,1.54688.26465,2.96484.74512,4.25977.47949,1.29297,1.24023,2.33203,2.28223,3.11328s2.41699,1.17188,4.12598,1.17188c1.82324,0,3.24707-.42773,4.27246-1.2832,1.02539-.85352,1.5625-2.08594,1.61133-3.69727h4.02832c-.04883,1.67578-.48047,3.12109-1.29395,4.33203-.81348,1.21289-1.95312,2.14844-3.41797,2.80859-1.46484.6582-3.19824.98828-5.2002.98828ZM377.4211,296.8918h12.98828c-.04883-2.21289-.62695-3.90625-1.7334-5.07812s-2.64453-1.75781-4.61426-1.75781c-1.98535,0-3.54395.58203-4.6748,1.74414-1.13184,1.16406-1.78711,2.86133-1.96582,5.0918Z" fill="#fff"/>
      <path d="M401.00509,311.12422v-23.7793h3.90625l.14648,3.66211c.73242-.95898,1.78223-1.86719,3.14941-2.72266,1.36719-.85352,3.11719-1.28125,5.24902-1.28125,2.60449,0,4.5.76953,5.68848,2.30664,1.18848,1.53906,1.78223,3.69922,1.78223,6.48242v15.33203h-4.07715v-14.74609c0-1.1543-.12207-2.17969-.36621-3.07617-.24414-.89453-.67969-1.59961-1.30566-2.11133-.62695-.51367-1.53418-.76953-2.72266-.76953-1.77441,0-3.26367.40234-4.46777,1.20898-1.2041.80469-2.17285,1.68945-2.90527,2.64844v16.8457h-4.07715Z" fill="#fff"/>
      <path d="M436.50314,311.12422c-1.9209,0-3.39355-.30469-4.41895-.91602-1.02539-.60938-1.72949-1.48828-2.11133-2.63672-.38281-1.14648-.57422-2.52539-.57422-4.13672v-12.79297h-3.97949v-3.29688h3.97949v-5.44336h4.05273v5.44336h5.85938v3.29688h-5.85938v12.59766c0,1.48047.19141,2.61523.57422,3.4043.38184.79102,1.29785,1.18555,2.74609,1.18555h2.58789v3.29492h-2.85645Z" fill="#fff"/>
      <path d="M56.93771,314.17696v-1.2207h383.8623v1.2207H56.93771Z" fill="#fff"/>
      <path d="M72.0256,375.56368c-2.49023,0-4.73242-.35352-6.72559-1.0625-1.99414-.70703-3.57715-1.83398-4.74902-3.38086-1.17188-1.54492-1.75781-3.56445-1.75781-6.05469h7.03125c.03223,1.26953.3252,2.26758.87891,2.99023.55371.72461,1.29785,1.24219,2.23438,1.55078.93555.31055,2.00586.46484,3.20996.46484,1.15527,0,2.17285-.13867,3.05176-.41602.87891-.27539,1.56641-.70312,2.06348-1.28125.49609-.57812.74414-1.31445.74414-2.20898,0-.86328-.21191-1.57617-.63477-2.13672-.42285-.5625-1.17188-1.07422-2.24609-1.53906-1.07422-.46289-2.58008-.96289-4.5166-1.5-2.2627-.65039-4.21973-1.36719-5.87109-2.14844-1.65234-.78125-2.92969-1.79102-3.83301-3.02734s-1.35547-2.84766-1.35547-4.83398c0-2.13281.5166-3.87109,1.55078-5.21289,1.0332-1.34375,2.46094-2.33203,4.28418-2.9668s3.91406-.95117,6.27441-.95117c2.24609,0,4.30957.3418,6.18945,1.02539s3.38086,1.72461,4.50391,3.125,1.68457,3.18164,1.68457,5.3457h-7.03125c.0166-1.39844-.50488-2.44531-1.5625-3.13672s-2.32715-1.03711-3.80859-1.03711c-1.46484,0-2.67773.27148-3.6377.81641-.95996.54688-1.44043,1.38867-1.44043,2.52734,0,.65234.20312,1.22461.61035,1.7207.40723.49805,1.16016.98242,2.25879,1.45312,1.09863.47266,2.68945,1.00977,4.77246,1.61133,2.49023.73242,4.5332,1.50195,6.12793,2.30664,1.59473.80664,2.7793,1.84766,3.55273,3.125.77246,1.2793,1.15918,2.95898,1.15918,5.04297,0,2.32812-.56934,4.20703-1.70898,5.63867-1.13965,1.43359-2.68945,2.48242-4.65039,3.15039-1.96191.66602-4.17969,1-6.65332,1Z" fill="#fff"/>
      <path d="M101.83517,375.56368c-2.65332,0-4.88281-.49219-6.68945-1.47656s-3.17383-2.4043-4.10156-4.25977-1.3916-4.08594-1.3916-6.68945c0-2.52344.45215-4.69531,1.35547-6.51953.90332-1.82227,2.22949-3.22656,3.97949-4.21094,1.74902-.98438,3.90137-1.47656,6.45703-1.47656,3.54785,0,6.35156,1.03711,8.41113,3.11133,2.05859,2.07617,3.08789,5.03516,3.08789,8.875,0,.19531-.00781.46094-.02441.79297-.0166.33398-.04102.5918-.07324.76953h-16.72363c.03223,1.12305.24023,2.17383.62305,3.15039.38184.97656.98828,1.76172,1.81836,2.35547s1.9209.89062,3.27148.89062c1.39941,0,2.52246-.30469,3.36914-.91602.84668-.60938,1.27734-1.51562,1.29395-2.7207h6.37207c-.08105,1.85547-.58984,3.40234-1.52539,4.63867-.93652,1.23633-2.21387,2.16016-3.83301,2.76953-1.62012.61133-3.51172.91602-5.67676.91602ZM96.19552,360.37813h10.32715c-.04883-1.66016-.54102-2.90039-1.47656-3.72266-.93652-.82227-2.13672-1.23242-3.60156-1.23242-1.49707,0-2.72168.42383-3.67383,1.26953s-1.47754,2.07422-1.5752,3.68555Z" fill="#fff"/>
      <path d="M118.68087,383.86446v-32.56836h6.10352l.36621,3.63867c.87891-1.28516,1.93652-2.27539,3.17383-2.9668s2.70215-1.03711,4.39453-1.03711c1.85547,0,3.50391.44727,4.94434,1.3418,1.44043.89648,2.57129,2.25586,3.39355,4.07812.82129,1.82227,1.23242,4.1582,1.23242,7.00586,0,2.75195-.44336,5.02148-1.33008,6.8125-.8877,1.79102-2.08789,3.13281-3.60156,4.02734-1.51367.89648-3.21484,1.35156-5.10254,1.36719-1.5459.01562-2.92578-.30078-4.1377-.95117-1.21289-.65039-2.20215-1.5625-2.9668-2.73438v11.98633h-6.46973ZM130.64376,370.6086c1.62793,0,2.87305-.62695,3.73535-1.88086.8623-1.25195,1.29395-3.06641,1.29395-5.44336,0-2.52344-.40234-4.39453-1.20801-5.61523s-1.90918-1.83203-3.30859-1.83203c-1.46484,0-2.71777.41211-3.75977,1.23242-1.04199.82227-1.79004,1.72266-2.24609,2.69922v7.03125c.52051,1.04102,1.24902,1.9375,2.18555,2.68555.93555.74805,2.03809,1.12305,3.30762,1.12305Z" fill="#fff"/>
      <path d="M158.18282,375.12422c-2.40918,0-4.27637-.28906-5.60254-.86719-1.32715-.57617-2.25098-1.47266-2.77148-2.68555-.52051-1.21094-.78125-2.79492-.78125-4.74805v-10.54688h-3.95508v-4.98047h3.95508v-5.61523h6.46973v5.61523h5.2002v4.98047h-5.2002v10.15625c0,1.25391.1748,2.18164.52539,2.7832.34961.60352,1.14258.9043,2.37988.9043h2.29492v5.00391h-2.51465Z" fill="#fff"/>
      <path d="M176.49337,375.56368c-2.65332,0-4.88281-.49219-6.68945-1.47656s-3.17383-2.4043-4.10156-4.25977-1.3916-4.08594-1.3916-6.68945c0-2.52344.45215-4.69531,1.35547-6.51953.90332-1.82227,2.22949-3.22656,3.97949-4.21094,1.74902-.98438,3.90137-1.47656,6.45703-1.47656,3.54785,0,6.35156,1.03711,8.41113,3.11133,2.05859,2.07617,3.08789,5.03516,3.08789,8.875,0,.19531-.00781.46094-.02441.79297-.0166.33398-.04102.5918-.07324.76953h-16.72363c.03223,1.12305.24023,2.17383.62305,3.15039.38184.97656.98828,1.76172,1.81836,2.35547s1.9209.89062,3.27148.89062c1.39941,0,2.52246-.30469,3.36914-.91602.84668-.60938,1.27734-1.51562,1.29395-2.7207h6.37207c-.08105,1.85547-.58984,3.40234-1.52539,4.63867-.93652,1.23633-2.21387,2.16016-3.83301,2.76953-1.62012.61133-3.51172.91602-5.67676.91602ZM170.85372,360.37813h10.32715c-.04883-1.66016-.54102-2.90039-1.47656-3.72266-.93652-.82227-2.13672-1.23242-3.60156-1.23242-1.49707,0-2.72168.42383-3.67383,1.26953s-1.47754,2.07422-1.5752,3.68555Z" fill="#fff"/>
      <path d="M193.33907,375.12422v-23.82812h6.22559l.12207,3.56445c.78125-1.02539,1.85938-1.93164,3.23535-2.72266,1.375-.78906,3.07129-1.18359,5.08984-1.18359,2.39258,0,4.22754.75391,5.50586,2.25781,1.27734,1.50586,1.91602,3.64258,1.91602,6.41016v15.50195h-6.46973v-14.67188c0-.86328-.11816-1.61914-.35352-2.27148-.23633-.65039-.61914-1.1543-1.14746-1.51367-.5293-.35742-1.2168-.53711-2.06348-.53711-1.25293,0-2.32715.30273-3.22266.9043s-1.68457,1.33398-2.36816,2.19727v15.89258h-6.46973ZM224.61349,375.12422v-14.67188c0-.86328-.11816-1.61914-.35352-2.27148-.23633-.65039-.61914-1.1543-1.14746-1.51367-.5293-.35742-1.2168-.53711-2.06348-.53711-1.25293,0-2.33105.27734-3.23438.83008-.90332.55469-1.71387,1.24609-2.42969,2.07617l-.78125-4.00391c1.02539-1.08984,2.2832-2.04297,3.77246-2.85742,1.48926-.8125,3.24219-1.2207,5.26074-1.2207,2.37598,0,4.21191.75391,5.50586,2.25781,1.29395,1.50586,1.94043,3.64258,1.94043,6.41016v15.50195h-6.46973Z" fill="#fff"/>
      <path d="M251.3713,375.56368c-1.74121,0-3.17383-.33398-4.29688-1-1.12305-.66797-2.08301-1.58789-2.88086-2.75977l-.26855,3.32031h-6.12793v-32.86133h6.46973v12.45117c.84668-1.1543,1.87988-2.07812,3.10059-2.77148,1.2207-.69141,2.72656-1.03711,4.5166-1.03711,1.82324,0,3.4502.44336,4.88281,1.33008,1.43262.88867,2.56348,2.23828,3.39355,4.05273.83008,1.81641,1.24512,4.13086,1.24512,6.94727,0,2.79883-.44336,5.11133-1.33008,6.93359-.8877,1.82227-2.08789,3.17773-3.60156,4.06445s-3.21484,1.33008-5.10254,1.33008ZM249.75997,370.6086c1.5791,0,2.81152-.61914,3.69922-1.85547.88672-1.23633,1.33008-3.03516,1.33008-5.39648,0-2.55469-.41895-4.45508-1.25684-5.70117-.83887-1.24414-2.00684-1.86719-3.50391-1.86719-1.33496,0-2.50195.40039-3.50293,1.19727s-1.75391,1.73242-2.25879,2.80664v6.98242c.47168,1.02539,1.17578,1.92188,2.1123,2.68555.93555.76562,2.0625,1.14844,3.38086,1.14844Z" fill="#fff"/>
      <path d="M278.08028,375.56368c-2.65332,0-4.88281-.49219-6.68945-1.47656s-3.17383-2.4043-4.10156-4.25977-1.3916-4.08594-1.3916-6.68945c0-2.52344.45215-4.69531,1.35547-6.51953.90332-1.82227,2.22949-3.22656,3.97949-4.21094,1.74902-.98438,3.90137-1.47656,6.45703-1.47656,3.54785,0,6.35156,1.03711,8.41113,3.11133,2.05859,2.07617,3.08789,5.03516,3.08789,8.875,0,.19531-.00781.46094-.02441.79297-.0166.33398-.04102.5918-.07324.76953h-16.72363c.03223,1.12305.24023,2.17383.62305,3.15039.38184.97656.98828,1.76172,1.81836,2.35547s1.9209.89062,3.27148.89062c1.39941,0,2.52246-.30469,3.36914-.91602.84668-.60938,1.27734-1.51562,1.29395-2.7207h6.37207c-.08105,1.85547-.58984,3.40234-1.52539,4.63867-.93652,1.23633-2.21387,2.16016-3.83301,2.76953-1.62012.61133-3.51172.91602-5.67676.91602ZM272.44064,360.37813h10.32715c-.04883-1.66016-.54102-2.90039-1.47656-3.72266-.93652-.82227-2.13672-1.23242-3.60156-1.23242-1.49707,0-2.72168.42383-3.67383,1.26953s-1.47754,2.07422-1.5752,3.68555Z" fill="#fff"/>
      <path d="M294.92599,375.12422v-23.82812h6.20117l.12207,4.12695c.61816-1.43164,1.5459-2.53125,2.7832-3.29688,1.2373-.76367,2.73438-1.14648,4.49219-1.14648h.48828v5.44336h-.61035c-.95996,0-1.87988.08594-2.75879.25586-.87891.17188-1.67676.46484-2.39258.87891-.71582.41602-1.33496.99023-1.85547,1.72266v15.84375h-6.46973Z" fill="#fff"/>
      <path d="M321.83028,375.12422v-4.49219l11.69434-10.64453c1.35059-1.23633,2.35645-2.43164,3.01562-3.58789s.98828-2.34375.98828-3.56445c0-1.26953-.30078-2.32812-.90332-3.17383s-1.64355-1.26953-3.125-1.26953c-1.67676,0-2.87695.51172-3.60059,1.53711-.72461,1.02539-1.08691,2.35352-1.08691,3.98047h-6.20117c0-2.34375.42285-4.35352,1.26953-6.03125.84668-1.67578,2.08301-2.95703,3.71094-3.8457,1.62793-.88672,3.59668-1.33008,5.9082-1.33008,2.14844,0,4.02051.38281,5.61523,1.14844s2.83203,1.86328,3.71094,3.29492c.87891,1.43359,1.31836,3.17383,1.31836,5.22461,0,1.70898-.30469,3.22656-.91504,4.55273-.61035,1.32812-1.44043,2.55664-2.49023,3.6875s-2.22656,2.27539-3.52832,3.42969l-6.32324,5.5918h14.11133v5.49219h-23.16895Z" fill="#fff"/>
      <path d="M360.28243,375.54024c-3.75977,0-6.67285-.86328-8.74023-2.58789s-3.10059-4.33789-3.10059-7.83789h6.20117c0,1.61133.49219,2.86914,1.47754,3.77148.98438.9043,2.36328,1.35547,4.1377,1.35547,1.61133,0,2.83594-.38086,3.6748-1.14648.83789-.76562,1.25684-1.96875,1.25684-3.61328,0-1.5957-.52051-2.75-1.5625-3.4668s-2.37598-1.07422-4.00391-1.07422h-1.97754v-5.07812h2.17285c1.46484,0,2.64453-.37891,3.54004-1.13672.89551-.75586,1.34277-1.75195,1.34277-2.99023,0-1.26953-.39453-2.20508-1.18359-2.80664-.79004-.60156-1.88477-.9043-3.28418-.9043-1.51367,0-2.68164.38672-3.50293,1.16016-.82227.77344-1.2334,1.84375-1.2334,3.21094h-6.20117c0-2.21289.48438-4.0332,1.45312-5.45703.96777-1.42383,2.27441-2.48633,3.91797-3.18555s3.49121-1.05078,5.54199-1.05078c1.9209,0,3.69434.29688,5.32227.89062,1.62793.5957,2.93359,1.51367,3.91895,2.75977.98438,1.24414,1.47656,2.84375,1.47656,4.79688,0,1.9707-.49219,3.52734-1.47656,4.67578-.98535,1.14648-2.31543,1.95703-3.99219,2.42969,1.82324.375,3.33691,1.18359,4.54102,2.42773,1.2041,1.24609,1.80664,3.00781,1.80664,5.28711,0,2.06641-.46777,3.8125-1.40332,5.23633-.93652,1.42383-2.2627,2.50195-3.97949,3.23438-1.71777.73242-3.76465,1.09961-6.14062,1.09961Z" fill="#fff"/>
      <path d="M377.4211,382.69258l-.87891-3.19727c1.13965-.35938,2.06738-.89258,2.7832-1.59961.71582-.70898,1.14746-1.63281,1.29395-2.77148l.41504.3418c-1.25293,0-2.2666-.38672-3.03906-1.16016-.77344-.77148-1.16016-1.71094-1.16016-2.81836,0-1.20508.38672-2.16406,1.16016-2.88086.77246-.7168,1.78613-1.07422,3.03906-1.07422,1.2207,0,2.20996.42578,2.9668,1.28125.75684.85352,1.13477,2.12891,1.13477,3.82031,0,2.00195-.37793,3.69922-1.13477,5.08984-.75684,1.39258-1.72168,2.49414-2.89355,3.30859s-2.40039,1.36719-3.68652,1.66016Z" fill="#fff"/>
      <path d="M400.39474,375.12422v-4.49219l11.69434-10.64453c1.35059-1.23633,2.35645-2.43164,3.01562-3.58789s.98828-2.34375.98828-3.56445c0-1.26953-.30078-2.32812-.90332-3.17383s-1.64355-1.26953-3.125-1.26953c-1.67676,0-2.87695.51172-3.60059,1.53711-.72461,1.02539-1.08691,2.35352-1.08691,3.98047h-6.20117c0-2.34375.42285-4.35352,1.26953-6.03125.84668-1.67578,2.08301-2.95703,3.71094-3.8457,1.62793-.88672,3.59668-1.33008,5.9082-1.33008,2.14844,0,4.02051.38281,5.61523,1.14844s2.83203,1.86328,3.71094,3.29492c.87891,1.43359,1.31836,3.17383,1.31836,5.22461,0,1.70898-.30469,3.22656-.91504,4.55273-.61035,1.32812-1.44043,2.55664-2.49023,3.6875s-2.22656,2.27539-3.52832,3.42969l-6.32324,5.5918h14.11133v5.49219h-23.16895Z" fill="#fff"/>
      <path d="M438.67599,375.56368c-1.8877,0-3.54004-.35742-4.95605-1.07422-1.41602-.71484-2.59961-1.76953-3.55176-3.16211-.95215-1.39062-1.66895-3.10352-2.14844-5.13867-.48047-2.0332-.7207-4.36914-.7207-7.00586,0-2.65234.24023-5.00195.7207-7.04492.47949-2.04102,1.19629-3.76758,2.14844-5.17578.95215-1.40625,2.13574-2.46875,3.55176-3.18555,1.41602-.71484,3.06836-1.07422,4.95605-1.07422s3.54395.35938,4.96875,1.07422c1.42383.7168,2.6123,1.7793,3.56445,3.18555.95215,1.4082,1.67188,3.13477,2.16016,5.17578.48828,2.04297.73242,4.38281.73242,7.01953,0,2.6543-.24414,4.99805-.73242,7.03125-.48828,2.03516-1.20801,3.74805-2.16016,5.13867-.95215,1.39258-2.14062,2.44727-3.56445,3.16211-1.4248.7168-3.08105,1.07422-4.96875,1.07422ZM438.67599,369.925c.91113,0,1.66406-.27734,2.25879-.83008.59375-.55273,1.05762-1.32227,1.3916-2.30859.33301-.98438.56934-2.13086.70801-3.44141.1377-1.31055.20703-2.70508.20703-4.1875,0-1.49609-.06934-2.90039-.20703-4.21094-.13867-1.31055-.375-2.46094-.70801-3.45508-.33398-.99219-.79785-1.76562-1.3916-2.31836-.59473-.55273-1.34766-.83008-2.25879-.83008-.89551,0-1.63574.27734-2.22168.83008s-1.0498,1.32617-1.3916,2.31836c-.3418.99414-.58203,2.14453-.71973,3.45508-.13867,1.31055-.20801,2.71484-.20801,4.21094,0,1.48242.06934,2.87695.20801,4.1875.1377,1.31055.37793,2.45703.71973,3.44141.3418.98633.80566,1.75586,1.3916,2.30859s1.32617.83008,2.22168.83008Z" fill="#fff"/>
      <path d="M453.81271,375.12422v-4.49219l11.69434-10.64453c1.35059-1.23633,2.35645-2.43164,3.01562-3.58789s.98828-2.34375.98828-3.56445c0-1.26953-.30078-2.32812-.90332-3.17383s-1.64355-1.26953-3.125-1.26953c-1.67676,0-2.87695.51172-3.60059,1.53711-.72461,1.02539-1.08691,2.35352-1.08691,3.98047h-6.20117c0-2.34375.42285-4.35352,1.26953-6.03125.84668-1.67578,2.08301-2.95703,3.71094-3.8457,1.62793-.88672,3.59668-1.33008,5.9082-1.33008,2.14844,0,4.02051.38281,5.61523,1.14844s2.83203,1.86328,3.71094,3.29492c.87891,1.43359,1.31836,3.17383,1.31836,5.22461,0,1.70898-.30469,3.22656-.91504,4.55273-.61035,1.32812-1.44043,2.55664-2.49023,3.6875s-2.22656,2.27539-3.52832,3.42969l-6.32324,5.5918h14.11133v5.49219h-23.16895Z" fill="#fff"/>
      <path d="M492.77755,375.56368c-2.37598,0-4.49219-.55273-6.34766-1.66016-1.85547-1.10547-3.31641-2.85156-4.38184-5.23633-1.06641-2.38477-1.59961-5.48828-1.59961-9.31445,0-3.82422.5293-6.96094,1.58691-9.41211,1.05762-2.44922,2.51855-4.26758,4.38281-5.45508,1.86328-1.1875,3.99121-1.7832,6.38379-1.7832,2.99512,0,5.38379.77344,7.16602,2.32031s2.89258,3.73438,3.33203,6.56641h-6.22559c-.26074-1.20312-.75293-2.09961-1.47656-2.68555-.72461-.58594-1.65625-.87891-2.7959-.87891-1.85547,0-3.27539.92773-4.25977,2.7832-.98535,1.85547-1.47754,4.70508-1.47754,8.54492v1.61133c0,2.3125.27637,4.14648.83008,5.50586s1.26562,2.33203,2.13672,2.91797c.87012.58594,1.78613.87891,2.74609.87891,1.51367,0,2.64941-.50391,3.40625-1.51367s1.13477-2.28711,1.13477-3.83398c0-1.48047-.37012-2.64062-1.11035-3.47852-.74121-.83789-1.7627-1.25781-3.06445-1.25781-1.79004,0-3.34082.43555-4.65039,1.30664-1.31055.87109-2.32422,1.95703-3.04004,3.25977l-.43945-4.63867c.73242-.94336,1.53027-1.81055,2.39258-2.60156.8623-.78906,1.85547-1.41602,2.97852-1.87891,1.12305-.46484,2.44141-.69531,3.95508-.69531,1.82324,0,3.45508.375,4.89551,1.12305s2.58301,1.86328,3.42969,3.34375c.84668,1.48242,1.26953,3.30469,1.26953,5.46875,0,2.08398-.43164,3.92773-1.29395,5.5293-.8623,1.60352-2.12402,2.86523-3.78418,3.78516s-3.68652,1.37891-6.0791,1.37891Z" fill="#fff"/>
      <path d="M509.40353,382.69258l-.87891-3.19727c1.13965-.35938,2.06738-.89258,2.7832-1.59961.71582-.70898,1.14746-1.63281,1.29395-2.77148l.41504.3418c-1.25293,0-2.2666-.38672-3.03906-1.16016-.77344-.77148-1.16016-1.71094-1.16016-2.81836,0-1.20508.38672-2.16406,1.16016-2.88086.77246-.7168,1.78613-1.07422,3.03906-1.07422,1.2207,0,2.20996.42578,2.9668,1.28125.75684.85352,1.13477,2.12891,1.13477,3.82031,0,2.00195-.37793,3.69922-1.13477,5.08984-.75684,1.39258-1.72168,2.49414-2.89355,3.30859s-2.40039,1.36719-3.68652,1.66016ZM513.01681,359.25508c-1.25293,0-2.2666-.38672-3.03906-1.16016-.77344-.77148-1.16016-1.71094-1.16016-2.81836,0-1.20508.38672-2.16406,1.16016-2.88086.77246-.7168,1.78613-1.07422,3.03906-1.07422,1.2207,0,2.20996.35742,2.9668,1.07422s1.13477,1.67578,1.13477,2.88086c0,1.10742-.37793,2.04688-1.13477,2.81836-.75684.77344-1.74609,1.16016-2.9668,1.16016Z" fill="#fff"/>
      <path d="M70.51192,425.56368c-3.38574,0-6.0957-.86133-8.12988-2.58789-2.03418-1.72461-3.05176-4.19922-3.05176-7.42188h4.07715c0,1.98633.62305,3.56836,1.86816,4.74805,1.24512,1.18164,2.97363,1.77148,5.1875,1.77148,2.05078,0,3.66602-.49609,4.84668-1.49023,1.17969-.99219,1.76953-2.5293,1.76953-4.61328,0-2.00195-.65137-3.47461-1.95312-4.41992-1.30176-.94336-3.08398-1.41602-5.34668-1.41602h-1.87988v-3.4668h1.97754c2.03418,0,3.58887-.50391,4.66309-1.51367,1.07422-1.00781,1.61133-2.35156,1.61133-4.02734,0-1.5957-.5293-2.78711-1.58691-3.57812-1.05762-.78906-2.44922-1.18359-4.1748-1.18359-1.95312,0-3.4668.52148-4.54102,1.5625-1.07422,1.04297-1.61133,2.41016-1.61133,4.10156h-4.07715c0-1.88672.43164-3.51953,1.29395-4.89453s2.05469-2.4375,3.57715-3.18555c1.52148-.74805,3.29102-1.12305,5.30957-1.12305,1.82324,0,3.4834.30469,4.98047.91406,1.49707.61133,2.68945,1.51367,3.57715,2.71094.88672,1.19531,1.33008,2.68945,1.33008,4.48047,0,1.9043-.5293,3.4707-1.58691,4.69922s-2.44922,2.08789-4.1748,2.57617c1.96973.35742,3.60156,1.20508,4.89551,2.53906s1.94043,3.13281,1.94043,5.39453c0,2.01953-.45117,3.72852-1.35449,5.12695-.90332,1.40039-2.16504,2.4668-3.78418,3.19922-1.62012.73242-3.50391,1.09766-5.65234,1.09766Z" fill="#fff"/>
      <path d="M90.82442,407.49727c-.91113,0-1.66797-.29688-2.27051-.89062s-.90332-1.32227-.90332-2.18555c0-.89453.30078-1.63086.90332-2.20898s1.35938-.86719,2.27051-.86719c.89551,0,1.63574.28906,2.22168.86719s.87891,1.31445.87891,2.20898c0,.86328-.29297,1.5918-.87891,2.18555s-1.32617.89062-2.22168.89062ZM90.82442,425.36836c-.91113,0-1.66797-.29688-2.27051-.89062s-.90332-1.32227-.90332-2.18555c0-.89453.30078-1.63086.90332-2.20898s1.35938-.86719,2.27051-.86719c.89551,0,1.63574.28906,2.22168.86719s.87891,1.31445.87891,2.20898c0,.86328-.29297,1.5918-.87891,2.18555s-1.32617.89062-2.22168.89062Z" fill="#fff"/>
      <path d="M111.28341,425.56368c-2.05078,0-3.78027-.41797-5.1875-1.25781-1.4082-.83789-2.53906-2.00195-3.39355-3.49023-.85449-1.49023-1.47363-3.21875-1.85547-5.1875-.38281-1.96875-.57422-4.09375-.57422-6.37305,0-2.31055.19141-4.45898.57422-6.44531.38184-1.98438,1.00098-3.72656,1.85547-5.22461.85449-1.49609,1.98535-2.66406,3.39355-3.50391,1.40723-.83789,3.13672-1.25586,5.1875-1.25586s3.78027.41406,5.18848,1.24414c1.40723.83008,2.53418,1.99805,3.38086,3.50391s1.46094,3.24609,1.84375,5.22461c.38184,1.97656.57324,4.11328.57324,6.4082s-.19141,4.43164-.57324,6.4082c-.38281,1.97852-.99707,3.71094-1.84375,5.20117-.84668,1.48828-1.97363,2.65234-3.38086,3.49023-1.4082.83984-3.1377,1.25781-5.18848,1.25781ZM111.28341,421.99922c1.35059,0,2.45801-.36523,3.32031-1.09766s1.53418-1.71289,2.01465-2.94336c.47949-1.22852.81348-2.60352,1.00098-4.125.18652-1.52148.28027-3.06445.28027-4.62695,0-1.57812-.09375-3.12891-.28027-4.65039-.1875-1.52148-.52148-2.89648-1.00098-4.12695-.48047-1.22852-1.15234-2.20898-2.01465-2.94141s-1.96973-1.09766-3.32031-1.09766-2.46191.36523-3.33203,1.09766c-.87109.73242-1.55078,1.71289-2.03906,2.94141-.48828,1.23047-.82617,2.60547-1.0127,4.12695-.1875,1.52148-.28125,3.07227-.28125,4.65039,0,1.5625.09375,3.10547.28125,4.62695.18652,1.52148.52441,2.89648,1.0127,4.125.48828,1.23047,1.16797,2.21094,2.03906,2.94336.87012.73242,1.98145,1.09766,3.33203,1.09766Z" fill="#fff"/>
      <path d="M137.99239,425.56368c-2.05078,0-3.78027-.41797-5.1875-1.25781-1.4082-.83789-2.53906-2.00195-3.39355-3.49023-.85449-1.49023-1.47363-3.21875-1.85547-5.1875-.38281-1.96875-.57422-4.09375-.57422-6.37305,0-2.31055.19141-4.45898.57422-6.44531.38184-1.98438,1.00098-3.72656,1.85547-5.22461.85449-1.49609,1.98535-2.66406,3.39355-3.50391,1.40723-.83789,3.13672-1.25586,5.1875-1.25586s3.78027.41406,5.18848,1.24414c1.40723.83008,2.53418,1.99805,3.38086,3.50391s1.46094,3.24609,1.84375,5.22461c.38184,1.97656.57324,4.11328.57324,6.4082s-.19141,4.43164-.57324,6.4082c-.38281,1.97852-.99707,3.71094-1.84375,5.20117-.84668,1.48828-1.97363,2.65234-3.38086,3.49023-1.4082.83984-3.1377,1.25781-5.18848,1.25781ZM137.99239,421.99922c1.35059,0,2.45801-.36523,3.32031-1.09766s1.53418-1.71289,2.01465-2.94336c.47949-1.22852.81348-2.60352,1.00098-4.125.18652-1.52148.28027-3.06445.28027-4.62695,0-1.57812-.09375-3.12891-.28027-4.65039-.1875-1.52148-.52148-2.89648-1.00098-4.12695-.48047-1.22852-1.15234-2.20898-2.01465-2.94141s-1.96973-1.09766-3.32031-1.09766-2.46191.36523-3.33203,1.09766c-.87109.73242-1.55078,1.71289-2.03906,2.94141-.48828,1.23047-.82617,2.60547-1.0127,4.12695-.1875,1.52148-.28125,3.07227-.28125,4.65039,0,1.5625.09375,3.10547.28125,4.62695.18652,1.52148.52441,2.89648,1.0127,4.125.48828,1.23047,1.16797,2.21094,2.03906,2.94336.87012.73242,1.98145,1.09766,3.33203,1.09766Z" fill="#fff"/>
      <path d="M165.4338,433.86446v-32.51953h3.95508l.12207,3.88281c.84668-1.26953,1.94141-2.30273,3.28418-3.10156,1.34277-.79688,2.90039-1.19531,4.6748-1.19531,1.95312,0,3.6377.45898,5.05371,1.37891s2.51074,2.29102,3.28418,4.11328c.77246,1.82422,1.15918,4.09375,1.15918,6.8125,0,2.68555-.41113,4.94336-1.23242,6.77344-.82227,1.83203-1.98242,3.21484-3.47949,4.15039-1.49707.9375-3.25488,1.4043-5.27344,1.4043-1.69238,0-3.17383-.33789-4.44336-1.01367-1.26953-.67383-2.28711-1.59766-3.05176-2.76953v12.08398h-4.05273ZM176.22482,422.21993c2.16504,0,3.79688-.77734,4.89551-2.33203s1.64746-3.77148,1.64746-6.65234c0-2.91406-.5127-5.14258-1.53809-6.68945s-2.53125-2.32031-4.5166-2.32031c-1.74121,0-3.20996.46484-4.40625,1.39258s-2.12891,2.00977-2.7959,3.24609v9.17969c.65137,1.23828,1.53027,2.24219,2.63672,3.01562s2.46582,1.16016,4.07715,1.16016Z" fill="#fff"/>
      <path d="M193.48556,425.12422v-23.7793h3.90625l.14648,3.66211c.7002-.95898,1.72559-1.86719,3.07617-2.72266,1.35059-.85352,3.03516-1.28125,5.05371-1.28125,2.63672,0,4.5332.77344,5.68848,2.32031s1.7334,3.70312,1.7334,6.46875v15.33203h-4.10156v-14.74609c0-1.1543-.11816-2.17969-.35352-3.07617-.23633-.89453-.67188-1.59961-1.30664-2.11133-.63477-.51367-1.5459-.76953-2.73438-.76953-1.67676,0-3.09277.40234-4.24805,1.20898-1.15527.80469-2.08301,1.68945-2.7832,2.64844v16.8457h-4.07715ZM224.44259,425.12422v-14.74609c0-1.1543-.11816-2.17969-.35352-3.07617-.23633-.89453-.67188-1.59961-1.30664-2.11133-.63477-.51367-1.53809-.76953-2.70996-.76953-1.69238,0-3.11719.39453-4.27246,1.18359-1.15527.79102-2.10742,1.66602-2.85645,2.625l-.61035-2.97852c.94434-1.04102,2.13672-2.00977,3.57715-2.9043s3.16895-1.34375,5.1875-1.34375c2.63672,0,4.5332.77344,5.68848,2.32031s1.7334,3.70312,1.7334,6.46875v15.33203h-4.07715Z" fill="#fff"/>
      <path d="M260.67306,425.56368c-3.40137,0-6.2666-.71484-8.59375-2.14844-2.32715-1.43164-4.08887-3.4082-5.28516-5.93164s-1.79492-5.44531-1.79492-8.76562.59863-6.25,1.79492-8.78906,2.95801-4.52344,5.28516-5.95703c2.32715-1.43164,5.19238-2.14844,8.59375-2.14844,2.24609,0,4.36621.39062,6.36035,1.17188,1.99316.78125,3.65332,1.97461,4.98047,3.57617,1.32617,1.60352,2.10352,3.62695,2.33105,6.06836h-4.41895c-.19531-1.64453-.74414-3-1.64746-4.06641-.90332-1.06445-2.01855-1.85742-3.34473-2.37891-1.32715-.52148-2.74707-.78125-4.26074-.78125-2.63672,0-4.77246.60156-6.4082,1.80664s-2.82812,2.80664-3.57715,4.80859-1.12305,4.23242-1.12305,6.68945c0,2.44141.37402,4.66406,1.12305,6.66602s1.94141,3.5918,3.57715,4.77148c1.63574,1.18164,3.77148,1.77148,6.4082,1.77148,2.66895,0,4.83398-.66016,6.49414-1.97852s2.62012-3.28711,2.88086-5.9082h4.44336c-.26074,2.58789-1.01758,4.73242-2.27051,6.43359s-2.87305,2.97461-4.8584,3.82031-4.21582,1.26953-6.68945,1.26953Z" fill="#fff"/>
      <path d="M281.27853,425.12422v-32.86133h20.97168v3.66211h-16.57715v10.47461h15.25879v3.61328h-15.25879v11.44922h16.57715v3.66211h-20.97168Z" fill="#fff"/>
      <path d="M319.16915,425.56368c-2.34375,0-4.45996-.35742-6.34766-1.07422-1.8877-.71484-3.38965-1.83789-4.50391-3.36914-1.11523-1.5293-1.67285-3.51562-1.67285-5.95703h4.41895c0,1.74219.37891,3.10938,1.13574,4.10156.75684.99414,1.76172,1.69336,3.01465,2.09961,1.25293.4082,2.62891.61133,4.12598.61133,1.38379,0,2.64941-.20898,3.79688-.62305,1.14746-.41602,2.0625-1.04102,2.74609-1.88086.68359-.83789,1.02539-1.91602,1.02539-3.23438,0-1.13867-.26855-2.07422-.80566-2.80664s-1.42773-1.37109-2.67285-1.91797c-1.24512-.54492-2.91797-1.08594-5.01758-1.62305-2.47363-.65039-4.50879-1.36328-6.10352-2.13672-1.59473-.77148-2.7793-1.73633-3.55176-2.89258-.77344-1.1543-1.16016-2.61914-1.16016-4.39453,0-1.87109.43945-3.44531,1.31836-4.72461.87891-1.27734,2.14062-2.24805,3.78418-2.91602s3.59668-1.00195,5.85938-1.00195c2.11621,0,4.05273.3418,5.81055,1.02539s3.16211,1.70898,4.21191,3.07617,1.57422,3.06836,1.57422,5.10352h-4.39453c.0166-1.85547-.66699-3.25977-2.05078-4.21289-1.38379-.95117-3.09277-1.42773-5.12695-1.42773-2.09961,0-3.73145.41992-4.89453,1.25781-1.16406.83789-1.74609,2.0625-1.74609,3.67383,0,.96094.25195,1.76172.75684,2.4043.50488.64453,1.37109,1.22656,2.60059,1.74609,1.22852.52148,2.94141,1.06641,5.13867,1.63672,2.53906.68359,4.60254,1.41602,6.18945,2.19727s2.75391,1.78125,3.50293,3.00195,1.12305,2.82422,1.12305,4.81055c0,2.11523-.5293,3.86914-1.58691,5.25977-1.05762,1.39258-2.49805,2.43945-4.32129,3.13867s-3.88184,1.04883-6.17676,1.04883Z" fill="#fff"/>
      <path d="M341.92306,425.12422v-29.17383h-9.35059v-3.6875h23.04688v3.6875h-9.32617v29.17383h-4.37012Z" fill="#fff"/>
    </g>
    <g>
      <rect x="53.50675" y="55.69234" width="1277.01206" height="170.15279" fill="none"/>
      <path d="M59.35177,114.82247v-59.15039h22.14844c6.82617,0,12.20898,1.17969,16.14844,3.53809,3.94141,2.35742,5.91211,6.10156,5.91211,11.22754,0,3.16406-.84375,5.78613-2.52734,7.86621-1.68555,2.08008-3.875,3.63281-6.57031,4.6582,4.42383.99609,7.64648,2.73242,9.66797,5.20703,2.02148,2.47656,3.0332,5.51562,3.0332,9.11914,0,4.16016-1.01953,7.5293-3.05469,10.10742-2.03711,2.57812-4.82617,4.46094-8.37109,5.64648-3.54492,1.1875-7.60352,1.78027-12.17383,1.78027h-24.21289ZM76.6213,78.30391h4.61523c1.34766,0,2.50391-.43164,3.4707-1.29688.9668-.86328,1.45117-2.14551,1.45117-3.84473,0-1.1709-.25-2.09473-.74805-2.76855s-1.12109-1.14941-1.86719-1.42773c-.74805-.2793-1.51562-.41797-2.30664-.41797h-4.61523v9.75586ZM76.6213,101.94649h6.32812c1.37695,0,2.57812-.21289,3.60352-.63672,1.02539-.4248,1.81641-1.0625,2.37305-1.91211s.83594-1.91797.83594-3.20801c0-1.8457-.60156-3.14941-1.80273-3.91113s-2.90039-1.14258-5.09766-1.14258h-6.24023v10.81055Z" fill="#fff"/>
      <path d="M128.60958,115.4377c-4.24805,0-7.66992-1.24512-10.26172-3.73535-2.59375-2.49023-3.88867-6.37207-3.88867-11.64551v-28.25684h16.39062v26.2793c0,.99609.16797,1.83887.50586,2.52734.33594.6875.82812,1.20801,1.47266,1.55957s1.41992.52734,2.32812.52734c1.37695,0,2.6875-.3584,3.93359-1.07715,1.24414-.7168,2.42383-1.75,3.53711-3.09766v-26.71875h16.39258v43.02246h-15.82031l-.17578-6.19629c-1.52344,1.93359-3.39258,3.55273-5.60352,4.85547-2.21289,1.30469-5.14844,1.95605-8.81055,1.95605Z" fill="#fff"/>
      <path d="M192.50607,114.82247c-5.30273,0-9.44922-.4834-12.4375-1.4502s-5.09766-2.62109-6.32812-4.96582c-1.23047-2.34375-1.8457-5.58105-1.8457-9.71191v-14.45801h-7.03125v-12.43652h7.03125v-10.54688h16.39258v10.54688h8.17383v12.43652h-8.17383v13.40332c0,1.78711.29883,3.00977.90039,3.66992.59961.6582,1.79492.98828,3.58203.98828h3.51562v12.52441h-3.7793Z" fill="#fff"/>
      <path d="M227.35372,114.82247c-5.30273,0-9.44727-.4834-12.43555-1.4502s-5.09766-2.62109-6.32812-4.96582c-1.23047-2.34375-1.8457-5.58105-1.8457-9.71191v-14.45801h-7.03125v-12.43652h7.03125v-10.54688h16.39062v10.54688h8.17383v12.43652h-8.17383v13.40332c0,1.78711.30078,3.00977.90234,3.66992.59961.6582,1.79297.98828,3.58008.98828h3.51562v12.52441h-3.7793Z" fill="#fff"/>
      <path d="M260.13692,115.61348c-4.51172,0-8.54688-.79102-12.10742-2.37305-3.55859-1.58203-6.35742-4.04297-8.39258-7.38281-2.03711-3.33984-3.05469-7.61719-3.05469-12.83203,0-4.7168.99609-8.68652,2.98828-11.90918s4.73828-5.66895,8.24023-7.33887c3.5-1.66992,7.49219-2.50488,11.97461-2.50488,6.97266,0,12.52539,1.94141,16.65625,5.82227,4.13086,3.88281,6.19531,9.55859,6.19531,17.0293,0,.29297-.01367.67383-.04297,1.14258s-.07422.86426-.13281,1.18652h-29.61914c.05859,1.43555.33789,2.78418.83594,4.04297.49805,1.25977,1.29492,2.27051,2.39453,3.03223,1.09766.76172,2.54102,1.14258,4.32812,1.14258,1.93359,0,3.53711-.34375,4.8125-1.0332,1.27344-.6875,1.95508-1.82324,2.04297-3.40527h15.20508c-.23438,3.7207-1.31055,6.70898-3.23047,8.96484-1.91797,2.25684-4.51172,3.88965-7.77734,4.89941-3.26758,1.01172-7.03906,1.5166-11.31641,1.5166ZM253.19357,87.66426h13.27148c-.14648-2.16797-.87891-3.71973-2.19727-4.6582-1.31836-.9375-2.8125-1.40625-4.48242-1.40625-1.69922,0-3.17188.52051-4.41602,1.55957-1.24609,1.04102-1.9707,2.54297-2.17578,4.50488Z" fill="#fff"/>
      <path d="M290.45919,114.82247v-43.02246h15.9082l.17578,7.55859c.99609-2.92969,2.64453-5.02441,4.94531-6.28418,2.29883-1.25879,4.91406-1.88965,7.84375-1.88965h.79102v13.22754h-1.05469c-1.31836,0-2.74609.10254-4.28516.30762-1.53711.20508-3.01758.63086-4.4375,1.27441-1.42188.64453-2.60156,1.6416-3.53906,2.98828v25.83984h-16.34766Z" fill="#fff"/>
      <path d="M373.16427,115.61348c-2.57812,0-4.84766-.52051-6.81055-1.55957-1.96289-1.04004-3.86719-2.67383-5.71289-4.90039l-.43945,5.66895h-15.29297v-59.15039h16.34766v21.70898c1.55273-1.99219,3.36914-3.52246,5.44922-4.59277,2.08008-1.06836,4.55469-1.60352,7.42578-1.60352,3.42773,0,6.44531.79883,9.05273,2.39453,2.60742,1.59766,4.64453,4.03711,6.10938,7.31738,1.46484,3.28125,2.19727,7.48535,2.19727,12.6123,0,5.03906-.79883,9.19141-2.39648,12.45898-1.5957,3.2666-3.77148,5.69043-6.52539,7.27246s-5.88867,2.37305-9.4043,2.37305ZM368.55099,103.48457c1.99219,0,3.58789-.82715,4.78906-2.4834,1.20117-1.6543,1.80273-4.25488,1.80273-7.7998,0-3.63184-.59375-6.21777-1.78125-7.75684-1.18555-1.53711-2.78906-2.30664-4.81055-2.30664-1.875,0-3.45703.62305-4.74609,1.86719-1.28906,1.24609-2.13867,2.4248-2.54883,3.53809v9.7998c.64453,1.17188,1.55859,2.32227,2.74609,3.44922,1.18555,1.12891,2.70312,1.69238,4.54883,1.69238Z" fill="#fff"/>
      <path d="M420.97677,115.61348c-4.51172,0-8.54688-.79102-12.10742-2.37305-3.55859-1.58203-6.35742-4.04297-8.39258-7.38281-2.03711-3.33984-3.05469-7.61719-3.05469-12.83203,0-4.7168.99609-8.68652,2.98828-11.90918s4.73828-5.66895,8.24023-7.33887c3.5-1.66992,7.49219-2.50488,11.97461-2.50488,6.97266,0,12.52539,1.94141,16.65625,5.82227,4.13086,3.88281,6.19531,9.55859,6.19531,17.0293,0,.29297-.01367.67383-.04297,1.14258s-.07422.86426-.13281,1.18652h-29.61914c.05859,1.43555.33789,2.78418.83594,4.04297.49805,1.25977,1.29492,2.27051,2.39453,3.03223,1.09766.76172,2.54102,1.14258,4.32812,1.14258,1.93359,0,3.53711-.34375,4.8125-1.0332,1.27344-.6875,1.95508-1.82324,2.04297-3.40527h15.20508c-.23438,3.7207-1.31055,6.70898-3.23047,8.96484-1.91797,2.25684-4.51172,3.88965-7.77734,4.89941-3.26758,1.01172-7.03906,1.5166-11.31641,1.5166ZM414.03341,87.66426h13.27148c-.14648-2.16797-.87891-3.71973-2.19727-4.6582-1.31836-.9375-2.8125-1.40625-4.48242-1.40625-1.69922,0-3.17188.52051-4.41602,1.55957-1.24609,1.04102-1.9707,2.54297-2.17578,4.50488Z" fill="#fff"/>
      <path d="M459.47286,68.81172c-2.95898,0-5.15625-.68164-6.5918-2.04297-1.43555-1.36328-2.15234-3.06934-2.15234-5.12012,0-2.1377.7168-3.87402,2.15234-5.20801,1.43555-1.33203,3.63281-1.99902,6.5918-1.99902s5.15625.66699,6.5918,1.99902c1.43555,1.33398,2.1543,3.07031,2.1543,5.20801,0,2.05078-.71875,3.75684-2.1543,5.12012-1.43555,1.36133-3.63281,2.04297-6.5918,2.04297ZM451.29903,114.82247v-43.02246h16.34766v43.02246h-16.34766Z" fill="#fff"/>
      <path d="M511.24044,115.52559c-3.60352,0-6.70117-.79785-9.29297-2.39551-2.59375-1.5957-4.58594-4.03516-5.97656-7.31641-1.39258-3.28125-2.08789-7.44141-2.08789-12.48047,0-4.98047.75391-9.11914,2.26367-12.41406,1.50781-3.29688,3.63086-5.75781,6.37109-7.38281,2.73828-1.62695,5.93945-2.43945,9.60156-2.43945,3.07617,0,5.57422.58594,7.49414,1.75781,1.91797,1.17188,3.41992,2.59277,4.50391,4.2627v-21.44531h16.34766v59.15039h-15.82031l-.61523-5.93262c-1.52344,2.10938-3.27344,3.74219-5.25195,4.90039-1.97656,1.15625-4.49023,1.73535-7.53711,1.73535ZM516.73458,103.57247c1.99219,0,3.61719-.62207,4.87695-1.86816,1.25977-1.24414,2.0957-2.45312,2.50586-3.625v-9.7998c-.55664-1.1709-1.47266-2.32129-2.74609-3.4502-1.27539-1.12695-2.82031-1.69141-4.63672-1.69141-1.875,0-3.42773.86426-4.6582,2.59277-1.23047,1.72949-1.8457,4.35059-1.8457,7.86621,0,3.60352.59961,6.16797,1.80078,7.69043,1.20117,1.52344,2.76953,2.28516,4.70312,2.28516Z" fill="#fff"/>
      <path d="M558.39474,68.81172c-2.95898,0-5.15625-.68164-6.5918-2.04297-1.43555-1.36328-2.1543-3.06934-2.1543-5.12012,0-2.1377.71875-3.87402,2.1543-5.20801,1.43555-1.33203,3.63281-1.99902,6.5918-1.99902s5.15625.66699,6.5918,1.99902c1.43555,1.33398,2.15234,3.07031,2.15234,5.20801,0,2.05078-.7168,3.75684-2.15234,5.12012-1.43555,1.36133-3.63281,2.04297-6.5918,2.04297ZM550.22091,114.82247v-43.02246h16.34766v43.02246h-16.34766Z" fill="#fff"/>
      <path d="M598.07638,115.61348c-4.51172,0-8.54688-.79102-12.10742-2.37305-3.55859-1.58203-6.35742-4.04297-8.39258-7.38281-2.03711-3.33984-3.05469-7.61719-3.05469-12.83203,0-4.7168.99609-8.68652,2.98828-11.90918s4.73828-5.66895,8.24023-7.33887c3.5-1.66992,7.49219-2.50488,11.97461-2.50488,6.97266,0,12.52539,1.94141,16.65625,5.82227,4.13086,3.88281,6.19531,9.55859,6.19531,17.0293,0,.29297-.01367.67383-.04297,1.14258s-.07422.86426-.13281,1.18652h-29.61914c.05859,1.43555.33789,2.78418.83594,4.04297.49805,1.25977,1.29492,2.27051,2.39453,3.03223,1.09766.76172,2.54102,1.14258,4.32812,1.14258,1.93359,0,3.53711-.34375,4.8125-1.0332,1.27344-.6875,1.95508-1.82324,2.04297-3.40527h15.20508c-.23438,3.7207-1.31055,6.70898-3.23047,8.96484-1.91797,2.25684-4.51172,3.88965-7.77734,4.89941-3.26758,1.01172-7.03906,1.5166-11.31641,1.5166ZM591.13302,87.66426h13.27148c-.14648-2.16797-.87891-3.71973-2.19727-4.6582-1.31836-.9375-2.8125-1.40625-4.48242-1.40625-1.69922,0-3.17188.52051-4.41602,1.55957-1.24609,1.04102-1.9707,2.54297-2.17578,4.50488Z" fill="#fff"/>
      <path d="M647.64669,114.82247v-59.15039h40.78125v14.23828h-23.50977v8.26172h20.78516v13.71094h-20.78516v22.93945h-17.27148Z" fill="#fff"/>
      <path d="M703.45724,68.81172c-2.95898,0-5.15625-.68164-6.5918-2.04297-1.43555-1.36328-2.15234-3.06934-2.15234-5.12012,0-2.1377.7168-3.87402,2.15234-5.20801,1.43555-1.33203,3.63281-1.99902,6.5918-1.99902s5.15625.66699,6.5918,1.99902c1.43555,1.33398,2.1543,3.07031,2.1543,5.20801,0,2.05078-.71875,3.75684-2.1543,5.12012-1.43555,1.36133-3.63281,2.04297-6.5918,2.04297ZM695.28341,114.82247v-43.02246h16.34766v43.02246h-16.34766Z" fill="#fff"/>
      <path d="M740.10763,115.70137c-2.63672,0-5.16992-.18262-7.60156-.5498-2.43164-.36523-4.60742-1.03906-6.52539-2.02148-1.91992-.98047-3.43555-2.37305-4.54883-4.17383-1.11328-1.80273-1.66992-4.13867-1.66992-7.00977h14.85352c0,1.34766.50586,2.25586,1.51562,2.72461,1.01172.46875,2.29297.70312,3.8457.70312,1.49414,0,2.73828-.18262,3.73438-.54883.99609-.36719,1.49414-1.01758,1.49414-1.95605,0-.99512-.59961-1.77246-1.80078-2.3291s-3.69141-1.25977-7.4707-2.10938c-2.7832-.61523-5.39062-1.4502-7.82227-2.50488s-4.40234-2.51172-5.91016-4.37207c-1.50977-1.86133-2.26367-4.26953-2.26367-7.22949,0-2.69531.58594-4.89941,1.75781-6.61426,1.17188-1.71289,2.72461-3.03906,4.6582-3.97656s4.06445-1.59668,6.39453-1.97754c2.32812-.37988,4.65039-.57129,6.96484-.57129,2.49023,0,4.90625.20508,7.25.61523s4.44531,1.11328,6.30664,2.10938c1.85938.99609,3.33984,2.3584,4.43945,4.08691,1.09766,1.72949,1.64648,3.89648,1.64648,6.50391h-14.85352c0-1.11328-.43945-1.93359-1.31836-2.46094s-1.97656-.79102-3.29492-.79102c-1.34766,0-2.40234.15332-3.16406.46191-.76172.30664-1.14258.7832-1.14258,1.42773,0,.38086.24805.77637.74609,1.18652.49805.41113,1.53125.88574,3.09961,1.42871,1.56641.54199,3.91797,1.20801,7.05273,1.99902,3.01758.73242,5.60938,1.58887,7.77734,2.57129,2.16797.98145,3.8457,2.31445,5.0332,3.99805,1.18555,1.68555,1.7793,3.99219,1.7793,6.92188,0,2.63672-.56445,4.87109-1.69141,6.70117-1.12891,1.83203-2.66797,3.31836-4.61523,4.46094-1.94922,1.14258-4.18164,1.97754-6.70117,2.50488s-5.17188.79102-7.95508.79102Z" fill="#fff"/>
      <path d="M789.50216,115.61348c-4.74609,0-8.85547-.84961-12.32617-2.54883-3.47266-1.69824-6.15234-4.1748-8.04297-7.42676-1.88867-3.25195-2.83398-7.20703-2.83398-11.86523,0-4.77539.95898-8.84766,2.87891-12.2168,1.91797-3.36914,4.61328-5.93945,8.08594-7.71289,3.4707-1.77148,7.55078-2.6582,12.23828-2.6582,4.30664,0,8.05664.65918,11.25,1.97754s5.67578,3.28125,7.44922,5.88867c1.77148,2.6084,2.64453,5.86035,2.61523,9.75586h-15.82031c0-1.55273-.43945-2.82715-1.31836-3.82324s-2.27148-1.49414-4.17578-1.49414c-2.66602,0-4.49023.87891-5.4707,2.63672-.98242,1.75781-1.47266,4.30664-1.47266,7.64648,0,2.05078.21289,3.79492.63672,5.22949.42578,1.43555,1.14258,2.52637,2.1543,3.27441,1.00977.74609,2.39453,1.12012,4.15234,1.12012,1.99219,0,3.49414-.59277,4.50391-1.78027,1.01172-1.18555,1.51758-2.81836,1.51758-4.89941h15.77539c-.08789,3.98438-.98828,7.38965-2.70312,10.21777-1.71289,2.82715-4.17383,4.98047-7.38281,6.45898-3.20703,1.47949-7.11133,2.21973-11.71094,2.21973Z" fill="#fff"/>
      <path d="M819.1213,114.82247v-59.15039h15.99609v22.32422c1.55273-1.93359,3.42773-3.55176,5.625-4.85645,2.19727-1.30273,5.09766-1.95508,8.70117-1.95508,4.27734,0,7.71289,1.22363,10.30664,3.66992,2.5918,2.44531,3.88867,6.34961,3.88867,11.71094v28.25684h-16.34766v-26.2793c0-.99512-.17578-1.83105-.52734-2.50488s-.85742-1.18652-1.51562-1.53809c-.66016-.35156-1.45898-.52734-2.39648-.52734-1.34766,0-2.61328.33691-3.80078,1.01074-1.18555.67383-2.38086,1.71387-3.58203,3.12012v26.71875h-16.34766Z" fill="#fff"/>
      <path d="M894.79513,115.61348c-4.51172,0-8.54688-.79102-12.10742-2.37305-3.55859-1.58203-6.35742-4.04297-8.39258-7.38281-2.03711-3.33984-3.05469-7.61719-3.05469-12.83203,0-4.7168.99609-8.68652,2.98828-11.90918s4.73828-5.66895,8.24023-7.33887c3.5-1.66992,7.49219-2.50488,11.97461-2.50488,6.97266,0,12.52539,1.94141,16.65625,5.82227,4.13086,3.88281,6.19531,9.55859,6.19531,17.0293,0,.29297-.01367.67383-.04297,1.14258s-.07422.86426-.13281,1.18652h-29.61914c.05859,1.43555.33789,2.78418.83594,4.04297.49805,1.25977,1.29492,2.27051,2.39453,3.03223,1.09766.76172,2.54102,1.14258,4.32812,1.14258,1.93359,0,3.53711-.34375,4.8125-1.0332,1.27344-.6875,1.95508-1.82324,2.04297-3.40527h15.20508c-.23438,3.7207-1.31055,6.70898-3.23047,8.96484-1.91797,2.25684-4.51172,3.88965-7.77734,4.89941-3.26758,1.01172-7.03906,1.5166-11.31641,1.5166ZM887.85177,87.66426h13.27148c-.14648-2.16797-.87891-3.71973-2.19727-4.6582-1.31836-.9375-2.8125-1.40625-4.48242-1.40625-1.69922,0-3.17188.52051-4.41602,1.55957-1.24609,1.04102-1.9707,2.54297-2.17578,4.50488Z" fill="#fff"/>
      <path d="M944.36544,114.82247v-59.15039h20.34766l15.38086,27.46582h-6.02148l14.94141-27.46582h19.6875v59.15039h-16.91797v-52.55859h7.64648l-17.79883,34.18945h-10.23828l-18.01758-34.18945h7.55859v52.55859h-16.56836Z" fill="#fff"/>
      <path d="M1041.09005,115.61348c-4.51172,0-8.54688-.79102-12.10742-2.37305-3.55859-1.58203-6.35742-4.04297-8.39258-7.38281-2.03711-3.33984-3.05469-7.61719-3.05469-12.83203,0-4.7168.99609-8.68652,2.98828-11.90918s4.73828-5.66895,8.24023-7.33887c3.5-1.66992,7.49219-2.50488,11.97461-2.50488,6.97266,0,12.52344,1.94141,16.6543,5.82227,4.13086,3.88281,6.19727,9.55859,6.19727,17.0293,0,.29297-.01562.67383-.04492,1.14258s-.07227.86426-.13086,1.18652h-29.61914c.05859,1.43555.33594,2.78418.83398,4.04297.49805,1.25977,1.29688,2.27051,2.39648,3.03223,1.09766.76172,2.54102,1.14258,4.32812,1.14258,1.93359,0,3.53711-.34375,4.8125-1.0332,1.27344-.6875,1.95508-1.82324,2.04297-3.40527h15.20508c-.23438,3.7207-1.3125,6.70898-3.23047,8.96484-1.91992,2.25684-4.51172,3.88965-7.77734,4.89941-3.26758,1.01172-7.03906,1.5166-11.31641,1.5166ZM1034.14669,87.66426h13.27148c-.14648-2.16797-.87891-3.71973-2.19727-4.6582-1.31836-.9375-2.8125-1.40625-4.48242-1.40625-1.69922,0-3.17188.52051-4.41602,1.55957-1.24609,1.04102-1.9707,2.54297-2.17578,4.50488Z" fill="#fff"/>
      <path d="M1093.07638,115.61348c-4.51172,0-8.54688-.79102-12.10742-2.37305-3.55859-1.58203-6.35742-4.04297-8.39258-7.38281-2.03711-3.33984-3.05469-7.61719-3.05469-12.83203,0-4.7168.99609-8.68652,2.98828-11.90918s4.73828-5.66895,8.24023-7.33887c3.5-1.66992,7.49219-2.50488,11.97461-2.50488,6.97266,0,12.52539,1.94141,16.65625,5.82227,4.13086,3.88281,6.19531,9.55859,6.19531,17.0293,0,.29297-.01367.67383-.04297,1.14258s-.07422.86426-.13281,1.18652h-29.61914c.05859,1.43555.33789,2.78418.83594,4.04297.49805,1.25977,1.29492,2.27051,2.39453,3.03223,1.09766.76172,2.54102,1.14258,4.32812,1.14258,1.93359,0,3.53711-.34375,4.8125-1.0332,1.27344-.6875,1.95508-1.82324,2.04297-3.40527h15.20508c-.23438,3.7207-1.31055,6.70898-3.23047,8.96484-1.91797,2.25684-4.51172,3.88965-7.77734,4.89941-3.26758,1.01172-7.03906,1.5166-11.31641,1.5166ZM1086.13302,87.66426h13.27148c-.14648-2.16797-.87891-3.71973-2.19727-4.6582-1.31836-.9375-2.8125-1.40625-4.48242-1.40625-1.69922,0-3.17188.52051-4.41602,1.55957-1.24609,1.04102-1.9707,2.54297-2.17578,4.50488Z" fill="#fff"/>
      <path d="M1146.68966,114.82247c-5.30273,0-9.44727-.4834-12.43555-1.4502s-5.09766-2.62109-6.32812-4.96582c-1.23047-2.34375-1.8457-5.58105-1.8457-9.71191v-14.45801h-7.03125v-12.43652h7.03125v-10.54688h16.39062v10.54688h8.17383v12.43652h-8.17383v13.40332c0,1.78711.30078,3.00977.90234,3.66992.59961.6582,1.79297.98828,3.58008.98828h3.51562v12.52441h-3.7793Z" fill="#fff"/>
      <path d="M1166.42208,68.81172c-2.95898,0-5.15625-.68164-6.5918-2.04297-1.43555-1.36328-2.1543-3.06934-2.1543-5.12012,0-2.1377.71875-3.87402,2.1543-5.20801,1.43555-1.33203,3.63281-1.99902,6.5918-1.99902s5.15625.66699,6.5918,1.99902c1.43555,1.33398,2.15234,3.07031,2.15234,5.20801,0,2.05078-.7168,3.75684-2.15234,5.12012-1.43555,1.36133-3.63281,2.04297-6.5918,2.04297ZM1158.24825,114.82247v-43.02246h16.34766v43.02246h-16.34766Z" fill="#fff"/>
      <path d="M1184.43966,114.82247v-43.02246h15.82031l.17578,6.19629c1.55273-1.93359,3.43359-3.55176,5.64648-4.85645,2.21094-1.30273,5.13477-1.95508,8.76758-1.95508,4.21875,0,7.62305,1.24609,10.2168,3.73535,2.5918,2.49023,3.88867,6.37207,3.88867,11.64551v28.25684h-16.34766v-26.2793c0-.99512-.16797-1.83105-.50586-2.50488-.33594-.67383-.82617-1.18652-1.4707-1.53809s-1.43555-.52734-2.37305-.52734c-1.34766,0-2.64453.34473-3.89062,1.03223-1.24414.68945-2.4375,1.72168-3.58008,3.09863v26.71875h-16.34766Z" fill="#fff"/>
      <path d="M1257.95919,131.38985c-5.6543,0-10.12891-.52148-13.42383-1.56055-3.29688-1.04102-5.64844-2.38867-7.05469-4.04297-1.40625-1.65625-2.10938-3.39062-2.10938-5.20703,0-2.49023,1.25391-4.61426,3.75781-6.37207,2.50586-1.75781,6.59961-2.95898,12.2832-3.60352l2.50391-6.02051h7.11914c6.97266,0,12.13672,1.04004,15.49219,3.12012,3.35352,2.08105,5.03125,5.22949,5.03125,9.44824,0,4.36523-2.04297,7.82812-6.13086,10.39258-4.08594,2.5625-9.91016,3.8457-17.46875,3.8457ZM1256.86153,101.33125c-4.27734,0-7.91797-.69531-10.91992-2.08789-3.00391-1.39062-5.28906-3.22949-6.85547-5.51465-1.56836-2.28516-2.35156-4.76074-2.35156-7.42676,0-2.8125.79102-5.36816,2.37305-7.66797,1.58203-2.30078,3.89648-4.13086,6.94336-5.49414,3.04688-1.36133,6.75195-2.04297,11.11719-2.04297,4.51172,0,8.25391.68164,11.22852,2.04297,2.97266,1.36328,5.19922,3.19336,6.67969,5.49414,1.47852,2.2998,2.21875,4.85547,2.21875,7.66797,0,2.72461-.75391,5.22266-2.26172,7.49219-1.50977,2.27148-3.7793,4.09473-6.8125,5.47168-3.03125,1.37793-6.81836,2.06543-11.35938,2.06543ZM1251.93966,115.70137c-3.45703-.41113-6.29883-1.07715-8.52539-1.99902-2.22656-.92383-3.88281-2.0293-4.9668-3.31836s-1.625-2.66602-1.625-4.13086c0-1.99219.76953-3.61816,2.30664-4.87793,1.53906-1.25879,3.77148-2.44629,6.70117-3.55957l6.72461,2.06543c-.73242.17578-1.58984.47656-2.57031.90137-.98242.42383-1.47266,1.01758-1.47266,1.7793,0,.55664.38086.98242,1.14258,1.27441.76172.29297,2.11523.49121,4.06445.59277,1.94727.10352,4.70898.1543,8.2832.1543l-10.0625,11.11816ZM1257.78341,121.94161c2.92969,0,4.98047-.32324,6.15234-.9668,1.17188-.64453,1.75781-1.43555,1.75781-2.37305,0-.64453-.21289-1.16504-.63672-1.55957-.42578-.39648-1.04688-.69727-1.86719-.90137-.82031-.20508-1.81641-.30762-2.98828-.30762h-8.34961c-.64453.38086-1.12109.8125-1.42773,1.29688-.30859.48242-.46289,1.00293-.46289,1.55957,0,.67383.51953,1.38379,1.56055,2.13184,1.03906.74609,3.12695,1.12012,6.26172,1.12012ZM1257.25607,92.14668c1.43555,0,2.61523-.49023,3.53906-1.47168.92188-.98242,1.38281-2.43945,1.38281-4.37305,0-2.02148-.46094-3.53027-1.38281-4.52637-.92383-.99512-2.10352-1.49414-3.53906-1.49414-1.49414,0-2.73828.49902-3.73438,1.49414-.99609.99609-1.49414,2.50488-1.49414,4.52637,0,1.93359.49805,3.39062,1.49414,4.37305.99609.98145,2.24023,1.47168,3.73438,1.47168ZM1270.39669,79.62227l-3.95508-6.1084c1.02539-3.39844,2.92188-5.71973,5.69141-6.96582,2.76758-1.24414,5.91016-1.86719,9.42578-1.86719v11.07422c-2.49023,0-4.7832.21289-6.87695.63672-2.0957.42578-3.52344,1.50195-4.28516,3.23047Z" fill="#fff"/>
    </g>
    <path d="M678.39087,477.09546h12.14216c6.266,0,6.86222-9.98251,6.85648-15.91821l.51596-18.25543-19.5146,34.17364Z" fill="url(#d)"/>
    <path d="M717.42008,477.09546h-12.14216c-6.266,0-6.86222-9.98251-6.85648-15.91821l-.51596-18.25543,19.5146,34.17364Z" fill="url(#e)"/>
  </g>
</svg>