<?xml version="1.0" encoding="UTF-8"?>
<svg id="Layer_1" data-name="Layer 1" xmlns="http://www.w3.org/2000/svg" width="1400" height="490" xmlns:xlink="http://www.w3.org/1999/xlink" viewBox="0 0 1400 490">
  <defs>
    <linearGradient id="linear-gradient" x1="-.02" y1="483.32" x2="1400" y2="483.32" gradientUnits="userSpaceOnUse">
      <stop offset="0" stop-color="#0f6bff"/>
      <stop offset="1" stop-color="#000025"/>
    </linearGradient>
    <clipPath id="clippath">
      <rect x="856.9" y="223.93" width="19.22" height="21.69" fill="none"/>
    </clipPath>
    <clipPath id="clippath-1">
      <rect x="850.49" y="189.97" width="24.35" height="23.71" fill="none"/>
    </clipPath>
    <clipPath id="clippath-2">
      <rect x="1064.51" y="203.42" width="14.02" height="12.82" fill="none"/>
    </clipPath>
    <clipPath id="clippath-3">
      <rect x="893.01" y="274.56" width="139.11" height="24.95" fill="none"/>
    </clipPath>
    <clipPath id="clippath-4">
      <rect x="675.97" y="90.68" width="74.57" height="74.82" fill="none"/>
    </clipPath>
    <clipPath id="clippath-5">
      <rect x="675.97" y="127.04" width="74.57" height="74.92" fill="none"/>
    </clipPath>
    <clipPath id="clippath-6">
      <rect x="1225.99" y="129.19" width="22.74" height="32.04" fill="none"/>
    </clipPath>
  </defs>
  <rect x="-.03" y="-.19" width="1400.03" height="490.24" fill="#e07260"/>
  <path d="M559.18,229.58c-6.75,0-12.7-1.25-17.82-3.74-5.13-2.5-9.13-6.14-12.02-10.93-2.89-4.79-4.33-10.61-4.33-17.48,0-4.94.82-9.38,2.46-13.33,1.64-3.95,3.97-7.32,6.98-10.11,3.01-2.79,6.57-4.94,10.68-6.43,4.11-1.49,8.63-2.24,13.57-2.24,5.53,0,10.38.81,14.53,2.42,4.15,1.61,7.62,3.83,10.4,6.63,2.78,2.81,4.86,6.02,6.25,9.64,1.38,3.62,2.08,7.43,2.08,11.41,0,4.26-.63,7.77-1.89,10.52-1.26,2.75-2.99,4.8-5.19,6.14s-4.69,2.01-7.49,2.01-5-.52-6.94-1.55c-1.94-1.03-3.32-2.55-4.13-4.56-.76,1.71-2.04,3.15-3.84,4.33-1.8,1.18-4.12,1.77-6.94,1.77s-5.3-.67-7.43-2.01-3.79-3.26-4.98-5.74c-1.19-2.48-1.79-5.42-1.79-8.81s.61-6.17,1.83-8.57c1.22-2.4,2.91-4.25,5.07-5.55,2.16-1.3,4.65-1.95,7.47-1.95,2.22,0,4.16.38,5.8,1.14,1.64.76,2.88,1.75,3.72,2.97l.37-3.54h9.28v20.26c0,1.52.31,2.6.94,3.23.62.64,1.53.96,2.73.96,1.28,0,2.32-.45,3.13-1.34.81-.9,1.42-2.16,1.81-3.8.39-1.64.59-3.55.59-5.72,0-4.58-1-8.59-2.99-12.02-1.99-3.43-4.88-6.1-8.65-8-3.77-1.9-8.34-2.85-13.71-2.85s-9.75.98-13.63,2.95c-3.88,1.97-6.88,4.79-9.01,8.48-2.13,3.69-3.19,8.1-3.19,13.22,0,5.53,1.09,10.13,3.28,13.79s5.22,6.4,9.12,8.2c3.89,1.8,8.4,2.71,13.53,2.71,2.9,0,5.72-.25,8.46-.75,2.74-.5,5.17-1.2,7.28-2.1v7.85c-2.14.79-4.54,1.39-7.18,1.81-2.65.42-5.37.63-8.16.63ZM558.21,206.35c1.79,0,3.19-.41,4.21-1.24,1.02-.83,1.74-1.93,2.16-3.3.42-1.37.63-2.84.63-4.42,0-1.41-.21-2.75-.63-4.01s-1.13-2.29-2.14-3.09c-1-.8-2.36-1.2-4.07-1.2s-3.15.4-4.17,1.2c-1.02.8-1.73,1.83-2.14,3.09-.41,1.26-.61,2.6-.61,4.01,0,1.52.2,2.96.61,4.33.41,1.37,1.1,2.48,2.1,3.34.99.85,2.34,1.28,4.05,1.28Z" fill="#333"/>
  <rect x="-1379.66" y="384.61" width="1396.29" height="42.24" fill="none"/>
  <path d="M71.17,24.93c-3.1,0-5.86,1.4-7.72,3.58-.17-.22-.36-.41-.56-.6-.58-.58-1.23-1.09-1.91-1.5-1.6-.97-3.44-1.45-5.25-1.48h0c-2.59,0-5.2.99-7.16,2.98-1.98,1.98-2.98,4.57-2.98,7.16,0,1.81.48,3.65,1.45,5.25.41.68.92,1.33,1.5,1.91.58.58,1.23,1.09,1.91,1.5,3.9,2.37,9.07,1.86,12.44-1.5.19-.19.39-.41.56-.6,1.86,2.18,4.62,3.58,7.72,3.58,5.59,0,10.14-4.55,10.14-10.14,0-5.59-4.55-10.14-10.14-10.14h0ZM50.41,35.07c0-1.36.51-2.71,1.55-3.75,1.04-1.04,2.4-1.55,3.75-1.55h0c.56,0,1.11.1,1.65.27l-4.19,4.19-2.49,2.49c-.17-.53-.27-1.09-.27-1.65ZM59.49,38.82c-1.45,1.45-3.56,1.89-5.4,1.31l2.59-2.59,4.09-4.09.48-.48c-.15.68-.22,1.4-.22,2.13,0,1.36-.51,2.71-1.55,3.75v-.02ZM71.17,40.39c-2.93,0-5.32-2.37-5.32-5.32s2.37-5.32,5.32-5.32,5.32,2.37,5.32,5.32-2.37,5.32-5.32,5.32Z" fill="#333"/>
  <polygon points="37.68 33.35 27.72 17.89 21.91 17.89 21.91 45.04 27.72 45.04 27.72 28.05 38.58 45.04 43.52 45.04 43.52 17.89 37.68 17.89 37.68 33.35" fill="#333"/>
  <polygon points="100.45 33.35 90.48 17.89 84.68 17.89 84.68 45.04 90.48 45.04 90.48 28.05 101.35 45.04 106.26 45.04 106.26 17.89 100.45 17.89 100.45 33.35" fill="#0f6bff"/>
  <path d="M123.51,26.48c-1.45-.9-3.12-1.33-4.98-1.33s-3.7.44-5.23,1.31c-1.52.87-2.71,2.08-3.56,3.61-.85,1.52-1.28,3.24-1.28,5.11s.44,3.58,1.31,5.11c.87,1.52,2.08,2.73,3.65,3.61,1.57.87,3.39,1.31,5.47,1.31s3.46-.34,4.86-1.04c1.4-.68,2.56-1.67,3.46-2.98l-4.11-2.44c-.44.56-1.02,1.02-1.77,1.33-.75.34-1.52.51-2.3.51-1.31,0-2.35-.29-3.17-.85-.82-.58-1.45-1.45-1.94-2.61h14.13c.1-.58.15-1.23.15-1.94,0-1.86-.41-3.56-1.21-5.08-.82-1.52-1.96-2.73-3.41-3.63l-.07.02ZM113.79,32.89c.05-.85.53-1.55,1.45-2.15.92-.6,2.01-.9,3.24-.9s2.2.27,3.02.8,1.33,1.28,1.5,2.25h-9.24s.02,0,.02,0Z" fill="#0f6bff"/>
  <path d="M147.35,26.46c-1.45-.87-3.19-1.31-5.23-1.31s-2.08.17-3.07.53c-.99.34-1.91.85-2.78,1.5v-1.5h-5.54s0,27.15,0,27.15h5.54v-9.2c.85.65,1.79,1.14,2.78,1.5,1.02.34,2.03.53,3.07.53,2.01,0,3.75-.44,5.23-1.33,1.45-.9,2.59-2.11,3.36-3.65s1.16-3.32,1.16-5.28-.39-3.73-1.16-5.25c-.77-1.55-1.89-2.76-3.36-3.63v-.07ZM144.93,38.89c-.92.9-2.11,1.33-3.56,1.33s-2.69-.44-3.65-1.33-1.45-2.06-1.45-3.51.48-2.64,1.48-3.56c.99-.92,2.2-1.4,3.65-1.4s2.64.46,3.56,1.36c.92.9,1.38,2.11,1.38,3.56s-.46,2.66-1.38,3.56h-.02Z" fill="#0f6bff"/>
  <path d="M167.58,25.97c-1.16-.48-2.27-.73-3.39-.73-1.65,0-3.19.6-4.62,1.79v-9.15h-5.54s0,27.15,0,27.15h5.54v-11.86c.15-1.06.53-1.84,1.11-2.35.6-.51,1.28-.75,2.11-.75s1.79.27,2.49.82c.7.56,1.04,1.45,1.04,2.69v11.45h5.54v-11.59c-.02-2.06-.46-3.7-1.31-4.94-.85-1.21-1.84-2.06-2.98-2.54Z" fill="#0f6bff"/>
  <path d="M189.06,26.48c-1.52-.9-3.19-1.36-4.98-1.36s-3.51.46-5.03,1.36c-1.52.9-2.76,2.11-3.65,3.65-.9,1.52-1.36,3.22-1.36,5.03s.46,3.46,1.36,5.01c.9,1.55,2.11,2.76,3.65,3.65,1.52.9,3.22,1.36,5.03,1.36s3.46-.46,4.98-1.36,2.73-2.13,3.65-3.65c.9-1.55,1.36-3.22,1.36-5.01s-.46-3.51-1.36-5.03c-.9-1.52-2.11-2.73-3.65-3.65ZM187.3,38.41c-.92.9-2.01,1.36-3.27,1.36s-2.35-.46-3.24-1.36c-.9-.9-1.36-1.98-1.36-3.24s.46-2.35,1.36-3.27c.9-.92,1.98-1.36,3.24-1.36s2.35.46,3.27,1.36c.92.92,1.36,2.01,1.36,3.27s-.46,2.35-1.36,3.24Z" fill="#0f6bff"/>
  <path d="M211.98,35.48c-.75-.85-1.62-1.45-2.59-1.81-.99-.36-2.23-.7-3.73-1.02-1.16-.22-2.01-.46-2.54-.65-.53-.22-.8-.53-.8-.97s.22-.87.65-1.16,1.02-.44,1.74-.44,1.5.15,2.03.46c.51.31.92.77,1.23,1.4l4.4-2.15c-.75-1.28-1.81-2.27-3.15-2.95-1.33-.68-2.86-1.02-4.52-1.02s-2.73.24-3.92.73c-1.21.48-2.15,1.19-2.86,2.11-.7.92-1.06,2.01-1.06,3.24s.36,2.32,1.06,3.1c.7.77,1.55,1.33,2.54,1.72.99.36,2.23.73,3.68,1.04,1.28.29,2.23.56,2.83.8s.9.63.9,1.14-.31,1.04-.97,1.36c-.65.31-1.4.48-2.25.48-2.11,0-3.46-.8-4.07-2.42l-4.45,2.27c.73,1.48,1.81,2.56,3.27,3.32,1.45.75,3.19,1.11,5.25,1.11s2.88-.24,4.19-.7c1.28-.46,2.32-1.16,3.12-2.08.77-.92,1.19-2.03,1.19-3.32s-.36-2.66-1.11-3.51l-.07-.07Z" fill="#0f6bff"/>
  <path d="M246.19,182.41c-5.77,0-10.9,2.61-14.37,6.67-.32-.41-.68-.77-1.04-1.13-1.08-1.08-2.3-2.03-3.56-2.79-2.97-1.8-6.4-2.7-9.78-2.75h0c-4.82,0-9.69,1.85-13.34,5.54-3.69,3.69-5.54,8.52-5.54,13.34,0,3.38.9,6.8,2.7,9.78.77,1.26,1.71,2.48,2.79,3.56,1.08,1.08,2.3,2.03,3.56,2.79,7.25,4.42,16.9,3.47,23.16-2.79.36-.36.72-.77,1.04-1.13,3.47,4.06,8.61,6.67,14.37,6.67,10.41,0,18.88-8.47,18.88-18.88s-8.47-18.88-18.88-18.88h0ZM207.53,201.29c0-2.52.95-5.05,2.88-6.98,1.94-1.94,4.46-2.88,6.98-2.88h0c1.04,0,2.07.18,3.06.5l-7.8,7.8-4.64,4.64c-.32-.99-.5-2.03-.5-3.06ZM224.42,208.27c-2.7,2.7-6.62,3.51-10.05,2.43l4.82-4.82,7.61-7.61.9-.9c-.27,1.26-.41,2.61-.41,3.97,0,2.52-.95,5.05-2.88,6.98v-.05ZM246.19,211.2c-5.45,0-9.91-4.42-9.91-9.91,0-5.5,4.42-9.91,9.91-9.91,5.5,0,9.91,4.42,9.91,9.91s-4.42,9.91-9.91,9.91Z" fill="#333"/>
  <polygon points="183.83 198.09 165.26 169.29 154.45 169.29 154.45 219.85 165.26 219.85 165.26 188.22 185.49 219.85 194.69 219.85 194.69 169.29 183.83 169.29 183.83 198.09" fill="#333"/>
  <polygon points="300.71 198.09 282.14 169.29 271.33 169.29 271.33 219.85 282.14 219.85 282.14 188.22 302.38 219.85 311.52 219.85 311.52 169.29 300.71 169.29 300.71 198.09" fill="#0f6bff"/>
  <path d="M343.65,185.29c-2.7-1.67-5.81-2.48-9.28-2.48-3.47,0-6.89.81-9.73,2.43-2.84,1.62-5.05,3.88-6.62,6.71-1.58,2.84-2.39,6.04-2.39,9.51,0,3.47.81,6.67,2.43,9.51,1.62,2.84,3.88,5.09,6.8,6.71,2.93,1.62,6.31,2.43,10.18,2.43,3.88,0,6.44-.63,9.06-1.94,2.61-1.26,4.78-3.11,6.44-5.54l-7.66-4.55c-.81,1.04-1.89,1.89-3.29,2.48-1.4.63-2.84.95-4.28.95-2.43,0-4.37-.54-5.9-1.58-1.53-1.08-2.7-2.7-3.6-4.87h26.31c.18-1.08.27-2.3.27-3.6,0-3.47-.77-6.62-2.25-9.46-1.53-2.84-3.65-5.09-6.35-6.76l-.14.05ZM325.54,197.23c.09-1.58.99-2.88,2.7-4.01,1.71-1.13,3.74-1.67,6.04-1.67s4.1.5,5.63,1.49,2.48,2.39,2.79,4.19h-17.21s.05,0,.05,0Z" fill="#0f6bff"/>
  <path d="M388.03,185.24c-2.7-1.62-5.95-2.43-9.73-2.43-3.78,0-3.88.32-5.72.99-1.85.63-3.56,1.58-5.18,2.79v-2.79h-10.32s0,50.56,0,50.56h10.32s0-17.12,0-17.12c1.58,1.22,3.33,2.12,5.18,2.79,1.89.63,3.78.99,5.72.99,3.74,0,6.98-.81,9.73-2.48,2.7-1.67,4.82-3.92,6.26-6.8,1.44-2.88,2.16-6.17,2.16-9.82,0-3.65-.72-6.94-2.16-9.78-1.44-2.88-3.51-5.14-6.26-6.76v-.14ZM383.53,208.4c-1.71,1.67-3.92,2.48-6.62,2.48-2.7,0-5-.81-6.8-2.48-1.8-1.67-2.7-3.83-2.7-6.53,0-2.7.9-4.91,2.75-6.62,1.85-1.71,4.1-2.61,6.8-2.61s4.91.86,6.62,2.52c1.71,1.67,2.57,3.92,2.57,6.62,0,2.7-.86,4.96-2.57,6.62h-.05Z" fill="#0f6bff"/>
  <path d="M425.7,184.34c-2.16-.9-4.24-1.35-6.31-1.35-3.06,0-5.95,1.13-8.61,3.33v-17.03s-10.32,0-10.32,0v50.56s10.32,0,10.32,0v-22.08c.27-1.98.99-3.42,2.07-4.37,1.13-.95,2.39-1.4,3.92-1.4s3.33.5,4.64,1.53c1.31,1.04,1.94,2.7,1.94,5v21.31s10.32,0,10.32,0v-21.58c-.05-3.83-.86-6.89-2.43-9.19-1.58-2.25-3.42-3.83-5.54-4.73Z" fill="#0f6bff"/>
  <path d="M465.71,185.29c-2.84-1.67-5.95-2.52-9.28-2.52-3.33,0-6.53.86-9.37,2.52-2.84,1.67-5.14,3.92-6.8,6.8-1.67,2.84-2.52,5.99-2.52,9.37s.86,6.44,2.52,9.33c1.67,2.88,3.92,5.14,6.8,6.8,2.84,1.67,5.99,2.52,9.37,2.52,3.38,0,6.44-.86,9.28-2.52,2.84-1.67,5.09-3.97,6.8-6.8,1.67-2.88,2.52-5.99,2.52-9.33,0-3.33-.86-6.53-2.52-9.37-1.67-2.84-3.92-5.09-6.8-6.8ZM462.42,207.5c-1.71,1.67-3.74,2.52-6.08,2.52s-4.37-.86-6.04-2.52c-1.67-1.67-2.52-3.69-2.52-6.04s.86-4.37,2.52-6.08c1.67-1.71,3.69-2.52,6.04-2.52s4.37.86,6.08,2.52c1.71,1.71,2.52,3.74,2.52,6.08s-.86,4.37-2.52,6.04Z" fill="#0f6bff"/>
  <path d="M508.38,202.05c-1.4-1.58-3.02-2.7-4.82-3.38-1.85-.68-4.15-1.31-6.94-1.89-2.16-.41-3.74-.86-4.73-1.22-.99-.41-1.49-.99-1.49-1.8s.41-1.62,1.22-2.16c.81-.54,1.89-.81,3.24-.81s2.79.27,3.78.86c.95.59,1.71,1.44,2.3,2.61l8.2-4.01c-1.4-2.39-3.38-4.24-5.86-5.5-2.48-1.26-5.32-1.89-8.43-1.89-3.11,0-5.09.45-7.3,1.35-2.25.9-4.01,2.21-5.32,3.92-1.31,1.71-1.98,3.74-1.98,6.04,0,2.3.68,4.33,1.98,5.77,1.31,1.44,2.88,2.48,4.73,3.2,1.85.68,4.15,1.35,6.85,1.94,2.39.54,4.15,1.04,5.27,1.49s1.67,1.17,1.67,2.12-.59,1.94-1.8,2.52c-1.22.59-2.61.9-4.19.9-3.92,0-6.44-1.49-7.57-4.51l-8.29,4.24c1.35,2.75,3.38,4.78,6.08,6.17,2.7,1.4,5.95,2.07,9.78,2.07,3.83,0,5.36-.45,7.8-1.31,2.39-.86,4.33-2.16,5.81-3.88,1.44-1.71,2.21-3.78,2.21-6.17s-.68-4.96-2.07-6.53l-.14-.14Z" fill="#0f6bff"/>
  <rect x="-.02" y="476.58" width="1400.01" height="13.48" fill="url(#linear-gradient)"/>
  <path d="M856.02,222.03c-1.23,1.53-1.86,3.1-1.89,4.71-.02,1.95.92,3.84,2.82,5.69,4.08-3.98,8.22-8.08,12.32-12.22.79,1.92,2.23,3.45,4.02,4.32h0c-8.3,5.29-12.85,9.94-16.2,18.1-1.07-.67-2.08-1.45-3.06-2.36-.48-.44-.89-.93-1.37-1.38-.88-.84-1.64-1.7-2.31-2.65-.66-.96-1.24-1.92-1.74-2.9-.49-.98-.84-1.91-1.06-2.8-.22-.91-.35-2.03-.38-3.41-.02-1.11.17-2.21.59-3.28,2.22-1.83,3.64-2.3,8.27-1.79h0Z" fill="#003942" fill-rule="evenodd"/>
  <g clip-path="url(#clippath)">
    <path d="M857.09,242.61c.13-3.49.93-6.49,3.59-9.4,3-3.34,7.96-7.88,12.61-8.71h0c-4,4.07-8.07,8.08-12.11,11.94,1.99,1.84,3.73,2.76,5.24,2.8,1.51.02,2.64-.21,3.41-.68.73-.45,1.6-1.15,2.58-2.08,1.22,1.18,2.41,2.32,3.57,3.41.02.03.04.05.06.07-.02.02-.04.04-.06.05-1.55,1.47-3.02,2.62-4.35,3.4-1.35.78-2.97,1.4-4.84,1.65-2.39.3-4.63-.06-6.73-.91-1.02-.43-2.02-.94-2.98-1.54Z" fill="#003942" fill-rule="evenodd"/>
  </g>
  <path d="M847.75,223.82c2.92-.77,6.27-1.59,7.6-1.72.23-.02.45-.05.67-.07.28-.35.59-.69.93-1.03,2.85-2.84,5.7-5.69,8.52-8.49-1.43-1.41-2.86-2.82-4.29-4.22-2.84,2.79-5.72,5.63-8.58,8.48-.89.9-1.71,1.84-2.46,2.84-.75.98-1.44,2.14-2.08,3.46-.12.25-.23.5-.32.75ZM880.64,236.7c1.15.93,2.35,1.31,3.6,1.18,1.48-.18,2.97-1.13,4.48-2.87-2.58-3.14-5.6-6.62-8.99-10.37,1.69-.8,3.03-2.25,3.81-4.05,0,.02,0,.03,0,.03,3.91,7.65,6.95,11.25,11.67,13.01-.52.93-1.1,1.83-1.76,2.72-.33.42-.68.83-1.03,1.27-.62.76-1.27,1.48-1.96,2.12-.73.66-1.43,1.22-2.14,1.72-.74.51-1.43.9-2.07,1.18-.67.29-1.51.54-2.52.74-.86.18-1.65.14-2.44-.06-1.23-1.56-1.49-2.67-.66-6.61Z" fill="#003942" fill-rule="evenodd"/>
  <path d="M895.21,233.62c-2.02.4-3.83.09-5.56-1.86-2.23-2.34-5.56-6.67-6.11-11.15,0,0,0-.01,0-.03,3.19,3.75,6.01,7.25,8.37,10.46,1.4-1.89,2.13-3.46,2.28-4.82.12-1.32.05-2.31-.21-3-.26-.64-.67-1.38-1.26-2.24.86-1.24,1.66-2.4,2.41-3.58.02,0,.03-.04.04-.08.02.04.02.04.04.07.86,1.39,1.47,2.63,1.86,3.82.35,1.14.57,2.49.55,4.09-.07,1.96-.49,3.87-1.19,5.7-.36.89-.76,1.76-1.22,2.6ZM881.3,243.31c-.3-2.23-.65-4.93-.66-6.04,0-.18,0-.39,0-.57-.26-.22-.54-.45-.79-.73-2.27-2.36-4.71-4.86-7.28-7.48-1.39,1.42-2.8,2.82-4.22,4.22,2.65,2.58,5.18,5.03,7.54,7.31.72.67,1.45,1.28,2.23,1.8.76.51,1.63.95,2.61,1.33.19.07.37.13.57.16Z" fill="#003942" fill-rule="evenodd"/>
  <g clip-path="url(#clippath-1)">
    <path d="M871.4,197.25c-1.46-1.11-2.94-1.7-4.44-1.8-1.84-.1-3.63.62-5.43,2.2,4,3.69,8.07,7.59,12.1,11.62-1.8.73-3.27,2.14-4.13,3.97,0,0,0,0,0-.02-5.28-8.25-10.03-12.5-18.71-15.38.77-.96,1.64-1.87,2.64-2.73.47-.41.99-.77,1.46-1.17.86-.71,1.75-1.34,2.7-1.86.97-.51,1.91-.94,2.85-1.29.91-.35,1.8-.58,2.64-.71.85-.13,1.91-.16,3.15-.11,1.02.05,2.02.27,3.02.64,1.78,1.8,2.3,2.92,2.14,6.61Z" fill="#003942" fill-rule="evenodd"/>
  </g>
  <path d="M893.09,212.92c.64-1.22.89-2.46.77-3.79-.16-1.59-.88-3.23-2.21-4.96-2.2,2.94-4.87,6.24-7.96,9.85-.74-1.83-2.05-3.34-3.7-4.25t.01,0c6.51-4.21,9.21-7.69,9.88-13.74.75.72,1.48,1.51,2.19,2.37.34.42.65.86.98,1.29.59.78,1.11,1.55,1.59,2.39.46.82.86,1.61,1.22,2.43.36.82.62,1.55.83,2.26.21.75.39,1.62.54,2.66.12.89.13,1.71.04,2.55-.91,1.31-1.59,1.61-4.17.94Z" fill="#003942" fill-rule="evenodd"/>
  <path d="M889.88,196.03c.62,2.7.62,4.98-.7,7.03-1.72,2.56-5.21,6.22-9.19,6.7t0,0c3.22-3.5,6.04-6.7,8.44-9.47-1.66-1.83-3.08-2.89-4.23-3.15-1.19-.26-2.07-.24-2.65.05-.54.3-1.18.8-1.92,1.5-1.3-1.26-2.59-2.5-3.9-3.71-.05-.04-.07-.06-.09-.08.01-.02.04-.01.06-.03,1.24-1.08,2.35-1.84,3.4-2.28,1-.42,2.19-.63,3.63-.46,1.73.25,3.4,1.01,5,2.11.75.55,1.46,1.13,2.16,1.78ZM897.26,211.97c-1.31.41-3.02.89-3.77.94-.14-.01-.26.02-.4.01-.15.3-.32.57-.51.84-1.73,2.38-3.66,4.89-5.79,7.46,1.06,1.28,2.08,2.53,3.04,3.77,2-2.61,3.79-5.15,5.38-7.52.45-.71.84-1.46,1.18-2.27.32-.74.58-1.65.78-2.67.04-.17.07-.36.1-.56ZM850.8,197.85c3.8.02,6.95.71,9.95,3.11,3.39,2.79,7.93,7.59,8.76,12.27,0,.01,0,.02,0,.02-4.06-4.06-8.12-8.02-12.12-11.81-2.02,1.91-3.09,3.63-3.19,5.14-.1,1.53.1,2.68.58,3.46.47.74,1.2,1.61,2.19,2.61l-4.21,4.21s-.06.07-.08.09c-.02-.02-.03-.04-.05-.06-1.61-1.64-2.82-3.15-3.64-4.56-.82-1.38-1.41-3.04-1.55-4.99-.17-2.39.4-4.63,1.52-6.69.53-.96,1.15-1.9,1.85-2.78Z" fill="#003942" fill-rule="evenodd"/>
  <path d="M869.26,190.63c.89,2.26,1.83,4.96,2.03,6.05.05.19.07.37.11.56.33.25.65.53.99.84,2.7,2.58,5.39,5.26,8,7.97,1.11-1.2,2.18-2.33,3.2-3.43-2.54-2.65-5.17-5.26-7.82-7.76-.82-.75-1.7-1.46-2.63-2.12-.92-.64-1.97-1.24-3.17-1.81-.25-.12-.48-.21-.7-.3Z" fill="#003942" fill-rule="evenodd"/>
  <path d="M917.06,199.42v2.74h-5.44c-1.19,0-2.1.32-2.75.94-.66.62-.98,1.54-.98,2.75h9.18v2.74h-9.18c0,1.32.25,2.24.73,2.78.49.54.93.85,1.35.94.42.1.97.15,1.66.15h5.44v2.74h-5.58c-1.05,0-1.95-.09-2.69-.28-.74-.18-1.48-.55-2.23-1.11-.89-.76-1.52-1.68-1.9-2.74-.37-1.07-.56-2.23-.56-3.47l.05-.95c0-.57.06-1.13.18-1.67.12-.54.27-1.05.44-1.54.18-.48.38-.91.62-1.27.23-.37.58-.78,1.03-1.23s1-.79,1.65-1c.64-.21,1.25-.36,1.81-.43.57-.07,1.13-.11,1.7-.11h5.49ZM922.73,215.21h-3.03v-11.57h11.7c.75,0,1.44.08,2.06.22.59.16,1.08.4,1.48.72.41.32.72.74.94,1.27.22.54.33,1.21.33,2.03v7.33h-3.05v-6.93c0-.59-.07-1.04-.21-1.34s-.36-.51-.67-.62c-.31-.1-.67-.15-1.07-.15h-1.74v9.04h-3.14v-9.04h-3.6v9.04ZM938.95,215.21v-15.78h3.03v4.22h2.66c1,0,1.86.12,2.6.36.74.25,1.36.68,1.86,1.3s.86,1.26,1.07,1.9c.21.65.31,1.35.31,2.11v.42c0,.4-.04.78-.12,1.14s-.23.82-.45,1.36c-.22.55-.56,1.05-1.03,1.52-.47.47-1.04.83-1.72,1.09s-1.46.39-2.34.39h-5.86ZM943.87,206.16h-1.89v6.56l.95.05h.93c1,0,1.79-.17,2.38-.51.59-.34.93-1.02,1.02-2.04v-.77c0-.86-.13-1.52-.38-1.96s-.53-.76-.83-.94c-.31-.18-.61-.29-.91-.33-.3-.05-.72-.07-1.27-.07h0ZM961.95,212.82v2.39h-4.46c-1.97,0-3.44-.53-4.4-1.58-.96-1.05-1.44-2.46-1.44-4.22s.38-3.04,1.12-3.87c.75-.83,1.49-1.35,2.25-1.57s1.58-.33,2.47-.33h4.46v2.39h-4.03c-.66,0-1.18.05-1.56.16-.38.1-.68.32-.9.64-.27.34-.4.81-.4,1.41h6.89v2.43h-6.89c0,.6.11,1.06.32,1.37s.52.53.91.65c.38.09.92.14,1.6.14h4.06ZM971.54,199.42h3.1v15.78h-5.89c-1.11,0-1.93-.14-2.47-.42-.54-.28-.88-.48-1.03-.59-.16-.11-.36-.29-.63-.55s-.52-.6-.76-1.02-.43-.89-.57-1.38c-.14-.5-.21-1.01-.21-1.54v-.24c0-1.64.35-2.9,1.04-3.78.7-.88,1.41-1.44,2.15-1.69s1.62-.38,2.64-.38h2.61v-4.22ZM970.57,212.75h.97v-6.59l-.7-.02h-.86l-1.51.07c-.36,0-.77.2-1.25.6-.37.37-.61.79-.73,1.28s-.18,1.05-.18,1.68.08,1.13.23,1.53c.16.41.46.75.9,1.03s1.23.43,2.34.43h.79ZM984.91,199.42h3.1v15.78h-5.88c-1.12,0-1.94-.14-2.47-.42-.53-.28-.88-.48-1.03-.59-.15-.11-.36-.29-.63-.55-.26-.26-.52-.6-.76-1.02s-.43-.89-.57-1.38c-.14-.5-.21-1.01-.21-1.54v-.24c0-1.64.35-2.9,1.05-3.78.69-.88,1.41-1.44,2.15-1.69.74-.25,1.62-.38,2.65-.38h2.61v-4.22ZM983.95,212.75h.96v-6.59l-.7-.02h-.86l-1.51.07c-.35,0-.77.2-1.25.6-.37.37-.61.79-.73,1.28s-.18,1.05-.18,1.68.08,1.13.23,1.53c.16.41.46.75.9,1.03s1.23.43,2.34.43h.79ZM1000.25,212.82v2.39h-4.46c-1.97,0-3.44-.53-4.4-1.58-.96-1.05-1.44-2.46-1.44-4.22s.37-3.04,1.12-3.87c.75-.83,1.5-1.35,2.25-1.57.75-.22,1.58-.33,2.47-.33h4.46v2.39h-4.04c-.66,0-1.18.05-1.56.16-.38.1-.68.32-.9.64-.26.34-.39.81-.39,1.41h6.89v2.43h-6.89c0,.6.11,1.06.32,1.37s.52.53.91.65c.38.09.92.14,1.6.14h4.06ZM1009.84,199.42h3.09v15.78h-5.88c-1.11,0-1.93-.14-2.47-.42-.54-.28-.88-.48-1.03-.59-.16-.11-.36-.29-.63-.55s-.52-.6-.76-1.02c-.25-.43-.43-.89-.57-1.38-.14-.5-.21-1.01-.21-1.54v-.24c0-1.64.35-2.9,1.04-3.78.7-.88,1.41-1.44,2.15-1.69s1.62-.38,2.64-.38h2.61v-4.22ZM1008.88,212.75h.97v-6.59l-.7-.02h-.86l-1.52.07c-.35,0-.77.2-1.25.6-.37.37-.61.79-.73,1.28-.12.49-.18,1.05-.18,1.68s.08,1.13.23,1.53c.15.41.45.75.9,1.03.45.29,1.22.43,2.33.43h.79ZM1032.85,212.6v2.61h-4.74c-.62,0-1.16-.03-1.64-.09-.48-.06-.99-.21-1.55-.46-.56-.25-1.05-.59-1.47-1.03-.43-.44-.74-.91-.94-1.42-.2-.5-.33-1.04-.41-1.61s-.11-1.16-.11-1.78v-9.39h3.29v9.65c0,.27.03.64.08,1.11.05.47.2.89.45,1.27.22.38.59.67,1.1.86.52.19,1.17.29,1.98.29h3.95ZM1034.32,199.42h3.16v2.88h-3.16v-2.88ZM1034.32,203.64h3.16v11.57h-3.16v-11.57ZM1043.18,215.21h-3.03v-11.57h5.73c1.07,0,1.96.13,2.66.38s1.24.68,1.62,1.31c.38.62.57,1.47.57,2.55v7.33h-3.09v-6.94c0-.23-.01-.46-.03-.67-.03-.22-.07-.44-.15-.68-.08-.25-.25-.42-.53-.54-.28-.12-.71-.18-1.3-.18h-2.46v9ZM1060.72,203.64h3.05v11.57h-5.75c-1.04,0-1.91-.14-2.61-.41s-1.24-.72-1.61-1.34c-.38-.62-.56-1.45-.56-2.49v-7.33h3.03v7.11c0,.47.06.85.18,1.14.12.29.33.5.62.61.3.12.69.18,1.19.18h2.48v-9.05Z" fill="#003942"/>
  <g clip-path="url(#clippath-2)">
    <path d="M1068.8,215.21h-3.51l4.24-5.8-4.28-5.77h3.51l2.48,3.51,2.59-3.51h3.51l-4.3,5.86,4.22,5.71h-3.55l-2.46-3.34-2.44,3.34Z" fill="#003942"/>
  </g>
  <path d="M917.02,221.38v2.7h-5.44c-.97,0-1.73.23-2.3.69s-.94.98-1.1,1.54c-.16.57-.28,1.09-.35,1.56-.07.48-.11.95-.11,1.42v.53c0,.21.01.43.03.67.02.25.04.54.09.88.05.34.15.71.3,1.11.16.4.37.76.65,1.1.37.38.76.62,1.18.72.43.1.97.14,1.64.14h5.43v2.74h-5.56c-1.05,0-1.94-.09-2.68-.27-.74-.19-1.48-.56-2.22-1.11-.89-.76-1.52-1.67-1.89-2.74-.38-1.07-.56-2.22-.56-3.47v-.94c0-.57.06-1.13.18-1.67.12-.54.27-1.06.44-1.54.18-.49.38-.91.62-1.28.23-.37.58-.77,1.03-1.23.45-.46,1-.79,1.65-1,.64-.21,1.25-.35,1.81-.43.57-.08,1.13-.11,1.7-.11h5.49ZM928.98,235.77c-.56.51-1.13.88-1.71,1.09-.59.22-1.08.36-1.47.43-.4.07-.81.11-1.23.11-.81,0-1.61-.15-2.42-.43s-1.47-.69-2.01-1.2-.92-1.07-1.15-1.68-.39-1.11-.46-1.49c-.08-.39-.11-.8-.11-1.24,0-.84.12-1.54.34-2.12.23-.58.44-1.02.64-1.33.2-.31.51-.67.92-1.09s1.01-.77,1.78-1.06c.77-.29,1.59-.43,2.47-.43.83,0,1.63.14,2.4.41.77.27,1.37.62,1.8,1.03s.75.78.96,1.1.42.76.64,1.32c.22.57.33,1.29.33,2.16s-.15,1.64-.43,2.4c-.29.77-.71,1.44-1.28,2.01ZM923.54,234.72c.12.06.27.1.45.13.19.03.37.05.54.05.63,0,1.2-.19,1.71-.55.51-.37.85-.81,1.02-1.34.17-.53.25-1.06.25-1.6,0-.78-.14-1.46-.43-2.03s-.75-1-1.37-1.26c-.41-.15-.79-.22-1.12-.22-.38,0-.78.08-1.19.24-.4.19-.72.44-.99.73s-.47.65-.61,1.08-.21.91-.21,1.47c0,.75.16,1.42.47,2.02s.8,1.03,1.46,1.3ZM935.61,237.16h-3.03v-11.56h5.73c1.07,0,1.96.13,2.66.37.7.25,1.24.69,1.62,1.31s.57,1.48.57,2.56v7.33h-3.09v-6.93c0-.24-.01-.46-.03-.67-.03-.21-.07-.44-.15-.68-.08-.24-.25-.42-.53-.54-.28-.12-.71-.18-1.3-.18h-2.46v9ZM949.92,237.16h-3.16v-9.26h-2.17v-2.3h2.17v-1.43c0-.22.03-.52.08-.9.05-.38.18-.72.38-1.01.21-.29.53-.51.97-.64.44-.16,1.03-.24,1.76-.24h2.92v2.28l-.48-.07h-.79c-.62,0-1.03.1-1.25.29-.28.15-.42.48-.42,1.01v.71h2.94v2.3h-2.94v9.26h0ZM963.97,234.76v2.39h-4.46c-1.98,0-3.44-.53-4.4-1.58-.96-1.06-1.44-2.46-1.44-4.22s.38-3.05,1.12-3.87,1.5-1.35,2.25-1.57c.76-.22,1.58-.33,2.47-.33h4.46v2.39h-4.04c-.66,0-1.18.05-1.56.15-.39.11-.68.32-.9.64-.27.34-.4.81-.4,1.41h6.89v2.44h-6.89c0,.6.11,1.06.32,1.37.22.32.52.53.91.65.38.09.92.13,1.6.13h4.06ZM968.97,237.16h-3.03v-11.56h5.14c.94,0,1.64.13,2.11.4.47.26.77.62.9,1.08.13.45.2,1.08.2,1.89v1.47h-2.89v-.92c0-.6-.04-1-.11-1.2-.08-.2-.22-.33-.42-.41-.19-.03-.36-.05-.5-.07-.15-.02-.39-.02-.73-.02h-.66v9.35ZM985.87,234.76v2.39h-4.46c-1.97,0-3.44-.53-4.4-1.58-.96-1.06-1.44-2.46-1.44-4.22s.38-3.05,1.12-3.87,1.49-1.35,2.25-1.57c.75-.22,1.58-.33,2.47-.33h4.46v2.39h-4.03c-.66,0-1.18.05-1.56.15-.38.11-.68.32-.9.64-.26.34-.39.81-.39,1.41h6.89v2.44h-6.89c0,.6.11,1.06.32,1.37s.52.53.91.65c.38.09.92.13,1.6.13h4.06ZM990.88,237.16h-3.03v-11.56h5.73c1.07,0,1.96.13,2.66.37.7.25,1.24.69,1.62,1.31s.57,1.48.57,2.56v7.33h-3.09v-6.93c0-.24-.01-.46-.03-.67-.03-.21-.07-.44-.15-.68-.08-.24-.25-.42-.53-.54-.28-.12-.71-.18-1.3-.18h-2.46v9ZM1006.92,234.68h3.6v2.48h-4.11c-.86,0-1.66-.1-2.4-.3-.74-.2-1.39-.56-1.96-1.1s-1.01-1.2-1.3-1.99c-.3-.79-.44-1.58-.44-2.37,0-.56.06-1.09.18-1.59.12-.51.32-1.02.6-1.53.28-.51.59-.96.94-1.34.52-.5,1.04-.82,1.57-.97.54-.15,1.04-.25,1.5-.31.47-.06.91-.09,1.32-.09h4.11v2.5h-3.9c-.75,0-1.45.19-2.1.58-.65.39-.98,1.3-.98,2.73s.34,2.3,1.01,2.69c.67.39,1.46.58,2.37.58ZM1022.18,234.76v2.39h-4.46c-1.98,0-3.44-.53-4.4-1.58-.96-1.06-1.44-2.46-1.44-4.22s.37-3.05,1.12-3.87,1.5-1.35,2.25-1.57c.75-.22,1.58-.33,2.47-.33h4.46v2.39h-4.04c-.66,0-1.18.05-1.56.15-.38.11-.68.32-.9.64-.26.34-.4.81-.4,1.41h6.89v2.44h-6.89c0,.6.11,1.06.32,1.37s.52.53.91.65c.38.09.92.13,1.6.13h4.06Z" fill="#003942"/>
  <g clip-path="url(#clippath-3)">
    <path d="M893.01,299.34v-24.21h12.12v4.84h-7.27v4.84h6.37v4.84h-6.37v4.85h7.68v4.84h-12.53ZM913.32,290.91v-15.78h4.84v15.74c0,5.08,7.86,5.08,7.86,0v-15.74h4.81v15.78c0,11.51-17.5,11.51-17.5,0M951.62,299.34l-4.88-9.25h-2.34v9.25h-4.84v-24.21h9.54c8.64,0,9.49,12.15,2.37,14.22l5.62,9.99h-5.48ZM944.4,285.38h4.27c3.29,0,3.29-5.42,0-5.42h-4.27v5.42ZM975.35,274.72c16.66,0,16.66,24.95,0,24.95s-16.66-24.95,0-24.95M975.35,279.7c-9.68,0-9.68,14.96,0,14.96s9.68-14.96,0-14.96M995.76,299.34v-24.17h9.51c9.41,0,9.38,14.93,0,14.93h-4.67v9.25h-4.84ZM1004.87,285.38c3.25,0,3.25-5.42,0-5.42h-4.27v5.42h4.27ZM1019.56,299.34v-24.21h12.12v4.84h-7.28v4.84h6.36v4.84h-6.36v4.85h7.69v4.84h-12.53Z" fill="#003942"/>
  </g>
  <g clip-path="url(#clippath-4)">
    <path d="M713.15,164.68c-20.4,0-37-16.6-37-37.01s16.6-37,37-37,37.01,16.6,37.01,37h-13.15c0-13.15-10.7-23.85-23.85-23.85s-23.85,10.7-23.85,23.85,10.7,23.86,23.85,23.86v13.15Z" fill="#003942"/>
  </g>
  <g clip-path="url(#clippath-5)">
    <path d="M713.15,202.19c-20.4,0-37-16.6-37-37.01h13.15c0,13.15,10.7,23.85,23.85,23.85s23.85-10.7,23.85-23.85-10.7-23.85-23.85-23.85v-13.15c20.4,0,37.01,16.6,37.01,37.01s-16.6,37.01-37.01,37.01Z" fill="#003942"/>
  </g>
  <path d="M782.82,129.78c21.34,0,21.34,31.97,0,31.97s-21.34-31.97,0-31.97ZM782.82,136.15c-12.41,0-12.41,19.18,0,19.18s12.41-19.18,0-19.18ZM805.94,161.31v-30.97h12.19c12.06,0,12.01,19.13,0,19.13h-5.99v11.84h-6.2ZM817.61,143.44c4.17,0,4.17-6.94,0-6.94h-5.47v6.94h5.47ZM833.39,161.31v-31.01h15.53v6.2h-9.33v6.2h8.16v6.2h-8.16v6.2h9.85v6.2h-16.05ZM862.76,161.31h-6.2v-31.66h1.65l15.66,18.22v-17.53h6.25v31.62h-1.65l-15.7-17.52v16.87ZM901.36,152.81c3.56,2.52,7.42,2.6,8.85,2.47,1.82-.13,3.38-1.43,3.21-3.12-.13-1.78-1.47-2.56-3.21-3.17-4.86-1.78-9.2-4.25-9.2-9.46s3.6-9.2,8.76-9.46c1.61-.09,3.73-.09,7.72,1.3l-.78,5.99c-3.43-1.39-5.38-1.34-6.33-1.3-2.21.13-3.21,1.74-3.08,3.47.17,1.74,1.69,2.52,3.47,3.12,4.82,1.78,8.98,4.56,8.98,9.5s-3.55,9.11-9.37,9.41c-1.74.13-5.6-.09-9.81-2.25l.78-6.51ZM941.18,129.78c21.35,0,21.35,31.97,0,31.97s-21.34-31.97,0-31.97ZM941.18,136.15c-12.41,0-12.41,19.18,0,19.18s12.41-19.18,0-19.18ZM964.12,150.51v-20.21h6.21v20.17c0,6.51,10.06,6.51,10.06,0v-20.17h6.16v20.21c0,14.75-22.43,14.75-22.43,0ZM1010.14,161.31l-6.24-11.84h-2.99v11.84h-6.2v-31.01h12.23c11.06,0,12.14,15.57,3.04,18.22l7.2,12.8h-7.03ZM1000.91,143.44h5.47c4.21,0,4.21-6.94,0-6.94h-5.47v6.94Z" fill="#003942"/>
  <path d="M1036.95,136.15c-12.27,0-12.27,18.92,0,18.92,2.69,0,4.82-.78,5.99-1.39l.82,6.42c-1.91.78-4.64,1.3-6.81,1.3-21.04,0-21-31.49,0-31.49,2.17,0,4.25.39,6.12,1.21l-.74,6.38c-1.17-.61-2.69-1.35-5.38-1.35ZM1050.01,161.31v-31.01h15.53v6.2h-9.33v6.2h8.15v6.2h-8.15v6.2h9.85v6.2h-16.05ZM1086.14,152.81c3.56,2.52,7.42,2.6,8.85,2.47,1.82-.13,3.38-1.43,3.21-3.12-.13-1.78-1.48-2.56-3.21-3.17-4.86-1.78-9.2-4.25-9.2-9.46s3.6-9.2,8.76-9.46c1.61-.09,3.73-.09,7.72,1.3l-.78,5.99c-3.43-1.39-5.38-1.34-6.34-1.3-2.21.13-3.21,1.74-3.08,3.47.18,1.74,1.69,2.52,3.47,3.12,4.82,1.78,8.98,4.56,8.98,9.5s-3.55,9.11-9.37,9.41c-1.73.13-5.59-.09-9.8-2.25l.78-6.51ZM1110.86,150.51v-20.21h6.2v20.17c0,6.51,10.06,6.51,10.06,0v-20.17h6.16v20.21c0,14.75-22.42,14.75-22.42,0ZM1167.9,129.82h1.95v31.49h-6.29l.05-17.31-7.94,8.33-7.94-8.33v17.31h-6.29v-31.49h1.99l12.23,13.62,12.23-13.62ZM1204.59,129.82h1.95v31.49h-6.29l.05-17.31-7.94,8.33-7.94-8.33v17.31h-6.29v-31.49h1.99l12.23,13.62,12.23-13.62ZM1214.83,130.3h6.2v31.01h-6.2v-31.01Z" fill="#003942"/>
  <g clip-path="url(#clippath-6)">
    <path d="M1234.43,160.9v-24.81h-7.72v-6.16h21.65v6.16h-7.72v24.81h-6.2Z" fill="#003942"/>
  </g>
  <path d="M1041.28,105.37c.07,0,.1.03.1.1v1.24c0,.07-.04.1-.1.1h-2.98v9.83c0,.07-.04.1-.11.1h-1.24c-.07,0-.1-.03-.1-.1v-9.83h-2.99c-.07,0-.1-.04-.1-.1v-1.24c0-.07.04-.1.1-.1h7.41ZM1052.82,105.37c.07,0,.11.03.11.1v11.17c0,.07-.04.1-.11.1h-1.25c-.07,0-.11-.03-.11-.1v-4.88h-5.31v4.86c0,.07-.04.1-.11.1h-1.25c-.07,0-.11-.04-.11-.1v-11.17c0-.07.04-.11.11-.11h1.25c.07,0,.11.04.11.11v4.85h5.31v-4.84c0-.07.04-.1.11-.1h1.25ZM1064.86,105.37c.07,0,.11.03.11.1v1.24c0,.07-.04.1-.11.1h-6.04v3.52h4.38c.07,0,.11.04.11.11v1.24c0,.07-.04.11-.11.11h-4.38v3.52h6.04c.07,0,.11.04.11.1v1.24c0,.07-.04.1-.11.1h-7.38c-.07,0-.11-.03-.11-.1v-11.17c0-.07.04-.1.11-.1h7.38ZM1080.6,115.29c.07,0,.1.04.1.11v1.25c0,.07-.04.1-.1.1h-6.32c-.07,0-.11-.04-.11-.1v-11.18c0-.07.04-.1.11-.1h1.25c.07,0,.1.04.1.1v9.83h4.98ZM1085.44,105.37c.07,0,.11.03.11.1v11.17c0,.07-.04.1-.11.1h-1.25c-.07,0-.11-.03-.11-.1v-11.17c0-.07.04-.1.11-.1h1.25ZM1098.08,105.36c.07,0,.11.04.11.11v11.17c0,.07-.04.1-.11.1h-.56s-.06-.01-.08-.04l-6.06-8.09v8.03c0,.07-.04.1-.1.1h-1.18c-.07,0-.11-.03-.11-.1v-11.17c0-.07.04-.11.11-.11h.53s.06.02.08.05l6.1,8.14v-8.08c0-.07.04-.11.1-.11h1.18ZM1110.52,105.37c.07,0,.11.03.11.1v7.19c0,1.11-.4,2.06-1.18,2.86-.79.8-1.73,1.2-2.84,1.22-1.14.03-2.12-.38-2.93-1.21-.81-.82-1.22-1.81-1.22-2.96v-7.1c0-.07.04-.1.11-.1h1.24c.07,0,.11.03.11.1v7.12c0,.72.25,1.34.73,1.87.5.53,1.1.81,1.81.84.75.03,1.39-.22,1.93-.74s.81-1.16.81-1.9v-7.19c0-.07.04-.1.11-.1h1.24ZM1122.75,105.37s.07.02.09.06c.03.03.03.07,0,.11l-3.47,5.54,3.46,5.51s.02.07,0,.1c-.02.04-.05.06-.09.06h-1.44s-.07-.02-.09-.05l-2.69-4.29-2.68,4.29s-.05.05-.09.05h-1.44s-.07-.02-.09-.06c-.02-.03-.02-.07,0-.1l3.46-5.51-3.48-5.54s-.03-.07,0-.11c.02-.04.05-.06.09-.06h1.43s.07.02.09.05l2.71,4.31,2.72-4.31s.05-.05.09-.05h1.43ZM1133.07,106.8v3.5h4.31c.07,0,.11.04.11.11v1.25c0,.07-.04.11-.11.11h-4.31v4.88c0,.07-.04.1-.11.1h-1.25c-.07,0-.1-.04-.1-.1v-11.18c0-.07.04-.11.1-.11h6.9c.07,0,.11.04.11.11v1.25c0,.07-.04.11-.11.11h-5.55ZM1146.65,105.37c1.57,0,2.9.55,4.01,1.67,1.12,1.11,1.67,2.45,1.67,4.01s-.56,2.91-1.67,4.02c-1.11,1.11-2.45,1.67-4.01,1.67s-2.91-.56-4.02-1.67-1.67-2.45-1.67-4.02.56-2.9,1.67-4.01,2.45-1.67,4.02-1.67h0ZM1146.65,115.29c1.16,0,2.16-.41,2.99-1.24s1.24-1.82,1.24-2.99-.41-2.16-1.24-2.99c-.83-.83-1.83-1.24-2.99-1.24s-2.17.41-2.99,1.24c-.83.83-1.24,1.83-1.24,2.99s.42,2.17,1.24,2.99c.83.83,1.82,1.24,2.99,1.24ZM1164.18,105.37c.07,0,.11.03.11.1v7.19c0,1.11-.39,2.06-1.18,2.86-.78.8-1.73,1.2-2.84,1.22-1.14.03-2.11-.38-2.93-1.21-.82-.82-1.22-1.81-1.22-2.96v-7.1c0-.07.03-.1.1-.1h1.24c.07,0,.1.03.1.1v7.12c0,.72.25,1.34.73,1.87.5.53,1.1.81,1.81.84.75.03,1.39-.22,1.93-.74.54-.52.81-1.16.81-1.9v-7.19c0-.07.04-.1.11-.1h1.24ZM1176.71,105.36c.07,0,.11.04.11.11v11.17c0,.07-.04.1-.11.1h-.57s-.06-.01-.08-.04l-6.06-8.09v8.03c0,.07-.04.1-.11.1h-1.17c-.07,0-.11-.03-.11-.1v-11.17c0-.07.04-.11.11-.11h.52s.06.02.08.05l6.1,8.14v-8.08c0-.07.04-.11.11-.11h1.18ZM1184.97,105.34c1.6,0,2.95.57,4.07,1.71,1.12,1.14,1.67,2.5,1.63,4.09-.03,1.56-.61,2.88-1.75,3.96-1.13,1.09-2.48,1.63-4.05,1.63h-3.51c-.07,0-.11-.04-.11-.1v-11.19c0-.07.04-.1.11-.1h3.6ZM1184.97,115.29c1.18,0,2.18-.42,3-1.25.83-.83,1.25-1.83,1.25-3s-.42-2.17-1.25-3-1.83-1.24-3-1.24h-2.25v8.49h2.25ZM1199.3,105.34s.08.02.1.06l4.65,11.19s.02.06-.01.1c-.02.03-.05.05-.09.05h-1.27s-.08-.02-.1-.06l-1.82-4.39h-4.03l-1.82,4.39s-.05.06-.1.06h-1.27s-.07-.02-.09-.05c-.02-.04-.03-.07-.01-.1l4.65-11.19s.06-.06.1-.06h1.11ZM1200.18,110.91l-1.43-3.45-1.44,3.45h2.87ZM1213.88,105.37c.07,0,.11.03.11.1v1.24c0,.07-.04.1-.11.1h-2.98v9.83c0,.07-.03.1-.1.1h-1.24c-.07,0-.1-.03-.1-.1v-9.83h-2.99c-.07,0-.1-.04-.1-.1v-1.24c0-.07.03-.1.1-.1h7.41ZM1218.66,105.37c.07,0,.11.03.11.1v11.17c0,.07-.04.1-.11.1h-1.25c-.07,0-.11-.03-.11-.1v-11.17c0-.07.04-.1.11-.1h1.25ZM1228.08,105.37c1.57,0,2.91.55,4.02,1.67,1.11,1.11,1.67,2.45,1.67,4.01s-.56,2.91-1.67,4.02-2.45,1.67-4.02,1.67-2.91-.56-4.02-1.67-1.67-2.45-1.67-4.02.56-2.9,1.67-4.01c1.12-1.11,2.45-1.67,4.02-1.67h0ZM1228.08,115.29c1.17,0,2.16-.41,2.99-1.24s1.24-1.82,1.24-2.99-.42-2.16-1.24-2.99c-.83-.83-1.83-1.24-2.99-1.24s-2.17.41-2.99,1.24c-.83.83-1.24,1.83-1.24,2.99s.42,2.17,1.24,2.99c.83.83,1.82,1.24,2.99,1.24ZM1245.81,105.36c.07,0,.11.04.11.11v11.17c0,.07-.04.1-.11.1h-.56s-.06-.01-.08-.04l-6.06-8.09v8.03c0,.07-.03.1-.1.1h-1.18c-.07,0-.11-.03-.11-.1v-11.17c0-.07.04-.11.11-.11h.53s.06.02.08.05l6.1,8.14v-8.08c0-.07.04-.11.11-.11h1.17Z" fill="#003942"/>
  <g>
    <path d="M255.17,419.59l16-31.38h-19.6v-7h27.45v6.36l-15.47,32.02h-8.38Z"/>
    <path d="M281.27,408.4v-6.62h27.6v6.62h-27.6Z"/>
    <path d="M324.78,420.12c-2.54,0-4.72-.44-6.53-1.32s-3.26-2.11-4.34-3.71c-1.07-1.59-1.76-3.45-2.05-5.58h7.59c.25,1.31.83,2.34,1.71,3.11s2.09,1.14,3.62,1.14c2.27,0,4.05-.99,5.35-2.96,1.3-1.97,1.95-5.13,1.95-9.46v-3.25c0-2.7-.31-4.85-.92-6.47-.62-1.62-1.43-2.79-2.43-3.5-1.01-.71-2.09-1.07-3.27-1.07-1.89,0-3.32.6-4.26,1.8s-1.42,2.72-1.42,4.56.44,3.21,1.32,4.23,2.11,1.54,3.69,1.54c1.48,0,2.76-.24,3.84-.72,1.07-.48,2.05-1.12,2.92-1.93.87-.81,1.72-1.71,2.56-2.71l.12,5.42c-.72.92-1.55,1.85-2.49,2.8-.94.95-2.07,1.75-3.38,2.4-1.32.65-2.91.98-4.76.98-2.25,0-4.26-.46-6.04-1.38-1.78-.92-3.18-2.27-4.2-4.06s-1.54-3.96-1.54-6.52.53-4.68,1.6-6.61c1.06-1.92,2.61-3.43,4.64-4.53,2.03-1.09,4.49-1.64,7.38-1.64,2.73,0,5.2.65,7.4,1.96,2.2,1.31,3.95,3.38,5.24,6.23s1.95,6.56,1.95,11.15-.65,8.59-1.96,11.54c-1.31,2.95-3.11,5.11-5.41,6.49s-4.92,2.07-7.87,2.07Z"/>
    <path d="M376.23,420.12c-4.12,0-7.61-.83-10.47-2.5s-5.03-4.01-6.52-7.03-2.23-6.58-2.23-10.68.74-7.67,2.23-10.71c1.48-3.04,3.66-5.39,6.52-7.06s6.35-2.5,10.47-2.5,7.61.83,10.46,2.5,5.02,4.02,6.5,7.06c1.48,3.04,2.23,6.61,2.23,10.71s-.74,7.66-2.23,10.68-3.65,5.36-6.5,7.03-6.34,2.5-10.46,2.5ZM376.23,413.27c2.56,0,4.62-.6,6.18-1.82,1.56-1.21,2.71-2.83,3.43-4.86.72-2.03,1.08-4.26,1.08-6.68s-.36-4.71-1.08-6.74c-.72-2.03-1.87-3.65-3.43-4.86-1.56-1.21-3.62-1.82-6.18-1.82s-4.65.61-6.23,1.82c-1.57,1.21-2.71,2.83-3.43,4.86-.71,2.03-1.07,4.28-1.07,6.74s.36,4.65,1.07,6.68c.71,2.03,1.86,3.65,3.43,4.86,1.57,1.21,3.65,1.82,6.23,1.82Z"/>
    <path d="M420.46,420.12c-3.98,0-7.41-.83-10.28-2.5s-5.08-4.01-6.62-7.03-2.31-6.58-2.31-10.68.77-7.67,2.31-10.71c1.54-3.04,3.75-5.39,6.62-7.06s6.3-2.5,10.28-2.5c3.09,0,5.93.53,8.53,1.6,2.6,1.06,4.71,2.64,6.33,4.72s2.51,4.64,2.67,7.69h-8.44c-.21-1.6-.74-2.93-1.57-3.98s-1.89-1.85-3.18-2.37-2.73-.79-4.34-.79c-2.58,0-4.65.63-6.23,1.88-1.57,1.25-2.71,2.89-3.43,4.91s-1.07,4.23-1.07,6.64.36,4.59,1.07,6.62c.71,2.03,1.86,3.66,3.43,4.89s3.65,1.85,6.23,1.85c2.71,0,4.86-.7,6.43-2.09,1.57-1.4,2.48-3.38,2.71-5.96h8.44c-.23,3.22-1.08,5.94-2.55,8.16-1.46,2.22-3.47,3.9-6.01,5.04s-5.55,1.71-9.02,1.71Z"/>
    <path d="M450.82,419.59v-32.58h-10.55v-6.86h29.27v6.86h-10.49v32.58h-8.23Z"/>
    <path d="M490.81,420.12c-4.12,0-7.61-.83-10.47-2.5s-5.03-4.01-6.52-7.03-2.23-6.58-2.23-10.68.74-7.67,2.23-10.71c1.48-3.04,3.66-5.39,6.52-7.06s6.35-2.5,10.47-2.5,7.61.83,10.46,2.5,5.02,4.02,6.5,7.06c1.48,3.04,2.23,6.61,2.23,10.71s-.74,7.66-2.23,10.68-3.65,5.36-6.5,7.03-6.34,2.5-10.46,2.5ZM490.81,413.27c2.56,0,4.62-.6,6.18-1.82,1.56-1.21,2.71-2.83,3.43-4.86.72-2.03,1.08-4.26,1.08-6.68s-.36-4.71-1.08-6.74c-.72-2.03-1.87-3.65-3.43-4.86-1.56-1.21-3.62-1.82-6.18-1.82s-4.65.61-6.23,1.82c-1.57,1.21-2.71,2.83-3.43,4.86-.71,2.03-1.07,4.28-1.07,6.74s.36,4.65,1.07,6.68c.71,2.03,1.86,3.65,3.43,4.86,1.57,1.21,3.65,1.82,6.23,1.82Z"/>
    <path d="M517.64,419.59v-39.43h13.48c4.26,0,7.63.81,10.11,2.42s3.72,4.09,3.72,7.43c0,2.09-.52,3.86-1.57,5.32-1.04,1.46-2.44,2.5-4.17,3.15,2.73.55,4.82,1.66,6.25,3.34,1.44,1.68,2.15,3.75,2.15,6.21,0,2.64-.6,4.81-1.8,6.52-1.2,1.71-2.92,2.98-5.16,3.81-2.24.83-4.92,1.25-8.04,1.25h-14.97ZM525.87,396.13h5.13c1.58,0,2.91-.41,3.98-1.23s1.61-2.02,1.61-3.6c0-1.11-.24-2-.73-2.65-.49-.65-1.15-1.12-1.99-1.41-.84-.28-1.8-.42-2.87-.42h-5.13v9.32ZM525.87,412.77h6.45c1.29,0,2.46-.16,3.52-.48s1.89-.89,2.5-1.7c.62-.81.92-1.9.92-3.27,0-1.76-.65-3.01-1.96-3.76-1.31-.75-2.97-1.13-4.98-1.13h-6.45v10.34Z"/>
    <path d="M554.79,419.59v-39.43h26.46v6.83h-18.22v9.17h16.52v6.59h-16.52v10.02h18.22v6.83h-26.46Z"/>
    <path d="M589.18,419.59v-39.43h16.23c2.54,0,4.8.36,6.8,1.07,1.99.71,3.57,1.87,4.73,3.46,1.16,1.59,1.74,3.71,1.74,6.34,0,2.5-.67,4.62-2.01,6.36-1.34,1.74-3.36,2.98-6.08,3.72,1.66.25,2.99.76,3.98,1.51,1,.75,1.8,1.76,2.42,3.03.62,1.27,1.18,2.83,1.68,4.69l2.61,9.26h-8.61l-1.85-7.62c-.39-1.72-.84-3.12-1.35-4.22-.51-1.09-1.2-1.91-2.07-2.45-.87-.54-2.07-.81-3.59-.81h-6.42v15.09h-8.23ZM597.42,397.71h6.62c1.29,0,2.4-.21,3.33-.62s1.65-1.03,2.15-1.85.76-1.83.76-3.02c0-1.74-.53-3.05-1.58-3.93s-2.45-1.32-4.19-1.32h-7.09v10.72Z"/>
    <path d="M712.52,419.59v-39.43h15.47c2.6,0,4.97.46,7.1,1.38,2.14.92,3.84,2.31,5.11,4.19s1.9,4.27,1.9,7.18-.63,5.24-1.9,7.12-2.97,3.27-5.11,4.17-4.51,1.36-7.1,1.36h-7.24v14.03h-8.23ZM720.76,398.94h6.47c1.91,0,3.46-.51,4.64-1.52,1.18-1.02,1.77-2.52,1.77-4.51s-.61-3.6-1.82-4.6-2.74-1.49-4.6-1.49h-6.47v12.13Z"/>
    <path d="M748.85,419.59v-39.43h16.23c2.54,0,4.8.36,6.8,1.07,1.99.71,3.57,1.87,4.73,3.46,1.16,1.59,1.74,3.71,1.74,6.34,0,2.5-.67,4.62-2.01,6.36-1.34,1.74-3.36,2.98-6.08,3.72,1.66.25,2.99.76,3.98,1.51,1,.75,1.8,1.76,2.42,3.03.62,1.27,1.18,2.83,1.68,4.69l2.61,9.26h-8.61l-1.85-7.62c-.39-1.72-.84-3.12-1.35-4.22-.51-1.09-1.2-1.91-2.07-2.45-.87-.54-2.07-.81-3.59-.81h-6.42v15.09h-8.23ZM757.08,397.71h6.62c1.29,0,2.4-.21,3.33-.62s1.65-1.03,2.15-1.85.76-1.83.76-3.02c0-1.74-.53-3.05-1.58-3.93s-2.45-1.32-4.19-1.32h-7.09v10.72Z"/>
    <path d="M782.16,419.59l14.18-39.43h8.64l14.21,39.43h-8.58l-2.81-8.67h-14.24l-2.9,8.67h-8.5ZM795.52,404.1h10.25l-5.13-15.79-5.13,15.79Z"/>
    <path d="M840.38,420.12c-4.04,0-7.51-.83-10.4-2.5s-5.11-4.02-6.67-7.05c-1.55-3.03-2.33-6.58-2.33-10.66s.78-7.67,2.33-10.71c1.55-3.04,3.77-5.39,6.67-7.06s6.36-2.5,10.4-2.5c2.03,0,4.02.26,5.98.79s3.74,1.34,5.36,2.45c1.62,1.1,2.96,2.5,4.01,4.2s1.69,3.71,1.9,6.04h-8.41c-.16-1.29-.61-2.43-1.35-3.43s-1.76-1.78-3.05-2.34c-1.29-.57-2.83-.85-4.63-.85-2.58,0-4.66.62-6.24,1.86-1.58,1.24-2.73,2.87-3.46,4.89s-1.08,4.24-1.08,6.67.37,4.62,1.1,6.65c.73,2.03,1.9,3.66,3.5,4.89s3.72,1.85,6.36,1.85c1.95,0,3.62-.34,5-1.01s2.45-1.61,3.22-2.8c.77-1.19,1.22-2.57,1.33-4.13h-9.35v-6.56h17.61v4.01c0,3.42-.69,6.43-2.07,9.02-1.38,2.6-3.39,4.63-6.04,6.09s-5.88,2.2-9.71,2.2Z"/>
    <path d="M881.74,420.12c-3.87,0-7.03-.62-9.49-1.86-2.46-1.24-4.27-3.07-5.42-5.49-1.15-2.42-1.73-5.37-1.73-8.85v-23.76h8.44v23.55c0,3.24.66,5.65,1.99,7.24s3.42,2.37,6.27,2.37,4.95-.79,6.23-2.37,1.92-3.99,1.92-7.24v-23.55h8.47v23.76c0,3.48-.58,6.43-1.73,8.85-1.15,2.42-2.95,4.25-5.41,5.49-2.45,1.24-5.63,1.86-9.54,1.86Z"/>
    <path d="M907.35,419.59v-39.43h26.46v6.83h-18.22v9.17h16.52v6.59h-16.52v10.02h18.22v6.83h-26.46Z"/>
    <path d="M941.74,428.67l-1.05-3.84c1.37-.43,2.48-1.07,3.34-1.92s1.38-1.96,1.55-3.33l.5.41c-1.5,0-2.72-.46-3.65-1.39-.93-.93-1.39-2.06-1.39-3.38,0-1.45.46-2.6,1.39-3.46.93-.86,2.14-1.29,3.65-1.29s2.65.51,3.56,1.54,1.36,2.55,1.36,4.58c0,2.4-.45,4.44-1.36,6.11s-2.07,2.99-3.47,3.97-2.88,1.64-4.42,1.99Z"/>
    <path d="M989.32,420.12c-3.98,0-7.41-.83-10.28-2.5s-5.08-4.01-6.62-7.03-2.31-6.58-2.31-10.68.77-7.67,2.31-10.71c1.54-3.04,3.75-5.39,6.62-7.06s6.3-2.5,10.28-2.5c3.09,0,5.93.53,8.53,1.6,2.6,1.06,4.71,2.64,6.33,4.72s2.51,4.64,2.67,7.69h-8.44c-.21-1.6-.74-2.93-1.57-3.98s-1.89-1.85-3.18-2.37-2.73-.79-4.34-.79c-2.58,0-4.65.63-6.23,1.88-1.57,1.25-2.71,2.89-3.43,4.91s-1.07,4.23-1.07,6.64.36,4.59,1.07,6.62c.71,2.03,1.86,3.66,3.43,4.89s3.65,1.85,6.23,1.85c2.71,0,4.86-.7,6.43-2.09,1.57-1.4,2.48-3.38,2.71-5.96h8.44c-.23,3.22-1.08,5.94-2.55,8.16-1.46,2.22-3.47,3.9-6.01,5.04s-5.55,1.71-9.02,1.71Z"/>
    <path d="M1010.5,419.59v-6.5l18.46-26.07h-16.96v-6.86h27.22v6.15l-18.78,26.43h20.1v6.86h-30.03Z"/>
    <path d="M1046.66,419.59v-39.43h26.46v6.83h-18.22v9.17h16.52v6.59h-16.52v10.02h18.22v6.83h-26.46Z"/>
    <path d="M1097.87,420.12c-3.98,0-7.41-.83-10.28-2.5s-5.08-4.01-6.62-7.03-2.31-6.58-2.31-10.68.77-7.67,2.31-10.71c1.54-3.04,3.75-5.39,6.62-7.06s6.3-2.5,10.28-2.5c3.09,0,5.93.53,8.53,1.6,2.6,1.06,4.71,2.64,6.33,4.72s2.51,4.64,2.67,7.69h-8.44c-.21-1.6-.74-2.93-1.57-3.98s-1.89-1.85-3.18-2.37-2.73-.79-4.34-.79c-2.58,0-4.65.63-6.23,1.88-1.57,1.25-2.71,2.89-3.43,4.91s-1.07,4.23-1.07,6.64.36,4.59,1.07,6.62c.71,2.03,1.86,3.66,3.43,4.89s3.65,1.85,6.23,1.85c2.71,0,4.86-.7,6.43-2.09,1.57-1.4,2.48-3.38,2.71-5.96h8.44c-.23,3.22-1.08,5.94-2.55,8.16-1.46,2.22-3.47,3.9-6.01,5.04s-5.55,1.71-9.02,1.71Z"/>
    <path d="M1122.86,419.59v-39.43h8.23v15.41h17.87v-15.41h8.23v39.43h-8.23v-16.76h-17.87v16.76h-8.23Z"/>
    <path d="M1166.6,419.59v-39.43h8.23v39.43h-8.23Z"/>
    <path d="M1179.6,419.59l14.18-39.43h8.64l14.21,39.43h-8.58l-2.81-8.67h-14.24l-2.9,8.67h-8.5ZM1192.96,404.1h10.25l-5.13-15.79-5.13,15.79Z"/>
  </g>
</svg>