<?xml version="1.0" encoding="UTF-8"?>
<svg id="a" data-name="Layer 1" xmlns="http://www.w3.org/2000/svg" width="1400" height="490" xmlns:xlink="http://www.w3.org/1999/xlink" viewBox="0 0 1400 490">
  <defs>
    <linearGradient id="b" x1="0" y1="483.42" x2="1400" y2="483.42" gradientUnits="userSpaceOnUse">
      <stop offset="0" stop-color="#0f6bff"/>
      <stop offset="1" stop-color="#000025"/>
    </linearGradient>
    <linearGradient id="c" x1="819.24" y1="1675.23" x2="819.24" y2="1544.35" gradientTransform="translate(0 1781.74) scale(1 -1)" gradientUnits="userSpaceOnUse">
      <stop offset=".39" stop-color="#339eff"/>
      <stop offset="1" stop-color="#0065bf"/>
    </linearGradient>
    <linearGradient id="d" x1="819.37" y1="1626.11" x2="819.37" y2="1586.25" xlink:href="#c"/>
  </defs>
  <rect x="0" width="1400" height="490" fill="#fff"/>
  <rect x="0" y="476.85" width="1400" height="13.15" fill="url(#b)"/>
  <path d="M697.66,210.59c-6.57,0-12.34-1.21-17.32-3.64-4.98-2.43-8.88-5.97-11.69-10.62-2.81-4.65-4.21-10.32-4.21-16.99,0-4.8.8-9.12,2.39-12.95,1.59-3.84,3.86-7.11,6.78-9.83,2.93-2.72,6.39-4.8,10.38-6.25,3.99-1.45,8.39-2.18,13.19-2.18,5.38,0,10.09.78,14.12,2.35s7.4,3.72,10.11,6.45c2.7,2.73,4.73,5.85,6.07,9.37,1.35,3.52,2.02,7.22,2.02,11.09,0,4.14-.61,7.55-1.84,10.22-1.23,2.68-2.91,4.67-5.04,5.97-2.14,1.3-4.56,1.96-7.28,1.96s-4.86-.5-6.74-1.5c-1.89-1-3.22-2.48-4.01-4.43-.74,1.66-1.98,3.06-3.74,4.21-1.75,1.15-4,1.72-6.74,1.72s-5.15-.65-7.22-1.96c-2.07-1.31-3.68-3.16-4.84-5.58-1.16-2.41-1.74-5.27-1.74-8.56s.59-5.99,1.78-8.33c1.19-2.33,2.83-4.13,4.92-5.4,2.1-1.27,4.51-1.9,7.26-1.9,2.16,0,4.04.37,5.64,1.11,1.6.74,2.8,1.7,3.62,2.89l.36-3.44h9.02v19.7c0,1.48.3,2.52.91,3.14.61.62,1.49.93,2.65.93,1.24,0,2.25-.44,3.05-1.31s1.38-2.1,1.76-3.7c.38-1.6.57-3.45.57-5.56,0-4.46-.97-8.35-2.91-11.69-1.94-3.34-4.74-5.93-8.4-7.77-3.67-1.85-8.11-2.77-13.33-2.77s-9.48.96-13.25,2.87-6.69,4.66-8.76,8.25c-2.07,3.59-3.1,7.87-3.1,12.85,0,5.38,1.06,9.85,3.18,13.41s5.08,6.22,8.86,7.97c3.78,1.75,8.17,2.63,13.15,2.63,2.82,0,5.56-.24,8.23-.73,2.66-.49,5.02-1.17,7.08-2.04v7.63c-2.08.76-4.41,1.35-6.98,1.76-2.57.41-5.22.61-7.93.61ZM696.71,188.01c1.74,0,3.1-.4,4.09-1.21.99-.8,1.69-1.87,2.1-3.2.41-1.33.61-2.76.61-4.29,0-1.37-.21-2.67-.61-3.9-.41-1.23-1.1-2.23-2.08-3.01-.98-.78-2.29-1.17-3.96-1.17s-3.07.39-4.05,1.17c-.99.78-1.68,1.78-2.08,3.01-.4,1.23-.59,2.52-.59,3.9,0,1.48.2,2.88.59,4.21.4,1.33,1.07,2.41,2.04,3.24.96.83,2.27,1.25,3.94,1.25Z"/>
  <g>
    <path d="M833.26,406.03c-2.25,0-4.14-.47-5.67-1.42s-2.7-2.25-3.49-3.92c-.79-1.67-1.18-3.59-1.18-5.78s.39-4.12,1.18-5.8c.79-1.68,1.95-2.99,3.49-3.93s3.43-1.42,5.67-1.42c1.48,0,2.88.26,4.2.77,1.32.52,2.41,1.3,3.29,2.36.88,1.06,1.39,2.39,1.54,4h-2.92c-.13-1.08-.49-1.98-1.09-2.68-.6-.7-1.33-1.23-2.21-1.57-.88-.34-1.81-.52-2.81-.52-1.74,0-3.15.4-4.23,1.19-1.08.79-1.87,1.85-2.36,3.17s-.74,2.79-.74,4.42.25,3.08.74,4.4,1.28,2.37,2.36,3.15c1.08.78,2.49,1.17,4.23,1.17s3.19-.44,4.29-1.31,1.73-2.17,1.9-3.9h2.93c-.17,1.71-.67,3.12-1.5,4.25-.83,1.12-1.9,1.96-3.21,2.52s-2.78.84-4.42.84Z"/>
    <path d="M853.05,405.99c-1.54,0-2.85-.32-3.95-.97s-1.93-1.58-2.51-2.79c-.58-1.21-.86-2.65-.86-4.31s.29-3.17.86-4.39c.57-1.22,1.41-2.16,2.51-2.81s2.41-.98,3.95-.98,2.91.33,4.02.98c1.11.66,1.97,1.59,2.56,2.81.6,1.22.89,2.68.89,4.39s-.3,3.1-.89,4.31c-.6,1.21-1.45,2.14-2.56,2.79-1.11.65-2.45.97-4.02.97ZM853.05,403.85c1.16,0,2.08-.25,2.77-.77s1.18-1.21,1.48-2.11c.3-.9.45-1.91.45-3.05s-.15-2.2-.45-3.11-.79-1.63-1.48-2.15c-.69-.52-1.61-.78-2.77-.78s-2.02.26-2.68.78c-.66.52-1.14,1.24-1.43,2.15-.29.91-.43,1.95-.43,3.11s.15,2.16.43,3.05c.29.9.77,1.6,1.43,2.11.66.51,1.55.77,2.68.77Z"/>
    <path d="M864.49,398.92v-2.38h8.04v2.38h-8.04Z"/>
    <path d="M876.96,405.74v-21.69h2.9v9.1h11.86v-9.1h2.87v21.69h-2.87v-10.07h-11.86v10.07h-2.9Z"/>
    <path d="M906.48,405.99c-1.54,0-2.85-.32-3.95-.97s-1.93-1.58-2.51-2.79c-.58-1.21-.86-2.65-.86-4.31s.29-3.17.86-4.39c.57-1.22,1.41-2.16,2.51-2.81s2.41-.98,3.95-.98,2.91.33,4.02.98c1.11.66,1.97,1.59,2.56,2.81.6,1.22.89,2.68.89,4.39s-.3,3.1-.89,4.31c-.6,1.21-1.45,2.14-2.56,2.79-1.11.65-2.45.97-4.02.97ZM906.48,403.85c1.16,0,2.08-.25,2.77-.77s1.18-1.21,1.48-2.11c.3-.9.45-1.91.45-3.05s-.15-2.2-.45-3.11-.79-1.63-1.48-2.15c-.69-.52-1.61-.78-2.77-.78s-2.02.26-2.68.78c-.66.52-1.14,1.24-1.43,2.15-.29.91-.43,1.95-.43,3.11s.15,2.16.43,3.05c.29.9.77,1.6,1.43,2.11.66.51,1.55.77,2.68.77Z"/>
    <path d="M923.62,406.03c-.88,0-1.72-.1-2.51-.29-.79-.19-1.49-.5-2.09-.92s-1.07-.97-1.41-1.65c-.34-.68-.51-1.51-.51-2.47h2.59c0,1.22.38,2.09,1.14,2.59.76.5,1.71.75,2.84.75,1.02,0,1.86-.2,2.52-.59.66-.39.99-1.04.99-1.94,0-.77-.3-1.35-.89-1.72-.6-.38-1.65-.74-3.15-1.1-1.22-.29-2.26-.63-3.09-1.01s-1.47-.86-1.88-1.45-.63-1.32-.63-2.22c0-.7.15-1.31.44-1.84.3-.53.71-.98,1.24-1.33.53-.35,1.16-.62,1.88-.8.72-.18,1.5-.27,2.34-.27s1.6.1,2.33.29c.72.19,1.36.49,1.92.9.55.41.99.93,1.31,1.58s.48,1.42.48,2.32h-2.61c0-1.12-.33-1.91-1-2.37s-1.48-.69-2.43-.69-1.75.17-2.35.52-.9.88-.9,1.61c0,.42.13.77.4,1.06s.72.55,1.35.78,1.49.48,2.56.73c1.17.28,2.15.61,2.95,1s1.39.88,1.8,1.49c.4.61.6,1.38.6,2.33,0,.82-.16,1.52-.47,2.12-.32.6-.76,1.08-1.32,1.47-.56.38-1.22.66-1.98.85-.76.18-1.58.27-2.46.27Z"/>
    <path d="M939.14,405.74c-1.27,0-2.24-.2-2.92-.6-.68-.4-1.14-.98-1.39-1.74-.25-.76-.38-1.67-.38-2.73v-8.44h-2.63v-2.18h2.63v-3.59h2.67v3.59h3.87v2.18h-3.87v8.31c0,.98.13,1.73.38,2.25.25.52.86.78,1.81.78h1.71v2.18h-1.89Z"/>
    <path d="M950.94,406.03c-1.71,0-3.11-.36-4.2-1.07-1.09-.71-1.9-1.69-2.42-2.92-.53-1.23-.79-2.61-.79-4.15s.25-3.01.77-4.23c.51-1.22,1.29-2.17,2.34-2.86,1.05-.69,2.38-1.03,3.99-1.03,2.14,0,3.81.64,5.03,1.93s1.82,3.14,1.82,5.56c0,.16,0,.35-.02.57s-.03.38-.05.48h-11.18c.01,1.02.17,1.96.49,2.81.32.85.82,1.54,1.51,2.05s1.6.77,2.72.77c1.2,0,2.14-.28,2.82-.85.68-.56,1.03-1.38,1.06-2.44h2.66c-.03,1.11-.32,2.06-.85,2.86-.54.8-1.29,1.42-2.26,1.85-.97.43-2.11.65-3.43.65ZM946.23,396.34h8.57c-.03-1.46-.41-2.58-1.14-3.35-.73-.77-1.75-1.16-3.05-1.16s-2.34.38-3.09,1.15c-.75.77-1.18,1.89-1.3,3.36Z"/>
    <path d="M967.16,406.03c-1.28,0-2.38-.31-3.32-.92s-1.66-1.53-2.17-2.75c-.51-1.22-.77-2.73-.77-4.52s.27-3.27.81-4.46c.54-1.19,1.31-2.09,2.3-2.7.99-.61,2.15-.91,3.5-.91,1.12,0,2.09.24,2.92.73.83.49,1.49,1.15,2,1.99v-8.44h2.69v21.69h-2.55l-.15-2.29c-.56.76-1.28,1.38-2.16,1.86-.88.48-1.92.72-3.11.72ZM967.71,403.82c1.15,0,2.11-.27,2.87-.81.76-.54,1.38-1.19,1.85-1.96v-6.04c-.44-.88-1.02-1.61-1.73-2.18-.71-.57-1.61-.86-2.7-.86-1.43,0-2.51.51-3.23,1.53-.73,1.02-1.09,2.47-1.09,4.35s.34,3.43,1.02,4.45c.68,1.02,1.68,1.53,3,1.53Z"/>
    <path d="M987.24,405.74v-21.69h6.96c2.18,0,3.92.44,5.23,1.32,1.31.88,1.96,2.22,1.96,4.03,0,1.14-.32,2.15-.96,3.05-.64.89-1.49,1.47-2.54,1.74,1.5.25,2.7.85,3.59,1.8.89.95,1.34,2.12,1.34,3.52,0,1.31-.29,2.43-.87,3.36s-1.46,1.64-2.63,2.13-2.65.74-4.43.74h-7.65ZM990.14,393.26h4.04c1.4,0,2.46-.32,3.2-.96.74-.64,1.1-1.5,1.1-2.59,0-.73-.17-1.34-.5-1.83-.33-.49-.82-.85-1.46-1.1-.64-.24-1.42-.36-2.34-.36h-4.04v6.83ZM990.14,403.32h4.71c.91,0,1.76-.12,2.53-.35.77-.23,1.39-.64,1.85-1.22.46-.58.69-1.39.69-2.42,0-1.25-.45-2.18-1.35-2.79s-2.14-.92-3.72-.92h-4.71v7.7Z"/>
    <path d="M1005.71,411.5v-2.22h1.32c.61,0,1.13-.16,1.55-.49.42-.33.79-.87,1.09-1.64l.61-1.42-6.27-15.69h2.85l4.85,12.84,4.48-12.84h2.74l-5.9,15.69-.74,1.9c-.37.93-.75,1.69-1.17,2.26-.41.57-.92.98-1.52,1.23-.6.25-1.37.38-2.3.38h-1.6Z"/>
  </g>
  <path d="M67.03,22.89c-3.14,0-5.94,1.42-7.83,3.63-.17-.22-.37-.42-.56-.61-.59-.59-1.25-1.1-1.94-1.52-1.62-.98-3.49-1.47-5.33-1.5h0c-2.63,0-5.28,1.01-7.27,3.02-2.01,2.01-3.02,4.64-3.02,7.27,0,1.84.49,3.71,1.47,5.33.42.69.93,1.35,1.52,1.94.59.59,1.25,1.1,1.94,1.52,3.95,2.41,9.21,1.89,12.62-1.52.2-.2.39-.42.56-.61,1.89,2.21,4.69,3.63,7.83,3.63,5.67,0,10.29-4.62,10.29-10.29,0-5.67-4.62-10.29-10.29-10.29h0ZM45.97,33.18c0-1.37.52-2.75,1.57-3.81,1.06-1.06,2.43-1.57,3.81-1.57h0c.56,0,1.13.1,1.67.27l-4.25,4.25-2.53,2.53c-.17-.54-.27-1.1-.27-1.67ZM55.18,36.99c-1.47,1.47-3.61,1.91-5.47,1.33l2.63-2.63,4.15-4.15.49-.49c-.15.69-.22,1.42-.22,2.16,0,1.37-.52,2.75-1.57,3.81v-.02ZM67.03,38.58c-2.97,0-5.4-2.41-5.4-5.4,0-3,2.41-5.4,5.4-5.4s5.4,2.41,5.4,5.4-2.41,5.4-5.4,5.4Z" fill="#333"/>
  <polygon points="33.06 31.44 22.94 15.75 17.05 15.75 17.05 43.3 22.94 43.3 22.94 26.06 33.97 43.3 38.97 43.3 38.97 15.75 33.06 15.75 33.06 31.44" fill="#333"/>
  <polygon points="96.74 31.44 86.63 15.75 80.73 15.75 80.73 43.3 86.63 43.3 86.63 26.06 97.65 43.3 102.63 43.3 102.63 15.75 96.74 15.75 96.74 31.44" fill="#0f6bff"/>
  <path d="M120.14,24.47c-1.47-.91-3.17-1.35-5.06-1.35s-3.76.44-5.3,1.33c-1.55.88-2.75,2.11-3.61,3.66-.86,1.55-1.3,3.29-1.3,5.18s.44,3.63,1.33,5.18c.88,1.55,2.11,2.77,3.71,3.66s3.44,1.33,5.55,1.33,3.51-.34,4.93-1.06c1.42-.69,2.6-1.69,3.51-3.02l-4.17-2.48c-.44.56-1.03,1.03-1.79,1.35-.76.34-1.55.52-2.33.52-1.33,0-2.38-.29-3.22-.86-.83-.59-1.47-1.47-1.96-2.65h14.34c.1-.59.15-1.25.15-1.96,0-1.89-.42-3.61-1.23-5.16-.83-1.55-1.99-2.77-3.46-3.68l-.07.02ZM110.27,30.97c.05-.86.54-1.57,1.47-2.18.93-.61,2.04-.91,3.29-.91s2.23.27,3.07.81,1.35,1.3,1.52,2.28h-9.38s.02,0,.02,0Z" fill="#0f6bff"/>
  <path d="M144.32,24.44c-1.47-.88-3.24-1.33-5.3-1.33s-2.11.17-3.12.54c-1.01.34-1.94.86-2.82,1.52v-1.52h-5.62s0,27.55,0,27.55h5.62v-9.33c.86.66,1.82,1.15,2.82,1.52,1.03.34,2.06.54,3.12.54,2.04,0,3.81-.44,5.3-1.35,1.47-.91,2.63-2.14,3.41-3.71s1.18-3.36,1.18-5.35-.39-3.78-1.18-5.33c-.79-1.57-1.91-2.8-3.41-3.68v-.07ZM141.86,37.06c-.93.91-2.14,1.35-3.61,1.35s-2.73-.44-3.71-1.35-1.47-2.09-1.47-3.56.49-2.68,1.5-3.61c1.01-.93,2.23-1.42,3.71-1.42s2.68.47,3.61,1.37c.93.91,1.4,2.14,1.4,3.61s-.47,2.7-1.4,3.61h-.02Z" fill="#0f6bff"/>
  <path d="M164.84,23.95c-1.18-.49-2.31-.74-3.44-.74-1.67,0-3.24.61-4.69,1.82v-9.28h-5.62s0,27.55,0,27.55h5.62v-12.03c.15-1.08.54-1.87,1.13-2.38.61-.52,1.3-.76,2.14-.76s1.82.27,2.53.83c.71.56,1.06,1.47,1.06,2.73v11.61h5.62v-11.76c-.02-2.09-.47-3.76-1.33-5.01-.86-1.23-1.87-2.09-3.02-2.58Z" fill="#0f6bff"/>
  <path d="M186.64,24.47c-1.55-.91-3.24-1.37-5.06-1.37s-3.56.47-5.11,1.37c-1.55.91-2.8,2.14-3.71,3.71-.91,1.55-1.37,3.27-1.37,5.11s.47,3.51,1.37,5.08c.91,1.57,2.14,2.8,3.71,3.71,1.55.91,3.27,1.37,5.11,1.37s3.51-.47,5.06-1.37,2.77-2.16,3.71-3.71c.91-1.57,1.37-3.27,1.37-5.08,0-1.82-.47-3.56-1.37-5.11-.91-1.55-2.14-2.77-3.71-3.71ZM184.85,36.57c-.93.91-2.04,1.37-3.31,1.37s-2.38-.47-3.29-1.37-1.37-2.01-1.37-3.29.47-2.38,1.37-3.31c.91-.93,2.01-1.37,3.29-1.37s2.38.47,3.31,1.37c.93.93,1.37,2.04,1.37,3.31s-.47,2.38-1.37,3.29Z" fill="#0f6bff"/>
  <path d="M209.89,33.6c-.76-.86-1.64-1.47-2.63-1.84-1.01-.37-2.26-.71-3.78-1.03-1.18-.22-2.04-.47-2.58-.66-.54-.22-.81-.54-.81-.98s.22-.88.66-1.18c.44-.29,1.03-.44,1.77-.44s1.52.15,2.06.47c.52.32.93.79,1.25,1.42l4.47-2.18c-.76-1.3-1.84-2.31-3.19-3-1.35-.69-2.9-1.03-4.59-1.03s-2.77.25-3.98.74c-1.23.49-2.19,1.2-2.9,2.14-.71.93-1.08,2.04-1.08,3.29,0,1.25.37,2.36,1.08,3.14.71.79,1.57,1.35,2.58,1.74,1.01.37,2.26.74,3.73,1.06,1.3.29,2.26.56,2.87.81s.91.64.91,1.15-.32,1.06-.98,1.37c-.66.32-1.42.49-2.28.49-2.14,0-3.51-.81-4.12-2.46l-4.52,2.31c.74,1.5,1.84,2.6,3.31,3.36s3.24,1.13,5.33,1.13,2.92-.25,4.25-.71c1.3-.47,2.36-1.18,3.17-2.11.79-.93,1.2-2.06,1.2-3.36s-.37-2.7-1.13-3.56l-.07-.07Z" fill="#0f6bff"/>
  <path d="M246.22,150.09c-8.52,0-16.11,3.86-21.24,9.85-.47-.6-1-1.13-1.53-1.66-1.6-1.6-3.4-3-5.26-4.13-4.39-2.66-9.46-4-14.45-4.06h0c-7.12,0-14.32,2.73-19.71,8.19-5.46,5.46-8.19,12.58-8.19,19.71,0,4.99,1.33,10.05,4,14.45,1.13,1.86,2.53,3.66,4.13,5.26,1.6,1.6,3.4,3,5.26,4.13,10.72,6.53,24.97,5.13,34.22-4.13.53-.53,1.07-1.13,1.53-1.66,5.13,5.99,12.72,9.85,21.24,9.85,15.38,0,27.9-12.52,27.9-27.9,0-15.38-12.52-27.9-27.9-27.9h0ZM189.09,177.99c0-3.73,1.4-7.46,4.26-10.32,2.86-2.86,6.59-4.26,10.32-4.26h0c1.53,0,3.06.27,4.53.73l-11.52,11.52-6.86,6.86c-.47-1.46-.73-3-.73-4.53ZM214.06,188.31c-4,4-9.79,5.19-14.85,3.6l7.12-7.12,11.25-11.25,1.33-1.33c-.4,1.86-.6,3.86-.6,5.86,0,3.73-1.4,7.46-4.26,10.32v-.07ZM246.22,192.64c-8.06,0-14.65-6.53-14.65-14.65,0-8.12,6.53-14.65,14.65-14.65,8.12,0,14.65,6.53,14.65,14.65s-6.53,14.65-14.65,14.65Z" fill="#333"/>
  <polygon points="154.06 173.26 126.63 130.71 110.65 130.71 110.65 205.42 126.63 205.42 126.63 158.68 156.53 205.42 170.11 205.42 170.11 130.71 154.06 130.71 154.06 173.26" fill="#333"/>
  <polygon points="326.78 173.26 299.35 130.71 283.37 130.71 283.37 205.42 299.35 205.42 299.35 158.68 329.25 205.42 342.76 205.42 342.76 130.71 326.78 130.71 326.78 173.26" fill="#0f6bff"/>
  <path d="M390.24,154.35c-4-2.46-8.59-3.66-13.72-3.66-5.13,0-10.19,1.2-14.38,3.6-4.19,2.4-7.46,5.73-9.79,9.92-2.33,4.19-3.53,8.92-3.53,14.05,0,5.13,1.2,9.85,3.6,14.05,2.4,4.19,5.73,7.52,10.05,9.92s9.32,3.6,15.05,3.6c5.73,0,9.52-.93,13.38-2.86,3.86-1.86,7.06-4.59,9.52-8.19l-11.32-6.73c-1.2,1.53-2.8,2.8-4.86,3.66-2.06.93-4.19,1.4-6.33,1.4-3.6,0-6.46-.8-8.72-2.33-2.26-1.6-4-4-5.33-7.19h38.89c.27-1.6.4-3.4.4-5.33,0-5.13-1.13-9.79-3.33-13.98-2.26-4.19-5.39-7.52-9.39-9.99l-.2.07ZM363.47,172c.13-2.33,1.46-4.26,4-5.93,2.53-1.66,5.53-2.46,8.92-2.46s6.06.73,8.32,2.2c2.26,1.46,3.66,3.53,4.13,6.19h-25.44s.07,0,.07,0Z" fill="#0f6bff"/>
  <path d="M455.83,154.28c-4-2.4-8.79-3.6-14.38-3.6-5.59,0-5.73.47-8.46,1.46-2.73.93-5.26,2.33-7.66,4.13v-4.13h-15.25s0,74.71,0,74.71h15.25s0-25.3,0-25.3c2.33,1.8,4.93,3.13,7.66,4.13,2.8.93,5.59,1.46,8.46,1.46,5.53,0,10.32-1.2,14.38-3.66,4-2.46,7.12-5.79,9.26-10.05,2.13-4.26,3.2-9.12,3.2-14.52s-1.07-10.25-3.2-14.45c-2.13-4.26-5.19-7.59-9.26-9.99v-.2ZM449.17,188.51c-2.53,2.46-5.79,3.66-9.79,3.66-4,0-7.39-1.2-10.05-3.66s-4-5.66-4-9.65c0-4,1.33-7.26,4.06-9.79,2.73-2.53,6.06-3.86,10.05-3.86,4,0,7.26,1.27,9.79,3.73,2.53,2.46,3.8,5.79,3.8,9.79s-1.27,7.32-3.8,9.79h-.07Z" fill="#0f6bff"/>
  <path d="M511.49,152.95c-3.2-1.33-6.26-2-9.32-2-4.53,0-8.79,1.66-12.72,4.93v-25.17s-15.25,0-15.25,0v74.71s15.25,0,15.25,0v-32.63c.4-2.93,1.46-5.06,3.06-6.46,1.66-1.4,3.53-2.06,5.79-2.06s4.93.73,6.86,2.26c1.93,1.53,2.86,4,2.86,7.39v31.49s15.25,0,15.25,0v-31.89c-.07-5.66-1.27-10.19-3.6-13.58-2.33-3.33-5.06-5.66-8.19-6.99Z" fill="#0f6bff"/>
  <path d="M570.62,154.35c-4.19-2.46-8.79-3.73-13.72-3.73-4.93,0-9.65,1.27-13.85,3.73-4.19,2.46-7.59,5.79-10.05,10.05-2.46,4.19-3.73,8.86-3.73,13.85s1.27,9.52,3.73,13.78c2.46,4.26,5.79,7.59,10.05,10.05,4.19,2.46,8.86,3.73,13.85,3.73,4.99,0,9.52-1.27,13.72-3.73,4.19-2.46,7.52-5.86,10.05-10.05,2.46-4.26,3.73-8.86,3.73-13.78,0-4.93-1.27-9.65-3.73-13.85-2.46-4.19-5.79-7.52-10.05-10.05ZM565.76,187.18c-2.53,2.46-5.53,3.73-8.99,3.73s-6.46-1.27-8.92-3.73c-2.46-2.46-3.73-5.46-3.73-8.92,0-3.46,1.27-6.46,3.73-8.99,2.46-2.53,5.46-3.73,8.92-3.73s6.46,1.27,8.99,3.73c2.53,2.53,3.73,5.53,3.73,8.99s-1.27,6.46-3.73,8.92Z" fill="#0f6bff"/>
  <path d="M633.67,179.12c-2.06-2.33-4.46-4-7.12-4.99-2.73-1-6.13-1.93-10.25-2.8-3.2-.6-5.53-1.27-6.99-1.8-1.46-.6-2.2-1.46-2.2-2.66s.6-2.4,1.8-3.2c1.2-.8,2.8-1.2,4.79-1.2,2,0,4.13.4,5.59,1.27,1.4.87,2.53,2.13,3.4,3.86l12.12-5.93c-2.06-3.53-4.99-6.26-8.66-8.12-3.66-1.86-7.86-2.8-12.45-2.8s-7.52.67-10.79,2c-3.33,1.33-5.93,3.26-7.86,5.79-1.93,2.53-2.93,5.53-2.93,8.92,0,3.4,1,6.39,2.93,8.52,1.93,2.13,4.26,3.66,6.99,4.73,2.73,1,6.13,2,10.12,2.86,3.53.8,6.13,1.53,7.79,2.2s2.46,1.73,2.46,3.13c0,1.4-.87,2.86-2.66,3.73-1.8.87-3.86,1.33-6.19,1.33-5.79,0-9.52-2.2-11.19-6.66l-12.25,6.26c2,4.06,4.99,7.06,8.99,9.12,4,2.06,8.79,3.06,14.45,3.06,5.66,0,7.92-.67,11.52-1.93,3.53-1.27,6.39-3.2,8.59-5.73,2.13-2.53,3.26-5.59,3.26-9.12,0-3.53-1-7.32-3.06-9.65l-.2-.2Z" fill="#0f6bff"/>
  <path d="M913.79,134.14c10.02,0,17.59,7.62,17.59,17.35s-7.57,17.83-17.59,17.83-17.59-7.81-17.59-17.83,7.57-17.35,17.59-17.35ZM913.79,163.66c6.23,0,11.21-5.18,11.21-12.17s-4.98-11.69-11.21-11.69-11.21,4.98-11.21,11.69,4.98,12.17,11.21,12.17ZM936.7,144.3h5.56v1.77c0,.91-.1,1.68-.1,1.68h.1s2.11-4.03,7.86-4.03c6.61,0,10.83,5.22,10.83,12.8s-4.74,12.8-11.17,12.8c-4.84,0-7-3.35-7-3.35h-.1s.1.86.1,2.11v10.26h-6.09v-34.03h0ZM948.68,164.19c3.35,0,6.13-2.73,6.13-7.57s-2.49-7.67-6.09-7.67c-3.16,0-6.13,2.3-6.13,7.72,0,3.79,2.06,7.52,6.09,7.52ZM976.67,143.73c7.04,0,10.83,5.13,10.83,11.6,0,.72-.14,2.35-.14,2.35h-16.87c.38,4.27,3.69,6.47,7.33,6.47,3.93,0,7.04-2.68,7.04-2.68l2.35,4.36s-3.74,3.5-9.82,3.5c-8.1,0-13.13-5.85-13.13-12.8,0-7.52,5.13-12.8,12.41-12.8h0ZM981.37,153.5c-.1-3.31-2.16-5.08-4.84-5.08-3.12,0-5.27,1.92-5.85,5.08h10.69ZM992.53,144.3h5.85v2.83c0,.91-.1,1.68-.1,1.68h.1c1.05-2.06,3.74-5.08,8.67-5.08,5.42,0,8.48,2.83,8.48,9.3v15.72h-6.04v-14.47c0-2.97-.77-4.98-3.88-4.98s-5.65,2.06-6.57,4.98c-.34,1.01-.43,2.11-.43,3.26v11.21h-6.09v-24.44ZM1035.29,160.02s3.69,3.59,8.48,3.59c2.59,0,4.94-1.34,4.94-4.12,0-6.09-16.05-5.03-16.05-15.48,0-5.65,4.89-9.87,11.41-9.87s10.16,3.64,10.16,3.64l-2.68,5.03s-3.26-2.97-7.52-2.97c-2.88,0-5.13,1.68-5.13,4.07,0,6.04,16.01,4.55,16.01,15.43,0,5.42-4.12,9.97-11.21,9.97-7.57,0-11.74-4.65-11.74-4.65l3.36-4.65ZM1071.71,143.73c7.48,0,13.47,5.32,13.47,12.8s-5.99,12.8-13.42,12.8-13.47-5.27-13.47-12.8,5.99-12.8,13.42-12.8h0ZM1071.76,164.14c3.93,0,7.24-3.07,7.24-7.62s-3.31-7.62-7.24-7.62-7.28,3.12-7.28,7.62,3.31,7.62,7.28,7.62ZM1086.71,144.3h6.42l5.08,15.14c.48,1.44.81,3.69.86,3.69h.1s.38-2.25.86-3.69l5.08-15.14h6.42l-8.77,24.44h-7.19s-8.87-24.44-8.87-24.44ZM1125.63,143.73c7.05,0,10.83,5.13,10.83,11.6,0,.72-.14,2.35-.14,2.35h-16.87c.38,4.27,3.69,6.47,7.33,6.47,3.93,0,7.04-2.68,7.04-2.68l2.35,4.36s-3.74,3.5-9.82,3.5c-8.1,0-13.13-5.85-13.13-12.8,0-7.52,5.13-12.8,12.41-12.8h0ZM1130.32,153.5c-.1-3.31-2.16-5.08-4.84-5.08-3.12,0-5.27,1.92-5.85,5.08h10.69ZM1141.49,144.3h5.85v4.22c0,.91-.1,1.73-.1,1.73h.1c1.1-3.5,4.03-6.28,7.76-6.28.58,0,1.1.1,1.1.1v5.99s-.62-.1-1.44-.1c-2.59,0-5.51,1.49-6.66,5.13-.38,1.2-.53,2.54-.53,3.98v9.68h-6.09v-24.44ZM1171.01,143.73c7.05,0,10.83,5.13,10.83,11.6,0,.72-.14,2.35-.14,2.35h-16.87c.38,4.27,3.69,6.47,7.33,6.47,3.93,0,7.04-2.68,7.04-2.68l2.35,4.36s-3.74,3.5-9.82,3.5c-8.1,0-13.13-5.85-13.13-12.8,0-7.52,5.13-12.8,12.41-12.8h0ZM1175.71,153.5c-.1-3.31-2.16-5.08-4.84-5.08-3.12,0-5.27,1.92-5.85,5.08h10.69ZM1186.88,134.72h6.04v5.42h-6.04v-5.42ZM1186.88,144.3h6.09v24.44h-6.09v-24.44ZM1208.92,173.63c3.74,0,6.9-1.58,6.9-5.94v-1.44c0-.57.1-1.29.1-1.29h-.1c-1.44,2.16-3.55,3.31-6.8,3.31-7,0-10.98-5.66-10.98-12.36s3.79-12.17,10.83-12.17c5.32,0,7.24,3.12,7.24,3.12h.14s-.05-.29-.05-.67v-1.87h5.7v22.96c0,8.39-6.52,11.55-12.89,11.55-3.07,0-6.33-.86-8.67-2.11l1.82-4.65s3.07,1.58,6.76,1.58ZM1215.97,155.95c0-5.56-2.73-7.05-6.04-7.05-3.69,0-5.75,2.68-5.75,6.81s2.2,7.43,6.13,7.43c2.92,0,5.66-1.68,5.66-7.19h0ZM1228.62,144.3h5.85v2.83c0,.91-.1,1.68-.1,1.68h.1c1.05-2.06,3.74-5.08,8.67-5.08,5.42,0,8.48,2.83,8.48,9.3v15.72h-6.04v-14.47c0-2.97-.77-4.98-3.88-4.98s-5.65,2.06-6.57,4.98c-.34,1.01-.43,2.11-.43,3.26v11.21h-6.09v-24.44ZM913.69,185.25c8.29,0,12.56,4.65,12.56,4.65l-2.97,4.6s-3.88-3.59-9.3-3.59c-7.19,0-11.41,5.37-11.41,11.69s4.36,12.17,11.45,12.17c5.89,0,9.87-4.31,9.87-4.31l3.26,4.46s-4.7,5.51-13.37,5.51c-10.4,0-17.59-7.72-17.59-17.73s7.48-17.44,17.49-17.44h0ZM931.57,185.83h6.04v25.5c0,2.68.91,3.35,2.49,3.35.48,0,.91-.05.91-.05v5.32s-.91.14-1.92.14c-3.35,0-7.52-.86-7.52-7.86,0,0,0-26.41,0-26.41ZM957.12,194.84c7.48,0,13.47,5.32,13.47,12.8s-5.99,12.8-13.42,12.8-13.47-5.27-13.47-12.8,5.99-12.8,13.42-12.8ZM957.16,215.26c3.93,0,7.24-3.07,7.24-7.62s-3.31-7.62-7.24-7.62-7.28,3.12-7.28,7.62,3.31,7.62,7.28,7.62ZM975.14,195.41h6.09v14.47c0,2.97.77,4.98,3.79,4.98,4.41,0,6.85-3.88,6.85-8.24v-11.21h6.09v24.44h-5.85v-2.78c0-.96.1-1.73.1-1.73h-.1c-1.2,2.54-4.31,5.08-8.48,5.08-5.22,0-8.48-2.64-8.48-9.3v-15.72h0ZM1014.05,194.84c5.37,0,7.04,3.12,7.04,3.12h.1s-.05-.62-.05-1.39v-10.74h6.09v34.03h-5.75v-2.01c0-.91.1-1.58.1-1.58h-.1s-2.06,4.17-7.67,4.17c-6.61,0-10.83-5.22-10.83-12.8s4.6-12.8,11.07-12.8h0ZM1015.2,215.3c3.16,0,6.13-2.3,6.13-7.72,0-3.79-2.01-7.52-6.09-7.52-3.35,0-6.13,2.73-6.13,7.57s2.49,7.67,6.09,7.67ZM1046.55,185.83h11.6c10.5,0,17.35,6.23,17.35,16.97s-6.85,17.06-17.35,17.06h-11.6v-34.03h0ZM1057.81,214.54c6.9,0,11.31-4.07,11.31-11.74s-4.51-11.65-11.31-11.65h-5.08v23.39h5.08ZM1093.42,204.52h.81v-.34c0-3.21-2.01-4.31-4.7-4.31-3.5,0-6.71,2.35-6.71,2.35l-2.3-4.36s3.79-3.02,9.58-3.02c6.42,0,10.16,3.55,10.16,9.73v15.29h-5.61v-2.01c0-.96.1-1.73.1-1.73h-.1s-1.87,4.31-7.43,4.31c-4.36,0-8.29-2.73-8.29-7.62,0-7.76,10.5-8.29,14.47-8.29h0ZM1088.77,215.69c3.21,0,5.51-3.45,5.51-6.42v-.57h-1.05c-3.12,0-8.15.43-8.15,3.83,0,1.63,1.2,3.16,3.69,3.16ZM1105.31,223.79s1.34,1.01,2.73,1.01c1.68,0,3.31-1.01,4.22-3.16l.91-2.16-10.3-24.06h6.85l5.13,14.09c.48,1.29.91,3.31.91,3.31h.1s.38-1.92.82-3.21l4.79-14.19h6.66l-10.93,28.13c-1.73,4.46-5.13,6.37-8.82,6.37-2.92,0-5.08-1.58-5.08-1.58l2.01-4.55h0Z" fill="#121743"/>
  <path d="M872.37,147.88s-9.24-6.48-24.82-10.85c.05-.7.08-1.42.08-2.13,0-15.68-12.71-28.39-28.39-28.39s-28.39,12.71-28.39,28.39c0,.72.03,1.43.08,2.13-15.58,4.37-24.82,10.85-24.82,10.85,0,0-3.95,68.81,53.13,89.5,57.08-20.69,53.13-89.5,53.13-89.5ZM819.24,113c11.25,0,20.37,9.24,20.37,20.64,0,.5-.02,1-.05,1.49-6.1-1.21-12.91-1.99-20.32-1.99s-14.21.79-20.32,1.99c-.03-.49-.05-.99-.05-1.49,0-11.4,9.12-20.64,20.37-20.64ZM858.99,182.85c-3.27,10.35-8.01,19.33-14.09,26.69-6.83,8.28-15.45,14.58-25.66,18.78-10.21-4.2-18.83-10.51-25.66-18.78-6.07-7.36-10.81-16.34-14.09-26.69-3.97-12.54-4.82-24.14-4.96-30.17,2.28-1.25,5.58-2.89,9.75-4.52,7.67-3,19.96-6.57,34.96-6.57s27.29,3.57,34.96,6.57c4.17,1.63,7.47,3.27,9.75,4.52-.14,6.03-.99,17.63-4.96,30.17Z" fill="url(#c)"/>
  <path d="M834.64,169.24c-.87-7.66-7.37-13.62-15.27-13.62s-14.4,5.96-15.27,13.62c-6.66.65-11.87,6.26-11.87,13.09s5.69,12.95,12.79,13.14h0s8.22,0,8.22,0v-12c0-3.31,2.69-6,6-6s6,2.69,6,6v12h8.48c7.1-.2,12.79-6.01,12.79-13.15s-5.21-12.44-11.87-13.09h0Z" fill="url(#d)"/>
  <path d="M894.96,440c1.18,0,2.28-.24,3.38-.71,1.02-.47,1.96-1.26,2.67-2.2l3.22,3.3c-2.51,2.83-5.42,4.24-8.87,4.24-1.57.08-3.06-.16-4.56-.79-1.41-.55-2.75-1.41-3.93-2.43-1.1-1.02-1.96-2.36-2.51-3.69-.55-1.41-.86-2.91-.79-4.4-.08-1.49.24-3.06.79-4.48s1.41-2.67,2.51-3.77c1.18-1.1,2.59-1.96,4.08-2.51,1.49-.55,3.14-.79,4.79-.71s3.22.47,4.71,1.18,2.75,1.73,3.85,2.98l-3.06,3.53c-.71-.94-1.57-1.65-2.59-2.12s-2.12-.79-3.3-.79c-1.73,0-3.46.63-4.79,1.81-.71.63-1.18,1.41-1.57,2.28-.31.86-.47,1.81-.47,2.67-.08.94.08,1.81.39,2.67s.79,1.65,1.49,2.28c1.26,1.02,2.91,1.65,4.56,1.65ZM908,444.32v-22.15h4.95v17.75h9.5v4.4s-14.45,0-14.45,0ZM944.12,441.26c-2.28,2.12-5.18,3.3-8.32,3.3s-6.05-1.18-8.32-3.3c-1.1-1.02-1.96-2.28-2.51-3.69s-.86-2.91-.86-4.4c-.08-1.49.24-3.06.79-4.4.55-1.41,1.41-2.67,2.51-3.69,2.28-2.12,5.18-3.3,8.32-3.3s6.05,1.18,8.32,3.3c1.1,1.02,1.96,2.28,2.51,3.69s.86,2.91.79,4.4c.08,1.49-.24,3.06-.79,4.4-.47,1.41-1.34,2.67-2.43,3.69h0ZM942.4,433.17c0-1.88-.71-3.69-1.96-5.1-.63-.63-1.34-1.18-2.12-1.57s-1.73-.55-2.59-.55-1.73.16-2.59.55c-.79.39-1.57.86-2.12,1.57-1.26,1.41-1.96,3.22-1.96,5.1s.71,3.69,1.96,5.1c.63.63,1.34,1.18,2.12,1.57s1.73.55,2.59.55,1.73-.16,2.59-.55c.79-.39,1.57-.86,2.12-1.57.63-.71,1.18-1.49,1.49-2.36.39-.94.55-1.81.47-2.75ZM957.55,438.66c.39.55.94.94,1.49,1.18s1.26.39,1.88.39,1.26-.08,1.81-.39c.55-.24,1.1-.71,1.41-1.18.86-1.26,1.26-2.67,1.18-4.16v-12.25h4.95v12.41c0,3.22-.86,5.65-2.67,7.38-.94.86-1.96,1.57-3.14,1.96-1.18.47-2.43.63-3.69.63s-2.51-.16-3.69-.63-2.28-1.1-3.14-1.96c-1.81-1.73-2.67-4.16-2.67-7.38v-12.41h4.95v12.25c0,1.49.47,2.98,1.34,4.16h0ZM992.5,425.08c2.12,1.96,3.22,4.63,3.22,8.09s-1.02,6.2-3.06,8.25c-2.04,2.04-5.26,2.98-9.42,2.98h-7.7v-22.23h7.85c3.93,0,6.99.94,9.11,2.91h0ZM988.89,438.27c1.18-1.1,1.81-2.83,1.81-5.03s-.63-3.85-1.81-5.03-3.06-1.81-5.58-1.81h-2.75v13.51h3.14c1.88.16,3.77-.39,5.18-1.65ZM1023.92,422.17h4.95v22.23h-4.95l-10.6-13.9v13.9h-4.95v-22.23h4.63l10.92,14.29s0-14.29,0-14.29ZM1050.15,444.32l-2.12-4.79h-9.35l-2.12,4.79h-5.34l9.58-22.23h4.79l9.66,22.23h-5.1ZM1043.47,428.77l-2.75,6.44h5.5s-2.75-6.44-2.75-6.44ZM1065.86,426.49v17.91h-4.95v-17.91h-6.28v-4.24h17.59v4.24h-6.36ZM1075.67,422.17h4.95v22.23h-4.95s0-22.23,0-22.23ZM1094.36,436.31l5.65-14.14h5.42l-8.87,22.23h-4.16l-8.87-22.23h5.42l5.42,14.14ZM1123.97,422.17v4.4h-11.07v4.56h9.97v4.24h-9.97v4.63h11.47v4.4h-16.34v-22.15l15.94-.08c0,.08,0,0,0,0ZM889.23,463.25c.63,0,1.26-.16,1.88-.39.55-.31,1.1-.71,1.49-1.26l1.81,1.88c-.63.71-1.34,1.34-2.28,1.73-.86.39-1.81.63-2.75.63-.86,0-1.73-.08-2.51-.39s-1.57-.79-2.2-1.41c-.63-.55-1.1-1.26-1.41-2.04s-.47-1.65-.47-2.51.16-1.73.47-2.51.79-1.49,1.41-2.12,1.34-1.1,2.12-1.41c.79-.31,1.65-.47,2.51-.47.94,0,1.96.16,2.83.55s1.65,1.02,2.36,1.73l-1.73,1.96c-.39-.55-.86-.94-1.41-1.26-.55-.31-1.18-.39-1.88-.39-1.02,0-1.96.39-2.67,1.02-.39.31-.71.79-.86,1.26s-.31,1.02-.24,1.49c0,.47.08,1.02.24,1.49.16.47.47.94.79,1.26.31.31.71.63,1.18.79s.86.39,1.34.39ZM906.74,463.95c-1.26,1.18-2.91,1.88-4.63,1.88-.86,0-1.73-.16-2.51-.47s-1.49-.79-2.12-1.41c-1.18-1.18-1.88-2.83-1.88-4.56s.71-3.38,1.88-4.56c1.26-1.18,2.91-1.88,4.63-1.88.86,0,1.73.16,2.51.47s1.49.79,2.12,1.41c1.18,1.18,1.88,2.83,1.88,4.56s-.71,3.38-1.88,4.56ZM905.88,459.4c0-1.02-.31-2.04-1.02-2.83-.31-.39-.71-.63-1.18-.86s-.94-.31-1.41-.31-1.02.08-1.41.31c-.47.24-.86.55-1.18.94-.39.39-.63.79-.79,1.34-.16.47-.24,1.02-.24,1.49,0,1.02.39,2.04,1.02,2.83.31.39.71.63,1.18.86s.94.31,1.41.31,1.02-.08,1.41-.31c.47-.24.86-.55,1.18-.94.63-.71,1.02-1.73,1.02-2.83ZM922.13,457.83l-3.38,6.83h-1.65l-3.38-6.83v7.85h-2.75v-12.41h3.77l3.22,6.83,3.22-6.83h3.77v12.49h-2.75s-.08-7.93-.08-7.93ZM936.58,454.45c.47.39.86.94,1.1,1.57.24.63.31,1.26.24,1.88,0,1.57-.47,2.67-1.34,3.38-.86.79-2.28,1.02-4.08,1.02h-1.65v3.46h-2.83v-12.49h4.4c1.88,0,3.22.39,4.16,1.18h0ZM934.54,459.32c.39-.47.55-1.02.55-1.65,0-.31,0-.55-.16-.86-.16-.24-.31-.47-.55-.63-.63-.31-1.34-.47-2.04-.47h-1.57v4.16h1.88c.31,0,.71,0,1.02-.08.31-.16.63-.31.86-.47ZM943.42,462.46c.24.31.47.47.86.63.31.16.71.24,1.02.24.39,0,.71-.08,1.02-.24.31-.16.63-.39.86-.63.47-.71.71-1.57.71-2.36v-6.91h2.75v6.91c.08.79-.08,1.49-.31,2.28-.24.71-.63,1.41-1.18,1.96-1.02.94-2.43,1.41-3.85,1.41s-2.75-.55-3.77-1.49c-.55-.55-.94-1.26-1.18-1.96s-.39-1.49-.31-2.28v-6.91h2.75v6.91c-.16.86.08,1.73.63,2.43h0ZM958.73,455.71v9.97h-2.75v-9.97h-3.53v-2.36h9.9v2.36h-3.61ZM964.31,453.27h2.75v12.49h-2.75s0-12.49,0-12.49ZM978.84,453.27h2.75v12.49h-2.75l-5.89-7.78v7.78h-2.75v-12.49h2.59l6.13,8.01-.08-8.01c.08,0,0,0,0,0ZM992.82,459.4h2.75v4.4c-.63.71-1.49,1.26-2.36,1.57-.86.39-1.88.55-2.83.47-1.73,0-3.38-.63-4.63-1.81-.63-.55-1.1-1.26-1.41-2.04-.31-.79-.47-1.65-.47-2.51s.16-1.73.47-2.51c.31-.79.79-1.49,1.41-2.12s1.34-1.1,2.12-1.41c.79-.31,1.65-.47,2.51-.47,1.73,0,3.38.63,4.63,1.81l-1.41,2.12c-.39-.47-.94-.79-1.57-.94-.47-.16-1.02-.31-1.49-.31-1.02,0-1.96.39-2.67,1.02-.39.39-.71.79-.86,1.34s-.31,1.02-.24,1.57c0,1.02.31,2.04,1.02,2.83.31.31.71.63,1.1.79s.86.24,1.34.24c.86.08,1.65-.16,2.36-.55v-3.53h.24v.08ZM1011.27,453.27v2.43h-5.73v2.67h5.42v2.51h-5.42v4.87h-2.75v-12.49s8.48,0,8.48,0ZM1024.15,463.95c-1.26,1.18-2.91,1.88-4.63,1.88-.86,0-1.73-.16-2.51-.47s-1.49-.79-2.12-1.41c-1.18-1.18-1.88-2.83-1.88-4.56s.71-3.38,1.88-4.56c1.26-1.18,2.91-1.88,4.63-1.88.86,0,1.73.16,2.51.47s1.49.79,2.12,1.41c1.18,1.18,1.88,2.83,1.88,4.56s-.71,3.38-1.88,4.56h0ZM1023.13,459.4c0-1.02-.31-2.04-1.02-2.83-.31-.39-.71-.63-1.18-.86s-.94-.31-1.41-.31-1.02.08-1.41.31c-.47.24-.86.55-1.18.94-.39.39-.63.79-.79,1.34s-.24,1.02-.24,1.49c0,1.02.39,2.04,1.02,2.83.31.39.71.63,1.18.86.47.24.94.31,1.41.31s1.02-.08,1.41-.31c.47-.24.86-.55,1.18-.94.39-.39.63-.79.79-1.34s.31-.94.24-1.49ZM1031.69,462.46c.24.31.47.47.86.63.31.16.71.24,1.02.24s.71-.08,1.02-.24.63-.39.86-.63c.47-.71.71-1.57.71-2.36v-6.91h2.75v6.91c.08.79-.08,1.49-.31,2.28-.24.71-.63,1.41-1.18,1.96-1.02.94-2.43,1.41-3.85,1.41s-2.75-.55-3.77-1.49c-.55-.55-.94-1.26-1.18-1.96s-.39-1.49-.31-2.28v-6.91h2.75v6.91c-.16.86.08,1.81.63,2.43ZM1050.46,453.27h2.75v12.49h-2.75l-5.89-7.78v7.78h-2.75v-12.49h2.59l6.13,8.01-.08-8.01c.08,0,0,0,0,0h0ZM1065.78,454.92c.63.55,1.1,1.34,1.41,2.12s.47,1.65.39,2.43c.08.86-.08,1.65-.39,2.43s-.79,1.49-1.34,2.12c-1.1,1.1-2.91,1.73-5.34,1.73h-4.24v-12.49h4.4c2.28,0,4.01.55,5.1,1.65ZM1063.73,462.38c.31-.39.63-.79.79-1.26s.24-1.02.24-1.49c0-.55-.08-1.02-.24-1.49s-.47-.94-.79-1.34c-.47-.39-.94-.63-1.49-.79s-1.1-.24-1.65-.16h-1.57v7.54h1.81c1.02-.08,2.12-.39,2.91-1.02ZM1078.5,465.68l-1.1-2.67h-5.26l-1.1,2.67h-2.98l5.42-12.49h2.67l5.42,12.49h-3.06ZM1074.73,456.96l-1.57,3.61h3.14l-1.57-3.61ZM1087.3,455.71v9.97h-2.75v-9.97h-3.61v-2.36h9.9v2.36h-3.53ZM1092.79,453.27h2.75v12.49h-2.75s0-12.49,0-12.49ZM1109.13,463.95c-1.26,1.18-2.91,1.88-4.63,1.88-.86,0-1.73-.16-2.51-.47s-1.49-.79-2.12-1.41c-1.18-1.18-1.88-2.83-1.88-4.56s.71-3.38,1.88-4.56c1.26-1.18,2.91-1.88,4.63-1.88.86,0,1.73.16,2.51.47.79.31,1.49.79,2.12,1.41,1.18,1.18,1.88,2.83,1.88,4.56s-.71,3.38-1.88,4.56ZM1108.27,459.4c0-1.02-.39-2.04-1.02-2.83-.31-.39-.71-.63-1.18-.86s-.94-.31-1.41-.31-1.02.08-1.41.31c-.47.24-.86.55-1.18.94-.39.39-.63.79-.79,1.34s-.24,1.02-.24,1.49c0,1.02.39,2.04,1.02,2.83.31.39.71.63,1.18.86s.94.31,1.41.31,1.02-.08,1.41-.31c.47-.24.86-.55,1.18-.94.63-.71,1.02-1.73,1.02-2.83ZM1122.09,453.27h2.75v12.49h-2.75l-5.89-7.78v7.78h-2.83v-12.49h2.59l6.13,8.01c.08,0,0-8.01,0-8.01Z"/>
  <path d="M830.01,450.92h-6.83v15.94h15.94v-6.83h-9.11v-9.11ZM864.25,450.99v9.03h-9.11v6.83h15.94v-15.94l-6.83.08ZM823.18,435.05h6.91l-.08-.08v-9.03h9.11v-6.83h-15.94v15.94ZM855.14,419.11v6.83h9.11v9.11h6.83v-15.94h-15.94Z" fill="#0086ff"/>
  <path d="M854.2,435.05l-9.11-9.11h9.97v-6.83h-15.94v6.83l9.11,9.11h5.97ZM846.03,450.92h-5.97l7.54,7.54,1.49,1.57h-9.97v6.83h16.02v-6.91l-4.56-4.48-4.56-4.56ZM864.25,435.05v9.9l-1.57-1.57-7.54-7.54v6.05l4.48,4.48,4.56,4.56h6.91v-15.86s-6.83,0-6.83,0ZM839.12,444.08l-9.03-9.03h-6.91v15.86h6.83v-9.9l9.11,9.11s0-6.05,0-6.05Z" fill="#93eaff"/>
  <path d="M1205.14,422.42h7.57v.78h-3.32v8.77h-.9v-8.79h-3.32l-.02-.76h0ZM1213.62,422.42h.9v4.15h5.67v-4.15h.9v9.55h-.9v-4.64h-5.67v4.62h-.9v-9.53ZM1223.02,422.42h6.59v.78h-5.69v3.44h5.32v.78h-5.32v3.76h5.74v.78h-6.67l.02-9.55h0Z" fill="#003778"/>
  <path d="M1205.14,455.83h6.06v.78h-5.13v3.44h4.57v.78h-4.57v4.54h-.9v-9.55h-.02ZM1216.5,455.76c2.88,0,4.35,2.27,4.35,4.81s-1.44,4.81-4.35,4.81-4.35-2.27-4.35-4.81,1.44-4.81,4.35-4.81ZM1216.5,464.63c2.42,0,3.47-2.05,3.47-4.05s-1.03-4.05-3.47-4.05-3.47,2.05-3.47,4.05c-.02,2.03,1.03,4.05,3.47,4.05ZM1222.29,455.81h.9v5.79c0,2.17,1,3,2.74,3s2.76-.83,2.76-3v-5.79h.9v6.01c0,1.93-1.03,3.57-3.64,3.57s-3.64-1.64-3.64-3.57v-6.01h-.02ZM1231.4,455.83h1.03l5.57,8.08h.02v-8.08h.9v9.55h-1.03l-5.57-8.08h-.02v8.08h-.9v-9.55ZM1240.85,455.83h3.3c2.88.07,4.4,1.61,4.4,4.79s-1.49,4.71-4.4,4.79h-3.3v-9.57h0ZM1241.75,464.6h1.93c2.74,0,3.93-1.15,3.93-4.01s-1.2-4.01-3.93-4.01h-1.93v8.01h0ZM1252.79,455.83h1.03l3.74,9.55h-.98l-1.17-2.98h-4.35l-1.15,2.98h-.98l3.86-9.55ZM1251.35,461.62h3.76l-1.86-4.88-1.91,4.88ZM1256.51,455.83h7.57v.78h-3.32v8.77h-.9v-8.77h-3.32l-.02-.78h0ZM1265.03,455.83h.9v9.55h-.9v-9.55ZM1271.75,455.83c2.88,0,4.32,2.25,4.32,4.76s-1.44,4.76-4.32,4.76-4.32-2.25-4.32-4.76,1.44-4.76,4.32-4.76ZM1271.75,464.63c2.42,0,3.44-2.03,3.44-4.03s-1.03-4.03-3.44-4.03-3.44,2.03-3.44,4.03,1.03,4.03,3.44,4.03ZM1277.83,455.83h1.03l5.57,8.08h.02v-8.08h.9v9.55h-1.03l-5.57-8.08h-.02v8.08h-.9v-9.55Z" fill="#003778"/>
  <path d="M1205.14,434.8h5.25v12.7h7.55v4.37h-12.82l.02-17.07h0ZM1221.41,434.8h5.25v17.07h-5.25v-17.07ZM1230.59,434.8h5.37l4.98,9.13h.05v-9.13h4.98v17.07h-5.13l-5.23-9.33h-.05v9.33h-4.98v-17.07ZM1265.03,445.01c0,4.64-2.44,6.84-7.57,6.84s-7.6-2.2-7.6-6.84v-10.21h5.13v9.06c0,1.69-.02,3.83,2.49,3.83s2.42-2.15,2.42-3.83v-9.06h5.13v10.21ZM1273.78,442.79l-5.62-7.99h6.18l2.59,4.64,2.54-4.64h5.84l-5.47,8.04,6.11,9.04h-6.33l-2.91-5.1-3,5.1h-6.03l6.11-9.09h0Z" fill="#003778"/>
  <path d="M1163.4,456.69v-17.22h-8.62v25.82h25.84v-8.6h-17.22Z" fill="#0094ff"/>
  <path d="M1197.81,422.25h-43.04v12.92h8.62v-4.27h25.82v25.79h-4.3v8.6h12.9v-43.04Z" fill="#003778"/>
  <path d="M1296.74,422.32h.68v42.96h-.68v-42.96Z" fill="#003778"/>
  <path d="M1319.35,436.12v1.27h-9.33v5.67h8.74v1.27h-8.74v6.2h9.45v1.27h-10.94v-15.68h10.82ZM1329.22,451.83v-2.05h-.05c-.37.76-.9,1.34-1.59,1.76-.71.39-1.47.61-2.32.61-.71,0-1.32-.1-1.83-.29-.51-.2-.93-.49-1.22-.85-.32-.37-.54-.81-.68-1.34s-.22-1.12-.22-1.81v-7.35h1.39v7.38c.02,1.03.27,1.81.71,2.32.44.54,1.22.78,2.32.78.61,0,1.12-.12,1.54-.39.42-.24.78-.59,1.05-1.03.27-.42.49-.9.61-1.47s.2-1.1.2-1.69v-5.91h1.39v11.33s-1.29,0-1.29,0ZM1334.37,440.5v2.66h.05c.34-.93.9-1.64,1.64-2.12s1.61-.73,2.64-.68v1.39c-.64-.02-1.2.05-1.71.24s-.95.49-1.32.85-.66.81-.88,1.32c-.2.51-.32,1.05-.32,1.66v6.06h-1.39v-11.38s1.29,0,1.29,0ZM1346.73,440.64c.66.32,1.22.76,1.69,1.29.46.54.81,1.17,1.03,1.91.24.73.34,1.49.34,2.32s-.12,1.59-.34,2.32c-.24.73-.59,1.37-1.03,1.91-.46.54-1.03.98-1.69,1.29s-1.44.46-2.3.46-1.64-.15-2.3-.46-1.22-.73-1.69-1.29c-.46-.54-.81-1.17-1.03-1.91-.24-.73-.34-1.49-.34-2.32s.12-1.59.34-2.32c.24-.73.59-1.37,1.03-1.91.46-.54,1.03-.98,1.69-1.29s1.44-.49,2.3-.49,1.61.17,2.3.49ZM1342.68,441.74c-.49.27-.9.64-1.25,1.1-.34.46-.59.98-.76,1.54-.17.59-.24,1.17-.24,1.76s.07,1.2.24,1.76c.17.59.42,1.1.76,1.54.32.46.73.83,1.25,1.1.49.27,1.07.42,1.73.42s1.25-.15,1.73-.42.9-.64,1.25-1.1c.34-.46.59-.98.76-1.54.17-.59.24-1.17.24-1.76s-.07-1.2-.24-1.76c-.17-.59-.42-1.1-.76-1.54-.32-.46-.73-.83-1.25-1.1-.49-.27-1.07-.42-1.73-.42s-1.22.15-1.73.42ZM1353.13,440.5v2.15h.05c.32-.78.85-1.39,1.56-1.83.73-.44,1.54-.66,2.47-.66.85,0,1.61.17,2.25.49.64.32,1.17.76,1.59,1.32.42.54.73,1.2.95,1.91.2.73.32,1.49.32,2.3s-.1,1.56-.32,2.3c-.2.73-.51,1.37-.95,1.91-.42.54-.95.98-1.59,1.29s-1.39.46-2.25.46c-.42,0-.83-.05-1.22-.15-.42-.1-.78-.24-1.15-.46-.34-.2-.66-.46-.93-.78-.27-.32-.49-.66-.64-1.07h-.05v6.33h-1.39v-15.49s1.29,0,1.29,0ZM1360.73,444.4c-.15-.59-.37-1.1-.66-1.54-.29-.46-.68-.83-1.15-1.1-.46-.29-1.03-.44-1.69-.44-.76,0-1.39.12-1.91.39s-.93.61-1.22,1.05c-.32.44-.51.95-.66,1.54-.12.59-.2,1.2-.2,1.86,0,.59.07,1.17.22,1.76.15.59.37,1.1.68,1.54.32.46.73.83,1.22,1.1s1.12.44,1.86.44c.66,0,1.22-.15,1.69-.44.46-.29.85-.66,1.15-1.1.29-.46.51-.98.66-1.54.15-.59.22-1.17.22-1.76-.02-.59-.07-1.17-.22-1.76ZM1365.49,448.09c.15.54.37,1.03.66,1.44.32.42.68.78,1.17,1.05.46.27,1.03.42,1.69.42,1,0,1.81-.27,2.37-.78.56-.54.98-1.22,1.2-2.1h1.39c-.29,1.29-.83,2.3-1.61,2.98-.78.71-1.91,1.05-3.32,1.05-.9,0-1.66-.15-2.32-.46s-1.17-.76-1.59-1.29c-.42-.54-.71-1.2-.9-1.91-.2-.73-.29-1.49-.29-2.3,0-.76.1-1.49.29-2.2s.51-1.37.9-1.93c.42-.56.95-1.03,1.59-1.37.66-.34,1.42-.51,2.32-.51s1.69.2,2.32.54c.64.37,1.17.85,1.56,1.44.39.59.68,1.27.88,2.05.17.76.24,1.54.22,2.34h-8.72c0,.49.05,1,.2,1.54h0ZM1372.35,443.84c-.17-.49-.42-.9-.71-1.29-.32-.37-.68-.68-1.12-.9-.44-.22-.93-.34-1.49-.34s-1.07.12-1.51.34-.81.54-1.12.9-.56.81-.73,1.29c-.2.49-.29,1-.37,1.51h7.35c-.02-.51-.12-1.03-.29-1.51h0Z" fill="#0094ff"/>
  <rect x="72.49" y="259.33" width="1234.23" height="73.07" rx="14.93" ry="14.93" fill="#bfddff"/>
  <g>
    <path d="M126.01,312.01v-3.86l11.5-10.47c1.64-1.51,2.85-2.92,3.63-4.22.77-1.3,1.16-2.66,1.16-4.08s-.37-2.67-1.12-3.63c-.75-.95-1.99-1.43-3.74-1.43-1.99,0-3.41.55-4.26,1.66-.85,1.11-1.28,2.51-1.28,4.22h-5.13c0-2.18.4-4.06,1.21-5.63.81-1.57,2-2.78,3.59-3.64s3.54-1.28,5.87-1.28c2.13,0,3.97.38,5.51,1.15,1.54.77,2.72,1.85,3.54,3.25.82,1.4,1.23,3.07,1.23,5,0,1.69-.31,3.21-.94,4.55-.63,1.34-1.47,2.6-2.54,3.77-1.07,1.17-2.26,2.34-3.58,3.52l-7.35,6.57h15.28v4.54h-22.58Z"/>
    <path d="M164.21,312.43c-3.56,0-6.37-.86-8.42-2.58-2.05-1.72-3.08-4.26-3.08-7.63h5.15c0,1.79.55,3.21,1.66,4.25,1.11,1.04,2.66,1.56,4.66,1.56,1.84,0,3.26-.44,4.26-1.31,1-.87,1.5-2.24,1.5-4.11s-.59-3.1-1.76-3.93-2.73-1.25-4.66-1.25h-1.93v-4.3h2.08c1.74,0,3.1-.44,4.09-1.32.98-.88,1.48-2.05,1.48-3.52s-.46-2.47-1.38-3.17c-.92-.7-2.16-1.05-3.72-1.05-1.73,0-3.06.46-4.02,1.37-.95.91-1.43,2.12-1.43,3.64h-5.13c0-2.05.46-3.78,1.37-5.18.91-1.4,2.16-2.46,3.75-3.19,1.59-.72,3.4-1.09,5.43-1.09,1.87,0,3.58.3,5.14.9,1.55.6,2.8,1.52,3.75,2.75.94,1.23,1.42,2.78,1.42,4.65s-.51,3.5-1.54,4.68c-1.03,1.18-2.39,2.01-4.1,2.5,1.9.36,3.48,1.18,4.72,2.48s1.87,3.07,1.87,5.33c0,2.05-.46,3.78-1.38,5.2-.92,1.42-2.21,2.49-3.88,3.21-1.67.72-3.63,1.09-5.9,1.09Z"/>
    <path d="M191.68,312.01v-32.86h6.32l11.01,18.43h-2.25l10.82-18.43h6.13v32.86h-5.54v-29.2h2.25l-10.94,18.77h-3.54l-11.18-18.77h2.32v29.2h-5.4Z"/>
    <path d="M227.94,312.01l12.08-32.86h5.91l11.99,32.86h-5.83l-2.73-8.2h-12.74l-2.86,8.2h-5.81ZM238.02,299.1h9.86l-4.93-14.38-4.93,14.38Z"/>
    <path d="M262.19,312.01v-32.86h12.96c2,0,3.81.3,5.42.9,1.61.6,2.89,1.55,3.85,2.86.95,1.3,1.43,3.01,1.43,5.13s-.57,3.86-1.71,5.32c-1.14,1.46-2.84,2.47-5.1,3.03,1.32.21,2.38.63,3.2,1.25.81.62,1.48,1.46,1.99,2.51.51,1.06.97,2.36,1.38,3.91l2.17,7.96h-5.83l-1.71-6.96c-.33-1.38-.71-2.54-1.15-3.48-.44-.94-1.03-1.64-1.76-2.11-.73-.47-1.73-.71-2.98-.71h-6.54v13.26h-5.62ZM267.8,294.12h6.49c1.14,0,2.14-.2,3.02-.61.87-.41,1.56-1,2.06-1.77.5-.77.76-1.7.76-2.8,0-1.64-.49-2.91-1.48-3.78-.98-.88-2.35-1.32-4.09-1.32h-6.76v10.28Z"/>
    <path d="M306.7,312.45c-3.37,0-6.23-.7-8.59-2.11-2.36-1.41-4.16-3.37-5.4-5.9-1.24-2.52-1.86-5.47-1.86-8.84s.62-6.32,1.86-8.85c1.24-2.53,3.04-4.5,5.4-5.92,2.36-1.42,5.22-2.12,8.59-2.12,2.39,0,4.63.42,6.71,1.25,2.08.83,3.79,2.08,5.13,3.75,1.33,1.67,2.09,3.76,2.27,6.26h-5.71c-.18-1.5-.67-2.73-1.46-3.7-.8-.97-1.8-1.69-3-2.17-1.2-.48-2.51-.72-3.93-.72-2.39,0-4.33.56-5.81,1.67-1.48,1.12-2.56,2.6-3.22,4.44-.67,1.85-1,3.89-1,6.12s.33,4.24,1,6.09c.67,1.85,1.74,3.32,3.22,4.43,1.48,1.11,3.42,1.66,5.81,1.66s4.43-.62,5.92-1.87,2.34-3.06,2.55-5.43h5.74c-.23,2.62-.96,4.82-2.2,6.6-1.24,1.78-2.88,3.12-4.93,4.02-2.05.9-4.41,1.34-7.08,1.34Z"/>
    <path d="M327.4,312.01v-32.86h5.62v13.33h16.43v-13.33h5.62v32.86h-5.62v-14.6h-16.43v14.6h-5.62Z"/>
    <path d="M371.37,312.01v-3.86l11.5-10.47c1.64-1.51,2.85-2.92,3.63-4.22.77-1.3,1.16-2.66,1.16-4.08s-.37-2.67-1.12-3.63c-.75-.95-1.99-1.43-3.74-1.43-1.99,0-3.41.55-4.26,1.66-.85,1.11-1.28,2.51-1.28,4.22h-5.13c0-2.18.4-4.06,1.21-5.63.81-1.57,2-2.78,3.59-3.64s3.54-1.28,5.87-1.28c2.13,0,3.97.38,5.51,1.15,1.54.77,2.72,1.85,3.54,3.25.82,1.4,1.23,3.07,1.23,5,0,1.69-.31,3.21-.94,4.55-.63,1.34-1.47,2.6-2.54,3.77-1.07,1.17-2.26,2.34-3.58,3.52l-7.35,6.57h15.28v4.54h-22.58Z"/>
    <path d="M409.41,312.45c-1.97,0-3.66-.39-5.08-1.16s-2.58-1.88-3.48-3.32-1.57-3.17-2-5.18c-.43-2.01-.65-4.24-.65-6.7s.22-4.72.65-6.74c.43-2.02,1.1-3.75,2-5.2.9-1.45,2.06-2.56,3.48-3.34s3.11-1.17,5.08-1.17,3.64.39,5.05,1.17,2.58,1.9,3.48,3.34c.9,1.45,1.57,3.18,2.01,5.19.44,2.01.66,4.25.66,6.73s-.22,4.72-.66,6.73c-.44,2.01-1.11,3.74-2.01,5.18s-2.06,2.55-3.48,3.32-3.1,1.16-5.05,1.16ZM409.41,307.86c1.12,0,2.05-.33,2.78-.98.73-.65,1.3-1.53,1.7-2.64.4-1.11.68-2.36.85-3.77.17-1.41.26-2.88.26-4.41s-.09-3-.26-4.42-.46-2.68-.85-3.8c-.4-1.11-.96-1.99-1.7-2.64-.73-.64-1.66-.96-2.78-.96s-2.07.32-2.8.96c-.72.64-1.29,1.52-1.71,2.64-.42,1.12-.7,2.38-.87,3.8-.16,1.42-.24,2.89-.24,4.42s.08,3,.24,4.41c.16,1.41.45,2.67.87,3.77.42,1.11.98,1.99,1.71,2.64.72.65,1.66.98,2.8.98Z"/>
    <path d="M424.79,312.01v-3.86l11.5-10.47c1.64-1.51,2.85-2.92,3.63-4.22.77-1.3,1.16-2.66,1.16-4.08s-.37-2.67-1.12-3.63c-.75-.95-1.99-1.43-3.74-1.43-1.99,0-3.41.55-4.26,1.66-.85,1.11-1.28,2.51-1.28,4.22h-5.13c0-2.18.4-4.06,1.21-5.63.81-1.57,2-2.78,3.59-3.64s3.54-1.28,5.87-1.28c2.13,0,3.97.38,5.51,1.15,1.54.77,2.72,1.85,3.54,3.25.82,1.4,1.23,3.07,1.23,5,0,1.69-.31,3.21-.94,4.55-.63,1.34-1.47,2.6-2.54,3.77-1.07,1.17-2.26,2.34-3.58,3.52l-7.35,6.57h15.28v4.54h-22.58Z"/>
    <path d="M463.53,312.45c-2.31,0-4.38-.54-6.2-1.64-1.82-1.09-3.26-2.83-4.3-5.21-1.04-2.38-1.56-5.5-1.56-9.34s.51-6.93,1.54-9.38,2.45-4.26,4.26-5.44c1.81-1.19,3.91-1.78,6.29-1.78,2.78,0,5.07.72,6.85,2.16s2.91,3.55,3.38,6.34h-5.18c-.29-1.37-.87-2.39-1.73-3.06-.86-.68-1.97-1.01-3.32-1.01-2.12,0-3.76.98-4.93,2.95-1.17,1.97-1.76,5.05-1.76,9.23v1.44c0,2.56.32,4.59.95,6.1s1.46,2.6,2.48,3.26c1.02.66,2.1.99,3.26.99,1.82,0,3.18-.58,4.06-1.75.89-1.16,1.33-2.62,1.33-4.36s-.44-3.1-1.31-4.09c-.87-.98-2.1-1.48-3.67-1.48-1.94,0-3.63.46-5.09,1.39-1.46.93-2.57,2.04-3.33,3.34l-.44-3.88c.72-.96,1.54-1.84,2.47-2.64.93-.8,1.99-1.43,3.2-1.9,1.2-.47,2.57-.71,4.1-.71,1.81,0,3.43.37,4.86,1.12,1.43.75,2.56,1.86,3.39,3.32s1.25,3.26,1.25,5.4-.42,3.92-1.26,5.52c-.84,1.6-2.06,2.84-3.67,3.75s-3.58,1.35-5.91,1.35Z"/>
    <path d="M490.92,320.75v-41.6h4.35v41.6h-4.35Z"/>
    <path d="M510.11,312.01l12.08-32.86h5.91l11.99,32.86h-5.83l-2.73-8.2h-12.74l-2.86,8.2h-5.81ZM520.2,299.1h9.86l-4.93-14.38-4.93,14.38Z"/>
    <path d="M544.37,312.01v-32.86h6.32l11.01,18.43h-2.25l10.82-18.43h6.13v32.86h-5.54v-29.2h2.25l-10.94,18.77h-3.54l-11.18-18.77h2.32v29.2h-5.4Z"/>
    <path d="M595.25,312.45c-2.43,0-4.61-.36-6.56-1.07-1.95-.72-3.49-1.84-4.63-3.37-1.14-1.53-1.71-3.53-1.71-6.01h5.71c.03,1.5.37,2.68,1.03,3.54.65.86,1.53,1.47,2.62,1.83,1.1.36,2.31.54,3.65.54s2.41-.17,3.43-.51c1.02-.34,1.82-.87,2.42-1.59.59-.72.89-1.62.89-2.71,0-1.01-.24-1.84-.73-2.49-.49-.65-1.31-1.22-2.47-1.72-1.16-.5-2.74-1.02-4.76-1.57-2.36-.63-4.35-1.34-5.98-2.12-1.63-.78-2.86-1.77-3.7-2.97-.84-1.2-1.26-2.73-1.26-4.6,0-2,.48-3.66,1.44-4.97.96-1.31,2.3-2.29,4.03-2.94,1.73-.65,3.74-.98,6.05-.98s4.2.34,6.02,1.01c1.81.68,3.27,1.71,4.36,3.09,1.09,1.38,1.64,3.12,1.64,5.22h-5.71c.02-1.63-.59-2.85-1.82-3.67-1.23-.82-2.72-1.23-4.48-1.23s-3.19.35-4.26,1.04c-1.07.69-1.6,1.73-1.6,3.11,0,.8.23,1.49.68,2.06.46.58,1.27,1.11,2.44,1.6s2.82,1.03,4.96,1.64c2.51.7,4.56,1.45,6.15,2.25,1.59.8,2.77,1.82,3.54,3.06.76,1.25,1.15,2.89,1.15,4.92,0,2.21-.55,4.03-1.66,5.44-1.11,1.42-2.6,2.47-4.49,3.15-1.89.68-4.02,1.03-6.4,1.03Z"/>
    <path d="M618.22,312.01v-28.15h-9.06v-4.71h23.71v4.71h-9.01v28.15h-5.64Z"/>
    <path d="M637.43,312.01v-32.86h21.48v4.69h-15.87v9.06h14.5v4.54h-14.5v9.89h15.87v4.69h-21.48Z"/>
    <path d="M665.68,312.01v-32.86h12.96c2,0,3.81.3,5.42.9,1.61.6,2.89,1.55,3.85,2.86.95,1.3,1.43,3.01,1.43,5.13s-.57,3.86-1.71,5.32c-1.14,1.46-2.84,2.47-5.1,3.03,1.32.21,2.38.63,3.2,1.25.81.62,1.48,1.46,1.99,2.51.51,1.06.97,2.36,1.38,3.91l2.17,7.96h-5.83l-1.71-6.96c-.33-1.38-.71-2.54-1.15-3.48-.44-.94-1.03-1.64-1.76-2.11-.73-.47-1.73-.71-2.98-.71h-6.54v13.26h-5.62ZM671.29,294.12h6.49c1.14,0,2.14-.2,3.02-.61.87-.41,1.56-1,2.06-1.77.5-.77.76-1.7.76-2.8,0-1.64-.49-2.91-1.48-3.78-.98-.88-2.35-1.32-4.09-1.32h-6.76v10.28Z"/>
    <path d="M696.66,312.01v-32.86h11.65c3.47,0,6.43.65,8.89,1.94,2.46,1.29,4.34,3.17,5.64,5.62,1.3,2.45,1.95,5.39,1.95,8.83s-.66,6.5-1.97,8.95c-1.31,2.45-3.19,4.32-5.65,5.6-2.46,1.29-5.41,1.93-8.86,1.93h-11.65ZM702.28,307.3h5.15c2.62,0,4.78-.43,6.48-1.28,1.7-.85,2.97-2.15,3.82-3.89.85-1.74,1.27-3.95,1.27-6.62s-.44-4.77-1.32-6.49c-.88-1.73-2.18-3.02-3.89-3.87-1.72-.85-3.84-1.28-6.36-1.28h-5.15v23.44Z"/>
    <path d="M726.47,312.01l12.08-32.86h5.91l11.99,32.86h-5.83l-2.73-8.2h-12.74l-2.86,8.2h-5.81ZM736.55,299.1h9.86l-4.93-14.38-4.93,14.38Z"/>
    <path d="M760.72,312.01v-32.86h6.32l11.01,18.43h-2.25l10.82-18.43h6.13v32.86h-5.54v-29.2h2.25l-10.94,18.77h-3.54l-11.18-18.77h2.32v29.2h-5.4Z"/>
    <path d="M800.88,319.19l-.95-2.76c1.06-.38,1.94-.93,2.65-1.67.71-.74,1.14-1.66,1.31-2.75l.32.29c-1.07,0-1.95-.34-2.64-1.03s-1.03-1.52-1.03-2.51.34-1.89,1.03-2.54c.68-.65,1.56-.98,2.64-.98s1.94.37,2.61,1.12c.67.75,1,1.87,1,3.37,0,1.79-.33,3.32-.98,4.58-.65,1.26-1.5,2.29-2.55,3.08-1.05.79-2.18,1.39-3.41,1.79Z"/>
    <path d="M831.16,312.01v-28.15h-9.06v-4.71h23.71v4.71h-9.01v28.15h-5.64Z"/>
    <path d="M850.37,312.01v-32.86h5.62v13.33h16.43v-13.33h5.62v32.86h-5.62v-14.6h-16.43v14.6h-5.62Z"/>
    <path d="M886.29,312.01v-32.86h21.48v4.69h-15.87v9.06h14.5v4.54h-14.5v9.89h15.87v4.69h-21.48Z"/>
    <path d="M924.69,312.01v-32.86h5.59l16.58,24.15v-24.15h5.3v32.86h-5.59l-16.6-24.24v24.24h-5.27Z"/>
    <path d="M960.41,312.01v-32.86h21.48v4.69h-15.87v9.06h14.5v4.54h-14.5v9.89h15.87v4.69h-21.48Z"/>
    <path d="M993.9,312.01v-28.15h-9.06v-4.71h23.71v4.71h-9.01v28.15h-5.64Z"/>
    <path d="M1013.12,312.01v-32.86h5.62v13.33h16.43v-13.33h5.62v32.86h-5.62v-14.6h-16.43v14.6h-5.62Z"/>
    <path d="M1049.03,312.01v-32.86h21.48v4.69h-15.87v9.06h14.5v4.54h-14.5v9.89h15.87v4.69h-21.48Z"/>
    <path d="M1077.28,312.01v-32.86h12.96c2,0,3.81.3,5.42.9,1.61.6,2.89,1.55,3.85,2.86.95,1.3,1.43,3.01,1.43,5.13s-.57,3.86-1.71,5.32c-1.14,1.46-2.84,2.47-5.1,3.03,1.32.21,2.38.63,3.2,1.25.81.62,1.48,1.46,1.99,2.51.51,1.06.97,2.36,1.38,3.91l2.17,7.96h-5.83l-1.71-6.96c-.33-1.38-.71-2.54-1.15-3.48-.44-.94-1.03-1.64-1.76-2.11-.73-.47-1.73-.71-2.98-.71h-6.54v13.26h-5.62ZM1082.89,294.12h6.49c1.14,0,2.14-.2,3.01-.61.87-.41,1.56-1,2.06-1.77.5-.77.76-1.7.76-2.8,0-1.64-.49-2.91-1.48-3.78-.99-.88-2.35-1.32-4.09-1.32h-6.76v10.28Z"/>
    <path d="M1108.26,312.01v-32.86h5.62v27.95h14.6v4.91h-20.21Z"/>
    <path d="M1130.25,312.01l12.08-32.86h5.91l11.99,32.86h-5.83l-2.73-8.2h-12.74l-2.86,8.2h-5.81ZM1140.34,299.1h9.86l-4.93-14.38-4.93,14.38Z"/>
    <path d="M1164.51,312.01v-32.86h5.59l16.58,24.15v-24.15h5.3v32.86h-5.59l-16.6-24.24v24.24h-5.27Z"/>
    <path d="M1200.23,312.01v-32.86h11.65c3.47,0,6.43.65,8.89,1.94,2.46,1.29,4.34,3.17,5.64,5.62,1.3,2.45,1.95,5.39,1.95,8.83s-.66,6.5-1.97,8.95c-1.31,2.45-3.19,4.32-5.65,5.6-2.46,1.29-5.41,1.93-8.86,1.93h-11.65ZM1205.84,307.3h5.15c2.62,0,4.78-.43,6.48-1.28,1.7-.85,2.97-2.15,3.82-3.89.85-1.74,1.27-3.95,1.27-6.62s-.44-4.77-1.32-6.49c-.88-1.73-2.18-3.02-3.89-3.87-1.72-.85-3.84-1.28-6.36-1.28h-5.15v23.44Z"/>
    <path d="M1245.66,312.45c-2.43,0-4.61-.36-6.55-1.07-1.95-.72-3.49-1.84-4.63-3.37-1.14-1.53-1.71-3.53-1.71-6.01h5.71c.03,1.5.37,2.68,1.03,3.54.65.86,1.53,1.47,2.62,1.83,1.1.36,2.31.54,3.65.54s2.41-.17,3.43-.51c1.02-.34,1.82-.87,2.42-1.59.59-.72.89-1.62.89-2.71,0-1.01-.24-1.84-.73-2.49-.49-.65-1.31-1.22-2.47-1.72-1.16-.5-2.74-1.02-4.76-1.57-2.36-.63-4.35-1.34-5.98-2.12-1.63-.78-2.86-1.77-3.7-2.97-.84-1.2-1.26-2.73-1.26-4.6,0-2,.48-3.66,1.44-4.97.96-1.31,2.3-2.29,4.03-2.94,1.72-.65,3.74-.98,6.05-.98s4.2.34,6.02,1.01c1.81.68,3.27,1.71,4.36,3.09,1.09,1.38,1.64,3.12,1.64,5.22h-5.71c.02-1.63-.59-2.85-1.82-3.67-1.23-.82-2.72-1.23-4.48-1.23s-3.19.35-4.26,1.04c-1.07.69-1.6,1.73-1.6,3.11,0,.8.23,1.49.68,2.06.46.58,1.27,1.11,2.44,1.6s2.82,1.03,4.96,1.64c2.51.7,4.56,1.45,6.15,2.25,1.59.8,2.77,1.82,3.54,3.06.76,1.25,1.15,2.89,1.15,4.92,0,2.21-.55,4.03-1.66,5.44-1.11,1.42-2.6,2.47-4.49,3.15-1.89.68-4.02,1.03-6.4,1.03Z"/>
  </g>
</svg>