<?xml version="1.0" encoding="UTF-8"?>
<svg id="a" data-name="Layer 1" xmlns="http://www.w3.org/2000/svg" width="764" height="400" xmlns:xlink="http://www.w3.org/1999/xlink" viewBox="0 0 764 400">
  <defs>
    <linearGradient id="b" x1="0" y1="397.63" x2="764" y2="397.63" gradientUnits="userSpaceOnUse">
      <stop offset="0" stop-color="#0f6bff"/>
      <stop offset="1" stop-color="#000025"/>
    </linearGradient>
  </defs>
  <polyline points="0 0 764 0 764 400 0 400" fill="#fff"/>
  <g>
    <path d="M45.81,100.8l-5.25-16.68h4.6l3.21,11.78,3.21-11.78h4.75l3.28,11.76,3.16-11.76h4.29l-5.25,16.68h-4.63l-3.37-12-3.4,12h-4.62Z"/>
    <path d="M76.9,101.11c-1.86,0-3.42-.34-4.68-1.03-1.27-.69-2.22-1.68-2.87-2.98-.65-1.3-.97-2.86-.97-4.68s.32-3.29.95-4.56c.63-1.28,1.56-2.26,2.79-2.95,1.22-.69,2.73-1.03,4.52-1.03,2.48,0,4.45.73,5.89,2.18,1.44,1.45,2.16,3.52,2.16,6.21,0,.14,0,.32-.02.56-.01.23-.03.41-.05.54h-11.71c.02.79.17,1.52.44,2.21.27.68.69,1.23,1.27,1.65.58.42,1.34.62,2.29.62s1.77-.21,2.36-.64c.59-.43.89-1.06.91-1.91h4.46c-.06,1.3-.41,2.38-1.07,3.25-.66.87-1.55,1.51-2.68,1.94-1.13.43-2.46.64-3.97.64ZM72.95,90.48h7.23c-.03-1.16-.38-2.03-1.03-2.61-.66-.57-1.5-.86-2.52-.86s-1.91.3-2.57.89c-.67.59-1.03,1.45-1.1,2.58Z"/>
    <path d="M94.95,100.8c-1.7,0-3.01-.2-3.93-.61s-1.57-1.03-1.93-1.88c-.37-.85-.55-1.96-.55-3.32v-17.19h4.51v16.92c0,.88.12,1.52.36,1.93s.8.62,1.67.62h1.04v3.54h-1.18Z"/>
    <path d="M106.54,101.04c-1.55,0-2.96-.3-4.22-.89-1.27-.59-2.27-1.51-3.01-2.77-.74-1.25-1.11-2.87-1.11-4.85s.35-3.61,1.06-4.89c.71-1.28,1.69-2.22,2.95-2.85,1.26-.62,2.7-.93,4.33-.93,1.41,0,2.69.23,3.83.7,1.14.47,2.04,1.17,2.72,2.09.67.93,1.01,2.1,1.03,3.51h-4.39c-.02-.85-.31-1.54-.85-2.04s-1.32-.76-2.31-.76c-1.31,0-2.26.45-2.85,1.35-.59.9-.88,2.17-.88,3.81,0,1.06.13,1.96.38,2.71.26.75.66,1.32,1.21,1.71.55.39,1.26.59,2.13.59,1.01,0,1.81-.28,2.4-.83s.89-1.34.91-2.35h4.39c-.03,1.45-.38,2.67-1.05,3.66-.67.99-1.58,1.74-2.73,2.26-1.15.51-2.47.77-3.95.77Z"/>
    <path d="M125.83,101.08c-1.69,0-3.17-.34-4.44-1.01s-2.25-1.65-2.95-2.92c-.7-1.28-1.04-2.82-1.04-4.63s.35-3.42,1.04-4.71c.69-1.29,1.68-2.28,2.95-2.96s2.75-1.02,4.44-1.02,3.2.34,4.47,1.02c1.27.68,2.26,1.66,2.96,2.96.71,1.29,1.06,2.86,1.06,4.71s-.35,3.36-1.06,4.63c-.71,1.28-1.7,2.25-2.96,2.92-1.27.67-2.76,1.01-4.47,1.01ZM125.83,97.63c.99,0,1.77-.23,2.33-.69.56-.46.96-1.08,1.2-1.85s.35-1.63.35-2.56-.12-1.83-.35-2.62-.63-1.41-1.2-1.88c-.56-.47-1.34-.7-2.33-.7s-1.73.23-2.28.7c-.55.47-.94,1.09-1.17,1.88-.23.79-.34,1.66-.34,2.62s.11,1.79.34,2.56c.23.77.62,1.39,1.17,1.85.55.46,1.31.69,2.28.69Z"/>
    <path d="M138.32,100.8v-16.68h4.36l.08,2.5c.55-.72,1.3-1.35,2.26-1.91.96-.55,2.15-.83,3.56-.83,1.68,0,2.96.53,3.85,1.58.89,1.05,1.34,2.55,1.34,4.49v10.85h-4.53v-10.27c0-.6-.08-1.13-.25-1.59-.17-.46-.43-.81-.8-1.06-.37-.25-.85-.38-1.44-.38-.88,0-1.63.21-2.26.63-.63.42-1.18.93-1.66,1.54v11.12h-4.53ZM160.21,100.8v-10.27c0-.6-.08-1.13-.25-1.59-.17-.46-.43-.81-.8-1.06-.37-.25-.85-.38-1.44-.38-.88,0-1.63.19-2.26.58-.63.39-1.2.87-1.7,1.45l-.55-2.8c.72-.76,1.6-1.43,2.64-2,1.04-.57,2.27-.85,3.68-.85,1.66,0,2.95.53,3.85,1.58.91,1.05,1.36,2.55,1.36,4.49v10.85h-4.53Z"/>
    <path d="M177.12,101.11c-1.86,0-3.42-.34-4.68-1.03-1.27-.69-2.22-1.68-2.87-2.98-.65-1.3-.97-2.86-.97-4.68s.32-3.29.95-4.56c.63-1.28,1.56-2.26,2.79-2.95,1.22-.69,2.73-1.03,4.52-1.03,2.48,0,4.45.73,5.89,2.18,1.44,1.45,2.16,3.52,2.16,6.21,0,.14,0,.32-.02.56-.01.23-.03.41-.05.54h-11.71c.02.79.17,1.52.44,2.21.27.68.69,1.23,1.27,1.65.58.42,1.34.62,2.29.62s1.77-.21,2.36-.64c.59-.43.89-1.06.91-1.91h4.46c-.06,1.3-.41,2.38-1.07,3.25-.66.87-1.55,1.51-2.68,1.94-1.13.43-2.46.64-3.97.64ZM173.17,90.48h7.23c-.03-1.16-.38-2.03-1.03-2.61-.66-.57-1.5-.86-2.52-.86s-1.91.3-2.57.89c-.67.59-1.03,1.45-1.1,2.58Z"/>
    <path d="M195.44,101.11c-.92,0-1.83-.08-2.72-.26s-1.69-.46-2.41-.88c-.72-.42-1.29-.98-1.71-1.7-.42-.72-.63-1.61-.63-2.68h4.2c0,.93.33,1.58.98,1.95.65.36,1.42.55,2.3.55s1.54-.14,2.02-.42.72-.75.72-1.41c0-.63-.28-1.09-.85-1.4-.56-.31-1.55-.62-2.96-.94-1.19-.29-2.24-.63-3.17-1.03-.93-.4-1.66-.95-2.18-1.62-.52-.68-.79-1.57-.79-2.67,0-.87.2-1.6.6-2.21.4-.6.93-1.09,1.6-1.46.67-.37,1.42-.64,2.26-.81.84-.17,1.69-.26,2.57-.26s1.69.09,2.51.26,1.56.46,2.22.86c.66.41,1.19.95,1.59,1.63.4.68.6,1.54.6,2.56h-4.21c0-.85-.27-1.45-.81-1.78s-1.18-.5-1.91-.5c-.79,0-1.4.11-1.85.34-.45.23-.67.6-.67,1.13,0,.31.14.58.43.81.28.23.74.45,1.37.65.63.2,1.45.41,2.48.64,1.08.25,2.05.58,2.91.97.85.4,1.53.93,2.03,1.61.5.67.75,1.54.75,2.62,0,1-.2,1.85-.61,2.55-.4.7-.95,1.26-1.62,1.68-.68.43-1.45.74-2.32.93-.87.19-1.78.29-2.71.29Z"/>
  </g>
  <g>
    <path d="M43.49,212.83l-4.87-16.43h3.55l3.12,12.35,3.28-12.35h3.44l3.31,12.35,3.12-12.35h3.5l-4.91,16.43h-3.56l-3.22-12.27-3.19,12.27h-3.59Z"/>
    <path d="M68.39,213.05c-1.33,0-2.44-.25-3.35-.74-.9-.49-1.59-1.2-2.05-2.13-.46-.93-.7-2.04-.7-3.35s.23-2.35.68-3.26c.45-.91,1.11-1.61,1.99-2.11.88-.49,1.95-.74,3.23-.74,1.77,0,3.17.52,4.21,1.56,1.03,1.04,1.54,2.52,1.54,4.44,0,.1,0,.23-.01.4,0,.17-.02.29-.04.38h-8.36c.02.56.12,1.09.31,1.57s.5.88.91,1.18c.42.3.96.45,1.64.45s1.26-.15,1.68-.46c.42-.3.64-.76.65-1.36h3.19c-.04.93-.3,1.7-.76,2.32-.47.62-1.11,1.08-1.92,1.38-.81.31-1.76.46-2.84.46ZM65.57,205.46h5.16c-.03-.83-.27-1.45-.74-1.86-.47-.41-1.07-.62-1.8-.62s-1.36.21-1.84.63c-.48.42-.74,1.04-.79,1.84Z"/>
    <path d="M83.96,212.83l-3.75-11.91h3.28l2.29,8.41,2.29-8.41h3.39l2.34,8.4,2.26-8.4h3.06l-3.75,11.91h-3.31l-2.4-8.57-2.43,8.57h-3.29Z"/>
    <path d="M106.16,213.05c-1.33,0-2.44-.25-3.35-.74-.9-.49-1.59-1.2-2.05-2.13-.46-.93-.7-2.04-.7-3.35s.23-2.35.68-3.26c.45-.91,1.11-1.61,1.99-2.11.88-.49,1.95-.74,3.23-.74,1.77,0,3.17.52,4.21,1.56,1.03,1.04,1.54,2.52,1.54,4.44,0,.1,0,.23-.01.4,0,.17-.02.29-.04.38h-8.36c.02.56.12,1.09.31,1.57s.5.88.91,1.18c.42.3.96.45,1.64.45s1.26-.15,1.68-.46c.42-.3.64-.76.65-1.36h3.19c-.04.93-.3,1.7-.76,2.32-.47.62-1.11,1.08-1.92,1.38-.81.31-1.76.46-2.84.46ZM103.34,205.46h5.16c-.03-.83-.27-1.45-.74-1.86-.47-.41-1.07-.62-1.8-.62s-1.36.21-1.84.63c-.48.42-.74,1.04-.79,1.84Z"/>
    <path d="M119.05,212.83c-1.21,0-2.15-.14-2.81-.43s-1.12-.74-1.38-1.34c-.26-.61-.39-1.4-.39-2.37v-12.28h3.22v12.08c0,.63.09,1.09.26,1.38s.57.44,1.2.44h.74v2.53h-.84Z"/>
    <path d="M127.33,213c-1.11,0-2.11-.21-3.02-.63-.9-.42-1.62-1.08-2.15-1.98-.53-.89-.79-2.05-.79-3.47s.25-2.58.76-3.49,1.21-1.59,2.11-2.03,1.93-.67,3.09-.67c1.01,0,1.92.17,2.73.5.81.33,1.46.83,1.94,1.5.48.66.72,1.5.73,2.51h-3.14c-.02-.61-.22-1.1-.61-1.46s-.94-.54-1.65-.54c-.94,0-1.61.32-2.03.96-.42.64-.63,1.55-.63,2.72,0,.76.09,1.4.27,1.93.18.53.47.94.87,1.22.39.28.9.42,1.52.42.72,0,1.3-.2,1.72-.59.42-.39.64-.95.65-1.68h3.14c-.02,1.03-.27,1.9-.75,2.61-.48.71-1.12,1.25-1.95,1.61-.82.37-1.76.55-2.82.55Z"/>
    <path d="M141.11,213.03c-1.2,0-2.26-.24-3.17-.72-.91-.48-1.61-1.18-2.11-2.09-.5-.91-.74-2.01-.74-3.31s.25-2.44.74-3.36c.5-.92,1.2-1.63,2.11-2.11.91-.48,1.96-.73,3.17-.73s2.29.24,3.19.73c.91.48,1.61,1.19,2.12,2.11s.76,2.04.76,3.36-.25,2.4-.76,3.31-1.21,1.61-2.12,2.09c-.91.48-1.97.72-3.19.72ZM141.11,210.56c.71,0,1.26-.17,1.67-.49.4-.33.69-.77.85-1.33.17-.55.25-1.16.25-1.83s-.08-1.31-.25-1.87c-.17-.56-.45-1.01-.85-1.34-.4-.33-.96-.5-1.67-.5s-1.23.17-1.63.5c-.4.33-.67.78-.84,1.34-.16.56-.24,1.18-.24,1.87s.08,1.28.24,1.83c.16.55.44,1,.84,1.33.39.33.94.49,1.63.49Z"/>
    <path d="M150.03,212.83v-11.91h3.11l.06,1.78c.39-.51.93-.97,1.62-1.36.69-.39,1.54-.59,2.55-.59,1.2,0,2.11.38,2.75,1.13s.96,1.82.96,3.2v7.75h-3.24v-7.34c0-.43-.06-.81-.18-1.14-.12-.33-.31-.58-.57-.76-.26-.18-.61-.27-1.03-.27-.63,0-1.16.15-1.61.45s-.84.67-1.18,1.1v7.95h-3.24ZM165.67,212.83v-7.34c0-.43-.06-.81-.18-1.14s-.31-.58-.57-.76c-.26-.18-.61-.27-1.03-.27-.63,0-1.17.14-1.62.42-.45.28-.86.62-1.21,1.04l-.39-2c.51-.54,1.14-1.02,1.89-1.43.74-.41,1.62-.61,2.63-.61,1.19,0,2.11.38,2.75,1.13.65.75.97,1.82.97,3.2v7.75h-3.23Z"/>
    <path d="M177.75,213.05c-1.33,0-2.44-.25-3.35-.74-.9-.49-1.59-1.2-2.05-2.13-.46-.93-.7-2.04-.7-3.35s.23-2.35.68-3.26c.45-.91,1.11-1.61,1.99-2.11.88-.49,1.95-.74,3.23-.74,1.77,0,3.17.52,4.21,1.56,1.03,1.04,1.54,2.52,1.54,4.44,0,.1,0,.23-.01.4,0,.17-.02.29-.04.38h-8.36c.02.56.12,1.09.31,1.57s.5.88.91,1.18c.42.3.96.45,1.64.45s1.26-.15,1.68-.46c.42-.3.64-.76.65-1.36h3.19c-.04.93-.3,1.7-.76,2.32-.47.62-1.11,1.08-1.92,1.38-.81.31-1.76.46-2.84.46ZM174.93,205.46h5.16c-.03-.83-.27-1.45-.74-1.86-.47-.41-1.07-.62-1.8-.62s-1.36.21-1.84.63c-.48.42-.74,1.04-.79,1.84Z"/>
    <path d="M191.48,212.83v-16.43h5.62c1.77,0,3.18.34,4.21,1.01,1.03.67,1.55,1.7,1.55,3.09,0,.87-.22,1.61-.65,2.22-.44.61-1.02,1.04-1.74,1.31,1.14.23,2.01.69,2.61,1.39.6.7.9,1.56.9,2.59,0,1.1-.25,2-.75,2.72-.5.71-1.22,1.24-2.15,1.59-.93.35-2.05.52-3.35.52h-6.24ZM194.91,203.06h2.14c.66,0,1.21-.17,1.66-.51.45-.34.67-.84.67-1.5,0-.46-.1-.83-.3-1.1-.2-.27-.48-.47-.83-.59-.35-.12-.75-.18-1.2-.18h-2.14v3.88ZM194.91,209.99h2.69c.54,0,1.03-.07,1.46-.2.44-.13.79-.37,1.04-.71.26-.34.38-.79.38-1.36,0-.73-.27-1.25-.82-1.57-.54-.31-1.24-.47-2.08-.47h-2.69v4.31Z"/>
    <path d="M209.4,212.83l-4.87-16.43h3.55l3.12,12.35,3.28-12.35h3.44l3.31,12.35,3.12-12.35h3.5l-4.91,16.43h-3.56l-3.22-12.27-3.19,12.27h-3.59Z"/>
    <path d="M229.92,212.83v-16.43h3.43v16.43h-3.43Z"/>
    <path d="M249.67,213.05c-1.68,0-3.13-.35-4.33-1.04-1.2-.7-2.13-1.67-2.78-2.94-.65-1.26-.97-2.74-.97-4.44s.32-3.2.97-4.46c.65-1.26,1.57-2.25,2.78-2.94,1.2-.7,2.65-1.04,4.33-1.04.85,0,1.68.11,2.49.33.81.22,1.56.56,2.23,1.02s1.23,1.04,1.67,1.75.7,1.55.79,2.51h-3.5c-.07-.54-.25-1.01-.56-1.43-.31-.42-.73-.74-1.27-.98s-1.18-.35-1.93-.35c-1.07,0-1.94.26-2.6.78s-1.14,1.2-1.44,2.04c-.3.84-.45,1.77-.45,2.78s.15,1.92.46,2.77c.31.85.79,1.53,1.46,2.04s1.55.77,2.65.77c.81,0,1.51-.14,2.08-.42.57-.28,1.02-.67,1.34-1.17.32-.5.51-1.07.56-1.72h-3.89v-2.73h7.34v1.67c0,1.42-.29,2.68-.86,3.76-.57,1.08-1.41,1.93-2.51,2.54-1.1.61-2.45.92-4.05.92Z"/>
    <path d="M260.06,212.83v-11.91h3.11l.06,1.78c.39-.51.93-.97,1.62-1.36.69-.39,1.54-.59,2.55-.59,1.2,0,2.11.38,2.75,1.13s.96,1.82.96,3.2v7.75h-3.24v-7.34c0-.43-.06-.81-.18-1.14-.12-.33-.31-.58-.57-.76-.26-.18-.61-.27-1.03-.27-.63,0-1.16.15-1.61.45s-.84.67-1.18,1.1v7.95h-3.24ZM275.69,212.83v-7.34c0-.43-.06-.81-.18-1.14s-.31-.58-.57-.76c-.26-.18-.61-.27-1.03-.27-.63,0-1.17.14-1.62.42-.45.28-.86.62-1.21,1.04l-.39-2c.51-.54,1.14-1.02,1.89-1.43.74-.41,1.62-.61,2.63-.61,1.19,0,2.11.38,2.75,1.13.65.75.97,1.82.97,3.2v7.75h-3.23Z"/>
    <path d="M289.07,213.05c-.87,0-1.59-.17-2.15-.5-.56-.33-1.04-.79-1.44-1.38l-.13,1.66h-3.06v-16.43h3.24v6.23c.42-.58.94-1.04,1.55-1.39.61-.35,1.36-.52,2.26-.52s1.72.22,2.44.67c.72.44,1.28,1.12,1.7,2.03.42.91.62,2.07.62,3.47s-.22,2.56-.67,3.47c-.44.91-1.04,1.59-1.8,2.03-.76.44-1.61.67-2.55.67ZM288.27,210.58c.79,0,1.41-.31,1.85-.93.44-.62.67-1.52.67-2.7,0-1.28-.21-2.23-.63-2.85-.42-.62-1-.93-1.75-.93-.67,0-1.25.2-1.75.6-.5.4-.88.87-1.13,1.4v3.49c.24.51.59.96,1.06,1.34.47.38,1.03.57,1.69.57Z"/>
    <path d="M297.18,212.83v-16.43h3.43v6.42h7.45v-6.42h3.43v16.43h-3.43v-6.98h-7.45v6.98h-3.43Z"/>
    <path d="M325.34,212.83c-1.21,0-2.14-.14-2.8-.43-.66-.29-1.12-.74-1.39-1.34s-.39-1.4-.39-2.37v-5.27h-1.98v-2.49h1.98v-2.81h3.23v2.81h2.6v2.49h-2.6v5.08c0,.63.09,1.09.26,1.39.17.3.57.45,1.19.45h1.15v2.5h-1.26Z"/>
    <path d="M334.42,213.03c-1.2,0-2.26-.24-3.17-.72-.91-.48-1.61-1.18-2.11-2.09-.5-.91-.74-2.01-.74-3.31s.25-2.44.74-3.36c.5-.92,1.2-1.63,2.11-2.11.91-.48,1.96-.73,3.17-.73s2.29.24,3.19.73c.91.48,1.61,1.19,2.12,2.11s.76,2.04.76,3.36-.25,2.4-.76,3.31-1.21,1.61-2.12,2.09c-.91.48-1.97.72-3.19.72ZM334.42,210.56c.71,0,1.26-.17,1.67-.49.4-.33.69-.77.85-1.33.17-.55.25-1.16.25-1.83s-.08-1.31-.25-1.87c-.17-.56-.45-1.01-.85-1.34-.4-.33-.96-.5-1.67-.5s-1.23.17-1.63.5c-.4.33-.67.78-.84,1.34-.16.56-.24,1.18-.24,1.87s.08,1.28.24,1.83c.16.55.44,1,.84,1.33.39.33.94.49,1.63.49Z"/>
    <path d="M348.65,212.83v-16.43h3.36l7.56,11.07v-11.07h3.23v16.43h-3.37l-7.57-11.14v11.14h-3.21Z"/>
    <path d="M371.97,213.05c-1.33,0-2.44-.25-3.35-.74-.9-.49-1.59-1.2-2.05-2.13-.46-.93-.7-2.04-.7-3.35s.23-2.35.68-3.26c.45-.91,1.11-1.61,1.99-2.11.88-.49,1.95-.74,3.23-.74,1.77,0,3.17.52,4.21,1.56,1.03,1.04,1.54,2.52,1.54,4.44,0,.1,0,.23-.01.4,0,.17-.02.29-.04.38h-8.36c.02.56.12,1.09.31,1.57s.5.88.91,1.18c.42.3.96.45,1.64.45s1.26-.15,1.68-.46c.42-.3.64-.76.65-1.36h3.19c-.04.93-.3,1.7-.76,2.32-.47.62-1.11,1.08-1.92,1.38-.81.31-1.76.46-2.84.46ZM369.15,205.46h5.16c-.03-.83-.27-1.45-.74-1.86-.47-.41-1.07-.62-1.8-.62s-1.36.21-1.84.63c-.48.42-.74,1.04-.79,1.84Z"/>
    <path d="M385.8,213.03c-1.2,0-2.26-.24-3.17-.72-.91-.48-1.61-1.18-2.11-2.09-.5-.91-.74-2.01-.74-3.31s.25-2.44.74-3.36c.5-.92,1.2-1.63,2.11-2.11.91-.48,1.96-.73,3.17-.73s2.29.24,3.19.73c.91.48,1.61,1.19,2.12,2.11s.76,2.04.76,3.36-.25,2.4-.76,3.31-1.21,1.61-2.12,2.09c-.91.48-1.97.72-3.19.72ZM385.8,210.56c.71,0,1.26-.17,1.67-.49.4-.33.69-.77.85-1.33.17-.55.25-1.16.25-1.83s-.08-1.31-.25-1.87c-.17-.56-.45-1.01-.85-1.34-.4-.33-.96-.5-1.67-.5s-1.23.17-1.63.5c-.4.33-.67.78-.84,1.34-.16.56-.24,1.18-.24,1.87s.08,1.28.24,1.83c.16.55.44,1,.84,1.33.39.33.94.49,1.63.49Z"/>
    <path d="M394.96,212.83v-16.43h3.36l7.56,11.07v-11.07h3.23v16.43h-3.37l-7.57-11.14v11.14h-3.21Z"/>
    <path d="M418.27,213.05c-1.33,0-2.44-.25-3.35-.74-.9-.49-1.59-1.2-2.05-2.13-.46-.93-.7-2.04-.7-3.35s.23-2.35.68-3.26c.45-.91,1.11-1.61,1.99-2.11.88-.49,1.95-.74,3.23-.74,1.77,0,3.17.52,4.21,1.56,1.03,1.04,1.54,2.52,1.54,4.44,0,.1,0,.23-.01.4,0,.17-.02.29-.04.38h-8.36c.02.56.12,1.09.31,1.57s.5.88.91,1.18c.42.3.96.45,1.64.45s1.26-.15,1.68-.46c.42-.3.64-.76.65-1.36h3.19c-.04.93-.3,1.7-.76,2.32-.47.62-1.11,1.08-1.92,1.38-.81.31-1.76.46-2.84.46ZM415.45,205.46h5.16c-.03-.83-.27-1.45-.74-1.86-.47-.41-1.07-.62-1.8-.62s-1.36.21-1.84.63c-.48.42-.74,1.04-.79,1.84Z"/>
    <path d="M426.69,217.2v-16.29h3.05l.18,1.82c.44-.64.97-1.14,1.59-1.48.62-.35,1.35-.52,2.2-.52.93,0,1.75.22,2.47.67.72.45,1.29,1.13,1.7,2.04.41.91.62,2.08.62,3.5s-.22,2.51-.67,3.41c-.44.9-1.04,1.57-1.8,2.01-.76.45-1.61.67-2.55.68-.77,0-1.46-.15-2.07-.48-.61-.33-1.1-.78-1.48-1.37v5.99h-3.24ZM432.68,210.58c.81,0,1.44-.31,1.87-.94.43-.63.65-1.53.65-2.72,0-1.26-.2-2.2-.6-2.81-.4-.61-.95-.92-1.65-.92s-1.36.21-1.88.62c-.52.41-.9.86-1.12,1.35v3.52c.26.52.62.97,1.09,1.34.47.38,1.02.56,1.65.56Z"/>
    <path d="M441.36,212.83v-16.43h3.17v6.3c.4-.51.92-.97,1.58-1.36.65-.39,1.49-.59,2.51-.59,1.24,0,2.19.36,2.85,1.09s1,1.81,1,3.24v7.75h-3.23v-7.35c0-.42-.06-.8-.18-1.12s-.31-.58-.57-.76c-.26-.18-.61-.27-1.04-.27-.64,0-1.19.15-1.65.45-.46.3-.86.67-1.2,1.1v7.95h-3.24Z"/>
    <path d="M461.24,213.03c-1.2,0-2.26-.24-3.17-.72-.91-.48-1.61-1.18-2.11-2.09-.5-.91-.74-2.01-.74-3.31s.25-2.44.74-3.36c.5-.92,1.2-1.63,2.11-2.11.91-.48,1.96-.73,3.17-.73s2.29.24,3.19.73c.91.48,1.61,1.19,2.12,2.11s.76,2.04.76,3.36-.25,2.4-.76,3.31-1.21,1.61-2.12,2.09c-.91.48-1.97.72-3.19.72ZM461.24,210.56c.71,0,1.26-.17,1.67-.49.4-.33.69-.77.85-1.33.17-.55.25-1.16.25-1.83s-.08-1.31-.25-1.87c-.17-.56-.45-1.01-.85-1.34-.4-.33-.96-.5-1.67-.5s-1.23.17-1.63.5c-.4.33-.67.78-.84,1.34-.16.56-.24,1.18-.24,1.87s.08,1.28.24,1.83c.16.55.44,1,.84,1.33.39.33.94.49,1.63.49Z"/>
    <path d="M474.74,213.05c-.66,0-1.31-.06-1.94-.18-.63-.12-1.21-.33-1.72-.63s-.92-.7-1.22-1.21-.45-1.15-.45-1.92h3c0,.67.23,1.13.7,1.39.47.26,1.02.39,1.64.39s1.1-.1,1.44-.3.51-.54.51-1.01c0-.45-.2-.78-.6-1-.4-.22-1.11-.44-2.12-.67-.85-.2-1.6-.45-2.26-.74s-1.18-.68-1.56-1.16c-.38-.48-.56-1.12-.56-1.91,0-.62.14-1.14.43-1.57s.67-.78,1.14-1.04c.48-.26,1.01-.46,1.61-.58.6-.12,1.21-.18,1.84-.18s1.21.06,1.79.18c.59.12,1.11.33,1.59.62.47.29.85.68,1.14,1.17s.43,1.1.43,1.83h-3c0-.61-.19-1.03-.58-1.27-.39-.24-.84-.35-1.36-.35-.56,0-1,.08-1.32.24-.32.16-.48.43-.48.81,0,.22.1.41.3.58.2.17.53.32.98.46.45.14,1.04.29,1.77.46.77.18,1.46.41,2.08.7s1.09.67,1.45,1.15c.36.48.54,1.1.54,1.87,0,.72-.15,1.32-.43,1.82-.29.5-.68.9-1.16,1.2-.48.31-1.04.53-1.66.67-.62.14-1.27.21-1.93.21Z"/>
    <path d="M43.56,243.05c-.68,0-1.31-.13-1.87-.39-.57-.26-1.02-.64-1.35-1.15-.34-.51-.51-1.14-.51-1.89,0-1.06.33-1.88,1-2.43.67-.55,1.61-.93,2.83-1.13s2.65-.31,4.29-.32v-.83c0-1.02-.25-1.71-.76-2.09-.5-.38-1.14-.57-1.92-.57-.82,0-1.51.21-2.08.62-.56.42-.84,1.07-.84,1.96h-1.98c0-.98.21-1.77.63-2.37s1-1.04,1.73-1.32,1.58-.42,2.53-.42c.61,0,1.19.06,1.75.17.56.11,1.06.32,1.5.62s.8.72,1.06,1.26c.26.54.39,1.24.39,2.09v7.95h-1.9l-.08-1.81c-.54.61-1.18,1.1-1.9,1.47-.72.37-1.56.56-2.52.56ZM44.1,241.49c.81,0,1.55-.19,2.2-.57s1.2-.87,1.64-1.45v-2.42c-2.17.02-3.72.23-4.66.61-.94.38-1.41,1.01-1.41,1.88,0,.59.19,1.07.57,1.42.38.35.93.53,1.67.53Z"/>
    <path d="M53.78,242.83v-11.89h1.95l.07,1.83c.37-.48.89-.93,1.57-1.36.68-.43,1.56-.64,2.62-.64,1.3,0,2.25.38,2.84,1.15s.89,1.85.89,3.24v7.67h-2.04v-7.37c0-.58-.06-1.09-.18-1.54-.12-.45-.34-.8-.65-1.06-.31-.26-.77-.38-1.36-.38-.89,0-1.63.2-2.23.61-.6.4-1.09.84-1.45,1.32v8.42h-2.04Z"/>
    <path d="M71.63,243.05c-.97,0-1.81-.23-2.51-.7-.71-.46-1.26-1.16-1.64-2.08-.39-.92-.58-2.06-.58-3.42s.21-2.48.62-3.38c.41-.9.99-1.58,1.74-2.04.75-.46,1.63-.69,2.65-.69.85,0,1.58.19,2.21.56.63.37,1.13.87,1.51,1.51v-6.4h2.04v16.43h-1.93l-.11-1.73c-.42.58-.97,1.05-1.63,1.41-.67.36-1.45.54-2.36.54ZM72.04,241.38c.87,0,1.59-.21,2.17-.62s1.05-.91,1.4-1.48v-4.58c-.33-.67-.77-1.22-1.31-1.65-.54-.44-1.22-.65-2.04-.65-1.08,0-1.9.39-2.45,1.16-.55.77-.82,1.87-.82,3.3s.26,2.6.78,3.37c.52.77,1.28,1.16,2.28,1.16Z"/>
    <path d="M89.72,243.05c-.68,0-1.31-.13-1.87-.39-.57-.26-1.02-.64-1.35-1.15-.34-.51-.51-1.14-.51-1.89,0-1.06.33-1.88,1-2.43.67-.55,1.61-.93,2.83-1.13s2.65-.31,4.29-.32v-.83c0-1.02-.25-1.71-.76-2.09-.5-.38-1.14-.57-1.92-.57-.82,0-1.51.21-2.08.62-.56.42-.84,1.07-.84,1.96h-1.98c0-.98.21-1.77.63-2.37s1-1.04,1.73-1.32,1.58-.42,2.53-.42c.61,0,1.19.06,1.75.17.56.11,1.06.32,1.5.62s.8.72,1.06,1.26c.26.54.39,1.24.39,2.09v7.95h-1.9l-.08-1.81c-.54.61-1.18,1.1-1.9,1.47-.72.37-1.56.56-2.52.56ZM90.26,241.49c.81,0,1.55-.19,2.2-.57s1.2-.87,1.64-1.45v-2.42c-2.17.02-3.72.23-4.66.61-.94.38-1.41,1.01-1.41,1.88,0,.59.19,1.07.57,1.42.38.35.93.53,1.67.53Z"/>
    <path d="M99.94,242.83v-11.89h1.92l.07,2.03c.33-.62.8-1.13,1.39-1.55.59-.41,1.37-.62,2.32-.62h.24v1.87h-.28c-.59,0-1.11.08-1.56.23-.45.15-.84.37-1.17.64-.33.27-.63.59-.89.95v8.35h-2.04Z"/>
    <path d="M112.9,243.05c-1.29,0-2.35-.27-3.18-.81-.83-.54-1.44-1.28-1.84-2.21-.4-.93-.6-1.98-.6-3.14s.19-2.28.58-3.2c.39-.92.98-1.65,1.77-2.17.79-.52,1.8-.78,3.02-.78,1.62,0,2.89.49,3.81,1.46s1.38,2.38,1.38,4.21c0,.12,0,.27-.01.43,0,.17-.02.29-.04.36h-8.47c0,.77.13,1.48.37,2.13.24.65.62,1.16,1.14,1.55.52.39,1.21.59,2.06.59.91,0,1.62-.21,2.14-.64.51-.43.78-1.04.81-1.85h2.01c-.02.84-.24,1.56-.65,2.17-.41.61-.98,1.07-1.71,1.4-.73.33-1.6.49-2.6.49ZM109.34,235.72h6.49c-.02-1.11-.31-1.95-.87-2.54-.55-.59-1.32-.88-2.31-.88s-1.77.29-2.34.87c-.57.58-.89,1.43-.98,2.54Z"/>
    <path d="M131.15,243.05c-1.29,0-2.35-.27-3.18-.81-.83-.54-1.44-1.28-1.84-2.21-.4-.93-.6-1.98-.6-3.14s.19-2.28.58-3.2c.39-.92.98-1.65,1.77-2.17.79-.52,1.8-.78,3.02-.78,1.62,0,2.89.49,3.81,1.46s1.38,2.38,1.38,4.21c0,.12,0,.27-.01.43,0,.17-.02.29-.04.36h-8.47c0,.77.13,1.48.37,2.13.24.65.62,1.16,1.14,1.55.52.39,1.21.59,2.06.59.91,0,1.62-.21,2.14-.64.51-.43.78-1.04.81-1.85h2.01c-.02.84-.24,1.56-.65,2.17-.41.61-.98,1.07-1.71,1.4-.73.33-1.6.49-2.6.49ZM127.59,235.72h6.49c-.02-1.11-.31-1.95-.87-2.54-.55-.59-1.32-.88-2.31-.88s-1.77.29-2.34.87c-.57.58-.89,1.43-.98,2.54Z"/>
    <path d="M137.14,242.83l4.37-6.46.87-.67,3.03-4.76h2.18l-4.08,5.98-.78.65-3.43,5.26h-2.16ZM145.81,242.83l-3.44-5.26-.8-.63-4.03-5.99h2.19l3.02,4.76.82.6,4.43,6.53h-2.17Z"/>
    <path d="M154.49,243.04c-1.07,0-2.03-.22-2.86-.68-.83-.45-1.48-1.13-1.95-2.04-.47-.91-.7-2.04-.7-3.41s.23-2.51.69-3.42,1.1-1.6,1.93-2.06c.83-.46,1.79-.69,2.89-.69.92,0,1.75.15,2.48.45s1.32.75,1.76,1.36c.44.61.67,1.37.7,2.3h-2.01c-.05-.77-.33-1.37-.83-1.81-.5-.44-1.19-.66-2.06-.66-1.16,0-2.02.4-2.59,1.19-.57.79-.85,1.91-.85,3.34,0,.95.13,1.76.38,2.42.25.66.63,1.17,1.15,1.53.51.35,1.15.53,1.92.53.87,0,1.58-.23,2.12-.68s.83-1.11.85-1.98h2.01c-.02.96-.26,1.76-.7,2.4-.44.64-1.04,1.12-1.79,1.44-.75.32-1.6.47-2.53.47Z"/>
    <path d="M163.79,228.71c-.38,0-.69-.11-.92-.34-.23-.22-.35-.51-.35-.85s.12-.62.35-.85c.23-.22.54-.34.92-.34s.69.11.93.34c.24.22.35.51.35.85s-.12.62-.35.85c-.24.22-.54.34-.93.34ZM162.78,242.83v-11.89h2.04v11.89h-2.04Z"/>
    <path d="M172.65,242.83c-.96,0-1.7-.15-2.21-.46-.51-.3-.86-.74-1.06-1.32s-.29-1.26-.29-2.07v-6.4h-1.99v-1.65h1.99v-2.72h2.03v2.72h2.93v1.65h-2.93v6.3c0,.74.1,1.31.29,1.7.19.4.65.59,1.37.59h1.29v1.65h-1.43Z"/>
    <path d="M181.59,243.05c-1.29,0-2.35-.27-3.18-.81-.83-.54-1.44-1.28-1.84-2.21-.4-.93-.6-1.98-.6-3.14s.19-2.28.58-3.2c.39-.92.98-1.65,1.77-2.17.79-.52,1.8-.78,3.02-.78,1.62,0,2.89.49,3.81,1.46s1.38,2.38,1.38,4.21c0,.12,0,.27-.01.43,0,.17-.02.29-.04.36h-8.47c0,.77.13,1.48.37,2.13.24.65.62,1.16,1.14,1.55.52.39,1.21.59,2.06.59.91,0,1.62-.21,2.14-.64.51-.43.78-1.04.81-1.85h2.01c-.02.84-.24,1.56-.65,2.17-.41.61-.98,1.07-1.71,1.4-.73.33-1.6.49-2.6.49ZM178.03,235.72h6.49c-.02-1.11-.31-1.95-.87-2.54-.55-.59-1.32-.88-2.31-.88s-1.77.29-2.34.87c-.57.58-.89,1.43-.98,2.54Z"/>
    <path d="M193.88,243.05c-.97,0-1.81-.23-2.51-.7-.71-.46-1.26-1.16-1.64-2.08-.39-.92-.58-2.06-.58-3.42s.21-2.48.62-3.38c.41-.9.99-1.58,1.74-2.04.75-.46,1.63-.69,2.65-.69.85,0,1.58.19,2.21.56.63.37,1.13.87,1.51,1.51v-6.4h2.04v16.43h-1.93l-.11-1.73c-.42.58-.97,1.05-1.63,1.41-.67.36-1.45.54-2.36.54ZM194.3,241.38c.87,0,1.59-.21,2.17-.62s1.05-.91,1.4-1.48v-4.58c-.33-.67-.77-1.22-1.31-1.65-.54-.44-1.22-.65-2.04-.65-1.08,0-1.9.39-2.45,1.16-.55.77-.82,1.87-.82,3.3s.26,2.6.78,3.37c.52.77,1.28,1.16,2.28,1.16Z"/>
    <path d="M212.88,242.83c-.96,0-1.7-.15-2.21-.46-.51-.3-.86-.74-1.06-1.32s-.29-1.26-.29-2.07v-6.4h-1.99v-1.65h1.99v-2.72h2.03v2.72h2.93v1.65h-2.93v6.3c0,.74.1,1.31.29,1.7.19.4.65.59,1.37.59h1.29v1.65h-1.43Z"/>
    <path d="M221.74,243.03c-1.16,0-2.16-.25-2.99-.74s-1.46-1.2-1.9-2.11c-.44-.92-.65-2-.65-3.27s.22-2.4.65-3.33c.43-.92,1.07-1.63,1.9-2.13s1.83-.74,2.99-.74,2.2.25,3.05.74c.84.5,1.49,1.21,1.94,2.13.45.92.68,2.03.68,3.33s-.23,2.35-.68,3.27c-.45.92-1.1,1.62-1.94,2.11-.84.49-1.86.74-3.05.74ZM221.74,241.41c.88,0,1.58-.19,2.1-.58s.9-.92,1.12-1.6c.23-.68.34-1.45.34-2.31s-.11-1.66-.34-2.36-.6-1.23-1.12-1.63c-.52-.39-1.22-.59-2.1-.59s-1.53.2-2.03.59c-.5.4-.86.94-1.08,1.63-.22.69-.33,1.48-.33,2.36s.11,1.63.33,2.31c.22.68.58,1.21,1.08,1.6.5.39,1.18.58,2.03.58Z"/>
    <path d="M238.8,243.05c-.68,0-1.31-.13-1.87-.39-.57-.26-1.02-.64-1.35-1.15-.34-.51-.51-1.14-.51-1.89,0-1.06.33-1.88,1-2.43.67-.55,1.61-.93,2.83-1.13s2.65-.31,4.29-.32v-.83c0-1.02-.25-1.71-.76-2.09-.5-.38-1.14-.57-1.92-.57-.82,0-1.51.21-2.08.62-.56.42-.84,1.07-.84,1.96h-1.98c0-.98.21-1.77.63-2.37s1-1.04,1.73-1.32,1.58-.42,2.53-.42c.61,0,1.19.06,1.75.17.56.11,1.06.32,1.5.62s.8.72,1.06,1.26c.26.54.39,1.24.39,2.09v7.95h-1.9l-.08-1.81c-.54.61-1.18,1.1-1.9,1.47-.72.37-1.56.56-2.52.56ZM239.34,241.49c.81,0,1.55-.19,2.2-.57s1.2-.87,1.64-1.45v-2.42c-2.17.02-3.72.23-4.66.61-.94.38-1.41,1.01-1.41,1.88,0,.59.19,1.07.57,1.42.38.35.93.53,1.67.53Z"/>
    <path d="M249.02,242.83v-11.89h1.95l.07,1.83c.37-.48.89-.93,1.57-1.36.68-.43,1.56-.64,2.62-.64,1.3,0,2.25.38,2.84,1.15s.89,1.85.89,3.24v7.67h-2.04v-7.37c0-.58-.06-1.09-.18-1.54-.12-.45-.34-.8-.65-1.06-.31-.26-.77-.38-1.36-.38-.89,0-1.63.2-2.23.61-.6.4-1.09.84-1.45,1.32v8.42h-2.04Z"/>
    <path d="M262.8,242.83v-11.89h1.95l.07,1.83c.37-.48.89-.93,1.57-1.36.68-.43,1.56-.64,2.62-.64,1.3,0,2.25.38,2.84,1.15s.89,1.85.89,3.24v7.67h-2.04v-7.37c0-.58-.06-1.09-.18-1.54-.12-.45-.34-.8-.65-1.06-.31-.26-.77-.38-1.36-.38-.89,0-1.63.2-2.23.61-.6.4-1.09.84-1.45,1.32v8.42h-2.04Z"/>
    <path d="M281.46,243.03c-1.16,0-2.16-.25-2.99-.74s-1.46-1.2-1.9-2.11c-.44-.92-.65-2-.65-3.27s.22-2.4.65-3.33c.43-.92,1.07-1.63,1.9-2.13s1.83-.74,2.99-.74,2.2.25,3.05.74c.84.5,1.49,1.21,1.94,2.13.45.92.68,2.03.68,3.33s-.23,2.35-.68,3.27c-.45.92-1.1,1.62-1.94,2.11-.84.49-1.86.74-3.05.74ZM281.46,241.41c.88,0,1.58-.19,2.1-.58s.9-.92,1.12-1.6c.23-.68.34-1.45.34-2.31s-.11-1.66-.34-2.36-.6-1.23-1.12-1.63c-.52-.39-1.22-.59-2.1-.59s-1.53.2-2.03.59c-.5.4-.86.94-1.08,1.63-.22.69-.33,1.48-.33,2.36s.11,1.63.33,2.31c.22.68.58,1.21,1.08,1.6.5.39,1.18.58,2.03.58Z"/>
    <path d="M294,243.02c-1.38,0-2.37-.38-2.98-1.15-.61-.76-.92-1.82-.92-3.16v-7.76h2.05v7.48c0,.54.06,1.02.18,1.44.12.42.35.75.7.99s.83.35,1.48.35c.9,0,1.64-.19,2.25-.55.6-.37,1.09-.8,1.45-1.29v-8.42h2.05v11.89h-1.97l-.06-1.83c-.38.47-.92.93-1.62,1.36-.7.44-1.57.65-2.62.65Z"/>
    <path d="M304.2,242.83v-11.89h1.95l.07,1.83c.37-.48.89-.93,1.57-1.36.68-.43,1.56-.64,2.62-.64,1.3,0,2.25.38,2.84,1.15s.89,1.85.89,3.24v7.67h-2.04v-7.37c0-.58-.06-1.09-.18-1.54-.12-.45-.34-.8-.65-1.06-.31-.26-.77-.38-1.36-.38-.89,0-1.63.2-2.23.61-.6.4-1.09.84-1.45,1.32v8.42h-2.04Z"/>
    <path d="M322.81,243.04c-1.07,0-2.03-.22-2.86-.68-.83-.45-1.48-1.13-1.95-2.04-.47-.91-.7-2.04-.7-3.41s.23-2.51.69-3.42,1.1-1.6,1.93-2.06c.83-.46,1.79-.69,2.89-.69.92,0,1.75.15,2.48.45s1.32.75,1.76,1.36c.44.61.67,1.37.7,2.3h-2.01c-.05-.77-.33-1.37-.83-1.81-.5-.44-1.19-.66-2.06-.66-1.16,0-2.02.4-2.59,1.19-.57.79-.85,1.91-.85,3.34,0,.95.13,1.76.38,2.42.25.66.63,1.17,1.15,1.53.51.35,1.15.53,1.92.53.87,0,1.58-.23,2.12-.68s.83-1.11.85-1.98h2.01c-.02.96-.26,1.76-.7,2.4-.44.64-1.04,1.12-1.79,1.44-.75.32-1.6.47-2.53.47Z"/>
    <path d="M336.05,243.05c-1.29,0-2.35-.27-3.18-.81-.83-.54-1.44-1.28-1.84-2.21-.4-.93-.6-1.98-.6-3.14s.19-2.28.58-3.2c.39-.92.98-1.65,1.77-2.17.79-.52,1.8-.78,3.02-.78,1.62,0,2.89.49,3.81,1.46s1.38,2.38,1.38,4.21c0,.12,0,.27-.01.43,0,.17-.02.29-.04.36h-8.47c0,.77.13,1.48.37,2.13.24.65.62,1.16,1.14,1.55.52.39,1.21.59,2.06.59.91,0,1.62-.21,2.14-.64.51-.43.78-1.04.81-1.85h2.01c-.02.84-.24,1.56-.65,2.17-.41.61-.98,1.07-1.71,1.4-.73.33-1.6.49-2.6.49ZM332.48,235.72h6.49c-.02-1.11-.31-1.95-.87-2.54-.55-.59-1.32-.88-2.31-.88s-1.77.29-2.34.87c-.57.58-.89,1.43-.98,2.54Z"/>
    <path d="M353.32,242.83c-.96,0-1.7-.15-2.21-.46-.51-.3-.86-.74-1.06-1.32s-.29-1.26-.29-2.07v-6.4h-1.99v-1.65h1.99v-2.72h2.03v2.72h2.93v1.65h-2.93v6.3c0,.74.1,1.31.29,1.7.19.4.65.59,1.37.59h1.29v1.65h-1.43Z"/>
    <path d="M357.43,242.83v-16.43h2.03v6.37c.37-.48.89-.93,1.57-1.36.68-.43,1.55-.64,2.61-.64,1.33,0,2.29.38,2.88,1.15.58.76.87,1.85.87,3.25v7.67h-2.04v-7.38c0-.57-.06-1.08-.18-1.53-.12-.45-.34-.8-.65-1.06s-.77-.38-1.37-.38c-.89,0-1.63.2-2.23.61-.6.4-1.09.84-1.45,1.32v8.42h-2.04Z"/>
    <path d="M376.16,243.05c-1.29,0-2.35-.27-3.18-.81-.83-.54-1.44-1.28-1.84-2.21-.4-.93-.6-1.98-.6-3.14s.19-2.28.58-3.2c.39-.92.98-1.65,1.77-2.17.79-.52,1.8-.78,3.02-.78,1.62,0,2.89.49,3.81,1.46s1.38,2.38,1.38,4.21c0,.12,0,.27-.01.43,0,.17-.02.29-.04.36h-8.47c0,.77.13,1.48.37,2.13.24.65.62,1.16,1.14,1.55.52.39,1.21.59,2.06.59.91,0,1.62-.21,2.14-.64.51-.43.78-1.04.81-1.85h2.01c-.02.84-.24,1.56-.65,2.17-.41.61-.98,1.07-1.71,1.4-.73.33-1.6.49-2.6.49ZM372.59,235.72h6.49c-.02-1.11-.31-1.95-.87-2.54-.55-.59-1.32-.88-2.31-.88s-1.77.29-2.34.87c-.57.58-.89,1.43-.98,2.54Z"/>
    <path d="M384.38,242.83v-11.89h1.95l.07,1.83c.35-.48.86-.93,1.54-1.36.68-.43,1.52-.64,2.53-.64,1.32,0,2.27.39,2.84,1.16.58.77.87,1.85.87,3.23v7.67h-2.05v-7.37c0-.58-.06-1.09-.18-1.54-.12-.45-.34-.8-.65-1.06s-.77-.38-1.37-.38c-.84,0-1.55.2-2.12.61-.58.4-1.04.84-1.39,1.32v8.42h-2.04ZM399.86,242.83v-7.37c0-.58-.06-1.09-.18-1.54s-.33-.8-.65-1.06c-.32-.26-.77-.38-1.35-.38-.85,0-1.56.2-2.14.59-.58.4-1.05.83-1.43,1.31l-.31-1.49c.47-.52,1.07-1.01,1.79-1.45.72-.45,1.58-.67,2.59-.67,1.32,0,2.27.39,2.84,1.16.58.77.87,1.85.87,3.23v7.67h-2.04Z"/>
    <path d="M413.85,243.05c-.68,0-1.31-.13-1.87-.39-.57-.26-1.02-.64-1.35-1.15-.34-.51-.51-1.14-.51-1.89,0-1.06.33-1.88,1-2.43.67-.55,1.61-.93,2.83-1.13s2.65-.31,4.29-.32v-.83c0-1.02-.25-1.71-.76-2.09-.5-.38-1.14-.57-1.92-.57-.82,0-1.51.21-2.08.62-.56.42-.84,1.07-.84,1.96h-1.98c0-.98.21-1.77.63-2.37s1-1.04,1.73-1.32,1.58-.42,2.53-.42c.61,0,1.19.06,1.75.17.56.11,1.06.32,1.5.62s.8.72,1.06,1.26c.26.54.39,1.24.39,2.09v7.95h-1.9l-.08-1.81c-.54.61-1.18,1.1-1.9,1.47-.72.37-1.56.56-2.52.56ZM414.39,241.49c.81,0,1.55-.19,2.2-.57s1.2-.87,1.64-1.45v-2.42c-2.17.02-3.72.23-4.66.61-.94.38-1.41,1.01-1.41,1.88,0,.59.19,1.07.57,1.42.38.35.93.53,1.67.53Z"/>
    <path d="M428.28,243.05c-.67,0-1.3-.07-1.9-.22-.6-.15-1.12-.38-1.58-.7-.46-.32-.81-.73-1.07-1.25-.26-.52-.38-1.14-.38-1.87h1.97c0,.93.29,1.58.86,1.96.57.38,1.29.57,2.15.57.77,0,1.41-.15,1.91-.45.5-.3.75-.79.75-1.47,0-.59-.23-1.02-.68-1.3-.45-.29-1.25-.56-2.39-.83-.93-.22-1.71-.47-2.34-.76s-1.11-.65-1.43-1.1-.48-1-.48-1.68c0-.53.11-.99.34-1.4.22-.4.54-.74.94-1.01.4-.27.88-.47,1.42-.6.54-.13,1.14-.2,1.77-.2s1.21.07,1.76.22c.55.15,1.03.38,1.45.68s.75.71,1,1.2.37,1.07.37,1.76h-1.98c0-.85-.25-1.44-.76-1.79s-1.12-.53-1.84-.53-1.33.13-1.78.39c-.46.26-.68.67-.68,1.22,0,.32.1.59.31.8.2.22.54.42,1.03.59.48.17,1.13.36,1.94.55.89.21,1.63.46,2.23.76s1.06.67,1.36,1.13c.3.46.46,1.05.46,1.76,0,.62-.12,1.15-.36,1.61-.24.45-.57.82-1,1.11-.43.29-.93.5-1.5.64-.57.14-1.19.21-1.86.21Z"/>
    <path d="M444.36,243.05c-.68,0-1.31-.13-1.87-.39-.57-.26-1.02-.64-1.35-1.15-.34-.51-.51-1.14-.51-1.89,0-1.06.33-1.88,1-2.43.67-.55,1.61-.93,2.83-1.13s2.65-.31,4.29-.32v-.83c0-1.02-.25-1.71-.76-2.09-.5-.38-1.14-.57-1.92-.57-.82,0-1.51.21-2.08.62-.56.42-.84,1.07-.84,1.96h-1.98c0-.98.21-1.77.63-2.37s1-1.04,1.73-1.32,1.58-.42,2.53-.42c.61,0,1.19.06,1.75.17.56.11,1.06.32,1.5.62s.8.72,1.06,1.26c.26.54.39,1.24.39,2.09v7.95h-1.9l-.08-1.81c-.54.61-1.18,1.1-1.9,1.47-.72.37-1.56.56-2.52.56ZM444.9,241.49c.81,0,1.55-.19,2.2-.57s1.2-.87,1.64-1.45v-2.42c-2.17.02-3.72.23-4.66.61-.94.38-1.41,1.01-1.41,1.88,0,.59.19,1.07.57,1.42.38.35.93.53,1.67.53Z"/>
    <path d="M459.65,242.83v-16.43h6.45c1.08,0,2.07.19,2.96.57.89.38,1.6.96,2.13,1.75s.79,1.78.79,2.99-.26,2.19-.79,2.97-1.24,1.36-2.13,1.74c-.89.38-1.88.57-2.96.57h-3.01v5.85h-3.43ZM463.08,234.23h2.7c.8,0,1.44-.21,1.93-.63.49-.42.74-1.05.74-1.88s-.25-1.5-.76-1.92c-.5-.41-1.14-.62-1.92-.62h-2.7v5.05Z"/>
    <path d="M474.31,242.83v-11.91h3.1l.06,2.06c.31-.71.77-1.26,1.39-1.65.62-.38,1.37-.57,2.25-.57h.24v2.72h-.31c-.48,0-.94.04-1.38.13-.44.09-.84.23-1.2.44-.36.21-.67.49-.93.86v7.92h-3.24Z"/>
    <path d="M488.74,243.05c-1.33,0-2.44-.25-3.35-.74-.9-.49-1.59-1.2-2.05-2.13-.46-.93-.7-2.04-.7-3.35s.23-2.35.68-3.26c.45-.91,1.11-1.61,1.99-2.11s1.95-.74,3.23-.74c1.77,0,3.17.52,4.21,1.56,1.03,1.04,1.54,2.52,1.54,4.44,0,.1,0,.23-.01.4,0,.17-.02.29-.04.38h-8.36c.02.56.12,1.09.31,1.57s.5.88.91,1.18c.42.3.96.45,1.64.45s1.26-.15,1.68-.46c.42-.3.64-.76.65-1.36h3.19c-.04.93-.3,1.7-.76,2.32s-1.11,1.08-1.92,1.38c-.81.31-1.76.46-2.84.46ZM485.92,235.46h5.16c-.03-.83-.27-1.45-.74-1.86-.47-.41-1.07-.62-1.8-.62s-1.36.21-1.84.63c-.48.42-.74,1.04-.79,1.84Z"/>
    <path d="M497.17,242.83v-11.91h3.11l.06,1.78c.39-.51.93-.97,1.62-1.36s1.54-.59,2.55-.59c1.2,0,2.11.38,2.75,1.13s.96,1.82.96,3.2v7.75h-3.24v-7.34c0-.43-.06-.81-.18-1.13-.12-.33-.31-.58-.57-.76-.26-.18-.61-.27-1.03-.27-.63,0-1.16.15-1.61.45s-.84.67-1.18,1.1v7.95h-3.24ZM512.8,242.83v-7.34c0-.43-.06-.81-.18-1.13-.12-.33-.31-.58-.57-.76-.26-.18-.61-.27-1.03-.27-.63,0-1.17.14-1.62.41-.45.28-.86.62-1.21,1.04l-.39-2c.51-.54,1.14-1.02,1.89-1.43.74-.41,1.62-.61,2.63-.61,1.19,0,2.11.38,2.75,1.13.65.75.97,1.82.97,3.2v7.75h-3.23Z"/>
    <path d="M521.02,229.36c-.59,0-1.05-.15-1.36-.45-.31-.3-.47-.68-.47-1.12s.16-.83.47-1.13c.31-.3.77-.45,1.36-.45s1.05.15,1.36.45.47.67.47,1.13-.16.82-.47,1.12-.77.45-1.36.45ZM519.39,242.83v-11.91h3.24v11.91h-3.24Z"/>
    <path d="M529.77,242.99c-1.21,0-2.14-.37-2.8-1.12-.66-.75-.99-1.8-.99-3.18v-7.78h3.24v7.38c0,.41.06.77.18,1.08.12.31.31.55.59.72.27.17.63.26,1.08.26.65,0,1.21-.14,1.67-.43.46-.29.86-.64,1.2-1.06v-7.96h3.23v11.91h-3.12l-.05-1.79c-.4.51-.94.96-1.63,1.36-.69.4-1.55.6-2.59.6Z"/>
    <path d="M540.64,242.83v-11.91h3.11l.06,1.78c.39-.51.93-.97,1.62-1.36s1.54-.59,2.55-.59c1.2,0,2.11.38,2.75,1.13s.96,1.82.96,3.2v7.75h-3.24v-7.34c0-.43-.06-.81-.18-1.13-.12-.33-.31-.58-.57-.76-.26-.18-.61-.27-1.03-.27-.63,0-1.16.15-1.61.45s-.84.67-1.18,1.1v7.95h-3.24ZM556.27,242.83v-7.34c0-.43-.06-.81-.18-1.13-.12-.33-.31-.58-.57-.76-.26-.18-.61-.27-1.03-.27-.63,0-1.17.14-1.62.41-.45.28-.86.62-1.21,1.04l-.39-2c.51-.54,1.14-1.02,1.89-1.43.74-.41,1.62-.61,2.63-.61,1.19,0,2.11.38,2.75,1.13.65.75.97,1.82.97,3.2v7.75h-3.23Z"/>
    <path d="M568.17,242.83v-16.43h3.94l5.15,8.76h-1.37l5.08-8.76h3.8v16.43h-3.38v-14.6h1.5l-5.37,9.35h-2.11l-5.5-9.35h1.55v14.6h-3.28Z"/>
    <path d="M593.94,243.05c-1.33,0-2.44-.25-3.35-.74-.9-.49-1.59-1.2-2.05-2.13-.46-.93-.7-2.04-.7-3.35s.23-2.35.68-3.26c.45-.91,1.11-1.61,1.99-2.11s1.95-.74,3.23-.74c1.77,0,3.17.52,4.21,1.56,1.03,1.04,1.54,2.52,1.54,4.44,0,.1,0,.23-.01.4,0,.17-.02.29-.04.38h-8.36c.02.56.12,1.09.31,1.57s.5.88.91,1.18c.42.3.96.45,1.64.45s1.26-.15,1.68-.46c.42-.3.64-.76.65-1.36h3.19c-.04.93-.3,1.7-.76,2.32s-1.11,1.08-1.92,1.38c-.81.31-1.76.46-2.84.46ZM591.12,235.46h5.16c-.03-.83-.27-1.45-.74-1.86-.47-.41-1.07-.62-1.8-.62s-1.36.21-1.84.63c-.48.42-.74,1.04-.79,1.84Z"/>
    <path d="M602.37,242.83v-11.91h3.11l.06,1.78c.39-.51.93-.97,1.62-1.36s1.54-.59,2.55-.59c1.2,0,2.11.38,2.75,1.13s.96,1.82.96,3.2v7.75h-3.24v-7.34c0-.43-.06-.81-.18-1.13-.12-.33-.31-.58-.57-.76-.26-.18-.61-.27-1.03-.27-.63,0-1.16.15-1.61.45s-.84.67-1.18,1.1v7.95h-3.24ZM618,242.83v-7.34c0-.43-.06-.81-.18-1.13-.12-.33-.31-.58-.57-.76-.26-.18-.61-.27-1.03-.27-.63,0-1.17.14-1.62.41-.45.28-.86.62-1.21,1.04l-.39-2c.51-.54,1.14-1.02,1.89-1.43.74-.41,1.62-.61,2.63-.61,1.19,0,2.11.38,2.75,1.13.65.75.97,1.82.97,3.2v7.75h-3.23Z"/>
    <path d="M631.38,243.05c-.87,0-1.59-.17-2.15-.5-.56-.33-1.04-.79-1.44-1.38l-.13,1.66h-3.06v-16.43h3.24v6.22c.42-.58.94-1.04,1.55-1.38s1.36-.52,2.26-.52,1.72.22,2.44.67c.72.44,1.28,1.12,1.7,2.03.42.91.62,2.07.62,3.47s-.22,2.56-.67,3.47c-.44.91-1.04,1.59-1.8,2.03-.76.44-1.61.67-2.55.67ZM630.58,240.58c.79,0,1.41-.31,1.85-.93.44-.62.67-1.52.67-2.7,0-1.28-.21-2.23-.63-2.85-.42-.62-1-.93-1.75-.93-.67,0-1.25.2-1.75.6-.5.4-.88.87-1.13,1.4v3.49c.24.51.59.96,1.06,1.34.47.38,1.03.57,1.69.57Z"/>
    <path d="M644.74,243.05c-1.33,0-2.44-.25-3.35-.74-.9-.49-1.59-1.2-2.05-2.13-.46-.93-.7-2.04-.7-3.35s.23-2.35.68-3.26c.45-.91,1.11-1.61,1.99-2.11s1.95-.74,3.23-.74c1.77,0,3.17.52,4.21,1.56,1.03,1.04,1.54,2.52,1.54,4.44,0,.1,0,.23-.01.4,0,.17-.02.29-.04.38h-8.36c.02.56.12,1.09.31,1.57s.5.88.91,1.18c.42.3.96.45,1.64.45s1.26-.15,1.68-.46c.42-.3.64-.76.65-1.36h3.19c-.04.93-.3,1.7-.76,2.32s-1.11,1.08-1.92,1.38c-.81.31-1.76.46-2.84.46ZM641.92,235.46h5.16c-.03-.83-.27-1.45-.74-1.86-.47-.41-1.07-.62-1.8-.62s-1.36.21-1.84.63c-.48.42-.74,1.04-.79,1.84Z"/>
    <path d="M653.16,242.83v-11.91h3.1l.06,2.06c.31-.71.77-1.26,1.39-1.65.62-.38,1.37-.57,2.25-.57h.24v2.72h-.31c-.48,0-.94.04-1.38.13-.44.09-.84.23-1.2.44-.36.21-.67.49-.93.86v7.92h-3.24Z"/>
    <path d="M45.37,273.03c-1.16,0-2.16-.25-2.99-.74s-1.46-1.2-1.9-2.11c-.44-.92-.65-2-.65-3.27s.22-2.4.65-3.33c.43-.92,1.07-1.63,1.9-2.13s1.83-.74,2.99-.74,2.2.25,3.05.74c.84.5,1.49,1.21,1.94,2.13.45.92.68,2.03.68,3.33s-.23,2.35-.68,3.27c-.45.92-1.1,1.62-1.94,2.11-.84.49-1.86.74-3.05.74ZM45.37,271.41c.88,0,1.58-.19,2.1-.58s.9-.92,1.12-1.6c.23-.68.34-1.45.34-2.31s-.11-1.66-.34-2.36-.6-1.23-1.12-1.63c-.52-.39-1.22-.59-2.1-.59s-1.53.2-2.03.59c-.5.4-.86.94-1.08,1.63-.22.69-.33,1.48-.33,2.36s.11,1.63.33,2.31c.22.68.58,1.21,1.08,1.6.5.39,1.18.58,2.03.58Z"/>
    <path d="M54.71,272.83v-10.24h-1.99v-1.65h1.99v-.68c0-.6.05-1.14.15-1.62.1-.48.28-.88.54-1.21.26-.33.61-.58,1.07-.76.46-.17,1.06-.26,1.79-.26h1.23v1.6h-1.1c-.72,0-1.18.2-1.37.59s-.29.96-.29,1.7v.66h2.77v1.65h-2.77v10.24h-2.03Z"/>
    <path d="M71.77,273.03c-1.16,0-2.16-.25-2.99-.74s-1.46-1.2-1.9-2.11c-.44-.92-.65-2-.65-3.27s.22-2.4.65-3.33c.43-.92,1.07-1.63,1.9-2.13s1.83-.74,2.99-.74,2.2.25,3.05.74c.84.5,1.49,1.21,1.94,2.13.45.92.68,2.03.68,3.33s-.23,2.35-.68,3.27c-.45.92-1.1,1.62-1.94,2.11-.84.49-1.86.74-3.05.74ZM71.77,271.41c.88,0,1.58-.19,2.1-.58s.9-.92,1.12-1.6c.23-.68.34-1.45.34-2.31s-.11-1.66-.34-2.36-.6-1.23-1.12-1.63c-.52-.39-1.22-.59-2.1-.59s-1.53.2-2.03.59c-.5.4-.86.94-1.08,1.63-.22.69-.33,1.48-.33,2.36s.11,1.63.33,2.31c.22.68.58,1.21,1.08,1.6.5.39,1.18.58,2.03.58Z"/>
    <path d="M84.32,273.02c-1.38,0-2.37-.38-2.98-1.15-.61-.76-.92-1.82-.92-3.16v-7.76h2.05v7.48c0,.54.06,1.02.18,1.44.12.42.35.75.7.99s.83.35,1.48.35c.9,0,1.64-.19,2.25-.55.6-.37,1.09-.8,1.45-1.29v-8.42h2.05v11.89h-1.97l-.06-1.83c-.38.47-.92.93-1.62,1.36-.7.44-1.57.65-2.62.65Z"/>
    <path d="M94.52,272.83v-11.89h1.92l.07,2.03c.33-.62.8-1.13,1.39-1.55.59-.41,1.37-.62,2.32-.62h.24v1.87h-.28c-.59,0-1.11.08-1.56.23-.45.15-.84.37-1.17.64-.33.27-.63.59-.89.95v8.35h-2.04Z"/>
    <path d="M108.14,272.83v-16.43h10.23v1.83h-8.03v5.25h7.28v1.79h-7.28v7.56h-2.2Z"/>
    <path d="M125.62,273.03c-1.16,0-2.16-.25-2.99-.74s-1.46-1.2-1.9-2.11c-.44-.92-.65-2-.65-3.27s.22-2.4.65-3.33c.43-.92,1.07-1.63,1.9-2.13s1.83-.74,2.99-.74,2.2.25,3.05.74c.84.5,1.49,1.21,1.94,2.13.45.92.68,2.03.68,3.33s-.23,2.35-.68,3.27c-.45.92-1.1,1.62-1.94,2.11-.84.49-1.86.74-3.05.74ZM125.62,271.41c.88,0,1.58-.19,2.1-.58s.9-.92,1.12-1.6c.23-.68.34-1.45.34-2.31s-.11-1.66-.34-2.36-.6-1.23-1.12-1.63c-.52-.39-1.22-.59-2.1-.59s-1.53.2-2.03.59c-.5.4-.86.94-1.08,1.63-.22.69-.33,1.48-.33,2.36s.11,1.63.33,2.31c.22.68.58,1.21,1.08,1.6.5.39,1.18.58,2.03.58Z"/>
    <path d="M138.17,273.02c-1.38,0-2.37-.38-2.98-1.15-.61-.76-.92-1.82-.92-3.16v-7.76h2.05v7.48c0,.54.06,1.02.18,1.44.12.42.35.75.7.99s.83.35,1.48.35c.9,0,1.64-.19,2.25-.55.6-.37,1.09-.8,1.45-1.29v-8.42h2.05v11.89h-1.97l-.06-1.83c-.38.47-.92.93-1.62,1.36-.7.44-1.57.65-2.62.65Z"/>
    <path d="M148.36,272.83v-11.89h1.95l.07,1.83c.37-.48.89-.93,1.57-1.36.68-.43,1.56-.64,2.62-.64,1.3,0,2.25.38,2.84,1.15s.89,1.85.89,3.24v7.67h-2.04v-7.37c0-.58-.06-1.09-.18-1.54-.12-.45-.34-.8-.65-1.06-.31-.26-.77-.38-1.36-.38-.89,0-1.63.2-2.23.61-.6.4-1.09.84-1.45,1.32v8.42h-2.04Z"/>
    <path d="M166.21,273.05c-.97,0-1.81-.23-2.51-.7-.71-.46-1.26-1.16-1.64-2.08-.39-.92-.58-2.06-.58-3.42s.21-2.48.62-3.38c.41-.9.99-1.58,1.74-2.04.75-.46,1.63-.69,2.65-.69.85,0,1.58.19,2.21.56.63.37,1.13.87,1.51,1.51v-6.4h2.04v16.43h-1.93l-.11-1.73c-.42.58-.97,1.05-1.63,1.41-.67.36-1.45.54-2.36.54ZM166.62,271.38c.87,0,1.59-.21,2.17-.62s1.05-.91,1.4-1.48v-4.58c-.33-.67-.77-1.22-1.31-1.65-.54-.44-1.22-.65-2.04-.65-1.08,0-1.9.39-2.45,1.16-.55.77-.82,1.87-.82,3.3s.26,2.6.78,3.37c.52.77,1.28,1.16,2.28,1.16Z"/>
    <path d="M179.22,273.05c-.68,0-1.31-.13-1.87-.39-.57-.26-1.02-.64-1.35-1.15-.34-.51-.51-1.14-.51-1.89,0-1.06.33-1.88,1-2.43.67-.55,1.61-.93,2.83-1.13s2.65-.31,4.29-.32v-.83c0-1.02-.25-1.71-.76-2.09-.5-.38-1.14-.57-1.92-.57-.82,0-1.51.21-2.08.62-.56.42-.84,1.07-.84,1.96h-1.98c0-.98.21-1.77.63-2.37s1-1.04,1.73-1.32,1.58-.42,2.53-.42c.61,0,1.19.06,1.75.17.56.11,1.06.32,1.5.62s.8.72,1.06,1.26c.26.54.39,1.24.39,2.09v7.95h-1.9l-.08-1.81c-.54.61-1.18,1.1-1.9,1.47-.72.37-1.56.56-2.52.56ZM179.76,271.49c.81,0,1.55-.19,2.2-.57s1.2-.87,1.64-1.45v-2.42c-2.17.02-3.72.23-4.66.61-.94.38-1.41,1.01-1.41,1.88,0,.59.19,1.07.57,1.42.38.35.93.53,1.67.53Z"/>
    <path d="M193.19,272.83c-.96,0-1.7-.15-2.21-.46-.51-.3-.86-.74-1.06-1.32s-.29-1.26-.29-2.07v-6.4h-1.99v-1.65h1.99v-2.72h2.03v2.72h2.93v1.65h-2.93v6.3c0,.74.1,1.31.29,1.7.19.4.65.59,1.37.59h1.29v1.65h-1.43Z"/>
    <path d="M198.31,258.71c-.38,0-.69-.11-.92-.34-.23-.22-.35-.51-.35-.85s.12-.62.35-.85c.23-.22.54-.34.92-.34s.69.11.93.34c.24.22.35.51.35.85s-.12.62-.35.85c-.24.22-.54.34-.93.34ZM197.3,272.83v-11.89h2.04v11.89h-2.04Z"/>
    <path d="M208.14,273.03c-1.16,0-2.16-.25-2.99-.74s-1.46-1.2-1.9-2.11c-.44-.92-.65-2-.65-3.27s.22-2.4.65-3.33c.43-.92,1.07-1.63,1.9-2.13s1.83-.74,2.99-.74,2.2.25,3.05.74c.84.5,1.49,1.21,1.94,2.13.45.92.68,2.03.68,3.33s-.23,2.35-.68,3.27c-.45.92-1.1,1.62-1.94,2.11-.84.49-1.86.74-3.05.74ZM208.14,271.41c.88,0,1.58-.19,2.1-.58s.9-.92,1.12-1.6c.23-.68.34-1.45.34-2.31s-.11-1.66-.34-2.36-.6-1.23-1.12-1.63c-.52-.39-1.22-.59-2.1-.59s-1.53.2-2.03.59c-.5.4-.86.94-1.08,1.63-.22.69-.33,1.48-.33,2.36s.11,1.63.33,2.31c.22.68.58,1.21,1.08,1.6.5.39,1.18.58,2.03.58Z"/>
    <path d="M217.06,272.83v-11.89h1.95l.07,1.83c.37-.48.89-.93,1.57-1.36.68-.43,1.56-.64,2.62-.64,1.3,0,2.25.38,2.84,1.15s.89,1.85.89,3.24v7.67h-2.04v-7.37c0-.58-.06-1.09-.18-1.54-.12-.45-.34-.8-.65-1.06-.31-.26-.77-.38-1.36-.38-.89,0-1.63.2-2.23.61-.6.4-1.09.84-1.45,1.32v8.42h-2.04Z"/>
    <path d="M232.57,272.96c-.46,0-.83-.15-1.13-.45-.3-.3-.45-.66-.45-1.09s.15-.8.45-1.09c.3-.29.67-.43,1.13-.43s.8.14,1.09.43c.29.29.43.65.43,1.09s-.15.8-.43,1.09c-.29.3-.65.45-1.09.45ZM231.97,267.79c-.13-.94-.24-2.01-.33-3.21-.09-1.19-.14-2.39-.14-3.58v-4.6h2.14v4.6c0,1.2-.05,2.39-.14,3.59-.09,1.2-.21,2.26-.35,3.2h-1.17Z"/>
  </g>
  <g>
    <path d="M39.41,339.97v-16.43h3.94l5.15,8.77h-1.37l5.08-8.77h3.79v16.43h-3.38v-14.6h1.5l-5.37,9.35h-2.11l-5.51-9.35h1.55v14.6h-3.29Z"/>
    <path d="M65.18,340.19c-1.33,0-2.44-.25-3.35-.74-.9-.49-1.59-1.2-2.05-2.13-.46-.93-.7-2.04-.7-3.34s.22-2.35.68-3.26c.45-.91,1.11-1.61,1.99-2.11s1.95-.74,3.23-.74c1.77,0,3.17.52,4.21,1.56,1.03,1.04,1.54,2.52,1.54,4.44,0,.1,0,.23-.01.4,0,.17-.02.29-.04.38h-8.36c.02.56.12,1.09.31,1.57s.5.88.91,1.18c.42.3.96.45,1.64.45s1.26-.15,1.68-.46.64-.76.65-1.36h3.19c-.04.93-.3,1.7-.76,2.32-.47.62-1.11,1.08-1.92,1.39-.81.3-1.76.46-2.84.46ZM62.36,332.6h5.16c-.03-.83-.27-1.45-.74-1.86-.47-.41-1.07-.62-1.8-.62s-1.36.21-1.84.63c-.48.42-.74,1.04-.79,1.84Z"/>
    <path d="M79.08,340.19c-1.33,0-2.44-.25-3.35-.74-.9-.49-1.59-1.2-2.05-2.13-.46-.93-.7-2.04-.7-3.34s.23-2.35.68-3.26c.45-.91,1.12-1.61,1.99-2.11s1.95-.74,3.23-.74c1.77,0,3.18.52,4.21,1.56s1.54,2.52,1.54,4.44c0,.1,0,.23-.01.4,0,.17-.02.29-.04.38h-8.36c.02.56.12,1.09.31,1.57s.49.88.91,1.18c.42.3.96.45,1.64.45s1.26-.15,1.68-.46c.42-.3.64-.76.65-1.36h3.19c-.04.93-.29,1.7-.76,2.32-.47.62-1.11,1.08-1.92,1.39s-1.76.46-2.84.46ZM76.26,332.6h5.16c-.03-.83-.27-1.45-.74-1.86-.47-.41-1.07-.62-1.8-.62s-1.36.21-1.84.63c-.47.42-.74,1.04-.79,1.84Z"/>
    <path d="M92.6,339.97c-1.21,0-2.14-.14-2.8-.43s-1.12-.74-1.38-1.34c-.26-.61-.39-1.4-.39-2.37v-5.27h-1.98v-2.49h1.98v-2.81h3.23v2.81h2.6v2.49h-2.6v5.08c0,.63.09,1.09.26,1.39.18.3.57.45,1.19.45h1.15v2.5h-1.26Z"/>
    <path d="M106.88,340.17c-1.21,0-2.26-.24-3.17-.72s-1.61-1.18-2.11-2.09c-.5-.91-.74-2.01-.74-3.31s.25-2.44.74-3.36c.5-.92,1.2-1.63,2.11-2.11.91-.48,1.96-.73,3.17-.73s2.29.24,3.19.73c.91.48,1.61,1.19,2.12,2.11.5.92.76,2.04.76,3.36s-.25,2.4-.76,3.31c-.51.91-1.21,1.61-2.12,2.09-.91.48-1.97.72-3.19.72ZM106.88,337.7c.71,0,1.26-.16,1.67-.49s.69-.77.86-1.32c.17-.55.25-1.16.25-1.83s-.08-1.31-.25-1.87c-.17-.56-.45-1.01-.86-1.34s-.96-.5-1.67-.5-1.23.17-1.63.5c-.4.33-.67.78-.84,1.34-.16.56-.24,1.18-.24,1.87s.08,1.28.24,1.83c.16.55.44.99.84,1.32.39.33.94.49,1.63.49Z"/>
    <path d="M119.27,340.13c-1.21,0-2.14-.37-2.79-1.12-.66-.74-.99-1.8-.99-3.18v-7.78h3.24v7.38c0,.41.06.77.18,1.08.12.31.31.56.59.73.27.17.63.26,1.08.26.65,0,1.21-.14,1.67-.43.46-.29.86-.64,1.2-1.05v-7.96h3.23v11.91h-3.12l-.05-1.79c-.4.5-.94.96-1.63,1.36s-1.55.6-2.59.6Z"/>
    <path d="M130.13,339.97v-11.91h3.1l.06,2.06c.31-.72.77-1.27,1.39-1.65.62-.38,1.37-.57,2.25-.57h.24v2.72h-.31c-.48,0-.94.04-1.38.13s-.84.23-1.2.44c-.36.21-.67.49-.93.86v7.92h-3.24Z"/>
    <path d="M144.44,339.97v-11.91h3.11l.06,1.78c.4-.51.92-.97,1.58-1.36.65-.39,1.5-.59,2.54-.59,1.21,0,2.15.37,2.82,1.11.67.74,1,1.81,1,3.23v7.75h-3.21v-7.34c0-.43-.06-.81-.18-1.14-.12-.32-.31-.58-.58-.76-.26-.18-.61-.27-1.04-.27-.64,0-1.2.15-1.65.45-.46.3-.86.67-1.2,1.1v7.95h-3.24Z"/>
    <path d="M164.4,340.19c-1.33,0-2.44-.25-3.35-.74-.9-.49-1.59-1.2-2.05-2.13-.46-.93-.7-2.04-.7-3.34s.22-2.35.68-3.26c.45-.91,1.11-1.61,1.99-2.11s1.95-.74,3.23-.74c1.77,0,3.17.52,4.21,1.56,1.03,1.04,1.54,2.52,1.54,4.44,0,.1,0,.23-.01.4,0,.17-.02.29-.04.38h-8.36c.02.56.12,1.09.31,1.57s.5.88.91,1.18c.42.3.96.45,1.64.45s1.26-.15,1.68-.46.64-.76.65-1.36h3.19c-.04.93-.3,1.7-.76,2.32-.47.62-1.11,1.08-1.92,1.39-.81.3-1.76.46-2.84.46ZM161.58,332.6h5.16c-.03-.83-.27-1.45-.74-1.86-.47-.41-1.07-.62-1.8-.62s-1.36.21-1.84.63c-.48.42-.74,1.04-.79,1.84Z"/>
    <path d="M174.8,339.97l-3.75-11.91h3.28l2.29,8.41,2.29-8.41h3.39l2.34,8.4,2.26-8.4h3.06l-3.75,11.91h-3.31l-2.4-8.57-2.43,8.57h-3.29Z"/>
    <path d="M196.85,339.97v-11.91h3.11l.06,1.78c.39-.51.93-.97,1.62-1.36.69-.39,1.54-.59,2.54-.59,1.2,0,2.11.38,2.75,1.13.64.75.96,1.82.96,3.21v7.75h-3.23v-7.34c0-.43-.06-.81-.18-1.14-.12-.32-.31-.58-.57-.76-.26-.18-.61-.27-1.03-.27-.63,0-1.16.15-1.61.45-.45.3-.84.67-1.18,1.1v7.95h-3.23ZM212.48,339.97v-7.34c0-.43-.06-.81-.18-1.14-.12-.32-.31-.58-.57-.76-.27-.18-.61-.27-1.03-.27-.62,0-1.16.14-1.62.42-.45.28-.86.62-1.21,1.04l-.39-2c.51-.54,1.14-1.02,1.89-1.43.74-.41,1.62-.61,2.63-.61,1.19,0,2.11.38,2.75,1.13.65.75.97,1.82.97,3.21v7.75h-3.23Z"/>
    <path d="M224.56,340.19c-1.33,0-2.44-.25-3.35-.74-.9-.49-1.59-1.2-2.05-2.13-.46-.93-.7-2.04-.7-3.34s.22-2.35.68-3.26c.45-.91,1.11-1.61,1.99-2.11s1.95-.74,3.23-.74c1.77,0,3.17.52,4.21,1.56,1.03,1.04,1.54,2.52,1.54,4.44,0,.1,0,.23-.01.4,0,.17-.02.29-.04.38h-8.36c.02.56.12,1.09.31,1.57s.5.88.91,1.18c.42.3.96.45,1.64.45s1.26-.15,1.68-.46.64-.76.65-1.36h3.19c-.04.93-.3,1.7-.76,2.32-.47.62-1.11,1.08-1.92,1.39-.81.3-1.76.46-2.84.46ZM221.74,332.6h5.16c-.03-.83-.27-1.45-.74-1.86-.47-.41-1.07-.62-1.8-.62s-1.36.21-1.84.63c-.48.42-.74,1.04-.79,1.84Z"/>
    <path d="M232.98,339.97v-11.91h3.11l.06,1.78c.39-.51.93-.97,1.62-1.36.69-.39,1.54-.59,2.54-.59,1.2,0,2.11.38,2.75,1.13.64.75.96,1.82.96,3.21v7.75h-3.23v-7.34c0-.43-.06-.81-.18-1.14-.12-.32-.31-.58-.57-.76-.26-.18-.61-.27-1.03-.27-.63,0-1.16.15-1.61.45-.45.3-.84.67-1.18,1.1v7.95h-3.23ZM248.61,339.97v-7.34c0-.43-.06-.81-.18-1.14-.12-.32-.31-.58-.57-.76-.27-.18-.61-.27-1.03-.27-.62,0-1.16.14-1.62.42-.45.28-.86.62-1.21,1.04l-.39-2c.51-.54,1.14-1.02,1.89-1.43.74-.41,1.62-.61,2.63-.61,1.19,0,2.11.38,2.75,1.13.65.75.97,1.82.97,3.21v7.75h-3.23Z"/>
    <path d="M261.99,340.19c-.87,0-1.59-.17-2.15-.5-.56-.33-1.04-.79-1.44-1.38l-.13,1.66h-3.06v-16.43h3.24v6.23c.42-.58.94-1.04,1.55-1.39.61-.35,1.36-.52,2.26-.52s1.72.22,2.44.66c.71.44,1.28,1.12,1.7,2.03.42.91.62,2.06.62,3.47s-.22,2.56-.67,3.47c-.44.91-1.04,1.59-1.8,2.03-.76.44-1.61.66-2.55.66ZM261.19,337.71c.79,0,1.4-.31,1.85-.93.44-.62.66-1.52.66-2.7,0-1.28-.21-2.23-.63-2.85-.42-.62-1-.93-1.75-.93-.67,0-1.25.2-1.75.6-.5.4-.88.87-1.13,1.4v3.49c.23.51.59.96,1.05,1.34s1.03.57,1.69.57Z"/>
    <path d="M275.35,340.19c-1.33,0-2.44-.25-3.35-.74-.9-.49-1.59-1.2-2.05-2.13-.46-.93-.7-2.04-.7-3.34s.22-2.35.68-3.26c.45-.91,1.11-1.61,1.99-2.11s1.95-.74,3.23-.74c1.77,0,3.17.52,4.21,1.56,1.03,1.04,1.54,2.52,1.54,4.44,0,.1,0,.23-.01.4,0,.17-.02.29-.04.38h-8.36c.02.56.12,1.09.31,1.57s.5.88.91,1.18c.42.3.96.45,1.64.45s1.26-.15,1.68-.46.64-.76.65-1.36h3.19c-.04.93-.3,1.7-.76,2.32-.47.62-1.11,1.08-1.92,1.39-.81.3-1.76.46-2.84.46ZM272.53,332.6h5.16c-.03-.83-.27-1.45-.74-1.86-.47-.41-1.07-.62-1.8-.62s-1.36.21-1.84.63c-.48.42-.74,1.04-.79,1.84Z"/>
    <path d="M283.77,339.97v-11.91h3.1l.06,2.06c.31-.72.77-1.27,1.39-1.65.62-.38,1.37-.57,2.25-.57h.24v2.72h-.31c-.48,0-.94.04-1.38.13s-.84.23-1.2.44c-.36.21-.67.49-.93.86v7.92h-3.24Z"/>
  </g>
  <path d="M61.1,22.05c-2.86,0-5.42,1.3-7.14,3.31-.16-.2-.34-.38-.51-.56-.54-.54-1.14-1.01-1.77-1.39-1.48-.9-3.18-1.34-4.86-1.37h0c-2.39,0-4.81.92-6.62,2.75-1.84,1.84-2.75,4.23-2.75,6.62,0,1.68.45,3.38,1.34,4.86.38.63.85,1.23,1.39,1.77.54.54,1.14,1.01,1.77,1.39,3.6,2.19,8.39,1.72,11.5-1.39.18-.18.36-.38.51-.56,1.72,2.01,4.27,3.31,7.14,3.31,5.17,0,9.38-4.21,9.38-9.38s-4.21-9.38-9.38-9.38h0ZM41.9,31.43c0-1.25.47-2.51,1.43-3.47.96-.96,2.22-1.43,3.47-1.43h0c.51,0,1.03.09,1.52.25l-3.87,3.87-2.31,2.31c-.16-.49-.25-1.01-.25-1.52ZM50.29,34.9c-1.34,1.34-3.29,1.75-4.99,1.21l2.39-2.39,3.78-3.78.45-.45c-.13.63-.2,1.3-.2,1.97,0,1.25-.47,2.51-1.43,3.47v-.02ZM61.1,36.35c-2.71,0-4.92-2.19-4.92-4.92s2.19-4.92,4.92-4.92,4.92,2.19,4.92,4.92-2.19,4.92-4.92,4.92Z" fill="#333"/>
  <polygon points="30.13 29.84 20.91 15.54 15.54 15.54 15.54 40.65 20.91 40.65 20.91 24.94 30.96 40.65 35.52 40.65 35.52 15.54 30.13 15.54 30.13 29.84" fill="#333"/>
  <polygon points="88.19 29.84 78.96 15.54 73.59 15.54 73.59 40.65 78.96 40.65 78.96 24.94 89.01 40.65 93.56 40.65 93.56 15.54 88.19 15.54 88.19 29.84" fill="#0f6bff"/>
  <path d="M109.52,23.48c-1.34-.83-2.89-1.23-4.61-1.23s-3.42.4-4.83,1.21c-1.41.81-2.51,1.92-3.29,3.33-.78,1.41-1.19,3-1.19,4.72s.4,3.31,1.21,4.72c.81,1.41,1.92,2.53,3.38,3.33s3.13,1.21,5.06,1.21,3.2-.31,4.5-.96c1.3-.63,2.37-1.54,3.2-2.75l-3.8-2.26c-.4.51-.94.94-1.63,1.23-.69.31-1.41.47-2.13.47-1.21,0-2.17-.27-2.93-.78-.76-.54-1.34-1.34-1.79-2.42h13.07c.09-.54.13-1.14.13-1.79,0-1.72-.38-3.29-1.12-4.7-.76-1.41-1.81-2.53-3.16-3.36l-.07.02ZM100.52,29.41c.04-.78.49-1.43,1.34-1.99s1.86-.83,3-.83,2.04.25,2.8.74,1.23,1.19,1.39,2.08h-8.55.02Z" fill="#0f6bff"/>
  <path d="M131.56,23.46c-1.34-.81-2.95-1.21-4.83-1.21s-1.92.16-2.84.49c-.92.31-1.77.78-2.57,1.39v-1.39h-5.13v25.11h5.13v-8.5c.78.6,1.66,1.05,2.57,1.39.94.31,1.88.49,2.84.49,1.86,0,3.47-.4,4.83-1.23,1.34-.83,2.39-1.95,3.11-3.38.72-1.43,1.07-3.07,1.07-4.88s-.36-3.45-1.07-4.86c-.72-1.43-1.75-2.55-3.11-3.36v-.07ZM129.32,34.96c-.85.83-1.95,1.23-3.29,1.23s-2.48-.4-3.38-1.23-1.34-1.9-1.34-3.25.45-2.44,1.37-3.29c.92-.85,2.04-1.3,3.38-1.3s2.44.43,3.29,1.25c.85.83,1.28,1.95,1.28,3.29s-.43,2.46-1.28,3.29h-.02Z" fill="#0f6bff"/>
  <path d="M150.27,23.01c-1.07-.45-2.1-.67-3.13-.67-1.52,0-2.95.56-4.27,1.66v-8.46h-5.13v25.11h5.13v-10.97c.13-.98.49-1.7,1.03-2.17.56-.47,1.19-.69,1.95-.69s1.66.25,2.31.76c.65.51.96,1.34.96,2.48v10.59h5.13v-10.72c-.02-1.9-.43-3.42-1.21-4.57-.78-1.12-1.7-1.9-2.75-2.35Z" fill="#0f6bff"/>
  <path d="M170.15,23.48c-1.41-.83-2.95-1.25-4.61-1.25s-3.25.43-4.66,1.25c-1.41.83-2.55,1.95-3.38,3.38-.83,1.41-1.25,2.98-1.25,4.66s.43,3.2,1.25,4.63c.83,1.43,1.95,2.55,3.38,3.38,1.41.83,2.98,1.25,4.66,1.25s3.2-.43,4.61-1.25c1.41-.83,2.53-1.97,3.38-3.38.83-1.43,1.25-2.98,1.25-4.63s-.43-3.25-1.25-4.66c-.83-1.41-1.95-2.53-3.38-3.38ZM168.51,34.52c-.85.83-1.86,1.25-3.02,1.25s-2.17-.43-3-1.25c-.83-.83-1.25-1.84-1.25-3s.43-2.17,1.25-3.02c.83-.85,1.84-1.25,3-1.25s2.17.43,3.02,1.25c.85.85,1.25,1.86,1.25,3.02s-.43,2.17-1.25,3Z" fill="#0f6bff"/>
  <path d="M191.34,31.81c-.69-.78-1.5-1.34-2.39-1.68-.92-.34-2.06-.65-3.45-.94-1.07-.2-1.86-.43-2.35-.6-.49-.2-.74-.49-.74-.9s.2-.81.6-1.07.94-.4,1.61-.4,1.39.13,1.88.43c.47.29.85.72,1.14,1.3l4.07-1.99c-.69-1.19-1.68-2.1-2.91-2.73s-2.64-.94-4.19-.94-2.53.22-3.63.67c-1.12.45-1.99,1.1-2.64,1.95-.65.85-.98,1.86-.98,3s.34,2.15.98,2.86c.65.72,1.43,1.23,2.35,1.59.92.34,2.06.67,3.4.96,1.19.27,2.06.51,2.62.74s.83.58.83,1.05-.29.96-.9,1.25c-.6.29-1.3.45-2.08.45-1.95,0-3.2-.74-3.76-2.24l-4.12,2.1c.67,1.37,1.68,2.37,3.02,3.07,1.34.69,2.95,1.03,4.86,1.03s2.66-.22,3.87-.65c1.19-.43,2.15-1.07,2.89-1.92.72-.85,1.1-1.88,1.1-3.07s-.34-2.46-1.03-3.25l-.07-.07Z" fill="#0f6bff"/>
  <rect y="395.27" width="764" height="4.73" fill="url(#b)"/>
  <g id="c" data-name="g6">
    <path id="d" data-name="path1" d="M271.01,74.97c0,2.86-1.97,4.73-5.36,4.73h-15.82v-9.47h15.81c3.4,0,5.37,1.87,5.37,4.73M279.58,92.48c0-5.54-3.12-8.13-5.62-9.29,2.06-.98,5.09-3.93,5.09-8.57,0-7.06-4.73-11.62-12.77-11.62h-24.57v41.36h25.28c7.32,0,12.6-4.19,12.6-11.87M271.54,92.03c0,2.77-1.7,5.09-5.36,5.09h-16.35v-10.09h16.35c3.66,0,5.36,2.23,5.36,5" fill="#989898" fill-rule="evenodd"/>
    <path id="e" data-name="path2" d="M311.38,100.16c2.77,2.86,6.79,4.56,11.26,4.56,8.48,0,15.18-5.81,15.18-14.56v-27.16h-7.95v26.89c0,4.73-2.86,7.59-7.23,7.59s-7.06-2.5-7.06-7.32l-.09-27.16h-7.95v26.89c0,4.73-2.86,7.59-7.23,7.59s-7.15-2.86-7.15-7.59v-26.89h-8.04v27.16c0,8.76,6.79,14.56,15.19,14.56,4.37,0,8.31-1.87,11.07-4.55" fill="#989898" fill-rule="evenodd"/>
    <rect id="f" data-name="rect2" x="344.79" y="63" width="8.04" height="41.27" fill="#989898"/>
    <path id="g" data-name="path3" d="M303.07,45.58c0-4.47,3.66-8.04,8.04-8.04h88.26c4.47,0,8.04,3.57,8.04,8.04v.27c0,4.47-3.57,8.04-8.04,8.04h-88.26c-4.37,0-8.04-3.57-8.04-8.04v-.27Z" fill="red" fill-rule="evenodd"/>
    <path id="h" data-name="path4" d="M412.32,45.58c0-4.47,3.57-8.04,8.04-8.04h10.72c4.47,0,8.04,3.57,8.04,8.04v.27c0,4.47-3.57,8.04-8.04,8.04h-10.72c-4.47,0-8.04-3.57-8.04-8.04v-.27Z" fill="#989898" fill-rule="evenodd"/>
    <path id="i" data-name="path5" d="M443.5,45.58c0-4.47,3.57-8.04,8.04-8.04h10.72c4.47,0,8.04,3.57,8.04,8.04v.27c0,4.47-3.57,8.04-8.04,8.04h-10.72c-4.47,0-8.04-3.57-8.04-8.04v-.27Z" fill="#98989b" fill-rule="evenodd"/>
    <path id="j" data-name="path6" d="M244.43,143.01v-21.44h-2.87v21.44h2.87ZM259.29,123.51v-1.93h-11.41v1.93h4.27v19.51h2.87v-19.51h4.27ZM277.64,127.93v-1.72h-2.92v-2.68c0-2.37,1.27-3.15,2.92-3.24v-1.74c-3.67-.16-5.67,1.99-5.67,5.3v2.37h-1.93v1.72h1.93v15.08h2.74v-15.08h2.93ZM290.6,122.48c0-.75-.65-1.34-1.4-1.34s-1.43.59-1.43,1.34.66,1.31,1.43,1.31,1.4-.56,1.4-1.31ZM285.46,122.48c0-.75-.62-1.34-1.4-1.34s-1.4.59-1.4,1.34.62,1.31,1.4,1.31,1.4-.56,1.4-1.31ZM292.57,142.01v-15.8h-2.74v14.52c-.77.47-1.72.68-3.02.68-2.31,0-3.37-1.5-3.37-3.46v-11.75h-2.74v11.65c0,3.37,1.74,5.48,5.95,5.48,2.72.02,4.67-.61,5.92-1.32ZM304.22,125.94c-3.99-.09-5.57.34-7.22,1.18v15.89h2.74v-14.67c.9-.59,2.46-.72,3.83-.31l.65-2.09ZM330.26,132.08c0-6.63-2.99-10.82-8.91-10.82-2.33,0-4.3.5-5.55,1.18v19.72c1.12.66,3.21,1.15,5.67,1.15,6.07,0,8.78-4.64,8.78-11.24h0ZM327.31,132.05c0,6.04-1.65,9.25-5.98,9.25-1.09,0-2.06-.16-2.68-.41v-17.36c.75-.31,1.52-.43,2.65-.43,4.08,0,6.02,3.06,6.02,8.95ZM346.65,134.13c.06-5.61-2.37-8.22-6.38-8.22s-6.76,2.96-6.76,8.66c0,5.98,3.08,8.76,7.47,8.76,2.27,0,4.05-.53,5.08-1.15l-.72-1.81c-.87.5-2.24.97-4.14.97-3.02,0-4.8-1.87-5.11-5.67l10.55-1.52ZM344.04,132.98l-8.04,1.22c-.06-4.55,1.74-6.52,4.17-6.52s3.87,1.5,3.87,5.3ZM362.29,142.01v-15.8h-2.74v14.52c-.77.47-1.72.68-3.02.68-2.31,0-3.37-1.5-3.37-3.46v-11.75h-2.74v11.65c0,3.37,1.74,5.48,5.95,5.48,2.72.02,4.68-.61,5.92-1.32h0ZM373.33,142.92v-1.74c-.28.06-.53.12-.81.12-1.52,0-2.12-1.09-2.12-2.43v-10.94h2.93v-1.72h-2.93v-4.71l-2.74.84v3.87h-1.93v1.72h1.93v11c0,2.06,1.12,4.24,4.17,4.24.68,0,1.17-.16,1.49-.25h0ZM385.63,138.34c0-1.93-.81-3.67-4.08-4.92-1.62-.62-2.81-1.4-2.81-3.02,0-1.43.97-2.65,2.81-2.65,1.31,0,2.31.56,2.81.93l.72-1.65c-.87-.59-2.21-1.15-3.92-1.15-3.06,0-5.02,2.12-5.02,4.61,0,1.74.66,3.49,3.92,4.71,1.84.68,2.77,1.47,2.77,3.21,0,1.62-1.25,2.9-3.12,2.9-1.49,0-2.67-.5-3.27-1l-.75,1.81c.9.68,2.49,1.15,4.3,1.15,3.42,0,5.64-2.36,5.64-4.92h0ZM398.81,142.21l-.68-1.72c-.62.43-1.4.81-2.56.81-2.71,0-4.14-2.77-4.14-6.79s1.18-6.7,4.23-6.7c1.25,0,1.99.43,2.49.81l.66-1.59c-.53-.47-1.65-1.12-3.71-1.12-3.74,0-6.45,3.17-6.45,8.69s2.71,8.72,6.38,8.72c1.87,0,3.12-.52,3.77-1.11h0ZM414.3,143.01v-12c0-2.37-1.31-4.95-5.57-4.95-1.25,0-2.46.31-3.87,1.02v-8.54h-2.74v24.46h2.74v-14.37c1.02-.62,2.02-.84,3.27-.84,2.67,0,3.42,1.56,3.42,3.3v11.9h2.74v.02ZM421.65,143.01v-24.46h-2.74v24.46h2.74ZM437.41,142.14v-10.78c0-4.12-2.74-5.45-5.86-5.45-2.31,0-4.17.72-5.14,1.24l.66,1.62c.93-.47,2.43-1.06,4.05-1.06,2.15,0,3.71.75,3.71,3.33v1.02c-5.2.53-9.38,1.84-9.38,6.29,0,3.05,2.02,4.96,6.39,4.96,2.33,0,4.3-.47,5.57-1.18ZM434.83,141.17c-.68.37-1.72.56-2.77.56-2.49,0-3.99-1-3.99-3.42,0-3.4,2.52-4.3,6.76-4.83v7.7h0ZM454.02,143.01v-12.12c0-2.4-1.37-4.98-6.04-4.98-2.67,0-4.64.47-6.14,1.18v15.92h2.74v-14.74c.87-.37,1.62-.59,3.18-.59,2.87,0,3.52,1.72,3.52,3.27v12.06h2.74ZM470.44,142.14v-23.59h-2.71v7.88c-.9-.25-1.72-.37-2.65-.37-4.33,0-7.29,3.24-7.29,8.82,0,5.07,2.58,8.44,7.38,8.44,2.33,0,4.14-.48,5.27-1.17h0ZM467.73,141.05c-.52.34-1.31.47-2.43.47-3.42,0-4.8-2.9-4.8-6.86,0-3.65,1.25-7.01,5.14-7.01.72,0,1.4.12,2.09.31v13.09Z" fill="#98989b"/>
  </g>
</svg>