<?xml version="1.0" encoding="UTF-8"?>
<svg id="a" data-name="Layer 1" xmlns="http://www.w3.org/2000/svg" width="764" height="400" xmlns:xlink="http://www.w3.org/1999/xlink" viewBox="0 0 764 400">
  <defs>
    <linearGradient id="b" x1="0" y1="397.63" x2="764" y2="397.63" gradientUnits="userSpaceOnUse">
      <stop offset="0" stop-color="#0f6bff"/>
      <stop offset="1" stop-color="#000025"/>
    </linearGradient>
  </defs>
  <polyline points="0 0 764 0 764 400 0 400" fill="#fff"/>
  <path d="M61.1,22.05c-2.86,0-5.42,1.3-7.14,3.31-.16-.2-.34-.38-.51-.56-.54-.54-1.14-1.01-1.77-1.39-1.48-.9-3.18-1.34-4.86-1.37h0c-2.39,0-4.81.92-6.62,2.75-1.84,1.84-2.75,4.23-2.75,6.62,0,1.68.45,3.38,1.34,4.86.38.63.85,1.23,1.39,1.77.54.54,1.14,1.01,1.77,1.39,3.6,2.19,8.39,1.72,11.5-1.39.18-.18.36-.38.51-.56,1.72,2.01,4.27,3.31,7.14,3.31,5.17,0,9.38-4.21,9.38-9.38s-4.21-9.38-9.38-9.38h0ZM41.9,31.43c0-1.25.47-2.51,1.43-3.47.96-.96,2.22-1.43,3.47-1.43h0c.51,0,1.03.09,1.52.25l-3.87,3.87-2.31,2.31c-.16-.49-.25-1.01-.25-1.52ZM50.29,34.9c-1.34,1.34-3.29,1.75-4.99,1.21l2.39-2.39,3.78-3.78.45-.45c-.13.63-.2,1.3-.2,1.97,0,1.25-.47,2.51-1.43,3.47v-.02ZM61.1,36.35c-2.71,0-4.92-2.19-4.92-4.92s2.19-4.92,4.92-4.92,4.92,2.19,4.92,4.92-2.19,4.92-4.92,4.92Z" fill="#333"/>
  <polygon points="30.13 29.84 20.91 15.54 15.54 15.54 15.54 40.65 20.91 40.65 20.91 24.94 30.96 40.65 35.52 40.65 35.52 15.54 30.13 15.54 30.13 29.84" fill="#333"/>
  <polygon points="88.19 29.84 78.96 15.54 73.59 15.54 73.59 40.65 78.96 40.65 78.96 24.94 89.01 40.65 93.56 40.65 93.56 15.54 88.19 15.54 88.19 29.84" fill="#0f6bff"/>
  <path d="M109.52,23.48c-1.34-.83-2.89-1.23-4.61-1.23s-3.42.4-4.83,1.21c-1.41.81-2.51,1.92-3.29,3.33-.78,1.41-1.19,3-1.19,4.72s.4,3.31,1.21,4.72c.81,1.41,1.92,2.53,3.38,3.33s3.13,1.21,5.06,1.21,3.2-.31,4.5-.96c1.3-.63,2.37-1.54,3.2-2.75l-3.8-2.26c-.4.51-.94.94-1.63,1.23-.69.31-1.41.47-2.13.47-1.21,0-2.17-.27-2.93-.78-.76-.54-1.34-1.34-1.79-2.42h13.07c.09-.54.13-1.14.13-1.79,0-1.72-.38-3.29-1.12-4.7-.76-1.41-1.81-2.53-3.16-3.36l-.07.02ZM100.52,29.41c.04-.78.49-1.43,1.34-1.99s1.86-.83,3-.83,2.04.25,2.8.74,1.23,1.19,1.39,2.08h-8.55.02Z" fill="#0f6bff"/>
  <path d="M131.56,23.46c-1.34-.81-2.95-1.21-4.83-1.21s-1.92.16-2.84.49c-.92.31-1.77.78-2.57,1.39v-1.39h-5.13v25.11h5.13v-8.5c.78.6,1.66,1.05,2.57,1.39.94.31,1.88.49,2.84.49,1.86,0,3.47-.4,4.83-1.23,1.34-.83,2.39-1.95,3.11-3.38.72-1.43,1.07-3.07,1.07-4.88s-.36-3.45-1.07-4.86c-.72-1.43-1.75-2.55-3.11-3.36v-.07ZM129.32,34.96c-.85.83-1.95,1.23-3.29,1.23s-2.48-.4-3.38-1.23-1.34-1.9-1.34-3.25.45-2.44,1.37-3.29c.92-.85,2.04-1.3,3.38-1.3s2.44.43,3.29,1.25c.85.83,1.28,1.95,1.28,3.29s-.43,2.46-1.28,3.29h-.02Z" fill="#0f6bff"/>
  <path d="M150.27,23.01c-1.07-.45-2.1-.67-3.13-.67-1.52,0-2.95.56-4.27,1.66v-8.46h-5.13v25.11h5.13v-10.97c.13-.98.49-1.7,1.03-2.17.56-.47,1.19-.69,1.95-.69s1.66.25,2.31.76c.65.51.96,1.34.96,2.48v10.59h5.13v-10.72c-.02-1.9-.43-3.42-1.21-4.57-.78-1.12-1.7-1.9-2.75-2.35Z" fill="#0f6bff"/>
  <path d="M170.15,23.48c-1.41-.83-2.95-1.25-4.61-1.25s-3.25.43-4.66,1.25c-1.41.83-2.55,1.95-3.38,3.38-.83,1.41-1.25,2.98-1.25,4.66s.43,3.2,1.25,4.63c.83,1.43,1.95,2.55,3.38,3.38,1.41.83,2.98,1.25,4.66,1.25s3.2-.43,4.61-1.25c1.41-.83,2.53-1.97,3.38-3.38.83-1.43,1.25-2.98,1.25-4.63s-.43-3.25-1.25-4.66c-.83-1.41-1.95-2.53-3.38-3.38ZM168.51,34.52c-.85.83-1.86,1.25-3.02,1.25s-2.17-.43-3-1.25c-.83-.83-1.25-1.84-1.25-3s.43-2.17,1.25-3.02c.83-.85,1.84-1.25,3-1.25s2.17.43,3.02,1.25c.85.85,1.25,1.86,1.25,3.02s-.43,2.17-1.25,3Z" fill="#0f6bff"/>
  <path d="M191.34,31.81c-.69-.78-1.5-1.34-2.39-1.68-.92-.34-2.06-.65-3.45-.94-1.07-.2-1.86-.43-2.35-.6-.49-.2-.74-.49-.74-.9s.2-.81.6-1.07.94-.4,1.61-.4,1.39.13,1.88.43c.47.29.85.72,1.14,1.3l4.07-1.99c-.69-1.19-1.68-2.1-2.91-2.73s-2.64-.94-4.19-.94-2.53.22-3.63.67c-1.12.45-1.99,1.1-2.64,1.95-.65.85-.98,1.86-.98,3s.34,2.15.98,2.86c.65.72,1.43,1.23,2.35,1.59.92.34,2.06.67,3.4.96,1.19.27,2.06.51,2.62.74s.83.58.83,1.05-.29.96-.9,1.25c-.6.29-1.3.45-2.08.45-1.95,0-3.2-.74-3.76-2.24l-4.12,2.1c.67,1.37,1.68,2.37,3.02,3.07,1.34.69,2.95,1.03,4.86,1.03s2.66-.22,3.87-.65c1.19-.43,2.15-1.07,2.89-1.92.72-.85,1.1-1.88,1.1-3.07s-.34-2.46-1.03-3.25l-.07-.07Z" fill="#0f6bff"/>
  <g>
    <path d="M54.65,101.51c-2.36,0-4.38-.49-6.07-1.46-1.69-.97-2.98-2.34-3.89-4.11-.91-1.77-1.36-3.84-1.36-6.22s.45-4.47,1.36-6.25c.91-1.77,2.2-3.14,3.89-4.12,1.69-.97,3.71-1.46,6.07-1.46,1.18,0,2.35.15,3.49.46,1.14.31,2.18.78,3.13,1.43.95.64,1.73,1.46,2.34,2.45s.98,2.17,1.11,3.52h-4.91c-.09-.75-.35-1.42-.79-2-.43-.58-1.03-1.04-1.78-1.37-.75-.33-1.65-.5-2.7-.5-1.5,0-2.72.36-3.64,1.08s-1.6,1.67-2.02,2.85c-.42,1.18-.63,2.47-.63,3.89s.21,2.69.64,3.88c.43,1.19,1.11,2.14,2.04,2.85.93.72,2.17,1.08,3.71,1.08,1.14,0,2.11-.2,2.91-.59.8-.39,1.43-.94,1.88-1.63.45-.69.71-1.5.78-2.41h-5.45v-3.83h10.27v2.34c0,1.99-.4,3.75-1.21,5.26-.8,1.52-1.98,2.7-3.52,3.55-1.54.85-3.43,1.28-5.67,1.28Z"/>
    <path d="M76.77,101.47c-1.69,0-3.17-.34-4.44-1.01-1.27-.67-2.25-1.65-2.95-2.92-.7-1.28-1.04-2.82-1.04-4.63s.35-3.42,1.04-4.71c.69-1.29,1.68-2.28,2.95-2.96s2.75-1.02,4.44-1.02,3.2.34,4.47,1.02c1.27.68,2.26,1.66,2.96,2.96.71,1.29,1.06,2.86,1.06,4.71s-.35,3.36-1.06,4.63c-.71,1.28-1.7,2.25-2.96,2.92-1.27.67-2.76,1.01-4.47,1.01ZM76.77,98.02c.99,0,1.77-.23,2.33-.69.56-.46.96-1.08,1.2-1.85.23-.77.35-1.63.35-2.56s-.12-1.83-.35-2.61-.63-1.41-1.2-1.88c-.56-.47-1.34-.7-2.33-.7s-1.73.23-2.28.7-.94,1.09-1.17,1.88c-.23.79-.34,1.66-.34,2.61s.11,1.79.34,2.56c.23.78.62,1.39,1.17,1.85.55.46,1.31.69,2.28.69Z"/>
    <path d="M92.56,101.2l-6.07-16.68h4.72l3.93,12.46,4.05-12.46h4.58l-6.05,16.68h-5.16Z"/>
    <path d="M113.53,101.51c-1.86,0-3.42-.34-4.68-1.03-1.27-.69-2.22-1.68-2.87-2.98-.65-1.3-.97-2.86-.97-4.68s.32-3.29.95-4.56c.63-1.28,1.56-2.26,2.79-2.95,1.22-.69,2.73-1.03,4.52-1.03,2.48,0,4.45.73,5.89,2.18,1.44,1.45,2.16,3.52,2.16,6.21,0,.14,0,.32-.02.56-.01.23-.03.41-.05.54h-11.71c.02.79.17,1.52.44,2.2.27.68.69,1.23,1.27,1.65.58.42,1.34.62,2.29.62s1.77-.21,2.36-.64c.59-.43.89-1.06.91-1.91h4.46c-.06,1.3-.41,2.38-1.07,3.25-.66.87-1.55,1.51-2.68,1.94-1.13.43-2.46.64-3.97.64ZM109.58,90.88h7.23c-.03-1.16-.38-2.03-1.03-2.61-.66-.58-1.5-.86-2.52-.86s-1.91.3-2.57.89c-.67.59-1.03,1.45-1.1,2.58Z"/>
    <path d="M125.32,101.2v-16.68h4.34l.09,2.89c.43-1,1.08-1.77,1.95-2.31.87-.54,1.91-.8,3.14-.8h.34v3.81h-.43c-.67,0-1.32.06-1.93.18-.62.12-1.17.32-1.68.62-.5.29-.93.69-1.3,1.2v11.09h-4.53Z"/>
    <path d="M140.51,82.33c-.83,0-1.47-.21-1.91-.63-.44-.42-.66-.95-.66-1.57s.22-1.16.66-1.58,1.07-.62,1.91-.62,1.47.21,1.91.62c.44.42.66.94.66,1.58s-.22,1.15-.66,1.57c-.44.42-1.07.63-1.91.63ZM138.24,101.2v-16.68h4.53v16.68h-4.53Z"/>
    <path d="M147.62,101.2v-16.68h4.36l.08,2.5c.56-.72,1.29-1.35,2.2-1.91.91-.55,2.1-.83,3.55-.83,1.7,0,3.01.52,3.95,1.55.93,1.03,1.4,2.54,1.4,4.52v10.85h-4.49v-10.27c0-.6-.09-1.13-.26-1.59s-.44-.81-.81-1.06c-.37-.25-.86-.38-1.46-.38-.9,0-1.67.21-2.32.63-.64.42-1.21.93-1.68,1.54v11.13h-4.53Z"/>
    <path d="M174.45,107.64c-1.99,0-3.58-.21-4.75-.62-1.17-.41-2.02-.95-2.53-1.62s-.77-1.39-.77-2.16c0-.95.45-1.77,1.35-2.49.9-.71,2.32-1.21,4.27-1.5l.75-1.61h2.26c2.77,0,4.79.38,6.06,1.15,1.27.76,1.91,1.93,1.91,3.5s-.73,2.88-2.19,3.86c-1.46.98-3.58,1.47-6.36,1.47ZM172.09,100.82c-1.2-.14-2.17-.38-2.91-.73-.74-.35-1.28-.75-1.62-1.21-.34-.46-.51-.91-.51-1.35,0-.7.26-1.28.79-1.77.53-.48,1.33-.91,2.4-1.27l2.36.85c-.62.15-1.13.33-1.54.54s-.62.47-.62.78c0,.22.12.4.37.55.25.15.67.26,1.28.33.61.07,1.45.11,2.52.11l-2.53,3.16ZM174.14,95.88c-1.5,0-2.79-.27-3.85-.8-1.06-.54-1.86-1.24-2.41-2.12s-.82-1.82-.82-2.84c0-1.08.28-2.06.83-2.93.55-.87,1.36-1.57,2.44-2.09,1.07-.52,2.38-.79,3.91-.79s2.9.26,3.94.79c1.04.52,1.82,1.22,2.34,2.09.52.87.78,1.85.78,2.93s-.26,1.99-.79,2.87c-.53.88-1.32,1.58-2.38,2.1-1.05.52-2.38.79-3.99.79ZM174.38,104.8c1.53,0,2.6-.2,3.23-.6.63-.4.94-.88.94-1.45,0-.36-.11-.67-.33-.92-.22-.25-.58-.44-1.08-.58-.5-.14-1.17-.21-2-.21h-3.04c-.45.17-.81.41-1.09.73s-.42.67-.42,1.08c0,.48.3.92.89,1.33.59.41,1.55.62,2.89.62ZM174.14,93.17c.84,0,1.55-.26,2.11-.78.56-.52.85-1.27.85-2.26,0-1.05-.26-1.83-.79-2.34-.52-.51-1.21-.77-2.05-.77s-1.56.26-2.12.79c-.56.53-.84,1.3-.84,2.32s.29,1.76.86,2.27c.58.51,1.23.77,1.97.77ZM178.91,86.84l-1.33-1.69c.44-1.18,1.13-1.99,2.06-2.43.93-.43,2.05-.65,3.36-.67v3.3c-.89,0-1.7.08-2.44.25-.73.17-1.28.58-1.65,1.24Z"/>
    <path d="M193.22,101.2v-23h7.86c2.48,0,4.45.47,5.9,1.41,1.45.94,2.17,2.38,2.17,4.33,0,1.22-.31,2.25-.92,3.1s-1.42,1.46-2.43,1.84c1.59.32,2.81.97,3.65,1.95.84.98,1.26,2.19,1.26,3.62,0,1.54-.35,2.81-1.05,3.8-.7,1-1.7,1.74-3.01,2.22-1.3.48-2.87.73-4.69.73h-8.73ZM198.02,87.51h2.99c.92,0,1.7-.24,2.32-.72.63-.48.94-1.18.94-2.1,0-.65-.14-1.17-.43-1.55-.28-.38-.67-.66-1.16-.82-.49-.17-1.05-.25-1.67-.25h-2.99v5.43ZM198.02,97.22h3.76c.75,0,1.44-.09,2.05-.28.62-.19,1.1-.52,1.46-.99.36-.47.54-1.11.54-1.91,0-1.03-.38-1.76-1.14-2.2-.76-.44-1.73-.66-2.91-.66h-3.76v6.03Z"/>
    <path d="M221.96,101.47c-1.69,0-3.17-.34-4.44-1.01-1.27-.67-2.25-1.65-2.95-2.92-.7-1.28-1.04-2.82-1.04-4.63s.35-3.42,1.04-4.71c.69-1.29,1.68-2.28,2.95-2.96s2.75-1.02,4.44-1.02,3.2.34,4.47,1.02c1.27.68,2.26,1.66,2.96,2.96.71,1.29,1.06,2.86,1.06,4.71s-.35,3.36-1.06,4.63c-.71,1.28-1.7,2.25-2.96,2.92-1.27.67-2.76,1.01-4.47,1.01ZM221.96,98.02c.99,0,1.77-.23,2.33-.69.56-.46.96-1.08,1.2-1.85.23-.77.35-1.63.35-2.56s-.12-1.83-.35-2.61-.63-1.41-1.2-1.88c-.56-.47-1.34-.7-2.33-.7s-1.73.23-2.28.7-.94,1.09-1.17,1.88c-.23.79-.34,1.66-.34,2.61s.11,1.79.34,2.56c.23.78.62,1.39,1.17,1.85.55.46,1.31.69,2.28.69Z"/>
    <path d="M238.83,101.49c-.95,0-1.83-.18-2.65-.55s-1.48-.91-1.99-1.65c-.51-.74-.76-1.66-.76-2.76,0-1.54.46-2.7,1.38-3.48.92-.78,2.21-1.31,3.87-1.59,1.66-.28,3.59-.44,5.79-.49v-.89c0-1.08-.26-1.82-.78-2.22-.52-.4-1.19-.6-2.01-.6-.9,0-1.64.21-2.22.64-.58.43-.87,1.12-.87,2.08h-4.24c0-1.42.31-2.55.93-3.38.62-.83,1.48-1.43,2.58-1.79,1.1-.36,2.37-.55,3.82-.55,1.06,0,2.03.09,2.91.27.88.18,1.64.48,2.28.91.64.43,1.14,1.02,1.5,1.77.35.75.53,1.68.53,2.79v11.19h-4.24l-.14-2.17c-.71.81-1.53,1.42-2.46,1.84-.93.42-2.01.62-3.23.62ZM240.31,98.38c.86,0,1.64-.22,2.37-.67s1.3-.95,1.73-1.52v-2.7c-2.39.01-4.07.24-5.02.68s-1.44,1.15-1.44,2.13c0,.71.22,1.23.66,1.57s1.01.51,1.7.51Z"/>
    <path d="M253.59,101.2v-16.68h4.34l.09,2.89c.43-1,1.08-1.77,1.95-2.31.87-.54,1.91-.8,3.14-.8h.34v3.81h-.43c-.67,0-1.32.06-1.93.18-.62.12-1.17.32-1.68.62-.5.29-.93.69-1.3,1.2v11.09h-4.53Z"/>
    <path d="M271.86,101.49c-1.25,0-2.38-.31-3.38-.94-1-.63-1.78-1.59-2.36-2.88-.58-1.29-.86-2.94-.86-4.93s.31-3.51.93-4.77c.62-1.25,1.46-2.19,2.52-2.8s2.25-.92,3.57-.92c1.16,0,2.16.24,2.99.72.83.48,1.49,1.11,1.98,1.88v-8.65h4.53v23h-4.34l-.19-2.38c-.59.82-1.33,1.47-2.2,1.95-.88.48-1.94.72-3.2.72ZM273.2,98.04c.96,0,1.78-.27,2.48-.8.69-.54,1.22-1.16,1.59-1.88v-4.87c-.35-.75-.85-1.41-1.49-1.96-.64-.56-1.42-.84-2.36-.84-1.12,0-1.98.43-2.6,1.3-.62.87-.92,2.12-.92,3.76,0,1.8.29,3.13.88,4,.59.87,1.39,1.3,2.42,1.3Z"/>
    <path d="M303.5,101.51c-2.26,0-4.1-.36-5.54-1.08s-2.49-1.79-3.16-3.21c-.67-1.41-1.01-3.13-1.01-5.16v-13.86h4.92v13.74c0,1.89.39,3.3,1.16,4.22.77.92,1.99,1.38,3.66,1.38s2.89-.46,3.63-1.38,1.12-2.33,1.12-4.22v-13.74h4.94v13.86c0,2.03-.34,3.75-1.01,5.16-.67,1.41-1.72,2.48-3.15,3.21-1.43.72-3.28,1.08-5.56,1.08Z"/>
    <path d="M318.11,107.32v-22.8h4.27l.26,2.55c.62-.9,1.36-1.59,2.22-2.08.87-.48,1.89-.73,3.08-.73,1.3,0,2.45.31,3.46.94,1.01.63,1.8,1.58,2.38,2.85.58,1.28.86,2.91.86,4.91s-.31,3.51-.93,4.77c-.62,1.25-1.46,2.19-2.52,2.82-1.06.63-2.25.95-3.57.96-1.08.01-2.05-.21-2.9-.67-.85-.46-1.54-1.09-2.08-1.91v8.39h-4.53ZM326.48,98.04c1.14,0,2.01-.44,2.62-1.32.6-.88.91-2.15.91-3.81,0-1.77-.28-3.08-.85-3.93-.56-.85-1.34-1.28-2.32-1.28s-1.9.29-2.63.86c-.73.58-1.25,1.2-1.57,1.89v4.92c.37.73.88,1.36,1.53,1.88.65.52,1.43.79,2.32.79Z"/>
    <path d="M344.37,101.49c-1.25,0-2.38-.31-3.38-.94-1-.63-1.78-1.59-2.36-2.88-.58-1.29-.86-2.94-.86-4.93s.31-3.51.93-4.77c.62-1.25,1.46-2.19,2.52-2.8s2.25-.92,3.57-.92c1.16,0,2.16.24,2.99.72.83.48,1.49,1.11,1.98,1.88v-8.65h4.53v23h-4.34l-.19-2.38c-.59.82-1.33,1.47-2.2,1.95-.88.48-1.94.72-3.2.72ZM345.71,98.04c.96,0,1.78-.27,2.48-.8.69-.54,1.22-1.16,1.59-1.88v-4.87c-.35-.75-.85-1.41-1.49-1.96-.64-.56-1.42-.84-2.36-.84-1.12,0-1.98.43-2.6,1.3-.62.87-.92,2.12-.92,3.76,0,1.8.29,3.13.88,4,.59.87,1.39,1.3,2.42,1.3Z"/>
    <path d="M363.69,101.49c-.95,0-1.83-.18-2.65-.55s-1.48-.91-1.99-1.65c-.51-.74-.76-1.66-.76-2.76,0-1.54.46-2.7,1.38-3.48.92-.78,2.21-1.31,3.87-1.59,1.66-.28,3.59-.44,5.79-.49v-.89c0-1.08-.26-1.82-.78-2.22-.52-.4-1.19-.6-2.01-.6-.9,0-1.64.21-2.22.64-.58.43-.87,1.12-.87,2.08h-4.24c0-1.42.31-2.55.93-3.38.62-.83,1.48-1.43,2.58-1.79,1.1-.36,2.37-.55,3.82-.55,1.06,0,2.03.09,2.91.27.88.18,1.64.48,2.28.91.64.43,1.14,1.02,1.5,1.77.35.75.53,1.68.53,2.79v11.19h-4.24l-.14-2.17c-.71.81-1.53,1.42-2.46,1.84-.93.42-2.01.62-3.23.62ZM365.17,98.38c.86,0,1.64-.22,2.37-.67s1.3-.95,1.73-1.52v-2.7c-2.39.01-4.07.24-5.02.68s-1.44,1.15-1.44,2.13c0,.71.22,1.23.66,1.57s1.01.51,1.7.51Z"/>
    <path d="M385.36,101.2c-1.69,0-2.99-.2-3.92-.61s-1.58-1.03-1.94-1.88c-.37-.85-.55-1.96-.55-3.32v-7.38h-2.77v-3.49h2.77v-3.93h4.53v3.93h3.64v3.49h-3.64v7.11c0,.88.12,1.53.37,1.95.24.42.8.63,1.67.63h1.61v3.5h-1.76Z"/>
    <path d="M398.17,101.51c-1.86,0-3.42-.34-4.68-1.03-1.27-.69-2.22-1.68-2.87-2.98-.65-1.3-.97-2.86-.97-4.68s.32-3.29.95-4.56c.63-1.28,1.56-2.26,2.79-2.95,1.22-.69,2.73-1.03,4.52-1.03,2.48,0,4.45.73,5.89,2.18,1.44,1.45,2.16,3.52,2.16,6.21,0,.14,0,.32-.02.56-.01.23-.03.41-.05.54h-11.71c.02.79.17,1.52.44,2.2.27.68.69,1.23,1.27,1.65.58.42,1.34.62,2.29.62s1.77-.21,2.36-.64c.59-.43.89-1.06.91-1.91h4.46c-.06,1.3-.41,2.38-1.07,3.25-.66.87-1.55,1.51-2.68,1.94-1.13.43-2.46.64-3.97.64ZM394.23,90.88h7.23c-.03-1.16-.38-2.03-1.03-2.61-.66-.58-1.5-.86-2.52-.86s-1.91.3-2.57.89c-.67.59-1.03,1.45-1.1,2.58Z"/>
  </g>
  <line x1="-9.58" y1="112.32" x2="646.85" y2="112.32" fill="none" stroke="#000" stroke-miterlimit="10"/>
  <rect y="395.27" width="764" height="4.73" fill="url(#b)"/>
  <rect width="764" height="400" fill="none"/>
  <g>
    <path d="M50.67,323.77c-1.25,0-2.37-.18-3.36-.53-1-.35-1.79-.92-2.37-1.69-.59-.77-.88-1.78-.88-3.03h3.52c.02.63.16,1.13.44,1.5.28.36.65.62,1.12.78.47.16,1,.23,1.61.23s1.09-.07,1.53-.21c.44-.14.78-.35,1.03-.64s.37-.66.37-1.1-.11-.79-.32-1.07c-.21-.28-.59-.54-1.12-.77-.54-.23-1.29-.48-2.26-.75-1.13-.33-2.11-.68-2.94-1.07-.83-.39-1.46-.9-1.92-1.51-.45-.62-.68-1.42-.68-2.42,0-1.07.26-1.94.77-2.61.52-.67,1.23-1.17,2.14-1.48s1.96-.48,3.14-.48,2.15.17,3.09.51c.94.34,1.69.86,2.25,1.56.56.7.84,1.59.84,2.67h-3.52c0-.7-.25-1.22-.78-1.57s-1.16-.52-1.9-.52-1.34.14-1.82.41c-.48.27-.72.69-.72,1.26,0,.33.1.61.31.86.2.25.58.49,1.13.73.55.24,1.34.5,2.39.81,1.24.37,2.27.75,3.06,1.15.8.4,1.39.92,1.78,1.56.39.64.58,1.48.58,2.52,0,1.16-.29,2.1-.86,2.82-.57.72-1.34,1.24-2.33,1.58-.98.33-2.09.5-3.33.5Z"/>
    <path d="M65.57,323.77c-1.33,0-2.44-.25-3.35-.74-.9-.49-1.59-1.2-2.05-2.13-.46-.93-.7-2.04-.7-3.34s.23-2.35.68-3.26c.45-.91,1.11-1.61,1.99-2.11s1.95-.74,3.23-.74c1.77,0,3.17.52,4.21,1.56,1.03,1.04,1.54,2.52,1.54,4.44,0,.1,0,.23-.01.4,0,.17-.02.3-.04.38h-8.36c.02.56.12,1.09.31,1.58s.5.88.91,1.18c.42.3.96.45,1.64.45s1.26-.15,1.68-.46c.42-.3.64-.76.65-1.36h3.19c-.04.93-.3,1.7-.76,2.32s-1.11,1.08-1.92,1.38c-.81.31-1.76.46-2.84.46ZM62.75,316.17h5.16c-.03-.83-.27-1.45-.74-1.86s-1.07-.62-1.8-.62-1.36.21-1.84.63c-.48.42-.74,1.04-.79,1.84Z"/>
    <path d="M79.47,323.77c-1.33,0-2.44-.25-3.35-.74-.9-.49-1.59-1.2-2.05-2.13-.46-.93-.7-2.04-.7-3.34s.23-2.35.68-3.26c.45-.91,1.11-1.61,1.99-2.11s1.95-.74,3.23-.74c1.77,0,3.17.52,4.21,1.56,1.03,1.04,1.54,2.52,1.54,4.44,0,.1,0,.23-.01.4,0,.17-.02.3-.04.38h-8.36c.02.56.12,1.09.31,1.58s.5.88.91,1.18c.42.3.96.45,1.64.45s1.26-.15,1.68-.46c.42-.3.64-.76.65-1.36h3.19c-.04.93-.3,1.7-.76,2.32s-1.11,1.08-1.92,1.38c-.81.31-1.76.46-2.84.46ZM76.65,316.17h5.16c-.03-.83-.27-1.45-.74-1.86s-1.07-.62-1.8-.62-1.36.21-1.84.63c-.48.42-.74,1.04-.79,1.84Z"/>
    <path d="M96.2,323.55l-4.87-16.43h3.55l3.12,12.35,3.28-12.35h3.44l3.31,12.35,3.12-12.35h3.5l-4.91,16.43h-3.56l-3.22-12.27-3.19,12.27h-3.59Z"/>
    <path d="M116.49,323.55v-16.43h3.17v6.3c.4-.51.92-.97,1.58-1.36.65-.39,1.49-.59,2.51-.59,1.24,0,2.19.36,2.85,1.09s1,1.81,1,3.24v7.75h-3.23v-7.35c0-.42-.06-.8-.18-1.12-.12-.33-.31-.58-.57-.76-.26-.18-.61-.27-1.04-.27-.64,0-1.19.15-1.65.45-.46.3-.86.67-1.2,1.1v7.95h-3.24Z"/>
    <path d="M134.21,323.75c-.68,0-1.31-.13-1.89-.39-.59-.26-1.06-.65-1.42-1.18-.36-.52-.54-1.18-.54-1.97,0-1.1.33-1.93.99-2.48.66-.56,1.58-.94,2.77-1.14,1.18-.2,2.56-.31,4.13-.35v-.63c0-.77-.19-1.3-.56-1.59-.37-.28-.85-.43-1.43-.43-.64,0-1.17.15-1.59.46-.41.31-.62.8-.62,1.48h-3.03c0-1.02.22-1.82.67-2.42.44-.59,1.06-1.02,1.84-1.28.79-.26,1.69-.39,2.73-.39.76,0,1.45.06,2.07.19.63.13,1.17.34,1.63.65.46.31.82.73,1.07,1.26s.38,1.2.38,2v8h-3.03l-.1-1.55c-.5.58-1.09,1.01-1.76,1.31-.67.3-1.44.45-2.31.45ZM135.27,321.53c.61,0,1.17-.16,1.69-.48.52-.32.93-.68,1.24-1.09v-1.93c-1.71,0-2.91.17-3.59.48-.68.31-1.03.82-1.03,1.52,0,.5.16.88.47,1.12.31.24.72.37,1.21.37Z"/>
    <path d="M149.69,323.55c-1.21,0-2.14-.14-2.8-.43-.66-.29-1.12-.74-1.39-1.34-.26-.61-.39-1.4-.39-2.37v-5.27h-1.98v-2.49h1.98v-2.81h3.23v2.81h2.6v2.49h-2.6v5.08c0,.63.09,1.09.26,1.39.17.3.57.45,1.19.45h1.15v2.5h-1.26Z"/>
    <path d="M161.79,323.55l-4.87-16.43h3.55l3.12,12.35,3.28-12.35h3.44l3.31,12.35,3.12-12.35h3.5l-4.91,16.43h-3.56l-3.22-12.27-3.19,12.27h-3.59Z"/>
    <path d="M184.06,323.75c-.68,0-1.31-.13-1.89-.39-.59-.26-1.06-.65-1.42-1.18-.36-.52-.54-1.18-.54-1.97,0-1.1.33-1.93.99-2.48.66-.56,1.58-.94,2.77-1.14,1.18-.2,2.56-.31,4.13-.35v-.63c0-.77-.19-1.3-.56-1.59-.37-.28-.85-.43-1.43-.43-.64,0-1.17.15-1.59.46-.41.31-.62.8-.62,1.48h-3.03c0-1.02.22-1.82.67-2.42.44-.59,1.06-1.02,1.84-1.28.79-.26,1.69-.39,2.73-.39.76,0,1.45.06,2.07.19.63.13,1.17.34,1.63.65.46.31.82.73,1.07,1.26s.38,1.2.38,2v8h-3.03l-.1-1.55c-.5.58-1.09,1.01-1.76,1.31-.67.3-1.44.45-2.31.45ZM185.13,321.53c.61,0,1.17-.16,1.69-.48.52-.32.93-.68,1.24-1.09v-1.93c-1.71,0-2.91.17-3.59.48-.68.31-1.03.82-1.03,1.52,0,.5.16.88.47,1.12.31.24.72.37,1.21.37Z"/>
    <path d="M199.4,323.77c-.66,0-1.31-.06-1.94-.18s-1.21-.33-1.72-.63-.92-.7-1.22-1.21-.45-1.15-.45-1.92h3c0,.67.23,1.13.7,1.39s1.02.39,1.64.39,1.1-.1,1.44-.3c.34-.2.51-.53.51-1.01,0-.45-.2-.78-.6-1-.4-.22-1.11-.44-2.12-.67-.85-.2-1.6-.45-2.26-.74-.66-.29-1.18-.67-1.56-1.16-.38-.48-.56-1.12-.56-1.91,0-.62.14-1.14.43-1.58.29-.43.67-.78,1.14-1.04.48-.26,1.01-.46,1.61-.58.6-.12,1.21-.18,1.84-.18s1.21.06,1.79.18,1.11.33,1.59.62c.47.29.85.68,1.14,1.17s.43,1.1.43,1.83h-3c0-.61-.19-1.03-.58-1.27-.39-.24-.84-.35-1.36-.35-.56,0-1,.08-1.32.24-.32.16-.48.43-.48.81,0,.22.1.41.3.58.2.17.53.32.98.46.45.14,1.04.29,1.77.46.77.18,1.46.41,2.08.7.61.29,1.09.67,1.45,1.15.36.48.54,1.1.54,1.87,0,.72-.15,1.32-.43,1.82-.29.5-.68.9-1.16,1.2-.48.31-1.04.53-1.66.67-.62.14-1.27.21-1.93.21Z"/>
    <path d="M212.81,323.55v-16.43h6.12c1.76,0,3.26.33,4.51.98,1.25.65,2.2,1.59,2.86,2.81s.99,2.69.99,4.39-.33,3.26-1,4.49c-.67,1.23-1.62,2.16-2.87,2.8-1.25.64-2.75.96-4.49.96h-6.12ZM216.24,320.69h2.32c1.16,0,2.13-.2,2.9-.59.77-.39,1.34-.99,1.73-1.79.38-.8.57-1.81.57-3.03s-.21-2.14-.62-2.92c-.41-.79-1-1.38-1.78-1.78s-1.71-.6-2.81-.6h-2.32v10.72Z"/>
    <path d="M231.88,310.07c-.59,0-1.05-.15-1.36-.45-.31-.3-.47-.68-.47-1.12s.16-.83.47-1.13c.31-.3.77-.45,1.36-.45s1.05.15,1.36.45c.31.3.47.67.47,1.13s-.16.82-.47,1.12-.77.45-1.36.45ZM230.26,323.55v-11.91h3.24v11.91h-3.24Z"/>
    <path d="M241.74,323.77c-.66,0-1.31-.06-1.94-.18s-1.21-.33-1.72-.63-.92-.7-1.22-1.21-.45-1.15-.45-1.92h3c0,.67.23,1.13.7,1.39s1.02.39,1.64.39,1.1-.1,1.44-.3c.34-.2.51-.53.51-1.01,0-.45-.2-.78-.6-1-.4-.22-1.11-.44-2.12-.67-.85-.2-1.6-.45-2.26-.74-.66-.29-1.18-.67-1.56-1.16-.38-.48-.56-1.12-.56-1.91,0-.62.14-1.14.43-1.58.29-.43.67-.78,1.14-1.04.48-.26,1.01-.46,1.61-.58.6-.12,1.21-.18,1.84-.18s1.21.06,1.79.18,1.11.33,1.59.62c.47.29.85.68,1.14,1.17s.43,1.1.43,1.83h-3c0-.61-.19-1.03-.58-1.27-.39-.24-.84-.35-1.36-.35-.56,0-1,.08-1.32.24-.32.16-.48.43-.48.81,0,.22.1.41.3.58.2.17.53.32.98.46.45.14,1.04.29,1.77.46.77.18,1.46.41,2.08.7.61.29,1.09.67,1.45,1.15.36.48.54,1.1.54,1.87,0,.72-.15,1.32-.43,1.82-.29.5-.68.9-1.16,1.2-.48.31-1.04.53-1.66.67-.62.14-1.27.21-1.93.21Z"/>
    <path d="M254.99,323.72c-1.11,0-2.11-.21-3.02-.63-.9-.42-1.62-1.08-2.15-1.98-.53-.89-.79-2.05-.79-3.47s.25-2.58.76-3.49c.5-.91,1.21-1.59,2.11-2.03s1.93-.67,3.09-.67c1.01,0,1.92.17,2.73.5.81.33,1.46.83,1.94,1.5.48.66.72,1.5.73,2.51h-3.14c-.02-.61-.22-1.1-.61-1.46-.39-.36-.94-.54-1.65-.54-.94,0-1.61.32-2.03.96s-.63,1.55-.63,2.72c0,.76.09,1.4.27,1.93.18.53.47.94.87,1.22.39.28.9.42,1.52.42.72,0,1.3-.2,1.72-.59.42-.39.64-.95.65-1.68h3.14c-.02,1.03-.27,1.9-.75,2.61-.48.71-1.12,1.25-1.95,1.61-.82.37-1.76.55-2.82.55Z"/>
    <path d="M266.91,323.71c-1.21,0-2.14-.37-2.8-1.12-.66-.75-.99-1.8-.99-3.18v-7.78h3.24v7.39c0,.41.06.77.18,1.08s.31.56.59.73.63.26,1.08.26c.65,0,1.21-.14,1.67-.43.46-.29.86-.64,1.2-1.06v-7.96h3.23v11.91h-3.12l-.05-1.79c-.4.5-.94.96-1.63,1.35-.69.4-1.55.6-2.59.6Z"/>
    <path d="M282.56,323.77c-.66,0-1.31-.06-1.94-.18s-1.21-.33-1.72-.63-.92-.7-1.22-1.21-.45-1.15-.45-1.92h3c0,.67.23,1.13.7,1.39s1.02.39,1.64.39,1.1-.1,1.44-.3c.34-.2.51-.53.51-1.01,0-.45-.2-.78-.6-1-.4-.22-1.11-.44-2.12-.67-.85-.2-1.6-.45-2.26-.74-.66-.29-1.18-.67-1.56-1.16-.38-.48-.56-1.12-.56-1.91,0-.62.14-1.14.43-1.58.29-.43.67-.78,1.14-1.04.48-.26,1.01-.46,1.61-.58.6-.12,1.21-.18,1.84-.18s1.21.06,1.79.18,1.11.33,1.59.62c.47.29.85.68,1.14,1.17s.43,1.1.43,1.83h-3c0-.61-.19-1.03-.58-1.27-.39-.24-.84-.35-1.36-.35-.56,0-1,.08-1.32.24-.32.16-.48.43-.48.81,0,.22.1.41.3.58.2.17.53.32.98.46.45.14,1.04.29,1.77.46.77.18,1.46.41,2.08.7.61.29,1.09.67,1.45,1.15.36.48.54,1.1.54,1.87,0,.72-.15,1.32-.43,1.82-.29.5-.68.9-1.16,1.2-.48.31-1.04.53-1.66.67-.62.14-1.27.21-1.93.21Z"/>
    <path d="M294.99,323.77c-.66,0-1.31-.06-1.94-.18s-1.21-.33-1.72-.63-.92-.7-1.22-1.21-.45-1.15-.45-1.92h3c0,.67.23,1.13.7,1.39s1.02.39,1.64.39,1.1-.1,1.44-.3c.34-.2.51-.53.51-1.01,0-.45-.2-.78-.6-1-.4-.22-1.11-.44-2.12-.67-.85-.2-1.6-.45-2.26-.74-.66-.29-1.18-.67-1.56-1.16-.38-.48-.56-1.12-.56-1.91,0-.62.14-1.14.43-1.58.29-.43.67-.78,1.14-1.04.48-.26,1.01-.46,1.61-.58.6-.12,1.21-.18,1.84-.18s1.21.06,1.79.18,1.11.33,1.59.62c.47.29.85.68,1.14,1.17s.43,1.1.43,1.83h-3c0-.61-.19-1.03-.58-1.27-.39-.24-.84-.35-1.36-.35-.56,0-1,.08-1.32.24-.32.16-.48.43-.48.81,0,.22.1.41.3.58.2.17.53.32.98.46.45.14,1.04.29,1.77.46.77.18,1.46.41,2.08.7.61.29,1.09.67,1.45,1.15.36.48.54,1.1.54,1.87,0,.72-.15,1.32-.43,1.82-.29.5-.68.9-1.16,1.2-.48.31-1.04.53-1.66.67-.62.14-1.27.21-1.93.21Z"/>
    <path d="M308.37,323.77c-1.33,0-2.44-.25-3.35-.74-.9-.49-1.59-1.2-2.05-2.13-.46-.93-.7-2.04-.7-3.34s.23-2.35.68-3.26c.45-.91,1.11-1.61,1.99-2.11s1.95-.74,3.23-.74c1.77,0,3.17.52,4.21,1.56,1.03,1.04,1.54,2.52,1.54,4.44,0,.1,0,.23-.01.4,0,.17-.02.3-.04.38h-8.36c.02.56.12,1.09.31,1.58s.5.88.91,1.18c.42.3.96.45,1.64.45s1.26-.15,1.68-.46c.42-.3.64-.76.65-1.36h3.19c-.04.93-.3,1.7-.76,2.32s-1.11,1.08-1.92,1.38c-.81.31-1.76.46-2.84.46ZM305.55,316.17h5.16c-.03-.83-.27-1.45-.74-1.86s-1.07-.62-1.8-.62-1.36.21-1.84.63c-.48.42-.74,1.04-.79,1.84Z"/>
    <path d="M320.89,323.75c-.9,0-1.7-.22-2.41-.67-.71-.45-1.27-1.13-1.68-2.06s-.62-2.1-.62-3.52.22-2.51.67-3.41c.44-.89,1.04-1.56,1.8-2s1.61-.66,2.55-.66c.83,0,1.54.17,2.14.51s1.07.79,1.42,1.34v-6.18h3.24v16.43h-3.1l-.13-1.7c-.42.59-.95,1.05-1.58,1.39-.63.34-1.39.51-2.28.51ZM321.85,321.29c.68,0,1.27-.19,1.77-.57.5-.38.88-.83,1.14-1.34v-3.48c-.25-.54-.61-1-1.06-1.4-.46-.4-1.02-.6-1.69-.6-.8,0-1.42.31-1.86.93s-.66,1.51-.66,2.69c0,1.29.21,2.24.63,2.86s1,.93,1.73.93Z"/>
    <path d="M333.38,323.72c-.62,0-1.12-.19-1.51-.58-.39-.39-.58-.86-.58-1.41,0-.59.19-1.07.58-1.43.39-.36.89-.54,1.51-.54s1.12.18,1.49.54c.37.36.56.84.56,1.43,0,.55-.19,1.02-.56,1.41-.38.39-.87.58-1.49.58ZM332.49,317.97c-.16-.84-.33-1.86-.51-3.05s-.26-2.47-.26-3.82v-3.98h3.32v3.98c0,1.36-.09,2.63-.26,3.82-.18,1.19-.35,2.21-.53,3.05h-1.76Z"/>
  </g>
  <g>
    <path d="M52.61,150.1c-1.72,0-3.17-.35-4.36-1.04-1.19-.7-2.1-1.67-2.72-2.93-.62-1.26-.93-2.74-.93-4.45s.31-3.2.93-4.46c.62-1.27,1.52-2.25,2.72-2.94,1.19-.7,2.65-1.04,4.36-1.04s3.17.35,4.36,1.04c1.19.7,2.09,1.68,2.71,2.94s.93,2.75.93,4.46-.31,3.19-.93,4.45c-.62,1.26-1.52,2.23-2.71,2.93-1.19.7-2.64,1.04-4.36,1.04ZM52.61,147.24c1.07,0,1.92-.25,2.58-.76s1.13-1.18,1.43-2.03c.3-.85.45-1.77.45-2.78s-.15-1.96-.45-2.81c-.3-.85-.78-1.52-1.43-2.03s-1.51-.76-2.58-.76-1.94.25-2.59.76-1.13,1.18-1.43,2.03c-.3.85-.45,1.78-.45,2.81s.15,1.94.45,2.78c.3.85.77,1.52,1.43,2.03s1.52.76,2.59.76Z"/>
    <path d="M63.56,149.88v-11.91h3.11l.06,1.78c.4-.51.92-.97,1.58-1.36.65-.39,1.5-.59,2.54-.59,1.21,0,2.15.37,2.82,1.1s1,1.81,1,3.23v7.75h-3.21v-7.34c0-.43-.06-.81-.18-1.13s-.32-.58-.58-.76-.61-.27-1.04-.27c-.64,0-1.19.15-1.65.45-.46.3-.86.67-1.2,1.1v7.95h-3.24Z"/>
    <path d="M77.19,145.23v-2.75h6.75v2.75h-6.75Z"/>
    <path d="M91.33,150.1c-.66,0-1.31-.06-1.94-.18s-1.21-.33-1.72-.63c-.51-.3-.92-.7-1.22-1.21s-.45-1.15-.45-1.92h3c0,.67.23,1.13.7,1.39.47.26,1.02.39,1.64.39s1.1-.1,1.44-.3.51-.54.51-1.01c0-.45-.2-.78-.6-1-.4-.22-1.11-.44-2.12-.67-.85-.2-1.6-.45-2.26-.74s-1.18-.68-1.56-1.16c-.38-.48-.56-1.12-.56-1.91,0-.62.14-1.14.43-1.57s.67-.78,1.14-1.04c.48-.26,1.01-.46,1.61-.58.6-.12,1.21-.18,1.84-.18s1.21.06,1.79.18,1.11.33,1.59.62c.47.29.85.68,1.14,1.17s.43,1.1.43,1.83h-3c0-.61-.19-1.03-.58-1.27-.39-.24-.84-.35-1.36-.35-.56,0-1,.08-1.32.24-.32.16-.48.43-.48.81,0,.22.1.41.3.58.2.17.53.32.98.46.45.14,1.04.29,1.77.46.77.18,1.46.41,2.08.7s1.09.67,1.45,1.15c.36.48.54,1.1.54,1.87,0,.72-.15,1.32-.43,1.82-.29.5-.68.9-1.16,1.2-.48.31-1.04.53-1.66.67-.62.14-1.27.21-1.93.21Z"/>
    <path d="M101.06,136.4c-.59,0-1.05-.15-1.36-.45-.31-.3-.47-.67-.47-1.12s.16-.83.47-1.13c.31-.3.77-.45,1.36-.45s1.05.15,1.36.45.47.67.47,1.13-.16.82-.47,1.12c-.31.3-.77.45-1.36.45ZM99.44,149.88v-11.91h3.24v11.91h-3.24Z"/>
    <path d="M111.28,149.88c-1.21,0-2.14-.14-2.8-.43-.66-.29-1.12-.74-1.39-1.34s-.39-1.4-.39-2.37v-5.27h-1.98v-2.49h1.98v-2.81h3.23v2.81h2.6v2.49h-2.6v5.08c0,.63.09,1.09.26,1.39s.57.45,1.19.45h1.15v2.5h-1.26Z"/>
    <path d="M120.44,150.1c-1.33,0-2.44-.25-3.35-.74-.9-.49-1.59-1.2-2.05-2.13-.46-.93-.7-2.04-.7-3.34s.23-2.35.68-3.26c.45-.91,1.11-1.61,1.99-2.11.88-.49,1.95-.74,3.23-.74,1.77,0,3.17.52,4.21,1.56,1.03,1.04,1.54,2.52,1.54,4.44,0,.1,0,.23-.01.4,0,.17-.02.29-.04.38h-8.36c.02.56.12,1.09.31,1.57s.5.88.91,1.18c.42.3.96.45,1.64.45s1.26-.15,1.68-.46c.42-.3.64-.76.65-1.36h3.19c-.04.93-.3,1.7-.76,2.32-.47.62-1.11,1.08-1.92,1.39-.81.31-1.76.46-2.84.46ZM117.62,142.51h5.16c-.03-.83-.27-1.45-.74-1.86-.47-.41-1.07-.62-1.8-.62s-1.36.21-1.84.63c-.48.42-.74,1.04-.79,1.84Z"/>
    <path d="M137.16,149.88l-4.87-16.43h3.55l3.12,12.35,3.28-12.35h3.44l3.31,12.35,3.12-12.35h3.5l-4.91,16.43h-3.56l-3.22-12.27-3.19,12.27h-3.59Z"/>
    <path d="M161.99,150.08c-1.2,0-2.26-.24-3.17-.72-.91-.48-1.61-1.18-2.11-2.09-.5-.91-.74-2.01-.74-3.31s.25-2.44.74-3.36c.5-.92,1.2-1.63,2.11-2.11.91-.48,1.96-.73,3.17-.73s2.29.24,3.19.73,1.61,1.19,2.12,2.11c.5.92.76,2.04.76,3.36s-.25,2.4-.76,3.31-1.21,1.61-2.12,2.09c-.91.48-1.97.72-3.19.72ZM161.99,147.61c.71,0,1.26-.17,1.67-.49.4-.33.69-.77.85-1.33.17-.55.25-1.16.25-1.83s-.08-1.31-.25-1.87c-.17-.56-.45-1.01-.85-1.34-.4-.33-.96-.5-1.67-.5s-1.23.17-1.63.5c-.4.33-.67.78-.84,1.34-.16.56-.24,1.18-.24,1.87s.08,1.28.24,1.83c.16.55.44,1,.84,1.33.39.33.94.49,1.63.49Z"/>
    <path d="M170.91,149.88v-11.91h3.1l.06,2.06c.31-.72.77-1.26,1.39-1.65.62-.38,1.37-.57,2.25-.57h.24v2.72h-.31c-.48,0-.94.04-1.38.13-.44.09-.84.23-1.2.44-.36.21-.67.49-.93.86v7.92h-3.24Z"/>
    <path d="M180.14,149.88v-16.43h3.24v10.01l4.65-5.49h3.52l-4.71,5.48,5.05,6.43h-3.69l-4.82-6.29v6.29h-3.24Z"/>
    <path d="M198,150.1c-.66,0-1.31-.06-1.94-.18s-1.21-.33-1.72-.63c-.51-.3-.92-.7-1.22-1.21s-.45-1.15-.45-1.92h3c0,.67.23,1.13.7,1.39.47.26,1.02.39,1.64.39s1.1-.1,1.44-.3.51-.54.51-1.01c0-.45-.2-.78-.6-1-.4-.22-1.11-.44-2.12-.67-.85-.2-1.6-.45-2.26-.74s-1.18-.68-1.56-1.16c-.38-.48-.56-1.12-.56-1.91,0-.62.14-1.14.43-1.57s.67-.78,1.14-1.04c.48-.26,1.01-.46,1.61-.58.6-.12,1.21-.18,1.84-.18s1.21.06,1.79.18,1.11.33,1.59.62c.47.29.85.68,1.14,1.17s.43,1.1.43,1.83h-3c0-.61-.19-1.03-.58-1.27-.39-.24-.84-.35-1.36-.35-.56,0-1,.08-1.32.24-.32.16-.48.43-.48.81,0,.22.1.41.3.58.2.17.53.32.98.46.45.14,1.04.29,1.77.46.77.18,1.46.41,2.08.7s1.09.67,1.45,1.15c.36.48.54,1.1.54,1.87,0,.72-.15,1.32-.43,1.82-.29.5-.68.9-1.16,1.2-.48.31-1.04.53-1.66.67-.62.14-1.27.21-1.93.21Z"/>
    <path d="M206.1,149.88v-16.43h3.17v6.3c.4-.51.92-.97,1.58-1.36.65-.39,1.49-.59,2.51-.59,1.24,0,2.19.36,2.85,1.09.66.73,1,1.81,1,3.24v7.75h-3.23v-7.35c0-.42-.06-.8-.18-1.12s-.31-.58-.57-.76-.61-.27-1.04-.27c-.64,0-1.19.15-1.65.45-.46.3-.86.67-1.2,1.1v7.95h-3.24Z"/>
    <path d="M225.99,150.08c-1.2,0-2.26-.24-3.17-.72-.91-.48-1.61-1.18-2.11-2.09-.5-.91-.74-2.01-.74-3.31s.25-2.44.74-3.36c.5-.92,1.2-1.63,2.11-2.11.91-.48,1.96-.73,3.17-.73s2.29.24,3.19.73,1.61,1.19,2.12,2.11c.5.92.76,2.04.76,3.36s-.25,2.4-.76,3.31-1.21,1.61-2.12,2.09c-.91.48-1.97.72-3.19.72ZM225.99,147.61c.71,0,1.26-.17,1.67-.49.4-.33.69-.77.85-1.33.17-.55.25-1.16.25-1.83s-.08-1.31-.25-1.87c-.17-.56-.45-1.01-.85-1.34-.4-.33-.96-.5-1.67-.5s-1.23.17-1.63.5c-.4.33-.67.78-.84,1.34-.16.56-.24,1.18-.24,1.87s.08,1.28.24,1.83c.16.55.44,1,.84,1.33.39.33.94.49,1.63.49Z"/>
    <path d="M234.91,154.25v-16.28h3.05l.18,1.82c.44-.64.97-1.14,1.59-1.48.62-.35,1.35-.52,2.2-.52.93,0,1.75.22,2.47.67.72.45,1.29,1.13,1.7,2.04.41.91.62,2.08.62,3.5s-.22,2.51-.67,3.41c-.44.9-1.04,1.57-1.8,2.01-.76.45-1.61.67-2.55.68-.77,0-1.46-.15-2.07-.48s-1.1-.78-1.48-1.37v5.99h-3.24ZM240.89,147.62c.81,0,1.44-.31,1.87-.94.43-.63.65-1.53.65-2.72,0-1.26-.2-2.2-.6-2.81-.4-.61-.95-.92-1.65-.92s-1.36.21-1.88.62c-.52.41-.9.86-1.12,1.35v3.52c.26.52.62.97,1.09,1.34.47.38,1.02.56,1.65.56Z"/>
  </g>
  <g>
    <path d="M49.29,179.27v-14.59h-4.67v-1.84h11.52v1.84h-4.66v14.59h-2.19Z"/>
    <path d="M58.32,179.27v-16.43h2.03v6.37c.37-.48.89-.93,1.57-1.36.68-.43,1.55-.64,2.61-.64,1.33,0,2.29.38,2.88,1.15.58.76.87,1.85.87,3.25v7.67h-2.04v-7.39c0-.57-.06-1.08-.18-1.53-.12-.45-.34-.8-.65-1.06-.32-.26-.77-.38-1.37-.38-.89,0-1.63.2-2.23.6-.6.4-1.09.84-1.45,1.32v8.42h-2.04Z"/>
    <path d="M77.05,179.49c-1.29,0-2.35-.27-3.18-.81-.83-.54-1.44-1.28-1.84-2.21-.4-.93-.6-1.98-.6-3.14s.19-2.28.58-3.2c.39-.92.98-1.65,1.77-2.17.79-.52,1.8-.78,3.02-.78,1.62,0,2.89.49,3.81,1.46s1.38,2.38,1.38,4.21c0,.12,0,.27-.01.43,0,.17-.02.29-.04.36h-8.47c0,.77.13,1.48.37,2.13.24.65.62,1.17,1.14,1.56.52.39,1.21.59,2.06.59.91,0,1.62-.21,2.14-.64.51-.43.78-1.04.81-1.85h2.01c-.02.84-.24,1.56-.65,2.17-.41.61-.98,1.07-1.71,1.4-.73.33-1.6.49-2.6.49ZM73.49,172.15h6.49c-.02-1.11-.31-1.95-.87-2.54-.55-.59-1.32-.88-2.31-.88s-1.77.29-2.34.87-.89,1.43-.98,2.54Z"/>
    <path d="M97.57,179.49c-1.71,0-3.15-.35-4.32-1.06s-2.05-1.69-2.65-2.96c-.6-1.27-.9-2.73-.9-4.4s.3-3.15.9-4.42c.6-1.27,1.48-2.26,2.65-2.97s2.61-1.06,4.32-1.06c.85,0,1.66.11,2.43.32.77.22,1.47.54,2.1.98.63.44,1.14.98,1.54,1.64.4.66.65,1.44.74,2.33h-2.2c-.08-.63-.32-1.2-.7-1.73-.39-.52-.91-.95-1.57-1.27-.66-.32-1.45-.48-2.36-.48-1.32,0-2.39.3-3.22.9-.83.6-1.44,1.4-1.82,2.4-.38,1-.57,2.12-.57,3.36s.19,2.34.58,3.34c.39,1,1,1.79,1.83,2.37s1.91.88,3.23.88c1.15,0,2.09-.21,2.83-.62.74-.41,1.29-.99,1.65-1.72s.55-1.58.57-2.54h-4.8v-1.82h6.95v1.28c0,1.42-.27,2.68-.8,3.77-.53,1.09-1.33,1.94-2.39,2.56-1.06.61-2.39.92-4,.92Z"/>
    <path d="M112.94,179.47c-1.16,0-2.16-.25-2.99-.74-.83-.49-1.46-1.2-1.9-2.11-.44-.92-.65-2-.65-3.27s.22-2.4.65-3.33c.43-.92,1.07-1.63,1.9-2.13s1.83-.75,2.99-.75,2.2.25,3.05.75c.84.5,1.49,1.21,1.94,2.13.45.92.68,2.03.68,3.33s-.23,2.35-.68,3.27c-.45.92-1.1,1.62-1.94,2.11-.84.49-1.86.74-3.05.74ZM112.94,177.84c.88,0,1.58-.19,2.1-.58.52-.39.9-.92,1.12-1.6s.34-1.45.34-2.31-.11-1.66-.34-2.36-.6-1.24-1.12-1.63-1.22-.59-2.1-.59-1.53.2-2.03.59c-.5.39-.86.94-1.08,1.63-.22.69-.33,1.48-.33,2.36s.11,1.63.33,2.31c.22.68.58,1.21,1.08,1.6.5.39,1.18.58,2.03.58Z"/>
    <path d="M124.22,179.27l-4.57-11.89h2.16l3.52,9.89,3.55-9.89h2.08l-4.49,11.89h-2.25Z"/>
    <path d="M137.62,179.49c-1.29,0-2.35-.27-3.18-.81-.83-.54-1.44-1.28-1.84-2.21-.4-.93-.6-1.98-.6-3.14s.19-2.28.58-3.2c.39-.92.98-1.65,1.77-2.17.79-.52,1.8-.78,3.02-.78,1.62,0,2.89.49,3.81,1.46s1.38,2.38,1.38,4.21c0,.12,0,.27-.01.43,0,.17-.02.29-.04.36h-8.47c0,.77.13,1.48.37,2.13.24.65.62,1.17,1.14,1.56.52.39,1.21.59,2.06.59.91,0,1.62-.21,2.14-.64.51-.43.78-1.04.81-1.85h2.01c-.02.84-.24,1.56-.65,2.17-.41.61-.98,1.07-1.71,1.4-.73.33-1.6.49-2.6.49ZM134.06,172.15h6.49c-.02-1.11-.31-1.95-.87-2.54-.55-.59-1.32-.88-2.31-.88s-1.77.29-2.34.87-.89,1.43-.98,2.54Z"/>
    <path d="M145.85,179.27v-11.89h1.92l.07,2.03c.33-.62.8-1.14,1.39-1.55s1.37-.62,2.32-.62h.24v1.87h-.28c-.59,0-1.11.08-1.56.23-.45.15-.84.37-1.17.64-.33.27-.63.59-.89.95v8.35h-2.04Z"/>
    <path d="M154.21,179.27v-11.89h1.95l.07,1.83c.37-.48.89-.93,1.57-1.36.68-.43,1.56-.64,2.62-.64,1.3,0,2.25.38,2.84,1.15.59.77.89,1.85.89,3.24v7.67h-2.04v-7.37c0-.58-.06-1.09-.18-1.54-.12-.45-.34-.8-.65-1.06-.31-.26-.77-.38-1.36-.38-.89,0-1.63.2-2.23.6-.6.4-1.09.84-1.45,1.32v8.42h-2.04Z"/>
    <path d="M169.01,165.15c-.38,0-.69-.11-.92-.33-.23-.22-.35-.51-.35-.85s.12-.62.35-.85c.23-.22.54-.34.92-.34s.69.11.93.34.35.51.35.85-.12.62-.35.85c-.24.22-.54.33-.93.33ZM167.99,179.27v-11.89h2.04v11.89h-2.04Z"/>
    <path d="M173.96,179.27v-11.89h1.95l.07,1.83c.37-.48.89-.93,1.57-1.36.68-.43,1.56-.64,2.62-.64,1.3,0,2.25.38,2.84,1.15.59.77.89,1.85.89,3.24v7.67h-2.04v-7.37c0-.58-.06-1.09-.18-1.54-.12-.45-.34-.8-.65-1.06-.31-.26-.77-.38-1.36-.38-.89,0-1.63.2-2.23.6-.6.4-1.09.84-1.45,1.32v8.42h-2.04Z"/>
    <path d="M191.88,183.87c-1.29,0-2.31-.15-3.08-.44-.77-.29-1.32-.68-1.67-1.17s-.51-1.02-.51-1.59c0-.69.29-1.31.89-1.84.59-.54,1.5-.92,2.73-1.14l.39-.67h1.5c1.95,0,3.35.26,4.19.78.84.52,1.26,1.32,1.26,2.4s-.48,1.95-1.43,2.64-2.37,1.03-4.25,1.03ZM190.21,178.57c-.77-.08-1.38-.24-1.83-.48-.44-.24-.76-.51-.95-.81-.19-.3-.28-.58-.28-.86,0-.4.16-.77.48-1.13.32-.35.85-.64,1.58-.87l1.01.63c-.43.12-.77.28-1.03.47-.25.19-.38.4-.38.64,0,.16.08.31.23.43.15.13.41.23.77.3.36.08.86.12,1.51.12l-1.12,1.55ZM191.74,175.42c-.98,0-1.8-.19-2.48-.57-.68-.38-1.19-.88-1.54-1.49s-.52-1.28-.52-2c0-.76.18-1.44.53-2.06.35-.62.88-1.11,1.56-1.48s1.53-.55,2.52-.55,1.86.18,2.54.55c.68.37,1.18.86,1.51,1.48.33.62.5,1.31.5,2.06s-.17,1.41-.51,2.02-.85,1.11-1.53,1.48c-.68.37-1.54.55-2.58.55ZM191.83,182.39c1.38,0,2.36-.2,2.92-.59.57-.39.85-.88.85-1.45,0-.34-.1-.64-.29-.88-.19-.25-.55-.44-1.06-.58-.52-.14-1.25-.21-2.2-.21h-1.81c-.55.14-.98.37-1.28.71-.3.33-.45.72-.45,1.16,0,.49.26.92.77,1.29.51.37,1.36.55,2.55.55ZM191.72,174.03c.78,0,1.43-.22,1.93-.67.51-.45.76-1.11.76-1.99s-.24-1.6-.72-2.04c-.48-.44-1.11-.67-1.9-.67s-1.41.23-1.92.68c-.51.46-.76,1.13-.76,2.01s.26,1.56.79,2.01c.52.44,1.13.67,1.83.67ZM194.84,168.59l-.83-.77c.35-.76.81-1.29,1.37-1.56s1.3-.43,2.19-.45v1.72c-.57,0-1.09.06-1.57.18-.48.12-.87.41-1.17.88Z"/>
    <path d="M205.11,179.27v-16.43h5.27c1.65,0,2.97.33,3.96,1,.99.67,1.48,1.68,1.48,3.05,0,.86-.24,1.63-.73,2.31-.48.68-1.12,1.12-1.92,1.32,1.14.19,2.05.64,2.72,1.36.68.72,1.01,1.61,1.01,2.67,0,.99-.22,1.84-.66,2.55-.44.7-1.1,1.24-1.99,1.62s-2.01.56-3.36.56h-5.8ZM207.31,169.82h3.06c1.06,0,1.87-.24,2.42-.73.56-.48.84-1.14.84-1.96,0-.55-.13-1.02-.38-1.39-.25-.37-.62-.65-1.11-.83-.48-.18-1.08-.27-1.78-.27h-3.06v5.18ZM207.31,177.44h3.56c.69,0,1.33-.09,1.92-.26s1.05-.48,1.4-.93.53-1.06.53-1.84c0-.94-.34-1.65-1.03-2.11s-1.62-.7-2.82-.7h-3.56v5.83Z"/>
    <path d="M224.78,179.47c-1.16,0-2.16-.25-2.99-.74-.83-.49-1.46-1.2-1.9-2.11-.44-.92-.65-2-.65-3.27s.22-2.4.65-3.33c.43-.92,1.07-1.63,1.9-2.13s1.83-.75,2.99-.75,2.2.25,3.05.75c.84.5,1.49,1.21,1.94,2.13.45.92.68,2.03.68,3.33s-.23,2.35-.68,3.27c-.45.92-1.1,1.62-1.94,2.11-.84.49-1.86.74-3.05.74ZM224.78,177.84c.88,0,1.58-.19,2.1-.58.52-.39.9-.92,1.12-1.6s.34-1.45.34-2.31-.11-1.66-.34-2.36-.6-1.24-1.12-1.63-1.22-.59-2.1-.59-1.53.2-2.03.59c-.5.39-.86.94-1.08,1.63-.22.69-.33,1.48-.33,2.36s.11,1.63.33,2.31c.22.68.58,1.21,1.08,1.6.5.39,1.18.58,2.03.58Z"/>
    <path d="M236.65,179.49c-.68,0-1.31-.13-1.87-.39-.57-.26-1.02-.65-1.35-1.15-.34-.51-.51-1.14-.51-1.89,0-1.07.33-1.88,1-2.43s1.61-.93,2.83-1.13c1.22-.2,2.65-.31,4.29-.32v-.83c0-1.02-.25-1.71-.76-2.09-.5-.38-1.14-.57-1.92-.57-.82,0-1.51.21-2.08.62s-.84,1.07-.84,1.96h-1.98c0-.98.21-1.77.63-2.37.42-.6,1-1.04,1.73-1.32.74-.28,1.58-.42,2.53-.42.61,0,1.19.06,1.75.17.56.11,1.06.32,1.5.62s.8.72,1.06,1.26c.26.54.39,1.24.39,2.09v7.95h-1.9l-.08-1.81c-.54.61-1.18,1.1-1.9,1.47-.72.37-1.56.56-2.52.56ZM237.18,177.93c.81,0,1.55-.19,2.2-.57.65-.38,1.2-.87,1.64-1.45v-2.42c-2.17.02-3.72.23-4.66.61-.94.38-1.41,1.01-1.41,1.88,0,.59.19,1.07.57,1.42.38.35.93.53,1.67.53Z"/>
    <path d="M246.86,179.27v-11.89h1.92l.07,2.03c.33-.62.8-1.14,1.39-1.55s1.37-.62,2.32-.62h.24v1.87h-.28c-.59,0-1.11.08-1.56.23-.45.15-.84.37-1.17.64-.33.27-.63.59-.89.95v8.35h-2.04Z"/>
    <path d="M258.95,179.49c-.97,0-1.81-.23-2.51-.7s-1.26-1.16-1.64-2.08c-.39-.92-.58-2.06-.58-3.42s.21-2.48.62-3.38.99-1.58,1.74-2.04c.75-.46,1.63-.69,2.65-.69.85,0,1.58.19,2.21.56.63.37,1.13.87,1.51,1.51v-6.4h2.04v16.43h-1.93l-.11-1.73c-.42.58-.97,1.05-1.63,1.41-.67.36-1.45.54-2.36.54ZM259.36,177.82c.87,0,1.59-.21,2.17-.62s1.05-.91,1.4-1.48v-4.58c-.33-.67-.77-1.22-1.31-1.65-.54-.44-1.22-.65-2.04-.65-1.08,0-1.9.39-2.45,1.16-.55.77-.82,1.87-.82,3.3s.26,2.6.78,3.37c.52.77,1.28,1.16,2.28,1.16Z"/>
    <path d="M273.97,179.27v-16.43h2.03v6.37c.37-.48.89-.93,1.57-1.36.68-.43,1.55-.64,2.61-.64,1.33,0,2.29.38,2.88,1.15.58.76.87,1.85.87,3.25v7.67h-2.04v-7.39c0-.57-.06-1.08-.18-1.53-.12-.45-.34-.8-.65-1.06-.32-.26-.77-.38-1.37-.38-.89,0-1.63.2-2.23.6-.6.4-1.09.84-1.45,1.32v8.42h-2.04Z"/>
    <path d="M292.7,179.49c-1.29,0-2.35-.27-3.18-.81-.83-.54-1.44-1.28-1.84-2.21-.4-.93-.6-1.98-.6-3.14s.19-2.28.58-3.2c.39-.92.98-1.65,1.77-2.17.79-.52,1.8-.78,3.02-.78,1.62,0,2.89.49,3.81,1.46s1.38,2.38,1.38,4.21c0,.12,0,.27-.01.43,0,.17-.02.29-.04.36h-8.47c0,.77.13,1.48.37,2.13.24.65.62,1.17,1.14,1.56.52.39,1.21.59,2.06.59.91,0,1.62-.21,2.14-.64.51-.43.78-1.04.81-1.85h2.01c-.02.84-.24,1.56-.65,2.17-.41.61-.98,1.07-1.71,1.4-.73.33-1.6.49-2.6.49ZM289.13,172.15h6.49c-.02-1.11-.31-1.95-.87-2.54-.55-.59-1.32-.88-2.31-.88s-1.77.29-2.34.87-.89,1.43-.98,2.54Z"/>
    <path d="M304.34,179.27c-.97,0-1.71-.15-2.22-.46-.51-.3-.86-.74-1.05-1.32-.19-.57-.28-1.26-.28-2.07v-12.58h2.03v12.49c0,.74.1,1.31.29,1.7.19.39.65.59,1.37.59h.55v1.66h-.68Z"/>
    <path d="M311.5,179.49c-.97,0-1.81-.23-2.51-.7s-1.26-1.16-1.64-2.08c-.39-.92-.58-2.06-.58-3.42s.21-2.48.62-3.38.99-1.58,1.74-2.04c.75-.46,1.63-.69,2.65-.69.85,0,1.58.19,2.21.56.63.37,1.13.87,1.51,1.51v-6.4h2.04v16.43h-1.93l-.11-1.73c-.42.58-.97,1.05-1.63,1.41-.67.36-1.45.54-2.36.54ZM311.91,177.82c.87,0,1.59-.21,2.17-.62s1.05-.91,1.4-1.48v-4.58c-.33-.67-.77-1.22-1.31-1.65-.54-.44-1.22-.65-2.04-.65-1.08,0-1.9.39-2.45,1.16-.55.77-.82,1.87-.82,3.3s.26,2.6.78,3.37c.52.77,1.28,1.16,2.28,1.16Z"/>
    <path d="M327.54,165.15c-.38,0-.69-.11-.92-.33-.23-.22-.35-.51-.35-.85s.12-.62.35-.85c.23-.22.54-.34.92-.34s.69.11.93.34.35.51.35.85-.12.62-.35.85c-.24.22-.54.33-.93.33ZM326.52,179.27v-11.89h2.04v11.89h-2.04Z"/>
    <path d="M336.4,179.27c-.96,0-1.7-.15-2.21-.46-.51-.3-.86-.74-1.06-1.32-.19-.57-.29-1.26-.29-2.07v-6.4h-1.99v-1.65h1.99v-2.72h2.03v2.72h2.93v1.65h-2.93v6.3c0,.74.1,1.31.29,1.7s.65.59,1.37.59h1.29v1.65h-1.43Z"/>
    <path d="M344.63,179.49c-.67,0-1.3-.07-1.9-.22-.6-.15-1.12-.38-1.58-.7-.46-.32-.81-.73-1.07-1.25-.26-.52-.38-1.14-.38-1.87h1.97c0,.93.29,1.58.86,1.96.57.38,1.29.57,2.15.57.77,0,1.41-.15,1.91-.45.5-.3.75-.79.75-1.47,0-.59-.23-1.02-.68-1.31-.45-.29-1.25-.56-2.39-.83-.93-.22-1.71-.47-2.34-.76-.63-.29-1.11-.66-1.43-1.1-.32-.44-.48-1-.48-1.68,0-.53.11-1,.34-1.4.22-.4.54-.74.94-1.01.4-.27.88-.47,1.42-.6.54-.13,1.14-.2,1.77-.2s1.21.07,1.76.22c.55.15,1.03.38,1.45.68.42.31.75.71,1,1.2s.37,1.07.37,1.76h-1.98c0-.85-.25-1.44-.76-1.79s-1.12-.53-1.84-.53-1.33.13-1.78.39c-.46.26-.68.67-.68,1.22,0,.32.1.59.31.81s.54.42,1.03.59c.48.17,1.13.36,1.94.55.89.21,1.63.46,2.23.76s1.06.67,1.36,1.13c.3.46.46,1.05.46,1.76,0,.62-.12,1.15-.36,1.61-.24.45-.57.82-1,1.11-.43.29-.93.5-1.5.64-.57.14-1.19.21-1.86.21Z"/>
    <path d="M361.85,179.49c-.67,0-1.3-.07-1.9-.22-.6-.15-1.12-.38-1.58-.7-.46-.32-.81-.73-1.07-1.25-.26-.52-.38-1.14-.38-1.87h1.97c0,.93.29,1.58.86,1.96.57.38,1.29.57,2.15.57.77,0,1.41-.15,1.91-.45.5-.3.75-.79.75-1.47,0-.59-.23-1.02-.68-1.31-.45-.29-1.25-.56-2.39-.83-.93-.22-1.71-.47-2.34-.76-.63-.29-1.11-.66-1.43-1.1-.32-.44-.48-1-.48-1.68,0-.53.11-1,.34-1.4.22-.4.54-.74.94-1.01.4-.27.88-.47,1.42-.6.54-.13,1.14-.2,1.77-.2s1.21.07,1.76.22c.55.15,1.03.38,1.45.68.42.31.75.71,1,1.2s.37,1.07.37,1.76h-1.98c0-.85-.25-1.44-.76-1.79s-1.12-.53-1.84-.53-1.33.13-1.78.39c-.46.26-.68.67-.68,1.22,0,.32.1.59.31.81s.54.42,1.03.59c.48.17,1.13.36,1.94.55.89.21,1.63.46,2.23.76s1.06.67,1.36,1.13c.3.46.46,1.05.46,1.76,0,.62-.12,1.15-.36,1.61-.24.45-.57.82-1,1.11-.43.29-.93.5-1.5.64-.57.14-1.19.21-1.86.21Z"/>
    <path d="M374.58,179.49c-1.29,0-2.35-.27-3.18-.81-.83-.54-1.44-1.28-1.84-2.21-.4-.93-.6-1.98-.6-3.14s.19-2.28.58-3.2c.39-.92.98-1.65,1.77-2.17.79-.52,1.8-.78,3.02-.78,1.62,0,2.89.49,3.81,1.46s1.38,2.38,1.38,4.21c0,.12,0,.27-.01.43,0,.17-.02.29-.04.36h-8.47c0,.77.13,1.48.37,2.13.24.65.62,1.17,1.14,1.56.52.39,1.21.59,2.06.59.91,0,1.62-.21,2.14-.64.51-.43.78-1.04.81-1.85h2.01c-.02.84-.24,1.56-.65,2.17-.41.61-.98,1.07-1.71,1.4-.73.33-1.6.49-2.6.49ZM371.02,172.15h6.49c-.02-1.11-.31-1.95-.87-2.54-.55-.59-1.32-.88-2.31-.88s-1.77.29-2.34.87-.89,1.43-.98,2.54Z"/>
    <path d="M387.65,179.48c-1.07,0-2.03-.23-2.86-.68-.83-.45-1.48-1.13-1.95-2.04-.47-.91-.7-2.04-.7-3.41s.23-2.51.69-3.42c.46-.92,1.1-1.6,1.93-2.06.83-.46,1.79-.69,2.89-.69.92,0,1.75.15,2.48.45s1.32.75,1.76,1.36c.44.61.67,1.37.7,2.3h-2.01c-.05-.76-.33-1.37-.83-1.81-.5-.44-1.19-.66-2.06-.66-1.16,0-2.02.4-2.59,1.19-.57.79-.85,1.91-.85,3.34,0,.95.13,1.76.38,2.42.25.66.63,1.17,1.15,1.53.51.35,1.15.53,1.92.53.87,0,1.58-.23,2.12-.68.54-.45.83-1.11.85-1.98h2.01c-.02.96-.26,1.76-.7,2.4-.44.64-1.04,1.12-1.79,1.43s-1.6.48-2.53.48Z"/>
    <path d="M400.81,179.47c-1.16,0-2.16-.25-2.99-.74-.83-.49-1.46-1.2-1.9-2.11-.44-.92-.65-2-.65-3.27s.22-2.4.65-3.33c.43-.92,1.07-1.63,1.9-2.13s1.83-.75,2.99-.75,2.2.25,3.05.75c.84.5,1.49,1.21,1.94,2.13.45.92.68,2.03.68,3.33s-.23,2.35-.68,3.27c-.45.92-1.1,1.62-1.94,2.11-.84.49-1.86.74-3.05.74ZM400.81,177.84c.88,0,1.58-.19,2.1-.58.52-.39.9-.92,1.12-1.6s.34-1.45.34-2.31-.11-1.66-.34-2.36-.6-1.24-1.12-1.63-1.22-.59-2.1-.59-1.53.2-2.03.59c-.5.39-.86.94-1.08,1.63-.22.69-.33,1.48-.33,2.36s.11,1.63.33,2.31c.22.68.58,1.21,1.08,1.6.5.39,1.18.58,2.03.58Z"/>
    <path d="M409.73,179.27v-11.89h1.95l.07,1.83c.37-.48.89-.93,1.57-1.36.68-.43,1.56-.64,2.62-.64,1.3,0,2.25.38,2.84,1.15.59.77.89,1.85.89,3.24v7.67h-2.04v-7.37c0-.58-.06-1.09-.18-1.54-.12-.45-.34-.8-.65-1.06-.31-.26-.77-.38-1.36-.38-.89,0-1.63.2-2.23.6-.6.4-1.09.84-1.45,1.32v8.42h-2.04Z"/>
    <path d="M427.57,179.49c-.97,0-1.81-.23-2.51-.7s-1.26-1.16-1.64-2.08c-.39-.92-.58-2.06-.58-3.42s.21-2.48.62-3.38.99-1.58,1.74-2.04c.75-.46,1.63-.69,2.65-.69.85,0,1.58.19,2.21.56.63.37,1.13.87,1.51,1.51v-6.4h2.04v16.43h-1.93l-.11-1.73c-.42.58-.97,1.05-1.63,1.41-.67.36-1.45.54-2.36.54ZM427.99,177.82c.87,0,1.59-.21,2.17-.62s1.05-.91,1.4-1.48v-4.58c-.33-.67-.77-1.22-1.31-1.65-.54-.44-1.22-.65-2.04-.65-1.08,0-1.9.39-2.45,1.16-.55.77-.82,1.87-.82,3.3s.26,2.6.78,3.37c.52.77,1.28,1.16,2.28,1.16Z"/>
    <path d="M51.23,209.47c-1.16,0-2.16-.25-2.99-.74s-1.46-1.2-1.9-2.11c-.44-.92-.65-2-.65-3.26s.22-2.4.65-3.33c.43-.92,1.07-1.63,1.9-2.13s1.83-.74,2.99-.74,2.2.25,3.05.74c.84.5,1.49,1.21,1.94,2.13.45.92.68,2.03.68,3.33s-.23,2.35-.68,3.26c-.45.92-1.1,1.62-1.94,2.11-.84.49-1.86.74-3.05.74ZM51.23,207.84c.88,0,1.58-.19,2.1-.58s.9-.92,1.12-1.6c.23-.68.34-1.45.34-2.31s-.11-1.67-.34-2.36-.6-1.23-1.12-1.63c-.52-.39-1.22-.59-2.1-.59s-1.53.2-2.03.59c-.5.4-.86.94-1.08,1.63-.22.69-.33,1.48-.33,2.36s.11,1.63.33,2.31c.22.68.58,1.21,1.08,1.6.5.39,1.18.58,2.03.58Z"/>
    <path d="M60.16,209.27v-11.89h1.95l.07,1.83c.37-.48.89-.93,1.57-1.36.68-.43,1.56-.64,2.62-.64,1.3,0,2.25.38,2.84,1.15.59.77.89,1.85.89,3.24v7.67h-2.04v-7.37c0-.58-.06-1.09-.18-1.54-.12-.45-.34-.8-.65-1.06-.31-.26-.77-.38-1.36-.38-.89,0-1.63.2-2.23.6-.6.4-1.09.84-1.45,1.32v8.42h-2.04Z"/>
    <path d="M73.18,204.11v-1.81h6.09v1.81h-6.09Z"/>
    <path d="M86.66,209.49c-.67,0-1.3-.07-1.9-.22-.6-.15-1.12-.38-1.58-.7-.46-.32-.81-.73-1.07-1.25-.26-.52-.38-1.14-.38-1.87h1.97c0,.93.29,1.58.86,1.96.57.38,1.29.57,2.15.57.77,0,1.41-.15,1.91-.45.5-.3.75-.79.75-1.47,0-.59-.23-1.02-.68-1.31-.45-.29-1.25-.56-2.39-.83-.93-.22-1.71-.47-2.34-.76s-1.11-.66-1.43-1.1-.48-1-.48-1.68c0-.53.11-1,.34-1.4.22-.4.54-.74.94-1.01.4-.27.88-.47,1.42-.6.54-.13,1.14-.2,1.77-.2s1.21.07,1.76.22c.55.15,1.03.37,1.45.68.42.31.75.71,1,1.2s.37,1.07.37,1.76h-1.98c0-.85-.25-1.44-.76-1.79s-1.12-.52-1.84-.52-1.33.13-1.78.39c-.46.26-.68.67-.68,1.22,0,.32.1.59.31.8.2.22.54.42,1.03.59s1.13.36,1.94.56c.89.21,1.63.46,2.23.76s1.06.67,1.36,1.13c.3.46.46,1.05.46,1.76,0,.62-.12,1.15-.36,1.61-.24.45-.57.82-1,1.11-.43.29-.93.5-1.5.64-.57.14-1.19.21-1.86.21Z"/>
    <path d="M95.6,195.15c-.38,0-.69-.11-.92-.34-.23-.22-.35-.51-.35-.85s.12-.62.35-.85c.23-.22.54-.34.92-.34s.69.11.93.34c.24.22.35.51.35.85s-.12.62-.35.85-.54.34-.93.34ZM94.59,209.27v-11.89h2.04v11.89h-2.04Z"/>
    <path d="M104.47,209.27c-.96,0-1.7-.15-2.21-.46-.51-.3-.86-.74-1.06-1.32-.19-.57-.29-1.26-.29-2.07v-6.4h-1.99v-1.65h1.99v-2.72h2.03v2.72h2.93v1.65h-2.93v6.3c0,.74.1,1.31.29,1.7.19.4.65.59,1.37.59h1.29v1.65h-1.43Z"/>
    <path d="M113.4,209.49c-1.29,0-2.35-.27-3.18-.81-.83-.54-1.44-1.28-1.84-2.21-.4-.93-.6-1.98-.6-3.14s.19-2.28.58-3.2c.39-.92.98-1.65,1.77-2.17.79-.52,1.8-.78,3.02-.78,1.62,0,2.89.49,3.81,1.46s1.38,2.38,1.38,4.21c0,.12,0,.27-.01.43s-.02.29-.04.36h-8.47c0,.77.13,1.48.37,2.13.24.65.62,1.17,1.14,1.56.52.39,1.21.59,2.06.59.91,0,1.62-.21,2.14-.64.51-.43.78-1.04.81-1.85h2.01c-.02.84-.24,1.56-.65,2.17-.41.61-.98,1.07-1.71,1.4-.73.33-1.6.49-2.6.49ZM109.84,202.15h6.49c-.02-1.11-.31-1.95-.87-2.54-.55-.59-1.32-.88-2.31-.88s-1.77.29-2.34.87c-.57.58-.89,1.43-.98,2.54Z"/>
    <path d="M128.67,209.27l-3.8-11.89h2.12l2.82,9.59,2.84-9.59h2.26l2.89,9.58,2.79-9.58h2l-3.8,11.89h-2.15l-2.92-9.68-2.91,9.68h-2.17Z"/>
    <path d="M149.35,209.47c-1.16,0-2.16-.25-2.99-.74s-1.46-1.2-1.9-2.11c-.44-.92-.65-2-.65-3.26s.22-2.4.65-3.33c.43-.92,1.07-1.63,1.9-2.13s1.83-.74,2.99-.74,2.2.25,3.05.74c.84.5,1.49,1.21,1.94,2.13.45.92.68,2.03.68,3.33s-.23,2.35-.68,3.26c-.45.92-1.1,1.62-1.94,2.11-.84.49-1.86.74-3.05.74ZM149.35,207.84c.88,0,1.58-.19,2.1-.58s.9-.92,1.12-1.6c.23-.68.34-1.45.34-2.31s-.11-1.67-.34-2.36-.6-1.23-1.12-1.63c-.52-.39-1.22-.59-2.1-.59s-1.53.2-2.03.59c-.5.4-.86.94-1.08,1.63-.22.69-.33,1.48-.33,2.36s.11,1.63.33,2.31c.22.68.58,1.21,1.08,1.6.5.39,1.18.58,2.03.58Z"/>
    <path d="M158.28,209.27v-11.89h1.92l.07,2.03c.33-.62.8-1.13,1.39-1.55.59-.41,1.37-.62,2.32-.62h.24v1.87h-.28c-.59,0-1.11.08-1.56.23-.45.15-.84.37-1.17.64-.33.27-.63.59-.89.95v8.35h-2.04Z"/>
    <path d="M166.64,209.27v-16.43h2.04v10.14l5.37-5.6h2.4l-5.37,5.57,5.86,6.32h-2.54l-5.72-6.18v6.18h-2.04Z"/>
    <path d="M182.68,209.49c-.67,0-1.3-.07-1.9-.22-.6-.15-1.12-.38-1.58-.7-.46-.32-.81-.73-1.07-1.25-.26-.52-.38-1.14-.38-1.87h1.97c0,.93.29,1.58.86,1.96.57.38,1.29.57,2.15.57.77,0,1.41-.15,1.91-.45.5-.3.75-.79.75-1.47,0-.59-.23-1.02-.68-1.31-.45-.29-1.25-.56-2.39-.83-.93-.22-1.71-.47-2.34-.76s-1.11-.66-1.43-1.1-.48-1-.48-1.68c0-.53.11-1,.34-1.4.22-.4.54-.74.94-1.01.4-.27.88-.47,1.42-.6.54-.13,1.14-.2,1.77-.2s1.21.07,1.76.22c.55.15,1.03.37,1.45.68.42.31.75.71,1,1.2s.37,1.07.37,1.76h-1.98c0-.85-.25-1.44-.76-1.79s-1.12-.52-1.84-.52-1.33.13-1.78.39c-.46.26-.68.67-.68,1.22,0,.32.1.59.31.8.2.22.54.42,1.03.59s1.13.36,1.94.56c.89.21,1.63.46,2.23.76s1.06.67,1.36,1.13c.3.46.46,1.05.46,1.76,0,.62-.12,1.15-.36,1.61-.24.45-.57.82-1,1.11-.43.29-.93.5-1.5.64-.57.14-1.19.21-1.86.21Z"/>
    <path d="M190.61,209.27v-16.43h2.03v6.37c.37-.48.89-.93,1.57-1.36.68-.43,1.55-.64,2.61-.64,1.33,0,2.29.38,2.88,1.15.58.76.87,1.85.87,3.25v7.67h-2.04v-7.38c0-.57-.06-1.08-.18-1.53-.12-.45-.34-.8-.65-1.06-.32-.26-.77-.38-1.37-.38-.89,0-1.63.2-2.23.6-.6.4-1.09.84-1.45,1.32v8.42h-2.04Z"/>
    <path d="M209.26,209.47c-1.16,0-2.16-.25-2.99-.74s-1.46-1.2-1.9-2.11c-.44-.92-.65-2-.65-3.26s.22-2.4.65-3.33c.43-.92,1.07-1.63,1.9-2.13s1.83-.74,2.99-.74,2.2.25,3.05.74c.84.5,1.49,1.21,1.94,2.13.45.92.68,2.03.68,3.33s-.23,2.35-.68,3.26c-.45.92-1.1,1.62-1.94,2.11-.84.49-1.86.74-3.05.74ZM209.26,207.84c.88,0,1.58-.19,2.1-.58s.9-.92,1.12-1.6c.23-.68.34-1.45.34-2.31s-.11-1.67-.34-2.36-.6-1.23-1.12-1.63c-.52-.39-1.22-.59-2.1-.59s-1.53.2-2.03.59c-.5.4-.86.94-1.08,1.63-.22.69-.33,1.48-.33,2.36s.11,1.63.33,2.31c.22.68.58,1.21,1.08,1.6.5.39,1.18.58,2.03.58Z"/>
    <path d="M218.19,213.64v-16.26h1.98l.06,1.94c.42-.63.97-1.15,1.64-1.55.67-.4,1.45-.6,2.34-.6.98,0,1.82.23,2.53.69.71.46,1.26,1.15,1.64,2.06.39.91.58,2.05.58,3.41s-.21,2.47-.62,3.39c-.41.92-.99,1.61-1.74,2.08-.75.47-1.63.7-2.64.7-.85,0-1.59-.17-2.22-.51-.63-.34-1.14-.8-1.53-1.38v6.04h-2.03ZM223.58,207.82c1.08,0,1.9-.39,2.45-1.17.55-.78.82-1.89.82-3.33s-.26-2.57-.77-3.34c-.51-.77-1.27-1.16-2.26-1.16-.87,0-1.61.23-2.2.7-.6.46-1.06,1.01-1.4,1.62v4.59c.33.62.76,1.12,1.32,1.51s1.23.58,2.04.58Z"/>
    <path d="M240.36,209.49c-.68,0-1.31-.13-1.87-.39s-1.02-.64-1.35-1.15c-.34-.51-.51-1.14-.51-1.89,0-1.07.33-1.88,1-2.43s1.61-.93,2.83-1.13,2.65-.31,4.29-.32v-.83c0-1.02-.25-1.72-.76-2.09-.5-.38-1.14-.57-1.92-.57-.82,0-1.51.21-2.08.62s-.84,1.07-.84,1.96h-1.98c0-.98.21-1.77.63-2.37.42-.6,1-1.04,1.73-1.32.74-.28,1.58-.42,2.53-.42.61,0,1.19.06,1.75.17.56.11,1.06.32,1.5.62s.8.72,1.06,1.26c.26.54.39,1.24.39,2.09v7.95h-1.9l-.08-1.81c-.54.61-1.18,1.1-1.9,1.47-.72.37-1.56.56-2.52.56ZM240.89,207.93c.81,0,1.55-.19,2.2-.57.65-.38,1.2-.87,1.64-1.45v-2.42c-2.17.02-3.72.23-4.66.61-.94.38-1.41,1.01-1.41,1.88,0,.59.19,1.07.57,1.42.38.35.93.53,1.67.53Z"/>
    <path d="M254.32,209.27c-.96,0-1.7-.15-2.21-.46-.51-.3-.86-.74-1.06-1.32-.19-.57-.29-1.26-.29-2.07v-6.4h-1.99v-1.65h1.99v-2.72h2.03v2.72h2.93v1.65h-2.93v6.3c0,.74.1,1.31.29,1.7.19.4.65.59,1.37.59h1.29v1.65h-1.43Z"/>
    <path d="M268.74,209.49c-1.17,0-2.23-.18-3.17-.54-.94-.36-1.69-.92-2.25-1.68s-.84-1.76-.84-2.98h2.21c0,.87.19,1.55.57,2.05.38.5.88.85,1.51,1.05.63.2,1.31.31,2.06.31.69,0,1.32-.1,1.9-.31.57-.21,1.03-.52,1.37-.94.34-.42.51-.96.51-1.62,0-.57-.13-1.04-.4-1.4-.27-.37-.71-.68-1.34-.96-.62-.27-1.46-.54-2.51-.81-1.24-.33-2.25-.68-3.05-1.07-.8-.39-1.39-.87-1.78-1.45s-.58-1.31-.58-2.2c0-.94.22-1.72.66-2.36.44-.64,1.07-1.12,1.89-1.46.82-.33,1.8-.5,2.93-.5,1.06,0,2.03.17,2.91.51s1.58.85,2.11,1.54c.53.68.79,1.53.79,2.55h-2.2c0-.93-.33-1.63-1.03-2.11-.69-.48-1.55-.71-2.56-.71s-1.87.21-2.45.63-.87,1.03-.87,1.84c0,.48.13.88.38,1.2.25.32.69.61,1.3.87s1.47.53,2.57.82c1.27.34,2.3.71,3.09,1.1.79.39,1.38.89,1.75,1.5s.56,1.41.56,2.41c0,1.06-.26,1.93-.79,2.63-.53.7-1.25,1.22-2.16,1.57-.91.35-1.94.52-3.09.52Z"/>
    <path d="M275.77,209.27l6.15-16.43h2.32l6.07,16.43h-2.27l-1.56-4.6h-6.81l-1.64,4.6h-2.26ZM280.26,202.83h5.59l-2.78-7.8-2.81,7.8Z"/>
    <path d="M292.55,209.27v-16.43h5.93c1.02,0,1.93.19,2.75.58.81.39,1.46.96,1.93,1.71.47.75.71,1.67.71,2.76s-.24,1.96-.71,2.69c-.47.72-1.11,1.27-1.93,1.65-.81.37-1.73.56-2.75.56h-3.74v6.48h-2.2ZM294.75,200.97h3.56c.99,0,1.8-.25,2.41-.76.61-.51.92-1.28.92-2.31,0-1.11-.31-1.92-.93-2.45-.62-.53-1.42-.79-2.4-.79h-3.56v6.32Z"/>
    <path d="M312.89,195.15c-.38,0-.69-.11-.92-.34-.23-.22-.35-.51-.35-.85s.12-.62.35-.85c.23-.22.54-.34.92-.34s.69.11.93.34c.24.22.35.51.35.85s-.12.62-.35.85-.54.34-.93.34ZM311.88,209.27v-11.89h2.04v11.89h-2.04Z"/>
    <path d="M317.85,209.27v-11.89h1.95l.07,1.83c.37-.48.89-.93,1.57-1.36.68-.43,1.56-.64,2.62-.64,1.3,0,2.25.38,2.84,1.15.59.77.89,1.85.89,3.24v7.67h-2.04v-7.37c0-.58-.06-1.09-.18-1.54-.12-.45-.34-.8-.65-1.06-.31-.26-.77-.38-1.36-.38-.89,0-1.63.2-2.23.6-.6.4-1.09.84-1.45,1.32v8.42h-2.04Z"/>
    <path d="M339.57,209.27l-4.81-16.43h2.31l3.71,13.71,3.92-13.71h2.45l3.93,13.71,3.73-13.71h2.2l-4.8,16.43h-2.29l-4.04-13.89-3.98,13.89h-2.33Z"/>
    <path d="M361.03,209.49c-.68,0-1.31-.13-1.87-.39s-1.02-.64-1.35-1.15c-.34-.51-.51-1.14-.51-1.89,0-1.07.33-1.88,1-2.43s1.61-.93,2.83-1.13,2.65-.31,4.29-.32v-.83c0-1.02-.25-1.72-.76-2.09-.5-.38-1.14-.57-1.92-.57-.82,0-1.51.21-2.08.62s-.84,1.07-.84,1.96h-1.98c0-.98.21-1.77.63-2.37.42-.6,1-1.04,1.73-1.32.74-.28,1.58-.42,2.53-.42.61,0,1.19.06,1.75.17.56.11,1.06.32,1.5.62s.8.72,1.06,1.26c.26.54.39,1.24.39,2.09v7.95h-1.9l-.08-1.81c-.54.61-1.18,1.1-1.9,1.47-.72.37-1.56.56-2.52.56ZM361.57,207.93c.81,0,1.55-.19,2.2-.57.65-.38,1.2-.87,1.64-1.45v-2.42c-2.17.02-3.72.23-4.66.61-.94.38-1.41,1.01-1.41,1.88,0,.59.19,1.07.57,1.42.38.35.93.53,1.67.53Z"/>
    <path d="M374.67,209.27c-.97,0-1.71-.15-2.22-.46-.51-.3-.86-.74-1.05-1.32-.19-.57-.28-1.26-.28-2.07v-12.58h2.03v12.49c0,.74.1,1.31.29,1.7.19.39.65.59,1.37.59h.55v1.66h-.68Z"/>
    <path d="M380.96,209.27c-.97,0-1.71-.15-2.22-.46-.51-.3-.86-.74-1.05-1.32-.19-.57-.28-1.26-.28-2.07v-12.58h2.03v12.49c0,.74.1,1.31.29,1.7.19.39.65.59,1.37.59h.55v1.66h-.68Z"/>
    <path d="M388.11,209.49c-.97,0-1.81-.23-2.51-.7-.71-.46-1.26-1.16-1.64-2.08-.39-.92-.58-2.06-.58-3.42s.21-2.48.62-3.38c.41-.9.99-1.58,1.74-2.04.75-.46,1.63-.69,2.65-.69.85,0,1.58.19,2.21.56.63.37,1.13.87,1.51,1.51v-6.4h2.04v16.43h-1.93l-.11-1.73c-.42.58-.97,1.05-1.63,1.41-.67.36-1.45.54-2.36.54ZM388.52,207.82c.87,0,1.59-.21,2.17-.62.58-.41,1.05-.91,1.4-1.48v-4.58c-.33-.67-.77-1.22-1.31-1.65-.54-.43-1.22-.65-2.04-.65-1.08,0-1.9.39-2.45,1.16-.55.77-.82,1.87-.82,3.3s.26,2.6.78,3.37c.52.77,1.28,1.16,2.28,1.16Z"/>
    <path d="M402.93,209.47c-1.16,0-2.16-.25-2.99-.74s-1.46-1.2-1.9-2.11c-.44-.92-.65-2-.65-3.26s.22-2.4.65-3.33c.43-.92,1.07-1.63,1.9-2.13s1.83-.74,2.99-.74,2.2.25,3.05.74c.84.5,1.49,1.21,1.94,2.13.45.92.68,2.03.68,3.33s-.23,2.35-.68,3.26c-.45.92-1.1,1.62-1.94,2.11-.84.49-1.86.74-3.05.74ZM402.93,207.84c.88,0,1.58-.19,2.1-.58s.9-.92,1.12-1.6c.23-.68.34-1.45.34-2.31s-.11-1.67-.34-2.36-.6-1.23-1.12-1.63c-.52-.39-1.22-.59-2.1-.59s-1.53.2-2.03.59c-.5.4-.86.94-1.08,1.63-.22.69-.33,1.48-.33,2.36s.11,1.63.33,2.31c.22.68.58,1.21,1.08,1.6.5.39,1.18.58,2.03.58Z"/>
    <path d="M411.85,209.27v-11.89h1.92l.07,2.03c.33-.62.8-1.13,1.39-1.55.59-.41,1.37-.62,2.32-.62h.24v1.87h-.28c-.59,0-1.11.08-1.56.23-.45.15-.84.37-1.17.64-.33.27-.63.59-.89.95v8.35h-2.04Z"/>
    <path d="M420.65,209.27v-10.24h-1.99v-1.65h1.99v-.68c0-.6.05-1.14.15-1.62.1-.48.28-.88.54-1.21.26-.33.61-.58,1.07-.76.46-.17,1.06-.26,1.79-.26h1.23v1.6h-1.1c-.72,0-1.18.2-1.37.59s-.29.96-.29,1.7v.66h2.77v1.65h-2.77v10.24h-2.03Z"/>
    <path d="M428.39,209.39c-.46,0-.83-.15-1.14-.45-.3-.3-.45-.66-.45-1.09s.15-.82.45-1.1c.3-.29.68-.43,1.14-.43s.82.14,1.11.43.44.66.44,1.1-.15.8-.44,1.09-.66.45-1.11.45Z"/>
  </g>
</svg>