<?xml version="1.0" encoding="UTF-8"?>
<svg id="Layer_1" data-name="Layer 1" xmlns="http://www.w3.org/2000/svg" width="764" height="400" xmlns:xlink="http://www.w3.org/1999/xlink" viewBox="0 0 764 400">
  <defs>
    <linearGradient id="linear-gradient" x1="258.18" y1="113.09" x2="527.85" y2="113.09" gradientTransform="translate(13.84 21.75)" gradientUnits="userSpaceOnUse">
      <stop offset=".32" stop-color="#30ba78"/>
      <stop offset=".35" stop-color="#44c085"/>
      <stop offset=".44" stop-color="#93dbb9"/>
      <stop offset=".52" stop-color="#cdeede"/>
      <stop offset=".58" stop-color="#f1faf6"/>
      <stop offset=".61" stop-color="#fff"/>
    </linearGradient>
    <linearGradient id="linear-gradient-2" x1="0" y1="397.63" x2="764" y2="397.63" gradientUnits="userSpaceOnUse">
      <stop offset="0" stop-color="#0f6bff"/>
      <stop offset="1" stop-color="#000025"/>
    </linearGradient>
  </defs>
  <polyline points="0 0 764 0 764 400 0 400" fill="#fff"/>
  <rect x="272.02" y="47.71" width="269.67" height="174.26" transform="translate(541.69 -272.02) rotate(90)" fill="url(#linear-gradient)"/>
  <g>
    <path d="M43.5,235.08l-4.87-16.43h3.55l3.12,12.35,3.28-12.35h3.44l3.31,12.35,3.12-12.35h3.5l-4.91,16.43h-3.56l-3.22-12.27-3.19,12.27h-3.59Z"/>
    <path d="M68.4,235.3c-1.33,0-2.44-.25-3.35-.74-.9-.49-1.59-1.2-2.05-2.13-.46-.93-.7-2.04-.7-3.34s.23-2.35.68-3.26c.45-.91,1.11-1.61,1.99-2.11s1.95-.74,3.23-.74c1.77,0,3.17.52,4.21,1.56,1.03,1.04,1.54,2.52,1.54,4.44,0,.1,0,.23-.01.4,0,.17-.02.29-.04.38h-8.36c.02.56.12,1.09.31,1.57s.5.88.91,1.18c.42.3.96.45,1.64.45s1.26-.15,1.68-.46c.42-.3.64-.76.65-1.36h3.19c-.04.93-.3,1.7-.76,2.32s-1.11,1.08-1.92,1.39c-.81.3-1.76.46-2.84.46ZM65.58,227.71h5.16c-.03-.83-.27-1.45-.74-1.86-.47-.41-1.07-.62-1.8-.62s-1.36.21-1.84.63c-.48.42-.74,1.04-.79,1.84Z"/>
    <path d="M83.96,235.08l-3.75-11.91h3.28l2.29,8.41,2.29-8.41h3.39l2.34,8.4,2.26-8.4h3.06l-3.75,11.91h-3.31l-2.4-8.57-2.43,8.57h-3.29Z"/>
    <path d="M106.17,235.3c-1.33,0-2.44-.25-3.35-.74-.9-.49-1.59-1.2-2.05-2.13-.46-.93-.7-2.04-.7-3.34s.23-2.35.68-3.26c.45-.91,1.11-1.61,1.99-2.11s1.95-.74,3.23-.74c1.77,0,3.17.52,4.21,1.56,1.03,1.04,1.54,2.52,1.54,4.44,0,.1,0,.23-.01.4,0,.17-.02.29-.04.38h-8.36c.02.56.12,1.09.31,1.57s.5.88.91,1.18c.42.3.96.45,1.64.45s1.26-.15,1.68-.46c.42-.3.64-.76.65-1.36h3.19c-.04.93-.3,1.7-.76,2.32s-1.11,1.08-1.92,1.39c-.81.3-1.76.46-2.84.46ZM103.35,227.71h5.16c-.03-.83-.27-1.45-.74-1.86-.47-.41-1.07-.62-1.8-.62s-1.36.21-1.84.63c-.48.42-.74,1.04-.79,1.84Z"/>
    <path d="M119.06,235.08c-1.21,0-2.15-.14-2.81-.43s-1.12-.74-1.38-1.34c-.26-.61-.39-1.4-.39-2.37v-12.28h3.22v12.09c0,.63.09,1.09.26,1.38s.57.44,1.2.44h.74v2.53h-.84Z"/>
    <path d="M127.33,235.25c-1.11,0-2.11-.21-3.02-.63-.9-.42-1.62-1.08-2.15-1.98-.53-.9-.79-2.05-.79-3.47s.25-2.58.76-3.49c.5-.91,1.21-1.59,2.11-2.03.9-.44,1.93-.67,3.09-.67,1.01,0,1.92.17,2.73.5.81.33,1.46.83,1.94,1.5.48.66.72,1.5.73,2.51h-3.14c-.02-.61-.22-1.1-.61-1.46-.39-.36-.94-.54-1.65-.54-.94,0-1.61.32-2.03.96s-.63,1.55-.63,2.72c0,.76.09,1.4.27,1.93.18.53.47.94.87,1.22.39.28.9.42,1.52.42.72,0,1.3-.2,1.72-.59.42-.39.64-.95.65-1.68h3.14c-.02,1.03-.27,1.9-.75,2.61-.48.71-1.12,1.25-1.95,1.61-.82.37-1.76.55-2.82.55Z"/>
    <path d="M141.12,235.27c-1.2,0-2.26-.24-3.17-.72-.91-.48-1.61-1.18-2.11-2.09-.5-.91-.74-2.01-.74-3.31s.25-2.44.74-3.36c.5-.92,1.2-1.63,2.11-2.11.91-.48,1.96-.73,3.17-.73s2.29.24,3.19.73c.91.48,1.61,1.19,2.12,2.11.5.92.76,2.04.76,3.36s-.25,2.4-.76,3.31c-.5.91-1.21,1.61-2.12,2.09s-1.97.72-3.19.72ZM141.12,232.81c.71,0,1.26-.16,1.67-.49.4-.33.69-.77.85-1.32.17-.55.25-1.16.25-1.83s-.08-1.31-.25-1.87c-.17-.56-.45-1.01-.85-1.34-.4-.33-.96-.5-1.67-.5s-1.23.17-1.63.5c-.4.33-.67.78-.84,1.34-.16.56-.24,1.18-.24,1.87s.08,1.28.24,1.83c.16.55.44.99.84,1.32.39.33.94.49,1.63.49Z"/>
    <path d="M150.04,235.08v-11.91h3.11l.06,1.78c.39-.51.93-.97,1.62-1.36.69-.39,1.54-.59,2.55-.59,1.2,0,2.11.38,2.75,1.13.64.75.96,1.82.96,3.21v7.75h-3.24v-7.34c0-.43-.06-.81-.18-1.14-.12-.32-.31-.58-.57-.76-.26-.18-.61-.27-1.03-.27-.63,0-1.16.15-1.61.45-.45.3-.84.67-1.18,1.1v7.95h-3.24ZM165.68,235.08v-7.34c0-.43-.06-.81-.18-1.14-.12-.32-.31-.58-.57-.76-.26-.18-.61-.27-1.03-.27-.63,0-1.17.14-1.62.42-.45.28-.86.62-1.21,1.04l-.39-2c.51-.54,1.14-1.02,1.89-1.43.74-.41,1.62-.61,2.63-.61,1.19,0,2.11.38,2.75,1.13.65.75.97,1.82.97,3.21v7.75h-3.23Z"/>
    <path d="M177.75,235.3c-1.33,0-2.44-.25-3.35-.74-.9-.49-1.59-1.2-2.05-2.13-.46-.93-.7-2.04-.7-3.34s.23-2.35.68-3.26c.45-.91,1.11-1.61,1.99-2.11s1.95-.74,3.23-.74c1.77,0,3.17.52,4.21,1.56,1.03,1.04,1.54,2.52,1.54,4.44,0,.1,0,.23-.01.4,0,.17-.02.29-.04.38h-8.36c.02.56.12,1.09.31,1.57s.5.88.91,1.18c.42.3.96.45,1.64.45s1.26-.15,1.68-.46c.42-.3.64-.76.65-1.36h3.19c-.04.93-.3,1.7-.76,2.32s-1.11,1.08-1.92,1.39c-.81.3-1.76.46-2.84.46ZM174.93,227.71h5.16c-.03-.83-.27-1.45-.74-1.86-.47-.41-1.07-.62-1.8-.62s-1.36.21-1.84.63c-.48.42-.74,1.04-.79,1.84Z"/>
    <path d="M197.06,235.3c-1.25,0-2.37-.18-3.36-.53-1-.35-1.79-.92-2.37-1.69s-.88-1.78-.88-3.03h3.52c.02.63.16,1.13.44,1.49.28.36.65.62,1.12.78.47.16,1,.23,1.61.23s1.09-.07,1.53-.21.78-.35,1.03-.64c.25-.29.37-.66.37-1.11s-.11-.79-.32-1.07c-.21-.28-.59-.54-1.12-.77-.54-.23-1.29-.48-2.26-.75-1.13-.33-2.11-.68-2.94-1.07-.83-.39-1.46-.89-1.92-1.51-.45-.62-.68-1.42-.68-2.42,0-1.07.26-1.93.77-2.61s1.23-1.17,2.14-1.48c.91-.32,1.96-.48,3.14-.48s2.15.17,3.09.51c.94.34,1.69.86,2.25,1.56.56.7.84,1.59.84,2.67h-3.52c0-.7-.25-1.22-.78-1.57s-1.16-.52-1.9-.52-1.34.14-1.82.41c-.48.27-.72.69-.72,1.26,0,.33.1.61.31.86.2.25.58.49,1.13.73.55.24,1.34.51,2.39.81,1.24.37,2.27.75,3.06,1.15.8.4,1.39.92,1.78,1.56.39.64.58,1.48.58,2.52,0,1.16-.29,2.1-.86,2.82-.57.72-1.34,1.24-2.33,1.57s-2.09.5-3.33.5Z"/>
    <path d="M213.05,235.3c-1.61,0-2.93-.26-3.96-.78-1.03-.52-1.78-1.28-2.26-2.29s-.72-2.24-.72-3.69v-9.9h3.52v9.81c0,1.35.28,2.36.83,3.02.55.66,1.42.99,2.61.99s2.06-.33,2.59-.99c.53-.66.8-1.66.8-3.02v-9.81h3.53v9.9c0,1.45-.24,2.68-.72,3.69-.48,1.01-1.23,1.77-2.25,2.29-1.02.52-2.35.78-3.97.78Z"/>
    <path d="M229.18,235.3c-1.25,0-2.37-.18-3.36-.53-1-.35-1.79-.92-2.37-1.69s-.88-1.78-.88-3.03h3.52c.02.63.16,1.13.44,1.49.28.36.65.62,1.12.78.47.16,1,.23,1.61.23s1.09-.07,1.53-.21.78-.35,1.03-.64c.25-.29.37-.66.37-1.11s-.11-.79-.32-1.07c-.21-.28-.59-.54-1.12-.77-.54-.23-1.29-.48-2.26-.75-1.13-.33-2.11-.68-2.94-1.07-.83-.39-1.46-.89-1.92-1.51-.45-.62-.68-1.42-.68-2.42,0-1.07.26-1.93.77-2.61s1.23-1.17,2.14-1.48c.91-.32,1.96-.48,3.14-.48s2.15.17,3.09.51c.94.34,1.69.86,2.25,1.56.56.7.84,1.59.84,2.67h-3.52c0-.7-.25-1.22-.78-1.57s-1.16-.52-1.9-.52-1.34.14-1.82.41c-.48.27-.72.69-.72,1.26,0,.33.1.61.31.86.2.25.58.49,1.13.73.55.24,1.34.51,2.39.81,1.24.37,2.27.75,3.06,1.15.8.4,1.39.92,1.78,1.56.39.64.58,1.48.58,2.52,0,1.16-.29,2.1-.86,2.82-.57.72-1.34,1.24-2.33,1.57s-2.09.5-3.33.5Z"/>
    <path d="M238.55,235.08v-16.43h11.02v2.84h-7.59v3.82h6.88v2.75h-6.88v4.17h7.59v2.84h-11.02Z"/>
    <path d="M262.82,235.08c-1.21,0-2.14-.14-2.8-.43-.66-.29-1.12-.74-1.39-1.34-.26-.61-.39-1.4-.39-2.37v-5.27h-1.98v-2.49h1.98v-2.81h3.23v2.81h2.6v2.49h-2.6v5.08c0,.63.09,1.09.26,1.39.17.3.57.45,1.19.45h1.15v2.5h-1.26Z"/>
    <path d="M271.9,235.27c-1.2,0-2.26-.24-3.17-.72-.91-.48-1.61-1.18-2.11-2.09-.5-.91-.74-2.01-.74-3.31s.25-2.44.74-3.36c.5-.92,1.2-1.63,2.11-2.11.91-.48,1.96-.73,3.17-.73s2.29.24,3.19.73c.91.48,1.61,1.19,2.12,2.11.5.92.76,2.04.76,3.36s-.25,2.4-.76,3.31c-.5.91-1.21,1.61-2.12,2.09s-1.97.72-3.19.72ZM271.9,232.81c.71,0,1.26-.16,1.67-.49.4-.33.69-.77.85-1.32.17-.55.25-1.16.25-1.83s-.08-1.31-.25-1.87c-.17-.56-.45-1.01-.85-1.34-.4-.33-.96-.5-1.67-.5s-1.23.17-1.63.5c-.4.33-.67.78-.84,1.34-.16.56-.24,1.18-.24,1.87s.08,1.28.24,1.83c.16.55.44.99.84,1.32.39.33.94.49,1.63.49Z"/>
    <path d="M286.13,235.08v-16.43h3.36l7.56,11.07v-11.07h3.23v16.43h-3.37l-7.57-11.15v11.15h-3.21Z"/>
    <path d="M309.45,235.3c-1.33,0-2.44-.25-3.35-.74-.9-.49-1.59-1.2-2.05-2.13-.46-.93-.7-2.04-.7-3.34s.23-2.35.68-3.26c.45-.91,1.11-1.61,1.99-2.11s1.95-.74,3.23-.74c1.77,0,3.17.52,4.21,1.56,1.03,1.04,1.54,2.52,1.54,4.44,0,.1,0,.23-.01.4,0,.17-.02.29-.04.38h-8.36c.02.56.12,1.09.31,1.57s.5.88.91,1.18c.42.3.96.45,1.64.45s1.26-.15,1.68-.46c.42-.3.64-.76.65-1.36h3.19c-.04.93-.3,1.7-.76,2.32s-1.11,1.08-1.92,1.39c-.81.3-1.76.46-2.84.46ZM306.63,227.71h5.16c-.03-.83-.27-1.45-.74-1.86-.47-.41-1.07-.62-1.8-.62s-1.36.21-1.84.63c-.48.42-.74,1.04-.79,1.84Z"/>
    <path d="M323.28,235.27c-1.2,0-2.26-.24-3.17-.72-.91-.48-1.61-1.18-2.11-2.09-.5-.91-.74-2.01-.74-3.31s.25-2.44.74-3.36c.5-.92,1.2-1.63,2.11-2.11.91-.48,1.96-.73,3.17-.73s2.29.24,3.19.73c.91.48,1.61,1.19,2.12,2.11.5.92.76,2.04.76,3.36s-.25,2.4-.76,3.31c-.5.91-1.21,1.61-2.12,2.09s-1.97.72-3.19.72ZM323.28,232.81c.71,0,1.26-.16,1.67-.49.4-.33.69-.77.85-1.32.17-.55.25-1.16.25-1.83s-.08-1.31-.25-1.87c-.17-.56-.45-1.01-.85-1.34-.4-.33-.96-.5-1.67-.5s-1.23.17-1.63.5c-.4.33-.67.78-.84,1.34-.16.56-.24,1.18-.24,1.87s.08,1.28.24,1.83c.16.55.44.99.84,1.32.39.33.94.49,1.63.49Z"/>
    <path d="M332.44,235.08v-16.43h3.36l7.56,11.07v-11.07h3.23v16.43h-3.37l-7.57-11.15v11.15h-3.21Z"/>
    <path d="M355.75,235.3c-1.33,0-2.44-.25-3.35-.74-.9-.49-1.59-1.2-2.05-2.13-.46-.93-.7-2.04-.7-3.34s.23-2.35.68-3.26c.45-.91,1.11-1.61,1.99-2.11s1.95-.74,3.23-.74c1.77,0,3.17.52,4.21,1.56,1.03,1.04,1.54,2.52,1.54,4.44,0,.1,0,.23-.01.4,0,.17-.02.29-.04.38h-8.36c.02.56.12,1.09.31,1.57s.5.88.91,1.18c.42.3.96.45,1.64.45s1.26-.15,1.68-.46c.42-.3.64-.76.65-1.36h3.19c-.04.93-.3,1.7-.76,2.32s-1.11,1.08-1.92,1.39c-.81.3-1.76.46-2.84.46ZM352.93,227.71h5.16c-.03-.83-.27-1.45-.74-1.86-.47-.41-1.07-.62-1.8-.62s-1.36.21-1.84.63c-.48.42-.74,1.04-.79,1.84Z"/>
    <path d="M364.17,239.45v-16.28h3.05l.18,1.82c.44-.64.97-1.14,1.59-1.48.62-.35,1.35-.52,2.2-.52.93,0,1.75.22,2.47.67.72.45,1.29,1.13,1.7,2.04s.62,2.08.62,3.5-.22,2.51-.67,3.41c-.44.9-1.04,1.57-1.8,2.01-.76.45-1.61.68-2.55.68-.77,0-1.46-.15-2.07-.48s-1.1-.78-1.48-1.37v5.99h-3.24ZM370.16,232.82c.81,0,1.44-.31,1.87-.94.43-.63.65-1.53.65-2.72,0-1.26-.2-2.2-.6-2.81-.4-.61-.95-.92-1.65-.92s-1.36.21-1.88.62c-.52.41-.9.86-1.12,1.35v3.52c.26.52.62.97,1.09,1.34.47.38,1.02.56,1.65.56Z"/>
    <path d="M378.83,235.08v-16.43h3.17v6.3c.4-.51.92-.97,1.58-1.36.65-.39,1.49-.59,2.51-.59,1.24,0,2.19.37,2.85,1.09.66.73,1,1.81,1,3.24v7.75h-3.23v-7.35c0-.42-.06-.8-.18-1.12-.12-.32-.31-.58-.57-.76-.26-.18-.61-.27-1.04-.27-.64,0-1.19.15-1.65.45-.46.3-.86.67-1.2,1.1v7.95h-3.24Z"/>
    <path d="M398.72,235.27c-1.2,0-2.26-.24-3.17-.72-.91-.48-1.61-1.18-2.11-2.09-.5-.91-.74-2.01-.74-3.31s.25-2.44.74-3.36c.5-.92,1.2-1.63,2.11-2.11.91-.48,1.96-.73,3.17-.73s2.29.24,3.19.73c.91.48,1.61,1.19,2.12,2.11.5.92.76,2.04.76,3.36s-.25,2.4-.76,3.31c-.5.91-1.21,1.61-2.12,2.09s-1.97.72-3.19.72ZM398.72,232.81c.71,0,1.26-.16,1.67-.49.4-.33.69-.77.85-1.32.17-.55.25-1.16.25-1.83s-.08-1.31-.25-1.87c-.17-.56-.45-1.01-.85-1.34-.4-.33-.96-.5-1.67-.5s-1.23.17-1.63.5c-.4.33-.67.78-.84,1.34-.16.56-.24,1.18-.24,1.87s.08,1.28.24,1.83c.16.55.44.99.84,1.32.39.33.94.49,1.63.49Z"/>
    <path d="M412.22,235.3c-.66,0-1.31-.06-1.94-.18s-1.21-.33-1.72-.63c-.51-.3-.92-.7-1.22-1.21-.3-.51-.45-1.15-.45-1.92h3c0,.67.23,1.13.7,1.39.47.26,1.02.39,1.64.39s1.1-.1,1.44-.3.51-.54.51-1.01c0-.45-.2-.78-.6-1-.4-.22-1.11-.44-2.12-.67-.85-.2-1.6-.45-2.26-.74s-1.18-.68-1.56-1.16c-.38-.48-.56-1.12-.56-1.91,0-.62.14-1.14.43-1.57s.67-.78,1.14-1.04c.48-.26,1.01-.46,1.61-.58.6-.12,1.21-.18,1.84-.18s1.21.06,1.79.18,1.11.33,1.59.62c.47.29.85.68,1.14,1.17s.43,1.1.43,1.83h-3c0-.61-.19-1.03-.58-1.27-.39-.24-.84-.35-1.36-.35-.56,0-1,.08-1.32.24-.32.16-.48.43-.48.81,0,.22.1.41.3.58.2.17.53.32.98.46.45.14,1.04.29,1.77.46.77.18,1.46.41,2.08.7s1.09.67,1.45,1.15c.36.48.54,1.1.54,1.87,0,.72-.15,1.32-.43,1.82-.29.5-.68.9-1.16,1.2-.48.31-1.04.53-1.66.67-.62.14-1.27.21-1.93.21Z"/>
    <path d="M43.57,265.3c-.68,0-1.31-.13-1.87-.39s-1.02-.64-1.35-1.15c-.34-.51-.51-1.14-.51-1.89,0-1.07.33-1.88,1-2.43s1.61-.93,2.83-1.13,2.65-.31,4.29-.32v-.83c0-1.02-.25-1.72-.76-2.09-.5-.38-1.14-.57-1.92-.57-.82,0-1.51.21-2.08.62s-.84,1.07-.84,1.96h-1.98c0-.98.21-1.77.63-2.37.42-.6,1-1.04,1.73-1.32.74-.28,1.58-.42,2.53-.42.61,0,1.19.06,1.75.17.56.11,1.06.32,1.5.62s.8.72,1.06,1.26c.26.54.39,1.24.39,2.09v7.95h-1.9l-.08-1.81c-.54.61-1.18,1.1-1.9,1.47-.72.37-1.56.56-2.52.56ZM44.11,263.74c.81,0,1.55-.19,2.2-.57.65-.38,1.2-.87,1.64-1.45v-2.42c-2.17.02-3.72.23-4.66.61-.94.38-1.41,1.01-1.41,1.88,0,.59.19,1.07.57,1.42.38.35.93.53,1.67.53Z"/>
    <path d="M53.79,265.08v-11.89h1.95l.07,1.83c.37-.48.89-.93,1.57-1.36.68-.43,1.56-.64,2.62-.64,1.3,0,2.25.38,2.84,1.15.59.77.89,1.85.89,3.24v7.67h-2.04v-7.37c0-.58-.06-1.09-.18-1.54-.12-.45-.34-.8-.65-1.06-.31-.26-.77-.38-1.36-.38-.89,0-1.63.2-2.23.6-.6.4-1.09.84-1.45,1.32v8.42h-2.04Z"/>
    <path d="M71.63,265.3c-.97,0-1.81-.23-2.51-.7-.71-.46-1.26-1.16-1.64-2.08-.39-.92-.58-2.06-.58-3.42s.21-2.48.62-3.38c.41-.9.99-1.58,1.74-2.04.75-.46,1.63-.69,2.65-.69.85,0,1.58.19,2.21.56.63.37,1.13.87,1.51,1.51v-6.4h2.04v16.43h-1.93l-.11-1.73c-.42.58-.97,1.05-1.63,1.41-.67.36-1.45.54-2.36.54ZM72.05,263.63c.87,0,1.59-.21,2.17-.62.58-.41,1.05-.91,1.4-1.48v-4.58c-.33-.67-.77-1.22-1.31-1.65-.54-.43-1.22-.65-2.04-.65-1.08,0-1.9.39-2.45,1.16-.55.77-.82,1.87-.82,3.3s.26,2.6.78,3.37c.52.77,1.28,1.16,2.28,1.16Z"/>
    <path d="M89.72,265.3c-.68,0-1.31-.13-1.87-.39s-1.02-.64-1.35-1.15c-.34-.51-.51-1.14-.51-1.89,0-1.07.33-1.88,1-2.43s1.61-.93,2.83-1.13,2.65-.31,4.29-.32v-.83c0-1.02-.25-1.72-.76-2.09-.5-.38-1.14-.57-1.92-.57-.82,0-1.51.21-2.08.62s-.84,1.07-.84,1.96h-1.98c0-.98.21-1.77.63-2.37.42-.6,1-1.04,1.73-1.32.74-.28,1.58-.42,2.53-.42.61,0,1.19.06,1.75.17.56.11,1.06.32,1.5.62s.8.72,1.06,1.26c.26.54.39,1.24.39,2.09v7.95h-1.9l-.08-1.81c-.54.61-1.18,1.1-1.9,1.47-.72.37-1.56.56-2.52.56ZM90.26,263.74c.81,0,1.55-.19,2.2-.57.65-.38,1.2-.87,1.64-1.45v-2.42c-2.17.02-3.72.23-4.66.61-.94.38-1.41,1.01-1.41,1.88,0,.59.19,1.07.57,1.42.38.35.93.53,1.67.53Z"/>
    <path d="M99.94,265.08v-11.89h1.92l.07,2.03c.33-.62.8-1.13,1.39-1.55.59-.41,1.37-.62,2.32-.62h.24v1.87h-.28c-.59,0-1.11.08-1.56.23-.45.15-.84.37-1.17.64-.33.27-.63.59-.89.95v8.35h-2.04Z"/>
    <path d="M112.91,265.3c-1.29,0-2.35-.27-3.18-.81-.83-.54-1.44-1.28-1.84-2.21-.4-.93-.6-1.98-.6-3.14s.19-2.28.58-3.2c.39-.92.98-1.65,1.77-2.17.79-.52,1.8-.78,3.02-.78,1.62,0,2.89.49,3.81,1.46s1.38,2.38,1.38,4.21c0,.12,0,.27-.01.43s-.02.29-.04.36h-8.47c0,.77.13,1.48.37,2.13.24.65.62,1.17,1.14,1.56.52.39,1.21.59,2.06.59.91,0,1.62-.21,2.14-.64.51-.43.78-1.04.81-1.85h2.01c-.02.84-.24,1.56-.65,2.17-.41.61-.98,1.07-1.71,1.4-.73.33-1.6.49-2.6.49ZM109.34,257.96h6.49c-.02-1.11-.31-1.95-.87-2.54-.55-.59-1.32-.88-2.31-.88s-1.77.29-2.34.87c-.57.58-.89,1.43-.98,2.54Z"/>
    <path d="M131.16,265.3c-1.29,0-2.35-.27-3.18-.81-.83-.54-1.44-1.28-1.84-2.21-.4-.93-.6-1.98-.6-3.14s.19-2.28.58-3.2c.39-.92.98-1.65,1.77-2.17.79-.52,1.8-.78,3.02-.78,1.62,0,2.89.49,3.81,1.46s1.38,2.38,1.38,4.21c0,.12,0,.27-.01.43s-.02.29-.04.36h-8.47c0,.77.13,1.48.37,2.13.24.65.62,1.17,1.14,1.56.52.39,1.21.59,2.06.59.91,0,1.62-.21,2.14-.64.51-.43.78-1.04.81-1.85h2.01c-.02.84-.24,1.56-.65,2.17-.41.61-.98,1.07-1.71,1.4-.73.33-1.6.49-2.6.49ZM127.59,257.96h6.49c-.02-1.11-.31-1.95-.87-2.54-.55-.59-1.32-.88-2.31-.88s-1.77.29-2.34.87c-.57.58-.89,1.43-.98,2.54Z"/>
    <path d="M137.15,265.08l4.37-6.46.87-.67,3.03-4.76h2.18l-4.08,5.98-.78.65-3.43,5.26h-2.16ZM145.82,265.08l-3.44-5.26-.8-.63-4.03-5.99h2.19l3.02,4.76.82.6,4.43,6.53h-2.17Z"/>
    <path d="M154.49,265.29c-1.07,0-2.03-.23-2.86-.68-.83-.45-1.48-1.13-1.95-2.04-.47-.91-.7-2.04-.7-3.41s.23-2.51.69-3.42c.46-.92,1.1-1.6,1.93-2.06s1.79-.69,2.89-.69c.92,0,1.75.15,2.48.45s1.32.75,1.76,1.36.67,1.37.7,2.3h-2.01c-.05-.76-.33-1.37-.83-1.81-.5-.44-1.19-.66-2.06-.66-1.16,0-2.02.4-2.59,1.19-.57.79-.85,1.91-.85,3.34,0,.95.13,1.76.38,2.42.25.66.63,1.17,1.15,1.53.51.35,1.15.53,1.92.53.87,0,1.58-.23,2.12-.68.54-.45.83-1.11.85-1.98h2.01c-.02.96-.26,1.76-.7,2.4-.44.64-1.04,1.12-1.79,1.43s-1.6.48-2.53.48Z"/>
    <path d="M163.8,250.96c-.38,0-.69-.11-.92-.34-.23-.22-.35-.51-.35-.85s.12-.62.35-.85c.23-.22.54-.34.92-.34s.69.11.93.34c.24.22.35.51.35.85s-.12.62-.35.85-.54.34-.93.34ZM162.78,265.08v-11.89h2.04v11.89h-2.04Z"/>
    <path d="M172.66,265.08c-.96,0-1.7-.15-2.21-.46-.51-.3-.86-.74-1.06-1.32-.19-.57-.29-1.26-.29-2.07v-6.4h-1.99v-1.65h1.99v-2.72h2.03v2.72h2.93v1.65h-2.93v6.3c0,.74.1,1.31.29,1.7.19.4.65.59,1.37.59h1.29v1.65h-1.43Z"/>
    <path d="M181.59,265.3c-1.29,0-2.35-.27-3.18-.81-.83-.54-1.44-1.28-1.84-2.21-.4-.93-.6-1.98-.6-3.14s.19-2.28.58-3.2c.39-.92.98-1.65,1.77-2.17.79-.52,1.8-.78,3.02-.78,1.62,0,2.89.49,3.81,1.46s1.38,2.38,1.38,4.21c0,.12,0,.27-.01.43s-.02.29-.04.36h-8.47c0,.77.13,1.48.37,2.13.24.65.62,1.17,1.14,1.56.52.39,1.21.59,2.06.59.91,0,1.62-.21,2.14-.64.51-.43.78-1.04.81-1.85h2.01c-.02.84-.24,1.56-.65,2.17-.41.61-.98,1.07-1.71,1.4-.73.33-1.6.49-2.6.49ZM178.03,257.96h6.49c-.02-1.11-.31-1.95-.87-2.54-.55-.59-1.32-.88-2.31-.88s-1.77.29-2.34.87c-.57.58-.89,1.43-.98,2.54Z"/>
    <path d="M193.89,265.3c-.97,0-1.81-.23-2.51-.7-.71-.46-1.26-1.16-1.64-2.08-.39-.92-.58-2.06-.58-3.42s.21-2.48.62-3.38c.41-.9.99-1.58,1.74-2.04.75-.46,1.63-.69,2.65-.69.85,0,1.58.19,2.21.56.63.37,1.13.87,1.51,1.51v-6.4h2.04v16.43h-1.93l-.11-1.73c-.42.58-.97,1.05-1.63,1.41-.67.36-1.45.54-2.36.54ZM194.3,263.63c.87,0,1.59-.21,2.17-.62.58-.41,1.05-.91,1.4-1.48v-4.58c-.33-.67-.77-1.22-1.31-1.65-.54-.43-1.22-.65-2.04-.65-1.08,0-1.9.39-2.45,1.16-.55.77-.82,1.87-.82,3.3s.26,2.6.78,3.37c.52.77,1.28,1.16,2.28,1.16Z"/>
    <path d="M212.88,265.08c-.96,0-1.7-.15-2.21-.46-.51-.3-.86-.74-1.06-1.32-.19-.57-.29-1.26-.29-2.07v-6.4h-1.99v-1.65h1.99v-2.72h2.03v2.72h2.93v1.65h-2.93v6.3c0,.74.1,1.31.29,1.7.19.4.65.59,1.37.59h1.29v1.65h-1.43Z"/>
    <path d="M221.74,265.27c-1.16,0-2.16-.25-2.99-.74s-1.46-1.2-1.9-2.11c-.44-.92-.65-2-.65-3.26s.22-2.4.65-3.33c.43-.92,1.07-1.63,1.9-2.13s1.83-.74,2.99-.74,2.2.25,3.05.74c.84.5,1.49,1.21,1.94,2.13.45.92.68,2.03.68,3.33s-.23,2.35-.68,3.26c-.45.92-1.1,1.62-1.94,2.11-.84.49-1.86.74-3.05.74ZM221.74,263.65c.88,0,1.58-.19,2.1-.58s.9-.92,1.12-1.6c.23-.68.34-1.45.34-2.31s-.11-1.67-.34-2.36-.6-1.23-1.12-1.63c-.52-.39-1.22-.59-2.1-.59s-1.53.2-2.03.59c-.5.4-.86.94-1.08,1.63-.22.69-.33,1.48-.33,2.36s.11,1.63.33,2.31c.22.68.58,1.21,1.08,1.6.5.39,1.18.58,2.03.58Z"/>
    <path d="M238.81,265.3c-.68,0-1.31-.13-1.87-.39s-1.02-.64-1.35-1.15c-.34-.51-.51-1.14-.51-1.89,0-1.07.33-1.88,1-2.43s1.61-.93,2.83-1.13,2.65-.31,4.29-.32v-.83c0-1.02-.25-1.72-.76-2.09-.5-.38-1.14-.57-1.92-.57-.82,0-1.51.21-2.08.62s-.84,1.07-.84,1.96h-1.98c0-.98.21-1.77.63-2.37.42-.6,1-1.04,1.73-1.32.74-.28,1.58-.42,2.53-.42.61,0,1.19.06,1.75.17.56.11,1.06.32,1.5.62s.8.72,1.06,1.26c.26.54.39,1.24.39,2.09v7.95h-1.9l-.08-1.81c-.54.61-1.18,1.1-1.9,1.47-.72.37-1.56.56-2.52.56ZM239.35,263.74c.81,0,1.55-.19,2.2-.57.65-.38,1.2-.87,1.64-1.45v-2.42c-2.17.02-3.72.23-4.66.61-.94.38-1.41,1.01-1.41,1.88,0,.59.19,1.07.57,1.42.38.35.93.53,1.67.53Z"/>
    <path d="M249.03,265.08v-11.89h1.95l.07,1.83c.37-.48.89-.93,1.57-1.36.68-.43,1.56-.64,2.62-.64,1.3,0,2.25.38,2.84,1.15.59.77.89,1.85.89,3.24v7.67h-2.04v-7.37c0-.58-.06-1.09-.18-1.54-.12-.45-.34-.8-.65-1.06-.31-.26-.77-.38-1.36-.38-.89,0-1.63.2-2.23.6-.6.4-1.09.84-1.45,1.32v8.42h-2.04Z"/>
    <path d="M262.81,265.08v-11.89h1.95l.07,1.83c.37-.48.89-.93,1.57-1.36.68-.43,1.56-.64,2.62-.64,1.3,0,2.25.38,2.84,1.15.59.77.89,1.85.89,3.24v7.67h-2.04v-7.37c0-.58-.06-1.09-.18-1.54-.12-.45-.34-.8-.65-1.06-.31-.26-.77-.38-1.36-.38-.89,0-1.63.2-2.23.6-.6.4-1.09.84-1.45,1.32v8.42h-2.04Z"/>
    <path d="M281.46,265.27c-1.16,0-2.16-.25-2.99-.74s-1.46-1.2-1.9-2.11c-.44-.92-.65-2-.65-3.26s.22-2.4.65-3.33c.43-.92,1.07-1.63,1.9-2.13s1.83-.74,2.99-.74,2.2.25,3.05.74c.84.5,1.49,1.21,1.94,2.13.45.92.68,2.03.68,3.33s-.23,2.35-.68,3.26c-.45.92-1.1,1.62-1.94,2.11-.84.49-1.86.74-3.05.74ZM281.46,263.65c.88,0,1.58-.19,2.1-.58s.9-.92,1.12-1.6c.23-.68.34-1.45.34-2.31s-.11-1.67-.34-2.36-.6-1.23-1.12-1.63c-.52-.39-1.22-.59-2.1-.59s-1.53.2-2.03.59c-.5.4-.86.94-1.08,1.63-.22.69-.33,1.48-.33,2.36s.11,1.63.33,2.31c.22.68.58,1.21,1.08,1.6.5.39,1.18.58,2.03.58Z"/>
    <path d="M294.01,265.26c-1.38,0-2.37-.38-2.98-1.15-.61-.76-.92-1.82-.92-3.16v-7.76h2.05v7.48c0,.54.06,1.02.18,1.44.12.42.35.75.7.99s.83.35,1.48.35c.9,0,1.64-.19,2.25-.56s1.09-.8,1.45-1.29v-8.42h2.05v11.89h-1.97l-.06-1.83c-.38.47-.92.93-1.62,1.36-.7.44-1.57.65-2.62.65Z"/>
    <path d="M304.2,265.08v-11.89h1.95l.07,1.83c.37-.48.89-.93,1.57-1.36.68-.43,1.56-.64,2.62-.64,1.3,0,2.25.38,2.84,1.15.59.77.89,1.85.89,3.24v7.67h-2.04v-7.37c0-.58-.06-1.09-.18-1.54-.12-.45-.34-.8-.65-1.06-.31-.26-.77-.38-1.36-.38-.89,0-1.63.2-2.23.6-.6.4-1.09.84-1.45,1.32v8.42h-2.04Z"/>
    <path d="M322.82,265.29c-1.07,0-2.03-.23-2.86-.68-.83-.45-1.48-1.13-1.95-2.04-.47-.91-.7-2.04-.7-3.41s.23-2.51.69-3.42c.46-.92,1.1-1.6,1.93-2.06s1.79-.69,2.89-.69c.92,0,1.75.15,2.48.45s1.32.75,1.76,1.36.67,1.37.7,2.3h-2.01c-.05-.76-.33-1.37-.83-1.81-.5-.44-1.19-.66-2.06-.66-1.16,0-2.02.4-2.59,1.19-.57.79-.85,1.91-.85,3.34,0,.95.13,1.76.38,2.42.25.66.63,1.17,1.15,1.53.51.35,1.15.53,1.92.53.87,0,1.58-.23,2.12-.68.54-.45.83-1.11.85-1.98h2.01c-.02.96-.26,1.76-.7,2.4-.44.64-1.04,1.12-1.79,1.43s-1.6.48-2.53.48Z"/>
    <path d="M336.05,265.3c-1.29,0-2.35-.27-3.18-.81-.83-.54-1.44-1.28-1.84-2.21-.4-.93-.6-1.98-.6-3.14s.19-2.28.58-3.2c.39-.92.98-1.65,1.77-2.17.79-.52,1.8-.78,3.02-.78,1.62,0,2.89.49,3.81,1.46s1.38,2.38,1.38,4.21c0,.12,0,.27-.01.43s-.02.29-.04.36h-8.47c0,.77.13,1.48.37,2.13.24.65.62,1.17,1.14,1.56.52.39,1.21.59,2.06.59.91,0,1.62-.21,2.14-.64.51-.43.78-1.04.81-1.85h2.01c-.02.84-.24,1.56-.65,2.17-.41.61-.98,1.07-1.71,1.4-.73.33-1.6.49-2.6.49ZM332.49,257.96h6.49c-.02-1.11-.31-1.95-.87-2.54-.55-.59-1.32-.88-2.31-.88s-1.77.29-2.34.87c-.57.58-.89,1.43-.98,2.54Z"/>
    <path d="M353.32,265.08c-.96,0-1.7-.15-2.21-.46-.51-.3-.86-.74-1.06-1.32-.19-.57-.29-1.26-.29-2.07v-6.4h-1.99v-1.65h1.99v-2.72h2.03v2.72h2.93v1.65h-2.93v6.3c0,.74.1,1.31.29,1.7.19.4.65.59,1.37.59h1.29v1.65h-1.43Z"/>
    <path d="M357.44,265.08v-16.43h2.03v6.37c.37-.48.89-.93,1.57-1.36.68-.43,1.55-.64,2.61-.64,1.33,0,2.29.38,2.88,1.15.58.76.87,1.85.87,3.25v7.67h-2.04v-7.38c0-.57-.06-1.08-.18-1.53-.12-.45-.34-.8-.65-1.06-.32-.26-.77-.38-1.37-.38-.89,0-1.63.2-2.23.6-.6.4-1.09.84-1.45,1.32v8.42h-2.04Z"/>
    <path d="M376.16,265.3c-1.29,0-2.35-.27-3.18-.81-.83-.54-1.44-1.28-1.84-2.21-.4-.93-.6-1.98-.6-3.14s.19-2.28.58-3.2c.39-.92.98-1.65,1.77-2.17.79-.52,1.8-.78,3.02-.78,1.62,0,2.89.49,3.81,1.46s1.38,2.38,1.38,4.21c0,.12,0,.27-.01.43s-.02.29-.04.36h-8.47c0,.77.13,1.48.37,2.13.24.65.62,1.17,1.14,1.56.52.39,1.21.59,2.06.59.91,0,1.62-.21,2.14-.64.51-.43.78-1.04.81-1.85h2.01c-.02.84-.24,1.56-.65,2.17-.41.61-.98,1.07-1.71,1.4-.73.33-1.6.49-2.6.49ZM372.6,257.96h6.49c-.02-1.11-.31-1.95-.87-2.54-.55-.59-1.32-.88-2.31-.88s-1.77.29-2.34.87c-.57.58-.89,1.43-.98,2.54Z"/>
    <path d="M384.39,265.08v-11.89h1.95l.07,1.83c.35-.48.86-.93,1.54-1.36.68-.43,1.52-.64,2.53-.64,1.32,0,2.27.39,2.84,1.16.58.77.87,1.85.87,3.23v7.67h-2.05v-7.37c0-.58-.06-1.09-.18-1.54-.12-.45-.34-.8-.65-1.06-.32-.26-.77-.38-1.37-.38-.84,0-1.55.2-2.12.6-.58.4-1.04.84-1.39,1.32v8.42h-2.04ZM399.87,265.08v-7.37c0-.58-.06-1.09-.18-1.54s-.33-.8-.65-1.06c-.32-.26-.77-.38-1.35-.38-.85,0-1.56.2-2.14.59-.58.4-1.05.83-1.43,1.31l-.31-1.49c.47-.52,1.07-1,1.79-1.45.72-.45,1.58-.67,2.59-.67,1.32,0,2.27.39,2.84,1.16.58.77.87,1.85.87,3.23v7.67h-2.04Z"/>
    <path d="M413.86,265.3c-.68,0-1.31-.13-1.87-.39s-1.02-.64-1.35-1.15c-.34-.51-.51-1.14-.51-1.89,0-1.07.33-1.88,1-2.43s1.61-.93,2.83-1.13,2.65-.31,4.29-.32v-.83c0-1.02-.25-1.72-.76-2.09-.5-.38-1.14-.57-1.92-.57-.82,0-1.51.21-2.08.62s-.84,1.07-.84,1.96h-1.98c0-.98.21-1.77.63-2.37.42-.6,1-1.04,1.73-1.32.74-.28,1.58-.42,2.53-.42.61,0,1.19.06,1.75.17.56.11,1.06.32,1.5.62s.8.72,1.06,1.26c.26.54.39,1.24.39,2.09v7.95h-1.9l-.08-1.81c-.54.61-1.18,1.1-1.9,1.47-.72.37-1.56.56-2.52.56ZM414.39,263.74c.81,0,1.55-.19,2.2-.57.65-.38,1.2-.87,1.64-1.45v-2.42c-2.17.02-3.72.23-4.66.61-.94.38-1.41,1.01-1.41,1.88,0,.59.19,1.07.57,1.42.38.35.93.53,1.67.53Z"/>
    <path d="M428.29,265.3c-.67,0-1.3-.07-1.9-.22-.6-.15-1.12-.38-1.58-.7-.46-.32-.81-.73-1.07-1.25-.26-.52-.38-1.14-.38-1.87h1.97c0,.93.29,1.58.86,1.96.57.38,1.29.57,2.15.57.77,0,1.41-.15,1.91-.45.5-.3.75-.79.75-1.47,0-.59-.23-1.02-.68-1.31-.45-.29-1.25-.56-2.39-.83-.93-.22-1.71-.47-2.34-.76s-1.11-.66-1.43-1.1-.48-1-.48-1.68c0-.53.11-1,.34-1.4.22-.4.54-.74.94-1.01.4-.27.88-.47,1.42-.6.54-.13,1.14-.2,1.77-.2s1.21.07,1.76.22c.55.15,1.03.37,1.45.68.42.31.75.71,1,1.2s.37,1.07.37,1.76h-1.98c0-.85-.25-1.44-.76-1.79s-1.12-.52-1.84-.52-1.33.13-1.78.39c-.46.26-.68.67-.68,1.22,0,.32.1.59.31.8.2.22.54.42,1.03.59s1.13.36,1.94.56c.89.21,1.63.46,2.23.76s1.06.67,1.36,1.13c.3.46.46,1.05.46,1.76,0,.62-.12,1.15-.36,1.61-.24.45-.57.82-1,1.11-.43.29-.93.5-1.5.64-.57.14-1.19.21-1.86.21Z"/>
    <path d="M448.51,265.3c-1.71,0-3.15-.35-4.32-1.06-1.17-.71-2.05-1.7-2.65-2.96-.6-1.26-.9-2.73-.9-4.4s.3-3.15.9-4.42c.6-1.27,1.48-2.26,2.65-2.97,1.17-.71,2.61-1.06,4.32-1.06.85,0,1.66.11,2.43.32.77.22,1.47.54,2.1.98.63.44,1.14.98,1.54,1.64.4.66.65,1.44.74,2.33h-2.2c-.08-.63-.32-1.2-.7-1.73-.39-.52-.91-.95-1.57-1.27-.66-.32-1.45-.48-2.36-.48-1.32,0-2.39.3-3.22.9-.83.6-1.44,1.4-1.82,2.4-.38,1-.57,2.12-.57,3.36s.19,2.34.58,3.34c.39,1,1,1.79,1.83,2.37s1.91.88,3.23.88c1.15,0,2.09-.21,2.83-.62.74-.41,1.29-.98,1.65-1.72.36-.74.55-1.58.57-2.54h-4.8v-1.82h6.95v1.28c0,1.42-.27,2.68-.8,3.77-.53,1.09-1.33,1.94-2.39,2.56-1.06.62-2.39.92-4,.92Z"/>
    <path d="M463.96,265.3c-1.29,0-2.35-.27-3.18-.81-.83-.54-1.44-1.28-1.84-2.21-.4-.93-.6-1.98-.6-3.14s.19-2.28.58-3.2c.39-.92.98-1.65,1.77-2.17.79-.52,1.8-.78,3.02-.78,1.62,0,2.89.49,3.81,1.46s1.38,2.38,1.38,4.21c0,.12,0,.27-.01.43s-.02.29-.04.36h-8.47c0,.77.13,1.48.37,2.13.24.65.62,1.17,1.14,1.56.52.39,1.21.59,2.06.59.91,0,1.62-.21,2.14-.64.51-.43.78-1.04.81-1.85h2.01c-.02.84-.24,1.56-.65,2.17-.41.61-.98,1.07-1.71,1.4-.73.33-1.6.49-2.6.49ZM460.39,257.96h6.49c-.02-1.11-.31-1.95-.87-2.54-.55-.59-1.32-.88-2.31-.88s-1.77.29-2.34.87c-.57.58-.89,1.43-.98,2.54Z"/>
    <path d="M472.18,265.08v-11.89h1.95l.07,1.83c.37-.48.89-.93,1.57-1.36.68-.43,1.56-.64,2.62-.64,1.3,0,2.25.38,2.84,1.15.59.77.89,1.85.89,3.24v7.67h-2.04v-7.37c0-.58-.06-1.09-.18-1.54-.12-.45-.34-.8-.65-1.06-.31-.26-.77-.38-1.36-.38-.89,0-1.63.2-2.23.6-.6.4-1.09.84-1.45,1.32v8.42h-2.04Z"/>
    <path d="M490.91,265.3c-1.29,0-2.35-.27-3.18-.81-.83-.54-1.44-1.28-1.84-2.21-.4-.93-.6-1.98-.6-3.14s.19-2.28.58-3.2c.39-.92.98-1.65,1.77-2.17.79-.52,1.8-.78,3.02-.78,1.62,0,2.89.49,3.81,1.46s1.38,2.38,1.38,4.21c0,.12,0,.27-.01.43s-.02.29-.04.36h-8.47c0,.77.13,1.48.37,2.13.24.65.62,1.17,1.14,1.56.52.39,1.21.59,2.06.59.91,0,1.62-.21,2.14-.64.51-.43.78-1.04.81-1.85h2.01c-.02.84-.24,1.56-.65,2.17-.41.61-.98,1.07-1.71,1.4-.73.33-1.6.49-2.6.49ZM487.34,257.96h6.49c-.02-1.11-.31-1.95-.87-2.54-.55-.59-1.32-.88-2.31-.88s-1.77.29-2.34.87c-.57.58-.89,1.43-.98,2.54Z"/>
    <path d="M499.13,265.08v-11.89h1.92l.07,2.03c.33-.62.8-1.13,1.39-1.55.59-.41,1.37-.62,2.32-.62h.24v1.87h-.28c-.59,0-1.11.08-1.56.23-.45.15-.84.37-1.17.64-.33.27-.63.59-.89.95v8.35h-2.04Z"/>
    <path d="M509.82,265.3c-.68,0-1.31-.13-1.87-.39s-1.02-.64-1.35-1.15c-.34-.51-.51-1.14-.51-1.89,0-1.07.33-1.88,1-2.43s1.61-.93,2.83-1.13,2.65-.31,4.29-.32v-.83c0-1.02-.25-1.72-.76-2.09-.5-.38-1.14-.57-1.92-.57-.82,0-1.51.21-2.08.62s-.84,1.07-.84,1.96h-1.98c0-.98.21-1.77.63-2.37.42-.6,1-1.04,1.73-1.32.74-.28,1.58-.42,2.53-.42.61,0,1.19.06,1.75.17.56.11,1.06.32,1.5.62s.8.72,1.06,1.26c.26.54.39,1.24.39,2.09v7.95h-1.9l-.08-1.81c-.54.61-1.18,1.1-1.9,1.47-.72.37-1.56.56-2.52.56ZM510.35,263.74c.81,0,1.55-.19,2.2-.57.65-.38,1.2-.87,1.64-1.45v-2.42c-2.17.02-3.72.23-4.66.61-.94.38-1.41,1.01-1.41,1.88,0,.59.19,1.07.57,1.42.38.35.93.53,1.67.53Z"/>
    <path d="M523.45,265.08c-.97,0-1.71-.15-2.22-.46-.51-.3-.86-.74-1.05-1.32-.19-.57-.28-1.26-.28-2.07v-12.58h2.03v12.49c0,.74.1,1.31.29,1.7.19.39.65.59,1.37.59h.55v1.66h-.68Z"/>
    <path d="M531.8,265.08v-16.43h2.4l5.85,9.68h-.89l5.74-9.68h2.34v16.43h-2.16v-14.6h.76l-5.58,9.44h-1.44l-5.66-9.44h.76v14.6h-2.11Z"/>
    <path d="M556.31,265.3c-1.29,0-2.35-.27-3.18-.81-.83-.54-1.44-1.28-1.84-2.21-.4-.93-.6-1.98-.6-3.14s.19-2.28.58-3.2c.39-.92.98-1.65,1.77-2.17.79-.52,1.8-.78,3.02-.78,1.62,0,2.89.49,3.81,1.46s1.38,2.38,1.38,4.21c0,.12,0,.27-.01.43s-.02.29-.04.36h-8.47c0,.77.13,1.48.37,2.13.24.65.62,1.17,1.14,1.56.52.39,1.21.59,2.06.59.91,0,1.62-.21,2.14-.64.51-.43.78-1.04.81-1.85h2.01c-.02.84-.24,1.56-.65,2.17-.41.61-.98,1.07-1.71,1.4-.73.33-1.6.49-2.6.49ZM552.75,257.96h6.49c-.02-1.11-.31-1.95-.87-2.54-.55-.59-1.32-.88-2.31-.88s-1.77.29-2.34.87c-.57.58-.89,1.43-.98,2.54Z"/>
    <path d="M564.54,265.08v-11.89h1.95l.07,1.83c.35-.48.86-.93,1.54-1.36.68-.43,1.52-.64,2.53-.64,1.32,0,2.27.39,2.84,1.16.58.77.87,1.85.87,3.23v7.67h-2.05v-7.37c0-.58-.06-1.09-.18-1.54-.12-.45-.34-.8-.65-1.06-.32-.26-.77-.38-1.37-.38-.84,0-1.55.2-2.12.6-.58.4-1.04.84-1.39,1.32v8.42h-2.04ZM580.02,265.08v-7.37c0-.58-.06-1.09-.18-1.54s-.33-.8-.65-1.06c-.32-.26-.77-.38-1.35-.38-.85,0-1.56.2-2.14.59-.58.4-1.05.83-1.43,1.31l-.31-1.49c.47-.52,1.07-1,1.79-1.45.72-.45,1.58-.67,2.59-.67,1.32,0,2.27.39,2.84,1.16.58.77.87,1.85.87,3.23v7.67h-2.04Z"/>
    <path d="M591.64,265.3c-.88,0-1.63-.17-2.25-.51-.62-.34-1.12-.8-1.51-1.4l-.11,1.68h-1.9v-16.43h2.04v6.45c.42-.63.96-1.14,1.63-1.53.67-.39,1.46-.59,2.36-.59.97,0,1.81.23,2.51.69.71.46,1.26,1.15,1.64,2.06.39.91.58,2.05.58,3.41s-.21,2.48-.62,3.4c-.41.92-.99,1.61-1.74,2.07-.75.46-1.63.7-2.64.7ZM591.26,263.63c1.07,0,1.89-.39,2.44-1.17.55-.78.83-1.88.83-3.3s-.26-2.59-.78-3.37c-.52-.78-1.28-1.17-2.29-1.17-.85,0-1.58.23-2.17.68-.59.46-1.06,1.01-1.4,1.66v4.58c.32.6.75,1.1,1.31,1.5.55.4,1.24.59,2.05.59Z"/>
    <path d="M604.84,265.3c-1.29,0-2.35-.27-3.18-.81-.83-.54-1.44-1.28-1.84-2.21-.4-.93-.6-1.98-.6-3.14s.19-2.28.58-3.2c.39-.92.98-1.65,1.77-2.17.79-.52,1.8-.78,3.02-.78,1.62,0,2.89.49,3.81,1.46s1.38,2.38,1.38,4.21c0,.12,0,.27-.01.43s-.02.29-.04.36h-8.47c0,.77.13,1.48.37,2.13.24.65.62,1.17,1.14,1.56.52.39,1.21.59,2.06.59.91,0,1.62-.21,2.14-.64.51-.43.78-1.04.81-1.85h2.01c-.02.84-.24,1.56-.65,2.17-.41.61-.98,1.07-1.71,1.4-.73.33-1.6.49-2.6.49ZM601.27,257.96h6.49c-.02-1.11-.31-1.95-.87-2.54-.55-.59-1.32-.88-2.31-.88s-1.77.29-2.34.87c-.57.58-.89,1.43-.98,2.54Z"/>
    <path d="M613.06,265.08v-11.89h1.92l.07,2.03c.33-.62.8-1.13,1.39-1.55.59-.41,1.37-.62,2.32-.62h.24v1.87h-.28c-.59,0-1.11.08-1.56.23-.45.15-.84.37-1.17.64-.33.27-.63.59-.89.95v8.35h-2.04Z"/>
    <path d="M44.47,295.08c-.96,0-1.7-.15-2.21-.46-.51-.3-.86-.74-1.06-1.32-.19-.57-.29-1.26-.29-2.07v-6.4h-1.99v-1.65h1.99v-2.72h2.03v2.72h2.93v1.65h-2.93v6.3c0,.74.1,1.31.29,1.7.19.4.65.59,1.37.59h1.29v1.65h-1.43Z"/>
    <path d="M53.33,295.27c-1.16,0-2.16-.25-2.99-.74s-1.46-1.2-1.9-2.11c-.44-.92-.65-2-.65-3.26s.22-2.4.65-3.33c.43-.92,1.07-1.63,1.9-2.13s1.83-.74,2.99-.74,2.2.25,3.05.74c.84.5,1.49,1.21,1.94,2.13.45.92.68,2.03.68,3.33s-.23,2.35-.68,3.26c-.45.92-1.1,1.62-1.94,2.11-.84.49-1.86.74-3.05.74ZM53.33,293.65c.88,0,1.58-.19,2.1-.58s.9-.92,1.12-1.6c.23-.68.34-1.45.34-2.31s-.11-1.67-.34-2.36-.6-1.23-1.12-1.63c-.52-.39-1.22-.59-2.1-.59s-1.53.2-2.03.59c-.5.4-.86.94-1.08,1.63-.22.69-.33,1.48-.33,2.36s.11,1.63.33,2.31c.22.68.58,1.21,1.08,1.6.5.39,1.18.58,2.03.58Z"/>
    <path d="M72.21,295.27c-1.16,0-2.16-.25-2.99-.74s-1.46-1.2-1.9-2.11c-.44-.92-.65-2-.65-3.26s.22-2.4.65-3.33c.43-.92,1.07-1.63,1.9-2.13s1.83-.74,2.99-.74,2.2.25,3.05.74c.84.5,1.49,1.21,1.94,2.13.45.92.68,2.03.68,3.33s-.23,2.35-.68,3.26c-.45.92-1.1,1.62-1.94,2.11-.84.49-1.86.74-3.05.74ZM72.21,293.65c.88,0,1.58-.19,2.1-.58s.9-.92,1.12-1.6c.23-.68.34-1.45.34-2.31s-.11-1.67-.34-2.36-.6-1.23-1.12-1.63c-.52-.39-1.22-.59-2.1-.59s-1.53.2-2.03.59c-.5.4-.86.94-1.08,1.63-.22.69-.33,1.48-.33,2.36s.11,1.63.33,2.31c.22.68.58,1.21,1.08,1.6.5.39,1.18.58,2.03.58Z"/>
    <path d="M84.76,295.26c-1.38,0-2.37-.38-2.98-1.15-.61-.76-.92-1.82-.92-3.16v-7.76h2.05v7.48c0,.54.06,1.02.18,1.44.12.42.35.75.7.99s.83.35,1.48.35c.9,0,1.64-.19,2.25-.56s1.09-.8,1.45-1.29v-8.42h2.05v11.89h-1.97l-.06-1.83c-.38.47-.92.93-1.62,1.36-.7.44-1.57.65-2.62.65Z"/>
    <path d="M94.95,295.08v-11.89h1.92l.07,2.03c.33-.62.8-1.13,1.39-1.55.59-.41,1.37-.62,2.32-.62h.24v1.87h-.28c-.59,0-1.11.08-1.56.23-.45.15-.84.37-1.17.64-.33.27-.63.59-.89.95v8.35h-2.04Z"/>
    <path d="M108.57,295.08v-16.43h10.23v1.83h-8.03v5.25h7.28v1.79h-7.28v7.56h-2.2Z"/>
    <path d="M126.05,295.27c-1.16,0-2.16-.25-2.99-.74s-1.46-1.2-1.9-2.11c-.44-.92-.65-2-.65-3.26s.22-2.4.65-3.33c.43-.92,1.07-1.63,1.9-2.13s1.83-.74,2.99-.74,2.2.25,3.05.74c.84.5,1.49,1.21,1.94,2.13.45.92.68,2.03.68,3.33s-.23,2.35-.68,3.26c-.45.92-1.1,1.62-1.94,2.11-.84.49-1.86.74-3.05.74ZM126.05,293.65c.88,0,1.58-.19,2.1-.58s.9-.92,1.12-1.6c.23-.68.34-1.45.34-2.31s-.11-1.67-.34-2.36-.6-1.23-1.12-1.63c-.52-.39-1.22-.59-2.1-.59s-1.53.2-2.03.59c-.5.4-.86.94-1.08,1.63-.22.69-.33,1.48-.33,2.36s.11,1.63.33,2.31c.22.68.58,1.21,1.08,1.6.5.39,1.18.58,2.03.58Z"/>
    <path d="M138.6,295.26c-1.38,0-2.37-.38-2.98-1.15-.61-.76-.92-1.82-.92-3.16v-7.76h2.05v7.48c0,.54.06,1.02.18,1.44.12.42.35.75.7.99s.83.35,1.48.35c.9,0,1.64-.19,2.25-.56s1.09-.8,1.45-1.29v-8.42h2.05v11.89h-1.97l-.06-1.83c-.38.47-.92.93-1.62,1.36-.7.44-1.57.65-2.62.65Z"/>
    <path d="M148.79,295.08v-11.89h1.95l.07,1.83c.37-.48.89-.93,1.57-1.36.68-.43,1.56-.64,2.62-.64,1.3,0,2.25.38,2.84,1.15.59.77.89,1.85.89,3.24v7.67h-2.04v-7.37c0-.58-.06-1.09-.18-1.54-.12-.45-.34-.8-.65-1.06-.31-.26-.77-.38-1.36-.38-.89,0-1.63.2-2.23.6-.6.4-1.09.84-1.45,1.32v8.42h-2.04Z"/>
    <path d="M166.64,295.3c-.97,0-1.81-.23-2.51-.7-.71-.46-1.26-1.16-1.64-2.08-.39-.92-.58-2.06-.58-3.42s.21-2.48.62-3.38c.41-.9.99-1.58,1.74-2.04.75-.46,1.63-.69,2.65-.69.85,0,1.58.19,2.21.56.63.37,1.13.87,1.51,1.51v-6.4h2.04v16.43h-1.93l-.11-1.73c-.42.58-.97,1.05-1.63,1.41-.67.36-1.45.54-2.36.54ZM167.06,293.63c.87,0,1.59-.21,2.17-.62.58-.41,1.05-.91,1.4-1.48v-4.58c-.33-.67-.77-1.22-1.31-1.65-.54-.43-1.22-.65-2.04-.65-1.08,0-1.9.39-2.45,1.16-.55.77-.82,1.87-.82,3.3s.26,2.6.78,3.37c.52.77,1.28,1.16,2.28,1.16Z"/>
    <path d="M179.65,295.3c-.68,0-1.31-.13-1.87-.39s-1.02-.64-1.35-1.15c-.34-.51-.51-1.14-.51-1.89,0-1.07.33-1.88,1-2.43s1.61-.93,2.83-1.13,2.65-.31,4.29-.32v-.83c0-1.02-.25-1.72-.76-2.09-.5-.38-1.14-.57-1.92-.57-.82,0-1.51.21-2.08.62s-.84,1.07-.84,1.96h-1.98c0-.98.21-1.77.63-2.37.42-.6,1-1.04,1.73-1.32.74-.28,1.58-.42,2.53-.42.61,0,1.19.06,1.75.17.56.11,1.06.32,1.5.62s.8.72,1.06,1.26c.26.54.39,1.24.39,2.09v7.95h-1.9l-.08-1.81c-.54.61-1.18,1.1-1.9,1.47-.72.37-1.56.56-2.52.56ZM180.19,293.74c.81,0,1.55-.19,2.2-.57.65-.38,1.2-.87,1.64-1.45v-2.42c-2.17.02-3.72.23-4.66.61-.94.38-1.41,1.01-1.41,1.88,0,.59.19,1.07.57,1.42.38.35.93.53,1.67.53Z"/>
    <path d="M193.62,295.08c-.96,0-1.7-.15-2.21-.46-.51-.3-.86-.74-1.06-1.32-.19-.57-.29-1.26-.29-2.07v-6.4h-1.99v-1.65h1.99v-2.72h2.03v2.72h2.93v1.65h-2.93v6.3c0,.74.1,1.31.29,1.7.19.4.65.59,1.37.59h1.29v1.65h-1.43Z"/>
    <path d="M198.75,280.96c-.38,0-.69-.11-.92-.34-.23-.22-.35-.51-.35-.85s.12-.62.35-.85c.23-.22.54-.34.92-.34s.69.11.93.34c.24.22.35.51.35.85s-.12.62-.35.85-.54.34-.93.34ZM197.73,295.08v-11.89h2.04v11.89h-2.04Z"/>
    <path d="M208.57,295.27c-1.16,0-2.16-.25-2.99-.74s-1.46-1.2-1.9-2.11c-.44-.92-.65-2-.65-3.26s.22-2.4.65-3.33c.43-.92,1.07-1.63,1.9-2.13s1.83-.74,2.99-.74,2.2.25,3.05.74c.84.5,1.49,1.21,1.94,2.13.45.92.68,2.03.68,3.33s-.23,2.35-.68,3.26c-.45.92-1.1,1.62-1.94,2.11-.84.49-1.86.74-3.05.74ZM208.57,293.65c.88,0,1.58-.19,2.1-.58s.9-.92,1.12-1.6c.23-.68.34-1.45.34-2.31s-.11-1.67-.34-2.36-.6-1.23-1.12-1.63c-.52-.39-1.22-.59-2.1-.59s-1.53.2-2.03.59c-.5.4-.86.94-1.08,1.63-.22.69-.33,1.48-.33,2.36s.11,1.63.33,2.31c.22.68.58,1.21,1.08,1.6.5.39,1.18.58,2.03.58Z"/>
    <path d="M217.49,295.08v-11.89h1.95l.07,1.83c.37-.48.89-.93,1.57-1.36.68-.43,1.56-.64,2.62-.64,1.3,0,2.25.38,2.84,1.15.59.77.89,1.85.89,3.24v7.67h-2.04v-7.37c0-.58-.06-1.09-.18-1.54-.12-.45-.34-.8-.65-1.06-.31-.26-.77-.38-1.36-.38-.89,0-1.63.2-2.23.6-.6.4-1.09.84-1.45,1.32v8.42h-2.04Z"/>
    <path d="M233,295.2c-.46,0-.83-.15-1.13-.45-.3-.3-.45-.66-.45-1.09s.15-.8.45-1.09c.3-.29.67-.43,1.13-.43s.8.14,1.09.43c.29.28.43.65.43,1.09s-.15.8-.43,1.09c-.29.3-.65.45-1.09.45ZM232.4,290.04c-.13-.94-.24-2.01-.33-3.21-.09-1.19-.14-2.39-.14-3.58v-4.6h2.14v4.6c0,1.2-.05,2.39-.14,3.59-.09,1.2-.21,2.26-.35,3.2h-1.17Z"/>
  </g>
  <g>
    <path d="M45.82,100.8l-5.25-16.68h4.6l3.21,11.78,3.21-11.78h4.75l3.28,11.76,3.16-11.76h4.29l-5.25,16.68h-4.63l-3.37-12-3.4,12h-4.62Z"/>
    <path d="M76.91,101.11c-1.86,0-3.42-.34-4.68-1.03-1.27-.69-2.22-1.68-2.87-2.98-.65-1.3-.97-2.86-.97-4.68s.32-3.29.95-4.56c.63-1.28,1.56-2.26,2.79-2.95,1.22-.69,2.73-1.03,4.52-1.03,2.48,0,4.45.73,5.89,2.18,1.44,1.45,2.16,3.52,2.16,6.21,0,.14,0,.32-.02.56-.01.23-.03.41-.05.54h-11.71c.02.79.17,1.52.44,2.21.27.68.69,1.23,1.27,1.65.58.42,1.34.62,2.29.62s1.77-.21,2.36-.64c.59-.43.89-1.06.91-1.91h4.46c-.06,1.3-.41,2.38-1.07,3.25-.66.87-1.55,1.51-2.68,1.94-1.13.43-2.46.64-3.97.64ZM72.96,90.48h7.23c-.03-1.16-.38-2.03-1.03-2.61-.66-.57-1.5-.86-2.52-.86s-1.91.3-2.57.89c-.67.59-1.03,1.45-1.1,2.58Z"/>
    <path d="M94.95,100.8c-1.7,0-3.01-.2-3.93-.61s-1.57-1.03-1.93-1.88c-.37-.85-.55-1.96-.55-3.32v-17.19h4.51v16.92c0,.88.12,1.52.36,1.93s.8.62,1.67.62h1.04v3.54h-1.18Z"/>
    <path d="M106.54,101.04c-1.55,0-2.96-.3-4.22-.89-1.27-.59-2.27-1.51-3.01-2.77-.74-1.25-1.11-2.87-1.11-4.85s.35-3.61,1.06-4.89c.71-1.28,1.69-2.22,2.95-2.85,1.26-.62,2.7-.93,4.33-.93,1.41,0,2.69.23,3.83.7,1.14.47,2.04,1.17,2.72,2.09.67.93,1.01,2.1,1.03,3.51h-4.39c-.02-.85-.31-1.54-.85-2.04s-1.32-.76-2.31-.76c-1.31,0-2.26.45-2.85,1.35-.59.9-.88,2.17-.88,3.81,0,1.06.13,1.96.38,2.71.26.75.66,1.32,1.21,1.71.55.39,1.26.59,2.13.59,1.01,0,1.81-.28,2.4-.83s.89-1.34.91-2.35h4.39c-.03,1.45-.38,2.67-1.05,3.66-.67.99-1.58,1.74-2.73,2.26-1.15.51-2.47.77-3.95.77Z"/>
    <path d="M125.83,101.08c-1.69,0-3.17-.34-4.44-1.01s-2.25-1.65-2.95-2.92c-.7-1.28-1.04-2.82-1.04-4.63s.35-3.42,1.04-4.71c.69-1.29,1.68-2.28,2.95-2.96s2.75-1.02,4.44-1.02,3.2.34,4.47,1.02c1.27.68,2.26,1.66,2.96,2.96.71,1.29,1.06,2.86,1.06,4.71s-.35,3.36-1.06,4.63c-.71,1.28-1.7,2.25-2.96,2.92-1.27.67-2.76,1.01-4.47,1.01ZM125.83,97.63c.99,0,1.77-.23,2.33-.69.56-.46.96-1.08,1.2-1.85s.35-1.63.35-2.56-.12-1.83-.35-2.62-.63-1.41-1.2-1.88c-.56-.47-1.34-.7-2.33-.7s-1.73.23-2.28.7c-.55.47-.94,1.09-1.17,1.88-.23.79-.34,1.66-.34,2.62s.11,1.79.34,2.56c.23.77.62,1.39,1.17,1.85.55.46,1.31.69,2.28.69Z"/>
    <path d="M138.33,100.8v-16.68h4.36l.08,2.5c.55-.72,1.3-1.35,2.26-1.91.96-.55,2.15-.83,3.56-.83,1.68,0,2.96.53,3.85,1.58.89,1.05,1.34,2.55,1.34,4.49v10.85h-4.53v-10.27c0-.6-.08-1.13-.25-1.59-.17-.46-.43-.81-.8-1.06-.37-.25-.85-.38-1.44-.38-.88,0-1.63.21-2.26.63-.63.42-1.18.93-1.66,1.54v11.12h-4.53ZM160.22,100.8v-10.27c0-.6-.08-1.13-.25-1.59-.17-.46-.43-.81-.8-1.06-.37-.25-.85-.38-1.44-.38-.88,0-1.63.19-2.26.58-.63.39-1.2.87-1.7,1.45l-.55-2.8c.72-.76,1.6-1.43,2.64-2,1.04-.57,2.27-.85,3.68-.85,1.66,0,2.95.53,3.85,1.58.91,1.05,1.36,2.55,1.36,4.49v10.85h-4.53Z"/>
    <path d="M177.12,101.11c-1.86,0-3.42-.34-4.68-1.03-1.27-.69-2.22-1.68-2.87-2.98-.65-1.3-.97-2.86-.97-4.68s.32-3.29.95-4.56c.63-1.28,1.56-2.26,2.79-2.95,1.22-.69,2.73-1.03,4.52-1.03,2.48,0,4.45.73,5.89,2.18,1.44,1.45,2.16,3.52,2.16,6.21,0,.14,0,.32-.02.56-.01.23-.03.41-.05.54h-11.71c.02.79.17,1.52.44,2.21.27.68.69,1.23,1.27,1.65.58.42,1.34.62,2.29.62s1.77-.21,2.36-.64c.59-.43.89-1.06.91-1.91h4.46c-.06,1.3-.41,2.38-1.07,3.25-.66.87-1.55,1.51-2.68,1.94-1.13.43-2.46.64-3.97.64ZM173.17,90.48h7.23c-.03-1.16-.38-2.03-1.03-2.61-.66-.57-1.5-.86-2.52-.86s-1.91.3-2.57.89c-.67.59-1.03,1.45-1.1,2.58Z"/>
    <path d="M195.44,101.11c-.92,0-1.83-.08-2.72-.26s-1.69-.46-2.41-.88c-.72-.42-1.29-.98-1.71-1.7-.42-.72-.63-1.61-.63-2.68h4.2c0,.93.33,1.58.98,1.95.65.36,1.42.55,2.3.55s1.54-.14,2.02-.42.72-.75.72-1.41c0-.63-.28-1.09-.85-1.4-.56-.31-1.55-.62-2.96-.94-1.19-.29-2.24-.63-3.17-1.03-.93-.4-1.66-.95-2.18-1.62-.52-.68-.79-1.57-.79-2.67,0-.87.2-1.6.6-2.21.4-.6.93-1.09,1.6-1.46.67-.37,1.42-.64,2.26-.81.84-.17,1.69-.26,2.57-.26s1.69.09,2.51.26,1.56.46,2.22.86c.66.41,1.19.95,1.59,1.63.4.68.6,1.54.6,2.56h-4.21c0-.85-.27-1.45-.81-1.78s-1.18-.5-1.91-.5c-.79,0-1.4.11-1.85.34-.45.23-.67.6-.67,1.13,0,.31.14.58.43.81.28.23.74.45,1.37.65.63.2,1.45.41,2.48.64,1.08.25,2.05.58,2.91.97.85.4,1.53.93,2.03,1.61.5.67.75,1.54.75,2.62,0,1-.2,1.85-.61,2.55-.4.7-.95,1.26-1.62,1.68-.68.43-1.45.74-2.32.93-.87.19-1.78.29-2.71.29Z"/>
  </g>
  <path d="M61.1,22.05c-2.86,0-5.42,1.3-7.14,3.31-.16-.2-.34-.38-.51-.56-.54-.54-1.14-1.01-1.77-1.39-1.48-.9-3.18-1.34-4.86-1.37h0c-2.39,0-4.81.92-6.62,2.75-1.84,1.84-2.75,4.23-2.75,6.62,0,1.68.45,3.38,1.34,4.86.38.63.85,1.23,1.39,1.77.54.54,1.14,1.01,1.77,1.39,3.6,2.19,8.39,1.72,11.5-1.39.18-.18.36-.38.51-.56,1.72,2.01,4.27,3.31,7.14,3.31,5.17,0,9.38-4.21,9.38-9.38s-4.21-9.38-9.38-9.38h0ZM41.9,31.43c0-1.25.47-2.51,1.43-3.47.96-.96,2.22-1.43,3.47-1.43h0c.51,0,1.03.09,1.52.25l-3.87,3.87-2.31,2.31c-.16-.49-.25-1.01-.25-1.52ZM50.29,34.9c-1.34,1.34-3.29,1.75-4.99,1.21l2.39-2.39,3.78-3.78.45-.45c-.13.63-.2,1.3-.2,1.97,0,1.25-.47,2.51-1.43,3.47v-.02ZM61.1,36.35c-2.71,0-4.92-2.19-4.92-4.92s2.19-4.92,4.92-4.92,4.92,2.19,4.92,4.92-2.19,4.92-4.92,4.92Z" fill="#333"/>
  <polygon points="30.13 29.84 20.91 15.54 15.54 15.54 15.54 40.65 20.91 40.65 20.91 24.94 30.96 40.65 35.52 40.65 35.52 15.54 30.13 15.54 30.13 29.84" fill="#333"/>
  <polygon points="88.19 29.84 78.96 15.54 73.59 15.54 73.59 40.65 78.96 40.65 78.96 24.94 89.01 40.65 93.56 40.65 93.56 15.54 88.19 15.54 88.19 29.84" fill="#0f6bff"/>
  <path d="M109.52,23.48c-1.34-.83-2.89-1.23-4.61-1.23s-3.42.4-4.83,1.21c-1.41.81-2.51,1.92-3.29,3.33-.78,1.41-1.19,3-1.19,4.72s.4,3.31,1.21,4.72c.81,1.41,1.92,2.53,3.38,3.33s3.13,1.21,5.06,1.21,3.2-.31,4.5-.96c1.3-.63,2.37-1.54,3.2-2.75l-3.8-2.26c-.4.51-.94.94-1.63,1.23-.69.31-1.41.47-2.13.47-1.21,0-2.17-.27-2.93-.78-.76-.54-1.34-1.34-1.79-2.42h13.07c.09-.54.13-1.14.13-1.79,0-1.72-.38-3.29-1.12-4.7-.76-1.41-1.81-2.53-3.16-3.36l-.07.02ZM100.52,29.41c.04-.78.49-1.43,1.34-1.99s1.86-.83,3-.83,2.04.25,2.8.74,1.23,1.19,1.39,2.08h-8.55.02Z" fill="#0f6bff"/>
  <path d="M131.56,23.46c-1.34-.81-2.95-1.21-4.83-1.21s-1.92.16-2.84.49c-.92.31-1.77.78-2.57,1.39v-1.39h-5.13v25.11h5.13v-8.5c.78.6,1.66,1.05,2.57,1.39.94.31,1.88.49,2.84.49,1.86,0,3.47-.4,4.83-1.23,1.34-.83,2.39-1.95,3.11-3.38s1.07-3.07,1.07-4.88-.36-3.45-1.07-4.86c-.72-1.43-1.75-2.55-3.11-3.36v-.07ZM129.32,34.96c-.85.83-1.95,1.23-3.29,1.23s-2.48-.4-3.38-1.23-1.34-1.9-1.34-3.25.45-2.44,1.37-3.29,2.04-1.3,3.38-1.3,2.44.43,3.29,1.25c.85.83,1.28,1.95,1.28,3.29s-.43,2.46-1.28,3.29h-.02Z" fill="#0f6bff"/>
  <path d="M150.27,23.01c-1.07-.45-2.1-.67-3.13-.67-1.52,0-2.95.56-4.27,1.66v-8.46h-5.13v25.11h5.13v-10.97c.13-.98.49-1.7,1.03-2.17.56-.47,1.19-.69,1.95-.69s1.66.25,2.31.76c.65.51.96,1.34.96,2.48v10.59h5.13v-10.72c-.02-1.9-.43-3.42-1.21-4.57-.78-1.12-1.7-1.9-2.75-2.35Z" fill="#0f6bff"/>
  <path d="M170.15,23.48c-1.41-.83-2.95-1.25-4.61-1.25s-3.25.43-4.66,1.25c-1.41.83-2.55,1.95-3.38,3.38-.83,1.41-1.25,2.98-1.25,4.66s.43,3.2,1.25,4.63c.83,1.43,1.95,2.55,3.38,3.38,1.41.83,2.98,1.25,4.66,1.25s3.2-.43,4.61-1.25c1.41-.83,2.53-1.97,3.38-3.38.83-1.43,1.25-2.98,1.25-4.63s-.43-3.25-1.25-4.66c-.83-1.41-1.95-2.53-3.38-3.38ZM168.51,34.52c-.85.83-1.86,1.25-3.02,1.25s-2.17-.43-3-1.25-1.25-1.84-1.25-3,.43-2.17,1.25-3.02c.83-.85,1.84-1.25,3-1.25s2.17.43,3.02,1.25c.85.85,1.25,1.86,1.25,3.02s-.43,2.17-1.25,3Z" fill="#0f6bff"/>
  <path d="M191.34,31.81c-.69-.78-1.5-1.34-2.39-1.68-.92-.34-2.06-.65-3.45-.94-1.07-.2-1.86-.43-2.35-.6-.49-.2-.74-.49-.74-.9s.2-.81.6-1.07c.4-.27.94-.4,1.61-.4s1.39.13,1.88.43c.47.29.85.72,1.14,1.3l4.07-1.99c-.69-1.19-1.68-2.1-2.91-2.73s-2.64-.94-4.19-.94-2.53.22-3.63.67c-1.12.45-1.99,1.1-2.64,1.95-.65.85-.98,1.86-.98,3s.34,2.15.98,2.86c.65.72,1.43,1.23,2.35,1.59.92.34,2.06.67,3.4.96,1.19.27,2.06.51,2.62.74s.83.58.83,1.05-.29.96-.9,1.25c-.6.29-1.3.45-2.08.45-1.95,0-3.2-.74-3.76-2.24l-4.12,2.1c.67,1.37,1.68,2.37,3.02,3.07,1.34.69,2.95,1.03,4.86,1.03s2.66-.22,3.87-.65c1.19-.43,2.15-1.07,2.89-1.92.72-.85,1.1-1.88,1.1-3.07s-.34-2.46-1.03-3.25l-.07-.07Z" fill="#0f6bff"/>
  <rect y="395.27" width="764" height="4.73" fill="url(#linear-gradient-2)"/>
  <g id="Layer_1-2" data-name="Layer 1">
    <g>
      <path d="M460.85,100.32c-4.03,0-7.32-3.28-7.32-7.32v-21.69c0-4.03,3.28-7.32,7.32-7.32h16.65c1.3,0,2.37,1.06,2.37,2.36s-1.06,2.36-2.37,2.36h-16.65c-1.43,0-2.59,1.16-2.59,2.59v8.54h16.33c1.24,0,2.24,1.01,2.24,2.24s-1,2.24-2.24,2.24h-16.33v8.67c0,1.43,1.16,2.59,2.59,2.59h16.65c1.3,0,2.37,1.06,2.37,2.37s-1.06,2.36-2.37,2.36h-16.65ZM386.21,100.8c-4.8,0-8.5-1.22-10.99-3.62-2.49-2.4-3.75-6.01-3.75-10.73v-20.18c0-1.51,1.23-2.74,2.74-2.74s2.74,1.23,2.74,2.74v19.45c0,3.53.76,6.18,2.26,7.87,1.51,1.7,3.86,2.56,7,2.56s5.49-.86,7-2.56c1.5-1.69,2.26-4.34,2.26-7.87v-19.45c0-1.51,1.23-2.74,2.74-2.74s2.74,1.23,2.74,2.74v20.18c0,4.72-1.26,8.33-3.76,10.73-2.49,2.4-6.19,3.62-10.99,3.62M427.38,100.8c-6.18,0-10.89-1.76-13.99-5.22-.9-1-.84-2.55.13-3.52h0s0-.02,0-.02c.49-.49,1.15-.76,1.84-.76.74,0,1.43.31,1.9.86.86,1,1.85,1.81,2.94,2.41,1.9,1.05,4.29,1.59,7.1,1.59s4.8-.47,6.33-1.4c1.58-.95,2.38-2.33,2.38-4.09,0-1.42-.72-2.58-2.15-3.44-1.39-.84-3.74-1.55-7.17-2.2-3.34-.62-6.03-1.4-8-2.31-1.95-.9-3.38-2.03-4.25-3.35-.88-1.32-1.32-2.95-1.32-4.86,0-2.01.56-3.87,1.68-5.52,1.12-1.66,2.75-2.99,4.87-3.97,2.12-.98,4.64-1.48,7.48-1.48,3.32,0,6.18.61,8.52,1.81,1.57.8,3,1.91,4.23,3.29.95,1.06.86,2.69-.2,3.65-.48.43-1.09.66-1.73.66-.81,0-1.56-.37-2.05-1.01-.7-.91-1.49-1.66-2.35-2.21-1.59-1.02-3.73-1.54-6.37-1.54s-4.65.53-6.1,1.58c-1.47,1.06-2.22,2.45-2.22,4.13,0,1.57.73,2.83,2.18,3.75,1.4.89,3.83,1.64,7.43,2.29,3.26.59,5.89,1.34,7.8,2.23,1.89.88,3.29,1.99,4.15,3.3.86,1.3,1.29,2.95,1.29,4.88,0,2.08-.6,3.94-1.78,5.52-1.19,1.59-2.88,2.82-5.03,3.66-2.16.85-4.7,1.29-7.55,1.29M345.31,100.81c-6.18,0-10.89-1.76-13.99-5.22-.9-1-.84-2.55.13-3.52h.01c.49-.51,1.15-.78,1.85-.78.74,0,1.43.31,1.9.86.86,1,1.85,1.81,2.94,2.41,1.9,1.06,4.29,1.59,7.1,1.59,2.67,0,4.8-.47,6.33-1.4,1.58-.95,2.38-2.33,2.38-4.08,0-1.42-.73-2.58-2.15-3.44-1.39-.84-3.74-1.56-7.17-2.2-3.34-.62-6.03-1.4-8-2.31-1.95-.9-3.38-2.03-4.25-3.35-.87-1.32-1.32-2.95-1.32-4.86,0-2.01.56-3.87,1.68-5.52,1.12-1.66,2.75-2.99,4.87-3.97,2.12-.98,4.64-1.48,7.48-1.48,3.32,0,6.18.61,8.52,1.81,1.57.8,3,1.91,4.23,3.29.95,1.06.86,2.69-.2,3.65-.48.43-1.09.66-1.73.66-.81,0-1.56-.37-2.05-1.01-.7-.91-1.49-1.66-2.35-2.21-1.59-1.02-3.73-1.54-6.37-1.54s-4.65.53-6.1,1.58c-1.47,1.07-2.22,2.46-2.22,4.13,0,1.57.73,2.83,2.18,3.75,1.4.89,3.83,1.64,7.43,2.29,3.26.58,5.88,1.33,7.8,2.23,1.89.88,3.28,1.99,4.14,3.3.86,1.3,1.29,2.94,1.29,4.89,0,2.08-.6,3.94-1.78,5.51-1.19,1.59-2.88,2.82-5.03,3.67-2.16.85-4.7,1.29-7.55,1.29" fill="#fff"/>
      <path d="M309.35,76.35c-.59-.6-1.55-.6-2.13,0-.66.66-.58,1.79.24,2.33.5.33,1.16.33,1.66,0,.81-.54.89-1.67.24-2.33M307.39,71.22c-4.03-.94-7.66,2.68-6.71,6.71.48,2.05,2.11,3.68,4.17,4.16,4.03.95,7.66-2.68,6.71-6.71-.48-2.05-2.11-3.68-4.17-4.16M280.77,93.92c-2.63-.97-3.64-.78-7-.73-2.33.03-2.41-.05-5.07-.05-.82,0-1.12,3.94,1.85,4.75,1.3.36,2.71.58,3.68,1.58.43.44.68,1.11-.32,1.11h-7.38c-1.29,0-2.51.03-3.5-.81-1.49-1.26-2.18-2.99-2.93-4.71-.77-1.79-1.61-3.55-2.59-5.23-1.95-3.35-4.52-6.38-7.98-8.23-4.31-2.31-11.63-3.46-17.43.99-6.11,4.69-4.8,13.48.54,17.77,2.11,1.7,4.86,2.41,7.57,2.25,5.28-.31,9.18-4.2,8.21-8.99-.32-1.6-1.26-3.12-2.67-3.95-1-.59-2.19-.79-3.35-.8-1.25,0-2.58.25-3.47,1.12-1.06,1.03-1.23,2.84-.38,4.05.47.67,1.23,1.24,1.1,2.11-.09.59-.58,1.03-1.16,1.16-.99.22-1.9-.34-2.57-1.03-1.72-1.77-2.25-4.58-1.31-6.86,1.24-2.98,4.67-4.62,7.9-4.52,4.16.14,8.08,2.88,9.79,6.68,1.71,3.8,1.19,8.46-1.16,11.9-5.22,7.63-18.12,6.73-24.11.29-3.76-4.04-5.8-7.96-5.52-15.26.2-5.16,3.18-10.24,6.97-13.81,6.18-5.82,14.32-9.81,22.6-11.52,5.03-1.04,10.22-1.28,15.33-.77,4.5.45,8.98,1.27,13.31,2.61,2.15.67,4.26,1.47,6.31,2.4,1.8.83,4.17,1.73,5.57,3.16,0-2.59-.1-5.43-.1-7.41,0-.76.79-1.27,1.47-.94,2.93,1.36,9.87,4.64,14.49,6.75,6.2,2.83,6.64,9.52,6.86,15.44,0,.13.01.27-.05.39-.2.41-1.24.3-1.62.3-.74,0-1.86,0-2.6.04-1.48.06-2.92.04-4.4-.04-2.74-.13-5.38-1.35-7.16-2.84-.18-.15-.75-.31-1.02-.03-.28.29-.18.74-.03.9,1.02,1.03,2.12,1.69,3.4,2.35,1.63.84,3.4,1.05,5.2,1.15,1.93.11,3.87.08,5.79-.11,1.61-.16,2.02-.28.44.9-1.39,1.04-3.01,1.78-4.65,2.33-2.35.8-4.83,1.19-7.31,1.26-1.5.04-3-.04-4.49-.23-.77-.1-1.54-.24-2.31-.31-.63-.06-1.28-.18-1.9-.05-.57.12-1.09.43-1.45.89-.49.64-.66,2.4-.38,3.16.55,1.47,1.75,2.33,3.02,3.09,1.38.82,3.18,1.1,3.54,2.66.07.33-2.85.34-3.18.33h-3.89s-2.11.05-2.94-.25c-.03,0-.05-.02-.07-.03-.45-.24-.64-.84-.79-1.29-.22-.64-.6-1.28-1.06-1.94-.88-1.26-2.23-2.63-3.64-3.15M310.24,76.65c0,2.28-1.85,4.13-4.13,4.13s-4.13-1.85-4.13-4.13,1.85-4.13,4.13-4.13,4.13,1.85,4.13,4.13" fill="#30ba78"/>
    </g>
  </g>
</svg>